<svg id="Layer_1" data-name="Layer 1" xmlns="http://www.w3.org/2000/svg" xmlns:xlink="http://www.w3.org/1999/xlink" viewBox="0 0 1920 514"><defs><style>.cls-1{fill:#fff;}.cls-11,.cls-2,.cls-20,.cls-4,.cls-6,.cls-8{fill-rule:evenodd;}.cls-20,.cls-3{fill:#c5a552;}.cls-3{stroke:#000;}.cls-4{fill:#85b0a6;}.cls-5{mask:url(#mask);}.cls-6{fill:#e0cdad;}.cls-7{mask:url(#mask-2);}.cls-8{fill:#eecd5c;}.cls-9{mask:url(#mask-3);}.cls-10{mask:url(#mask-4);}.cls-11{fill:#89873b;}.cls-12{mask:url(#mask-5);}.cls-13{mask:url(#mask-6);}.cls-14{mask:url(#mask-7);}.cls-15{mask:url(#mask-8);}.cls-16{mask:url(#mask-9);}.cls-17{mask:url(#mask-10);}.cls-18{mask:url(#mask-12);}.cls-19{mask:url(#mask-13);}.cls-21{mask:url(#mask-14);}.cls-22{mask:url(#mask-15);}.cls-23{mask:url(#mask-16);}.cls-24{mask:url(#mask-17);}.cls-25{mask:url(#mask-18);}.cls-26{mask:url(#mask-19);}.cls-27{mask:url(#mask-20);}.cls-28{mask:url(#mask-21);}.cls-29{mask:url(#mask-22);}.cls-30{mask:url(#mask-23);}.cls-31{mask:url(#mask-24);}.cls-32{mask:url(#mask-25);}.cls-33{mask:url(#mask-26);}.cls-34{mask:url(#mask-27);}.cls-35{mask:url(#mask-28);}.cls-36{mask:url(#mask-29);}.cls-37{mask:url(#mask-30);}.cls-38{mask:url(#mask-31);}.cls-39{mask:url(#mask-32);}.cls-40{mask:url(#mask-34);}.cls-41{mask:url(#mask-35);}.cls-42{mask:url(#mask-36);}.cls-43{mask:url(#mask-37);}.cls-44{mask:url(#mask-38);}.cls-45{mask:url(#mask-39);}.cls-46{mask:url(#mask-40);}.cls-47{mask:url(#mask-41);}.cls-48{mask:url(#mask-42);}.cls-49{mask:url(#mask-43);}.cls-50{mask:url(#mask-44);}.cls-51{mask:url(#mask-45);}.cls-52{mask:url(#mask-46);}.cls-53{mask:url(#mask-47);}.cls-54{mask:url(#mask-48);}.cls-55{mask:url(#mask-49);}.cls-56{mask:url(#mask-50);}.cls-57{mask:url(#mask-51);}.cls-58{mask:url(#mask-52);}.cls-59{mask:url(#mask-53);}.cls-60{mask:url(#mask-54);}.cls-61{mask:url(#mask-56);}.cls-62{mask:url(#mask-57);}.cls-63{mask:url(#mask-58);}.cls-64{mask:url(#mask-59);}.cls-65{mask:url(#mask-60);}.cls-66{mask:url(#mask-61);}.cls-67{mask:url(#mask-62);}.cls-68{mask:url(#mask-63);}.cls-69{mask:url(#mask-64);}.cls-70{mask:url(#mask-65);}.cls-71{mask:url(#mask-66);}</style><mask id="mask" x="531.99" y="-3.39" width="109.96" height="264.35" maskUnits="userSpaceOnUse"><g id="path-4-outside-1"><rect class="cls-1" x="531.99" y="-3.39" width="109.96" height="264.35"/><path class="cls-2" d="M640.94.25V257.32L534,128.79Z"/></g></mask><mask id="mask-2" x="318.11" y="253.69" width="109.96" height="264.35" maskUnits="userSpaceOnUse"><g id="path-6-outside-2"><rect class="cls-1" x="318.11" y="253.69" width="109.96" height="264.35"/><path class="cls-2" d="M427.06,257.32V514.4L320.13,385.86Z"/></g></mask><mask id="mask-3" x="531.99" y="253.69" width="109.96" height="264.35" maskUnits="userSpaceOnUse"><g id="path-8-outside-3"><rect class="cls-1" x="531.99" y="253.69" width="109.96" height="264.35"/><path class="cls-2" d="M640.94,257.32V514.4L534,385.86Z"/></g></mask><mask id="mask-4" x="104.23" y="-3.39" width="109.96" height="264.35" maskUnits="userSpaceOnUse"><g id="path-10-outside-4"><rect class="cls-1" x="104.23" y="-3.39" width="109.96" height="264.35"/><path class="cls-2" d="M213.19.25V257.32L106.25,128.79Z"/></g></mask><mask id="mask-5" x="318.11" y="-3.39" width="109.96" height="264.35" maskUnits="userSpaceOnUse"><g id="path-12-outside-5"><rect class="cls-1" x="318.11" y="-3.39" width="109.96" height="264.35"/><path class="cls-2" d="M427.06.25V257.32L320.13,128.79Z"/></g></mask><mask id="mask-6" x="104.23" y="253.69" width="109.96" height="264.35" maskUnits="userSpaceOnUse"><g id="path-14-outside-6"><rect class="cls-1" x="104.23" y="253.69" width="109.96" height="264.35"/><path class="cls-2" d="M213.19,257.32V514.4L106.25,385.86Z"/></g></mask><mask id="mask-7" x="426.06" y="-3.39" width="109.96" height="264.35" maskUnits="userSpaceOnUse"><g id="path-16-outside-7"><rect class="cls-1" x="426.06" y="-3.39" width="109.96" height="264.35"/><path class="cls-2" d="M427.06,257.32V.25L534,128.79Z"/></g></mask><mask id="mask-8" x="426.06" y="253.69" width="109.96" height="264.35" maskUnits="userSpaceOnUse"><g id="path-18-outside-8"><rect class="cls-1" x="426.06" y="253.69" width="109.96" height="264.35"/><path class="cls-2" d="M427.06,514.4V257.32L534,385.86Z"/></g></mask><mask id="mask-9" x="212.18" y="253.69" width="109.96" height="264.35" maskUnits="userSpaceOnUse"><g id="path-20-outside-9"><rect class="cls-1" x="212.18" y="253.69" width="109.96" height="264.35"/><path class="cls-2" d="M213.19,514.4V257.32L320.13,385.86Z"/></g></mask><mask id="mask-10" x="212.18" y="-3.39" width="109.96" height="264.35" maskUnits="userSpaceOnUse"><g id="path-22-outside-10"><rect class="cls-1" x="212.18" y="-3.39" width="109.96" height="264.35"/><path class="cls-2" d="M213.19,257.32V.25L320.13,128.79Z"/></g></mask><mask id="mask-12" x="-1.7" y="-3.39" width="109.96" height="264.35" maskUnits="userSpaceOnUse"><g id="path-26-outside-12"><rect class="cls-1" x="-1.7" y="-3.39" width="109.96" height="264.35"/><path class="cls-2" d="M-.69,257.32V.25L106.25,128.79Z"/></g></mask><mask id="mask-13" x="-1.7" y="253.69" width="109.96" height="264.35" maskUnits="userSpaceOnUse"><g id="path-28-outside-13"><rect class="cls-1" x="-1.7" y="253.69" width="109.96" height="264.35"/><path class="cls-2" d="M-.69,514.4V257.32L106.25,385.86Z"/></g></mask><mask id="mask-14" x="424.04" y="-0.96" width="219.93" height="132.17" maskUnits="userSpaceOnUse"><g id="path-30-outside-14"><rect class="cls-1" x="424.04" y="-0.96" width="219.93" height="132.17"/><path class="cls-2" d="M427.06.25H640.94L534,128.79Z"/></g></mask><mask id="mask-15" x="424.04" y="383.44" width="219.93" height="132.17" maskUnits="userSpaceOnUse"><g id="path-32-outside-15"><rect class="cls-1" x="424.04" y="383.44" width="219.93" height="132.17"/><path class="cls-2" d="M640.94,514.4H427.06L534,385.86Z"/></g></mask><mask id="mask-16" x="-3.71" y="383.44" width="219.93" height="132.17" maskUnits="userSpaceOnUse"><g id="path-34-outside-16"><rect class="cls-1" x="-3.71" y="383.44" width="219.93" height="132.17"/><path class="cls-2" d="M213.19,514.4H-.69L106.25,385.86Z"/></g></mask><mask id="mask-17" x="210.16" y="383.44" width="219.93" height="132.17" maskUnits="userSpaceOnUse"><g id="path-36-outside-17"><rect class="cls-1" x="210.16" y="383.44" width="219.93" height="132.17"/><path class="cls-2" d="M427.06,514.4H213.19L320.13,385.86Z"/></g></mask><mask id="mask-18" x="-3.71" y="126.36" width="219.93" height="132.17" maskUnits="userSpaceOnUse"><g id="path-38-outside-18"><rect class="cls-1" x="-3.71" y="126.36" width="219.93" height="132.17"/><path class="cls-2" d="M213.19,257.32H-.69L106.25,128.79Z"/></g></mask><mask id="mask-19" x="424.04" y="126.36" width="219.93" height="132.17" maskUnits="userSpaceOnUse"><g id="path-40-outside-19"><rect class="cls-1" x="424.04" y="126.36" width="219.93" height="132.17"/><path class="cls-2" d="M640.94,257.32H427.06L534,128.79Z"/></g></mask><mask id="mask-20" x="210.16" y="126.36" width="219.93" height="132.17" maskUnits="userSpaceOnUse"><g id="path-42-outside-20"><rect class="cls-1" x="210.16" y="126.36" width="219.93" height="132.17"/><path class="cls-2" d="M427.06,257.32H213.19L320.13,128.79Z"/></g></mask><mask id="mask-21" x="-3.71" y="-0.96" width="219.93" height="132.17" maskUnits="userSpaceOnUse"><g id="path-44-outside-21"><rect class="cls-1" x="-3.71" y="-0.96" width="219.93" height="132.17"/><path class="cls-2" d="M-.69.25H213.19L106.25,128.79Z"/></g></mask><mask id="mask-22" x="210.16" y="-0.96" width="219.93" height="132.17" maskUnits="userSpaceOnUse"><g id="path-46-outside-22"><rect class="cls-1" x="210.16" y="-0.96" width="219.93" height="132.17"/><path class="cls-2" d="M213.19.25H427.06L320.13,128.79Z"/></g></mask><mask id="mask-23" x="1174.24" y="-3.39" width="109.71" height="264.35" maskUnits="userSpaceOnUse"><g id="path-4-outside-1-2" data-name="path-4-outside-1"><rect class="cls-1" x="1174.24" y="-3.39" width="109.71" height="264.35"/><path class="cls-2" d="M1283,.25V257.32L1176.26,128.79Z"/></g></mask><mask id="mask-24" x="960.86" y="253.69" width="109.71" height="264.35" maskUnits="userSpaceOnUse"><g id="path-6-outside-2-2" data-name="path-6-outside-2"><rect class="cls-1" x="960.86" y="253.69" width="109.71" height="264.35"/><path class="cls-2" d="M1069.57,257.32V514.4L962.88,385.86Z"/></g></mask><mask id="mask-25" x="1174.24" y="253.69" width="109.71" height="264.35" maskUnits="userSpaceOnUse"><g id="path-8-outside-3-2" data-name="path-8-outside-3"><rect class="cls-1" x="1174.24" y="253.69" width="109.71" height="264.35"/><path class="cls-2" d="M1283,257.32V514.4L1176.26,385.86Z"/></g></mask><mask id="mask-26" x="747.48" y="-3.39" width="109.71" height="264.35" maskUnits="userSpaceOnUse"><g id="path-10-outside-4-2" data-name="path-10-outside-4"><rect class="cls-1" x="747.48" y="-3.39" width="109.71" height="264.35"/><path class="cls-2" d="M856.19.25V257.32L749.5,128.79Z"/></g></mask><mask id="mask-27" x="960.86" y="-3.39" width="109.71" height="264.35" maskUnits="userSpaceOnUse"><g id="path-12-outside-5-2" data-name="path-12-outside-5"><rect class="cls-1" x="960.86" y="-3.39" width="109.71" height="264.35"/><path class="cls-2" d="M1069.57.25V257.32L962.88,128.79Z"/></g></mask><mask id="mask-28" x="747.48" y="253.69" width="109.71" height="264.35" maskUnits="userSpaceOnUse"><g id="path-14-outside-6-2" data-name="path-14-outside-6"><rect class="cls-1" x="747.48" y="253.69" width="109.71" height="264.35"/><path class="cls-2" d="M856.19,257.32V514.4L749.5,385.86Z"/></g></mask><mask id="mask-29" x="1068.56" y="-3.39" width="109.71" height="264.35" maskUnits="userSpaceOnUse"><g id="path-16-outside-7-2" data-name="path-16-outside-7"><rect class="cls-1" x="1068.56" y="-3.39" width="109.71" height="264.35"/><path class="cls-2" d="M1069.57,257.32V.25l106.69,128.54Z"/></g></mask><mask id="mask-30" x="1068.56" y="253.69" width="109.71" height="264.35" maskUnits="userSpaceOnUse"><g id="path-18-outside-8-2" data-name="path-18-outside-8"><rect class="cls-1" x="1068.56" y="253.69" width="109.71" height="264.35"/><path class="cls-2" d="M1069.57,514.4V257.32l106.69,128.54Z"/></g></mask><mask id="mask-31" x="855.18" y="253.69" width="109.71" height="264.35" maskUnits="userSpaceOnUse"><g id="path-20-outside-9-2" data-name="path-20-outside-9"><rect class="cls-1" x="855.18" y="253.69" width="109.71" height="264.35"/><path class="cls-2" d="M856.19,514.4V257.32L962.88,385.86Z"/></g></mask><mask id="mask-32" x="855.18" y="-3.39" width="109.71" height="264.35" maskUnits="userSpaceOnUse"><g id="path-22-outside-10-2" data-name="path-22-outside-10"><rect class="cls-1" x="855.18" y="-3.39" width="109.71" height="264.35"/><path class="cls-2" d="M856.19,257.32V.25L962.88,128.79Z"/></g></mask><mask id="mask-34" x="641.8" y="-3.39" width="109.71" height="264.35" maskUnits="userSpaceOnUse"><g id="path-26-outside-12-2" data-name="path-26-outside-12"><rect class="cls-1" x="641.8" y="-3.39" width="109.71" height="264.35"/><path class="cls-2" d="M642.81,257.32V.25L749.5,128.79Z"/></g></mask><mask id="mask-35" x="641.8" y="253.69" width="109.71" height="264.35" maskUnits="userSpaceOnUse"><g id="path-28-outside-13-2" data-name="path-28-outside-13"><rect class="cls-1" x="641.8" y="253.69" width="109.71" height="264.35"/><path class="cls-2" d="M642.81,514.4V257.32L749.5,385.86Z"/></g></mask><mask id="mask-36" x="1066.55" y="-0.96" width="219.42" height="132.17" maskUnits="userSpaceOnUse"><g id="path-30-outside-14-2" data-name="path-30-outside-14"><rect class="cls-1" x="1066.55" y="-0.96" width="219.42" height="132.17"/><path class="cls-2" d="M1069.57.25H1283L1176.26,128.79Z"/></g></mask><mask id="mask-37" x="1066.55" y="383.44" width="219.42" height="132.17" maskUnits="userSpaceOnUse"><g id="path-32-outside-15-2" data-name="path-32-outside-15"><rect class="cls-1" x="1066.55" y="383.44" width="219.42" height="132.17"/><path class="cls-2" d="M1283,514.4H1069.57l106.69-128.54Z"/></g></mask><mask id="mask-38" x="639.79" y="383.44" width="219.42" height="132.17" maskUnits="userSpaceOnUse"><g id="path-34-outside-16-2" data-name="path-34-outside-16"><rect class="cls-1" x="639.79" y="383.44" width="219.42" height="132.17"/><path class="cls-2" d="M856.19,514.4H642.81L749.5,385.86Z"/></g></mask><mask id="mask-39" x="853.17" y="383.44" width="219.42" height="132.17" maskUnits="userSpaceOnUse"><g id="path-36-outside-17-2" data-name="path-36-outside-17"><rect class="cls-1" x="853.17" y="383.44" width="219.42" height="132.17"/><path class="cls-2" d="M1069.57,514.4H856.19L962.88,385.86Z"/></g></mask><mask id="mask-40" x="639.79" y="126.36" width="219.42" height="132.17" maskUnits="userSpaceOnUse"><g id="path-38-outside-18-2" data-name="path-38-outside-18"><rect class="cls-1" x="639.79" y="126.36" width="219.42" height="132.17"/><path class="cls-2" d="M856.19,257.32H642.81L749.5,128.79Z"/></g></mask><mask id="mask-41" x="1066.55" y="126.36" width="219.42" height="132.17" maskUnits="userSpaceOnUse"><g id="path-40-outside-19-2" data-name="path-40-outside-19"><rect class="cls-1" x="1066.55" y="126.36" width="219.42" height="132.17"/><path class="cls-2" d="M1283,257.32H1069.57l106.69-128.53Z"/></g></mask><mask id="mask-42" x="853.17" y="126.36" width="219.42" height="132.17" maskUnits="userSpaceOnUse"><g id="path-42-outside-20-2" data-name="path-42-outside-20"><rect class="cls-1" x="853.17" y="126.36" width="219.42" height="132.17"/><path class="cls-2" d="M1069.57,257.32H856.19L962.88,128.79Z"/></g></mask><mask id="mask-43" x="639.79" y="-0.96" width="219.42" height="132.17" maskUnits="userSpaceOnUse"><g id="path-44-outside-21-2" data-name="path-44-outside-21"><rect class="cls-1" x="639.79" y="-0.96" width="219.42" height="132.17"/><path class="cls-2" d="M642.81.25H856.19L749.5,128.79Z"/></g></mask><mask id="mask-44" x="853.17" y="-0.96" width="219.42" height="132.17" maskUnits="userSpaceOnUse"><g id="path-46-outside-22-2" data-name="path-46-outside-22"><rect class="cls-1" x="853.17" y="-0.96" width="219.42" height="132.17"/><path class="cls-2" d="M856.19.25h213.38L962.88,128.79Z"/></g></mask><mask id="mask-45" x="1813.26" y="-3.39" width="109.2" height="264.35" maskUnits="userSpaceOnUse"><g id="path-4-outside-1-3" data-name="path-4-outside-1"><rect class="cls-1" x="1813.26" y="-3.39" width="109.2" height="264.35"/><path class="cls-2" d="M1921.46.25V257.32L1815.27,128.79Z"/></g></mask><mask id="mask-46" x="1600.88" y="253.69" width="109.2" height="264.35" maskUnits="userSpaceOnUse"><g id="path-6-outside-2-3" data-name="path-6-outside-2"><rect class="cls-1" x="1600.88" y="253.69" width="109.2" height="264.35"/><path class="cls-2" d="M1709.08,257.32V514.4L1602.89,385.86Z"/></g></mask><mask id="mask-47" x="1813.26" y="253.69" width="109.2" height="264.35" maskUnits="userSpaceOnUse"><g id="path-8-outside-3-3" data-name="path-8-outside-3"><rect class="cls-1" x="1813.26" y="253.69" width="109.2" height="264.35"/><path class="cls-2" d="M1921.46,257.32V514.4L1815.27,385.86Z"/></g></mask><mask id="mask-48" x="1388.5" y="-3.39" width="109.2" height="264.35" maskUnits="userSpaceOnUse"><g id="path-10-outside-4-3" data-name="path-10-outside-4"><rect class="cls-1" x="1388.5" y="-3.39" width="109.2" height="264.35"/><path class="cls-2" d="M1496.7.25V257.32L1390.51,128.79Z"/></g></mask><mask id="mask-49" x="1600.88" y="-3.39" width="109.2" height="264.35" maskUnits="userSpaceOnUse"><g id="path-12-outside-5-3" data-name="path-12-outside-5"><rect class="cls-1" x="1600.88" y="-3.39" width="109.2" height="264.35"/><path class="cls-2" d="M1709.08.25V257.32L1602.89,128.79Z"/></g></mask><mask id="mask-50" x="1388.5" y="253.69" width="109.2" height="264.35" maskUnits="userSpaceOnUse"><g id="path-14-outside-6-3" data-name="path-14-outside-6"><rect class="cls-1" x="1388.5" y="253.69" width="109.2" height="264.35"/><path class="cls-2" d="M1496.7,257.32V514.4L1390.51,385.86Z"/></g></mask><mask id="mask-51" x="1708.08" y="-3.39" width="109.2" height="264.35" maskUnits="userSpaceOnUse"><g id="path-16-outside-7-3" data-name="path-16-outside-7"><rect class="cls-1" x="1708.08" y="-3.39" width="109.2" height="264.35"/><path class="cls-2" d="M1709.08,257.32V.25l106.19,128.54Z"/></g></mask><mask id="mask-52" x="1708.08" y="253.69" width="109.2" height="264.35" maskUnits="userSpaceOnUse"><g id="path-18-outside-8-3" data-name="path-18-outside-8"><rect class="cls-1" x="1708.08" y="253.69" width="109.2" height="264.35"/><path class="cls-2" d="M1709.08,514.4V257.32l106.19,128.54Z"/></g></mask><mask id="mask-53" x="1495.7" y="253.69" width="109.2" height="264.35" maskUnits="userSpaceOnUse"><g id="path-20-outside-9-3" data-name="path-20-outside-9"><rect class="cls-1" x="1495.7" y="253.69" width="109.2" height="264.35"/><path class="cls-2" d="M1496.7,514.4V257.32l106.19,128.54Z"/></g></mask><mask id="mask-54" x="1495.7" y="-3.39" width="109.2" height="264.35" maskUnits="userSpaceOnUse"><g id="path-22-outside-10-3" data-name="path-22-outside-10"><rect class="cls-1" x="1495.7" y="-3.39" width="109.2" height="264.35"/><path class="cls-2" d="M1496.7,257.32V.25l106.19,128.54Z"/></g></mask><mask id="mask-56" x="1283.32" y="-3.39" width="109.2" height="264.35" maskUnits="userSpaceOnUse"><g id="path-26-outside-12-3" data-name="path-26-outside-12"><rect class="cls-1" x="1283.32" y="-3.39" width="109.2" height="264.35"/><path class="cls-2" d="M1284.32,257.32V.25l106.19,128.54Z"/></g></mask><mask id="mask-57" x="1283.32" y="253.69" width="109.2" height="264.35" maskUnits="userSpaceOnUse"><g id="path-28-outside-13-3" data-name="path-28-outside-13"><rect class="cls-1" x="1283.32" y="253.69" width="109.2" height="264.35"/><path class="cls-2" d="M1284.32,514.4V257.32l106.19,128.54Z"/></g></mask><mask id="mask-58" x="1706.07" y="-0.96" width="218.39" height="132.17" maskUnits="userSpaceOnUse"><g id="path-30-outside-14-3" data-name="path-30-outside-14"><rect class="cls-1" x="1706.07" y="-0.96" width="218.39" height="132.17"/><path class="cls-2" d="M1709.08.25h212.38L1815.27,128.79Z"/></g></mask><mask id="mask-59" x="1706.07" y="383.44" width="218.39" height="132.17" maskUnits="userSpaceOnUse"><g id="path-32-outside-15-3" data-name="path-32-outside-15"><rect class="cls-1" x="1706.07" y="383.44" width="218.39" height="132.17"/><path class="cls-2" d="M1921.46,514.4H1709.08l106.19-128.54Z"/></g></mask><mask id="mask-60" x="1281.31" y="383.44" width="218.39" height="132.17" maskUnits="userSpaceOnUse"><g id="path-34-outside-16-3" data-name="path-34-outside-16"><rect class="cls-1" x="1281.31" y="383.44" width="218.39" height="132.17"/><path class="cls-2" d="M1496.7,514.4H1284.32l106.19-128.54Z"/></g></mask><mask id="mask-61" x="1493.69" y="383.44" width="218.39" height="132.17" maskUnits="userSpaceOnUse"><g id="path-36-outside-17-3" data-name="path-36-outside-17"><rect class="cls-1" x="1493.69" y="383.44" width="218.39" height="132.17"/><path class="cls-2" d="M1709.08,514.4H1496.7l106.19-128.54Z"/></g></mask><mask id="mask-62" x="1281.31" y="126.36" width="218.39" height="132.17" maskUnits="userSpaceOnUse"><g id="path-38-outside-18-3" data-name="path-38-outside-18"><rect class="cls-1" x="1281.31" y="126.36" width="218.39" height="132.17"/><path class="cls-2" d="M1496.7,257.32H1284.32l106.19-128.53Z"/></g></mask><mask id="mask-63" x="1706.07" y="126.36" width="218.39" height="132.17" maskUnits="userSpaceOnUse"><g id="path-40-outside-19-3" data-name="path-40-outside-19"><rect class="cls-1" x="1706.07" y="126.36" width="218.39" height="132.17"/><path class="cls-2" d="M1921.46,257.32H1709.08l106.19-128.53Z"/></g></mask><mask id="mask-64" x="1493.69" y="126.36" width="218.39" height="132.17" maskUnits="userSpaceOnUse"><g id="path-42-outside-20-3" data-name="path-42-outside-20"><rect class="cls-1" x="1493.69" y="126.36" width="218.39" height="132.17"/><path class="cls-2" d="M1709.08,257.32H1496.7l106.19-128.53Z"/></g></mask><mask id="mask-65" x="1281.31" y="-0.96" width="218.39" height="132.17" maskUnits="userSpaceOnUse"><g id="path-44-outside-21-3" data-name="path-44-outside-21"><rect class="cls-1" x="1281.31" y="-0.96" width="218.39" height="132.17"/><path class="cls-2" d="M1284.32.25H1496.7L1390.51,128.79Z"/></g></mask><mask id="mask-66" x="1493.69" y="-0.96" width="218.39" height="132.17" maskUnits="userSpaceOnUse"><g id="path-46-outside-22-3" data-name="path-46-outside-22"><rect class="cls-1" x="1493.69" y="-0.96" width="218.39" height="132.17"/><path class="cls-2" d="M1496.7.25h212.38L1602.89,128.79Z"/></g></mask></defs><polygon class="cls-3" points="426.35 257.4 534.07 127.93 641.79 257.4 534.07 386.88 426.35 257.4"/><polygon class="cls-3" points="212.47 257.4 320.19 127.93 427.91 257.4 320.19 386.88 212.47 257.4"/><polygon class="cls-3" points="-1.4 257.4 106.32 127.93 214.03 257.4 106.32 386.88 -1.4 257.4"/><path class="cls-4" d="M640.94.25V257.32L534,128.79Z"/><g class="cls-5"><path d="M640.94.25h1V-2.68L640.23-.61Zm0,257.07-.71.86,1.72,2.07v-2.93ZM534,128.79l-.71-.86-.71.86.71.86ZM639.93.25V257.32h2V.25Zm1.72,256.22L534.72,127.93l-1.43,1.72L640.23,258.18ZM534.72,129.65,641.65,1.11,640.23-.61,533.29,127.93Z"/></g><path class="cls-6" d="M427.06,257.32V514.4L320.13,385.86Z"/><g class="cls-7"><path d="M427.06,257.32h1V254.4l-1.72,2.07Zm0,257.08-.71.85,1.72,2.07V514.4ZM320.13,385.86l-.72-.86-.71.86.71.86ZM426.06,257.32V514.4h2V257.32Zm1.72,256.22L320.84,385l-1.43,1.72L426.35,515.25ZM320.84,386.72,427.78,258.18l-1.43-1.71L319.41,385Z"/></g><path class="cls-8" d="M640.94,257.32V514.4L534,385.86Z"/><g class="cls-9"><path d="M640.94,257.32h1V254.4l-1.72,2.07Zm0,257.08-.71.85,1.72,2.07V514.4ZM534,385.86l-.71-.86-.71.86.71.86ZM639.93,257.32V514.4h2V257.32Zm1.72,256.22L534.72,385l-1.43,1.72L640.23,515.25ZM534.72,386.72,641.65,258.18l-1.42-1.71L533.29,385Z"/></g><path class="cls-8" d="M213.19.25V257.32L106.25,128.79Z"/><g class="cls-10"><path d="M213.19.25h1V-2.68L212.48-.61Zm0,257.07-.71.86,1.72,2.07v-2.93ZM106.25,128.79l-.71-.86-.72.86.72.86ZM212.18.25V257.32h2V.25Zm1.72,256.22L107,127.93l-1.42,1.72L212.48,258.18ZM107,129.65,213.9,1.11,212.48-.61,105.54,127.93Z"/></g><path class="cls-11" d="M427.06.25V257.32L320.13,128.79Z"/><g class="cls-12"><path d="M427.06.25h1V-2.68L426.35-.61Zm0,257.07-.71.86,1.72,2.07v-2.93ZM320.13,128.79l-.72-.86-.71.86.71.86ZM426.06.25V257.32h2V.25Zm1.72,256.22L320.84,127.93l-1.43,1.72L426.35,258.18ZM320.84,129.65,427.78,1.11,426.35-.61,319.41,127.93Z"/></g><path class="cls-11" d="M213.19,257.32V514.4L106.25,385.86Z"/><g class="cls-13"><path d="M213.19,257.32h1V254.4l-1.72,2.07Zm0,257.08-.71.85,1.72,2.07V514.4ZM106.25,385.86l-.71-.86-.72.86.72.86ZM212.18,257.32V514.4h2V257.32Zm1.72,256.22L107,385l-1.42,1.72L212.48,515.25ZM107,386.72,213.9,258.18l-1.42-1.71L105.54,385Z"/></g><path class="cls-8" d="M427.06,257.32V.25L534,128.79Z"/><g class="cls-14"><path d="M427.06,257.32h-1v2.93l1.72-2.07Zm0-257.07.72-.86-1.72-2.07V.25ZM534,128.79l.72.86.71-.86-.71-.86ZM428.07,257.32V.25h-2V257.32ZM426.35,1.11,533.29,129.65l1.43-1.72L427.78-.61ZM533.29,127.93,426.35,256.47l1.43,1.71L534.72,129.65Z"/></g><path class="cls-4" d="M427.06,514.4V257.32L534,385.86Z"/><g class="cls-15"><path d="M427.06,514.4h-1v2.92l1.72-2.07Zm0-257.08.72-.85-1.72-2.07v2.92ZM534,385.86l.72.86.71-.86-.71-.86ZM428.07,514.4V257.32h-2V514.4Zm-1.72-256.22L533.29,386.72l1.43-1.72L427.78,256.47ZM533.29,385,426.35,513.54l1.43,1.71L534.72,386.72Z"/></g><path class="cls-4" d="M213.19,514.4V257.32L320.13,385.86Z"/><g class="cls-16"><path d="M213.19,514.4h-1v2.92l1.72-2.07Zm0-257.08.71-.85-1.72-2.07v2.92ZM320.13,385.86l.71.86.71-.86-.71-.86ZM214.2,514.4V257.32h-2V514.4Zm-1.72-256.22L319.41,386.72l1.43-1.72L213.9,256.47ZM319.41,385,212.48,513.54l1.42,1.71L320.84,386.72Z"/></g><path class="cls-6" d="M213.19,257.32V.25L320.13,128.79Z"/><g class="cls-17"><path d="M213.19,257.32h-1v2.93l1.72-2.07Zm0-257.07.71-.86-1.72-2.07V.25ZM320.13,128.79l.71.86.71-.86-.71-.86ZM214.2,257.32V.25h-2V257.32ZM212.48,1.11,319.41,129.65l1.43-1.72L213.9-.61ZM319.41,127.93,212.48,256.47l1.42,1.71L320.84,129.65Z"/></g><path class="cls-6" d="M427.06,257.32V.25L534,128.79Z"/><g class="cls-14"><path d="M427.06,257.32h-1v2.93l1.72-2.07Zm0-257.07.72-.86-1.72-2.07V.25ZM534,128.79l.72.86.71-.86-.71-.86ZM428.07,257.32V.25h-2V257.32ZM426.35,1.11,533.29,129.65l1.43-1.72L427.78-.61ZM533.29,127.93,426.35,256.47l1.43,1.71L534.72,129.65Z"/></g><path class="cls-11" d="M-.69,257.32V.25L106.25,128.79Z"/><g class="cls-18"><path d="M-.69,257.32h-1v2.93L0,258.18ZM-.69.25,0-.61-1.7-2.68V.25ZM106.25,128.79l.71.86.72-.86-.72-.86ZM.32,257.32V.25h-2V257.32ZM-1.4,1.11,105.54,129.65l1.42-1.72L0-.61ZM105.54,127.93-1.4,256.47,0,258.18,107,129.65Z"/></g><path class="cls-6" d="M-.69,514.4V257.32L106.25,385.86Z"/><g class="cls-19"><path d="M-.69,514.4h-1v2.92L0,515.25Zm0-257.08.72-.85L-1.7,254.4v2.92ZM106.25,385.86l.71.86.72-.86L107,385ZM.32,514.4V257.32h-2V514.4ZM-1.4,258.18,105.54,386.72,107,385,0,256.47ZM105.54,385-1.4,513.54,0,515.25,107,386.72Z"/></g><path class="cls-20" d="M427.06.25H640.94L534,128.79Z"/><g class="cls-21"><path d="M427.06.25V-1h-2.43l1.72,2.07Zm213.88,0,.71.86L643.38-1h-2.44ZM534,128.79l-.71.86.71.85.72-.85ZM427.06,1.46H640.94V-1H427.06ZM640.23-.61,533.29,127.93l1.43,1.72L641.65,1.11ZM534.72,127.93,427.78-.61l-1.43,1.72L533.29,129.65Z"/></g><path class="cls-20" d="M640.94,514.4H427.06L534,385.86Z"/><g class="cls-22"><path d="M640.94,514.4v1.21h2.44l-1.73-2.07Zm-213.88,0-.71-.86-1.72,2.07h2.43ZM534,385.86l.72-.86-.72-.85-.71.85ZM640.94,513.18H427.06v2.43H640.94Zm-213.16,2.07L534.72,386.72,533.29,385,426.35,513.54ZM533.29,386.72,640.23,515.25l1.42-1.71L534.72,385Z"/></g><path class="cls-20" d="M213.19,514.4H-.69L106.25,385.86Z"/><g class="cls-23"><path d="M213.19,514.4v1.21h2.43l-1.72-2.07Zm-213.88,0-.71-.86-1.72,2.07H-.69ZM106.25,385.86,107,385l-.71-.85-.71.85ZM213.19,513.18H-.69v2.43H213.19ZM0,515.25,107,386.72,105.54,385-1.4,513.54ZM105.54,386.72,212.48,515.25l1.42-1.71L107,385Z"/></g><path class="cls-20" d="M427.06,514.4H213.19L320.13,385.86Z"/><g class="cls-24"><path d="M427.06,514.4v1.21h2.44l-1.72-2.07Zm-213.87,0-.71-.86-1.73,2.07h2.44ZM320.13,385.86l.71-.86-.71-.85-.72.85ZM427.06,513.18H213.19v2.43H427.06ZM213.9,515.25,320.84,386.72,319.41,385,212.48,513.54ZM319.41,386.72,426.35,515.25l1.43-1.71L320.84,385Z"/></g><path class="cls-20" d="M213.19,257.32H-.69L106.25,128.79Z"/><g class="cls-25"><path d="M213.19,257.32v1.22h2.43l-1.72-2.07Zm-213.88,0-.71-.85-1.72,2.07H-.69ZM106.25,128.79l.71-.86-.71-.86-.71.86ZM213.19,256.11H-.69v2.43H213.19ZM0,258.18,107,129.65l-1.42-1.72L-1.4,256.47ZM105.54,129.65,212.48,258.18l1.42-1.71L107,127.93Z"/></g><path class="cls-20" d="M640.94,257.32H427.06L534,128.79Z"/><g class="cls-26"><path d="M640.94,257.32v1.22h2.44l-1.73-2.07Zm-213.88,0-.71-.85-1.72,2.07h2.43ZM534,128.79l.72-.86-.72-.86-.71.86ZM640.94,256.11H427.06v2.43H640.94Zm-213.16,2.07L534.72,129.65l-1.43-1.72L426.35,256.47ZM533.29,129.65,640.23,258.18l1.42-1.71L534.72,127.93Z"/></g><path class="cls-20" d="M427.06,257.32H213.19L320.13,128.79Z"/><g class="cls-27"><path d="M427.06,257.32v1.22h2.44l-1.72-2.07Zm-213.87,0-.71-.85-1.73,2.07h2.44ZM320.13,128.79l.71-.86-.71-.86-.72.86ZM427.06,256.11H213.19v2.43H427.06ZM213.9,258.18,320.84,129.65l-1.43-1.72L212.48,256.47ZM319.41,129.65,426.35,258.18l1.43-1.71L320.84,127.93Z"/></g><path class="cls-20" d="M-.69.25H213.19L106.25,128.79Z"/><g class="cls-28"><path d="M-.69.25V-1H-3.12L-1.4,1.11Zm213.88,0,.71.86L215.62-1h-2.43ZM106.25,128.79l-.71.86.71.85.71-.85ZM-.69,1.46H213.19V-1H-.69ZM212.48-.61,105.54,127.93l1.42,1.72L213.9,1.11ZM107,127.93,0-.61-1.4,1.11,105.54,129.65Z"/></g><path class="cls-20" d="M213.19.25H427.06L320.13,128.79Z"/><g class="cls-29"><path d="M213.19.25V-1h-2.44l1.73,2.07Zm213.87,0,.72.86L429.5-1h-2.44ZM320.13,128.79l-.72.86.72.85.71-.85ZM213.19,1.46H427.06V-1H213.19ZM426.35-.61,319.41,127.93l1.43,1.72L427.78,1.11ZM320.84,127.93,213.9-.61l-1.42,1.72L319.41,129.65Z"/></g><polygon class="cls-3" points="1068.86 257.4 1176.32 127.93 1283.79 257.4 1176.32 386.88 1068.86 257.4"/><polygon class="cls-3" points="855.48 257.4 962.94 127.93 1070.41 257.4 962.94 386.88 855.48 257.4"/><polygon class="cls-3" points="642.1 257.4 749.56 127.93 857.03 257.4 749.56 386.88 642.1 257.4"/><path class="cls-4" d="M1283,.25V257.32L1176.26,128.79Z"/><g class="cls-30"><path d="M1283,.25h1V-2.68l-1.71,2.07Zm0,257.07-.71.86,1.71,2.07v-2.93ZM1176.26,128.79l-.71-.86-.72.86.72.86ZM1281.94.25V257.32h2V.25Zm1.72,256.22L1177,127.93l-1.42,1.72,106.69,128.53ZM1177,129.65,1283.66,1.11l-1.42-1.72L1175.55,127.93Z"/></g><path class="cls-6" d="M1069.57,257.32V514.4L962.88,385.86Z"/><g class="cls-31"><path d="M1069.57,257.32h1V254.4l-1.71,2.07Zm0,257.08-.71.85,1.71,2.07V514.4ZM962.88,385.86l-.71-.86-.72.86.72.86Zm105.68-128.54V514.4h2V257.32Zm1.72,256.22L963.59,385l-1.42,1.72,106.69,128.53ZM963.59,386.72l106.69-128.54-1.42-1.71L962.17,385Z"/></g><path class="cls-8" d="M1283,257.32V514.4L1176.26,385.86Z"/><g class="cls-32"><path d="M1283,257.32h1V254.4l-1.71,2.07Zm0,257.08-.71.85,1.71,2.07V514.4ZM1176.26,385.86l-.71-.86-.72.86.72.86Zm105.68-128.54V514.4h2V257.32Zm1.72,256.22L1177,385l-1.42,1.72,106.69,128.53ZM1177,386.72l106.69-128.54-1.42-1.71L1175.55,385Z"/></g><path class="cls-8" d="M856.19.25V257.32L749.5,128.79Z"/><g class="cls-33"><path d="M856.19.25h1V-2.68L855.48-.61Zm0,257.07-.71.86,1.71,2.07v-2.93ZM749.5,128.79l-.71-.86-.72.86.72.86ZM855.18.25V257.32h2V.25Zm1.72,256.22L750.21,127.93l-1.42,1.72L855.48,258.18ZM750.21,129.65,856.9,1.11,855.48-.61,748.79,127.93Z"/></g><path class="cls-11" d="M1069.57.25V257.32L962.88,128.79Z"/><g class="cls-34"><path d="M1069.57.25h1V-2.68l-1.71,2.07Zm0,257.07-.71.86,1.71,2.07v-2.93ZM962.88,128.79l-.71-.86-.72.86.72.86ZM1068.56.25V257.32h2V.25Zm1.72,256.22L963.59,127.93l-1.42,1.72,106.69,128.53ZM963.59,129.65,1070.28,1.11l-1.42-1.72L962.17,127.93Z"/></g><path class="cls-11" d="M856.19,257.32V514.4L749.5,385.86Z"/><g class="cls-35"><path d="M856.19,257.32h1V254.4l-1.71,2.07Zm0,257.08-.71.85,1.71,2.07V514.4ZM749.5,385.86l-.71-.86-.72.86.72.86ZM855.18,257.32V514.4h2V257.32Zm1.72,256.22L750.21,385l-1.42,1.72L855.48,515.25ZM750.21,386.72,856.9,258.18l-1.42-1.71L748.79,385Z"/></g><path class="cls-8" d="M1069.57,257.32V.25l106.69,128.54Z"/><g class="cls-36"><path d="M1069.57,257.32h-1v2.93l1.72-2.07Zm0-257.07.71-.86-1.72-2.07V.25Zm106.69,128.54.71.86.71-.86-.71-.86ZM1070.57,257.32V.25h-2V257.32ZM1068.86,1.11l106.69,128.54,1.42-1.72L1070.28-.61Zm106.69,126.82L1068.86,256.47l1.42,1.71L1177,129.65Z"/></g><path class="cls-4" d="M1069.57,514.4V257.32l106.69,128.54Z"/><g class="cls-37"><path d="M1069.57,514.4h-1v2.92l1.72-2.07Zm0-257.08.71-.85-1.72-2.07v2.92Zm106.69,128.54.71.86.71-.86L1177,385ZM1070.57,514.4V257.32h-2V514.4Zm-1.71-256.22,106.69,128.54L1177,385,1070.28,256.47ZM1175.55,385,1068.86,513.54l1.42,1.71L1177,386.72Z"/></g><path class="cls-4" d="M856.19,514.4V257.32L962.88,385.86Z"/><g class="cls-38"><path d="M856.19,514.4h-1v2.92l1.72-2.07Zm0-257.08.71-.85-1.72-2.07v2.92ZM962.88,385.86l.71.86.71-.86-.71-.86ZM857.19,514.4V257.32h-2V514.4Zm-1.71-256.22L962.17,386.72l1.42-1.72L856.9,256.47ZM962.17,385,855.48,513.54l1.42,1.71L963.59,386.72Z"/></g><path class="cls-6" d="M856.19,257.32V.25L962.88,128.79Z"/><g class="cls-39"><path d="M856.19,257.32h-1v2.93l1.72-2.07Zm0-257.07.71-.86-1.72-2.07V.25ZM962.88,128.79l.71.86.71-.86-.71-.86ZM857.19,257.32V.25h-2V257.32ZM855.48,1.11,962.17,129.65l1.42-1.72L856.9-.61ZM962.17,127.93,855.48,256.47l1.42,1.71L963.59,129.65Z"/></g><path class="cls-6" d="M1069.57,257.32V.25l106.69,128.54Z"/><g class="cls-36"><path d="M1069.57,257.32h-1v2.93l1.72-2.07Zm0-257.07.71-.86-1.72-2.07V.25Zm106.69,128.54.71.86.71-.86-.71-.86ZM1070.57,257.32V.25h-2V257.32ZM1068.86,1.11l106.69,128.54,1.42-1.72L1070.28-.61Zm106.69,126.82L1068.86,256.47l1.42,1.71L1177,129.65Z"/></g><path class="cls-11" d="M642.81,257.32V.25L749.5,128.79Z"/><g class="cls-40"><path d="M642.81,257.32h-1v2.93l1.72-2.07Zm0-257.07.71-.86L641.8-2.68V.25ZM749.5,128.79l.71.86.71-.86-.71-.86ZM643.81,257.32V.25h-2V257.32ZM642.09,1.11l106.7,128.54,1.42-1.72L643.52-.61Zm106.7,126.82L642.09,256.47l1.43,1.71L750.21,129.65Z"/></g><path class="cls-6" d="M642.81,514.4V257.32L749.5,385.86Z"/><g class="cls-41"><path d="M642.81,514.4h-1v2.92l1.72-2.07Zm0-257.08.71-.85-1.72-2.07v2.92ZM749.5,385.86l.71.86.71-.86-.71-.86ZM643.81,514.4V257.32h-2V514.4Zm-1.72-256.22,106.7,128.54,1.42-1.72L643.52,256.47ZM748.79,385,642.09,513.54l1.43,1.71L750.21,386.72Z"/></g><path class="cls-20" d="M1069.57.25H1283L1176.26,128.79Z"/><g class="cls-42"><path d="M1069.57.25V-1h-2.43l1.72,2.07ZM1283,.25l.71.86L1285.38-1H1283ZM1176.26,128.79l-.71.86.71.85.71-.85ZM1069.57,1.46H1283V-1H1069.57ZM1282.24-.61,1175.55,127.93l1.42,1.72L1283.66,1.11ZM1177,127.93,1070.28-.61l-1.42,1.72,106.69,128.54Z"/></g><path class="cls-20" d="M1283,514.4H1069.57l106.69-128.54Z"/><g class="cls-43"><path d="M1283,514.4v1.21h2.43l-1.72-2.07Zm-213.38,0-.71-.86-1.72,2.07h2.43Zm106.69-128.54.71-.86-.71-.85-.71.85ZM1283,513.18H1069.57v2.43H1283Zm-212.67,2.07L1177,386.72l-1.42-1.72L1068.86,513.54Zm105.27-128.53,106.69,128.53,1.42-1.71L1177,385Z"/></g><path class="cls-20" d="M856.19,514.4H642.81L749.5,385.86Z"/><g class="cls-44"><path d="M856.19,514.4v1.21h2.43l-1.72-2.07Zm-213.38,0-.72-.86-1.71,2.07h2.43ZM749.5,385.86l.71-.86-.71-.85-.71.85ZM856.19,513.18H642.81v2.43H856.19Zm-212.67,2.07L750.21,386.72,748.79,385,642.09,513.54ZM748.79,386.72,855.48,515.25l1.42-1.71L750.21,385Z"/></g><path class="cls-20" d="M1069.57,514.4H856.19L962.88,385.86Z"/><g class="cls-45"><path d="M1069.57,514.4v1.21H1072l-1.72-2.07Zm-213.38,0-.71-.86-1.72,2.07h2.43ZM962.88,385.86l.71-.86-.71-.85-.71.85Zm106.69,127.32H856.19v2.43h213.38ZM856.9,515.25,963.59,386.72,962.17,385,855.48,513.54ZM962.17,386.72l106.69,128.53,1.42-1.71L963.59,385Z"/></g><path class="cls-20" d="M856.19,257.32H642.81L749.5,128.79Z"/><g class="cls-46"><path d="M856.19,257.32v1.22h2.43l-1.72-2.07Zm-213.38,0-.72-.85-1.71,2.07h2.43ZM749.5,128.79l.71-.86-.71-.86-.71.86ZM856.19,256.11H642.81v2.43H856.19Zm-212.67,2.07L750.21,129.65l-1.42-1.72L642.09,256.47ZM748.79,129.65,855.48,258.18l1.42-1.71L750.21,127.93Z"/></g><path class="cls-20" d="M1283,257.32H1069.57l106.69-128.53Z"/><g class="cls-47"><path d="M1283,257.32v1.22h2.43l-1.72-2.07Zm-213.38,0-.71-.85-1.72,2.07h2.43Zm106.69-128.53.71-.86-.71-.86-.71.86ZM1283,256.11H1069.57v2.43H1283Zm-212.67,2.07L1177,129.65l-1.42-1.72L1068.86,256.47Zm105.27-128.53,106.69,128.53,1.42-1.71L1177,127.93Z"/></g><path class="cls-20" d="M1069.57,257.32H856.19L962.88,128.79Z"/><g class="cls-48"><path d="M1069.57,257.32v1.22H1072l-1.72-2.07Zm-213.38,0-.71-.85-1.72,2.07h2.43ZM962.88,128.79l.71-.86-.71-.86-.71.86Zm106.69,127.32H856.19v2.43h213.38ZM856.9,258.18,963.59,129.65l-1.42-1.72L855.48,256.47ZM962.17,129.65l106.69,128.53,1.42-1.71L963.59,127.93Z"/></g><path class="cls-20" d="M642.81.25H856.19L749.5,128.79Z"/><g class="cls-49"><path d="M642.81.25V-1h-2.43l1.71,2.07Zm213.38,0,.71.86L858.62-1h-2.43ZM749.5,128.79l-.71.86.71.85.71-.85ZM642.81,1.46H856.19V-1H642.81ZM855.48-.61,748.79,127.93l1.42,1.72L856.9,1.11ZM750.21,127.93,643.52-.61l-1.43,1.72,106.7,128.54Z"/></g><path class="cls-20" d="M856.19.25h213.38L962.88,128.79Z"/><g class="cls-50"><path d="M856.19.25V-1h-2.43l1.72,2.07Zm213.38,0,.71.86L1072-1h-2.43ZM962.88,128.79l-.71.86.71.85.71-.85ZM856.19,1.46h213.38V-1H856.19ZM1068.86-.61,962.17,127.93l1.42,1.72L1070.28,1.11ZM963.59,127.93,856.9-.61l-1.42,1.72L962.17,129.65Z"/></g><polygon class="cls-3" points="1708.37 257.4 1815.33 127.93 1922.3 257.4 1815.33 386.88 1708.37 257.4"/><polygon class="cls-3" points="1495.99 257.4 1602.95 127.93 1709.92 257.4 1602.95 386.88 1495.99 257.4"/><polygon class="cls-3" points="1283.61 257.4 1390.57 127.93 1497.54 257.4 1390.57 386.88 1283.61 257.4"/><path class="cls-4" d="M1921.46.25V257.32L1815.27,128.79Z"/><g class="cls-51"><path d="M1921.46.25h1V-2.68l-1.71,2.07Zm0,257.07-.71.86,1.71,2.07v-2.93ZM1815.27,128.79l-.71-.86-.71.86.71.86ZM1920.46.25V257.32h2V.25Zm1.71,256.22L1816,127.93l-1.42,1.72,106.19,128.53ZM1816,129.65,1922.17,1.11l-1.42-1.72L1814.56,127.93Z"/></g><path class="cls-6" d="M1709.08,257.32V514.4L1602.89,385.86Z"/><g class="cls-52"><path d="M1709.08,257.32h1V254.4l-1.71,2.07Zm0,257.08-.71.85,1.71,2.07V514.4ZM1602.89,385.86l-.71-.86-.71.86.71.86Zm105.19-128.54V514.4h2V257.32Zm1.71,256.22L1603.6,385l-1.42,1.72,106.19,128.53ZM1603.6,386.72l106.19-128.54-1.42-1.71L1602.18,385Z"/></g><path class="cls-8" d="M1921.46,257.32V514.4L1815.27,385.86Z"/><g class="cls-53"><path d="M1921.46,257.32h1V254.4l-1.71,2.07Zm0,257.08-.71.85,1.71,2.07V514.4ZM1815.27,385.86l-.71-.86-.71.86.71.86Zm105.19-128.54V514.4h2V257.32Zm1.71,256.22L1816,385l-1.42,1.72,106.19,128.53ZM1816,386.72l106.19-128.54-1.42-1.71L1814.56,385Z"/></g><path class="cls-8" d="M1496.7.25V257.32L1390.51,128.79Z"/><g class="cls-54"><path d="M1496.7.25h1V-2.68L1496-.61Zm0,257.07-.71.86,1.71,2.07v-2.93ZM1390.51,128.79l-.71-.86-.71.86.71.86ZM1495.7.25V257.32h2V.25Zm1.71,256.22L1391.22,127.93l-1.42,1.72L1496,258.18ZM1391.22,129.65,1497.41,1.11,1496-.61,1389.8,127.93Z"/></g><path class="cls-11" d="M1709.08.25V257.32L1602.89,128.79Z"/><g class="cls-55"><path d="M1709.08.25h1V-2.68l-1.71,2.07Zm0,257.07-.71.86,1.71,2.07v-2.93ZM1602.89,128.79l-.71-.86-.71.86.71.86ZM1708.08.25V257.32h2V.25Zm1.71,256.22L1603.6,127.93l-1.42,1.72,106.19,128.53ZM1603.6,129.65,1709.79,1.11l-1.42-1.72L1602.18,127.93Z"/></g><path class="cls-11" d="M1496.7,257.32V514.4L1390.51,385.86Z"/><g class="cls-56"><path d="M1496.7,257.32h1V254.4l-1.71,2.07Zm0,257.08-.71.85,1.71,2.07V514.4ZM1390.51,385.86l-.71-.86-.71.86.71.86ZM1495.7,257.32V514.4h2V257.32Zm1.71,256.22L1391.22,385l-1.42,1.72L1496,515.25ZM1391.22,386.72l106.19-128.54-1.42-1.71L1389.8,385Z"/></g><path class="cls-8" d="M1709.08,257.32V.25l106.19,128.54Z"/><g class="cls-57"><path d="M1709.08,257.32h-1v2.93l1.71-2.07Zm0-257.07.71-.86-1.71-2.07V.25Zm106.19,128.54.71.86.7-.86-.7-.86ZM1710.08,257.32V.25h-2V257.32ZM1708.37,1.11l106.19,128.54,1.42-1.72L1709.79-.61Zm106.19,126.82L1708.37,256.47l1.42,1.71L1816,129.65Z"/></g><path class="cls-4" d="M1709.08,514.4V257.32l106.19,128.54Z"/><g class="cls-58"><path d="M1709.08,514.4h-1v2.92l1.71-2.07Zm0-257.08.71-.85-1.71-2.07v2.92Zm106.19,128.54.71.86.7-.86-.7-.86ZM1710.08,514.4V257.32h-2V514.4Zm-1.71-256.22,106.19,128.54L1816,385,1709.79,256.47ZM1814.56,385,1708.37,513.54l1.42,1.71L1816,386.72Z"/></g><path class="cls-4" d="M1496.7,514.4V257.32l106.19,128.54Z"/><g class="cls-59"><path d="M1496.7,514.4h-1v2.92l1.71-2.07Zm0-257.08.71-.85-1.71-2.07v2.92Zm106.19,128.54.71.86.7-.86-.7-.86ZM1497.7,514.4V257.32h-2V514.4ZM1496,258.18l106.19,128.54,1.42-1.72L1497.41,256.47ZM1602.18,385,1496,513.54l1.42,1.71L1603.6,386.72Z"/></g><path class="cls-6" d="M1496.7,257.32V.25l106.19,128.54Z"/><g class="cls-60"><path d="M1496.7,257.32h-1v2.93l1.71-2.07Zm0-257.07.71-.86-1.71-2.07V.25Zm106.19,128.54.71.86.7-.86-.7-.86ZM1497.7,257.32V.25h-2V257.32ZM1496,1.11l106.19,128.54,1.42-1.72L1497.41-.61Zm106.19,126.82L1496,256.47l1.42,1.71L1603.6,129.65Z"/></g><path class="cls-6" d="M1709.08,257.32V.25l106.19,128.54Z"/><g class="cls-57"><path d="M1709.08,257.32h-1v2.93l1.71-2.07Zm0-257.07.71-.86-1.71-2.07V.25Zm106.19,128.54.71.86.7-.86-.7-.86ZM1710.08,257.32V.25h-2V257.32ZM1708.37,1.11l106.19,128.54,1.42-1.72L1709.79-.61Zm106.19,126.82L1708.37,256.47l1.42,1.71L1816,129.65Z"/></g><path class="cls-11" d="M1284.32,257.32V.25l106.19,128.54Z"/><g class="cls-61"><path d="M1284.32,257.32h-1v2.93l1.71-2.07Zm0-257.07.71-.86-1.71-2.07V.25Zm106.19,128.54.71.86.7-.86-.7-.86ZM1285.32,257.32V.25h-2V257.32ZM1283.61,1.11,1389.8,129.65l1.42-1.72L1285-.61ZM1389.8,127.93,1283.61,256.47l1.42,1.71,106.19-128.53Z"/></g><path class="cls-6" d="M1284.32,514.4V257.32l106.19,128.54Z"/><g class="cls-62"><path d="M1284.32,514.4h-1v2.92l1.71-2.07Zm0-257.08.71-.85-1.71-2.07v2.92Zm106.19,128.54.71.86.7-.86-.7-.86ZM1285.32,514.4V257.32h-2V514.4Zm-1.71-256.22L1389.8,386.72l1.42-1.72L1285,256.47ZM1389.8,385,1283.61,513.54l1.42,1.71,106.19-128.53Z"/></g><path class="cls-20" d="M1709.08.25h212.38L1815.27,128.79Z"/><g class="cls-63"><path d="M1709.08.25V-1h-2.42l1.71,2.07Zm212.38,0,.71.86L1923.88-1h-2.42ZM1815.27,128.79l-.71.86.71.85.71-.85ZM1709.08,1.46h212.38V-1H1709.08ZM1920.75-.61,1814.56,127.93l1.42,1.72L1922.17,1.11ZM1816,127.93,1709.79-.61l-1.42,1.72,106.19,128.54Z"/></g><path class="cls-20" d="M1921.46,514.4H1709.08l106.19-128.54Z"/><g class="cls-64"><path d="M1921.46,514.4v1.21h2.42l-1.71-2.07Zm-212.38,0-.71-.86-1.71,2.07h2.42Zm106.19-128.54.71-.86-.71-.85-.71.85Zm106.19,127.32H1709.08v2.43h212.38Zm-211.67,2.07L1816,386.72l-1.42-1.72L1708.37,513.54Zm104.77-128.53,106.19,128.53,1.42-1.71L1816,385Z"/></g><path class="cls-20" d="M1496.7,514.4H1284.32l106.19-128.54Z"/><g class="cls-65"><path d="M1496.7,514.4v1.21h2.42l-1.71-2.07Zm-212.38,0-.71-.86-1.71,2.07h2.42Zm106.19-128.54.71-.86-.71-.85-.71.85ZM1496.7,513.18H1284.32v2.43H1496.7ZM1285,515.25l106.19-128.53L1389.8,385,1283.61,513.54ZM1389.8,386.72,1496,515.25l1.42-1.71L1391.22,385Z"/></g><path class="cls-20" d="M1709.08,514.4H1496.7l106.19-128.54Z"/><g class="cls-66"><path d="M1709.08,514.4v1.21h2.42l-1.71-2.07Zm-212.38,0-.71-.86-1.71,2.07h2.42Zm106.19-128.54.71-.86-.71-.85-.71.85Zm106.19,127.32H1496.7v2.43h212.38Zm-211.67,2.07L1603.6,386.72l-1.42-1.72L1496,513.54Zm104.77-128.53,106.19,128.53,1.42-1.71L1603.6,385Z"/></g><path class="cls-20" d="M1496.7,257.32H1284.32l106.19-128.53Z"/><g class="cls-67"><path d="M1496.7,257.32v1.22h2.42l-1.71-2.07Zm-212.38,0-.71-.85-1.71,2.07h2.42Zm106.19-128.53.71-.86-.71-.86-.71.86ZM1496.7,256.11H1284.32v2.43H1496.7ZM1285,258.18l106.19-128.53-1.42-1.72L1283.61,256.47ZM1389.8,129.65,1496,258.18l1.42-1.71L1391.22,127.93Z"/></g><path class="cls-20" d="M1921.46,257.32H1709.08l106.19-128.53Z"/><g class="cls-68"><path d="M1921.46,257.32v1.22h2.42l-1.71-2.07Zm-212.38,0-.71-.85-1.71,2.07h2.42Zm106.19-128.53.71-.86-.71-.86-.71.86Zm106.19,127.32H1709.08v2.43h212.38Zm-211.67,2.07L1816,129.65l-1.42-1.72L1708.37,256.47Zm104.77-128.53,106.19,128.53,1.42-1.71L1816,127.93Z"/></g><path class="cls-20" d="M1709.08,257.32H1496.7l106.19-128.53Z"/><g class="cls-69"><path d="M1709.08,257.32v1.22h2.42l-1.71-2.07Zm-212.38,0-.71-.85-1.71,2.07h2.42Zm106.19-128.53.71-.86-.71-.86-.71.86Zm106.19,127.32H1496.7v2.43h212.38Zm-211.67,2.07L1603.6,129.65l-1.42-1.72L1496,256.47Zm104.77-128.53,106.19,128.53,1.42-1.71L1603.6,127.93Z"/></g><path class="cls-20" d="M1284.32.25H1496.7L1390.51,128.79Z"/><g class="cls-70"><path d="M1284.32.25V-1h-2.42l1.71,2.07Zm212.38,0,.71.86L1499.12-1h-2.42ZM1390.51,128.79l-.71.86.71.85.71-.85ZM1284.32,1.46H1496.7V-1H1284.32ZM1496-.61,1389.8,127.93l1.42,1.72L1497.41,1.11ZM1391.22,127.93,1285-.61l-1.42,1.72L1389.8,129.65Z"/></g><path class="cls-20" d="M1496.7.25h212.38L1602.89,128.79Z"/><g class="cls-71"><path d="M1496.7.25V-1h-2.42L1496,1.11Zm212.38,0,.71.86L1711.5-1h-2.42ZM1602.89,128.79l-.71.86.71.85.71-.85ZM1496.7,1.46h212.38V-1H1496.7ZM1708.37-.61,1602.18,127.93l1.42,1.72L1709.79,1.11ZM1603.6,127.93,1497.41-.61,1496,1.11l106.19,128.54Z"/></g></svg>