<svg id="Layer_1" data-name="Layer 1" xmlns="http://www.w3.org/2000/svg" xmlns:xlink="http://www.w3.org/1999/xlink" viewBox="0 0 1920 1040"><defs><style>.cls-1{fill:#fff;}.cls-11,.cls-2,.cls-4,.cls-6,.cls-8{fill-rule:evenodd;}.cls-3{fill:#c5a552;}.cls-3,.cls-45,.cls-58{stroke:#000;}.cls-4,.cls-62{fill:#85b0a6;}.cls-5{mask:url(#mask);}.cls-6{fill:#e0cdad;}.cls-7{mask:url(#mask-2);}.cls-8{fill:#eecd5c;}.cls-9{mask:url(#mask-3);}.cls-10{mask:url(#mask-4);}.cls-11{fill:#89873b;}.cls-12{mask:url(#mask-5);}.cls-13{mask:url(#mask-6);}.cls-14{mask:url(#mask-7);}.cls-15{mask:url(#mask-8);}.cls-16{mask:url(#mask-9);}.cls-17{mask:url(#mask-10);}.cls-18{mask:url(#mask-12);}.cls-19{mask:url(#mask-13);}.cls-20{mask:url(#mask-14);}.cls-21{mask:url(#mask-15);}.cls-22{mask:url(#mask-16);}.cls-23{mask:url(#mask-17);}.cls-24{mask:url(#mask-18);}.cls-25{mask:url(#mask-19);}.cls-26{mask:url(#mask-20);}.cls-27{mask:url(#mask-21);}.cls-28{mask:url(#mask-22);}.cls-29{mask:url(#mask-23);}.cls-30{mask:url(#mask-25);}.cls-31{mask:url(#mask-26);}.cls-32{mask:url(#mask-27);}.cls-33{mask:url(#mask-28);}.cls-34{mask:url(#mask-29);}.cls-35{mask:url(#mask-30);}.cls-36{mask:url(#mask-31);}.cls-37{mask:url(#mask-32);}.cls-38{mask:url(#mask-33);}.cls-39{mask:url(#mask-34);}.cls-40{mask:url(#mask-35);}.cls-41{mask:url(#mask-36);}.cls-42{mask:url(#mask-38);}.cls-43{mask:url(#mask-39);}.cls-44{fill:#fff7dc;}.cls-45{fill:#677d75;}.cls-45,.cls-48,.cls-51,.cls-53,.cls-59,.cls-62{stroke-width:2px;}.cls-46,.cls-57{fill:#31221b;}.cls-47{fill:#5a4a42;}.cls-48,.cls-49{fill:#c3996b;}.cls-48{stroke:#8a5d3b;}.cls-48,.cls-51,.cls-53,.cls-55,.cls-56,.cls-59,.cls-62{stroke-miterlimit:10;}.cls-50{fill:#8a5d3b;}.cls-51{fill:#c2705b;}.cls-51,.cls-53{stroke:#945545;}.cls-52,.cls-55{fill:#231f20;}.cls-52,.cls-61{opacity:0.25;}.cls-53{fill:#945545;}.cls-53,.cls-64{opacity:0.3;}.cls-54{fill:#56443b;}.cls-55,.cls-56{stroke:#231f20;}.cls-56{fill:none;stroke-width:3px;}.cls-57,.cls-60{opacity:0.2;}.cls-58{fill:#947032;}.cls-59{fill:#83afa5;}.cls-59,.cls-62{stroke:#63857e;}.cls-60,.cls-61,.cls-65{fill:#5d7e77;}.cls-63,.cls-64{fill:#4b6863;}.cls-63,.cls-65{opacity:0.4;}.cls-66{fill:#91b2a5;}</style><mask id="mask" x="531.62" y="-5.63" width="118.43" height="249.3" maskUnits="userSpaceOnUse"><g id="path-10-outside-1"><rect class="cls-1" x="531.62" y="-5.63" width="118.43" height="249.3"/><path class="cls-2" d="M649-2.2V240.24L533.8,119Z"/></g></mask><mask id="mask-2" x="301.28" y="236.81" width="118.43" height="249.3" maskUnits="userSpaceOnUse"><g id="path-12-outside-2"><rect class="cls-1" x="301.28" y="236.81" width="118.43" height="249.3"/><path class="cls-2" d="M418.62,240.24V482.68L303.45,361.46Z"/></g></mask><mask id="mask-3" x="531.62" y="236.81" width="118.43" height="249.3" maskUnits="userSpaceOnUse"><g id="path-14-outside-3"><rect class="cls-1" x="531.62" y="236.81" width="118.43" height="249.3"/><path class="cls-2" d="M649,240.24V482.68L533.8,361.46Z"/></g></mask><mask id="mask-4" x="70.94" y="-5.63" width="118.43" height="249.3" maskUnits="userSpaceOnUse"><g id="path-16-outside-4"><rect class="cls-1" x="70.94" y="-5.63" width="118.43" height="249.3"/><path class="cls-2" d="M188.28-2.2V240.24L73.11,119Z"/></g></mask><mask id="mask-5" x="301.28" y="-5.63" width="118.43" height="249.3" maskUnits="userSpaceOnUse"><g id="path-18-outside-5"><rect class="cls-1" x="301.28" y="-5.63" width="118.43" height="249.3"/><path class="cls-2" d="M418.62-2.2V240.24L303.45,119Z"/></g></mask><mask id="mask-6" x="70.94" y="236.81" width="118.43" height="249.3" maskUnits="userSpaceOnUse"><g id="path-20-outside-6"><rect class="cls-1" x="70.94" y="236.81" width="118.43" height="249.3"/><path class="cls-2" d="M188.28,240.24V482.68L73.11,361.46Z"/></g></mask><mask id="mask-7" x="417.54" y="-5.63" width="118.43" height="249.3" maskUnits="userSpaceOnUse"><g id="path-22-outside-7"><rect class="cls-1" x="417.54" y="-5.63" width="118.43" height="249.3"/><path class="cls-2" d="M418.62,240.24V-2.2L533.8,119Z"/></g></mask><mask id="mask-8" x="417.54" y="236.81" width="118.43" height="249.3" maskUnits="userSpaceOnUse"><g id="path-24-outside-8"><rect class="cls-1" x="417.54" y="236.81" width="118.43" height="249.3"/><path class="cls-2" d="M418.62,482.68V240.24L533.8,361.46Z"/></g></mask><mask id="mask-9" x="187.19" y="236.81" width="118.43" height="249.3" maskUnits="userSpaceOnUse"><g id="path-26-outside-9"><rect class="cls-1" x="187.19" y="236.81" width="118.43" height="249.3"/><path class="cls-2" d="M188.28,482.68V240.24L303.45,361.46Z"/></g></mask><mask id="mask-10" x="187.19" y="-5.63" width="118.43" height="249.3" maskUnits="userSpaceOnUse"><g id="path-28-outside-10"><rect class="cls-1" x="187.19" y="-5.63" width="118.43" height="249.3"/><path class="cls-2" d="M188.28,240.24V-2.2L303.45,119Z"/></g></mask><mask id="mask-12" x="-44.24" y="-5.63" width="118.43" height="249.3" maskUnits="userSpaceOnUse"><g id="path-32-outside-12"><rect class="cls-1" x="-44.24" y="-5.63" width="118.43" height="249.3"/><path class="cls-2" d="M-43.15,240.24V-2.2L72,119Z"/></g></mask><mask id="mask-13" x="-44.24" y="236.81" width="118.43" height="249.3" maskUnits="userSpaceOnUse"><g id="path-34-outside-13"><rect class="cls-1" x="-44.24" y="236.81" width="118.43" height="249.3"/><path class="cls-2" d="M-43.15,482.68V240.24L72,361.46Z"/></g></mask><mask id="mask-14" x="1224.36" y="-4.49" width="118.43" height="249.3" maskUnits="userSpaceOnUse"><g id="path-10-outside-1-2" data-name="path-10-outside-1"><rect class="cls-1" x="1224.36" y="-4.49" width="118.43" height="249.3"/><path class="cls-2" d="M1341.71-1.06V241.38L1226.54,120.16Z"/></g></mask><mask id="mask-15" x="994.02" y="237.95" width="118.43" height="249.3" maskUnits="userSpaceOnUse"><g id="path-12-outside-2-2" data-name="path-12-outside-2"><rect class="cls-1" x="994.02" y="237.95" width="118.43" height="249.3"/><path class="cls-2" d="M1111.37,241.38V483.82L996.19,362.6Z"/></g></mask><mask id="mask-16" x="1224.36" y="237.95" width="118.43" height="249.3" maskUnits="userSpaceOnUse"><g id="path-14-outside-3-2" data-name="path-14-outside-3"><rect class="cls-1" x="1224.36" y="237.95" width="118.43" height="249.3"/><path class="cls-2" d="M1341.71,241.38V483.82L1226.54,362.6Z"/></g></mask><mask id="mask-17" x="763.68" y="-4.49" width="118.43" height="249.3" maskUnits="userSpaceOnUse"><g id="path-16-outside-4-2" data-name="path-16-outside-4"><rect class="cls-1" x="763.68" y="-4.49" width="118.43" height="249.3"/><path class="cls-2" d="M881-1.06V241.38L765.85,120.16Z"/></g></mask><mask id="mask-18" x="994.02" y="-4.49" width="118.43" height="249.3" maskUnits="userSpaceOnUse"><g id="path-18-outside-5-2" data-name="path-18-outside-5"><rect class="cls-1" x="994.02" y="-4.49" width="118.43" height="249.3"/><path class="cls-2" d="M1111.37-1.06V241.38L996.19,120.16Z"/></g></mask><mask id="mask-19" x="763.68" y="237.95" width="118.43" height="249.3" maskUnits="userSpaceOnUse"><g id="path-20-outside-6-2" data-name="path-20-outside-6"><rect class="cls-1" x="763.68" y="237.95" width="118.43" height="249.3"/><path class="cls-2" d="M881,241.38V483.82L765.85,362.6Z"/></g></mask><mask id="mask-20" x="1110.28" y="-4.49" width="118.43" height="249.3" maskUnits="userSpaceOnUse"><g id="path-22-outside-7-2" data-name="path-22-outside-7"><rect class="cls-1" x="1110.28" y="-4.49" width="118.43" height="249.3"/><path class="cls-2" d="M1111.37,241.38V-1.06l115.17,121.22Z"/></g></mask><mask id="mask-21" x="1110.28" y="237.95" width="118.43" height="249.3" maskUnits="userSpaceOnUse"><g id="path-24-outside-8-2" data-name="path-24-outside-8"><rect class="cls-1" x="1110.28" y="237.95" width="118.43" height="249.3"/><path class="cls-2" d="M1111.37,483.82V241.38L1226.54,362.6Z"/></g></mask><mask id="mask-22" x="879.94" y="237.95" width="118.43" height="249.3" maskUnits="userSpaceOnUse"><g id="path-26-outside-9-2" data-name="path-26-outside-9"><rect class="cls-1" x="879.94" y="237.95" width="118.43" height="249.3"/><path class="cls-2" d="M881,483.82V241.38L996.19,362.6Z"/></g></mask><mask id="mask-23" x="879.94" y="-4.49" width="118.43" height="249.3" maskUnits="userSpaceOnUse"><g id="path-28-outside-10-2" data-name="path-28-outside-10"><rect class="cls-1" x="879.94" y="-4.49" width="118.43" height="249.3"/><path class="cls-2" d="M881,241.38V-1.06L996.19,120.16Z"/></g></mask><mask id="mask-25" x="648.51" y="-4.49" width="118.43" height="249.3" maskUnits="userSpaceOnUse"><g id="path-32-outside-12-2" data-name="path-32-outside-12"><rect class="cls-1" x="648.51" y="-4.49" width="118.43" height="249.3"/><path class="cls-2" d="M649.59,241.38V-1.06L764.76,120.16Z"/></g></mask><mask id="mask-26" x="648.51" y="237.95" width="118.43" height="249.3" maskUnits="userSpaceOnUse"><g id="path-34-outside-13-2" data-name="path-34-outside-13"><rect class="cls-1" x="648.51" y="237.95" width="118.43" height="249.3"/><path class="cls-2" d="M649.59,483.82V241.38L764.76,362.6Z"/></g></mask><mask id="mask-27" x="1917.57" y="-4.49" width="118.43" height="249.3" maskUnits="userSpaceOnUse"><g id="path-10-outside-1-3" data-name="path-10-outside-1"><rect class="cls-1" x="1917.57" y="-4.49" width="118.43" height="249.3"/><path class="cls-2" d="M2034.91-1.06V241.38L1919.74,120.16Z"/></g></mask><mask id="mask-28" x="1687.22" y="237.95" width="118.43" height="249.3" maskUnits="userSpaceOnUse"><g id="path-12-outside-2-3" data-name="path-12-outside-2"><rect class="cls-1" x="1687.22" y="237.95" width="118.43" height="249.3"/><path class="cls-2" d="M1804.57,241.38V483.82L1689.4,362.6Z"/></g></mask><mask id="mask-29" x="1917.57" y="237.95" width="118.43" height="249.3" maskUnits="userSpaceOnUse"><g id="path-14-outside-3-3" data-name="path-14-outside-3"><rect class="cls-1" x="1917.57" y="237.95" width="118.43" height="249.3"/><path class="cls-2" d="M2034.91,241.38V483.82L1919.74,362.6Z"/></g></mask><mask id="mask-30" x="1456.88" y="-4.49" width="118.43" height="249.3" maskUnits="userSpaceOnUse"><g id="path-16-outside-4-3" data-name="path-16-outside-4"><rect class="cls-1" x="1456.88" y="-4.49" width="118.43" height="249.3"/><path class="cls-2" d="M1574.23-1.06V241.38L1459.05,120.16Z"/></g></mask><mask id="mask-31" x="1687.22" y="-4.49" width="118.43" height="249.3" maskUnits="userSpaceOnUse"><g id="path-18-outside-5-3" data-name="path-18-outside-5"><rect class="cls-1" x="1687.22" y="-4.49" width="118.43" height="249.3"/><path class="cls-2" d="M1804.57-1.06V241.38L1689.4,120.16Z"/></g></mask><mask id="mask-32" x="1456.88" y="237.95" width="118.43" height="249.3" maskUnits="userSpaceOnUse"><g id="path-20-outside-6-3" data-name="path-20-outside-6"><rect class="cls-1" x="1456.88" y="237.95" width="118.43" height="249.3"/><path class="cls-2" d="M1574.23,241.38V483.82L1459.05,362.6Z"/></g></mask><mask id="mask-33" x="1803.48" y="-4.49" width="118.43" height="249.3" maskUnits="userSpaceOnUse"><g id="path-22-outside-7-3" data-name="path-22-outside-7"><rect class="cls-1" x="1803.48" y="-4.49" width="118.43" height="249.3"/><path class="cls-2" d="M1804.57,241.38V-1.06l115.17,121.22Z"/></g></mask><mask id="mask-34" x="1803.48" y="237.95" width="118.43" height="249.3" maskUnits="userSpaceOnUse"><g id="path-24-outside-8-3" data-name="path-24-outside-8"><rect class="cls-1" x="1803.48" y="237.95" width="118.43" height="249.3"/><path class="cls-2" d="M1804.57,483.82V241.38L1919.74,362.6Z"/></g></mask><mask id="mask-35" x="1573.14" y="237.95" width="118.43" height="249.3" maskUnits="userSpaceOnUse"><g id="path-26-outside-9-3" data-name="path-26-outside-9"><rect class="cls-1" x="1573.14" y="237.95" width="118.43" height="249.3"/><path class="cls-2" d="M1574.23,483.82V241.38L1689.4,362.6Z"/></g></mask><mask id="mask-36" x="1573.14" y="-4.49" width="118.43" height="249.3" maskUnits="userSpaceOnUse"><g id="path-28-outside-10-3" data-name="path-28-outside-10"><rect class="cls-1" x="1573.14" y="-4.49" width="118.43" height="249.3"/><path class="cls-2" d="M1574.23,241.38V-1.06L1689.4,120.16Z"/></g></mask><mask id="mask-38" x="1341.71" y="-4.49" width="118.43" height="249.3" maskUnits="userSpaceOnUse"><g id="path-32-outside-12-3" data-name="path-32-outside-12"><rect class="cls-1" x="1341.71" y="-4.49" width="118.43" height="249.3"/><path class="cls-2" d="M1342.8,241.38V-1.06L1458,120.16Z"/></g></mask><mask id="mask-39" x="1341.71" y="237.95" width="118.43" height="249.3" maskUnits="userSpaceOnUse"><g id="path-34-outside-13-3" data-name="path-34-outside-13"><rect class="cls-1" x="1341.71" y="237.95" width="118.43" height="249.3"/><path class="cls-2" d="M1342.8,483.82V241.38L1458,362.6Z"/></g></mask></defs><polygon class="cls-3" points="417.86 240.31 533.87 118.21 649.88 240.31 533.87 362.42 417.86 240.31"/><polygon class="cls-3" points="187.51 240.31 303.52 118.21 419.54 240.31 303.52 362.42 187.51 240.31"/><polygon class="cls-3" points="-42.83 240.31 73.18 118.21 189.19 240.31 73.18 362.42 -42.83 240.31"/><polygon class="cls-3" points="417.86 -2.13 533.87 -124.23 649.88 -2.13 533.87 119.98 417.86 -2.13"/><polygon class="cls-3" points="417.86 482.75 533.87 360.65 649.88 482.75 533.87 604.86 417.86 482.75"/><polygon class="cls-3" points="187.51 -2.13 303.52 -124.23 419.54 -2.13 303.52 119.98 187.51 -2.13"/><polygon class="cls-3" points="187.51 482.75 303.52 360.65 419.54 482.75 303.52 604.86 187.51 482.75"/><polygon class="cls-3" points="-42.83 -2.13 73.18 -124.23 189.19 -2.13 73.18 119.98 -42.83 -2.13"/><polygon class="cls-3" points="-43.92 482.75 72.09 360.65 188.11 482.75 72.09 604.86 -43.92 482.75"/><path class="cls-4" d="M649-2.2V240.24L533.8,119Z"/><g class="cls-5"><path d="M649-2.2h1.08V-5L648.2-3Zm0,242.44-.77.81,1.85,1.95v-2.76ZM533.8,119l-.77-.81-.77.81.77.81ZM647.88-2.2V240.24h2.17V-2.2Zm1.86,241.63L534.56,118.21,533,119.83,648.2,241.05ZM534.56,119.83,649.74-1.39,648.2-3,533,118.21Z"/></g><path class="cls-6" d="M418.62,240.24V482.68L303.45,361.46Z"/><g class="cls-7"><path d="M418.62,240.24h1.09v-2.76l-1.85,2Zm0,242.44-.76.81,1.85,1.95v-2.76ZM303.45,361.46l-.77-.81-.76.81.76.81ZM417.54,240.24V482.68h2.17V240.24Zm1.85,241.63L304.22,360.65l-1.54,1.62L417.86,483.49ZM304.22,362.27,419.39,241.05l-1.53-1.62L302.68,360.65Z"/></g><path class="cls-8" d="M649,240.24V482.68L533.8,361.46Z"/><g class="cls-9"><path d="M649,240.24h1.08v-2.76l-1.85,2Zm0,242.44-.77.81,1.85,1.95v-2.76ZM533.8,361.46l-.77-.81-.77.81.77.81ZM647.88,240.24V482.68h2.17V240.24Zm1.86,241.63L534.56,360.65,533,362.27,648.2,483.49ZM534.56,362.27,649.74,241.05l-1.54-1.62L533,360.65Z"/></g><path class="cls-8" d="M188.28-2.2V240.24L73.11,119Z"/><g class="cls-10"><path d="M188.28-2.2h1.09V-5l-1.86,2Zm0,242.44-.77.81,1.86,1.95v-2.76ZM73.11,119l-.77-.81-.77.81.77.81ZM187.19-2.2V240.24h2.18V-2.2Zm1.86,241.63L73.88,118.21l-1.54,1.62L187.51,241.05ZM73.88,119.83,189.05-1.39,187.51-3,72.34,118.21Z"/></g><path class="cls-11" d="M418.62-2.2V240.24L303.45,119Z"/><g class="cls-12"><path d="M418.62-2.2h1.09V-5l-1.85,2Zm0,242.44-.76.81,1.85,1.95v-2.76ZM303.45,119l-.77-.81-.76.81.76.81ZM417.54-2.2V240.24h2.17V-2.2Zm1.85,241.63L304.22,118.21l-1.54,1.62L417.86,241.05ZM304.22,119.83,419.39-1.39,417.86-3,302.68,118.21Z"/></g><path class="cls-11" d="M188.28,240.24V482.68L73.11,361.46Z"/><g class="cls-13"><path d="M188.28,240.24h1.09v-2.76l-1.86,2Zm0,242.44-.77.81,1.86,1.95v-2.76ZM73.11,361.46l-.77-.81-.77.81.77.81ZM187.19,240.24V482.68h2.18V240.24Zm1.86,241.63L73.88,360.65l-1.54,1.62L187.51,483.49ZM73.88,362.27,189.05,241.05l-1.54-1.62L72.34,360.65Z"/></g><path class="cls-8" d="M418.62,240.24V-2.2L533.8,119Z"/><g class="cls-14"><path d="M418.62,240.24h-1.08V243l1.85-1.95Zm0-242.44.77-.81L417.54-5V-2.2ZM533.8,119l.76.81.77-.81-.77-.81ZM419.71,240.24V-2.2h-2.17V240.24ZM417.86-1.39,533,119.83l1.53-1.62L419.39-3ZM533,118.21,417.86,239.43l1.53,1.62L534.56,119.83Z"/></g><path class="cls-4" d="M418.62,482.68V240.24L533.8,361.46Z"/><g class="cls-15"><path d="M418.62,482.68h-1.08v2.76l1.85-1.95Zm0-242.44.77-.81-1.85-2v2.76ZM533.8,361.46l.76.81.77-.81-.77-.81ZM419.71,482.68V240.24h-2.17V482.68Zm-1.85-241.63L533,362.27l1.53-1.62L419.39,239.43ZM533,360.65,417.86,481.87l1.53,1.62L534.56,362.27Z"/></g><path class="cls-4" d="M188.28,482.68V240.24L303.45,361.46Z"/><g class="cls-16"><path d="M188.28,482.68h-1.09v2.76l1.86-1.95Zm0-242.44.77-.81-1.86-2v2.76ZM303.45,361.46l.77.81.77-.81-.77-.81ZM189.37,482.68V240.24h-2.18V482.68Zm-1.86-241.63L302.68,362.27l1.54-1.62L189.05,239.43Zm115.17,119.6L187.51,481.87l1.54,1.62L304.22,362.27Z"/></g><path class="cls-6" d="M188.28,240.24V-2.2L303.45,119Z"/><g class="cls-17"><path d="M188.28,240.24h-1.09V243l1.86-1.95Zm0-242.44.77-.81L187.19-5V-2.2ZM303.45,119l.77.81L305,119l-.77-.81ZM189.37,240.24V-2.2h-2.18V240.24ZM187.51-1.39,302.68,119.83l1.54-1.62L189.05-3Zm115.17,119.6L187.51,239.43l1.54,1.62L304.22,119.83Z"/></g><path class="cls-6" d="M418.62,240.24V-2.2L533.8,119Z"/><g class="cls-14"><path d="M418.62,240.24h-1.08V243l1.85-1.95Zm0-242.44.77-.81L417.54-5V-2.2ZM533.8,119l.76.81.77-.81-.77-.81ZM419.71,240.24V-2.2h-2.17V240.24ZM417.86-1.39,533,119.83l1.53-1.62L419.39-3ZM533,118.21,417.86,239.43l1.53,1.62L534.56,119.83Z"/></g><path class="cls-11" d="M-43.15,240.24V-2.2L72,119Z"/><g class="cls-18"><path d="M-43.15,240.24h-1.09V243l1.86-1.95Zm0-242.44.77-.81L-44.24-5V-2.2ZM72,119l.77.81.77-.81-.77-.81ZM-42.06,240.24V-2.2h-2.18V240.24ZM-43.92-1.39,71.25,119.83l1.54-1.62L-42.38-3ZM71.25,118.21-43.92,239.43l1.54,1.62L72.79,119.83Z"/></g><path class="cls-6" d="M-43.15,482.68V240.24L72,361.46Z"/><g class="cls-19"><path d="M-43.15,482.68h-1.09v2.76l1.86-1.95Zm0-242.44.77-.81-1.86-2v2.76ZM72,361.46l.77.81.77-.81-.77-.81ZM-42.06,482.68V240.24h-2.18V482.68Zm-1.86-241.63L71.25,362.27l1.54-1.62L-42.38,239.43ZM71.25,360.65-43.92,481.87l1.54,1.62L72.79,362.27Z"/></g><polygon class="cls-3" points="1110.6 241.46 1226.61 119.35 1342.62 241.46 1226.61 363.56 1110.6 241.46"/><polygon class="cls-3" points="880.25 241.46 996.27 119.35 1112.28 241.46 996.27 363.56 880.25 241.46"/><polygon class="cls-3" points="649.91 241.46 765.92 119.35 881.93 241.46 765.92 363.56 649.91 241.46"/><polygon class="cls-3" points="1110.6 -0.98 1226.61 -123.09 1342.62 -0.98 1226.61 121.12 1110.6 -0.98"/><polygon class="cls-3" points="1110.6 483.9 1226.61 361.79 1342.62 483.9 1226.61 606 1110.6 483.9"/><polygon class="cls-3" points="880.25 -0.98 996.27 -123.09 1112.28 -0.98 996.27 121.12 880.25 -0.98"/><polygon class="cls-3" points="880.25 483.9 996.27 361.79 1112.28 483.9 996.27 606 880.25 483.9"/><polygon class="cls-3" points="649.91 -0.98 765.92 -123.09 881.93 -0.98 765.92 121.12 649.91 -0.98"/><polygon class="cls-3" points="648.82 483.9 764.84 361.79 880.85 483.9 764.84 606 648.82 483.9"/><path class="cls-4" d="M1341.71-1.06V241.38L1226.54,120.16Z"/><g class="cls-20"><path d="M1341.71-1.06h1.09V-3.82l-1.86,1.95Zm0,242.44-.77.81,1.86,1.95v-2.76ZM1226.54,120.16l-.77-.81-.77.81.77.81ZM1340.62-1.06V241.38h2.18V-1.06Zm1.86,241.63L1227.31,119.35l-1.54,1.62,115.17,121.22ZM1227.31,121,1342.48-.25l-1.54-1.62L1225.77,119.35Z"/></g><path class="cls-6" d="M1111.37,241.38V483.82L996.19,362.6Z"/><g class="cls-21"><path d="M1111.37,241.38h1.08v-2.76l-1.85,1.95Zm0,242.44-.77.81,1.85,1.95v-2.76ZM996.19,362.6l-.76-.81-.77.81.77.81Zm114.09-121.22V483.82h2.17V241.38ZM1112.13,483,997,361.79l-1.53,1.62L1110.6,484.63ZM997,363.41l115.17-121.22-1.53-1.62L995.43,361.79Z"/></g><path class="cls-8" d="M1341.71,241.38V483.82L1226.54,362.6Z"/><g class="cls-22"><path d="M1341.71,241.38h1.09v-2.76l-1.86,1.95Zm0,242.44-.77.81,1.86,1.95v-2.76ZM1226.54,362.6l-.77-.81-.77.81.77.81Zm114.08-121.22V483.82h2.18V241.38ZM1342.48,483,1227.31,361.79l-1.54,1.62,115.17,121.22Zm-115.17-119.6,115.17-121.22-1.54-1.62L1225.77,361.79Z"/></g><path class="cls-8" d="M881-1.06V241.38L765.85,120.16Z"/><g class="cls-23"><path d="M881-1.06h1.09V-3.82l-1.86,1.95Zm0,242.44-.77.81,1.86,1.95v-2.76ZM765.85,120.16l-.77-.81-.77.81.77.81ZM879.94-1.06V241.38h2.17V-1.06Zm1.85,241.63L766.62,119.35,765.08,121,880.25,242.19ZM766.62,121,881.79-.25l-1.54-1.62L765.08,119.35Z"/></g><path class="cls-11" d="M1111.37-1.06V241.38L996.19,120.16Z"/><g class="cls-24"><path d="M1111.37-1.06h1.08V-3.82l-1.85,1.95Zm0,242.44-.77.81,1.85,1.95v-2.76ZM996.19,120.16l-.76-.81-.77.81.77.81ZM1110.28-1.06V241.38h2.17V-1.06Zm1.85,241.63L997,119.35,995.43,121,1110.6,242.19ZM997,121,1112.13-.25l-1.53-1.62L995.43,119.35Z"/></g><path class="cls-11" d="M881,241.38V483.82L765.85,362.6Z"/><g class="cls-25"><path d="M881,241.38h1.09v-2.76l-1.86,1.95Zm0,242.44-.77.81,1.86,1.95v-2.76ZM765.85,362.6l-.77-.81-.77.81.77.81ZM879.94,241.38V483.82h2.17V241.38ZM881.79,483,766.62,361.79l-1.54,1.62L880.25,484.63ZM766.62,363.41,881.79,242.19l-1.54-1.62L765.08,361.79Z"/></g><path class="cls-8" d="M1111.37,241.38V-1.06l115.17,121.22Z"/><g class="cls-26"><path d="M1111.37,241.38h-1.09v2.76l1.85-1.95Zm0-242.44.76-.81-1.85-1.95v2.76Zm115.17,121.22.77.81.76-.81-.76-.81ZM1112.45,241.38V-1.06h-2.17V241.38ZM1110.6-.25,1225.77,121l1.54-1.62L1112.13-1.87Zm115.17,119.6L1110.6,240.57l1.53,1.62L1227.31,121Z"/></g><path class="cls-4" d="M1111.37,483.82V241.38L1226.54,362.6Z"/><g class="cls-27"><path d="M1111.37,483.82h-1.09v2.76l1.85-1.95Zm0-242.44.76-.81-1.85-1.95v2.76ZM1226.54,362.6l.77.81.76-.81-.76-.81ZM1112.45,483.82V241.38h-2.17V483.82Zm-1.85-241.63,115.17,121.22,1.54-1.62L1112.13,240.57Zm115.17,119.6L1110.6,483l1.53,1.62,115.18-121.22Z"/></g><path class="cls-4" d="M881,483.82V241.38L996.19,362.6Z"/><g class="cls-28"><path d="M881,483.82h-1.08v2.76l1.85-1.95Zm0-242.44.77-.81-1.85-1.95v2.76ZM996.19,362.6l.77.81.77-.81-.77-.81ZM882.11,483.82V241.38h-2.17V483.82Zm-1.86-241.63L995.43,363.41l1.53-1.62L881.79,240.57Zm115.18,119.6L880.25,483l1.54,1.62L997,363.41Z"/></g><path class="cls-6" d="M881,241.38V-1.06L996.19,120.16Z"/><g class="cls-29"><path d="M881,241.38h-1.08v2.76l1.85-1.95ZM881-1.06l.77-.81-1.85-1.95v2.76ZM996.19,120.16l.77.81.77-.81-.77-.81ZM882.11,241.38V-1.06h-2.17V241.38ZM880.25-.25,995.43,121l1.53-1.62L881.79-1.87Zm115.18,119.6L880.25,240.57l1.54,1.62L997,121Z"/></g><path class="cls-6" d="M1111.37,241.38V-1.06l115.17,121.22Z"/><g class="cls-26"><path d="M1111.37,241.38h-1.09v2.76l1.85-1.95Zm0-242.44.76-.81-1.85-1.95v2.76Zm115.17,121.22.77.81.76-.81-.76-.81ZM1112.45,241.38V-1.06h-2.17V241.38ZM1110.6-.25,1225.77,121l1.54-1.62L1112.13-1.87Zm115.17,119.6L1110.6,240.57l1.53,1.62L1227.31,121Z"/></g><path class="cls-11" d="M649.59,241.38V-1.06L764.76,120.16Z"/><g class="cls-30"><path d="M649.59,241.38h-1.08v2.76l1.85-1.95Zm0-242.44.77-.81-1.85-1.95v2.76ZM764.76,120.16l.77.81.77-.81-.77-.81ZM650.68,241.38V-1.06h-2.17V241.38ZM648.82-.25,764,121l1.53-1.62L650.36-1.87ZM764,119.35,648.82,240.57l1.54,1.62L765.53,121Z"/></g><path class="cls-6" d="M649.59,483.82V241.38L764.76,362.6Z"/><g class="cls-31"><path d="M649.59,483.82h-1.08v2.76l1.85-1.95Zm0-242.44.77-.81-1.85-1.95v2.76ZM764.76,362.6l.77.81.77-.81-.77-.81ZM650.68,483.82V241.38h-2.17V483.82Zm-1.86-241.63L764,363.41l1.53-1.62L650.36,240.57ZM764,361.79,648.82,483l1.54,1.62L765.53,363.41Z"/></g><polygon class="cls-3" points="1803.8 241.46 1919.81 119.35 2035.83 241.46 1919.81 363.56 1803.8 241.46"/><polygon class="cls-3" points="1573.46 241.46 1689.47 119.35 1805.48 241.46 1689.47 363.56 1573.46 241.46"/><polygon class="cls-3" points="1343.11 241.46 1459.13 119.35 1575.14 241.46 1459.13 363.56 1343.11 241.46"/><polygon class="cls-3" points="1803.8 -0.98 1919.81 -123.09 2035.83 -0.98 1919.81 121.12 1803.8 -0.98"/><polygon class="cls-3" points="1803.8 483.9 1919.81 361.79 2035.83 483.9 1919.81 606 1803.8 483.9"/><polygon class="cls-3" points="1573.46 -0.98 1689.47 -123.09 1805.48 -0.98 1689.47 121.12 1573.46 -0.98"/><polygon class="cls-3" points="1573.46 483.9 1689.47 361.79 1805.48 483.9 1689.47 606 1573.46 483.9"/><polygon class="cls-3" points="1343.11 -0.98 1459.13 -123.09 1575.14 -0.98 1459.13 121.12 1343.11 -0.98"/><polygon class="cls-3" points="1342.03 483.9 1458.04 361.79 1574.05 483.9 1458.04 606 1342.03 483.9"/><path class="cls-4" d="M2034.91-1.06V241.38L1919.74,120.16Z"/><g class="cls-32"><path d="M2034.91-1.06H2036V-3.82l-1.85,1.95Zm0,242.44-.76.81,1.85,1.95v-2.76ZM1919.74,120.16l-.77-.81-.76.81.76.81ZM2033.83-1.06V241.38H2036V-1.06Zm1.85,241.63L1920.51,119.35,1919,121l115.18,121.22ZM1920.51,121,2035.68-.25l-1.53-1.62L1919,119.35Z"/></g><path class="cls-6" d="M1804.57,241.38V483.82L1689.4,362.6Z"/><g class="cls-33"><path d="M1804.57,241.38h1.09v-2.76l-1.86,1.95Zm0,242.44-.77.81,1.86,1.95v-2.76ZM1689.4,362.6l-.77-.81-.77.81.77.81Zm114.08-121.22V483.82h2.18V241.38ZM1805.34,483,1690.17,361.79l-1.54,1.62L1803.8,484.63Zm-115.17-119.6,115.17-121.22-1.54-1.62L1688.63,361.79Z"/></g><path class="cls-8" d="M2034.91,241.38V483.82L1919.74,362.6Z"/><g class="cls-34"><path d="M2034.91,241.38H2036v-2.76l-1.85,1.95Zm0,242.44-.76.81,1.85,1.95v-2.76ZM1919.74,362.6l-.77-.81-.76.81.76.81Zm114.09-121.22V483.82H2036V241.38ZM2035.68,483,1920.51,361.79l-1.54,1.62,115.18,121.22Zm-115.17-119.6,115.17-121.22-1.53-1.62L1919,361.79Z"/></g><path class="cls-8" d="M1574.23-1.06V241.38L1459.05,120.16Z"/><g class="cls-35"><path d="M1574.23-1.06h1.08V-3.82l-1.85,1.95Zm0,242.44-.77.81,1.85,1.95v-2.76ZM1459.05,120.16l-.76-.81-.77.81.77.81ZM1573.14-1.06V241.38h2.17V-1.06ZM1575,240.57,1459.82,119.35l-1.53,1.62,115.17,121.22ZM1459.82,121,1575-.25l-1.53-1.62L1458.29,119.35Z"/></g><path class="cls-11" d="M1804.57-1.06V241.38L1689.4,120.16Z"/><g class="cls-36"><path d="M1804.57-1.06h1.09V-3.82l-1.86,1.95Zm0,242.44-.77.81,1.86,1.95v-2.76ZM1689.4,120.16l-.77-.81-.77.81.77.81ZM1803.48-1.06V241.38h2.18V-1.06Zm1.86,241.63L1690.17,119.35l-1.54,1.62L1803.8,242.19ZM1690.17,121,1805.34-.25l-1.54-1.62L1688.63,119.35Z"/></g><path class="cls-11" d="M1574.23,241.38V483.82L1459.05,362.6Z"/><g class="cls-37"><path d="M1574.23,241.38h1.08v-2.76l-1.85,1.95Zm0,242.44-.77.81,1.85,1.95v-2.76ZM1459.05,362.6l-.76-.81-.77.81.77.81Zm114.09-121.22V483.82h2.17V241.38ZM1575,483,1459.82,361.79l-1.53,1.62,115.17,121.22Zm-115.17-119.6L1575,242.19l-1.53-1.62L1458.29,361.79Z"/></g><path class="cls-8" d="M1804.57,241.38V-1.06l115.17,121.22Z"/><g class="cls-38"><path d="M1804.57,241.38h-1.09v2.76l1.86-1.95Zm0-242.44.77-.81-1.86-1.95v2.76Zm115.17,121.22.77.81.77-.81-.77-.81ZM1805.66,241.38V-1.06h-2.18V241.38ZM1803.8-.25,1919,121l1.54-1.62L1805.34-1.87ZM1919,119.35,1803.8,240.57l1.54,1.62L1920.51,121Z"/></g><path class="cls-4" d="M1804.57,483.82V241.38L1919.74,362.6Z"/><g class="cls-39"><path d="M1804.57,483.82h-1.09v2.76l1.86-1.95Zm0-242.44.77-.81-1.86-1.95v2.76ZM1919.74,362.6l.77.81.77-.81-.77-.81ZM1805.66,483.82V241.38h-2.18V483.82Zm-1.86-241.63L1919,363.41l1.54-1.62L1805.34,240.57ZM1919,361.79,1803.8,483l1.54,1.62,115.17-121.22Z"/></g><path class="cls-4" d="M1574.23,483.82V241.38L1689.4,362.6Z"/><g class="cls-40"><path d="M1574.23,483.82h-1.09v2.76l1.85-1.95Zm0-242.44.76-.81-1.85-1.95v2.76ZM1689.4,362.6l.77.81.76-.81-.76-.81ZM1575.31,483.82V241.38h-2.17V483.82Zm-1.85-241.63,115.17,121.22,1.54-1.62L1575,240.57Zm115.17,119.6L1573.46,483l1.53,1.62,115.18-121.22Z"/></g><path class="cls-6" d="M1574.23,241.38V-1.06L1689.4,120.16Z"/><g class="cls-41"><path d="M1574.23,241.38h-1.09v2.76l1.85-1.95Zm0-242.44.76-.81-1.85-1.95v2.76ZM1689.4,120.16l.77.81.76-.81-.76-.81ZM1575.31,241.38V-1.06h-2.17V241.38ZM1573.46-.25,1688.63,121l1.54-1.62L1575-1.87Zm115.17,119.6L1573.46,240.57l1.53,1.62L1690.17,121Z"/></g><path class="cls-6" d="M1804.57,241.38V-1.06l115.17,121.22Z"/><g class="cls-38"><path d="M1804.57,241.38h-1.09v2.76l1.86-1.95Zm0-242.44.77-.81-1.86-1.95v2.76Zm115.17,121.22.77.81.77-.81-.77-.81ZM1805.66,241.38V-1.06h-2.18V241.38ZM1803.8-.25,1919,121l1.54-1.62L1805.34-1.87ZM1919,119.35,1803.8,240.57l1.54,1.62L1920.51,121Z"/></g><path class="cls-11" d="M1342.8,241.38V-1.06L1458,120.16Z"/><g class="cls-42"><path d="M1342.8,241.38h-1.09v2.76l1.85-1.95Zm0-242.44.76-.81-1.85-1.95v2.76ZM1458,120.16l.77.81.76-.81-.76-.81ZM1343.88,241.38V-1.06h-2.17V241.38ZM1342-.25,1457.2,121l1.54-1.62L1343.56-1.87Zm115.17,119.6L1342,240.57l1.53,1.62L1458.74,121Z"/></g><path class="cls-6" d="M1342.8,483.82V241.38L1458,362.6Z"/><g class="cls-43"><path d="M1342.8,483.82h-1.09v2.76l1.85-1.95Zm0-242.44.76-.81-1.85-1.95v2.76ZM1458,362.6l.77.81.76-.81-.76-.81ZM1343.88,483.82V241.38h-2.17V483.82ZM1342,242.19,1457.2,363.41l1.54-1.62L1343.56,240.57Zm115.17,119.6L1342,483l1.53,1.62,115.18-121.22Z"/></g><rect class="cls-44" x="-12" y="500" width="1938" height="540"/><rect class="cls-45" x="-2" y="470" width="1941" height="45"/><rect class="cls-46" x="1259.24" y="312.51" width="318.4" height="120.04"/><path class="cls-47" d="M1218.71,838.33c-3.37,4.3-3,8.88-5.61,23.1-2.86,15.36-5.38,21.12-8.43,33-6.94,27.1-5,40.73-9.82,74.24-4.53,31.11-7.89,30.7-14,64.34-1.88,10.32-5.65,32.73-8.42,79.2-4.24,71.22-1.92,128.4-1.4,140.23.25,5.87,0-.48,9.73,109.57,3.3,37.32,4.64,52.89,5.71,65.32,5.67,66.31,5.22,63.8,7,84.14,8.27,93.74,12.21,121.16,30.88,136.93,9.61,8.12,21.38,9.26,44.92,11.55,35.39,3.45,81.67,8,102.47-21.44,7.77-11,5.34-17.33,7-99,1.06-51.51,2.32-63,2.74-81,.27-11.7.07-18,.07-24.61,0-24.55,2.06-27.46,4-62.69,1.71-31.58.46-36.6,3.59-54.54,1.19-6.8,2.18-11.34,3.68-21.35,2-13.54,1-25.94,2.81-37.95,2.23-14.8,9-30.13,12.63-29.7,2.26.27,2.94,6.55,4.21,18.15,4.91,44.65,8.25,75.53,8.42,89.09.39,31.19.67-10.64,4.21,107.24,2.62,87.21,5.73,77.14,2.81,112.19-4.94,59.37-18.71,73.83-4.83,91.79,18.63,24.12,62.36,22.51,91,21.45,9.83-.36,61.33-2.26,69.6-24.15,1.37-3.6-.58-3.27.65-15.54,1.41-14.08,5.19-25.61,12-67,3.21-19.52,6.81-49.86,14-110.54,9.75-82,8.2-78.57,12.64-105.59,5.93-36.17,9.17-45,11.22-72.59,2.1-28.13,1.08-50.55,0-74.24-1.53-33.73-3.74-40.65-5.61-79.2-.52-10.59-.71-17.51-.78-22.9-.13-8.94,2.08-12.31-.11-17.48-2.61-6.17-8-9.25-10.13-10.76-11.07-7.83-10-26.76-8.92-56.1,0,0,2.36-65.45-1.11-92.39-3-23-5.25-23.24-7-42.89-1.93-21.37-.52-31.5-7-37.95-4.83-4.78-10.6-4.15-25.27-3.3-13.56.79-27.22-.19-40.7,1.65-6.79.93-34,1.17-88.43,1.65-51.48.46-77.22.68-98.25,0-28.54-.92-57.83,6-85.63-1.65C1245.52,834,1226.88,827.92,1218.71,838.33Z"/><path class="cls-48" d="M1426.34,499.37h0c-42.7,0-77.63-26.42-77.63-83.82V360c0-57.4,34.93-104.37,77.63-104.37h0c42.69,0,77.62,47,77.62,104.37v55.6C1504,473,1469,499.37,1426.34,499.37Z"/><path class="cls-49" d="M1164.21,887.71c10.51-5.41,21-5.16,32.06-4.94q.18-18.82,1-37.55c1-20.64,2.6-41.53,4.85-62.1l5.54-26.07s0-.09,0-.14a462.74,462.74,0,0,0,0-113.45,1.62,1.62,0,0,0-1.14-1.35L1118,614.57a1.68,1.68,0,0,0-.5-.07,1.64,1.64,0,0,0-1,.32,1.6,1.6,0,0,0-.66,1.33l1.74,71-3.47,49.26-3.48,85.52a2.53,2.53,0,0,0,0,.28l5.23,39.26c9.95,7.59,21.36,14,32.17,19.82C1152.55,883.67,1157.93,890.13,1164.21,887.71Z"/><path class="cls-50" d="M1110.67,822.06a.76.76,0,0,1,0-.15l3.47-85.5,3.48-49.32-1.74-71a.84.84,0,0,1,.33-.69.71.71,0,0,1,.42-.14.51.51,0,0,1,.2,0l88.59,27.54a.8.8,0,0,1,.53.67,462.58,462.58,0,0,1,0,113.35L1200.38,783c-2.25,20.59-3.89,41.5-4.85,62.14q-.88,18.72-1,37.57l1.79,0q.18-18.82,1-37.54c1-20.61,2.59-41.49,4.83-62l5.54-26.08a.64.64,0,0,0,0-.2,462.88,462.88,0,0,0,0-113.63,2.44,2.44,0,0,0-1.73-2l-88.59-27.54a2.64,2.64,0,0,0-2.34.39,2.38,2.38,0,0,0-1,2l1.73,70.88-3.47,49.28-3.47,85.53a1.82,1.82,0,0,0,0,.4l5.11,38.39q1,.78,2,1.53Z"/><path class="cls-49" d="M1719,751.41l-3.63-49.21,1.81-71a1.57,1.57,0,0,0-.68-1.33,1.79,1.79,0,0,0-1-.32,1.81,1.81,0,0,0-.52.07l-92.66,27.54a1.65,1.65,0,0,0-1.19,1.35,442.61,442.61,0,0,0,0,113.45l0,.17,7.14,29.09c1.74,19.56,3,39.41,3.72,59,1.22,32.7,1,65.77-.51,98.63,20.17,9.14,38.09,23.29,61.86,28.51,1.33,0,2.43.85,3.65,1.79l.2-2.67s14.53-71,14.53-71l10.9-78.27a1.32,1.32,0,0,0,0-.28Z"/><path class="cls-50" d="M1719.88,751.36l-3.63-49.14,1.81-71a2.39,2.39,0,0,0-1-2,2.78,2.78,0,0,0-2.33-.37l-92.66,27.54a2.48,2.48,0,0,0-1.78,2,443,443,0,0,0,0,113.65,1.87,1.87,0,0,0,0,.25l7.13,29c1.73,19.52,3,39.35,3.71,58.93,1.22,32.56,1,65.49-.5,98.22l1.69.76c1.57-33,1.76-66.2.53-99-.74-19.63-2-39.5-3.72-59.07L1622,772s0,0,0-.07a442.34,442.34,0,0,1,0-113.26.84.84,0,0,1,.6-.68l92.66-27.54a.91.91,0,0,1,.77.13.78.78,0,0,1,.35.66l-1.82,71,3.63,49.18L1721.8,837a.57.57,0,0,1,0,.13l-10.89,78.24c-.08.37-14.39,70.31-14.54,71l-.16,2.21c.52.38,1,.81,1.62,1.23l.24-3.18c14.52-71,14.53-71,14.53-71l10.9-78.28a1.85,1.85,0,0,0,0-.41Z"/><path class="cls-51" d="M1337.5,427.28c13.12,10.35,7.58,18.13,24.39,32.9,14.68,12.9,30.87,17.48,40.65,20.25,13.55,3.83,34.25,9.69,56.92,2.53,13.76-4.34,22.16-11.56,35.23-22.78,0,0,8.43-7.23,35.24-38a273.31,273.31,0,0,1,40.65,2.53c26.91,3.71,46,10.46,73.18,20.25,29,10.45,43.54,15.67,51.5,22.78a51.56,51.56,0,0,1,7.38,8c15.27,20.82,18.42,43,19.72,52.75,7.93,59.64,43.42,81.35,27.64,105.74-2.17,3.36-8,7.19-19.73,14.85-15.58,10.19-41.11,24.86-82.89,40.84-24.24,9.27-28.5,9.24-33.43,15.72a22.3,22.3,0,0,0-3.65,6.75c-4.06,12.7.94,51.46.94,51.46,2.93,21.37-2.32,18.3-.7,57.24.64,15.57,1.94,27.26,2.75,34.36,4.22,37.24,9.72,50.23,8.79,78-.32,9.39-1.32,18.9-1.32,18.9-2.23,19.26-6.52,30.12-9.52,69.68-1.86,24.54-.52,24.45-2.71,30.37-12.47,33.66-59.76,47-92.15,55.67-73,19.59-134.58,12-168,7.6-50.34-6.67-77.63-18.06-119.26-35.44-26-10.86-37.61-18-43.36-30.37-9.44-20.24,7.57-31.48,10.84-73.39,2.48-31.8-6.51-35.51-2.71-70.86,2.17-20.19,5.23-20.2,10.84-48.09,8.27-41.16,8.25-74.22,8.13-93.64-.32-52.44,1.69-61.18-5.42-70.86-4.7-6.41-8.26-8-43.36-27.84-51.61-29.18-56.62-32.92-59.63-40.49-1.69-4.25-2.55-9.18,16.26-60.74,9-24.57,15.81-41.71,24.39-60.74,15.89-35.25,21.15-40.27,24.4-43,7.69-6.53,12.45-7.42,48.78-22.77,34.15-14.44,29.62-13.52,35.24-15.19C1260.14,420.24,1309.83,405.47,1337.5,427.28Z"/><path class="cls-49" d="M1631.5,958.93q-.6,12.51-1.45,25l-12.45,45.29-23.48,34.57a1.29,1.29,0,0,0-.17.33l-10.9,29a1.48,1.48,0,0,0-.08.75,198.82,198.82,0,0,1-3.61,73.36,1.55,1.55,0,0,0,.47,1.5,1.82,1.82,0,0,0,1.6.43l.29-.06-14.22,7.21a1.8,1.8,0,0,0-.68.63c-.43.71-4.08,7.17-.65,14.16,3.08,6.29,9.53,8.18,10.79,8.49a1.65,1.65,0,0,0,.44,0,2,2,0,0,0,.59-.09l80-27.55a1.75,1.75,0,0,0,.64-.39l16.36-16a1.57,1.57,0,0,0,.41-.66l12.72-40.59a1.4,1.4,0,0,0,.06-.41l1.82-60.78,4-23.4a.68.68,0,0,0,0-.14l3-40.41c-1.22-.94-2.32-1.79-3.65-1.79C1669.59,982.22,1651.67,968.07,1631.5,958.93Zm-24.8,197.44-11.09,5.63a30,30,0,0,0,7.74-10.79s0-.09.05-.13l7.47-23.79Z"/><path class="cls-50" d="M1693.12,1029.65l-4,23.41-1.82,60.88a1.42,1.42,0,0,1,0,.2l-12.72,40.59a.86.86,0,0,1-.2.33L1658,1171a1,1,0,0,1-.32.2l-79.94,27.54a1,1,0,0,1-.52,0c-1.2-.3-7.31-2.09-10.23-8-3.26-6.63.21-12.75.62-13.42a.87.87,0,0,1,.34-.32l20-10.15-6.68,1.5a.9.9,0,0,1-.8-.21.77.77,0,0,1-.23-.75,199.53,199.53,0,0,0,3.62-73.65.68.68,0,0,1,0-.37l10.9-29a.7.7,0,0,1,.09-.17l23.47-34.57.07-.11,12.49-45.41,0-.15q.86-12.29,1.44-24.64l-1.69-.76q-.59,12.63-1.45,25.22l-12.4,45.09-23.4,34.46a2.65,2.65,0,0,0-.26.5l-10.9,29a2.39,2.39,0,0,0-.13,1.12,197.86,197.86,0,0,1-3.59,73.09,2.33,2.33,0,0,0,.7,2.25l.1.09-12.23,6.2a2.57,2.57,0,0,0-1,.94c-.45.75-4.29,7.54-.68,14.9,3.24,6.61,10,8.6,11.35,8.93a3,3,0,0,0,.66.08,2.73,2.73,0,0,0,.89-.15l79.94-27.54a2.54,2.54,0,0,0,1-.59l16.35-16a2.41,2.41,0,0,0,.62-1l12.72-40.59a2.17,2.17,0,0,0,.1-.62l1.81-60.72,4-23.35,0-.22,3-39.84c-.57-.42-1.1-.85-1.62-1.23Z"/><path class="cls-49" d="M1265.88,1168.63c-.77-4-4.68-6.39-6.89-7.46l-13.57-7.2.29.06.34,0a1.67,1.67,0,0,0,1.17-.48,1.6,1.6,0,0,0,.43-1.48,207.9,207.9,0,0,1-3.45-73.37,1.48,1.48,0,0,0-.08-.75l-10.42-29a1.44,1.44,0,0,0-.16-.33l-22.43-34.56-12.29-50c-1.94-27-2.79-54.21-2.55-81.34-11-.22-21.55-.47-32.06,4.94-6.28,2.42-11.66-4-16.14-6.47-10.81-5.83-22.22-12.23-32.17-19.82l5.2,39s13.89,71,13.89,71a245.69,245.69,0,0,1,1.3,36.54l0,.33a60.79,60.79,0,0,0,1.47,18.24,58.8,58.8,0,0,0,4.2,11.72l1.72,60.54a1.85,1.85,0,0,0,.07.41l12.16,40.59a1.62,1.62,0,0,0,.39.67l15.64,15.94a1.66,1.66,0,0,0,.61.4l76.43,27.54a1.78,1.78,0,0,0,.56.1,2.09,2.09,0,0,0,.35,0C1261.2,1182.1,1267,1174.4,1265.88,1168.63Zm-44.37-27.36-3.79-27.65,6.66,23c0,.07,0,.13.07.19a29.76,29.76,0,0,0,6.6,9.53Z"/><path class="cls-50" d="M1265.87,1168.49c-.84-4.31-5-6.88-7.32-8l-11.71-6.22.15-.14a2.35,2.35,0,0,0,.64-2.19,207,207,0,0,1-3.43-73.11,2.39,2.39,0,0,0-.12-1.09l-10.42-29a2.78,2.78,0,0,0-.24-.49l-22.37-34.45L1198.81,964c-1.94-26.93-2.78-54.12-2.54-81.2l-1.79,0c-.25,27.15.6,54.41,2.55,81.41l12.3,50.11,0,.13,22.51,34.67a.89.89,0,0,1,.08.17l10.42,29a.92.92,0,0,1,.05.4,208.45,208.45,0,0,0,3.46,73.63.86.86,0,0,1-.22.78.71.71,0,0,1-.65.2l-6.16-1.35,18.82,10c2.1,1,5.73,3.24,6.43,6.88,1.05,5.41-4.51,12.65-15.33,14.91a.66.66,0,0,1-.37,0L1172,1156.12a.84.84,0,0,1-.28-.18l-15.63-16a.83.83,0,0,1-.2-.34l-12.16-40.59a1.43,1.43,0,0,1,0-.22l-1.73-60.7-.07-.14a58.13,58.13,0,0,1-4.14-11.57,59.88,59.88,0,0,1-1.45-18l0-.33a247.28,247.28,0,0,0-1.31-36.73c-.14-.7-13.82-70.65-13.89-71L1116,862.18q-1-.75-2-1.53l5.31,39.88s0,.06,13.89,71a245.67,245.67,0,0,1,1.3,36.43l0,.33a61,61,0,0,0,1.49,18.45,59,59,0,0,0,4.18,11.73l1.72,60.38a2.35,2.35,0,0,0,.1.6l12.16,40.59a2.32,2.32,0,0,0,.58,1l15.64,16a2.77,2.77,0,0,0,1,.61l76.43,27.54a2.74,2.74,0,0,0,.9.15,3.29,3.29,0,0,0,.54,0C1261,1182.78,1267.06,1174.62,1265.87,1168.49Z"/><path class="cls-52" d="M1381.29,408.27c-3.37,5.8,10.58,32.31,31.51,45.61,31.76,20.18,65.18.82,67.56-.62,19.62-11.83,29.31-30.72,39.64-50.85,14.06-27.39,24.57-62.48,19.4-66.73-2.82-2.31-8.61,5.86-36.16,34.75-29.53,31-35.38,34.69-39.79,37.09a82.56,82.56,0,0,1-47.37,9.61C1394.59,414.68,1383.86,403.85,1381.29,408.27Z"/><path class="cls-53" d="M1361.64,471c4-2.16,9.45,6.8,26.31,14.85,14.86,7.1,29.12,9,35.75,9.78,18.21,2.24,29.43-.42,30.27,2.47.73,2.56-7.2,7.35-14.48,9.9-4.51,1.59-14,4.27-46-2.47-20.82-4.37-24.6-6.57-27.63-9.9C1358.12,487.18,1357.23,473.41,1361.64,471Z"/><path class="cls-48" d="M1554,198.67c0,96.38-58.61,230.16-130.91,230.16s-130.92-133.78-130.92-230.16,58.62-129.26,130.92-129.26S1554,102.29,1554,198.67Z"/><path class="cls-46" d="M1512.64,82.33c.55-1.38,1.55-4.16.25-6.38-.93-1.58-4.43-1.87-14.83-7.36-12.17-6.43-11.54-5.88-30.42-12.2-28.82-9.64-45.3-12.2-67-11.18-11.11.52-34.85,1.9-58.53,16.09-8.6,5.15-14.51,10.86-26.31,22.27-22.27,21.53-35.22,34-43.42,54.45-6.92,17.21,0,17.49-7.9,42.08-5.21,16.26-10.49,29.41-14.47,40.83-6.93,19.92-11.3,32.47-11.84,49.5-.14,4.53.11,5.35,0,23.52-.08,13.3-.24,17.27,0,24.75.36,10.95,1,11.31,1.59,22.26,1.59,29.48-1.91,48.1-3,51.89-.14.5-.88,3.11-1.56,6.74-.28,1.49-.54,3.17-.77,5.05-.82,6.92,0,10-3,20.91-4.89,18.29-9.53,18.69-13.18,35.46-2.57,11.81-.29,11.71-2.6,29.7-3.21,25-7.77,26.56-6.13,37.52,2.29,15.26,14.25,32.78,28.26,34.26,13,1.36,15.44-12.13,33.86-19.8,31-12.92,53.51,15.13,82.14,2,19.56-9,26.27-29.94,27.24-33a47.07,47.07,0,0,0,1.56-7.3c.59-4.94-8.87-20.05-11.61-31.07-2.56-10.24,2.43-10,2-34.4-.23-11.82-1.47-16-2-17.57-3.14-9.78-8-12.78-14.48-22.28-6.83-10.06-5-12-13.15-29.7-8.53-18.41-11.63-18.64-17.11-30.93-4.6-10.35-5.19-16.45-9-44.55-7.26-53.29-7.8-49.91-7.81-58.17,0-16.7,0-34.48,7.51-56.57,3.43-10,10.42-25,23.64-41.89,8.15-10.4,17.62-15.08,23.15-18.85,10.28-7,30.48-7.53,48.28-11.08,11.9-2.38,21.94-2,35.05,0,1,.15,1.25.21,1.86.31a80,80,0,0,0,36.54-3.09C1501.25,98.81,1510.22,88.45,1512.64,82.33Z"/><path class="cls-54" d="M1279.8,179.78c2.5.79,8.08-9.14,20.71-24.94a318.09,318.09,0,0,1,29.41-32.15c12.62-12,20.19-19.13,33.41-26,8.55-4.48,20.38-10.53,37.42-12.2,5.61-.55,22.88-2.23,40.1,4.44,4.88,1.89,11.94,5.29,24.72,9.42,11.72,3.78,13.58,3.43,14.7,2.77,5.54-3.26,2-26.26-12-36-2.3-1.6-8.52-3.16-20.86-6.22-15.44-3.82-23.25-5.73-27.93-5.42-10.59.7-13.45,3.57-25.75,5.93-9.55,1.83-11.29,1.62-18.35,4.6-12.93,5.46-20.49,11.83-34.08,23.28-11.55,9.73-18.51,17.54-28.07,28.27-24.3,27.28-29.28,39.9-31.41,46.56C1279.62,168.87,1277.39,179,1279.8,179.78Z"/><ellipse class="cls-55" cx="1362.17" cy="238.31" rx="9.99" ry="10.94"/><path class="cls-55" d="M1363.94,227.61c15,0,27.87,5.65,34,13.84a16.77,16.77,0,0,0,1-2.15c-5.65-9-19.2-15.3-35-15.3-17.67,0-32.51,7.88-36.68,18.54.31.49.65,1,1,1.46C1333.48,234.45,1347.48,227.61,1363.94,227.61Z"/><ellipse class="cls-55" cx="1478.91" cy="235.78" rx="9.99" ry="10.94"/><path class="cls-55" d="M1478,225.65c15,0,27.87,5.64,34,13.83a20,20,0,0,0,1-2.15c-5.65-9-19.21-15.29-35-15.29-17.67,0-32.51,7.88-36.68,18.53.32.5.66,1,1,1.46C1447.5,232.49,1461.49,225.65,1478,225.65Z"/><line class="cls-56" x1="1323.41" y1="224.65" x2="1329.68" y2="240.27"/><line class="cls-56" x1="1327.8" y1="220.03" x2="1334.06" y2="235.65"/><line class="cls-56" x1="1516.39" y1="221.56" x2="1510.12" y2="237.18"/><line class="cls-56" x1="1512.09" y1="217.9" x2="1505.82" y2="233.52"/><line class="cls-56" x1="1333.5" y1="216.86" x2="1338.98" y2="232.86"/><line class="cls-56" x1="1339.3" y1="214.09" x2="1343.46" y2="230.59"/><line class="cls-56" x1="1506.84" y1="214.51" x2="1501.36" y2="230.51"/><line class="cls-56" x1="1501.05" y1="211.74" x2="1496.88" y2="228.24"/><path class="cls-56" d="M1419.76,266.72c-3.49,8.21-7.55,18.2-11.84,29.7-5,13.3-6.08,17.45-4,21,5.4,9.09,26.69,6.21,29.63,5.78"/><path class="cls-56" d="M1396.31,370.34a179.69,179.69,0,0,0,56.11-1"/><path class="cls-56" d="M1409.21,386a47.81,47.81,0,0,0,16.39,1.57A49.18,49.18,0,0,0,1438,385"/><path class="cls-56" d="M1423.66,358.46c-7.24-6.29-12.43-6.82-15.9-6-4.79,1.08-6.68,4.49-12.17,7.67a23.12,23.12,0,0,1-9.37,3.43,21.87,21.87,0,0,1-10.79-1.53"/><path class="cls-56" d="M1422.1,358.46c7.23-6.29,12.43-6.82,15.9-6,4.79,1.08,6.67,4.49,12.16,7.67a23.11,23.11,0,0,0,9.38,3.43,21.87,21.87,0,0,0,10.79-1.53"/><path class="cls-46" d="M1482.15,114.3c.67,11.76,6.88,14.14,24.44,42.28,12.32,19.73,18.53,29.87,21.06,43.32s-.94,15,.79,33.57c2.31,24.87,8.94,26.18,9.73,41.91,1.44,28.63-28.92,37.78-24.92,64.51,1,6.83,3,7.34,3.87,15.93.52,5.05,1.16,17.63-7.89,38.36-10.84,24.82-20.51,26.87-22.37,43.32-1.11,9.84,2.17,10.7,4,24.75,5,39.19-17,60.33-4,75.49,5,5.72,13.12,8.53,17.1,9.9,2,.66,10.41,3.44,25,2.47a99.32,99.32,0,0,0,25-5c35.87-11.58,64.86,8.14,77.63-4.95,6.41-6.58-.55-11.93-2.63-53.21-1.84-36.42,2.7-49.76,5.7-56.81,4.7-11.05,7.39-10.67,10.95-21.57,1.64-5,7.8-23.86,1.77-45.37-3.33-11.89-8.62-18.26-11.18-35.55-.66-4.49-1.19-6.74-.91-10,.79-9.55,6.54-14.77,5.25-29.34-1.54-17.53-10.57-18-20.25-44.89-7.14-19.88-2.15-19.44-9.4-41-4.47-13.31-5.69-11.46-22.42-47.12-6.61-14.08-9.3-20.52-13.12-27.1,0,0-2.07-3.45-4.24-6.71-7.49-11.21-42.67-53.28-68.46-44.12C1489.26,82.14,1481.33,100,1482.15,114.3Z"/><path class="cls-54" d="M1621.82,290.74c1.1,3,3.28,9.41,5.35,22.17,3.13,19.4.7,20.71,4,29.38,4.67,12.26,10,10.89,14,21.62,1.9,5.06,2.52,10.19-2.67,36.58-4.29,21.79-6.5,32.69-9.36,32.7-3.14,0-2.93-10.81-11.36-31-6-14.49-9.76-17.58-14.7-32.15a112.87,112.87,0,0,1-5.35-21.06c-2.15-14.94.87-19.49,4-49.33,2.06-19.6,1.84-27.94,4.68-28.27C1614.52,270.87,1620.56,287.32,1621.82,290.74Z"/><path class="cls-46" d="M1436.58,209.19c1.47,4,10,3.91,11.08,3.9,3.46,0,4.12-.81,11.76-2.67.88-.22,1-.24,12.59-2.6l11.29-2.29c10.09-1.84,15.14-2.91,21.49-2.21a62.42,62.42,0,0,1,12.89,2.82c4.89,1.63,8.8,2.93,12.56,6.1,6,5,7.2,11.07,8.27,10.69s.74-5.23-1.61-9.26c-1-1.64-2.29-2.9-5-5.42a57.32,57.32,0,0,0-6.66-5.57,52.93,52.93,0,0,0-9.66-5.43,34.24,34.24,0,0,0-9.48-2.92c-5.49-.71-9.39-.08-13.65.42-2.13.26-7.7.56-18.83,1.21-4.71.27-11.28.6-20.14,1.5-6.77.68-10.51,1.25-13.61,4.16C1439.56,201.93,1435.39,205.94,1436.58,209.19Z"/><path class="cls-46" d="M1401.42,210.4c-1.45,4-10,4-11.06,3.95-3.46,0-4.12-.79-11.77-2.61-.88-.22-1-.24-12.61-2.54l-11.3-2.25c-10.09-1.79-15.16-2.84-21.5-2.11a62.32,62.32,0,0,0-12.88,2.88c-4.88,1.65-8.78,3-12.53,6.16-6,5.06-7.13,11.09-8.21,10.72s-.77-5.23,1.56-9.27c1-1.64,2.28-2.91,5-5.44a57.46,57.46,0,0,1,6.63-5.6,52.27,52.27,0,0,1,9.63-5.47,34.49,34.49,0,0,1,9.47-3c5.48-.73,9.39-.12,13.65.37,2.12.24,7.7.52,18.84,1.12,4.7.25,11.27.55,20.14,1.41,6.77.65,10.51,1.2,13.63,4.1C1398.4,203.16,1402.6,207.14,1401.42,210.4Z"/><path class="cls-57" d="M1481.6,108.32c-.23,2.81-18.1,1.48-46,6.19-27.74,4.67-43.92,7.74-60.53,18.56-12.83,8.36-12.46,13-38.15,32.18-18.17,13.59-20.46,12.87-21,12.37s-1.23-2.71,17.1-30.94c15-23.13,18.62-26.7,22.37-29.7,9.22-7.37,18-10.14,28.94-13.61,26.88-8.5,50.06-5.55,64.47-3.71C1462.5,101.41,1481.83,105.38,1481.6,108.32Z"/><path class="cls-53" d="M1214.91,604.56c2.14.39.52,11.54,0,33.41-.81,33.67,1.85,56-3,56.93-3,.59-4.69-7.9-15.79-13.61-6.8-3.5-9.67-2.25-11.84-4.95-4.29-5.32,5-16.38,13.55-32.18C1210.68,620.47,1212.27,604.08,1214.91,604.56Z"/><path class="cls-53" d="M1588.17,604.56c3.09-.7,9.91,12.84,13.16,24.75,2.55,9.36,2.16,15.08,2.63,24.75a143.65,143.65,0,0,0,1.79,17.58c3,17.6,4.92,20.23,4.79,29.45s-2.72,8.5-5.27,22.27c-1.22,6.63-1.38,10.88-1.31,40.84,0,22.65.14,22,0,23.51-1.91,19.64-10,41.38-14.48,40.84-7.93-1-4.62-72.81-2.63-90.34.12-1,1-8.85,2.23-19.84.93-8.62,1.44-13.66,1.72-16C1597,649.65,1582.72,605.79,1588.17,604.56Z"/><rect class="cls-58" x="-33.5" y="783.5" width="1960" height="260"/><path class="cls-59" d="M1558.57,766.32c-1.29,2,0,3.13-.42,9.46-.4,6.55-2,9.18-.84,9.86,1.7,1,5-4.83,13.39-7.88,3.63-1.33,6.61-1.54,12.55-2,7.57-.55,9.69.4,10.46.79a12.66,12.66,0,0,1,5.86,6.71c1.85,4.78.09,9.15-2.09,14.59a41.9,41.9,0,0,1-19.67,21.69,32.31,32.31,0,0,1-12.13,4c-5.54.54-7.77-.92-10,.79-2.76,2.07-3.38,7.17-1.26,10.25,3.56,5.15,13.75,3.18,15.9,2.76,5.54-1.07,9.12-3.49,13.81-6.7a68,68,0,0,0,14.64-13.81c3.15-4,6.43-8.1,8.79-14.2,1.74-4.51,7.31-18.91-.84-30-4.41-6-10.88-8.35-13-9.07-4.44-1.56-9.38-1.3-19.24-.79C1561.16,763.45,1559.35,765.12,1558.57,766.32Z"/><path class="cls-60" d="M1556.06,825.32c-2.35,2.17-2.38,6.66-.42,9.23,2.67,3.52,8.56,2.83,13.16,2.29,4.34-.5,8.59-1,11.11-4.26,3.47-4.51,1.91-12.06-1-13-1.91-.63-2.9,2.06-7.47,3.84C1564.18,826.23,1559.27,822.35,1556.06,825.32Z"/><path class="cls-61" d="M1558.15,766.71c-1.15,1.62-.26,2.28-.84,9.86-.39,5.12-.92,6.48,0,7.1,1.43,1,3.73-1.58,11.3-4.73,4.23-1.76,6.34-2.65,9.2-3.16,4-.7,5.64-.2,6.7-1.57,1.38-1.8.69-5.5,0-7.49h0c-.14-1-.35-2.52-.42-2.76-.64-2.3-12.55-.79-12.55-.79C1563.57,764.17,1559.56,764.72,1558.15,766.71Z"/><path class="cls-62" d="M1561.5,745c-.7-1.28-2.42-4.14-17.16-7.89a193.63,193.63,0,0,0-25.1-5.13,173.11,173.11,0,0,0-28.45-2c-7.08.14-12.56.73-16.74,1.18l-1.74.21c-6.79.88-15.21,2.21-20,3.34-10.37,2.45-18.2,4.3-22.18,10.26-1.35,2-1.51,3.41-1.67,20.9-.08,9-.12,13.55-.1,18.79.06,9.58.28,18.45.39,22.75.13,5.17.17,4,.19,6.7.18,20.8,0,33.34,0,33.34,0,2.78-.09,5.42,1.21,8.53,2.61,6.25,8.49,9.23,14.55,12.2a75.08,75.08,0,0,0,19.81,6.1c5.07.89,10.39,1.14,21,1.62,9.32.43,14,.64,19.4.41a135.92,135.92,0,0,0,20.61-2.44c5.94-1.19,9.89-2.55,17.79-5.29,4.21-1.45,7.57-2.77,10.1-6.09a15.25,15.25,0,0,0,2.83-6.51c2.09-10.76,1-25,.72-29.06-.25-3.86.27-12.13,1.3-28.66.39-6.28,1-13.81,2-23.17h0c.61-5.21,1.38-12.85,2-23A10.44,10.44,0,0,0,1561.5,745Z"/><path class="cls-63" d="M1456.65,737.52c9.37-1.61,14-2.42,20.15-2.76a151.6,151.6,0,0,1,19.71.4c2.81.17,9.49.9,22.72,2.36,2.54.28,8.9,1,17.15,2.37,12,1.93,16.14,3.19,17.57,6.31a6.88,6.88,0,0,1,0,5.13c-1.82,5.42-8.89,7.7-15.86,9.86a72,72,0,0,1-20.14,3.15,153.61,153.61,0,0,1-27,1.58,173.33,173.33,0,0,1-29.15-3.55c-9.8-1.87-7.4-2.2-13.71-3.15-4-.61-7.24-.82-10.29-3.16-1-.78-3.08-2.36-3.43-4.73-.63-4.28,4.77-8,6.43-9.07C1443.82,740.2,1446.81,739.22,1456.65,737.52Z"/><path class="cls-64" d="M1455.29,760c4.18.82,5.21,1.25,6.35.58.57-.34,2.19-1.53,2-12-.09-5.38-.15-8.08-1.27-9.15-3.08-2.93-9.6-.56-17.94,2.23-3.28,1.09-6.22,2.45-7.34,5a9.43,9.43,0,0,0-.65,3.88,9.82,9.82,0,0,0,.84,3.16C1438.44,756,1441.56,757.25,1455.29,760Z"/><path class="cls-65" d="M1527.09,773.46c-2.39,3.53-2.43,10.27-2.43,10.88,0,.29,0,1.73-.11,3.71-.09,1.43-.19,1.76-.25,6.37-.15,10.58.2,20.16.36,31,.35,24.68.53,37,0,38.87s-1.72,5.54,0,7.2,6.24-.14,15.41-3.6c6.15-2.32,7.94-3.37,9.68-5a18.93,18.93,0,0,0,4.66-7.2,39.76,39.76,0,0,0,2.19-14.79c-.52-7.65-.4-18.18.68-33.44.11-5.11.42-13.16,1.44-23,1.84-17.86,4.53-27.51,1.29-28.92-3.39-1.48-7.07,8.8-20.65,13.08C1533.52,770.34,1529.34,770.14,1527.09,773.46Z"/><path class="cls-66" d="M1518.94,767.36c-15.65,3-27.68,2.12-37.73,1.35a144.65,144.65,0,0,1-26.12-4.49c-11.06-3-14.86-5.41-16.16-6.29a36.88,36.88,0,0,1-3.79-2.92,35.68,35.68,0,0,0,5.46,2.47,135.75,135.75,0,0,0,26.18,5.66c24.24,2.11,36.44,3.16,40.34,3.05,3.43-.1,11.87-1.24,28.75-3.49l4.3-.58C1534.61,764.3,1528.19,765.55,1518.94,767.36Z"/></svg>