<svg id="Layer_1" data-name="Layer 1" xmlns="http://www.w3.org/2000/svg" xmlns:xlink="http://www.w3.org/1999/xlink" viewBox="0 0 395.24 215.26"><defs><style>.cls-1,.cls-6{fill:none;}.cls-2{clip-path:url(#clip-path);}.cls-3{fill:#fef7dd;}.cls-3,.cls-4,.cls-5,.cls-6{stroke:#000;stroke-miterlimit:10;stroke-width:2px;}.cls-4{fill:#85b0a6;}.cls-5,.cls-7{fill:#181812;}</style><clipPath id="clip-path"><rect class="cls-1" x="0.53" y="17.68" width="386" height="184" transform="translate(-7.43 14.28) rotate(-4.15)"/></clipPath></defs><g class="cls-2"><path class="cls-3" d="M9.42,31.7,20.27,181.3,376.72,157l-1.79-46.33L338.55,97.59l-37-43L236.64,60.1l-4-44.59Z"/><path class="cls-4" d="M302.77,60c-3.33,1.89.36,14.47,3.1,21,2.56,6.14,5.3,12.73,12.21,16.44s17,3.92,18.91.2c1.61-3.11-3-8.37-12.38-18.78C314.17,67.3,306,58.2,302.77,60Z"/><path class="cls-4" d="M257.68,68l3.17,32.84,41.51-3q-7.44-15.6-14.86-31.2Z"/><path class="cls-5" d="M107.57,207.25c14.92-1.08,26.28-12.13,25.37-24.68s-13.74-21.84-28.66-20.75S78,174,78.91,186.49,92.65,208.33,107.57,207.25Z"/><path class="cls-3" d="M106.1,195.15c7.46-.54,13.14-6.06,12.68-12.34s-6.87-10.92-14.33-10.38-13.14,6.07-12.68,12.34S98.64,195.69,106.1,195.15Z"/><path class="cls-6" d="M237.05,60.07,246,166.31"/><path class="cls-6" d="M305.66,157.13c0-4,.76-9.47,4.57-13.51,4.63-4.91,10.09-3.67,12.56-8.54,1.08-2.14.58-3.48-.26-13.16-.41-4.69-.66-8.53-.8-11"/><path class="cls-3" d="M40.48,176.88A8.51,8.51,0,0,1,32.64,186L15,187.22a8.47,8.47,0,1,1-1.22-16.9l17.59-1.27A8.5,8.5,0,0,1,40.48,176.88Z"/><path class="cls-3" d="M389.41,154.88a8.5,8.5,0,0,1-7.84,9.06L364,165.21a8.47,8.47,0,1,1-1.22-16.89L380.35,147A8.49,8.49,0,0,1,389.41,154.88Z"/><path class="cls-5" d="M341.31,189.91c14.92-1.08,26.28-12.13,25.37-24.67S352.94,143.4,338,144.48s-26.29,12.13-25.38,24.67S326.39,191,341.31,189.91Z"/><path class="cls-3" d="M340.49,178.55c7.46-.54,13.14-6.06,12.68-12.33s-6.87-10.92-14.33-10.38-13.14,6.06-12.69,12.33S333,179.09,340.49,178.55Z"/><path class="cls-7" d="M70.48,102.44a9.45,9.45,0,0,1-2.55,6.48,9.78,9.78,0,0,1-6.52,2.67,9,9,0,0,1-7.49-2.71c-2-2-3.08-4.86-3.35-8.49l-.17-2.45a14.57,14.57,0,0,1,.8-6.35,9.55,9.55,0,0,1,3.32-4.4,10,10,0,0,1,5.29-1.85,9.28,9.28,0,0,1,6.69,1.81,9.5,9.5,0,0,1,3.31,6.07l-3.38.24a7.38,7.38,0,0,0-2.23-4.28A5.81,5.81,0,0,0,60,88.11a6.07,6.07,0,0,0-4.89,2.76,10.93,10.93,0,0,0-1.33,6.91l.18,2.47a11.25,11.25,0,0,0,2.21,6.49,5.63,5.63,0,0,0,5,2.1,6.49,6.49,0,0,0,4.21-1.57,7.16,7.16,0,0,0,1.68-4.58Zm24.82,6.34-3.39.25-.85-11.8-12.87.93L79,110l-3.36.25L73.83,84.68l3.36-.24.8,11,12.87-.93-.8-11,3.38-.24Zm19.9-8.14-10.69.78-1.92,6.84-3.47.25L107,82.27l2.95-.21,11.62,24.82-3.46.25Zm-9.88-2.07L114,98l-5.21-11.63Zm39.31,6.64-3.38.24L127,86.71l1.43,19.67-3.39.25L123.16,81.1l3.39-.24,14.31,18.82-1.43-19.76,3.35-.24Zm24.58-5.15a7.79,7.79,0,0,1-3.42,3,14.75,14.75,0,0,1-5.34,1.3,10.58,10.58,0,0,1-5.64-1,9.94,9.94,0,0,1-4.06-3.9A14.54,14.54,0,0,1,149,93.3l-.16-2.23q-.42-5.77,2-9.14a9.47,9.47,0,0,1,7.35-3.72,9.71,9.71,0,0,1,6.58,1.59,8.89,8.89,0,0,1,3.4,5.57l-3.37.24c-.87-3.33-3-4.88-6.4-4.63a6,6,0,0,0-5,2.76q-1.56,2.49-1.26,7l.16,2.08a10.84,10.84,0,0,0,2.46,6.7,6.38,6.38,0,0,0,5.49,2.14,11.6,11.6,0,0,0,3.28-.66,5.13,5.13,0,0,0,2.25-1.59l-.42-5.74-5.9.43-.2-2.73,9.25-.67Zm19.45-9.91-11.07.8.66,9,12.85-.93.2,2.75L175.08,103l-1.85-25.53,16-1.16.21,2.77L176.8,80l.59,8.2,11.07-.8Z"/></g></svg>