<svg id="Layer_1" data-name="Layer 1" xmlns="http://www.w3.org/2000/svg" viewBox="0 0 1920 637"><defs><style>.cls-1{fill:#fff8dc;}.cls-2{fill:#573a12;}</style></defs><ellipse class="cls-1" cx="1392.87" cy="535.82" rx="63.22" ry="61.67"/><ellipse class="cls-1" cx="1455.23" cy="555.2" rx="63.22" ry="61.67"/><ellipse class="cls-1" cx="1427.51" cy="493.53" rx="63.22" ry="61.67"/><ellipse class="cls-1" cx="1463.89" cy="493.53" rx="63.22" ry="61.67"/><ellipse class="cls-1" cx="1356.5" cy="184.29" rx="206.99" ry="214.09"/><ellipse class="cls-1" cx="1004.87" cy="127.9" rx="206.99" ry="214.09"/><ellipse class="cls-1" cx="739.86" cy="150.81" rx="206.99" ry="214.09"/><ellipse class="cls-1" cx="635.93" cy="8.09" rx="206.99" ry="214.09"/><ellipse class="cls-1" cx="1256.03" cy="41.57" rx="206.99" ry="214.09"/><ellipse class="cls-1" cx="1552.23" cy="39.8" rx="206.99" ry="214.09"/><ellipse class="cls-1" cx="1743.63" cy="129.67" rx="230.37" ry="235.23"/><ellipse class="cls-1" cx="169.99" cy="87.38" rx="206.99" ry="214.09"/><ellipse class="cls-1" cx="493.9" cy="41.57" rx="206.99" ry="214.09"/><ellipse class="cls-1" cx="377.84" cy="184.29" rx="206.99" ry="214.09"/><path class="cls-2" d="M747.6,84.11h-4.5V50h4.5Zm23.55-25.36.12,2.81a9.36,9.36,0,0,1,7.52-3.28c3.55,0,6,1.36,7.25,4.08a9.55,9.55,0,0,1,3.28-3,9.79,9.79,0,0,1,4.8-1.12q8.34,0,8.49,8.84v17h-4.34V67.37A5.76,5.76,0,0,0,797,63.32c-.83-.91-2.22-1.36-4.17-1.36a5.71,5.71,0,0,0-4,1.45A5.81,5.81,0,0,0,787,67.28V84.11h-4.36V67.49q0-5.53-5.42-5.53a5.79,5.79,0,0,0-5.83,3.63V84.11h-4.34V58.75Zm48.54,25.83a11.1,11.1,0,0,1-8.39-3.38,12.59,12.59,0,0,1-3.23-9.07v-.8a15.14,15.14,0,0,1,1.43-6.72,11.15,11.15,0,0,1,4-4.64,10.09,10.09,0,0,1,5.62-1.69,9.51,9.51,0,0,1,7.69,3.26q2.74,3.26,2.74,9.33v1.8H812.4a9.09,9.09,0,0,0,2.18,6.07,7,7,0,0,0,5.35,2.3,7.62,7.62,0,0,0,3.89-.94,9.93,9.93,0,0,0,2.79-2.48l2.64,2.06Q826.07,84.57,819.69,84.58Zm-.54-22.74a5.75,5.75,0,0,0-4.4,1.92,9.23,9.23,0,0,0-2.21,5.35h12.71v-.33a8.19,8.19,0,0,0-1.79-5.11A5.42,5.42,0,0,0,819.15,61.84Zm31.13,22.27a8.9,8.9,0,0,1-.61-2.67,9.69,9.69,0,0,1-7.22,3.14,9,9,0,0,1-6.16-2.11,6.91,6.91,0,0,1-2.4-5.39,7.14,7.14,0,0,1,3-6.14q3-2.2,8.49-2.21h4.22v-2a4.85,4.85,0,0,0-1.36-3.61,5.42,5.42,0,0,0-4-1.36,6.33,6.33,0,0,0-3.89,1.17,3.45,3.45,0,0,0-1.57,2.84h-4.36a6,6,0,0,1,1.34-3.66,9.29,9.29,0,0,1,3.65-2.81,12.35,12.35,0,0,1,5.09-1,10,10,0,0,1,6.87,2.2,7.89,7.89,0,0,1,2.57,6V78.18a14.29,14.29,0,0,0,.89,5.55v.38Zm-7.2-3.31a7.66,7.66,0,0,0,3.87-1A6.45,6.45,0,0,0,849.6,77V71.8h-3.4q-8,0-8,4.67a3.91,3.91,0,0,0,1.36,3.18A5.21,5.21,0,0,0,843.08,80.8Zm21.75-22,.14,3.19a9.25,9.25,0,0,1,7.6-3.66q8,0,8.11,9.07V84.11h-4.34V67.33a5.83,5.83,0,0,0-1.27-4.06A5,5,0,0,0,871.25,62a6.25,6.25,0,0,0-3.7,1.12,7.63,7.63,0,0,0-2.48,3V84.11h-4.34V58.75ZM887.07,90.9l-2.46-1.68a11.31,11.31,0,0,0,2.3-6.33V79h4.24v3.4A10.63,10.63,0,0,1,890,87.11,10.85,10.85,0,0,1,887.07,90.9ZM931,78.13l4.87-19.38h4.34l-7.39,25.36h-3.51l-6.17-19.22-6,19.22h-3.51l-7.36-25.36h4.31l5,19,5.91-19H925Zm18-16.31a9.21,9.21,0,0,1,7.5-3.54q8,0,8.11,9.07V84.11h-4.33V67.33A5.83,5.83,0,0,0,959,63.27,5,5,0,0,0,955.16,62a6.23,6.23,0,0,0-3.7,1.12A7.65,7.65,0,0,0,949,66V84.11h-4.33v-36H949Zm30.4,15.94,5.91-19h4.64L979.72,88q-2.37,6.33-7.52,6.33l-.82-.07L969.76,94V90.46l1.17.09a5.71,5.71,0,0,0,3.43-.89,6.42,6.42,0,0,0,2-3.26l1-2.57-9.05-25.08H973Zm48.8.37L1033,58.75h4.34L1030,84.11h-3.52l-6.16-19.22-6,19.22h-3.52l-7.36-25.36h4.31l5,19,5.9-19h3.49Zm12.49-6.94a15,15,0,0,1,1.45-6.7,10.79,10.79,0,0,1,10.06-6.21,10.65,10.65,0,0,1,8.37,3.59q3.21,3.59,3.21,9.53v.31a15.14,15.14,0,0,1-1.43,6.66,10.73,10.73,0,0,1-4.06,4.57,11.19,11.19,0,0,1-6,1.64,10.7,10.7,0,0,1-8.36-3.59q-3.19-3.58-3.19-9.49Zm4.36.52a10.93,10.93,0,0,0,1.94,6.77,6.3,6.3,0,0,0,5.25,2.56,6.22,6.22,0,0,0,5.25-2.58,11.92,11.92,0,0,0,2-7.27,10.73,10.73,0,0,0-2-6.75,6.56,6.56,0,0,0-10.43,0Q1045,66.95,1045,71.71Zm39.82,9.89c-1.69,2-4.16,3-7.43,3a8,8,0,0,1-6.19-2.35c-1.4-1.58-2.11-3.9-2.13-7V58.75h4.34V75.13c0,3.84,1.56,5.77,4.68,5.77q5,0,6.61-3.71V58.75h4.34V84.11h-4.13Zm15.54,2.51H1096v-36h4.34Zm5.91-12.89q0-5.84,2.76-9.38a9.4,9.4,0,0,1,14.3-.51V48.11h4.33v36h-4l-.21-2.72a8.85,8.85,0,0,1-7.24,3.19,8.72,8.72,0,0,1-7.2-3.61,15.11,15.11,0,0,1-2.76-9.43Zm4.33.49a11.25,11.25,0,0,0,1.78,6.75,5.78,5.78,0,0,0,4.92,2.44,6.34,6.34,0,0,0,6-3.71V65.54a6.38,6.38,0,0,0-6-3.58,5.8,5.8,0,0,0-5,2.46Q1110.62,66.88,1110.62,71.71Zm41.23,12.4h-4.5V50h4.5Zm12.65-9.61a14.32,14.32,0,0,1,.64-4.41,11.11,11.11,0,0,1,2.39-3.58l3.07-3.17a7.11,7.11,0,0,0,2-4.78,5.4,5.4,0,0,0-1.29-3.84,4.83,4.83,0,0,0-3.75-1.41,5.62,5.62,0,0,0-3.85,1.27,4.25,4.25,0,0,0-1.45,3.39h-4.34a7.87,7.87,0,0,1,2.7-6.11,10.1,10.1,0,0,1,6.94-2.35,9.49,9.49,0,0,1,6.89,2.39,8.6,8.6,0,0,1,2.48,6.52q0,4.09-3.79,8.09L1170.55,69a7.87,7.87,0,0,0-1.71,5.46Zm-.18,7.43a2.53,2.53,0,0,1,.63-1.76,2.6,2.6,0,0,1,3.84,3.52,2.55,2.55,0,0,1-4.47-1.76Z"/></svg>