<svg id="Layer_2" data-name="Layer 2" xmlns="http://www.w3.org/2000/svg" viewBox="0 0 3265 2100"><defs><style>.cls-1{fill:#666;}.cls-2{fill:#4d4d4d;}.cls-3{fill:gray;}</style></defs><path class="cls-1" d="M576.47,1066.24c-4.15,5.59-3.66,11.53-6.9,30-3.51,20-6.61,27.43-10.35,42.86-8.53,35.22-6.09,52.92-12.07,96.45-5.56,40.41-9.7,39.89-17.25,83.59-2.32,13.4-6.95,42.51-10.35,102.87-5.21,92.53-2.36,166.8-1.73,182.18.32,7.62,0-.62,12,142.33,4.05,48.48,5.7,68.71,7,84.85,7,86.15,6.42,82.89,8.62,109.31,10.16,121.78,15,157.4,38,177.89,11.8,10.54,26.26,12,55.19,15,43.49,4.47,100.35,10.33,125.92-27.86,9.55-14.28,6.56-22.5,8.62-128.6,1.3-66.91,2.84-81.87,3.36-105.2.34-15.2.09-23.31.09-32,0-31.91,2.53-35.68,4.87-81.45,2.1-41,.56-47.54,4.41-70.85,1.46-8.83,2.68-14.73,4.52-27.74,2.48-17.58,1.22-33.69,3.45-49.29,2.75-19.23,11-39.14,15.52-38.58,2.78.35,3.61,8.5,5.18,23.58,6,58,10.14,98.11,10.34,115.73.48,40.51.83-13.82,5.18,139.31,3.22,113.28,7,100.21,3.45,145.74-6.07,77.13-23,95.91-5.94,119.24,22.9,31.33,76.64,29.24,111.87,27.87,12.07-.47,75.36-2.94,85.53-31.37,1.67-4.69-.72-4.25.79-20.2,1.73-18.28,6.38-33.26,14.73-87,3.94-25.37,8.38-64.78,17.25-143.6,12-106.47,10.07-102.07,15.52-137.17,7.3-47,11.28-58.5,13.8-94.3,2.57-36.54,1.32-65.67,0-96.45-1.88-43.81-4.6-52.8-6.9-102.87-.63-13.77-.87-22.76-1-29.76-.15-11.61,2.56-16-.13-22.71-3.21-8-9.83-12-12.45-14-13.6-10.18-12.33-34.76-11-72.88,0,0,2.91-85-1.36-120-3.66-30-6.45-30.2-8.63-55.72-2.36-27.76-.63-40.92-8.62-49.3-5.93-6.21-13-5.39-31-4.28-16.66,1-33.45-.26-50,2.14-8.34,1.21-41.78,1.52-108.66,2.14-63.27.59-94.9.89-120.74,0-35.06-1.2-71.06,7.75-105.22-2.14C609.41,1060.65,586.51,1052.72,576.47,1066.24Z"/><path class="cls-1" d="M829.09,754.48h0c-54,0-98.15-55.39-98.15-175.71V462.24c0-120.32,44.17-218.77,98.15-218.77h0c54,0,98.14,98.45,98.14,218.77V578.77C927.23,699.09,883.07,754.48,829.09,754.48Z"/><path class="cls-1" d="M509.5,1130.38c12.91-7,25.83-6.7,39.39-6.4q.21-24.46,1.29-48.79c1.19-26.81,3.19-54,6-80.66L563,960.65a.88.88,0,0,0,0-.17,637.32,637.32,0,0,0,4.29-73.69,637.36,637.36,0,0,0-4.29-73.7,2.09,2.09,0,0,0-1.39-1.75L452.72,775.57a1.81,1.81,0,0,0-.61-.1,1.94,1.94,0,0,0-1.21.42,2.12,2.12,0,0,0-.8,1.73l2.13,92.17-4.27,64-4.27,111.1a2,2,0,0,0,0,.35l6.42,51c12.22,9.86,26.25,18.17,39.53,25.75C495.17,1125.14,501.78,1133.53,509.5,1130.38Z"/><path class="cls-1" d="M443.7,1045.11a1.28,1.28,0,0,1,0-.19L448,933.84l4.27-64.07-2.13-92.18a1.09,1.09,0,0,1,.4-.89.81.81,0,0,1,.51-.18.73.73,0,0,1,.25,0l108.86,35.78a1,1,0,0,1,.66.87,639.74,639.74,0,0,1,4.27,73.58,638.27,638.27,0,0,1-4.29,73.67l-6.82,34c-2.77,26.75-4.78,53.91-6,80.72q-1.08,24.31-1.29,48.81l2.2,0q.21-24.45,1.29-48.77c1.19-26.78,3.19-53.9,5.94-80.51l6.81-33.87c0-.08,0-.17,0-.26a641.32,641.32,0,0,0,4.29-73.8A641.37,641.37,0,0,0,563,813a3.15,3.15,0,0,0-2.13-2.63L452,774.57a3.13,3.13,0,0,0-4.09,3.07L450,869.72l-4.26,64-4.27,111.1a3,3,0,0,0,0,.52l6.28,49.87c.82.68,1.64,1.34,2.47,2Z"/><path class="cls-1" d="M1191.27,953.33l-4.46-63.93,2.23-92.17a2.1,2.1,0,0,0-.84-1.73,2.17,2.17,0,0,0-1.27-.42,2,2,0,0,0-.64.1L1072.43,831a2.1,2.1,0,0,0-1.46,1.75,608.29,608.29,0,0,0,0,147.38,1.7,1.7,0,0,0,0,.22l8.77,37.79c2.13,25.4,3.67,51.2,4.57,76.68,1.5,42.48,1.28,85.44-.63,128.13,24.78,11.87,46.81,30.25,76,37,1.63,0,3,1.11,4.48,2.33l.25-3.46,17.86-92.28,13.39-101.68a2.17,2.17,0,0,0,0-.36Z"/><path class="cls-1" d="M1192.32,953.26l-4.45-63.83,2.23-92.17a3.13,3.13,0,0,0-1.27-2.59,3.2,3.2,0,0,0-2.85-.49L1072.11,830a3.16,3.16,0,0,0-2.19,2.62,609.08,609.08,0,0,0,0,147.64,1.91,1.91,0,0,0,.06.33l8.76,37.71c2.12,25.36,3.65,51.12,4.55,76.56,1.5,42.3,1.29,85.08-.61,127.59l2.07,1c1.94-42.86,2.16-86,.65-128.66-.9-25.49-2.44-51.31-4.57-76.73l-8.8-37.94s0-.07,0-.1a607.67,607.67,0,0,1,0-147.14,1.06,1.06,0,0,1,.73-.87l113.87-35.78a1.07,1.07,0,0,1,1,.16,1,1,0,0,1,.42.87l-2.22,92.27,4.45,63.89,4.47,111.17a1,1,0,0,1,0,.17l-13.39,101.63c-.09.48-17.68,91.35-17.86,92.27l-.2,2.87c.64.49,1.29,1,2,1.59l.29-4.13c17.85-92.18,17.86-92.22,17.86-92.27l13.4-101.69a3.09,3.09,0,0,0,0-.53Z"/><path class="cls-1" d="M723,573.32a60.94,60.94,0,0,1,6.93,7.3c7.29,10,6,19.47,22.4,34.74,17.65,16.48,37.12,22.33,48.88,25.87,16.29,4.89,41.17,12.37,68.43,3.23,16.54-5.55,26.65-14.76,42.36-29.1a76.28,76.28,0,0,0,9.1-9.53,79.33,79.33,0,0,0,15.62-33.93,235.94,235.94,0,0,1,66.48-2.1c32.35,3.63,25.06,8.33,88,26.16,23.51,6.65,43.22,11.36,61.92,29.1a64.17,64.17,0,0,1,8.87,10.22c18.37,26.6,22.15,54.9,23.71,67.39,9.54,76.21,52.21,103.94,33.24,135.11-2.61,4.28-9.65,9.18-23.73,19-18.73,13-49.43,31.77-99.66,52.18-29.14,11.84-34.26,11.81-40.19,20.09a29,29,0,0,0-4.39,8.62c-4.88,16.22,1.13,65.75,1.13,65.75,3.53,27.3-2.78,23.39-.84,73.14.77,19.89,2.34,34.82,3.31,43.89,5.07,47.59,11.69,64.19,10.57,99.62-.38,12-1.58,24.16-1.58,24.16-2.69,24.61-7.85,38.48-11.46,89-2.24,31.36-.62,31.24-3.26,38.8-15,43-71.84,60-110.79,71.14-87.7,25-161.8,15.36-202,9.7-60.53-8.51-93.33-23.07-143.38-45.27-31.28-13.87-45.23-23-52.14-38.8-11.34-25.87,9.1-40.23,13-93.78,3-40.63-7.83-45.37-3.26-90.54,2.61-25.8,6.29-25.81,13-61.44,9.95-52.58,9.92-94.83,9.78-119.64-.38-67,2-78.17-6.52-90.54-5.65-8.18-9.93-10.21-52.14-35.57-62-37.28-68.06-42.06-71.68-51.74-2-5.43-3.07-11.72,19.55-77.6,10.77-31.39,19-53.29,29.32-77.61,16.71-39.39,23.64-49.24,27.73-53.44,0,0,.68-.67,1.6-1.53C560.82,578.13,701.65,554.3,723,573.32Z"/><path class="cls-1" d="M1083.72,1222.91q-.73,16.24-1.78,32.43l-15.3,58.84-28.85,44.91a2.14,2.14,0,0,0-.21.43l-13.4,37.66a2.12,2.12,0,0,0-.1,1,272.41,272.41,0,0,1-4.43,95.31,2.11,2.11,0,0,0,.57,2,2.14,2.14,0,0,0,1.49.6,2,2,0,0,0,.48,0l.36-.09-17.47,9.38a2.14,2.14,0,0,0-.84.82c-.52.92-5,9.31-.8,18.39a21,21,0,0,0,13.26,11,2.5,2.5,0,0,0,.54.07,2,2,0,0,0,.73-.13l98.24-35.78a2.07,2.07,0,0,0,.79-.51l20.1-20.71a2.11,2.11,0,0,0,.5-.87l15.63-52.72a2.54,2.54,0,0,0,.09-.54l2.23-79,4.93-30.4a1.23,1.23,0,0,0,0-.19l3.72-52.49c-1.5-1.22-2.85-2.33-4.48-2.33C1130.53,1253.16,1108.5,1234.78,1083.72,1222.91Zm-30.47,256.48-13.63,7.32a38.91,38.91,0,0,0,9.51-14l.06-.17,9.18-30.91Z"/><path class="cls-1" d="M1159.44,1314.78l-4.94,30.4-2.24,79.09a.84.84,0,0,1,0,.27l-15.63,52.73a1.16,1.16,0,0,1-.25.43l-20.1,20.71a1,1,0,0,1-.39.26l-98.24,35.77a1,1,0,0,1-.64,0,19.9,19.9,0,0,1-12.58-10.45c-4-8.61.27-16.56.77-17.44a1.1,1.1,0,0,1,.42-.41l24.57-13.18-8.2,2a1.08,1.08,0,0,1-1-.28,1.06,1.06,0,0,1-.28-1,274,274,0,0,0,4.45-95.68,1,1,0,0,1,0-.48l13.39-37.66a1.51,1.51,0,0,1,.11-.22l28.85-44.91.09-.14,15.34-59,0-.19q1-16,1.76-32l-2.07-1q-.72,16.41-1.79,32.76l-15.23,58.58-28.76,44.77a3,3,0,0,0-.31.65l-13.4,37.66a3.12,3.12,0,0,0-.16,1.45,271.57,271.57,0,0,1-4.41,95,3.11,3.11,0,0,0,.86,2.92l.12.11-15,8.07a3.15,3.15,0,0,0-1.26,1.22c-.55,1-5.28,9.79-.84,19.35,4,8.59,12.32,11.17,14,11.6a3.09,3.09,0,0,0,.8.11,3.38,3.38,0,0,0,1.09-.19l98.24-35.78a3.26,3.26,0,0,0,1.19-.77l20.1-20.72a3.11,3.11,0,0,0,.75-1.29l15.63-52.73a3.11,3.11,0,0,0,.13-.8l2.23-78.88,4.92-30.33a1.33,1.33,0,0,0,0-.28l3.67-51.77c-.7-.54-1.35-1.1-2-1.59Z"/><path class="cls-1" d="M1048.18,1472.22l0,.09a38.29,38.29,0,0,1-9.25,13.64l-5.88,5.5,21.21-11.39,5.19-38.3-2.06-.44Zm4.1,6.51-7.77,4.16a40.88,40.88,0,0,0,5.6-9.82,1.14,1.14,0,0,0,.09-.26l5.29-17.8Z"/><path class="cls-1" d="M634.44,1495.33c-1-5.17-5.76-8.31-8.47-9.69l-16.68-9.37.36.09a2,2,0,0,0,.41,0,2,2,0,0,0,1.44-.62,2.17,2.17,0,0,0,.53-1.94,285,285,0,0,1-4.23-95.3,2.27,2.27,0,0,0-.1-1l-12.81-37.67a2,2,0,0,0-.2-.42l-27.57-44.9L552,1229.63c-2.39-35-3.44-70.41-3.14-105.65-13.56-.3-26.48-.62-39.39,6.4-7.72,3.15-14.33-5.24-19.84-8.39-13.28-7.58-27.31-15.89-39.53-25.75l6.38,50.68s17.08,92.3,17.08,92.3c1.73,18.42,2.26,34.39,1.6,47.48l0,.42a83.32,83.32,0,0,0,1.81,23.69,79.42,79.42,0,0,0,5.15,15.23l2.13,78.65a1.89,1.89,0,0,0,.08.53L499.27,1458a2.15,2.15,0,0,0,.48.86L519,1479.53a2.26,2.26,0,0,0,.76.51l93.92,35.78a2.06,2.06,0,0,0,.69.13,1.93,1.93,0,0,0,.42,0C628.68,1512.81,635.81,1502.82,634.44,1495.33Zm-54.53-35.55-4.65-35.92,8.18,29.88a1.83,1.83,0,0,0,.08.25,38.68,38.68,0,0,0,8.11,12.37Z"/><path class="cls-1" d="M634.42,1495.15c-1-5.61-6.1-9-9-10.42L611,1476.66l.19-.18a3.16,3.16,0,0,0,.79-2.85,284,284,0,0,1-4.22-95,3.1,3.1,0,0,0-.15-1.42l-12.8-37.66a3.32,3.32,0,0,0-.3-.63l-27.48-44.76-15-64.7c-2.38-35-3.43-70.31-3.13-105.49l-2.2,0c-.3,35.27.74,70.67,3.13,105.75l15.12,65.1,0,.16,27.66,45a1.12,1.12,0,0,1,.1.22l12.81,37.66a1.32,1.32,0,0,1,.05.52,285.65,285.65,0,0,0,4.25,95.64,1.13,1.13,0,0,1-.27,1,.8.8,0,0,1-.79.26l-7.57-1.75,23.12,13c2.58,1.31,7,4.22,7.91,9,1.29,7-5.55,16.42-18.85,19.37a.78.78,0,0,1-.45,0L519,1479.07a.81.81,0,0,1-.34-.24l-19.21-20.71a1,1,0,0,1-.25-.45L484.29,1405a.92.92,0,0,1,0-.29l-2.13-78.85-.09-.19a79,79,0,0,1-5.09-15,82.22,82.22,0,0,1-1.78-23.42l0-.42c.67-13.14.14-29.16-1.61-47.71-.16-.92-17-91.79-17.06-92.24l-6.25-49.57c-.83-.66-1.65-1.32-2.47-2l6.53,51.82s0,.07,17.07,92.26c1.72,18.37,2.26,34.3,1.59,47.34l0,.42a83.64,83.64,0,0,0,1.83,24,80.55,80.55,0,0,0,5.14,15.23l2.11,78.45a3.51,3.51,0,0,0,.12.78l14.94,52.72a3.36,3.36,0,0,0,.72,1.29L517,1480.22a3,3,0,0,0,1.17.79l93.92,35.78a2.94,2.94,0,0,0,1.1.2,3,3,0,0,0,.67-.07C628.45,1513.7,635.88,1503.11,634.42,1495.15Z"/><path class="cls-1" d="M577.78,1460.42,596.56,1471l-5.22-5.32a37.79,37.79,0,0,1-7.89-12,.65.65,0,0,1,0-.13l-8.19-29.89-2.16.4,4.65,35.92Zm3.49-6.4c0,.12.08.23.13.35a39.83,39.83,0,0,0,4.53,8.19l-6.09-3.42-2.56-19.69Z"/><path class="cls-1" d="M976.83,311.88c0,125.21-72,299-160.87,299s-160.87-173.79-160.87-299S727.11,144,816,144,976.83,186.68,976.83,311.88Z"/><rect class="cls-1" x="690.84" y="570.85" width="280.71" height="96.54"/><path class="cls-1" d="M668.68,375.68c18.11,1.78,41.06-43.87,44.32-83.94,3.37-41.35-13.22-89.2-31.65-90.24-16-.89-30.48,33.38-35.89,51.42C629.2,307.15,647.64,373.62,668.68,375.68Z"/><path class="cls-1" d="M658.11,213.24c-6.4-23.29,45.55-61.25,97-71.89,39.82-8.23,54.71,5,97-8.46,35.72-11.37,46.89-27.74,66.37-22.83,19.89,5,31.49,28,33.69,44,2.15,15.66-5.28,20.43-6.13,49.05-.58,19.55,2.79,20.72,0,26.22-12.23,24.17-86.62,20.22-127.63,17.76C735.77,242.11,664.87,237.86,658.11,213.24Z"/><path class="cls-1" d="M959.38,367.39c-18.11,1.77-41.06-43.87-44.32-83.95-3.37-41.35,13.22-89.2,31.66-90.24,15.94-.89,30.47,33.39,35.88,51.42C998.86,298.85,980.42,365.33,959.38,367.39Z"/><g id="Layer_1" data-name="Layer 1"><path class="cls-1" d="M1697.67,307.3c0,130-79.25,310.38-177,310.38s-177-180.4-177-310.38,79.24-174.3,177-174.3S1697.67,177.33,1697.67,307.3Z"/><path class="cls-1" d="M1257.15,1090.37c-4.56,5.8-4,12-7.59,31.15-3.85,20.71-7.27,28.48-11.39,44.49-9.38,36.56-6.69,54.93-13.28,100.12-6.12,41.95-10.67,41.4-19,86.77-2.55,13.91-7.65,44.13-11.39,106.79-5.73,96-2.59,173.14-1.89,189.11.34,7.91,0-.65,13.16,147.74,4.46,50.33,6.28,71.33,7.71,88.09,7.67,89.42,7.07,86,9.49,113.46,11.18,126.41,16.5,163.39,41.75,184.66,13,10.94,28.91,12.48,60.74,15.57,47.84,4.65,110.41,10.72,138.54-28.92,10.51-14.82,7.22-23.36,9.49-133.49,1.43-69.46,3.13-85,3.69-109.2.37-15.78.1-24.21.1-33.18,0-33.12,2.78-37,5.36-84.55,2.31-42.58.62-49.35,4.86-73.55,1.6-9.16,2.94-15.29,5-28.79,2.73-18.25,1.34-35,3.79-51.17,3-20,12.14-40.63,17.08-40,3.06.37,4,8.83,5.7,24.48,6.63,60.21,11.15,101.85,11.38,120.14.53,42,.91-14.35,5.7,144.61,3.54,117.59,7.73,104,3.79,151.29-6.67,80.06-25.3,99.56-6.54,123.77,25.2,32.52,84.33,30.35,123.1,28.93,13.28-.49,82.92-3,94.1-32.56,1.85-4.87-.79-4.42.87-21,1.91-19,7-34.53,16.21-90.27,4.34-26.33,9.22-67.24,19-149.07,13.18-110.51,11.09-106,17.08-142.38,8-48.79,12.41-60.73,15.18-97.9,2.84-37.93,1.46-68.16,0-100.11-2.07-45.48-5.06-54.81-7.59-106.79-.69-14.29-1-23.63-1.06-30.89-.16-12,2.82-16.6-.14-23.58-3.53-8.31-10.81-12.47-13.69-14.5-15-10.56-13.57-36.08-12.07-75.65,0,0,3.2-88.26-1.5-124.58-4-31.1-7.1-31.35-9.49-57.85-2.61-28.81-.7-42.48-9.49-51.17-6.53-6.45-14.34-5.6-34.16-4.45-18.34,1.07-36.81-.26-55,2.22-9.18,1.26-46,1.58-119.57,2.23-69.61.61-104.41.92-132.84,0-38.58-1.25-78.19,8.05-115.77-2.23C1293.4,1084.57,1268.2,1076.34,1257.15,1090.37Z"/><path class="cls-1" d="M1535.11,766.74h0c-59.39,0-108-57.49-108-182.39v-121c0-124.9,48.6-227.09,108-227.09h0c59.4,0,108,102.19,108,227.09v121C1643.1,709.25,1594.51,766.74,1535.11,766.74Z"/><path class="cls-1" d="M1183.47,1157c14.21-7.29,28.42-7,43.34-6.65q.24-25.4,1.42-50.65c1.31-27.83,3.51-56,6.56-83.73l7.49-35.16,0-.18a623.53,623.53,0,0,0,0-153,2.21,2.21,0,0,0-1.54-1.82L1121,788.63a2.18,2.18,0,0,0-.67-.1,2.23,2.23,0,0,0-1.33.44,2.15,2.15,0,0,0-.88,1.79l2.34,95.68-4.69,66.42-4.7,115.33a2.3,2.3,0,0,0,0,.37l7.06,52.94c13.45,10.24,28.89,18.87,43.49,26.74C1167.7,1151.51,1175,1160.22,1183.47,1157Z"/><path class="cls-1" d="M1111.07,1068.43a1.34,1.34,0,0,1,0-.2l4.69-115.3,4.7-66.51-2.35-95.68a1.14,1.14,0,0,1,.45-.93.9.9,0,0,1,.56-.19.8.8,0,0,1,.27,0l119.78,37.14a1.09,1.09,0,0,1,.73.91,622.4,622.4,0,0,1,0,152.85l-7.5,35.26c-3,27.76-5.26,55.95-6.57,83.79q-1.18,25.25-1.41,50.66l2.42,0q.24-25.38,1.42-50.62c1.3-27.8,3.51-56,6.54-83.57l7.48-35.16a2.56,2.56,0,0,0,0-.27,624.17,624.17,0,0,0,0-153.23,3.32,3.32,0,0,0-2.35-2.73L1120.18,787.6a3.63,3.63,0,0,0-3.17.52,3.25,3.25,0,0,0-1.33,2.66l2.35,95.59-4.7,66.45-4.69,115.33a3.25,3.25,0,0,0,0,.54l6.91,51.77c.9.7,1.81,1.39,2.72,2.07Z"/><path class="cls-1" d="M1933.62,973.16l-4.91-66.36,2.46-95.68a2.12,2.12,0,0,0-.93-1.79,2.41,2.41,0,0,0-1.39-.44,2.37,2.37,0,0,0-.7.1l-125.29,37.14a2.23,2.23,0,0,0-1.61,1.82,595.92,595.92,0,0,0,0,153,1.85,1.85,0,0,0,0,.23l9.66,39.22c2.34,26.37,4,53.15,5,79.6,1.66,44.1,1.42,88.69-.69,133,27.27,12.33,51.51,31.41,83.65,38.45,1.79,0,3.28,1.15,4.93,2.42l.27-3.6,19.65-95.78,14.74-105.56a2.23,2.23,0,0,0,0-.37Z"/><path class="cls-1" d="M1934.78,973.08l-4.91-66.25,2.46-95.68a3.23,3.23,0,0,0-1.39-2.69,3.72,3.72,0,0,0-3.14-.51l-125.29,37.14a3.34,3.34,0,0,0-2.41,2.72,596.82,596.82,0,0,0,0,153.26,1.72,1.72,0,0,0,.06.34l9.64,39.15c2.34,26.33,4,53.06,5,79.47,1.65,43.91,1.42,88.32-.67,132.45l2.28,1c2.13-44.49,2.38-89.28.71-133.56-1-26.46-2.68-53.26-5-79.65l-9.69-39.39s0-.07,0-.1a595.1,595.1,0,0,1,0-152.73,1.11,1.11,0,0,1,.81-.91L1928.5,810a1.24,1.24,0,0,1,1,.17,1.08,1.08,0,0,1,.47.89l-2.46,95.79,4.91,66.32,4.92,115.4a1.09,1.09,0,0,1,0,.18l-14.73,105.5c-.1.5-19.46,94.82-19.65,95.77l-.23,3c.71.52,1.43,1.1,2.2,1.66l.32-4.29c19.64-95.69,19.64-95.73,19.65-95.78l14.74-105.56a2.54,2.54,0,0,0,0-.55Z"/><path class="cls-1" d="M1418.4,578.69a63.78,63.78,0,0,1,7.61,7.57c8,10.43,6.66,20.21,24.66,36.07,19.42,17.1,40.84,23.18,53.78,26.85,17.92,5.08,45.3,12.85,75.29,3.36,18.2-5.76,29.32-15.33,46.61-30.21a79.71,79.71,0,0,0,27.2-45.11A274.5,274.5,0,0,1,1726.7,575c35.6,3.76,27.57,8.64,96.85,27.15,25.86,6.9,47.55,11.8,68.12,30.21a67.91,67.91,0,0,1,9.77,10.6c20.21,27.62,24.37,57,26.09,70,10.49,79.11,57.44,107.9,36.57,140.25-2.88,4.45-10.62,9.53-26.11,19.69-20.61,13.52-54.39,33-109.66,54.17-32.06,12.29-37.69,12.26-44.22,20.85a29.38,29.38,0,0,0-4.82,9c-5.38,16.83,1.24,68.24,1.24,68.25,3.88,28.34-3.07,24.27-.93,75.92.85,20.64,2.57,36.15,3.64,45.56,5.58,49.4,12.86,66.63,11.63,103.41-.42,12.46-1.74,25.07-1.74,25.07-3,25.55-8.63,40-12.6,92.41-2.47,32.56-.69,32.43-3.59,40.28-16.49,44.66-79,62.32-121.9,73.85-96.51,26-178,15.95-222.3,10.07-66.59-8.84-102.69-23.94-157.76-47-34.42-14.41-49.76-23.92-57.37-40.28-12.48-26.86,10-41.77,14.35-97.35,3.28-42.17-8.62-47.09-3.59-94,2.87-26.78,6.93-26.79,14.34-63.78,11-54.59,10.91-98.44,10.76-124.19-.42-69.56,2.24-81.15-7.17-94-6.23-8.5-10.93-10.6-57.37-36.92-68.27-38.7-74.89-43.67-78.88-53.71-2.24-5.64-3.37-12.17,21.51-80.56,11.86-32.58,20.92-55.32,32.27-80.56,18.39-40.89,26-51.11,30.51-55.48,0,0,.75-.69,1.76-1.58C1239.94,583.69,1394.89,559,1418.4,578.69Z"/><path class="cls-1" d="M1815.28,1253q-.79,16.88-2,33.67l-16.83,61.08-31.74,46.62a1.69,1.69,0,0,0-.23.44l-14.74,39.1a2,2,0,0,0-.12,1,267.34,267.34,0,0,1-4.87,98.93,2.06,2.06,0,0,0,.63,2,2.5,2.5,0,0,0,2.16.58l.39-.09-19.22,9.73a2.36,2.36,0,0,0-.92.85c-.58,1-5.52,9.66-.88,19.09,4.17,8.48,12.89,11,14.59,11.45a2.56,2.56,0,0,0,1.4-.06L1851,1540.27a2.22,2.22,0,0,0,.87-.53l22.11-21.5a2.24,2.24,0,0,0,.56-.9l17.2-54.73a2.11,2.11,0,0,0,.09-.56l2.45-82,5.43-31.56,0-.19,4.09-54.49c-1.65-1.27-3.14-2.42-4.93-2.42C1866.79,1284.4,1842.55,1265.32,1815.28,1253Zm-33.52,266.25-15,7.6a40.26,40.26,0,0,0,10.46-14.55,1.07,1.07,0,0,0,.07-.19l10.1-32.07Z"/><path class="cls-1" d="M1898.6,1348.37l-5.43,31.55-2.47,82.1a.92.92,0,0,1,0,.28L1873.46,1517a1.18,1.18,0,0,1-.28.45l-22.11,21.5a1.16,1.16,0,0,1-.44.27l-108.09,37.14a1.28,1.28,0,0,1-.7,0c-1.62-.4-9.89-2.82-13.84-10.85-4.39-8.94.29-17.19.84-18.1a1.19,1.19,0,0,1,.46-.43l27-13.69-9,2a1.26,1.26,0,0,1-1.08-.29,1,1,0,0,1-.31-1,268.29,268.29,0,0,0,4.89-99.31,1.11,1.11,0,0,1,.06-.51l14.74-39.09a.94.94,0,0,1,.12-.22l31.73-46.63.1-.14,16.89-61.24,0-.21q1.15-16.56,1.94-33.22l-2.28-1q-.8,17-2,34l-16.76,60.81-31.64,46.47a3.56,3.56,0,0,0-.35.67l-14.74,39.1a3.08,3.08,0,0,0-.17,1.5,266.17,266.17,0,0,1-4.86,98.56,3.14,3.14,0,0,0,.95,3l.13.11-16.53,8.37a3.45,3.45,0,0,0-1.38,1.27c-.61,1-5.81,10.16-.93,20.09,4.39,8.92,13.56,11.6,15.36,12a3.8,3.8,0,0,0,.89.1,3.52,3.52,0,0,0,1.2-.2l108.09-37.14a3.44,3.44,0,0,0,1.31-.79l22.11-21.51a3.15,3.15,0,0,0,.83-1.34l17.2-54.74a3,3,0,0,0,.14-.83l2.45-81.88,5.42-31.48c0-.1,0-.2,0-.3l4-53.73c-.77-.56-1.49-1.14-2.2-1.66Z"/><path class="cls-1" d="M1776.17,1511.8l0,.09A39.5,39.5,0,0,1,1766,1526l-6.47,5.71,23.33-11.81,5.71-39.77-2.26-.45Zm4.52,6.75-8.55,4.32a41.47,41.47,0,0,0,6.16-10.19c0-.09.07-.18.1-.27l5.82-18.48Z"/><path class="cls-1" d="M1320.93,1535.78c-1-5.36-6.33-8.63-9.31-10.06l-18.35-9.72.39.09a2.38,2.38,0,0,0,.46,0,2.27,2.27,0,0,0,1.58-.64,2.18,2.18,0,0,0,.59-2,279.15,279.15,0,0,1-4.67-98.93,2.16,2.16,0,0,0-.1-1l-14.1-39.1a2,2,0,0,0-.22-.44l-30.33-46.61L1230.26,1260c-2.63-36.38-3.78-73.1-3.45-109.68-14.92-.3-29.13-.64-43.34,6.65-8.49,3.27-15.77-5.44-21.84-8.71-14.6-7.87-30-16.5-43.49-26.74l7,52.62s18.79,95.81,18.79,95.81c1.9,19.12,2.49,35.7,1.75,49.28l0,.44a81.29,81.29,0,0,0,2,24.6,79.24,79.24,0,0,0,5.68,15.81l2.33,81.63a2.62,2.62,0,0,0,.09.56l16.44,54.73a2.29,2.29,0,0,0,.53.9l21.14,21.5a2.11,2.11,0,0,0,.84.53l103.33,37.14a2.27,2.27,0,0,0,.77.13,2.38,2.38,0,0,0,.46,0C1314.6,1553.93,1322.45,1543.56,1320.93,1535.78Zm-60-36.9-5.12-37.29,9,31a1.25,1.25,0,0,0,.09.25,39.64,39.64,0,0,0,8.92,12.84Z"/><path class="cls-1" d="M1320.92,1535.59c-1.13-5.82-6.72-9.28-9.9-10.81l-15.83-8.38.2-.18a3.18,3.18,0,0,0,.87-3,278.06,278.06,0,0,1-4.64-98.59,3.34,3.34,0,0,0-.16-1.47l-14.1-39.09a2.88,2.88,0,0,0-.32-.66L1246.8,1327l-16.55-67.17c-2.62-36.32-3.77-73-3.44-109.5l-2.42,0c-.33,36.61.82,73.36,3.45,109.78l16.63,67.58,0,.16,30.43,46.76a1,1,0,0,1,.12.23l14.09,39.09a1.3,1.3,0,0,1,.06.55,280.48,280.48,0,0,0,4.67,99.28,1.11,1.11,0,0,1-.29,1,1,1,0,0,1-.87.28l-8.33-1.82,25.44,13.47c2.84,1.36,7.74,4.38,8.7,9.29,1.41,7.29-6.11,17-20.74,20.11a1,1,0,0,1-.5,0L1194,1518.9a1,1,0,0,1-.38-.24l-21.14-21.5a1.19,1.19,0,0,1-.27-.46L1155.73,1442a1.34,1.34,0,0,1,0-.3l-2.34-81.84-.09-.2a78,78,0,0,1-5.6-15.6,80.23,80.23,0,0,1-2-24.32l0-.43c.74-13.64.15-30.27-1.77-49.53-.19-1-18.69-95.28-18.78-95.75l-6.87-51.46c-.91-.68-1.82-1.37-2.72-2.07l7.18,53.79s0,.07,18.79,95.77c1.89,19.07,2.48,35.6,1.75,49.14l0,.44a82.44,82.44,0,0,0,2,24.88,79.8,79.8,0,0,0,5.66,15.81l2.33,81.43a3.12,3.12,0,0,0,.13.81l16.44,54.73a3.27,3.27,0,0,0,.79,1.34l21.14,21.5a3.35,3.35,0,0,0,1.29.82l103.34,37.14a3.58,3.58,0,0,0,1.21.21,3.64,3.64,0,0,0,.74-.07C1314.35,1554.85,1322.52,1543.86,1320.92,1535.59Z"/><path class="cls-1" d="M1258.6,1499.55l20.66,10.94-5.75-5.52a38.81,38.81,0,0,1-8.67-12.49,1.21,1.21,0,0,1,0-.14l-9-31-2.38.41,5.12,37.29Zm3.84-6.65c0,.12.08.24.13.37a41.85,41.85,0,0,0,5,8.5l-6.7-3.55-2.81-20.44Z"/><rect class="cls-1" x="1383" y="576.13" width="308.87" height="100.21"/><path class="cls-1" d="M1342.65,233.07l174.17,3.27"/><path class="cls-1" d="M1626.11,349.91c8.62-3,23.26,26,68.67,91.19,48.8,70,63.29,81.68,82.51,110.56,75.79,113.86,89.2,291.78,44.71,314-25.29,12.64-72.27-23.54-96.84-58.29-26-36.75-19.69-61.68-46.54-173.42-13.74-57.18-15.62-51.62-29.09-108.39C1637.8,476.14,1609.23,355.68,1626.11,349.91Z"/><path class="cls-1" d="M1346.13,289.71c15.93,20.82,49.14,10,153.27,6.53,132.07-4.34,171.28,10.1,188.23-14.71,19.9-29.11-9.29-85.34-45.46-116-70.32-59.63-197.92-48.78-260.26,13.79C1351.5,209.84,1326,263.37,1346.13,289.71Z"/><path class="cls-2" d="M856.33,1058.84c-4.42,5.76-3.89,11.89-7.36,30.93-3.74,20.57-7.05,28.28-11,44.19-9.1,36.3-6.49,54.55-12.88,99.42-5.93,41.66-10.35,41.11-18.41,86.16-2.47,13.82-7.41,43.83-11,106-5.56,95.39-2.51,172-1.84,187.8.33,7.85,0-.65,12.77,146.71,4.32,50,6.08,70.84,7.48,87.48,7.43,88.8,6.85,85.44,9.2,112.67,10.84,125.54,16,162.25,40.49,183.38,12.59,10.86,28,12.39,58.89,15.46,46.39,4.61,107.07,10.65,134.35-28.72,10.19-14.72,7-23.2,9.2-132.56,1.38-69,3-84.39,3.58-108.45.36-15.67.1-24,.1-32.95,0-32.88,2.69-36.77,5.19-84,2.24-42.29.6-49,4.71-73,1.56-9.1,2.86-15.18,4.82-28.59,2.65-18.13,1.3-34.74,3.68-50.82,2.94-19.82,11.78-40.35,16.57-39.76,3,.36,3.84,8.76,5.52,24.3,6.43,59.79,10.82,101.14,11,119.3.51,41.76.87-14.25,5.52,143.61,3.44,116.77,7.5,103.3,3.68,150.23-6.47,79.51-24.53,98.87-6.34,122.92,24.43,32.29,81.78,30.14,119.37,28.72,12.87-.48,80.41-3,91.25-32.33,1.79-4.84-.76-4.38.85-20.82,1.85-18.85,6.81-34.29,15.72-89.65,4.2-26.14,8.94-66.77,18.4-148,12.78-109.75,10.75-105.22,16.56-141.4,7.79-48.45,12-60.31,14.73-97.21,2.74-37.67,1.41-67.7,0-99.42-2-45.17-4.91-54.43-7.37-106-.67-14.19-.93-23.46-1-30.67-.16-12,2.73-16.49-.14-23.42-3.42-8.25-10.49-12.38-13.28-14.4-14.52-10.49-13.16-35.83-11.7-75.12,0,0,3.1-87.65-1.46-123.72-3.9-30.88-6.88-31.13-9.2-57.44-2.53-28.61-.68-42.19-9.2-50.82-6.33-6.4-13.91-5.56-33.13-4.42-17.78,1.06-35.69-.26-53.37,2.21-8.9,1.25-44.59,1.57-116,2.21-67.5.61-101.25.92-128.82,0-37.41-1.24-75.82,8-112.27-2.21C891.48,1053.08,867.05,1044.91,856.33,1058.84Z"/><path class="cls-2" d="M1125.88,737.47h0c-57.6,0-104.72-57.1-104.72-181.13V436.21c0-124,47.12-225.51,104.72-225.51h0c57.59,0,104.71,101.48,104.71,225.51V556.34C1230.59,680.37,1183.47,737.47,1125.88,737.47Z"/><path class="cls-2" d="M784.88,1125c13.78-7.24,27.56-6.91,42-6.6q.23-25.21,1.38-50.3c1.26-27.64,3.4-55.61,6.36-83.15L841.91,950l0-.18a633.65,633.65,0,0,0,0-151.93,2.17,2.17,0,0,0-1.49-1.81L724.3,759.2a2.13,2.13,0,0,0-1.94.34,2.13,2.13,0,0,0-.86,1.78l2.27,95-4.55,66-4.55,114.53a2.32,2.32,0,0,0,0,.37l6.85,52.57c13,10.16,28,18.73,42.18,26.55C769.59,1119.55,776.65,1128.21,784.88,1125Z"/><path class="cls-2" d="M714.67,1037.05a1.21,1.21,0,0,1,0-.19l4.56-114.5,4.55-66.05-2.27-95a1.11,1.11,0,0,1,.43-.92.91.91,0,0,1,.54-.19,1.26,1.26,0,0,1,.27,0l116.15,36.89a1.06,1.06,0,0,1,.7.89,631.8,631.8,0,0,1,0,151.79l-7.28,35c-3,27.57-5.1,55.56-6.37,83.21q-1.14,25.07-1.37,50.31l2.35.05q.23-25.2,1.38-50.27c1.26-27.61,3.4-55.56,6.34-83l7.26-34.92a2.51,2.51,0,0,0,0-.27,634.19,634.19,0,0,0,0-152.16,3.26,3.26,0,0,0-2.27-2.71L723.51,758.18a3.45,3.45,0,0,0-3.08.52,3.24,3.24,0,0,0-1.29,2.64l2.28,94.92-4.55,66-4.56,114.53a3.08,3.08,0,0,0,0,.53l6.7,51.42c.87.69,1.75,1.37,2.64,2Z"/><path class="cls-2" d="M1512.32,942.45l-4.76-65.9,2.38-95a2.14,2.14,0,0,0-.9-1.78,2.33,2.33,0,0,0-1.35-.43,2.24,2.24,0,0,0-.68.1l-121.5,36.88a2.18,2.18,0,0,0-1.55,1.8A606,606,0,0,0,1384,970a1.85,1.85,0,0,0,0,.23l9.36,39c2.28,26.19,3.91,52.78,4.87,79,1.61,43.79,1.38,88.07-.67,132.08,26.45,12.23,50,31.18,81.12,38.17,1.74,0,3.18,1.15,4.78,2.4l.26-3.57,19.06-95.11,14.29-104.83a2.17,2.17,0,0,0,0-.36Z"/><path class="cls-2" d="M1513.44,942.37l-4.75-65.79,2.37-95a3.2,3.2,0,0,0-1.34-2.67,3.55,3.55,0,0,0-3-.5l-121.49,36.88a3.29,3.29,0,0,0-2.34,2.7,606.91,606.91,0,0,0,0,152.2,3.23,3.23,0,0,0,.06.33l9.35,38.88c2.26,26.14,3.9,52.69,4.86,78.92,1.6,43.6,1.37,87.7-.65,131.53.74.33,1.47.67,2.21,1,2.06-44.19,2.3-88.66.69-132.63-1-26.28-2.6-52.89-4.87-79.1l-9.4-39.11s0-.07,0-.11a604,604,0,0,1,0-151.67,1.08,1.08,0,0,1,.77-.9l121.5-36.88a1.17,1.17,0,0,1,1,.17,1.06,1.06,0,0,1,.45.89l-2.37,95.11,4.75,65.87,4.77,114.59a1.09,1.09,0,0,1,0,.18L1501.67,1162l-19.06,95.11-.21,3c.68.51,1.38,1.08,2.13,1.64l.31-4.26c19-95,19-95.06,19.05-95.11l14.29-104.83a2.51,2.51,0,0,0,0-.55Z"/><path class="cls-2" d="M1012.7,550.72a63.39,63.39,0,0,1,7.38,7.52c7.78,10.36,6.46,20.07,23.91,35.81,18.83,17,39.6,23,52.15,26.67,17.38,5,43.93,12.76,73,3.33,17.65-5.72,28.43-15.22,45.19-30a78.63,78.63,0,0,0,9.71-9.82,80.45,80.45,0,0,0,16.67-35,260.31,260.31,0,0,1,70.94-2.16c34.51,3.73,26.73,8.58,93.91,26.95,25.08,6.86,46.11,11.72,66.06,30a66.89,66.89,0,0,1,9.47,10.54c19.6,27.42,23.63,56.59,25.3,69.46,10.18,78.56,55.71,107.15,35.46,139.28-2.79,4.42-10.3,9.47-25.32,19.56-20,13.42-52.73,32.74-106.33,53.78-31.09,12.21-36.56,12.18-42.88,20.71a29.51,29.51,0,0,0-4.68,8.9c-5.21,16.72,1.2,67.77,1.2,67.77,3.76,28.14-3,24.11-.9,75.39.83,20.5,2.5,35.9,3.53,45.25,5.42,49,12.47,66.17,11.28,102.69-.41,12.38-1.69,24.9-1.69,24.9-2.86,25.37-8.37,39.68-12.22,91.77-2.39,32.33-.67,32.2-3.48,40-16,44.34-76.65,61.88-118.21,73.33-93.58,25.8-172.64,15.84-215.57,10-64.57-8.78-99.57-23.78-153-46.66-33.37-14.31-48.25-23.76-55.63-40-12.1-26.67,9.71-41.48,13.91-96.67,3.19-41.88-8.35-46.77-3.48-93.33,2.79-26.6,6.72-26.61,13.91-63.34,10.62-54.21,10.58-97.76,10.43-123.33-.41-69.07,2.17-80.58-7-93.33-6-8.44-10.6-10.53-55.63-36.67-66.2-38.43-72.63-43.36-76.49-53.33-2.18-5.6-3.27-12.08,20.86-80,11.49-32.35,20.28-54.93,31.29-80,17.83-40.61,25.22-50.76,29.58-55.09,0,0,.73-.69,1.71-1.58C839.64,555.68,989.9,531.11,1012.7,550.72Z"/><path class="cls-2" d="M1397.56,1220.34q-.78,16.74-1.9,33.43l-16.32,60.65-30.78,46.3a2.64,2.64,0,0,0-.23.44L1334,1400a2.12,2.12,0,0,0-.11,1,271.94,271.94,0,0,1-4.73,98.25,2.12,2.12,0,0,0,.61,2,2.34,2.34,0,0,0,1.59.63,2.22,2.22,0,0,0,.51-.06l.38-.09-18.64,9.67a2.18,2.18,0,0,0-.89.84c-.56,1-5.35,9.6-.86,19,4,8.42,12.5,11,14.16,11.37a2.78,2.78,0,0,0,.57.07,2.55,2.55,0,0,0,.78-.13l104.82-36.88a2.49,2.49,0,0,0,.85-.53l21.44-21.36a2.2,2.2,0,0,0,.54-.89l16.67-54.35a1.71,1.71,0,0,0,.09-.55l2.38-81.38,5.27-31.34c0-.07,0-.13,0-.2l4-54.11c-1.6-1.25-3-2.4-4.78-2.4C1447.51,1251.52,1424,1232.57,1397.56,1220.34Zm-32.5,264.39-14.55,7.54a40,40,0,0,0,10.14-14.44,1.07,1.07,0,0,0,.07-.19l9.8-31.85Z"/><path class="cls-2" d="M1478.35,1315l-5.26,31.34-2.39,81.53a.92.92,0,0,1,0,.28L1454,1482.54a1.25,1.25,0,0,1-.27.44l-21.44,21.36a1.34,1.34,0,0,1-.43.26L1327,1541.48a1.1,1.1,0,0,1-.67,0c-1.57-.4-9.59-2.8-13.42-10.77-4.27-8.88.28-17.08.81-18a1.07,1.07,0,0,1,.45-.42l26.22-13.59-8.76,2a1.21,1.21,0,0,1-1.05-.29,1,1,0,0,1-.3-1,272.89,272.89,0,0,0,4.75-98.63,1,1,0,0,1,0-.5l14.3-38.82a.65.65,0,0,1,.11-.22l30.78-46.3.09-.14,16.37-60.82,0-.2q1.11-16.46,1.88-33c-.74-.35-1.47-.69-2.21-1q-.78,16.92-1.92,33.77L1378.29,1314l-30.68,46.15a3.52,3.52,0,0,0-.34.67L1333,1399.62a3.2,3.2,0,0,0-.17,1.5,270.37,270.37,0,0,1-4.71,97.87,3.17,3.17,0,0,0,.92,3l.13.11-16,8.31a3.39,3.39,0,0,0-1.34,1.26c-.59,1-5.63,10.1-.9,20,4.25,8.86,13.15,11.52,14.89,12a3.22,3.22,0,0,0,.86.11,3.6,3.6,0,0,0,1.17-.2l104.82-36.88a3.49,3.49,0,0,0,1.27-.79l21.44-21.36a3.32,3.32,0,0,0,.81-1.33l16.67-54.35a3.35,3.35,0,0,0,.14-.83l2.37-81.31,5.26-31.27a2.58,2.58,0,0,0,0-.29l3.92-53.36c-.75-.56-1.45-1.13-2.13-1.64Z"/><path class="cls-2" d="M1359.64,1477.34l0,.09a39.15,39.15,0,0,1-9.87,14.06l-6.27,5.67,22.62-11.74,5.54-39.49-2.19-.45Zm4.38,6.7-8.29,4.3a41.58,41.58,0,0,0,6-10.12,2.31,2.31,0,0,0,.1-.28l5.65-18.35Z"/><path class="cls-2" d="M918.18,1501.16c-1-5.33-6.14-8.57-9-10l-17.8-9.65.39.08a2.2,2.2,0,0,0,.44.05,2.12,2.12,0,0,0,1.53-.65,2.15,2.15,0,0,0,.57-2,284,284,0,0,1-4.52-98.25,2.22,2.22,0,0,0-.1-1L876,1340.94a2.53,2.53,0,0,0-.21-.44l-29.42-46.28-16.1-67c-2.55-36.12-3.67-72.59-3.35-108.91-14.47-.31-28.25-.64-42,6.6-8.23,3.25-15.29-5.41-21.17-8.65-14.16-7.82-29.14-16.39-42.18-26.55l6.82,52.25s18.22,95.14,18.22,95.14c1.84,19,2.41,35.45,1.7,48.94l0,.44a82.65,82.65,0,0,0,1.93,24.42,80,80,0,0,0,5.5,15.7l2.27,81.07a2,2,0,0,0,.08.55l16,54.36a2.16,2.16,0,0,0,.51.89l20.5,21.35a2.24,2.24,0,0,0,.81.53L896,1522.28a2.06,2.06,0,0,0,.74.13,1.73,1.73,0,0,0,.45-.05C912,1519.18,919.65,1508.88,918.18,1501.16ZM860,1464.52l-5-37,8.73,30.81.09.26a39.62,39.62,0,0,0,8.66,12.75Z"/><path class="cls-2" d="M918.17,1501c-1.1-5.78-6.51-9.22-9.6-10.73l-15.35-8.33.19-.18a3.2,3.2,0,0,0,.85-2.94,282.94,282.94,0,0,1-4.51-97.9,3.15,3.15,0,0,0-.15-1.46l-13.67-38.82a4,4,0,0,0-.31-.66l-29.33-46.13-16-66.7c-2.55-36.07-3.66-72.48-3.34-108.74l-2.35-.05c-.32,36.35.79,72.85,3.35,109L844,1294.45l0,.17,29.51,46.43.11.22,13.66,38.83a1.24,1.24,0,0,1,.06.54,285,285,0,0,0,4.53,98.59,1.12,1.12,0,0,1-.29,1,.87.87,0,0,1-.84.26l-8.08-1.8,24.68,13.38c2.75,1.35,7.5,4.35,8.43,9.22,1.37,7.24-5.92,16.93-20.11,20a.88.88,0,0,1-.48,0l-100.21-36.88a1,1,0,0,1-.37-.24l-20.49-21.35a1,1,0,0,1-.26-.46L758,1408a1,1,0,0,1,0-.3l-2.27-81.27-.1-.2a79.46,79.46,0,0,1-5.43-15.5,81.87,81.87,0,0,1-1.9-24.14l0-.43c.71-13.54.14-30.06-1.72-49.19l-18.21-95.08-6.66-51.1c-.89-.68-1.77-1.36-2.64-2l7,53.41s0,.07,18.22,95.11c1.84,18.93,2.41,35.35,1.7,48.79l0,.43a83.78,83.78,0,0,0,2,24.71,81.54,81.54,0,0,0,5.48,15.71l2.26,80.86a3.61,3.61,0,0,0,.13.81l15.94,54.35a3.26,3.26,0,0,0,.77,1.32l20.5,21.35a3.24,3.24,0,0,0,1.26.82l100.2,36.88a3.41,3.41,0,0,0,1.18.21,3.51,3.51,0,0,0,.72-.07C911.8,1520.09,919.73,1509.18,918.17,1501Z"/><path class="cls-2" d="M857.73,1465.18l20,10.86-5.57-5.48a38.73,38.73,0,0,1-8.41-12.4,1.21,1.21,0,0,1,0-.14L855,1427.21l-2.3.41,5,37Zm3.73-6.61c0,.13.08.25.13.37a41.13,41.13,0,0,0,4.84,8.44l-6.5-3.53-2.72-20.29Z"/><path class="cls-2" d="M1283.51,281.22c0,129.07-76.85,308.22-171.64,308.22S940.22,410.29,940.22,281.22s76.85-173.09,171.65-173.09S1283.51,152.15,1283.51,281.22Z"/><rect class="cls-2" x="978.37" y="548.18" width="299.52" height="99.51"/><path class="cls-3" d="M624,318c0,130-79.25,310.37-177,310.37S270,448,270,318s79.25-174.31,177-174.31S624,188,624,318Z"/><path class="cls-3" d="M183.52,1101.06c-4.56,5.8-4,12-7.59,31.15-3.86,20.71-7.28,28.48-11.39,44.5-9.39,36.55-6.69,54.93-13.28,100.11-6.12,42-10.67,41.4-19,86.77-2.55,13.91-7.65,44.13-11.39,106.79-5.73,96-2.59,173.15-1.9,189.11.35,7.91,0-.65,13.17,147.74,4.45,50.33,6.27,71.33,7.71,88.09,7.67,89.43,7.06,86,9.49,113.46,11.18,126.42,16.5,163.39,41.75,184.66,13,10.94,28.9,12.49,60.73,15.58,47.85,4.64,110.42,10.71,138.54-28.93,10.52-14.82,7.23-23.36,9.49-133.48,1.43-69.47,3.13-85,3.7-109.21.37-15.78.1-24.2.1-33.18,0-33.12,2.78-37,5.36-84.55,2.31-42.58.61-49.35,4.85-73.55,1.61-9.16,2.95-15.29,5-28.79,2.74-18.25,1.34-35,3.8-51.17,3-20,12.14-40.63,17.08-40,3.06.36,4,8.82,5.69,24.47,6.64,60.21,11.16,101.85,11.39,120.14.52,42,.9-14.35,5.69,144.61,3.55,117.59,7.74,104,3.8,151.29-6.68,80.06-25.3,99.56-6.54,123.78,25.2,32.51,84.33,30.34,123.09,28.92,13.28-.49,82.93-3,94.11-32.56,1.84-4.87-.79-4.41.87-21,1.91-19,7-34.53,16.21-90.27,4.34-26.33,9.22-67.24,19-149.06,13.18-110.52,11.08-106,17.08-142.39,8-48.79,12.41-60.73,15.18-97.89,2.83-37.93,1.46-68.17,0-100.12-2.07-45.48-5.06-54.81-7.59-106.79-.7-14.29-1-23.62-1.06-30.89-.16-12.05,2.82-16.6-.14-23.58-3.53-8.31-10.82-12.47-13.7-14.5-15-10.56-13.56-36.08-12.07-75.64,0,0,3.2-88.27-1.5-124.59-4-31.09-7.09-31.35-9.49-57.85-2.6-28.81-.69-42.48-9.49-51.17-6.52-6.45-14.33-5.6-34.16-4.45-18.33,1.07-36.8-.26-55,2.23-9.18,1.25-46,1.57-119.57,2.22-69.61.62-104.41.92-132.85,0-38.58-1.25-78.18,8-115.77-2.22C219.77,1095.26,194.57,1087,183.52,1101.06Z"/><path class="cls-3" d="M461.48,777.44h0c-59.39,0-108-57.5-108-182.4v-121c0-124.9,48.6-227.09,108-227.09h0c59.39,0,108,102.19,108,227.09V595C569.47,719.94,520.87,777.44,461.48,777.44Z"/><path class="cls-3" d="M109.83,1167.64c14.21-7.29,28.43-7,43.35-6.65q.23-25.4,1.42-50.64c1.3-27.83,3.51-56,6.56-83.73l7.48-35.17a.57.57,0,0,0,0-.18,625.67,625.67,0,0,0,4.72-76.5,625.63,625.63,0,0,0-4.72-76.49,2.18,2.18,0,0,0-1.53-1.82L47.36,799.32a2.53,2.53,0,0,0-.67-.1,2.23,2.23,0,0,0-1.33.44,2.14,2.14,0,0,0-.89,1.79l2.35,95.68-4.7,66.43-4.69,115.32a2.26,2.26,0,0,0,0,.37l7.07,53C58,1142.43,73.4,1151.06,88,1158.93,94.06,1162.2,101.34,1170.91,109.83,1167.64Z"/><path class="cls-3" d="M37.43,1079.12a1.33,1.33,0,0,1,0-.2l4.69-115.3,4.7-66.51-2.35-95.68a1.11,1.11,0,0,1,.45-.93,1,1,0,0,1,.56-.19.84.84,0,0,1,.27,0l119.78,37.14a1.06,1.06,0,0,1,.72.91A623.66,623.66,0,0,1,171,914.77a624.58,624.58,0,0,1-4.72,76.48l-7.5,35.26c-3.05,27.76-5.26,56-6.57,83.79q-1.18,25.25-1.41,50.67l2.42,0q.23-25.39,1.41-50.63c1.31-27.8,3.52-56,6.54-83.57l7.49-35.16c0-.09,0-.18,0-.27a627.62,627.62,0,0,0,4.72-76.62,627.58,627.58,0,0,0-4.72-76.61,3.35,3.35,0,0,0-2.35-2.73L46.54,798.29a3.62,3.62,0,0,0-3.16.53,3.19,3.19,0,0,0-1.33,2.66l2.34,95.58L39.7,963.52,35,1078.85a3.08,3.08,0,0,0,0,.53l6.91,51.78c.89.69,1.8,1.38,2.72,2.07Z"/><path class="cls-3" d="M860,983.85l-4.91-66.36,2.45-95.68a2.11,2.11,0,0,0-.92-1.79,2.42,2.42,0,0,0-1.4-.44,2.82,2.82,0,0,0-.7.1L729.22,856.82a2.22,2.22,0,0,0-1.6,1.82,595.92,595.92,0,0,0,0,153,1.85,1.85,0,0,0,0,.23l9.66,39.23c2.34,26.37,4,53.14,5,79.59,1.65,44.1,1.42,88.7-.69,133,27.27,12.32,51.51,31.4,83.65,38.44,1.79,0,3.27,1.15,4.93,2.42l.27-3.6,19.65-95.78,14.74-105.56a2.26,2.26,0,0,0,0-.37Z"/><path class="cls-3" d="M861.14,983.78l-4.9-66.26,2.45-95.68a3.19,3.19,0,0,0-1.39-2.69,3.67,3.67,0,0,0-3.14-.5L728.87,855.78a3.36,3.36,0,0,0-2.41,2.73,596.82,596.82,0,0,0,0,153.26,3.2,3.2,0,0,0,.07.33l9.64,39.16c2.33,26.32,4,53.06,5,79.46,1.65,43.91,1.41,88.32-.67,132.45l2.28,1c2.13-44.49,2.37-89.28.71-133.55-1-26.47-2.68-53.27-5-79.65l-9.68-39.39a.52.52,0,0,1,0-.11,595.1,595.1,0,0,1,0-152.73,1.12,1.12,0,0,1,.8-.91l125.29-37.14a1.26,1.26,0,0,1,1,.17,1.07,1.07,0,0,1,.46.9l-2.45,95.78,4.91,66.33,4.91,115.39a1.09,1.09,0,0,1,0,.18L849,1205c-.1.5-19.45,94.82-19.65,95.78l-.22,3c.71.51,1.43,1.09,2.2,1.65l.32-4.29,19.65-95.78L866,1099.75a3.37,3.37,0,0,0,0-.55Z"/><path class="cls-3" d="M344.76,589.38a64.32,64.32,0,0,1,7.62,7.57c8,10.43,6.66,20.21,24.65,36.07,19.42,17.11,40.84,23.18,53.78,26.85,17.93,5.09,45.3,12.85,75.3,3.36,18.2-5.76,29.32-15.33,46.61-30.21a82,82,0,0,0,10-9.89,80.38,80.38,0,0,0,17.19-35.22,274.9,274.9,0,0,1,73.15-2.18c35.59,3.76,27.56,8.65,96.85,27.15,25.86,6.91,47.55,11.8,68.12,30.21a68.45,68.45,0,0,1,9.77,10.61c20.2,27.61,24.37,57,26.09,69.95,10.49,79.11,57.44,107.9,36.56,140.25-2.87,4.45-10.62,9.53-26.11,19.7-20.6,13.52-54.38,33-109.65,54.16C722.64,950.05,717,950,710.48,958.61a29.77,29.77,0,0,0-4.83,9c-5.37,16.83,1.24,68.25,1.24,68.25,3.88,28.34-3.06,24.27-.92,75.92.85,20.64,2.57,36.15,3.64,45.56,5.58,49.4,12.86,66.63,11.62,103.41-.41,12.46-1.73,25.08-1.73,25.08-3,25.54-8.64,40-12.61,92.41-2.46,32.55-.68,32.43-3.58,40.28-16.49,44.65-79,62.31-121.91,73.84-96.5,26-178,16-222.29,10.07-66.6-8.84-102.69-23.94-157.76-47-34.42-14.4-49.76-23.92-57.37-40.28-12.48-26.85,10-41.76,14.34-97.34,3.29-42.18-8.61-47.1-3.58-94,2.87-26.78,6.92-26.79,14.34-63.78,10.94-54.59,10.91-98.44,10.75-124.19-.42-69.56,2.24-81.15-7.17-94-6.22-8.49-10.92-10.6-57.36-36.92C47,866.21,40.41,861.24,36.42,851.2c-2.24-5.64-3.37-12.17,21.51-80.56,11.85-32.58,20.92-55.31,32.27-80.56,18.38-40.89,26-51.11,30.51-55.47,0,0,.75-.7,1.76-1.59C166.3,594.38,321.26,569.64,344.76,589.38Z"/><path class="cls-3" d="M741.65,1263.69q-.81,16.86-2,33.67l-16.84,61.07-31.74,46.62a2.38,2.38,0,0,0-.23.45l-14.74,39.09a2,2,0,0,0-.11,1,267.09,267.09,0,0,1-4.88,98.93,2.13,2.13,0,0,0,.63,2,2.43,2.43,0,0,0,2.17.57l.39-.09-19.22,9.74a2.2,2.2,0,0,0-.92.84c-.58,1-5.52,9.67-.89,19.1,4.17,8.48,12.89,11,14.6,11.44a2.47,2.47,0,0,0,.6.08,2.35,2.35,0,0,0,.79-.14L777.4,1551a2.22,2.22,0,0,0,.87-.53l22.11-21.5a2.17,2.17,0,0,0,.56-.9l17.19-54.73a2.13,2.13,0,0,0,.1-.56l2.45-82,5.43-31.56a1.23,1.23,0,0,0,0-.19l4.1-54.49c-1.66-1.27-3.14-2.42-4.93-2.42C793.16,1295.09,768.92,1276,741.65,1263.69Zm-33.52,266.24-15,7.6A40.5,40.5,0,0,0,703.59,1523l.06-.18,10.11-32.08Z"/><path class="cls-3" d="M825,1359.06l-5.43,31.56-2.46,82.09a1.26,1.26,0,0,1-.05.28l-17.2,54.73a1,1,0,0,1-.28.45l-22.11,21.51a1.34,1.34,0,0,1-.43.26l-108.1,37.14a1.16,1.16,0,0,1-.69,0c-1.62-.4-9.89-2.82-13.84-10.85-4.4-8.94.29-17.19.84-18.1a1.19,1.19,0,0,1,.46-.43l27-13.68-9,2a1.22,1.22,0,0,1-1.08-.29,1,1,0,0,1-.31-1,268.29,268.29,0,0,0,4.89-99.31,1.11,1.11,0,0,1,.06-.51L692,1405.86a.91.91,0,0,1,.11-.22L723.83,1359l.1-.15,16.88-61.24,0-.2q1.14-16.58,1.94-33.23l-2.28-1q-.81,17-2,34L721.77,1358l-31.63,46.47a3.06,3.06,0,0,0-.35.67l-14.74,39.1a3.1,3.1,0,0,0-.17,1.51,266.13,266.13,0,0,1-4.86,98.55,3.11,3.11,0,0,0,1,3l.13.12-16.53,8.37a3.37,3.37,0,0,0-1.38,1.26c-.61,1-5.81,10.17-.93,20.09,4.38,8.92,13.56,11.6,15.36,12a3.79,3.79,0,0,0,.88.11,3.73,3.73,0,0,0,1.2-.2L777.8,1552a3.67,3.67,0,0,0,1.31-.8l22.11-21.51a3.29,3.29,0,0,0,.83-1.34l17.2-54.73a3.35,3.35,0,0,0,.14-.83l2.45-81.89,5.41-31.48c0-.1,0-.2,0-.3l4-53.73c-.77-.56-1.49-1.14-2.2-1.65Z"/><path class="cls-3" d="M702.54,1522.49l0,.09a39.53,39.53,0,0,1-10.18,14.16l-6.47,5.71,23.34-11.82,5.71-39.77-2.27-.45Zm4.51,6.75-8.54,4.33a41.5,41.5,0,0,0,6.16-10.2c0-.09.07-.18.1-.27l5.82-18.48Z"/><path class="cls-3" d="M247.3,1546.47c-1-5.36-6.33-8.62-9.32-10.06l-18.35-9.71.4.08a2.31,2.31,0,0,0,.46,0,2.27,2.27,0,0,0,1.58-.65,2.15,2.15,0,0,0,.58-2,279.42,279.42,0,0,1-4.66-98.93,2,2,0,0,0-.11-1l-14.09-39.09a2.35,2.35,0,0,0-.22-.45l-30.33-46.61-16.61-67.41c-2.63-36.38-3.78-73.1-3.45-109.68-14.92-.3-29.14-.64-43.35,6.65-8.49,3.27-15.77-5.44-21.83-8.71-14.6-7.87-30-16.5-43.49-26.73l7,52.61s18.8,95.81,18.8,95.81c1.89,19.12,2.48,35.7,1.75,49.29l0,.43a81.71,81.71,0,0,0,2,24.6,79.84,79.84,0,0,0,5.67,15.81l2.34,81.63a1.77,1.77,0,0,0,.09.56l16.44,54.73a2.11,2.11,0,0,0,.53.9l21.14,21.5a2.15,2.15,0,0,0,.83.53l103.34,37.14a2.18,2.18,0,0,0,.76.14,2.5,2.5,0,0,0,.47-.05C241,1564.63,248.81,1554.25,247.3,1546.47Zm-60-36.89-5.12-37.29,9,31,.09.25a40,40,0,0,0,8.93,12.85Z"/><path class="cls-3" d="M247.28,1546.28c-1.13-5.81-6.71-9.28-9.9-10.8l-15.83-8.39.2-.18a3.18,3.18,0,0,0,.88-3,278.42,278.42,0,0,1-4.65-98.59,3,3,0,0,0-.16-1.46l-14.09-39.1a2.91,2.91,0,0,0-.33-.66l-30.23-46.46-16.55-67.16c-2.62-36.33-3.77-73-3.44-109.5l-2.42,0c-.34,36.61.81,73.36,3.44,109.77l16.64,67.58,0,.17,30.43,46.75a1,1,0,0,1,.11.23l14.1,39.1a1.1,1.1,0,0,1,0,.54,280.21,280.21,0,0,0,4.68,99.28,1.15,1.15,0,0,1-.3,1.06.93.93,0,0,1-.87.27l-8.33-1.82,25.45,13.48c2.84,1.36,7.74,4.37,8.69,9.28,1.42,7.29-6.1,17-20.73,20.11a.94.94,0,0,1-.5,0l-103.34-37.14a1,1,0,0,1-.38-.24l-21.13-21.5a1.08,1.08,0,0,1-.27-.46L82.1,1452.66a1,1,0,0,1,0-.3l-2.34-81.85-.1-.2a78.38,78.38,0,0,1-5.6-15.6,80.52,80.52,0,0,1-2-24.31l0-.44c.74-13.64.14-30.27-1.77-49.53-.19-1-18.69-95.27-18.78-95.75l-6.87-51.45c-.92-.69-1.83-1.38-2.72-2.07l7.18,53.78s0,.07,18.78,95.78c1.9,19.06,2.49,35.6,1.75,49.13l0,.44a82.11,82.11,0,0,0,2,24.88A80.49,80.49,0,0,0,77.29,1371l2.33,81.43a3.61,3.61,0,0,0,.13.8L96.19,1508a3.32,3.32,0,0,0,.8,1.33l21.14,21.5a3.5,3.5,0,0,0,1.29.83l103.34,37.13a3.51,3.51,0,0,0,1.21.22,3.65,3.65,0,0,0,.74-.08C240.72,1565.54,248.89,1554.55,247.28,1546.28Z"/><path class="cls-3" d="M185,1510.24l20.67,10.94-5.75-5.52a39,39,0,0,1-8.68-12.49s0-.09,0-.14l-9-31-2.38.41,5.12,37.29Zm3.85-6.65a2.72,2.72,0,0,0,.13.37,41.39,41.39,0,0,0,5,8.5l-6.71-3.55-2.8-20.44Z"/><rect class="cls-3" x="309.37" y="586.82" width="308.87" height="100.21"/><path class="cls-3" d="M269,243.76,443.19,247"/><path class="cls-3" d="M552.48,360.6c8.62-2.94,23.26,26,68.66,91.19,48.81,70.05,63.3,81.68,82.52,110.56,75.79,113.86,89.2,291.79,44.71,314-25.29,12.65-72.27-23.54-96.85-58.29-26-36.75-19.69-61.68-46.53-173.42-13.74-57.18-15.62-51.62-29.09-108.39C564.17,486.83,535.59,366.37,552.48,360.6Z"/><path class="cls-3" d="M272.5,300.4c15.93,20.82,49.14,10,153.27,6.54C557.84,302.6,597.05,317,614,292.23c19.9-29.12-9.3-85.35-45.46-116C498.21,116.58,370.61,127.43,308.28,190,277.87,220.53,252.35,274.06,272.5,300.4Z"/></g><path class="cls-3" d="M1629.6,1087.45c-4.39,5.73-3.87,11.83-7.31,30.77-3.71,20.47-7,28.14-11,44-9,36.12-6.45,54.27-12.79,98.92-5.89,41.44-10.26,40.9-18.26,85.73-2.46,13.74-7.36,43.6-11,105.51-5.52,94.9-2.49,171.07-1.83,186.85.33,7.81,0-.64,12.67,146,4.29,49.73,6,70.48,7.42,87,7.38,88.36,6.8,85,9.14,112.11,10.75,124.9,15.87,161.43,40.17,182.45,12.5,10.81,27.82,12.34,58.45,15.39,46,4.59,106.26,10.59,133.32-28.58,10.12-14.64,6.95-23.08,9.13-131.89,1.38-68.63,3-84,3.56-107.9.36-15.59.09-23.91.1-32.78,0-32.73,2.67-36.59,5.15-83.54,2.22-42.07.59-48.76,4.67-72.67,1.55-9,2.84-15.1,4.79-28.44,2.63-18,1.29-34.56,3.65-50.56,2.91-19.72,11.68-40.15,16.44-39.57,2.94.36,3.82,8.72,5.48,24.18,6.38,59.49,10.73,100.63,10.95,118.7.51,41.55.87-14.17,5.48,142.89,3.41,116.18,7.45,102.77,3.66,149.47-6.43,79.11-24.35,98.37-6.3,122.3,24.25,32.13,81.16,30,118.46,28.58,12.78-.49,79.8-3,90.56-32.17,1.77-4.81-.76-4.36.84-20.72,1.83-18.75,6.76-34.12,15.6-89.19,4.17-26,8.87-66.44,18.26-147.28,12.69-109.2,10.67-104.69,16.44-140.69,7.72-48.2,11.94-60,14.61-96.72,2.72-37.47,1.4-67.35,0-98.92-2-44.93-4.87-54.15-7.31-105.51-.67-14.12-.92-23.34-1-30.52-.16-11.9,2.71-16.4-.14-23.29-3.39-8.22-10.4-12.32-13.17-14.33-14.41-10.44-13.06-35.65-11.62-74.74,0,0,3.08-87.21-1.44-123.1-3.88-30.72-6.83-31-9.13-57.15-2.51-28.47-.67-42-9.14-50.56-6.27-6.37-13.79-5.54-32.87-4.4-17.64,1.06-35.42-.26-53,2.2-8.84,1.24-44.25,1.56-115.06,2.2-67,.61-100.48.91-127.85,0-37.13-1.23-75.23,8-111.41-2.2C1664.48,1081.72,1640.23,1073.58,1629.6,1087.45Z"/><path class="cls-3" d="M1897.09,767.7h0c-57.16,0-103.92-56.81-103.92-180.22V468c0-123.4,46.76-224.37,103.92-224.37h0c57.15,0,103.92,101,103.92,224.37V587.48C2001,710.89,1954.24,767.7,1897.09,767.7Z"/><path class="cls-3" d="M1558.69,1153.24c13.68-7.21,27.35-6.88,41.71-6.58q.22-25.08,1.36-50c1.26-27.49,3.39-55.33,6.32-82.73l7.2-34.74a1.13,1.13,0,0,0,0-.18,631.38,631.38,0,0,0,0-151.16,2.14,2.14,0,0,0-1.48-1.79l-115.26-36.7a2,2,0,0,0-.64-.1,2.14,2.14,0,0,0-2.14,2.21l2.26,94.53-4.52,65.63L1489,1065.54a2.17,2.17,0,0,0,0,.36l6.8,52.31c12.94,10.11,27.8,18.64,41.85,26.42C1543.51,1147.85,1550.52,1156.46,1558.69,1153.24Z"/><path class="cls-3" d="M1489,1065.77a1.21,1.21,0,0,1,0-.19l4.52-113.92,4.52-65.72-2.26-94.54a1.11,1.11,0,0,1,.43-.92.88.88,0,0,1,.54-.18.75.75,0,0,1,.26,0L1612.29,827a1.05,1.05,0,0,1,.69.9,630.91,630.91,0,0,1,0,151l-7.22,34.84c-2.94,27.43-5.06,55.28-6.32,82.79q-1.14,24.93-1.36,50.06l2.33,0q.22-25.08,1.36-50c1.26-27.47,3.38-55.28,6.3-82.57l7.2-34.74a2.51,2.51,0,0,0,0-.27,632,632,0,0,0,0-151.4,3.23,3.23,0,0,0-2.25-2.69l-115.27-36.7a3.43,3.43,0,0,0-3,.52,3.2,3.2,0,0,0-1.28,2.63l2.25,94.44-4.51,65.66-4.52,114a3.09,3.09,0,0,0,0,.53l6.65,51.15c.86.69,1.74,1.37,2.62,2Z"/><path class="cls-3" d="M2280.58,971.64l-4.72-65.56,2.36-94.54a2.11,2.11,0,0,0-.89-1.77,2.32,2.32,0,0,0-2-.33l-120.56,36.69a2.19,2.19,0,0,0-1.55,1.8,603.67,603.67,0,0,0,0,151.16,1.43,1.43,0,0,0,0,.22l9.3,38.76c2.25,26.06,3.87,52.51,4.83,78.65,1.59,43.57,1.36,87.63-.67,131.41,26.25,12.17,49.57,31,80.5,38,1.72,0,3.15,1.14,4.74,2.39l.26-3.55s18.91-94.6,18.91-94.64L2285.3,1086a2.26,2.26,0,0,0,0-.37Z"/><path class="cls-3" d="M2281.7,971.57,2277,906.1l2.36-94.53a3.19,3.19,0,0,0-1.34-2.66,3.49,3.49,0,0,0-3-.5l-120.57,36.7a3.27,3.27,0,0,0-2.32,2.69,605.74,605.74,0,0,0,0,151.42l.06.34,9.28,38.68c2.25,26,3.87,52.43,4.82,78.52,1.59,43.38,1.36,87.26-.64,130.86l2.19,1c2-44,2.28-88.21.68-132-.95-26.15-2.58-52.63-4.83-78.7l-9.32-38.92a.36.36,0,0,1,0-.1,602.87,602.87,0,0,1,0-150.9,1.1,1.1,0,0,1,.77-.9l120.57-36.7a1.21,1.21,0,0,1,1,.17,1.05,1.05,0,0,1,.44.89l-2.35,94.63,4.72,65.54,4.73,114a1.09,1.09,0,0,1,0,.18L2270,1190.11c-.09.5-18.72,93.69-18.91,94.63l-.21,3c.68.51,1.37,1.08,2.11,1.63l.31-4.23c18.9-94.55,18.9-94.59,18.91-94.64l14.18-104.29a2.54,2.54,0,0,0,0-.55Z"/><path class="cls-3" d="M1784.77,581.89a63,63,0,0,1,7.33,7.48c7.72,10.31,6.4,20,23.72,35.64,18.69,16.9,39.3,22.9,51.76,26.53,17.25,5,43.59,12.69,72.46,3.32,17.51-5.7,28.21-15.15,44.85-29.85a79.22,79.22,0,0,0,9.63-9.78,80.09,80.09,0,0,0,16.54-34.79,257.24,257.24,0,0,1,70.4-2.15c34.25,3.71,26.53,8.54,93.2,26.82,24.89,6.82,45.76,11.66,65.56,29.85a66,66,0,0,1,9.39,10.48c19.45,27.28,23.46,56.3,25.11,69.11,10.1,78.17,55.28,106.61,35.19,138.58-2.77,4.39-10.22,9.42-25.12,19.46-19.84,13.35-52.34,32.58-105.53,53.51-30.85,12.14-36.27,12.12-42.55,20.61a29.34,29.34,0,0,0-4.65,8.84c-5.17,16.64,1.2,67.44,1.2,67.44,3.73,28-3,24-.9,75,.82,20.4,2.48,35.72,3.51,45,5.37,48.8,12.37,65.83,11.19,102.17-.4,12.31-1.67,24.77-1.67,24.78-2.85,25.23-8.31,39.47-12.13,91.3-2.37,32.16-.66,32-3.45,39.8-15.87,44.11-76.08,61.56-117.32,73-92.86,25.66-171.32,15.75-213.92,10-64.08-8.73-98.82-23.66-151.81-46.43-33.12-14.23-47.89-23.63-55.21-39.8-12-26.53,9.63-41.26,13.8-96.18,3.16-41.67-8.29-46.53-3.45-92.86,2.76-26.46,6.67-26.47,13.8-63,10.54-53.94,10.5-97.27,10.35-122.71-.4-68.73,2.16-80.18-6.9-92.87-6-8.39-10.51-10.47-55.2-36.48-65.7-38.23-72.07-43.14-75.91-53.06-2.16-5.57-3.24-12,20.7-79.6,11.41-32.19,20.13-54.65,31-79.59,17.7-40.41,25-50.5,29.36-54.81,0,0,.73-.69,1.7-1.57C1613,586.83,1762.15,562.39,1784.77,581.89Z"/><path class="cls-3" d="M2166.7,1248.13q-.76,16.66-1.88,33.27l-16.21,60.34-30.54,46.06a2.58,2.58,0,0,0-.22.44l-14.19,38.63a2.23,2.23,0,0,0-.11,1,270.84,270.84,0,0,1-4.69,97.75,2.08,2.08,0,0,0,.61,2,2.25,2.25,0,0,0,1.57.63,2.22,2.22,0,0,0,.51-.06l.38-.09-18.5,9.62a2.16,2.16,0,0,0-.88.84c-.56,1-5.32,9.55-.85,18.86,4,8.38,12.4,10.89,14,11.31a2.24,2.24,0,0,0,.57.08,2.19,2.19,0,0,0,.77-.14l104-36.69a2.22,2.22,0,0,0,.85-.53l21.27-21.24a2.16,2.16,0,0,0,.54-.89l16.55-54.08a2.53,2.53,0,0,0,.09-.55l2.36-81,5.22-31.18a1.23,1.23,0,0,0,0-.19l3.94-53.84c-1.59-1.25-3-2.39-4.74-2.39C2216.27,1279.16,2193,1260.3,2166.7,1248.13Zm-32.26,263.06-14.43,7.5a39.72,39.72,0,0,0,10.06-14.37,1.34,1.34,0,0,0,.07-.18l9.72-31.7Z"/><path class="cls-3" d="M2246.88,1342.36l-5.23,31.18-2.37,81.11a.87.87,0,0,1-.05.28L2222.68,1509a1.1,1.1,0,0,1-.26.44l-21.28,21.25a1.29,1.29,0,0,1-.42.26l-104,36.69a1.1,1.1,0,0,1-.67,0c-1.56-.39-9.52-2.78-13.32-10.72-4.23-8.83.28-17,.81-17.88a1.11,1.11,0,0,1,.44-.42l26-13.53-8.68,2a1.19,1.19,0,0,1-1.05-.28,1.07,1.07,0,0,1-.3-1,271.75,271.75,0,0,0,4.71-98.12,1.06,1.06,0,0,1,.06-.5l14.18-38.63a2.26,2.26,0,0,1,.11-.22l30.55-46.06.09-.15,16.25-60.51,0-.2q1.11-16.37,1.87-32.82l-2.19-1q-.78,16.83-1.9,33.6l-16.13,60.08-30.45,45.92a2.91,2.91,0,0,0-.33.66l-14.19,38.63a3.14,3.14,0,0,0-.16,1.49,270.29,270.29,0,0,1-4.68,97.38,3.16,3.16,0,0,0,.91,3l.13.11-15.91,8.27a3.27,3.27,0,0,0-1.32,1.26c-.59,1-5.6,10-.9,19.84,4.22,8.82,13.05,11.46,14.78,11.91a3.53,3.53,0,0,0,.85.1,3.26,3.26,0,0,0,1.16-.2l104-36.69a3.45,3.45,0,0,0,1.26-.79l21.28-21.25a3.22,3.22,0,0,0,.8-1.32l16.55-54.08a3.34,3.34,0,0,0,.13-.82l2.36-80.91,5.21-31.1c0-.1,0-.2,0-.29l3.88-53.1c-.74-.55-1.43-1.12-2.11-1.63Z"/><path class="cls-3" d="M2129.07,1503.83l0,.09a39,39,0,0,1-9.79,14l-6.23,5.64,22.45-11.67,5.5-39.29-2.18-.45Zm4.34,6.68-8.22,4.27a41.55,41.55,0,0,0,5.93-10.07c0-.09.07-.18.09-.27l5.6-18.26Z"/><path class="cls-3" d="M1691,1527.53c-1-5.29-6.1-8.52-9-9.94l-17.66-9.6.38.08a1.7,1.7,0,0,0,.44,0,2.13,2.13,0,0,0,1.52-.64,2.16,2.16,0,0,0,.57-2,283.32,283.32,0,0,1-4.49-97.75,2.25,2.25,0,0,0-.1-1l-13.56-38.62a2,2,0,0,0-.22-.44l-29.19-46-16-66.61c-2.53-35.94-3.64-72.22-3.32-108.37-14.36-.3-28-.63-41.71,6.58-8.17,3.22-15.18-5.39-21-8.61-14-7.78-28.91-16.31-41.85-26.42l6.76,52s18.08,94.66,18.08,94.66c1.83,18.89,2.39,35.27,1.69,48.7l0,.43a82.71,82.71,0,0,0,1.91,24.3,80,80,0,0,0,5.46,15.62l2.25,80.66a2.53,2.53,0,0,0,.09.55l15.82,54.08a2.17,2.17,0,0,0,.51.88l20.34,21.25a2.21,2.21,0,0,0,.8.52l99.45,36.7a2,2,0,0,0,.73.13,2.3,2.3,0,0,0,.45,0C1684.88,1545.47,1692.43,1535.21,1691,1527.53Zm-57.74-36.45-4.92-36.85,8.66,30.65.09.26a39.58,39.58,0,0,0,8.59,12.69Z"/><path class="cls-3" d="M1691,1527.35c-1.09-5.75-6.46-9.18-9.53-10.68l-15.23-8.29.19-.18a3.17,3.17,0,0,0,.84-2.92,282.6,282.6,0,0,1-4.47-97.41,3.1,3.1,0,0,0-.15-1.45l-13.56-38.63a3,3,0,0,0-.32-.65l-29.09-45.9-15.93-66.36c-2.52-35.89-3.63-72.11-3.31-108.19l-2.33,0c-.32,36.17.79,72.48,3.32,108.46l16,66.77,0,.16,29.28,46.2a1.63,1.63,0,0,1,.11.23l13.56,38.62a1.24,1.24,0,0,1,.06.54,284.31,284.31,0,0,0,4.5,98.09,1.17,1.17,0,0,1-.29,1,.87.87,0,0,1-.84.26l-8-1.79,24.48,13.31c2.73,1.35,7.45,4.33,8.37,9.18,1.36,7.2-5.88,16.84-20,19.86a.79.79,0,0,1-.48,0l-99.45-36.7a1,1,0,0,1-.36-.24l-20.34-21.24a1.1,1.1,0,0,1-.26-.46L1532,1434.84a1,1,0,0,1,0-.3l-2.25-80.87-.09-.19a78.19,78.19,0,0,1-5.39-15.42,81.31,81.31,0,0,1-1.89-24l0-.43c.71-13.47.14-29.91-1.71-48.94l-18.07-94.6-6.61-50.84c-.88-.68-1.76-1.36-2.62-2l6.91,53.15s0,.07,18.08,94.62c1.82,18.84,2.39,35.18,1.68,48.55l0,.43a83.21,83.21,0,0,0,1.94,24.59,79.92,79.92,0,0,0,5.44,15.62l2.24,80.46a3.6,3.6,0,0,0,.12.8l15.82,54.08a3.29,3.29,0,0,0,.77,1.31l20.34,21.25a3.34,3.34,0,0,0,1.24.81l99.45,36.7a3.28,3.28,0,0,0,1.17.21,3.51,3.51,0,0,0,.71-.08C1684.64,1546.37,1692.51,1535.51,1691,1527.35Z"/><path class="cls-3" d="M1631,1491.73l19.89,10.82-5.54-5.46a38.8,38.8,0,0,1-8.35-12.34s0-.1,0-.14l-8.66-30.65-2.29.4,4.93,36.85Zm3.7-6.57a3.3,3.3,0,0,0,.13.37,41,41,0,0,0,4.8,8.4l-6.45-3.51-2.71-20.2Z"/><path class="cls-3" d="M2053.52,313.75c0,128.42-76.26,306.66-170.34,306.66s-170.34-178.24-170.34-306.66,76.27-172.22,170.34-172.22S2053.52,185.34,2053.52,313.75Z"/><rect class="cls-3" x="1750.71" y="579.36" width="297.23" height="99.01"/><path class="cls-3" d="M1860.4,144.62c-11.8,12.38-9.38,39.16,0,56,11.44,20.51,29.94,20.26,55,38.74,22.95,16.92,33.79,36.57,48.65,63.5,17.33,31.39,31.48,71.66,36,124.83,12.25,145.27-62,216.94-23.27,260.44,20.17,22.68,60.63,26,87.79,19.38,29.14-7.16,46.91-26.84,51.83-32.29,58.31-64.6,21.09-197.48-3.17-284.12-26.15-93.33-43.84-153.32-100.48-200.17C1961.72,148.74,1883.29,120.62,1860.4,144.62Z"/><path class="cls-3" d="M1856,151c-20.74-18.29-78.15,5.3-113.67,37.06-45.69,40.85-52,92.34-66,173.2-44,253.27-76.32,289.58-40.06,331.25,39.33,45.2,126.71,59.19,163.48,26.19,50.38-45.23-37-140.3-17.33-308.26C1799.82,262.1,1886.55,177.94,1856,151Z"/><path class="cls-2" d="M2089.69,1055.08c-4.14,5.58-3.65,11.53-6.9,30-3.5,20-6.61,27.43-10.34,42.86-8.54,35.22-6.09,52.92-12.08,96.45-5.56,40.41-9.69,39.88-17.25,83.58-2.31,13.41-6.95,42.52-10.35,102.88-5.21,92.53-2.35,166.8-1.72,182.18.31,7.62,0-.63,12,142.33,4,48.48,5.71,68.71,7,84.85,7,86.15,6.42,82.89,8.63,109.31,10.16,121.78,15,157.39,37.94,177.89,11.81,10.53,26.27,12,55.2,15,43.48,4.47,100.35,10.32,125.91-27.86,9.56-14.28,6.57-22.51,8.63-128.6,1.29-66.91,2.84-81.87,3.36-105.2.33-15.2.08-23.32.09-32,0-31.9,2.52-35.67,4.86-81.44,2.1-41,.56-47.54,4.42-70.85,1.46-8.83,2.68-14.73,4.51-27.74,2.49-17.59,1.22-33.69,3.45-49.29,2.75-19.24,11-39.15,15.53-38.58,2.78.35,3.6,8.5,5.17,23.57,6,58,10.14,98.12,10.35,115.74.48,40.51.82-13.82,5.18,139.31,3.22,113.28,7,100.21,3.44,145.74-6.06,77.13-23,95.91-5.94,119.24,22.9,31.33,76.65,29.24,111.88,27.86,12.06-.47,75.36-2.93,85.52-31.36,1.68-4.69-.72-4.25.79-20.2,1.74-18.29,6.39-33.27,14.74-87,3.94-25.36,8.37-64.77,17.24-143.59,12-106.47,10.08-102.07,15.53-137.17,7.29-47,11.28-58.5,13.8-94.3,2.57-36.54,1.32-65.67,0-96.45-1.89-43.81-4.6-52.8-6.9-102.88-.64-13.76-.87-22.75-1-29.75-.15-11.61,2.56-16-.13-22.72-3.2-8-9.82-12-12.44-14-13.61-10.17-12.33-34.76-11-72.87,0,0,2.91-85-1.37-120-3.65-29.95-6.44-30.2-8.62-55.72-2.37-27.76-.63-40.93-8.62-49.3-5.93-6.21-13-5.4-31.05-4.29-16.66,1-33.45-.25-50,2.15-8.34,1.2-41.78,1.52-108.67,2.14-63.26.59-94.89.89-120.74,0-35.06-1.2-71.05,7.75-105.21-2.14C2122.64,1049.49,2099.74,1041.56,2089.69,1055.08Z"/><path class="cls-2" d="M2342.31,743.32h0c-54,0-98.14-55.39-98.14-175.71V451.08c0-120.32,44.17-218.77,98.14-218.77h0c54,0,98.15,98.45,98.15,218.77V567.61C2440.46,687.93,2396.29,743.32,2342.31,743.32Z"/><path class="cls-2" d="M2022.72,1119.22c12.92-7,25.84-6.7,39.4-6.41q.21-24.45,1.29-48.78c1.18-26.82,3.19-54,6-80.67l6.8-33.87,0-.17a636.6,636.6,0,0,0,0-147.39,2.09,2.09,0,0,0-1.39-1.75L1966,764.4a2.15,2.15,0,0,0-.61-.09,1.94,1.94,0,0,0-1.21.42,2.11,2.11,0,0,0-.81,1.72l2.13,92.18-4.26,64-4.27,111.11a2.08,2.08,0,0,0,0,.35l6.43,51c12.22,9.86,26.25,18.18,39.52,25.76C2008.39,1114,2015,1122.37,2022.72,1119.22Z"/><path class="cls-2" d="M1956.93,1034a1.34,1.34,0,0,1,0-.2l4.27-111.07,4.26-64.07-2.13-92.18a1.09,1.09,0,0,1,.4-.89.84.84,0,0,1,.52-.18.67.67,0,0,1,.24,0l108.86,35.77a1,1,0,0,1,.66.88,634.66,634.66,0,0,1,0,147.25l-6.82,34c-2.77,26.74-4.78,53.9-6,80.72q-1.08,24.32-1.28,48.81l2.2,0q.21-24.45,1.29-48.77c1.18-26.78,3.19-53.9,5.94-80.51l6.8-33.87c0-.09,0-.18,0-.26a637,637,0,0,0,0-147.61,3.14,3.14,0,0,0-2.13-2.63L1965.2,763.41a3.13,3.13,0,0,0-4.08,3.07l2.13,92.08-4.27,64-4.26,111.1a3,3,0,0,0,0,.52l6.28,49.87c.81.67,1.64,1.34,2.47,2Z"/><path class="cls-2" d="M2704.5,942.17,2700,878.24l2.23-92.17a2.11,2.11,0,0,0-.85-1.73,2.08,2.08,0,0,0-1.26-.42,2,2,0,0,0-.64.1l-113.87,35.77a2.12,2.12,0,0,0-1.46,1.75,608.37,608.37,0,0,0,0,147.39,1.7,1.7,0,0,0,0,.22l8.78,37.79c2.13,25.4,3.66,51.2,4.56,76.68,1.51,42.48,1.29,85.44-.63,128.12,24.79,11.87,46.82,30.26,76,37,1.63,0,3,1.11,4.48,2.33l.24-3.47s17.86-92.23,17.86-92.27l13.4-101.68a2.17,2.17,0,0,0,0-.36Z"/><path class="cls-2" d="M2705.55,942.09l-4.46-63.82,2.23-92.18a3.15,3.15,0,0,0-1.26-2.59,3.25,3.25,0,0,0-2.86-.48L2585.33,818.8a3.14,3.14,0,0,0-2.19,2.62,609.76,609.76,0,0,0,0,147.64,3.06,3.06,0,0,0,0,.32l8.76,37.72c2.13,25.36,3.66,51.12,4.56,76.55,1.5,42.31,1.28,85.09-.61,127.6l2.07,1c1.93-42.86,2.16-86,.65-128.66-.9-25.5-2.44-51.31-4.57-76.73l-8.8-38a.36.36,0,0,1,0-.1,607.58,607.58,0,0,1,0-147.13,1,1,0,0,1,.73-.87L2699.84,785a1.08,1.08,0,0,1,.95.16,1,1,0,0,1,.42.86L2699,878.31l4.46,63.9,4.47,111.16a1.09,1.09,0,0,1,0,.18l-13.39,101.63c-.09.48-17.68,91.35-17.85,92.26l-.21,2.88c.64.49,1.3,1,2,1.59l.29-4.13c17.85-92.18,17.85-92.22,17.86-92.27L2710,1053.82a2.39,2.39,0,0,0,0-.53Z"/><path class="cls-2" d="M2236.24,562.16a59.85,59.85,0,0,1,6.92,7.29c7.3,10,6.05,19.47,22.41,34.75,17.65,16.48,37.11,22.33,48.88,25.86,16.29,4.9,41.17,12.38,68.43,3.24,16.54-5.55,26.64-14.77,42.36-29.1a76.25,76.25,0,0,0,9.09-9.53A79.47,79.47,0,0,0,2450,560.74a235.94,235.94,0,0,1,66.48-2.1c32.35,3.63,25,8.33,88,26.15,23.51,6.66,43.22,11.37,61.91,29.11a64.13,64.13,0,0,1,8.88,10.21c18.36,26.61,22.15,54.9,23.71,67.39,9.54,76.21,52.21,104,33.23,135.11-2.61,4.29-9.65,9.19-23.73,19-18.72,13-49.42,31.76-99.65,52.17-29.14,11.84-34.26,11.82-40.19,20.1a29,29,0,0,0-4.39,8.62c-4.88,16.22,1.13,65.75,1.13,65.75,3.52,27.3-2.79,23.38-.85,73.14.78,19.88,2.35,34.82,3.31,43.89,5.08,47.58,11.69,64.18,10.57,99.62-.38,12-1.58,24.15-1.58,24.15-2.68,24.61-7.84,38.49-11.45,89-2.24,31.36-.63,31.24-3.26,38.8-15,43-71.85,60-110.79,71.14-87.71,25-161.8,15.36-202,9.7-60.52-8.52-93.32-23.07-143.37-45.27-31.28-13.88-45.23-23-52.14-38.8-11.34-25.87,9.1-40.24,13-93.78,3-40.63-7.82-45.37-3.26-90.54,2.61-25.8,6.3-25.81,13-61.44,9.95-52.59,9.92-94.83,9.77-119.64-.38-67,2-78.17-6.51-90.54-5.66-8.19-9.93-10.21-52.14-35.57-62-37.28-68.06-42.07-71.69-51.74-2-5.43-3.06-11.72,19.55-77.61,10.77-31.38,19-53.28,29.33-77.6,16.71-39.4,23.64-49.24,27.73-53.45,0,0,.68-.67,1.6-1.52C2074.05,567,2214.87,543.14,2236.24,562.16Z"/><path class="cls-2" d="M2596.94,1211.74q-.72,16.26-1.78,32.44l-15.3,58.83L2551,1347.93a1.56,1.56,0,0,0-.21.43l-13.4,37.66a2,2,0,0,0-.1,1,273,273,0,0,1-4.43,95.3,2.1,2.1,0,0,0,2,2.56,2.52,2.52,0,0,0,.48,0l.36-.09-17.47,9.38a2.09,2.09,0,0,0-.83.81c-.53.93-5,9.31-.81,18.4,3.79,8.17,11.72,10.62,13.27,11a2.5,2.5,0,0,0,.54.07,2.18,2.18,0,0,0,.72-.13l98.25-35.78a2.07,2.07,0,0,0,.79-.51l20.09-20.72a2.1,2.1,0,0,0,.51-.86l15.63-52.73a1.89,1.89,0,0,0,.08-.53l2.23-79,4.94-30.4c0-.07,0-.13,0-.19l3.72-52.49c-1.5-1.22-2.85-2.33-4.48-2.33C2643.76,1242,2621.73,1223.61,2596.94,1211.74Zm-30.46,256.49-13.63,7.32a39,39,0,0,0,9.5-14,.58.58,0,0,0,.06-.17l9.19-30.91Z"/><path class="cls-2" d="M2672.66,1303.62l-4.93,30.4-2.24,79.09a1.26,1.26,0,0,1,0,.27l-15.63,52.72a1.06,1.06,0,0,1-.26.43l-20.09,20.72a1,1,0,0,1-.4.25l-98.24,35.78a1,1,0,0,1-.63,0,19.94,19.94,0,0,1-12.58-10.45c-4-8.61.27-16.56.77-17.44a1.08,1.08,0,0,1,.41-.41l24.58-13.19-8.21,2a1.12,1.12,0,0,1-1-.28,1,1,0,0,1-.29-1,273.24,273.24,0,0,0,4.45-95.67,1.11,1.11,0,0,1,.05-.48l13.4-37.66a.91.91,0,0,1,.11-.22l28.84-44.91.09-.14,15.34-59,0-.19q1-16,1.76-32l-2.07-1q-.73,16.41-1.79,32.76l-15.24,58.58-28.75,44.77a3,3,0,0,0-.32.65l-13.4,37.66a3.23,3.23,0,0,0-.15,1.45,271.51,271.51,0,0,1-4.41,94.94,3.1,3.1,0,0,0,.86,2.93.65.65,0,0,0,.12.11l-15,8.06a3.21,3.21,0,0,0-1.25,1.23c-.55,1-5.28,9.79-.85,19.35,4,8.59,12.33,11.17,14,11.6a3.22,3.22,0,0,0,.81.11,3.14,3.14,0,0,0,1.09-.2l98.24-35.77a3.26,3.26,0,0,0,1.19-.77l20.09-20.72a3,3,0,0,0,.76-1.3l15.63-52.72a3.11,3.11,0,0,0,.13-.8l2.22-78.88,4.93-30.33,0-.29,3.67-51.76c-.7-.54-1.36-1.1-2-1.59Z"/><path class="cls-2" d="M2561.4,1461.06l0,.09a38.13,38.13,0,0,1-9.24,13.63l-5.89,5.5,21.21-11.38,5.19-38.31-2.06-.43Zm4.1,6.5-7.76,4.17a40.88,40.88,0,0,0,5.6-9.82l.09-.26,5.29-17.81Z"/><path class="cls-2" d="M2147.66,1484.16c-.95-5.16-5.76-8.31-8.47-9.69l-16.68-9.36.37.08a1.84,1.84,0,0,0,.41,0,2,2,0,0,0,1.44-.63,2.15,2.15,0,0,0,.53-1.93,285.44,285.44,0,0,1-4.24-95.31,2.14,2.14,0,0,0-.1-1l-12.8-37.66a1.9,1.9,0,0,0-.21-.43l-27.56-44.9-15.1-64.94c-2.39-35-3.43-70.42-3.13-105.66-13.56-.29-26.48-.61-39.4,6.41-7.71,3.15-14.33-5.24-19.84-8.39-13.27-7.58-27.3-15.9-39.52-25.76l6.38,50.69s17.08,92.3,17.08,92.3c1.72,18.41,2.26,34.39,1.59,47.47l0,.43a82.83,82.83,0,0,0,1.8,23.69,79.68,79.68,0,0,0,5.16,15.23l2.12,78.64a2.34,2.34,0,0,0,.09.54l14.94,52.73a2,2,0,0,0,.48.86l19.21,20.71a2,2,0,0,0,.76.52l93.92,35.78a2.11,2.11,0,0,0,1.11.08C2141.9,1501.65,2149,1491.65,2147.66,1484.16Zm-54.52-35.54-4.66-35.92,8.19,29.88a1.83,1.83,0,0,0,.08.25,38.78,38.78,0,0,0,8.11,12.37Z"/><path class="cls-2" d="M2147.64,1484c-1-5.6-6.1-8.94-9-10.41l-14.39-8.08.18-.17a3.18,3.18,0,0,0,.8-2.85,284.49,284.49,0,0,1-4.23-95,3.21,3.21,0,0,0-.14-1.41l-12.81-37.66a2.88,2.88,0,0,0-.3-.64L2080.28,1283l-15-64.71c-2.39-35-3.43-70.3-3.13-105.48l-2.2,0c-.31,35.27.74,70.67,3.13,105.75l15.12,65.1,0,.16,27.65,45a2.26,2.26,0,0,1,.11.22l12.8,37.67a1.13,1.13,0,0,1,.06.52,285.67,285.67,0,0,0,4.25,95.64,1.16,1.16,0,0,1-.27,1,.85.85,0,0,1-.79.26l-7.57-1.75,23.12,13c2.58,1.31,7,4.22,7.9,8.94,1.29,7-5.55,16.43-18.84,19.38a.81.81,0,0,1-.46,0l-93.91-35.78a1,1,0,0,1-.35-.23L2012.7,1447a1.22,1.22,0,0,1-.24-.45l-14.94-52.72a1.47,1.47,0,0,1,0-.29l-2.12-78.85-.09-.19a78.28,78.28,0,0,1-5.09-15,81.86,81.86,0,0,1-1.78-23.42l0-.42c.67-13.14.13-29.16-1.61-47.72-.17-.91-17-91.78-17.07-92.24l-6.24-49.56c-.83-.66-1.66-1.33-2.47-2l6.52,51.81s0,.07,17.08,92.27c1.72,18.37,2.25,34.29,1.59,47.33l0,.42a83.88,83.88,0,0,0,1.82,24,80.41,80.41,0,0,0,5.14,15.24l2.12,78.44a3.34,3.34,0,0,0,.12.78l14.94,52.73a3.08,3.08,0,0,0,.72,1.28l19.21,20.72a3.07,3.07,0,0,0,1.18.79l93.91,35.78a3.25,3.25,0,0,0,1.11.2,3.05,3.05,0,0,0,.67-.07C2141.68,1502.53,2149.11,1491.94,2147.64,1484Z"/><path class="cls-2" d="M2091,1449.26l18.78,10.54-5.23-5.32a37.43,37.43,0,0,1-7.88-12,.69.69,0,0,1,0-.13l-8.18-29.89-2.16.39,4.65,35.93Zm3.49-6.41a2.53,2.53,0,0,0,.12.36,40.69,40.69,0,0,0,4.54,8.19l-6.1-3.42-2.55-19.69Z"/><path class="cls-2" d="M2490.06,300.72c0,125.21-72,299-160.88,299s-160.87-173.79-160.87-299,72-167.92,160.87-167.92S2490.06,175.51,2490.06,300.72Z"/><rect class="cls-2" x="2204.07" y="559.69" width="280.71" height="96.54"/><path class="cls-2" d="M2181.91,364.52c18.1,1.78,41.06-43.87,44.32-83.94,3.37-41.35-13.22-89.21-31.66-90.24-16-.9-30.47,33.38-35.88,51.41C2142.42,296,2160.87,362.46,2181.91,364.52Z"/><path class="cls-2" d="M2175.11,174.38c-.52-25.35,60.11-48.22,90.46-55.7,16.56-4.08,45.24-3.89,102.58-3.5,38.82.27,47.21,1.61,57.42,7.08,34.35,18.39,46.68,60.91,49.09,69.24,5.91,20.4,9.26,32.24,4.19,42.41-15.64,31.39-95.94,14.52-149.63,3.26C2265.27,223.76,2175.75,205,2175.11,174.38Z"/><path class="cls-2" d="M2472.6,356.22c-18.1,1.78-41-43.87-44.32-83.94-3.37-41.35,13.22-89.2,31.66-90.24,15.95-.89,30.47,33.38,35.88,51.42C2512.09,287.69,2493.64,354.16,2472.6,356.22Z"/><path class="cls-1" d="M2562.18,1074.26c-4.39,5.72-3.87,11.82-7.31,30.77-3.71,20.46-7,28.14-10.95,44-9,36.11-6.45,54.27-12.79,98.91-5.88,41.45-10.26,40.91-18.26,85.73-2.45,13.75-7.36,43.61-11,105.52-5.52,94.9-2.49,171.07-1.83,186.84.33,7.82,0-.64,12.67,146,4.29,49.72,6,70.47,7.42,87,7.38,88.36,6.8,85,9.14,112.11,10.75,124.9,15.87,161.43,40.18,182.45,12.49,10.81,27.81,12.33,58.44,15.38,46,4.59,106.26,10.59,133.32-28.57,10.12-14.65,6.95-23.08,9.13-131.89,1.38-68.63,3-84,3.56-107.9.36-15.59.1-23.92.1-32.79,0-32.72,2.67-36.59,5.15-83.53,2.22-42.07.59-48.76,4.67-72.67,1.55-9,2.84-15.11,4.79-28.44,2.63-18,1.29-34.56,3.65-50.56,2.91-19.73,11.68-40.15,16.44-39.57,2.94.36,3.82,8.72,5.48,24.18,6.38,59.49,10.73,100.63,11,118.7.51,41.55.87-14.18,5.48,142.88,3.41,116.19,7.45,102.78,3.66,149.48-6.43,79.1-24.35,98.37-6.29,122.3,24.24,32.13,81.15,30,118.45,28.57,12.78-.48,79.8-3,90.56-32.17,1.78-4.81-.76-4.36.84-20.71,1.83-18.76,6.76-34.12,15.6-89.2,4.17-26,8.87-66.43,18.26-147.28,12.69-109.19,10.67-104.68,16.44-140.68,7.72-48.2,11.94-60,14.61-96.72,2.72-37.47,1.4-67.35,0-98.92-2-44.93-4.87-54.15-7.31-105.51-.67-14.12-.92-23.34-1-30.52-.15-11.9,2.71-16.4-.13-23.29-3.4-8.22-10.41-12.33-13.18-14.33-14.41-10.44-13.06-35.65-11.62-74.74,0,0,3.08-87.21-1.44-123.1-3.87-30.72-6.83-31-9.13-57.15-2.51-28.47-.67-42-9.13-50.56-6.28-6.37-13.8-5.54-32.88-4.4-17.64,1.06-35.42-.26-53,2.2-8.84,1.24-44.25,1.56-115.06,2.2-67,.6-100.48.91-127.85,0-37.12-1.24-75.23,8-111.4-2.2C2597.06,1068.52,2572.81,1060.39,2562.18,1074.26Z"/><path class="cls-1" d="M2829.67,754.5h0c-57.16,0-103.92-56.8-103.92-180.21V454.77c0-123.4,46.76-224.37,103.92-224.37h0c57.15,0,103.92,101,103.92,224.37V574.29C2933.59,697.7,2886.82,754.5,2829.67,754.5Z"/><path class="cls-1" d="M2491.27,1140c13.68-7.2,27.35-6.87,41.71-6.57q.22-25.08,1.37-50c1.25-27.5,3.38-55.33,6.31-82.73l7.2-34.74a.57.57,0,0,0,0-.18,631.38,631.38,0,0,0,0-151.16,2.17,2.17,0,0,0-1.47-1.8l-115.27-36.69a2,2,0,0,0-.64-.1,2.14,2.14,0,0,0-2.14,2.2l2.26,94.54-4.52,65.63-4.52,113.94a2.23,2.23,0,0,0,0,.37l6.8,52.31c12.94,10.11,27.8,18.64,41.85,26.41C2476.1,1134.66,2483.1,1143.27,2491.27,1140Z"/><path class="cls-1" d="M2421.6,1052.58a1.34,1.34,0,0,1,0-.2l4.52-113.92,4.52-65.71-2.26-94.54a1.1,1.1,0,0,1,.43-.92.91.91,0,0,1,.54-.19.75.75,0,0,1,.26,0l115.27,36.69a1.05,1.05,0,0,1,.69.9,630.91,630.91,0,0,1,0,151l-7.22,34.84c-2.93,27.42-5.06,55.28-6.32,82.79q-1.14,24.93-1.36,50.06l2.33,0q.22-25.07,1.36-50c1.26-27.47,3.38-55.28,6.3-82.58l7.2-34.73c0-.09,0-.19,0-.27a633.38,633.38,0,0,0,0-151.4,3.26,3.26,0,0,0-2.26-2.69l-115.27-36.7a3.43,3.43,0,0,0-3,.52,3.17,3.17,0,0,0-1.28,2.63l2.26,94.44-4.52,65.66-4.52,113.95a3.17,3.17,0,0,0,0,.53l6.65,51.15,2.62,2Z"/><path class="cls-1" d="M3213.16,958.45l-4.72-65.57,2.36-94.53a2.09,2.09,0,0,0-.89-1.77,2.23,2.23,0,0,0-1.34-.43,2.18,2.18,0,0,0-.67.1l-120.57,36.69a2.18,2.18,0,0,0-1.55,1.79,605,605,0,0,0,0,151.17,1.7,1.7,0,0,0,0,.22l9.3,38.76c2.25,26,3.88,52.51,4.83,78.64,1.59,43.57,1.36,87.64-.67,131.42,26.25,12.17,49.57,31,80.5,38,1.72,0,3.15,1.14,4.74,2.39l.26-3.56s18.91-94.59,18.91-94.63l14.19-104.29a2.29,2.29,0,0,0,0-.37Z"/><path class="cls-1" d="M3214.28,958.37l-4.72-65.46,2.36-94.53a3.16,3.16,0,0,0-1.34-2.66,3.49,3.49,0,0,0-3-.5L3087,831.91a3.28,3.28,0,0,0-2.32,2.69,605.82,605.82,0,0,0,0,151.43l.06.33,9.28,38.69c2.25,26,3.87,52.42,4.82,78.51,1.59,43.39,1.36,87.27-.64,130.87q1.09.49,2.19,1c2-44,2.28-88.21.69-132-1-26.15-2.59-52.63-4.84-78.7l-9.32-38.92a.36.36,0,0,1,0-.1,602.95,602.95,0,0,1,0-150.91,1.09,1.09,0,0,1,.77-.89l120.57-36.7a1.17,1.17,0,0,1,1,.17,1,1,0,0,1,.44.88L3207.33,893l4.72,65.53,4.73,114a1.09,1.09,0,0,1,0,.18l-14.18,104.23c-.09.5-18.72,93.69-18.9,94.63l-.22,3c.68.5,1.37,1.08,2.11,1.63l.31-4.24c18.9-94.54,18.9-94.58,18.91-94.63L3219,1073a3.41,3.41,0,0,0,0-.55Z"/><path class="cls-1" d="M2717.35,568.7a63,63,0,0,1,7.33,7.48c7.72,10.31,6.4,20,23.72,35.63,18.69,16.91,39.31,22.91,51.76,26.54,17.25,5,43.59,12.69,72.46,3.31,17.51-5.69,28.21-15.14,44.85-29.85a78.4,78.4,0,0,0,9.63-9.77,80.09,80.09,0,0,0,16.54-34.79,257.61,257.61,0,0,1,70.4-2.16c34.25,3.72,26.53,8.54,93.2,26.82,24.89,6.83,45.76,11.66,65.56,29.85a66.9,66.9,0,0,1,9.39,10.48c19.45,27.29,23.46,56.31,25.11,69.12,10.1,78.16,55.28,106.61,35.19,138.57-2.76,4.4-10.22,9.42-25.12,19.46-19.84,13.36-52.34,32.58-105.53,53.52-30.85,12.14-36.27,12.11-42.55,20.6a29.61,29.61,0,0,0-4.65,8.85c-5.17,16.64,1.2,67.43,1.2,67.43,3.73,28-3,24-.9,75,.83,20.39,2.48,35.71,3.51,45,5.37,48.81,12.37,65.84,11.19,102.18-.4,12.31-1.67,24.77-1.67,24.77-2.84,25.24-8.31,39.47-12.13,91.31-2.37,32.16-.66,32-3.45,39.79-15.87,44.12-76.08,61.57-117.32,73-92.86,25.66-171.32,15.75-213.92,10-64.08-8.74-98.82-23.66-151.81-46.44-33.12-14.23-47.89-23.63-55.21-39.79-12-26.54,9.63-41.27,13.8-96.18,3.16-41.67-8.29-46.54-3.45-92.86,2.76-26.46,6.67-26.47,13.8-63,10.54-53.93,10.5-97.26,10.35-122.71-.4-68.72,2.16-80.17-6.9-92.86-6-8.39-10.51-10.47-55.2-36.48-65.7-38.24-72.07-43.14-75.91-53.06-2.16-5.57-3.24-12,20.7-79.6,11.41-32.19,20.13-54.65,31.06-79.6,17.69-40.4,25-50.5,29.35-54.81,0,0,.73-.69,1.7-1.57C2545.61,573.64,2694.73,549.19,2717.35,568.7Z"/><path class="cls-1" d="M3099.28,1234.94q-.77,16.66-1.88,33.26l-16.2,60.35-30.55,46.06a2.58,2.58,0,0,0-.22.44l-14.19,38.63a2.06,2.06,0,0,0-.1,1,271.19,271.19,0,0,1-4.7,97.75,2.09,2.09,0,0,0,.61,2,2.29,2.29,0,0,0,1.57.62,2.21,2.21,0,0,0,.51,0l.38-.09-18.5,9.62a2.2,2.2,0,0,0-.88.83c-.56,1-5.31,9.55-.85,18.87,4,8.38,12.4,10.89,14,11.31a2.25,2.25,0,0,0,.58.07,2.17,2.17,0,0,0,.76-.13l104-36.69a2.55,2.55,0,0,0,.84-.53L3155.8,1497a2.13,2.13,0,0,0,.54-.88l16.55-54.08a2.53,2.53,0,0,0,.09-.55l2.36-81,5.22-31.18a1.37,1.37,0,0,0,0-.19l3.94-53.84c-1.59-1.25-3-2.39-4.74-2.39C3148.85,1266,3125.53,1247.11,3099.28,1234.94ZM3067,1498l-14.43,7.5a40,40,0,0,0,10.07-14.37l.06-.18,9.72-31.7Z"/><path class="cls-1" d="M3179.46,1329.17l-5.23,31.18-2.37,81.11a.92.92,0,0,1-.05.28l-16.54,54.07a1.29,1.29,0,0,1-.27.45l-21.28,21.24a1.17,1.17,0,0,1-.42.27l-104,36.69a1.1,1.1,0,0,1-.67,0c-1.56-.4-9.52-2.78-13.32-10.72-4.23-8.83.28-17,.81-17.89a1.26,1.26,0,0,1,.44-.42l26-13.52-8.68,2a1.17,1.17,0,0,1-1-.28,1.06,1.06,0,0,1-.31-1,271.8,271.8,0,0,0,4.71-98.13,1.08,1.08,0,0,1,.06-.5l14.18-38.62a1.51,1.51,0,0,1,.11-.22l30.55-46.07.09-.14,16.25-60.51,0-.2q1.11-16.37,1.87-32.82-1.1-.53-2.19-1-.78,16.83-1.9,33.6l-16.13,60.08L3049.71,1374a2.91,2.91,0,0,0-.33.66l-14.19,38.63a3.14,3.14,0,0,0-.16,1.49,270.24,270.24,0,0,1-4.68,97.37,3.14,3.14,0,0,0,.91,3l.13.12-15.91,8.27a3.31,3.31,0,0,0-1.32,1.25c-.59,1-5.59,10-.9,19.85,4.22,8.81,13,11.46,14.78,11.9a3.56,3.56,0,0,0,.86.11,3.48,3.48,0,0,0,1.15-.2l104-36.69a3.45,3.45,0,0,0,1.26-.79l21.28-21.25a3.19,3.19,0,0,0,.8-1.33l16.55-54.08a2.81,2.81,0,0,0,.13-.82l2.36-80.9,5.21-31.11a2.54,2.54,0,0,0,0-.29l3.88-53.09c-.74-.55-1.43-1.13-2.11-1.63Z"/><path class="cls-1" d="M3061.65,1490.64l0,.09a39.13,39.13,0,0,1-9.79,14l-6.23,5.64,22.45-11.67,5.5-39.3-2.18-.44Zm4.34,6.67-8.22,4.28a41.93,41.93,0,0,0,5.93-10.07,2.29,2.29,0,0,0,.09-.28l5.6-18.25Z"/><path class="cls-1" d="M2623.56,1514.34c-1-5.3-6.1-8.53-9-9.94l-17.66-9.6.39.08a2.1,2.1,0,0,0,.43,0,2.14,2.14,0,0,0,2.09-2.63,283.31,283.31,0,0,1-4.49-97.75,2.09,2.09,0,0,0-.1-1l-13.56-38.63a2.58,2.58,0,0,0-.22-.44l-29.19-46-16-66.6c-2.53-35.95-3.64-72.23-3.32-108.37-14.36-.3-28-.63-41.71,6.57-8.17,3.23-15.17-5.38-21-8.61-14.05-7.77-28.91-16.3-41.85-26.41l6.76,52s18.08,94.67,18.08,94.67c1.83,18.89,2.4,35.27,1.69,48.69l0,.43a82.52,82.52,0,0,0,1.92,24.31,79.53,79.53,0,0,0,5.45,15.62l2.25,80.66a2.63,2.63,0,0,0,.09.55l15.82,54.07a2.21,2.21,0,0,0,.51.89l20.34,21.24a2.08,2.08,0,0,0,.81.53l99.44,36.7a2.09,2.09,0,0,0,1.18.08C2617.46,1532.28,2625,1522,2623.56,1514.34Zm-57.74-36.46L2560.9,1441l8.66,30.65.09.25a39.48,39.48,0,0,0,8.59,12.69Z"/><path class="cls-1" d="M2623.54,1514.15c-1.09-5.75-6.46-9.17-9.52-10.68l-15.24-8.28.19-.18a3.14,3.14,0,0,0,.84-2.92,282.6,282.6,0,0,1-4.47-97.41,3.1,3.1,0,0,0-.15-1.45l-13.56-38.63a3,3,0,0,0-.32-.65l-29.09-45.9-15.93-66.37c-2.52-35.88-3.62-72.11-3.31-108.19l-2.33,0c-.32,36.17.79,72.48,3.32,108.45l16,66.78,0,.16,29.28,46.2a2.26,2.26,0,0,1,.11.22l13.56,38.63a1.24,1.24,0,0,1,.06.54,284.31,284.31,0,0,0,4.5,98.09,1.15,1.15,0,0,1-.29,1,.86.86,0,0,1-.84.27l-8-1.79,24.48,13.31c2.73,1.34,7.45,4.32,8.37,9.17,1.37,7.21-5.87,16.85-19.95,19.87a.87.87,0,0,1-.48,0l-99.45-36.7a1,1,0,0,1-.36-.24l-20.34-21.24a1.17,1.17,0,0,1-.26-.46l-15.82-54.08a.93.93,0,0,1,0-.29l-2.25-80.87-.09-.19a78.19,78.19,0,0,1-5.39-15.42,81.68,81.68,0,0,1-1.89-24l0-.44c.71-13.47.14-29.9-1.71-48.93l-18.07-94.61-6.61-50.83-2.62-2,6.91,53.14s0,.07,18.08,94.63c1.82,18.84,2.39,35.18,1.68,48.55l0,.43a83.15,83.15,0,0,0,1.94,24.58A80.68,80.68,0,0,0,2460,1341l2.24,80.46a3.6,3.6,0,0,0,.12.8l15.82,54.07a3.26,3.26,0,0,0,.77,1.32l20.34,21.25a3.42,3.42,0,0,0,1.25.81l99.44,36.69a3.32,3.32,0,0,0,1.17.21,3.42,3.42,0,0,0,.71-.07C2617.22,1533.18,2625.09,1522.32,2623.54,1514.15Z"/><path class="cls-1" d="M2563.57,1478.54l19.89,10.81-5.54-5.45a38.91,38.91,0,0,1-8.35-12.34s0-.1,0-.14l-8.67-30.65-2.29.4,4.93,36.84Zm3.7-6.57a2.6,2.6,0,0,0,.13.36,40.75,40.75,0,0,0,4.8,8.4l-6.45-3.51L2563,1457Z"/><path class="cls-1" d="M2986.1,300.56c0,128.42-76.26,306.66-170.34,306.66S2645.42,429,2645.42,300.56s76.27-172.22,170.34-172.22S2986.1,172.14,2986.1,300.56Z"/><rect class="cls-1" x="2683.29" y="566.17" width="297.23" height="99.01"/><path class="cls-1" d="M2793,131.43c-11.8,12.38-9.37,39.16,0,56,11.44,20.52,29.94,20.27,55,38.75,22.95,16.92,33.79,36.57,48.65,63.49,17.33,31.4,31.48,71.67,36,124.84,12.25,145.26-62,216.94-23.27,260.44,20.17,22.67,60.63,26,87.79,19.37,29.14-7.15,46.91-26.83,51.83-32.28,58.31-64.6,21.09-197.49-3.17-284.12-26.15-93.33-43.84-153.33-100.48-200.17C2894.3,135.55,2815.87,107.43,2793,131.43Z"/><path class="cls-1" d="M2788.62,137.83c-20.74-18.29-78.14,5.3-113.67,37.06-45.69,40.85-52,92.34-66,173.2-44,253.27-76.32,289.58-40.06,331.25,39.33,45.2,126.71,59.19,163.48,26.18,50.38-45.22-37-140.29-17.33-308.25C2732.4,248.91,2819.14,164.75,2788.62,137.83Z"/></svg>