<svg id="Layer_1" data-name="Layer 1" xmlns="http://www.w3.org/2000/svg" xmlns:xlink="http://www.w3.org/1999/xlink" viewBox="0 0 517 449"><defs><style>.cls-1{fill:none;}.cls-2{opacity:0.5;}.cls-3{clip-path:url(#clip-path);}.cls-4{fill:#5398b7;}.cls-5{fill:#fff8dc;}</style><clipPath id="clip-path"><rect class="cls-1" x="16.78" y="-18.15" width="481.45" height="482.29" transform="matrix(0.99, -0.15, 0.15, 0.99, -30.61, 41.27)"/></clipPath></defs><g class="cls-2"><g class="cls-3"><path class="cls-4" d="M91,6.44a46.95,46.95,0,0,1,15.79,55,27.34,27.34,0,0,0,10.72,9c6.45,2.92,10.36,1.26,18.65,3.33,1.55.39,4.48,1.22,15.91,7.49,8.38,4.6,13.38,7.35,21.65,12.84,21.51,14.3,23.54,19.57,38.39,28.81a139.75,139.75,0,0,0,29.47,13.82,248.27,248.27,0,0,0,47.58-1.89c16.58-2.3,25.61-5.34,55.73-11.25,13-2.56,23.62-4.4,30.28-5.52a72.48,72.48,0,0,1,36.13-6.25c15.67,1.45,26.79,8,37.21,14.14a131.23,131.23,0,0,1,25.35,19.45,48.51,48.51,0,0,1,11.6,23.72,46.42,46.42,0,0,1,.44,12.61q-6.12,30.26-12.25,60.5a25.36,25.36,0,0,0,.32,15.51c3.71,10.53,13.31,14.53,14.87,15.15a48.72,48.72,0,0,0,23.25,23.24,38.26,38.26,0,0,1-6.07,28.8,72.32,72.32,0,0,0-4.4-9.09c-3.11-5.39-4.94-6.89-6.39-10.5a23.87,23.87,0,0,1-1.16-12.84l-23.81-22.32a10.19,10.19,0,0,0-6.08,2.31c-4.49,3.95-3.36,11.9-1.79,22.1a110.07,110.07,0,0,0,4.41,18.05,47.82,47.82,0,0,1,6.09,16.51c2.84,17-4.63,30.46-7.28,34.77l-4,48.25-23.44,27.12a82,82,0,0,1-20.41,1.88,80.87,80.87,0,0,1-21.2-3.61l-7.31-8.67,30-23.31a36.71,36.71,0,0,1,6.27-33.64c2.22-12.29,4.62-36-5.62-62.05a108.73,108.73,0,0,0-13.48-24.44c-2.62.08-6.15.63-7.81,3.09-4,5.87,7.24,15.87,7.45,25.9.17,8.4-7.35,19.77-38.66,33.79q-.66,15.46-1.31,30.94a40.42,40.42,0,0,0-24,18.37l-12.51,20.79a72.37,72.37,0,0,1-47.33-3.91,43.31,43.31,0,0,1,3.06-9.46c6-13.06,16.6-18.35,27.61-27a129.56,129.56,0,0,0,23.21-23.78,22.48,22.48,0,0,1-.27-13.66c1.86-5.7,5.46-7.4,6.5-12.52s-1.43-9.79-3.69-13.8c-12.18-21.63-18.27-32.44-20.75-34.13-9.88-6.74-14.77-.69-48.65-.32-29.65.32-40.47-4.14-51.43,4.69-4.85,3.91-7.19,8.4-11.83,17.42a117.53,117.53,0,0,0-11.6,35.3l8.58,26.51a35.43,35.43,0,0,0,5.92,10.81,36.4,36.4,0,0,0,16.39,11.42L189,417.25c-1.82-6.15-8.53-8.91-13.3-6.68-4.42,2.07-6.68,8.22-4,13.48-44.6,2.67-55.06-1.4-56.11-5.74-.64-2.64,2.25-5.12,9.09-13.27a268.29,268.29,0,0,0,18.34-24.56q1.4-10.1,2.79-20.22a78.29,78.29,0,0,0,6.21-16.35c2.36-9.26,2.29-16.21,2.07-28.92-.19-11.29-.36-20.94-2.86-33.38-1.18-5.9-2.1-8.49-7.48-25.05-12.41-38.18-12.64-40.09-16-46.73a134.41,134.41,0,0,0-20-29.34c-6.68-6.27-11.94-7.2-15.22-7.09-6.74.21-10.49,4.94-21.88,12.74a163.08,163.08,0,0,1-15.88,9.58l-28.11-.2c-3.36-.92-15.87-4.71-19-14.56-1.34-4.24-.4-8.27,1.54-16.15a111.89,111.89,0,0,1,7-20.09q4.61-6.1,9.24-12.21A46.85,46.85,0,0,1,42.27,81.87c-2.13-2.46-5.14-6.11-8.46-10.74-7.65-10.66-11.47-16-12.7-22.7-1.93-10.51,2.12-19,5.89-26.94,3.68-7.71,5.94-8.31,6.7-8.37,4.28-.31,11,6.94,13.06,14.18,1.09,3.85.42,6,2.12,10.33a25.07,25.07,0,0,0,7.43,10,12.25,12.25,0,0,0,7.26,6,12,12,0,0,0,8-.53A47.35,47.35,0,0,1,78.74,21.4Z"/><path class="cls-5" d="M46,101.4l6,9.48L62.19,108l-6.39,8.71,6.05,9.48-10-4.1-6.39,8.71.21-11.24-10-4.1,10.12-2.85Z"/></g></g></svg>