<svg id="Layer_1" data-name="Layer 1" xmlns="http://www.w3.org/2000/svg" viewBox="0 0 862 420"><defs><style>.cls-1{fill:#5398b7;}.cls-2{fill:#8a1b20;}</style></defs><path class="cls-1" d="M16,38.4H27.31v2.76H12.78V15.57H16Zm31.56-.6a7.44,7.44,0,0,1-3.41,2.8,12.91,12.91,0,0,1-5.06.91,9.41,9.41,0,0,1-5.2-1.46,9.62,9.62,0,0,1-3.52-4.18,15.23,15.23,0,0,1-1.27-6.28V27.36c0-3.86.84-6.84,2.52-9a8.54,8.54,0,0,1,7.1-3.19,8.69,8.69,0,0,1,6,2.06,9.06,9.06,0,0,1,2.8,5.8H44.35Q43.47,18,38.69,18a5.49,5.49,0,0,0-4.82,2.39c-1.09,1.58-1.63,3.88-1.65,6.89v2.09a11.46,11.46,0,0,0,1.85,6.86,5.84,5.84,0,0,0,5,2.53,10.36,10.36,0,0,0,3.11-.42,4.81,4.81,0,0,0,2.21-1.42V31.16H38.82V28.41h8.69Zm5.28,3.36V15.57h7.83q3.9,0,5.86,1.72a6.39,6.39,0,0,1,2,5.1,5.47,5.47,0,0,1-1,3.18,6.28,6.28,0,0,1-2.6,2.12A5.56,5.56,0,0,1,68,29.91a6.55,6.55,0,0,1,1.14,3.87A7.09,7.09,0,0,1,67,39.19a8.32,8.32,0,0,1-5.91,2Zm3.16-12V38.4h5.21a4.88,4.88,0,0,0,3.48-1.21,4.48,4.48,0,0,0,1.28-3.38q0-4.62-4.71-4.62Zm0-2.71h4.77A4.77,4.77,0,0,0,64,25.37a3.81,3.81,0,0,0,1.25-3,3.76,3.76,0,0,0-1.15-3.06,5.35,5.35,0,0,0-3.51-1H56Zm33.92-8.14h-7.7V41.16H79V18.34H71.35V15.57H89.87Zm21.39,10.85a16.77,16.77,0,0,1-1.1,6.4,9.74,9.74,0,0,1-3.09,4.18l4.28,3.59-2.16,2.12-5-4.29a9.26,9.26,0,0,1-2.5.32,8.72,8.72,0,0,1-5-1.48,9.78,9.78,0,0,1-3.41-4.23A16.23,16.23,0,0,1,92,29.42V27.57a16.59,16.59,0,0,1,1.2-6.52,9.54,9.54,0,0,1,3.39-4.32,9.23,9.23,0,0,1,10.12,0,9.45,9.45,0,0,1,3.39,4.3,16.71,16.71,0,0,1,1.18,6.54Zm-3.16-1.65q0-4.53-1.69-7a5.83,5.83,0,0,0-9.51,0,11.75,11.75,0,0,0-1.76,6.75v1.88a12.19,12.19,0,0,0,1.71,6.92,5.85,5.85,0,0,0,9.53.16q1.68-2.39,1.72-6.84Zm16.28-.11h6.68v3.08h-6.68v8.08h-3.06V30.51h-6.68V27.43h6.68V20h3.06Zm28,3.38h-5.63V41.16h-3.18V15.57h7.93a9,9,0,0,1,6.22,2,7.33,7.33,0,0,1,2.19,5.73,7.1,7.1,0,0,1-4.57,6.82L161,41v.21h-3.39Zm-5.63-2.76h4.85a5.25,5.25,0,0,0,3.74-1.31,4.51,4.51,0,0,0,1.39-3.48,4.75,4.75,0,0,0-1.33-3.63,5.3,5.3,0,0,0-3.81-1.29h-4.84ZM167.2,41.16h-3v-19h3Zm-3.29-24.07a2,2,0,0,1,.45-1.33,1.92,1.92,0,0,1,2.69,0,2,2,0,0,1,.46,1.33,1.91,1.91,0,0,1-.46,1.32,2,2,0,0,1-2.69,0A2,2,0,0,1,163.91,17.09Zm7.45,14.4a11.74,11.74,0,0,1,1.93-7.07,6,6,0,0,1,5.1-2.63,6,6,0,0,1,5.08,2.46l.15-2.11h2.78V40.7a8,8,0,0,1-2.05,5.82,7.27,7.27,0,0,1-5.5,2.13,8.78,8.78,0,0,1-3.77-.88,6.61,6.61,0,0,1-2.81-2.41l1.58-2A5.83,5.83,0,0,0,178.64,46a4.45,4.45,0,0,0,3.45-1.33,5.27,5.27,0,0,0,1.25-3.76V39.26a6.08,6.08,0,0,1-5,2.25,6,6,0,0,1-5.07-2.69A12.4,12.4,0,0,1,171.36,31.49Zm3.07.37a9,9,0,0,0,1.23,5.06,3.93,3.93,0,0,0,3.45,1.83A4.44,4.44,0,0,0,183.34,36V27.27a4.49,4.49,0,0,0-4.19-2.72,4,4,0,0,0-3.47,1.84A9.75,9.75,0,0,0,174.43,31.86Zm19.62-7.42a6.33,6.33,0,0,1,5.27-2.65q5.64,0,5.69,6.8V41.16h-3V28.57a4.56,4.56,0,0,0-.89-3,3.4,3.4,0,0,0-2.68-1,4.19,4.19,0,0,0-2.6.84,5.61,5.61,0,0,0-1.75,2.22V41.16h-3v-27h3Zm19.65-6.91v4.61H217v2.51H213.7v11.8a2.85,2.85,0,0,0,.44,1.72,1.81,1.81,0,0,0,1.52.56,6.86,6.86,0,0,0,1.44-.21v2.64a8.45,8.45,0,0,1-2.33.35,3.68,3.68,0,0,1-3.08-1.32,5.92,5.92,0,0,1-1-3.74V24.65h-3.24V22.14h3.24V17.53ZM231,36.11a2.46,2.46,0,0,0-.94-2,8.51,8.51,0,0,0-3.24-1.26,14.36,14.36,0,0,1-3.67-1.27,5.38,5.38,0,0,1-2-1.75,4.45,4.45,0,0,1-.64-2.43,5,5,0,0,1,1.84-3.95A7,7,0,0,1,227,21.79a7.05,7.05,0,0,1,4.9,1.67,5.41,5.41,0,0,1,1.9,4.27h-3.06a3,3,0,0,0-1.07-2.3,3.78,3.78,0,0,0-2.67-1,4,4,0,0,0-2.6.77,2.52,2.52,0,0,0-.94,2,2,2,0,0,0,.88,1.78,10.06,10.06,0,0,0,3.14,1.14,16.19,16.19,0,0,1,3.7,1.3,5.5,5.5,0,0,1,2.09,1.83,4.63,4.63,0,0,1,.69,2.59A5,5,0,0,1,232.09,40a7.66,7.66,0,0,1-5,1.53,8.41,8.41,0,0,1-3.78-.81,6.39,6.39,0,0,1-2.59-2.25,5.8,5.8,0,0,1-.92-3.14h3a3.54,3.54,0,0,0,1.22,2.6,5.4,5.4,0,0,0,5.79.21A2.35,2.35,0,0,0,231,36.11Z"/><path class="cls-2" d="M313.32,104.75a15.91,15.91,0,0,1-6.33-3.06,5.91,5.91,0,0,1-2-4.5,6.16,6.16,0,0,1,2.41-5,9.63,9.63,0,0,1,6.29-2,10.47,10.47,0,0,1,4.7,1,7.67,7.67,0,0,1,3.2,2.82A7.15,7.15,0,0,1,322.76,98h-3.39a4.64,4.64,0,0,0-1.48-3.64A6,6,0,0,0,313.72,93a6.15,6.15,0,0,0-3.9,1.11,3.63,3.63,0,0,0-1.39,3,3.31,3.31,0,0,0,1.32,2.65,13.23,13.23,0,0,0,4.52,2,20.5,20.5,0,0,1,5,2,7.3,7.3,0,0,1,2.67,2.51,6.35,6.35,0,0,1,.88,3.4,6,6,0,0,1-2.43,5,10.35,10.35,0,0,1-6.48,1.86,12.06,12.06,0,0,1-4.92-1,8.46,8.46,0,0,1-3.54-2.78,6.78,6.78,0,0,1-1.23-4h3.4a4.41,4.41,0,0,0,1.7,3.67,7.24,7.24,0,0,0,4.59,1.34,6.6,6.6,0,0,0,4.09-1.09,3.55,3.55,0,0,0,1.43-3,3.45,3.45,0,0,0-1.32-2.9A15.09,15.09,0,0,0,313.32,104.75Zm25.06,9.53a6.89,6.89,0,0,1-5.57,2.23,6,6,0,0,1-4.64-1.76,7.72,7.72,0,0,1-1.6-5.24V97.14h3.25v12.29c0,2.88,1.18,4.32,3.52,4.32s4.14-.93,5-2.78V97.14h3.25v19h-3.1Zm24.19-7.42a11.44,11.44,0,0,1-2,7,6.37,6.37,0,0,1-5.38,2.65,7,7,0,0,1-5.45-2.2v9.16h-3.25V97.14h3l.15,2.11a6.72,6.72,0,0,1,5.52-2.46,6.48,6.48,0,0,1,5.42,2.58,11.51,11.51,0,0,1,2,7.19Zm-3.25-.37a8.44,8.44,0,0,0-1.37-5.08,4.42,4.42,0,0,0-3.76-1.86,4.77,4.77,0,0,0-4.43,2.62v9.08a4.78,4.78,0,0,0,4.46,2.61,4.38,4.38,0,0,0,3.71-1.85A9.13,9.13,0,0,0,359.32,106.49Zm16.59-6.43a9.87,9.87,0,0,0-1.6-.13,4.28,4.28,0,0,0-4.34,2.73v13.5h-3.25v-19h3.16l.06,2.2a5.06,5.06,0,0,1,4.53-2.55,3.34,3.34,0,0,1,1.44.24Zm10.55,16.45a8.31,8.31,0,0,1-6.29-2.53,9.45,9.45,0,0,1-2.43-6.8v-.6a11.53,11.53,0,0,1,1.07-5,8.58,8.58,0,0,1,3-3.48,7.61,7.61,0,0,1,4.22-1.26,7.11,7.11,0,0,1,5.76,2.44q2.06,2.44,2.06,7v1.35H381a6.84,6.84,0,0,0,1.64,4.55,5.2,5.2,0,0,0,4,1.73,5.6,5.6,0,0,0,2.91-.71,7.41,7.41,0,0,0,2.1-1.86l2,1.55A8,8,0,0,1,386.46,116.51Zm-.4-17.05a4.33,4.33,0,0,0-3.31,1.44,6.93,6.93,0,0,0-1.65,4h9.53v-.25a6.17,6.17,0,0,0-1.34-3.83A4.08,4.08,0,0,0,386.06,99.46Zm14.66-2.32.08,2.11a7,7,0,0,1,5.65-2.46q4,0,5.43,3.06a7.11,7.11,0,0,1,2.46-2.22,7.37,7.37,0,0,1,3.6-.84q6.27,0,6.37,6.62v12.75h-3.26V103.61a4.34,4.34,0,0,0-.93-3,4.07,4.07,0,0,0-3.13-1,4.28,4.28,0,0,0-3,1.09,4.33,4.33,0,0,0-1.39,2.9v12.62h-3.27V103.7q0-4.15-4.06-4.15a4.37,4.37,0,0,0-4.38,2.72v13.89h-3.25v-19Zm36.4,19.37a8.31,8.31,0,0,1-6.29-2.53,9.45,9.45,0,0,1-2.43-6.8v-.6a11.53,11.53,0,0,1,1.07-5,8.58,8.58,0,0,1,3-3.48,7.61,7.61,0,0,1,4.22-1.26,7.11,7.11,0,0,1,5.76,2.44q2.06,2.44,2.06,7v1.35H431.65a6.84,6.84,0,0,0,1.64,4.55,5.2,5.2,0,0,0,4,1.73,5.6,5.6,0,0,0,2.91-.71,7.41,7.41,0,0,0,2.1-1.86l2,1.55A8,8,0,0,1,437.12,116.51Zm-.4-17.05a4.33,4.33,0,0,0-3.31,1.44,6.93,6.93,0,0,0-1.65,4h9.53v-.25a6.17,6.17,0,0,0-1.34-3.83A4.08,4.08,0,0,0,436.72,99.46ZM476.58,108a9.38,9.38,0,0,1-3,6.27,9.8,9.8,0,0,1-6.7,2.2,9,9,0,0,1-7.28-3.25,13.15,13.15,0,0,1-2.72-8.7V102.1a14.76,14.76,0,0,1,1.26-6.28,9.58,9.58,0,0,1,3.63-4.15,10,10,0,0,1,5.41-1.46,9.24,9.24,0,0,1,6.54,2.29,9.49,9.49,0,0,1,2.86,6.29h-3.39a7.31,7.31,0,0,0-1.91-4.43,5.79,5.79,0,0,0-4.1-1.37,6.07,6.07,0,0,0-5.08,2.39,11,11,0,0,0-1.83,6.8v2.48a11.28,11.28,0,0,0,1.74,6.63,5.62,5.62,0,0,0,4.87,2.46,6.52,6.52,0,0,0,4.31-1.26,7.1,7.1,0,0,0,2-4.45Zm3.26-1.57a11.22,11.22,0,0,1,1.09-5A8.22,8.22,0,0,1,484,98a8.39,8.39,0,0,1,4.49-1.21,8,8,0,0,1,6.27,2.69,10.3,10.3,0,0,1,2.41,7.15v.23a11.35,11.35,0,0,1-1.07,5,8.05,8.05,0,0,1-3,3.43,8.42,8.42,0,0,1-4.54,1.23,8,8,0,0,1-6.27-2.69,10.27,10.27,0,0,1-2.39-7.12Zm3.27.39a8.19,8.19,0,0,0,1.45,5.08,5,5,0,0,0,7.88,0,8.94,8.94,0,0,0,1.46-5.45,8,8,0,0,0-1.5-5.06,4.92,4.92,0,0,0-7.82,0A8.83,8.83,0,0,0,483.11,106.86ZM513,114.28a6.9,6.9,0,0,1-5.57,2.23,6,6,0,0,1-4.64-1.76,7.67,7.67,0,0,1-1.6-5.24V97.14h3.25v12.29q0,4.32,3.52,4.32,3.72,0,4.95-2.78V97.14h3.25v19H513Zm17.32-14.22a10.06,10.06,0,0,0-1.6-.13,4.3,4.3,0,0,0-4.35,2.73v13.5h-3.25v-19h3.17l0,2.2a5.06,5.06,0,0,1,4.53-2.55,3.42,3.42,0,0,1,1.45.24Zm8.29-7.53v4.61h3.55v2.51h-3.55v11.8a2.65,2.65,0,0,0,.48,1.72,2,2,0,0,0,1.61.56,7.92,7.92,0,0,0,1.55-.21v2.64a9.6,9.6,0,0,1-2.5.35,4,4,0,0,1-3.28-1.32,5.64,5.64,0,0,1-1.11-3.74V99.65h-3.46V97.14h3.46V92.53Zm36.48,23.63h-3.4L558.78,96.44v19.72h-3.39V90.57h3.39l12.92,19.81V90.57h3.36Zm4.62-9.69a11.22,11.22,0,0,1,1.09-5,8.07,8.07,0,0,1,7.54-4.66,8,8,0,0,1,6.28,2.69,10.34,10.34,0,0,1,2.4,7.15v.23a11.21,11.21,0,0,1-1.07,5,8,8,0,0,1-3,3.43,8.36,8.36,0,0,1-4.53,1.23,8.05,8.05,0,0,1-6.28-2.69,10.32,10.32,0,0,1-2.39-7.12Zm3.27.39a8.19,8.19,0,0,0,1.46,5.08,5,5,0,0,0,7.87,0,8.87,8.87,0,0,0,1.46-5.45,8.09,8.09,0,0,0-1.49-5.06,4.7,4.7,0,0,0-3.94-2,4.65,4.65,0,0,0-3.88,1.92A8.76,8.76,0,0,0,583,106.86Zm21.18-9.72.09,2.11a7,7,0,0,1,5.64-2.46q4,0,5.43,3.06a7.29,7.29,0,0,1,2.46-2.22,7.38,7.38,0,0,1,3.61-.84q6.25,0,6.36,6.62v12.75h-3.25V103.61a4.34,4.34,0,0,0-.93-3,4.09,4.09,0,0,0-3.13-1,4.29,4.29,0,0,0-3,1.09,4.37,4.37,0,0,0-1.39,2.9v12.62h-3.27V103.7q0-4.15-4.06-4.15a4.34,4.34,0,0,0-4.37,2.72v13.89h-3.26v-19Zm32,19h-3.26v-19h3.26Zm-3.52-24.07a2,2,0,0,1,.47-1.33,2.17,2.17,0,0,1,2.89,0,1.9,1.9,0,0,1,.49,1.33,1.84,1.84,0,0,1-.49,1.32,2.23,2.23,0,0,1-2.89,0A1.92,1.92,0,0,1,632.66,92.09Zm11.81,5,.11,2.39a6.91,6.91,0,0,1,5.69-2.74q6,0,6.09,6.8v12.57H653.1V103.57a4.31,4.31,0,0,0-1-3,3.75,3.75,0,0,0-2.86-1,4.71,4.71,0,0,0-2.78.84,5.61,5.61,0,0,0-1.86,2.22v13.55H641.4v-19Zm28.53,19a6.84,6.84,0,0,1-.46-2,7.27,7.27,0,0,1-5.41,2.35,6.78,6.78,0,0,1-4.62-1.58,5.19,5.19,0,0,1-1.8-4,5.37,5.37,0,0,1,2.25-4.61,10.7,10.7,0,0,1,6.37-1.65h3.16v-1.5a3.6,3.6,0,0,0-1-2.7,4.07,4.07,0,0,0-3-1,4.71,4.71,0,0,0-2.92.88,2.56,2.56,0,0,0-1.18,2.12H661.1a4.52,4.52,0,0,1,1-2.74,7,7,0,0,1,2.75-2.11,9.36,9.36,0,0,1,3.81-.77,7.5,7.5,0,0,1,5.15,1.65,5.89,5.89,0,0,1,1.93,4.52v8.75a10.8,10.8,0,0,0,.67,4.17v.28Zm-5.39-2.48a5.73,5.73,0,0,0,2.9-.79,4.78,4.78,0,0,0,2-2.06v-3.9h-2.55q-6,0-6,3.5a3,3,0,0,0,1,2.39A3.94,3.94,0,0,0,667.61,113.68Zm17.64-21.15v4.61h3.55v2.51h-3.55v11.8a2.65,2.65,0,0,0,.48,1.72,2,2,0,0,0,1.62.56,7.84,7.84,0,0,0,1.54-.21v2.64a9.58,9.58,0,0,1-2.49.35,4,4,0,0,1-3.29-1.32,5.64,5.64,0,0,1-1.11-3.74V99.65h-3.46V97.14H682V92.53Zm10.9,23.63H692.9v-19h3.25Zm-3.51-24.07a1.93,1.93,0,0,1,.47-1.33,1.86,1.86,0,0,1,1.44-.55,1.83,1.83,0,0,1,1.44.55,1.91,1.91,0,0,1,.5,1.33,1.77,1.77,0,0,1-1.94,1.85,1.73,1.73,0,0,1-1.91-1.85Zm7.87,14.38a11.22,11.22,0,0,1,1.09-5,8.07,8.07,0,0,1,7.54-4.66,8,8,0,0,1,6.28,2.69,10.35,10.35,0,0,1,2.41,7.15v.23a11.22,11.22,0,0,1-1.08,5,7.93,7.93,0,0,1-3,3.43,8.36,8.36,0,0,1-4.53,1.23,8.05,8.05,0,0,1-6.28-2.69,10.32,10.32,0,0,1-2.39-7.12Zm3.27.39a8.19,8.19,0,0,0,1.46,5.08,5,5,0,0,0,7.88,0,8.94,8.94,0,0,0,1.45-5.45,8,8,0,0,0-1.49-5.06,4.92,4.92,0,0,0-7.82,0A8.76,8.76,0,0,0,703.78,106.86ZM725,97.14l.11,2.39a6.91,6.91,0,0,1,5.69-2.74q6,0,6.08,6.8v12.57h-3.25V103.57a4.35,4.35,0,0,0-1-3,3.75,3.75,0,0,0-2.86-1,4.71,4.71,0,0,0-2.78.84,5.61,5.61,0,0,0-1.86,2.22v13.55H721.9v-19Zm27.86,14a2.38,2.38,0,0,0-1-2,9.39,9.39,0,0,0-3.46-1.26,16.09,16.09,0,0,1-3.92-1.27,5.67,5.67,0,0,1-2.15-1.75,4.3,4.3,0,0,1-.68-2.43,4.9,4.9,0,0,1,2-4,7.74,7.74,0,0,1,5.06-1.62,7.9,7.9,0,0,1,5.24,1.67,5.3,5.3,0,0,1,2,4.27h-3.27a2.92,2.92,0,0,0-1.14-2.3,4.19,4.19,0,0,0-2.85-1,4.48,4.48,0,0,0-2.78.77,2.43,2.43,0,0,0-1,2,2,2,0,0,0,.93,1.78,11.3,11.3,0,0,0,3.36,1.14,17.87,17.87,0,0,1,4,1.3,5.83,5.83,0,0,1,2.24,1.83,4.42,4.42,0,0,1,.73,2.59,4.89,4.89,0,0,1-2,4.09,8.56,8.56,0,0,1-5.29,1.53,9.55,9.55,0,0,1-4-.81,6.71,6.71,0,0,1-2.76-2.25,5.47,5.47,0,0,1-1-3.14h3.25a3.41,3.41,0,0,0,1.3,2.6,5.17,5.17,0,0,0,3.23,1,5.3,5.3,0,0,0,3-.74A2.32,2.32,0,0,0,752.84,111.11Z"/><path class="cls-2" d="M272.69,404.61a7.85,7.85,0,0,1-3.64,2.79,14.7,14.7,0,0,1-5.41.92,10.61,10.61,0,0,1-5.56-1.46,10,10,0,0,1-3.76-4.19A14.39,14.39,0,0,1,253,396.4v-2.24c0-3.85.89-6.84,2.69-9a9.41,9.41,0,0,1,7.59-3.18,9.69,9.69,0,0,1,6.45,2.05,8.89,8.89,0,0,1,3,5.81h-3.38q-.94-5.08-6-5.08a6,6,0,0,0-5.15,2.39q-1.74,2.37-1.76,6.89v2.09a10.93,10.93,0,0,0,2,6.85,6.39,6.39,0,0,0,5.32,2.54,11.81,11.81,0,0,0,3.33-.43,5.07,5.07,0,0,0,2.35-1.42V398h-5.92v-2.74h9.28Zm13,3.71a8.34,8.34,0,0,1-6.3-2.54A9.43,9.43,0,0,1,277,399v-.6a11.37,11.37,0,0,1,1.07-5,8.43,8.43,0,0,1,3-3.48,7.57,7.57,0,0,1,4.22-1.27,7.14,7.14,0,0,1,5.77,2.45c1.37,1.62,2.05,4,2.05,7v1.36H280.25a6.85,6.85,0,0,0,1.63,4.55,5.21,5.21,0,0,0,4,1.72,5.66,5.66,0,0,0,2.92-.7,7.37,7.37,0,0,0,2.09-1.86l2,1.54A8,8,0,0,1,285.72,408.32Zm-.41-17.06a4.3,4.3,0,0,0-3.3,1.45,6.88,6.88,0,0,0-1.66,4h9.53v-.24a6.16,6.16,0,0,0-1.33-3.83A4.07,4.07,0,0,0,285.31,391.26Zm20.8.6a10.1,10.1,0,0,0-1.6-.12,4.3,4.3,0,0,0-4.35,2.72V408h-3.25v-19h3.17l.05,2.2a5.07,5.07,0,0,1,4.53-2.55,3.26,3.26,0,0,1,1.45.25Zm12.19,0a9.88,9.88,0,0,0-1.59-.12,4.3,4.3,0,0,0-4.35,2.72V408h-3.25v-19h3.17l.05,2.2a5.06,5.06,0,0,1,4.53-2.55,3.18,3.18,0,0,1,1.44.25Zm9.55,11.34,4.43-14.26h3.48l-7.65,22c-1.18,3.16-3.06,4.75-5.64,4.75l-.61-.06-1.22-.23v-2.63l.88.07a4.34,4.34,0,0,0,2.57-.67,4.84,4.84,0,0,0,1.53-2.44l.72-1.94-6.79-18.81h3.55Zm13.89-14.26.08,2.11a7,7,0,0,1,5.65-2.46q4,0,5.43,3.06a7.18,7.18,0,0,1,2.46-2.21,7.26,7.26,0,0,1,3.6-.85q6.26,0,6.37,6.63V408h-3.26V395.41a4.34,4.34,0,0,0-.93-3,4.07,4.07,0,0,0-3.13-1,4.31,4.31,0,0,0-3,1.09,4.35,4.35,0,0,0-1.39,2.9V408h-3.27V395.5q0-4.15-4.06-4.15a4.36,4.36,0,0,0-4.38,2.73V408h-3.25v-19ZM382,408a6.75,6.75,0,0,1-.46-2,7.25,7.25,0,0,1-5.41,2.36,6.72,6.72,0,0,1-4.62-1.59,5.16,5.16,0,0,1-1.8-4,5.37,5.37,0,0,1,2.25-4.61,10.7,10.7,0,0,1,6.37-1.65h3.16v-1.49a3.63,3.63,0,0,0-1-2.71,4.07,4.07,0,0,0-3-1,4.71,4.71,0,0,0-2.92.88,2.59,2.59,0,0,0-1.18,2.13h-3.27a4.43,4.43,0,0,1,1-2.74,6.87,6.87,0,0,1,2.74-2.11,9.25,9.25,0,0,1,3.82-.78,7.5,7.5,0,0,1,5.15,1.65,5.89,5.89,0,0,1,1.93,4.52v8.76a10.78,10.78,0,0,0,.67,4.16V408Zm-5.4-2.48a5.67,5.67,0,0,0,2.9-.79,4.73,4.73,0,0,0,2-2.05v-3.91h-2.55q-6,0-6,3.5a3,3,0,0,0,1,2.39A3.9,3.9,0,0,0,376.59,405.48Zm16.32-16.54.1,2.39a7,7,0,0,1,5.7-2.74q6,0,6.08,6.81V408h-3.25V395.38a4.34,4.34,0,0,0-1-3,3.74,3.74,0,0,0-2.87-1,4.62,4.62,0,0,0-2.77.85,5.76,5.76,0,0,0-1.87,2.21V408h-3.25v-19Zm16,9.36a11.09,11.09,0,0,1,2.08-7,7,7,0,0,1,10.72-.38V381H425v27h-3l-.16-2a6.61,6.61,0,0,1-5.43,2.4,6.52,6.52,0,0,1-5.39-2.71,11.27,11.27,0,0,1-2.08-7.07Zm3.25.36a8.46,8.46,0,0,0,1.34,5.07,4.31,4.31,0,0,0,3.69,1.83,4.76,4.76,0,0,0,4.52-2.78V394a4.79,4.79,0,0,0-4.48-2.69,4.34,4.34,0,0,0-3.73,1.85A9.28,9.28,0,0,0,412.15,398.66Zm25.76,9.66a8.34,8.34,0,0,1-6.3-2.54,9.47,9.47,0,0,1-2.42-6.8v-.6a11.51,11.51,0,0,1,1.07-5,8.43,8.43,0,0,1,3-3.48,7.57,7.57,0,0,1,4.22-1.27,7.14,7.14,0,0,1,5.77,2.45c1.37,1.62,2.05,4,2.05,7v1.36H432.44a6.85,6.85,0,0,0,1.63,4.55,5.22,5.22,0,0,0,4,1.72A5.66,5.66,0,0,0,441,405a7.37,7.37,0,0,0,2.09-1.86l2,1.54A8,8,0,0,1,437.91,408.32Zm-.41-17.06a4.3,4.3,0,0,0-3.3,1.45,6.87,6.87,0,0,0-1.65,4h9.52v-.24a6.16,6.16,0,0,0-1.33-3.83A4.07,4.07,0,0,0,437.5,391.26Zm20.8.6a10.1,10.1,0,0,0-1.6-.12,4.28,4.28,0,0,0-4.34,2.72V408H449.1v-19h3.17l.05,2.2a5.07,5.07,0,0,1,4.54-2.55,3.24,3.24,0,0,1,1.44.25Zm6.54,16.1h-3.26v-19h3.26Zm-3.52-24.06a2,2,0,0,1,.48-1.34,1.83,1.83,0,0,1,1.44-.54,1.86,1.86,0,0,1,1.44.54,1.93,1.93,0,0,1,.49,1.34,1.84,1.84,0,0,1-.49,1.32,1.88,1.88,0,0,1-1.44.52,1.85,1.85,0,0,1-1.44-.52A1.88,1.88,0,0,1,461.32,383.9Zm11.81,5,.11,2.39a6.94,6.94,0,0,1,5.69-2.74q6,0,6.09,6.81V408h-3.26V395.38a4.29,4.29,0,0,0-.95-3,3.7,3.7,0,0,0-2.86-1,4.65,4.65,0,0,0-2.78.85,5.73,5.73,0,0,0-1.86,2.21V408h-3.25v-19Zm16,9.36a11.15,11.15,0,0,1,2.05-7.07,7.08,7.08,0,0,1,10.88-.18l.16-2.11h3v18.57a7.7,7.7,0,0,1-2.19,5.81,8.06,8.06,0,0,1-5.88,2.13,9.69,9.69,0,0,1-4-.88,6.91,6.91,0,0,1-3-2.41l1.69-2a6.36,6.36,0,0,0,5.12,2.59,5,5,0,0,0,3.69-1.34,5.08,5.08,0,0,0,1.33-3.76v-1.63a6.67,6.67,0,0,1-5.32,2.25,6.54,6.54,0,0,1-5.42-2.69A11.82,11.82,0,0,1,489.15,398.3Zm3.27.36a8.65,8.65,0,0,0,1.31,5.07,4.3,4.3,0,0,0,3.7,1.83,4.76,4.76,0,0,0,4.51-2.8v-8.68a4.81,4.81,0,0,0-4.48-2.73,4.33,4.33,0,0,0-3.71,1.85A9.28,9.28,0,0,0,492.42,398.66Z"/><path class="cls-2" d="M704.45,265.16h-3.4V253.33h-12.9v11.83h-3.37V239.57h3.37v11h12.9v-11h3.4Zm13.37.35a8.32,8.32,0,0,1-6.29-2.53,9.45,9.45,0,0,1-2.42-6.8v-.6a11.39,11.39,0,0,1,1.07-5.05,8.48,8.48,0,0,1,3-3.48,7.64,7.64,0,0,1,4.22-1.26,7.14,7.14,0,0,1,5.77,2.44q2.05,2.45,2,7v1.35H712.36a6.78,6.78,0,0,0,1.63,4.55,5.21,5.21,0,0,0,4,1.73,5.66,5.66,0,0,0,2.92-.71,7.51,7.51,0,0,0,2.09-1.86l2,1.55A8,8,0,0,1,717.82,265.51Zm-.4-17a4.32,4.32,0,0,0-3.3,1.44,6.87,6.87,0,0,0-1.66,4H722v-.25a6.11,6.11,0,0,0-1.34-3.83A4.06,4.06,0,0,0,717.42,248.46Zm23.34,16.7a6.91,6.91,0,0,1-.45-2,7.28,7.28,0,0,1-5.42,2.36,6.8,6.8,0,0,1-4.62-1.58,5.18,5.18,0,0,1-1.79-4,5.36,5.36,0,0,1,2.25-4.61,10.65,10.65,0,0,1,6.36-1.65h3.16v-1.5a3.62,3.62,0,0,0-1-2.7,4.07,4.07,0,0,0-3-1,4.73,4.73,0,0,0-2.92.88,2.59,2.59,0,0,0-1.18,2.12h-3.27a4.47,4.47,0,0,1,1-2.74,6.91,6.91,0,0,1,2.74-2.11,9.36,9.36,0,0,1,3.81-.77,7.5,7.5,0,0,1,5.15,1.65,5.93,5.93,0,0,1,1.94,4.52v8.75a10.82,10.82,0,0,0,.66,4.17v.28Zm-5.39-2.48a5.7,5.7,0,0,0,2.9-.79,4.78,4.78,0,0,0,2-2.06v-3.9H737.7q-6,0-6,3.5a3,3,0,0,0,1,2.39A3.94,3.94,0,0,0,735.37,262.68Zm16.77,2.48h-3.26v-27h3.26Zm9.63-23.63v4.61h3.55v2.51h-3.55v11.8a2.71,2.71,0,0,0,.47,1.72,2,2,0,0,0,1.62.56,7.92,7.92,0,0,0,1.55-.21v2.64a9.65,9.65,0,0,1-2.5.35,4.06,4.06,0,0,1-3.29-1.32,5.69,5.69,0,0,1-1.1-3.74v-11.8h-3.47v-2.51h3.47v-4.61Zm10.62,6.91a6.9,6.9,0,0,1,5.62-2.65q6,0,6.08,6.8v12.57h-3.25V252.57a4.35,4.35,0,0,0-1-3,3.75,3.75,0,0,0-2.86-1,4.71,4.71,0,0,0-2.78.84,5.61,5.61,0,0,0-1.86,2.22v13.55h-3.26v-27h3.26Zm24.2,14.42a4.69,4.69,0,0,0,3-1.06,3.68,3.68,0,0,0,1.44-2.64h3.08a6,6,0,0,1-1.12,3.12,7.44,7.44,0,0,1-2.78,2.35,8.47,8.47,0,0,1-9.85-1.7,10.43,10.43,0,0,1-2.28-7.11v-.54a11.45,11.45,0,0,1,1-4.94,7.8,7.8,0,0,1,2.92-3.36,8.38,8.38,0,0,1,4.51-1.19,7.61,7.61,0,0,1,5.31,1.91,6.83,6.83,0,0,1,2.27,5h-3.08a4.45,4.45,0,0,0-1.4-3,4.34,4.34,0,0,0-3.1-1.19,4.59,4.59,0,0,0-3.85,1.79,8.41,8.41,0,0,0-1.35,5.15V256a8.22,8.22,0,0,0,1.35,5.06A4.61,4.61,0,0,0,796.59,262.86Zm23,2.3a6.84,6.84,0,0,1-.46-2,7.25,7.25,0,0,1-5.41,2.36,6.81,6.81,0,0,1-4.63-1.58,5.21,5.21,0,0,1-1.79-4,5.36,5.36,0,0,1,2.25-4.61,10.65,10.65,0,0,1,6.36-1.65H819v-1.5a3.62,3.62,0,0,0-1-2.7,4.08,4.08,0,0,0-3-1,4.68,4.68,0,0,0-2.91.88,2.56,2.56,0,0,0-1.18,2.12h-3.27a4.46,4.46,0,0,1,1-2.74,7,7,0,0,1,2.74-2.11,9.38,9.38,0,0,1,3.82-.77,7.5,7.5,0,0,1,5.15,1.65,5.92,5.92,0,0,1,1.93,4.52v8.75a10.62,10.62,0,0,0,.67,4.17v.28Zm-5.4-2.48a5.67,5.67,0,0,0,2.9-.79,4.75,4.75,0,0,0,2-2.06v-3.9h-2.55c-4,0-6,1.17-6,3.5a3,3,0,0,0,1,2.39A4,4,0,0,0,814.15,262.68Zm22.43-13.62a8.86,8.86,0,0,0-1.6-.13,4.28,4.28,0,0,0-4.34,2.73v13.5h-3.25v-19h3.16l.06,2.2a5,5,0,0,1,4.53-2.55,3.4,3.4,0,0,1,1.44.24Zm10.55,16.45a8.29,8.29,0,0,1-6.29-2.53,9.45,9.45,0,0,1-2.43-6.8v-.6a11.53,11.53,0,0,1,1.07-5.05,8.58,8.58,0,0,1,3-3.48,7.6,7.6,0,0,1,4.21-1.26,7.12,7.12,0,0,1,5.77,2.44q2.06,2.45,2.06,7v1.35H841.66a6.79,6.79,0,0,0,1.64,4.55,5.19,5.19,0,0,0,4,1.73,5.64,5.64,0,0,0,2.92-.71,7.24,7.24,0,0,0,2.09-1.86l2,1.55A8,8,0,0,1,847.13,265.51Zm-.41-17a4.32,4.32,0,0,0-3.3,1.44,6.93,6.93,0,0,0-1.65,4h9.52v-.25a6.11,6.11,0,0,0-1.33-3.83A4.1,4.1,0,0,0,846.72,248.46Z"/><path class="cls-2" d="M324.67,37.8A7.84,7.84,0,0,1,321,40.6a14.76,14.76,0,0,1-5.42.91,10.57,10.57,0,0,1-5.55-1.46,10,10,0,0,1-3.77-4.18A14.62,14.62,0,0,1,305,29.59V27.36c0-3.86.9-6.84,2.69-9a9.42,9.42,0,0,1,7.59-3.19,9.7,9.7,0,0,1,6.46,2.06,8.9,8.9,0,0,1,3,5.8H321.3Q320.36,18,315.25,18a6,6,0,0,0-5.15,2.39c-1.16,1.58-1.74,3.88-1.76,6.89v2.09a10.94,10.94,0,0,0,2,6.86,6.39,6.39,0,0,0,5.33,2.53,11.8,11.8,0,0,0,3.32-.42,5.19,5.19,0,0,0,2.36-1.42V31.16h-5.93V28.41h9.28Zm13,3.71A8.29,8.29,0,0,1,331.41,39a9.45,9.45,0,0,1-2.43-6.8v-.6a11.53,11.53,0,0,1,1.07-5,8.58,8.58,0,0,1,3-3.48,7.6,7.6,0,0,1,4.21-1.26,7.12,7.12,0,0,1,5.77,2.44q2.06,2.44,2.06,7v1.35H332.23a6.79,6.79,0,0,0,1.64,4.55,5.19,5.19,0,0,0,4,1.73,5.64,5.64,0,0,0,2.92-.71,7.24,7.24,0,0,0,2.09-1.86l2,1.55A8,8,0,0,1,337.7,41.51Zm-.41-17A4.32,4.32,0,0,0,334,25.9a6.93,6.93,0,0,0-1.65,4h9.53v-.25a6.17,6.17,0,0,0-1.34-3.83A4.1,4.1,0,0,0,337.29,24.46ZM352,22.14l.11,2.39a6.91,6.91,0,0,1,5.69-2.74q6,0,6.09,6.8V41.16H360.6V28.57a4.31,4.31,0,0,0-1-3,3.75,3.75,0,0,0-2.86-1,4.71,4.71,0,0,0-2.78.84,5.61,5.61,0,0,0-1.86,2.22V41.16H348.9v-19Zm16,9.35a11.11,11.11,0,0,1,2.07-7,7.06,7.06,0,0,1,10.73-.39V14.16H384v27h-3l-.16-2a6.63,6.63,0,0,1-5.43,2.39A6.53,6.53,0,0,1,370,38.8,11.3,11.3,0,0,1,368,31.74Zm3.25.37a8.43,8.43,0,0,0,1.34,5.06,4.31,4.31,0,0,0,3.69,1.83A4.76,4.76,0,0,0,380.77,36V27.24a4.78,4.78,0,0,0-4.49-2.69,4.33,4.33,0,0,0-3.72,1.84A9.31,9.31,0,0,0,371.22,31.86ZM397,41.51A8.31,8.31,0,0,1,390.68,39a9.45,9.45,0,0,1-2.43-6.8v-.6a11.39,11.39,0,0,1,1.08-5,8.48,8.48,0,0,1,3-3.48,7.64,7.64,0,0,1,4.22-1.26,7.11,7.11,0,0,1,5.76,2.44q2.06,2.44,2.06,7v1.35H391.51a6.78,6.78,0,0,0,1.63,4.55,5.21,5.21,0,0,0,4,1.73,5.66,5.66,0,0,0,2.92-.71,7.51,7.51,0,0,0,2.09-1.86l2,1.55A8,8,0,0,1,397,41.51Zm-.4-17a4.34,4.34,0,0,0-3.31,1.44,6.93,6.93,0,0,0-1.65,4h9.53v-.25a6.17,6.17,0,0,0-1.34-3.83A4.06,4.06,0,0,0,396.57,24.46Zm20.79.6a9.87,9.87,0,0,0-1.6-.13,4.28,4.28,0,0,0-4.34,2.73v13.5h-3.25v-19h3.16l.06,2.2a5,5,0,0,1,4.53-2.55,3.37,3.37,0,0,1,1.44.24Zm18,8,.49,3.38.72-3,5.06-17.85h2.85l4.94,17.85.7,3.1.55-3.45,4-17.5H458l-6.2,25.59h-3.08l-5.27-18.65-.41-2-.4,2-5.47,18.65H434.1l-6.19-25.59h3.38Zm37.07,8.07a6.84,6.84,0,0,1-.46-2,7.24,7.24,0,0,1-5.41,2.35,6.76,6.76,0,0,1-4.62-1.58,5.19,5.19,0,0,1-1.8-4,5.37,5.37,0,0,1,2.25-4.61,10.68,10.68,0,0,1,6.37-1.65h3.16v-1.5a3.6,3.6,0,0,0-1-2.7,4.07,4.07,0,0,0-3-1,4.69,4.69,0,0,0-2.92.88,2.56,2.56,0,0,0-1.18,2.12H460.5a4.46,4.46,0,0,1,1-2.74,7,7,0,0,1,2.74-2.11,9.41,9.41,0,0,1,3.82-.77,7.5,7.5,0,0,1,5.15,1.65A5.89,5.89,0,0,1,475.14,28v8.75a10.8,10.8,0,0,0,.67,4.17v.28ZM467,38.68a5.67,5.67,0,0,0,2.9-.79,4.75,4.75,0,0,0,2-2.06v-3.9h-2.55q-6,0-6,3.5a3,3,0,0,0,1,2.39A4,4,0,0,0,467,38.68Zm12.47-7.19a11.17,11.17,0,0,1,2-7.07,7.09,7.09,0,0,1,10.88-.17l.16-2.11h3V40.7a7.74,7.74,0,0,1-2.19,5.82,8.06,8.06,0,0,1-5.88,2.13,9.85,9.85,0,0,1-4-.88,7,7,0,0,1-3-2.41l1.69-2A6.37,6.37,0,0,0,487.24,46a5,5,0,0,0,3.69-1.33,5.09,5.09,0,0,0,1.33-3.76V39.26a6.67,6.67,0,0,1-5.32,2.25,6.54,6.54,0,0,1-5.42-2.69A11.8,11.8,0,0,1,479.47,31.49Zm3.27.37a8.64,8.64,0,0,0,1.31,5.06,4.3,4.3,0,0,0,3.7,1.83A4.75,4.75,0,0,0,492.26,36V27.27a4.82,4.82,0,0,0-4.48-2.72,4.32,4.32,0,0,0-3.71,1.84A9.31,9.31,0,0,0,482.74,31.86Zm25.61,9.65a8.33,8.33,0,0,1-6.3-2.53,9.49,9.49,0,0,1-2.42-6.8v-.6a11.53,11.53,0,0,1,1.07-5,8.63,8.63,0,0,1,3-3.48,7.66,7.66,0,0,1,4.22-1.26,7.12,7.12,0,0,1,5.77,2.44q2.06,2.44,2.06,7v1.35H502.88a6.79,6.79,0,0,0,1.64,4.55,5.19,5.19,0,0,0,4,1.73,5.66,5.66,0,0,0,2.92-.71,7.24,7.24,0,0,0,2.09-1.86l2,1.55A8,8,0,0,1,508.35,41.51Zm-.41-17a4.32,4.32,0,0,0-3.3,1.44,6.93,6.93,0,0,0-1.65,4h9.52v-.25a6.16,6.16,0,0,0-1.33-3.83A4.1,4.1,0,0,0,507.94,24.46ZM547.88,37.8a7.87,7.87,0,0,1-3.64,2.8,14.67,14.67,0,0,1-5.41.91,10.61,10.61,0,0,1-5.56-1.46,9.92,9.92,0,0,1-3.76-4.18,14.47,14.47,0,0,1-1.35-6.28V27.36c0-3.86.89-6.84,2.69-9a9.39,9.39,0,0,1,7.59-3.19,9.69,9.69,0,0,1,6.45,2.06,8.86,8.86,0,0,1,3,5.8h-3.37c-.64-3.39-2.65-5.08-6-5.08a6,6,0,0,0-5.15,2.39q-1.74,2.37-1.76,6.89v2.09a10.94,10.94,0,0,0,2,6.86,6.39,6.39,0,0,0,5.33,2.53,11.8,11.8,0,0,0,3.32-.42,5.16,5.16,0,0,0,2.35-1.42V31.16H538.6V28.41h9.28Zm16.88,3.36a6.84,6.84,0,0,1-.46-2,7.26,7.26,0,0,1-5.42,2.35,6.8,6.8,0,0,1-4.62-1.58,5.21,5.21,0,0,1-1.79-4,5.37,5.37,0,0,1,2.25-4.61,10.65,10.65,0,0,1,6.36-1.65h3.17v-1.5a3.6,3.6,0,0,0-1-2.7,4.09,4.09,0,0,0-3-1,4.73,4.73,0,0,0-2.92.88,2.59,2.59,0,0,0-1.18,2.12h-3.26a4.46,4.46,0,0,1,1-2.74,7,7,0,0,1,2.74-2.11,9.36,9.36,0,0,1,3.81-.77,7.48,7.48,0,0,1,5.15,1.65A5.9,5.9,0,0,1,567.5,28v8.75a10.62,10.62,0,0,0,.67,4.17v.28Zm-5.4-2.48a5.67,5.67,0,0,0,2.9-.79,4.8,4.8,0,0,0,2-2.06v-3.9H561.7q-6,0-6,3.5a3,3,0,0,0,1,2.39A3.94,3.94,0,0,0,559.36,38.68Zm29.3-6.82a11.44,11.44,0,0,1-2,7,6.37,6.37,0,0,1-5.38,2.65,7,7,0,0,1-5.45-2.2v9.16H572.6V22.14h3l.15,2.11a6.72,6.72,0,0,1,5.52-2.46,6.48,6.48,0,0,1,5.42,2.58,11.51,11.51,0,0,1,2,7.19Zm-3.25-.37A8.44,8.44,0,0,0,584,26.41a4.43,4.43,0,0,0-3.76-1.86,4.77,4.77,0,0,0-4.43,2.62v9.08a4.78,4.78,0,0,0,4.46,2.61A4.38,4.38,0,0,0,584,37,9.13,9.13,0,0,0,585.41,31.49Z"/><path class="cls-2" d="M159.4,264.16H156V238.57h3.38Zm8.73-19,.09,2.11a7,7,0,0,1,5.65-2.46q4,0,5.43,3.06a7.11,7.11,0,0,1,2.46-2.22,7.37,7.37,0,0,1,3.6-.84q6.25,0,6.36,6.62v12.75h-3.25V251.61a4.34,4.34,0,0,0-.93-3,4.07,4.07,0,0,0-3.13-1,4.24,4.24,0,0,0-3,1.09,4.33,4.33,0,0,0-1.39,2.9v12.62h-3.27V251.7c0-2.77-1.36-4.15-4.06-4.15a4.36,4.36,0,0,0-4.38,2.72v13.89h-3.25v-19Zm31.57,0,.09,2.11a7,7,0,0,1,5.65-2.46q4,0,5.43,3.06a7.11,7.11,0,0,1,2.46-2.22,7.37,7.37,0,0,1,3.6-.84q6.25,0,6.36,6.62v12.75H220V251.61a4.34,4.34,0,0,0-.93-3,4.07,4.07,0,0,0-3.13-1,4.26,4.26,0,0,0-3,1.09,4.33,4.33,0,0,0-1.39,2.9v12.62h-3.27V251.7c0-2.77-1.36-4.15-4.06-4.15a4.36,4.36,0,0,0-4.38,2.72v13.89h-3.25v-19Zm32.05,19H228.5v-19h3.25Zm-3.52-24.06a2,2,0,0,1,.48-1.34,2.16,2.16,0,0,1,2.88,0,1.91,1.91,0,0,1,.49,1.34,1.84,1.84,0,0,1-.49,1.31,1.92,1.92,0,0,1-3.36-1.31Zm8,14.39a11.12,11.12,0,0,1,2.05-7.06,7.08,7.08,0,0,1,10.88-.18l.16-2.11h3V263.7a7.74,7.74,0,0,1-2.19,5.82,8,8,0,0,1-5.87,2.13,9.86,9.86,0,0,1-4-.88,7,7,0,0,1-3-2.41l1.69-1.95A6.37,6.37,0,0,0,244,269a5,5,0,0,0,3.69-1.33,5.1,5.1,0,0,0,1.33-3.77v-1.63a6.67,6.67,0,0,1-5.32,2.25,6.54,6.54,0,0,1-5.42-2.69A11.8,11.8,0,0,1,236.2,254.49Zm3.27.37a8.56,8.56,0,0,0,1.32,5.06,4.27,4.27,0,0,0,3.69,1.83A4.75,4.75,0,0,0,249,259v-8.69a4.82,4.82,0,0,0-4.48-2.72,4.32,4.32,0,0,0-3.71,1.84A9.31,9.31,0,0,0,239.47,254.86Zm26.91-6.8a8.94,8.94,0,0,0-1.6-.13,4.28,4.28,0,0,0-4.34,2.73v13.5h-3.25v-19h3.16l0,2.2a5.07,5.07,0,0,1,4.54-2.55,3.4,3.4,0,0,1,1.44.24Zm14,16.1a6.91,6.91,0,0,1-.45-2,7.28,7.28,0,0,1-5.42,2.36,6.8,6.8,0,0,1-4.62-1.58,5.18,5.18,0,0,1-1.79-4,5.36,5.36,0,0,1,2.25-4.61,10.65,10.65,0,0,1,6.36-1.65h3.16v-1.5a3.62,3.62,0,0,0-1-2.7,4.07,4.07,0,0,0-3-1,4.73,4.73,0,0,0-2.92.88,2.59,2.59,0,0,0-1.18,2.12h-3.27a4.47,4.47,0,0,1,1-2.74,6.91,6.91,0,0,1,2.74-2.11,9.36,9.36,0,0,1,3.81-.77,7.5,7.5,0,0,1,5.15,1.65,5.93,5.93,0,0,1,1.94,4.52v8.75a10.82,10.82,0,0,0,.66,4.17v.28ZM275,261.68a5.7,5.7,0,0,0,2.9-.79,4.78,4.78,0,0,0,2-2.06v-3.9h-2.54q-6,0-6,3.5a3,3,0,0,0,1,2.39A3.94,3.94,0,0,0,275,261.68Zm17.65-21.15v4.61h3.55v2.51h-3.55v11.8a2.65,2.65,0,0,0,.47,1.72,2,2,0,0,0,1.62.56,7.84,7.84,0,0,0,1.54-.21v2.64a9.52,9.52,0,0,1-2.49.35,4.06,4.06,0,0,1-3.29-1.32,5.64,5.64,0,0,1-1.11-3.74v-11.8H286v-2.51h3.46v-4.61Zm10.89,23.63h-3.25v-19h3.25Zm-3.51-24.06a2,2,0,0,1,.47-1.34,2.17,2.17,0,0,1,2.89,0,2,2,0,0,1,.49,1.34,2,2,0,0,1-3.38,1.31A1.91,1.91,0,0,1,300.06,240.1Zm7.87,14.37a11.35,11.35,0,0,1,1.09-5,8.07,8.07,0,0,1,7.54-4.66,8,8,0,0,1,6.28,2.69,10.28,10.28,0,0,1,2.41,7.15v.23a11.35,11.35,0,0,1-1.07,5,8,8,0,0,1-3.05,3.43,8.36,8.36,0,0,1-4.53,1.23,8.05,8.05,0,0,1-6.28-2.69,10.34,10.34,0,0,1-2.39-7.12Zm3.27.39a8.19,8.19,0,0,0,1.46,5.08,5,5,0,0,0,7.88,0,9,9,0,0,0,1.46-5.45,8,8,0,0,0-1.5-5.06,4.92,4.92,0,0,0-7.82,0A8.83,8.83,0,0,0,311.2,254.86Zm21.2-9.72.11,2.39a6.91,6.91,0,0,1,5.69-2.74q6,0,6.09,6.8v12.57H341V251.57a4.35,4.35,0,0,0-.95-3,3.75,3.75,0,0,0-2.86-1,4.71,4.71,0,0,0-2.78.84,5.61,5.61,0,0,0-1.86,2.22v13.55h-3.25v-19Z"/><path class="cls-2" d="M309,329.68l7.82-21.11h3.94l-10.15,25.59h-3.19L297.3,308.57h3.93Zm13.12-5.21a10.74,10.74,0,0,1,1.16-5,8.51,8.51,0,0,1,3.27-3.45,9.43,9.43,0,0,1,4.8-1.21,8.81,8.81,0,0,1,6.71,2.69,9.92,9.92,0,0,1,2.57,7.15v.23a10.61,10.61,0,0,1-1.15,5,8.15,8.15,0,0,1-3.25,3.43,9.43,9.43,0,0,1-4.85,1.23,8.9,8.9,0,0,1-6.71-2.69,9.92,9.92,0,0,1-2.55-7.12Zm3.49.39a7.8,7.8,0,0,0,1.56,5.08,5.19,5.19,0,0,0,4.21,1.92,5.12,5.12,0,0,0,4.21-1.94,8.52,8.52,0,0,0,1.56-5.45,7.72,7.72,0,0,0-1.59-5.06,5.49,5.49,0,0,0-8.37,0A8.4,8.4,0,0,0,325.62,324.86Zm24.1-14.33v4.61h3.79v2.51h-3.79v11.8a2.54,2.54,0,0,0,.51,1.72,2.2,2.2,0,0,0,1.72.56,9,9,0,0,0,1.66-.21v2.64a11,11,0,0,1-2.67.35,4.46,4.46,0,0,1-3.51-1.32,5.4,5.4,0,0,1-1.19-3.74v-11.8h-3.7v-2.51h3.7v-4.61Zm16.31,24A9.23,9.23,0,0,1,359.3,332a9.1,9.1,0,0,1-2.59-6.8v-.6a10.77,10.77,0,0,1,1.15-5.05,8.68,8.68,0,0,1,3.23-3.48,8.56,8.56,0,0,1,4.51-1.26,7.88,7.88,0,0,1,6.17,2.44q2.19,2.44,2.19,7v1.35H360.19a6.56,6.56,0,0,0,1.74,4.55,5.76,5.76,0,0,0,4.29,1.73,6.37,6.37,0,0,0,3.12-.71,7.81,7.81,0,0,0,2.24-1.86l2.12,1.55Q371.15,334.52,366,334.51Zm-.43-17.05a4.77,4.77,0,0,0-3.53,1.44,6.7,6.7,0,0,0-1.77,4h10.19v-.25a5.92,5.92,0,0,0-1.43-3.83A4.52,4.52,0,0,0,365.6,317.46Zm22.23.6a11.22,11.22,0,0,0-1.71-.13,4.61,4.61,0,0,0-4.64,2.73v13.5H378v-19h3.38l.05,2.2a5.51,5.51,0,0,1,4.85-2.55,3.84,3.84,0,0,1,1.54.24Zm21.37,4.69a17.53,17.53,0,0,1-6.76-3.06,5.75,5.75,0,0,1-2.11-4.5,6,6,0,0,1,2.58-5,10.79,10.79,0,0,1,6.73-2,11.82,11.82,0,0,1,5,1,8.12,8.12,0,0,1,3.42,2.82A6.83,6.83,0,0,1,419.3,316h-3.63a4.49,4.49,0,0,0-1.58-3.64,6.7,6.7,0,0,0-4.45-1.34,6.94,6.94,0,0,0-4.18,1.11,3.57,3.57,0,0,0-1.48,3,3.24,3.24,0,0,0,1.41,2.65,14.36,14.36,0,0,0,4.83,2,22.76,22.76,0,0,1,5.34,2,7.63,7.63,0,0,1,2.85,2.51,6,6,0,0,1,.94,3.39,5.88,5.88,0,0,1-2.59,5,11.67,11.67,0,0,1-6.94,1.86,13.72,13.72,0,0,1-5.26-1,8.94,8.94,0,0,1-3.78-2.78,6.52,6.52,0,0,1-1.31-4h3.63a4.34,4.34,0,0,0,1.82,3.68,8.24,8.24,0,0,0,4.9,1.33,7.42,7.42,0,0,0,4.38-1.09,3.46,3.46,0,0,0,1.53-3,3.37,3.37,0,0,0-1.41-2.9A16.79,16.79,0,0,0,409.2,322.75ZM436,332.28a7.65,7.65,0,0,1-6,2.23,6.61,6.61,0,0,1-5-1.76,7.36,7.36,0,0,1-1.71-5.24V315.14h3.47v12.29c0,2.88,1.26,4.32,3.76,4.32q4,0,5.3-2.78V315.14h3.48v19h-3.31Zm25.86-7.42a10.85,10.85,0,0,1-2.13,7,7,7,0,0,1-5.75,2.65,7.68,7.68,0,0,1-5.82-2.2v9.16h-3.48V315.14h3.18l.17,2.11a7.37,7.37,0,0,1,5.9-2.46,7.11,7.11,0,0,1,5.79,2.58,11,11,0,0,1,2.14,7.19Zm-3.48-.37a8.05,8.05,0,0,0-1.46-5.08,4.85,4.85,0,0,0-4-1.86,5.16,5.16,0,0,0-4.73,2.62v9.09a5.19,5.19,0,0,0,4.77,2.6,4.81,4.81,0,0,0,4-1.85A8.72,8.72,0,0,0,458.39,324.49Zm25.09.37a10.84,10.84,0,0,1-2.12,7,7,7,0,0,1-5.75,2.65,7.72,7.72,0,0,1-5.83-2.2v9.16H466.3V315.14h3.18l.17,2.11a7.38,7.38,0,0,1,5.9-2.46,7.11,7.11,0,0,1,5.79,2.58,11,11,0,0,1,2.14,7.19Zm-3.47-.37a8,8,0,0,0-1.47-5.08,4.85,4.85,0,0,0-4-1.86,5.17,5.17,0,0,0-4.74,2.62v9.09a5.19,5.19,0,0,0,4.77,2.6,4.81,4.81,0,0,0,4-1.85A8.71,8.71,0,0,0,480,324.49Zm17.74-6.43a11.43,11.43,0,0,0-1.71-.13,4.6,4.6,0,0,0-4.64,2.73v13.5h-3.48v-19h3.38l.06,2.2a5.49,5.49,0,0,1,4.85-2.55,3.87,3.87,0,0,1,1.54.24ZM509,334.51A9.21,9.21,0,0,1,502.3,332a9.11,9.11,0,0,1-2.6-6.8v-.6a10.77,10.77,0,0,1,1.15-5.05,8.75,8.75,0,0,1,3.23-3.48,8.58,8.58,0,0,1,4.51-1.26,7.87,7.87,0,0,1,6.17,2.44c1.46,1.63,2.2,4,2.2,7v1.35H503.18a6.53,6.53,0,0,0,1.75,4.55,5.74,5.74,0,0,0,4.28,1.73,6.37,6.37,0,0,0,3.12-.71,7.81,7.81,0,0,0,2.24-1.86l2.12,1.55C515,333.29,512.43,334.51,509,334.51Zm-.44-17.05a4.77,4.77,0,0,0-3.53,1.44,6.76,6.76,0,0,0-1.77,4h10.19v-.25a5.92,5.92,0,0,0-1.43-3.83A4.5,4.5,0,0,0,508.59,317.46Zm24.25,11.65a2.32,2.32,0,0,0-1.07-2,10.46,10.46,0,0,0-3.71-1.26,18.13,18.13,0,0,1-4.19-1.27,6,6,0,0,1-2.29-1.75,4,4,0,0,1-.73-2.43,4.85,4.85,0,0,1,2.1-4,8.75,8.75,0,0,1,5.42-1.61,8.88,8.88,0,0,1,5.6,1.67,5.16,5.16,0,0,1,2.16,4.27h-3.5a2.86,2.86,0,0,0-1.22-2.3,4.67,4.67,0,0,0-3-1,5,5,0,0,0-3,.77,2.39,2.39,0,0,0-1.08,2,2,2,0,0,0,1,1.77,12.61,12.61,0,0,0,3.59,1.14,20.37,20.37,0,0,1,4.23,1.3,6.11,6.11,0,0,1,2.39,1.83,4.26,4.26,0,0,1,.79,2.59,4.8,4.8,0,0,1-2.18,4.09,9.66,9.66,0,0,1-5.66,1.53,10.81,10.81,0,0,1-4.32-.81,7.09,7.09,0,0,1-3-2.25,5.27,5.27,0,0,1-1.05-3.15h3.48a3.36,3.36,0,0,0,1.39,2.61,5.81,5.81,0,0,0,3.46.95,6,6,0,0,0,3.16-.74A2.29,2.29,0,0,0,532.84,329.11Zm19.85,0a2.32,2.32,0,0,0-1.07-2,10.54,10.54,0,0,0-3.71-1.26,18.13,18.13,0,0,1-4.19-1.27,5.91,5.91,0,0,1-2.29-1.75,4,4,0,0,1-.73-2.43,4.85,4.85,0,0,1,2.1-4,8.74,8.74,0,0,1,5.41-1.61,8.84,8.84,0,0,1,5.6,1.67,5.17,5.17,0,0,1,2.17,4.27h-3.5a2.86,2.86,0,0,0-1.22-2.3,4.68,4.68,0,0,0-3-1,5.06,5.06,0,0,0-3,.77,2.4,2.4,0,0,0-1.07,2,1.93,1.93,0,0,0,1,1.77,12.61,12.61,0,0,0,3.59,1.14,20.37,20.37,0,0,1,4.23,1.3,6.07,6.07,0,0,1,2.38,1.83,4.2,4.2,0,0,1,.79,2.59A4.78,4.78,0,0,1,554,333a9.62,9.62,0,0,1-5.65,1.53,10.89,10.89,0,0,1-4.33-.81,7.12,7.12,0,0,1-3-2.25,5.27,5.27,0,0,1-1-3.15h3.48a3.33,3.33,0,0,0,1.39,2.61,5.81,5.81,0,0,0,3.46.95,5.92,5.92,0,0,0,3.15-.74A2.28,2.28,0,0,0,552.69,329.11Zm11.78,5.05H561v-19h3.48Zm-3.76-24.06a1.88,1.88,0,0,1,.51-1.34,2.43,2.43,0,0,1,3.08,0,1.86,1.86,0,0,1,.53,1.34,1.79,1.79,0,0,1-.53,1.31,2.5,2.5,0,0,1-3.08,0A1.81,1.81,0,0,1,560.71,310.1Zm8.42,14.37a10.62,10.62,0,0,1,1.17-5,8.51,8.51,0,0,1,3.27-3.45,9.4,9.4,0,0,1,4.79-1.21,8.8,8.8,0,0,1,6.71,2.69,9.88,9.88,0,0,1,2.58,7.15v.23a10.73,10.73,0,0,1-1.15,5,8.21,8.21,0,0,1-3.25,3.43,9.45,9.45,0,0,1-4.85,1.23,8.88,8.88,0,0,1-6.71-2.69,9.89,9.89,0,0,1-2.56-7.12Zm3.5.39a7.8,7.8,0,0,0,1.56,5.08,5.56,5.56,0,0,0,8.42,0,8.52,8.52,0,0,0,1.56-5.45,7.67,7.67,0,0,0-1.6-5.06,5.48,5.48,0,0,0-8.36,0A8.35,8.35,0,0,0,572.63,324.86Zm22.66-9.72.12,2.39a7.59,7.59,0,0,1,6.09-2.74q6.45,0,6.5,6.8v12.57h-3.48V321.57a3.54,3.54,0,0,0-4.08-4,5.32,5.32,0,0,0-3,.84,5.84,5.84,0,0,0-2,2.22v13.55H592v-19Z"/><path class="cls-2" d="M501.14,165.57l8.36,20.88,8.37-20.88h4.38v25.59h-3.38v-10l.32-10.76-8.4,20.73H508.2l-8.38-20.67.33,10.7v10h-3.37V165.57Zm38.3,25.59a6.84,6.84,0,0,1-.46-2,7.25,7.25,0,0,1-5.41,2.36,6.76,6.76,0,0,1-4.62-1.58,5.19,5.19,0,0,1-1.8-4,5.36,5.36,0,0,1,2.25-4.61,10.68,10.68,0,0,1,6.37-1.65h3.16v-1.5a3.62,3.62,0,0,0-1-2.7,4.08,4.08,0,0,0-3-1,4.68,4.68,0,0,0-2.91.88,2.56,2.56,0,0,0-1.18,2.12h-3.27a4.46,4.46,0,0,1,1-2.74,7,7,0,0,1,2.74-2.11,9.38,9.38,0,0,1,3.82-.77,7.5,7.5,0,0,1,5.15,1.65,5.92,5.92,0,0,1,1.93,4.52v8.75a10.62,10.62,0,0,0,.67,4.17v.28Zm-5.4-2.48a5.67,5.67,0,0,0,2.9-.79,4.75,4.75,0,0,0,2-2.06v-3.9h-2.55c-4,0-6,1.17-6,3.5a3,3,0,0,0,1,2.39A4,4,0,0,0,534,188.68Zm22.43-13.62a8.86,8.86,0,0,0-1.6-.13,4.28,4.28,0,0,0-4.34,2.73v13.5h-3.25v-19h3.16l.06,2.2a5,5,0,0,1,4.53-2.55,3.4,3.4,0,0,1,1.44.24Zm6.54,16.1h-3.25v-19H563ZM559.5,167.1a1.94,1.94,0,0,1,.47-1.34,2.16,2.16,0,0,1,2.88,0,1.92,1.92,0,0,1,.5,1.34,1.84,1.84,0,0,1-.5,1.31,1.91,1.91,0,0,1-3.35-1.31Zm12.09,5v21.22q0,5.47-5,5.48a5.81,5.81,0,0,1-2-.32v-2.6a6,6,0,0,0,1.48.14,2.2,2.2,0,0,0,1.65-.59,2.89,2.89,0,0,0,.58-2V172.14Zm-3.59-5a1.92,1.92,0,0,1,.48-1.32,1.77,1.77,0,0,1,1.42-.57,1.8,1.8,0,0,1,1.44.55,1.92,1.92,0,0,1,.5,1.34,1.77,1.77,0,0,1-1.94,1.84,1.81,1.81,0,0,1-1.42-.53A1.87,1.87,0,0,1,568,167.1Zm20.59,22.18a6.91,6.91,0,0,1-5.57,2.23,6,6,0,0,1-4.65-1.76,7.72,7.72,0,0,1-1.59-5.24V172.14H580v12.29q0,4.32,3.51,4.32,3.74,0,5-2.78V172.14h3.25v19h-3.09Zm19.86,1.88a6.84,6.84,0,0,1-.46-2,7.25,7.25,0,0,1-5.41,2.36,6.76,6.76,0,0,1-4.62-1.58,5.19,5.19,0,0,1-1.8-4,5.36,5.36,0,0,1,2.25-4.61,10.7,10.7,0,0,1,6.37-1.65h3.16v-1.5a3.62,3.62,0,0,0-1-2.7,4.07,4.07,0,0,0-3-1,4.71,4.71,0,0,0-2.92.88,2.56,2.56,0,0,0-1.18,2.12h-3.27a4.46,4.46,0,0,1,1-2.74,7,7,0,0,1,2.74-2.11,9.41,9.41,0,0,1,3.82-.77,7.5,7.5,0,0,1,5.15,1.65,5.89,5.89,0,0,1,1.93,4.52v8.75a10.8,10.8,0,0,0,.67,4.17v.28Zm-5.4-2.48a5.67,5.67,0,0,0,2.9-.79,4.75,4.75,0,0,0,2-2.06v-3.9h-2.55q-6,0-6,3.5a3,3,0,0,0,1,2.39A3.93,3.93,0,0,0,603.05,188.68Zm16.32-16.54.1,2.39a6.93,6.93,0,0,1,5.7-2.74q6,0,6.08,6.8v12.57H628V178.57a4.35,4.35,0,0,0-1-3,3.77,3.77,0,0,0-2.87-1,4.68,4.68,0,0,0-2.77.84,5.71,5.71,0,0,0-1.87,2.22v13.55h-3.25v-19Zm28.53,19a6.84,6.84,0,0,1-.46-2,7.26,7.26,0,0,1-5.41,2.36,6.81,6.81,0,0,1-4.63-1.58,5.21,5.21,0,0,1-1.79-4,5.36,5.36,0,0,1,2.25-4.61,10.65,10.65,0,0,1,6.36-1.65h3.17v-1.5a3.62,3.62,0,0,0-1-2.7,4.08,4.08,0,0,0-3-1,4.73,4.73,0,0,0-2.92.88,2.58,2.58,0,0,0-1.17,2.12H636a4.46,4.46,0,0,1,1-2.74,7,7,0,0,1,2.74-2.11,9.36,9.36,0,0,1,3.81-.77,7.48,7.48,0,0,1,5.15,1.65,5.9,5.9,0,0,1,1.94,4.52v8.75a10.62,10.62,0,0,0,.67,4.17v.28Zm-5.4-2.48a5.67,5.67,0,0,0,2.9-.79,4.8,4.8,0,0,0,2-2.06v-3.9h-2.55q-6,0-6,3.5a3,3,0,0,0,1,2.39A3.94,3.94,0,0,0,642.5,188.68Zm26.07-.28H680.7v2.76H665.18V165.57h3.39Zm23.36,3.11a8.29,8.29,0,0,1-6.29-2.53,9.45,9.45,0,0,1-2.43-6.8v-.6a11.53,11.53,0,0,1,1.07-5.05,8.58,8.58,0,0,1,3-3.48,7.61,7.61,0,0,1,4.22-1.26,7.11,7.11,0,0,1,5.76,2.44q2.06,2.45,2.06,7v1.35H686.46a6.79,6.79,0,0,0,1.64,4.55,5.2,5.2,0,0,0,4,1.73,5.63,5.63,0,0,0,2.91-.71,7.41,7.41,0,0,0,2.1-1.86l2,1.55A8,8,0,0,1,691.93,191.51Zm-.4-17a4.33,4.33,0,0,0-3.31,1.44,6.93,6.93,0,0,0-1.65,4h9.53v-.25a6.17,6.17,0,0,0-1.34-3.83A4.09,4.09,0,0,0,691.53,174.46Zm10.82,7a11.13,11.13,0,0,1,2.06-7.06,7.08,7.08,0,0,1,10.88-.18l.16-2.11h3V190.7a7.71,7.71,0,0,1-2.2,5.82,8,8,0,0,1-5.87,2.13,9.85,9.85,0,0,1-4-.88,6.92,6.92,0,0,1-3-2.41l1.69-2a6.35,6.35,0,0,0,5.11,2.58,4.94,4.94,0,0,0,3.69-1.33,5.11,5.11,0,0,0,1.34-3.77v-1.63a6.69,6.69,0,0,1-5.33,2.25,6.53,6.53,0,0,1-5.41-2.69A11.8,11.8,0,0,1,702.35,181.49Zm3.27.37a8.56,8.56,0,0,0,1.32,5.06,4.29,4.29,0,0,0,3.69,1.83,4.77,4.77,0,0,0,4.52-2.79v-8.69a4.83,4.83,0,0,0-4.48-2.72,4.32,4.32,0,0,0-3.71,1.84A9.31,9.31,0,0,0,705.62,181.86Zm29.46,9.3a6.91,6.91,0,0,1-.45-2,7.27,7.27,0,0,1-5.42,2.36,6.8,6.8,0,0,1-4.62-1.58,5.18,5.18,0,0,1-1.79-4,5.36,5.36,0,0,1,2.25-4.61,10.65,10.65,0,0,1,6.36-1.65h3.16v-1.5a3.62,3.62,0,0,0-1-2.7,4.07,4.07,0,0,0-3-1,4.73,4.73,0,0,0-2.92.88,2.59,2.59,0,0,0-1.18,2.12h-3.27a4.47,4.47,0,0,1,1-2.74,7,7,0,0,1,2.74-2.11,9.36,9.36,0,0,1,3.81-.77,7.5,7.5,0,0,1,5.15,1.65,5.93,5.93,0,0,1,1.94,4.52v8.75a10.82,10.82,0,0,0,.66,4.17v.28Zm-5.39-2.48a5.7,5.7,0,0,0,2.9-.79,4.78,4.78,0,0,0,2-2.06v-3.9H732q-6,0-6,3.5a3,3,0,0,0,1,2.39A3.94,3.94,0,0,0,729.69,188.68Zm16.77,2.48H743.2v-27h3.26Zm8.75,0H752v-19h3.25ZM751.7,167.1a1.94,1.94,0,0,1,.47-1.34,2.16,2.16,0,0,1,2.88,0,1.91,1.91,0,0,1,.49,1.34,1.84,1.84,0,0,1-.49,1.31,2.22,2.22,0,0,1-2.88,0A1.87,1.87,0,0,1,751.7,167.1Zm11.79,21.4h11.13v2.66h-15.1v-2.39L770,174.83H759.68v-2.69h14.41v2.3ZM790,191.16a6.91,6.91,0,0,1-.45-2,7.28,7.28,0,0,1-5.42,2.36,6.8,6.8,0,0,1-4.62-1.58,5.18,5.18,0,0,1-1.79-4,5.36,5.36,0,0,1,2.25-4.61,10.65,10.65,0,0,1,6.36-1.65h3.16v-1.5a3.62,3.62,0,0,0-1-2.7,4.07,4.07,0,0,0-3-1,4.73,4.73,0,0,0-2.92.88,2.56,2.56,0,0,0-1.18,2.12h-3.27a4.52,4.52,0,0,1,1-2.74,7,7,0,0,1,2.75-2.11,9.36,9.36,0,0,1,3.81-.77,7.5,7.5,0,0,1,5.15,1.65,5.93,5.93,0,0,1,1.94,4.52v8.75a10.82,10.82,0,0,0,.66,4.17v.28Zm-5.39-2.48a5.7,5.7,0,0,0,2.9-.79,4.78,4.78,0,0,0,2-2.06v-3.9H787q-6,0-6,3.5a3,3,0,0,0,1,2.39A3.94,3.94,0,0,0,784.64,188.68Zm17.65-21.15v4.61h3.55v2.51h-3.55v11.8a2.65,2.65,0,0,0,.47,1.72,2,2,0,0,0,1.62.56,7.84,7.84,0,0,0,1.54-.21v2.64a9.52,9.52,0,0,1-2.49.35,4,4,0,0,1-3.29-1.32,5.64,5.64,0,0,1-1.11-3.74v-11.8h-3.46v-2.51H799v-4.61Zm10.89,23.63h-3.25v-19h3.25Zm-3.51-24.06a2,2,0,0,1,.47-1.34,2.17,2.17,0,0,1,2.89,0,2,2,0,0,1,.49,1.34,2,2,0,0,1-3.38,1.31A1.91,1.91,0,0,1,809.67,167.1Zm7.87,14.37a11.35,11.35,0,0,1,1.09-5,8.07,8.07,0,0,1,7.54-4.66,8,8,0,0,1,6.28,2.69,10.33,10.33,0,0,1,2.41,7.15v.23a11.35,11.35,0,0,1-1.07,5,8,8,0,0,1-3,3.43,8.36,8.36,0,0,1-4.53,1.23,8.05,8.05,0,0,1-6.28-2.69,10.34,10.34,0,0,1-2.39-7.12Zm3.27.39a8.19,8.19,0,0,0,1.46,5.08,5,5,0,0,0,7.88,0,9,9,0,0,0,1.46-5.45,8,8,0,0,0-1.5-5.06,4.92,4.92,0,0,0-7.82,0A8.76,8.76,0,0,0,820.81,181.86Zm21.2-9.72.11,2.39a6.91,6.91,0,0,1,5.69-2.74q6,0,6.08,6.8v12.57h-3.25V178.57a4.35,4.35,0,0,0-.95-3,3.75,3.75,0,0,0-2.86-1,4.71,4.71,0,0,0-2.78.84,5.61,5.61,0,0,0-1.86,2.22v13.55h-3.25v-19Z"/><path class="cls-2" d="M319.89,179.86H309.15v11.3h-3.37V165.57h15.85v2.77H309.15v8.76h10.74Zm14-4.8a8.86,8.86,0,0,0-1.6-.13,4.28,4.28,0,0,0-4.34,2.73v13.5h-3.25v-19h3.16l.06,2.2a5,5,0,0,1,4.53-2.55,3.4,3.4,0,0,1,1.44.24ZM348,191.16a6.84,6.84,0,0,1-.46-2,7.26,7.26,0,0,1-5.41,2.36,6.81,6.81,0,0,1-4.63-1.58,5.21,5.21,0,0,1-1.79-4,5.36,5.36,0,0,1,2.25-4.61,10.65,10.65,0,0,1,6.36-1.65h3.17v-1.5a3.62,3.62,0,0,0-1-2.7,4.08,4.08,0,0,0-3-1,4.73,4.73,0,0,0-2.92.88,2.58,2.58,0,0,0-1.17,2.12h-3.27a4.46,4.46,0,0,1,1-2.74,7,7,0,0,1,2.74-2.11,9.38,9.38,0,0,1,3.82-.77,7.51,7.51,0,0,1,5.15,1.65,5.92,5.92,0,0,1,1.93,4.52v8.75a10.62,10.62,0,0,0,.67,4.17v.28Zm-5.4-2.48a5.67,5.67,0,0,0,2.9-.79,4.75,4.75,0,0,0,2-2.06v-3.9h-2.55q-6,0-6,3.5a3,3,0,0,0,1,2.39A3.94,3.94,0,0,0,342.55,188.68Zm20.87.18a4.71,4.71,0,0,0,3-1.06,3.75,3.75,0,0,0,1.44-2.64H371a5.87,5.87,0,0,1-1.12,3.12,7.37,7.37,0,0,1-2.78,2.35,8.46,8.46,0,0,1-9.84-1.7,10.39,10.39,0,0,1-2.29-7.11v-.54a11.45,11.45,0,0,1,1-4.94,7.86,7.86,0,0,1,2.92-3.36,8.42,8.42,0,0,1,4.52-1.19,7.64,7.64,0,0,1,5.31,1.91,6.86,6.86,0,0,1,2.26,5H367.9a4.46,4.46,0,0,0-1.41-3,4.31,4.31,0,0,0-3.09-1.19,4.58,4.58,0,0,0-3.85,1.79,8.41,8.41,0,0,0-1.35,5.15V182a8.22,8.22,0,0,0,1.35,5.06A4.58,4.58,0,0,0,363.42,188.86Zm16.52-6.51-2,2.13v6.68h-3.25v-27h3.25v16.33l1.74-2.09,5.92-6.26h4l-7.4,7.94,8.26,11.08h-3.81Zm16.47,8.81h-3.25v-19h3.25Zm-3.52-24.06a2,2,0,0,1,.48-1.34,2.16,2.16,0,0,1,2.88,0,1.91,1.91,0,0,1,.49,1.34,1.84,1.84,0,0,1-.49,1.31,1.92,1.92,0,0,1-3.36-1.31Zm11.82,5,.1,2.39a6.93,6.93,0,0,1,5.7-2.74q6,0,6.08,6.8v12.57h-3.25V178.57a4.35,4.35,0,0,0-.95-3,3.77,3.77,0,0,0-2.87-1,4.68,4.68,0,0,0-2.77.84,5.71,5.71,0,0,0-1.87,2.22v13.55h-3.25v-19Zm16,9.35a11.13,11.13,0,0,1,2.06-7.06,7.08,7.08,0,0,1,10.88-.18l.16-2.11h3V190.7a7.75,7.75,0,0,1-2.2,5.82,8,8,0,0,1-5.87,2.13,9.93,9.93,0,0,1-4-.88,7,7,0,0,1-3-2.41l1.68-2a6.37,6.37,0,0,0,5.12,2.58,5,5,0,0,0,3.69-1.33,5.11,5.11,0,0,0,1.34-3.77v-1.63a6.69,6.69,0,0,1-5.33,2.25,6.51,6.51,0,0,1-5.41-2.69A11.8,11.8,0,0,1,420.72,181.49Zm3.27.37a8.56,8.56,0,0,0,1.32,5.06,4.29,4.29,0,0,0,3.69,1.83,4.77,4.77,0,0,0,4.52-2.79v-8.69a4.83,4.83,0,0,0-4.48-2.72,4.31,4.31,0,0,0-3.71,1.84A9.31,9.31,0,0,0,424,181.86Z"/><path class="cls-2" d="M393.24,253.33H382.15v9.07H395v2.76H378.78V239.57h16.08v2.77H382.15v8.23h11.09Zm9,11.83H399v-27h3.25Zm13.11.35a8.32,8.32,0,0,1-6.29-2.53,9.45,9.45,0,0,1-2.42-6.8v-.6a11.39,11.39,0,0,1,1.07-5.05,8.48,8.48,0,0,1,3-3.48,7.64,7.64,0,0,1,4.22-1.26,7.13,7.13,0,0,1,5.77,2.44q2.06,2.45,2.05,7v1.35H409.91a6.78,6.78,0,0,0,1.63,4.55,5.21,5.21,0,0,0,4,1.73,5.66,5.66,0,0,0,2.92-.71,7.37,7.37,0,0,0,2.09-1.86l2,1.55A8,8,0,0,1,415.37,265.51Zm-.4-17a4.32,4.32,0,0,0-3.3,1.44,6.94,6.94,0,0,0-1.66,4h9.53v-.25a6.11,6.11,0,0,0-1.34-3.83A4.06,4.06,0,0,0,415,248.46Zm19.23,14.4a4.71,4.71,0,0,0,3-1.06,3.68,3.68,0,0,0,1.44-2.64h3.08a5.89,5.89,0,0,1-1.13,3.12,7.33,7.33,0,0,1-2.77,2.35,8.47,8.47,0,0,1-9.85-1.7,10.43,10.43,0,0,1-2.28-7.11v-.54a11.45,11.45,0,0,1,1-4.94,7.8,7.8,0,0,1,2.92-3.36,8.38,8.38,0,0,1,4.51-1.19,7.61,7.61,0,0,1,5.31,1.91,6.83,6.83,0,0,1,2.27,5h-3.08a4.45,4.45,0,0,0-1.4-3,4.34,4.34,0,0,0-3.1-1.19,4.59,4.59,0,0,0-3.85,1.79A8.41,8.41,0,0,0,429,255.4V256a8.22,8.22,0,0,0,1.35,5.06A4.61,4.61,0,0,0,434.2,262.86Zm15.63-21.33v4.61h3.55v2.51h-3.55v11.8a2.71,2.71,0,0,0,.47,1.72,2,2,0,0,0,1.62.56,8,8,0,0,0,1.55-.21v2.64a9.65,9.65,0,0,1-2.5.35,4.06,4.06,0,0,1-3.29-1.32,5.69,5.69,0,0,1-1.1-3.74v-11.8h-3.47v-2.51h3.47v-4.61Zm10.9,23.63h-3.26v-19h3.26Zm-3.52-24.06a2,2,0,0,1,.48-1.34,1.8,1.8,0,0,1,1.44-.55,1.83,1.83,0,0,1,1.44.55,1.91,1.91,0,0,1,.49,1.34,1.84,1.84,0,0,1-.49,1.31,1.89,1.89,0,0,1-1.44.53,1.74,1.74,0,0,1-1.92-1.84Zm7.88,14.37a11.22,11.22,0,0,1,1.09-5,8.22,8.22,0,0,1,3.05-3.45,8.39,8.39,0,0,1,4.49-1.21,8,8,0,0,1,6.27,2.69,10.28,10.28,0,0,1,2.41,7.15v.23a11.35,11.35,0,0,1-1.07,5,8.05,8.05,0,0,1-3,3.43,8.42,8.42,0,0,1-4.54,1.23,8,8,0,0,1-6.27-2.69,10.29,10.29,0,0,1-2.39-7.12Zm3.27.39a8.19,8.19,0,0,0,1.45,5.08,5,5,0,0,0,7.88,0,9,9,0,0,0,1.46-5.45,8,8,0,0,0-1.5-5.06,4.92,4.92,0,0,0-7.82,0A8.83,8.83,0,0,0,468.36,255.86Zm21.19-9.72.11,2.39a6.92,6.92,0,0,1,5.7-2.74q6,0,6.08,6.8v12.57h-3.25V252.57a4.4,4.4,0,0,0-.95-3,3.77,3.77,0,0,0-2.87-1,4.73,4.73,0,0,0-2.78.84,5.78,5.78,0,0,0-1.86,2.22v13.55h-3.25v-19Zm33.77,7.61a16.05,16.05,0,0,1-6.33-3.06,5.9,5.9,0,0,1-2-4.5,6.18,6.18,0,0,1,2.4-5,9.66,9.66,0,0,1,6.3-2,10.43,10.43,0,0,1,4.69,1,7.67,7.67,0,0,1,3.2,2.82,7.15,7.15,0,0,1,1.14,3.92h-3.39a4.61,4.61,0,0,0-1.48-3.64,6,6,0,0,0-4.16-1.34,6.17,6.17,0,0,0-3.91,1.11,3.65,3.65,0,0,0-1.38,3,3.3,3.3,0,0,0,1.31,2.65,13.23,13.23,0,0,0,4.52,2,20.33,20.33,0,0,1,5,2,7.42,7.42,0,0,1,2.68,2.51,6.43,6.43,0,0,1,.87,3.39,6,6,0,0,1-2.42,5,10.4,10.4,0,0,1-6.49,1.86,12.06,12.06,0,0,1-4.92-1,8.43,8.43,0,0,1-3.53-2.78,6.78,6.78,0,0,1-1.23-4h3.39a4.44,4.44,0,0,0,1.7,3.67,7.3,7.3,0,0,0,4.59,1.34,6.63,6.63,0,0,0,4.1-1.09,3.54,3.54,0,0,0,1.42-3,3.45,3.45,0,0,0-1.32-2.9A15.09,15.09,0,0,0,523.32,253.75Zm21.22,11.76a8.29,8.29,0,0,1-6.29-2.53,9.45,9.45,0,0,1-2.43-6.8v-.6a11.53,11.53,0,0,1,1.07-5.05,8.58,8.58,0,0,1,3-3.48,7.6,7.6,0,0,1,4.21-1.26,7.12,7.12,0,0,1,5.77,2.44q2.05,2.45,2.06,7v1.35H539.07a6.79,6.79,0,0,0,1.64,4.55,5.19,5.19,0,0,0,4,1.73,5.64,5.64,0,0,0,2.92-.71,7.24,7.24,0,0,0,2.09-1.86l2,1.55A8,8,0,0,1,544.54,265.51Zm-.41-17a4.32,4.32,0,0,0-3.3,1.44,6.93,6.93,0,0,0-1.65,4h9.52v-.25a6.11,6.11,0,0,0-1.33-3.83A4.1,4.1,0,0,0,544.13,248.46Zm19.24,14.4a4.71,4.71,0,0,0,3-1.06,3.75,3.75,0,0,0,1.44-2.64h3.07a5.87,5.87,0,0,1-1.12,3.12,7.37,7.37,0,0,1-2.78,2.35,8.46,8.46,0,0,1-9.84-1.7,10.39,10.39,0,0,1-2.29-7.11v-.54a11.45,11.45,0,0,1,1-4.94,7.8,7.8,0,0,1,2.92-3.36,8.42,8.42,0,0,1,4.52-1.19,7.64,7.64,0,0,1,5.31,1.91,6.86,6.86,0,0,1,2.26,5h-3.07a4.46,4.46,0,0,0-1.41-3,4.31,4.31,0,0,0-3.09-1.19,4.58,4.58,0,0,0-3.85,1.79,8.41,8.41,0,0,0-1.36,5.15V256a8.21,8.21,0,0,0,1.36,5.06A4.58,4.58,0,0,0,563.37,262.86Zm23,.42a6.89,6.89,0,0,1-5.57,2.23,5.93,5.93,0,0,1-4.64-1.76,7.67,7.67,0,0,1-1.6-5.24V246.14h3.25v12.29q0,4.32,3.52,4.32,3.72,0,5-2.78V246.14h3.26v19h-3.1Zm17.32-14.22a9,9,0,0,0-1.6-.13,4.28,4.28,0,0,0-4.34,2.73v13.5h-3.26v-19h3.17l0,2.2a5.07,5.07,0,0,1,4.54-2.55,3.4,3.4,0,0,1,1.44.24Zm6.54,16.1h-3.26v-19h3.26Zm-3.52-24.06a2,2,0,0,1,.47-1.34,2.17,2.17,0,0,1,2.89,0,1.91,1.91,0,0,1,.49,1.34,1.84,1.84,0,0,1-.49,1.31,2.23,2.23,0,0,1-2.89,0A1.91,1.91,0,0,1,606.66,241.1Zm13.15.43v4.61h3.55v2.51h-3.55v11.8a2.71,2.71,0,0,0,.47,1.72,2,2,0,0,0,1.62.56,7.92,7.92,0,0,0,1.55-.21v2.64a9.65,9.65,0,0,1-2.5.35,4.06,4.06,0,0,1-3.29-1.32,5.69,5.69,0,0,1-1.1-3.74v-11.8h-3.47v-2.51h3.47v-4.61Zm13.59,18.86,4.43-14.25h3.48l-7.65,22q-1.77,4.74-5.64,4.74l-.62,0-1.21-.23v-2.64l.88.07a4.22,4.22,0,0,0,2.56-.67,4.63,4.63,0,0,0,1.53-2.44l.72-1.93-6.78-18.81h3.55Z"/><path class="cls-2" d="M14.3,257.09l.49,3.38.72-3,5.06-17.86h2.85l4.94,17.86.7,3.09.55-3.45,4-17.5H37l-6.2,25.59H27.69l-5.27-18.65L22,244.56l-.4,1.95-5.47,18.65H13.07L6.88,239.57h3.37Zm33.25,8.42A8.32,8.32,0,0,1,41.26,263a9.45,9.45,0,0,1-2.42-6.8v-.6a11.39,11.39,0,0,1,1.07-5.05,8.48,8.48,0,0,1,3-3.48,7.64,7.64,0,0,1,4.22-1.26,7.13,7.13,0,0,1,5.77,2.44q2.05,2.45,2,7v1.35H42.09a6.78,6.78,0,0,0,1.63,4.55,5.21,5.21,0,0,0,4,1.73,5.66,5.66,0,0,0,2.92-.71,7.37,7.37,0,0,0,2.09-1.86l2,1.55A8,8,0,0,1,47.55,265.51Zm-.4-17a4.32,4.32,0,0,0-3.3,1.44,6.94,6.94,0,0,0-1.66,4h9.53v-.25a6.11,6.11,0,0,0-1.34-3.83A4.06,4.06,0,0,0,47.15,248.46Zm15.14,16.7H59v-27h3.26Zm6.82,0V248.65h-3v-2.51h3v-1.95a6.47,6.47,0,0,1,1.63-4.73,6.18,6.18,0,0,1,4.62-1.67,8.57,8.57,0,0,1,2.24.3l-.18,2.63a9.86,9.86,0,0,0-1.76-.15,3.16,3.16,0,0,0-2.44.93,3.68,3.68,0,0,0-.86,2.64v2h4.06v2.51H72.36v16.51Zm22.65,0a6.91,6.91,0,0,1-.45-2,7.27,7.27,0,0,1-5.42,2.36,6.8,6.8,0,0,1-4.62-1.58,5.18,5.18,0,0,1-1.79-4,5.36,5.36,0,0,1,2.25-4.61,10.65,10.65,0,0,1,6.36-1.65h3.16v-1.5a3.62,3.62,0,0,0-1-2.7,4.07,4.07,0,0,0-3-1,4.73,4.73,0,0,0-2.92.88,2.59,2.59,0,0,0-1.18,2.12H79.86a4.47,4.47,0,0,1,1-2.74,7,7,0,0,1,2.74-2.11,9.36,9.36,0,0,1,3.81-.77,7.5,7.5,0,0,1,5.15,1.65A5.93,5.93,0,0,1,94.51,252v8.75a10.82,10.82,0,0,0,.66,4.17v.28Zm-5.39-2.48a5.7,5.7,0,0,0,2.9-.79,4.78,4.78,0,0,0,2-2.06v-3.9H88.71q-6,0-6,3.5a3,3,0,0,0,1,2.39A3.94,3.94,0,0,0,86.37,262.68Zm22.43-13.62a9,9,0,0,0-1.6-.13,4.28,4.28,0,0,0-4.34,2.73v13.5H99.6v-19h3.17l0,2.2a5.07,5.07,0,0,1,4.54-2.55,3.4,3.4,0,0,1,1.44.24Zm10.54,16.45a8.32,8.32,0,0,1-6.29-2.53,9.45,9.45,0,0,1-2.43-6.8v-.6a11.39,11.39,0,0,1,1.08-5.05,8.48,8.48,0,0,1,3-3.48,7.64,7.64,0,0,1,4.22-1.26,7.11,7.11,0,0,1,5.76,2.44c1.38,1.63,2.06,4,2.06,7v1.35H113.88a6.78,6.78,0,0,0,1.63,4.55,5.21,5.21,0,0,0,4,1.73,5.66,5.66,0,0,0,2.92-.71,7.51,7.51,0,0,0,2.09-1.86l2,1.55A8,8,0,0,1,119.34,265.51Zm-.4-17a4.36,4.36,0,0,0-3.31,1.44,6.93,6.93,0,0,0-1.65,4h9.53v-.25a6.11,6.11,0,0,0-1.34-3.83A4.06,4.06,0,0,0,118.94,248.46Z"/><path class="cls-1" d="M35.09,138.8a9.26,9.26,0,0,1-4.27,2.8,20,20,0,0,1-6.35.91A14.13,14.13,0,0,1,18,141.05a10.59,10.59,0,0,1-4.41-4.18A12.8,12.8,0,0,1,12,130.59v-2.23c0-3.86,1.05-6.84,3.16-9s5.08-3.18,8.9-3.18a12.71,12.71,0,0,1,7.57,2.06,8.57,8.57,0,0,1,3.51,5.8h-4Q30,119,24,119a7.56,7.56,0,0,0-6,2.39q-2,2.37-2.06,6.89v2.09a9.84,9.84,0,0,0,2.31,6.86,8,8,0,0,0,6.25,2.53,16,16,0,0,0,3.89-.42,6.25,6.25,0,0,0,2.77-1.43v-5.74H24.2v-2.75H35.09Zm19.79,1.48c-1.49,1.49-3.66,2.23-6.54,2.23a7.67,7.67,0,0,1-5.44-1.76A7,7,0,0,1,41,135.51V123.14h3.82v12.29q0,4.32,4.12,4.32c2.92,0,4.85-.93,5.82-2.78V123.14h3.81v19H55ZM68,123.14l.13,2.39a8.69,8.69,0,0,1,6.68-2.74q7.07,0,7.13,6.8v12.57H78.14V129.57a4,4,0,0,0-1.12-3,4.87,4.87,0,0,0-3.36-1,6.23,6.23,0,0,0-3.26.84,6,6,0,0,0-2.18,2.22v13.55H64.4v-19ZM120.86,134a9,9,0,0,1-3.53,6.27,12.78,12.78,0,0,1-7.85,2.2,11.46,11.46,0,0,1-8.54-3.25,11.88,11.88,0,0,1-3.2-8.7V128.1a12.87,12.87,0,0,1,1.49-6.28,10.18,10.18,0,0,1,4.25-4.15,13.31,13.31,0,0,1,6.35-1.46,12,12,0,0,1,7.67,2.29,9,9,0,0,1,3.36,6.29h-4a6.87,6.87,0,0,0-2.25-4.43,7.51,7.51,0,0,0-4.8-1.37,7.64,7.64,0,0,0-6,2.39q-2.15,2.39-2.15,6.8v2.48a10.06,10.06,0,0,0,2,6.63,7,7,0,0,0,5.72,2.46,8.5,8.5,0,0,0,5-1.27,6.7,6.7,0,0,0,2.35-4.44Zm3.81-1.57a9.92,9.92,0,0,1,1.28-5,8.9,8.9,0,0,1,3.59-3.45,11.12,11.12,0,0,1,5.26-1.21,10.17,10.17,0,0,1,7.36,2.69,9.41,9.41,0,0,1,2.82,7.15v.23a9.89,9.89,0,0,1-1.26,5,8.54,8.54,0,0,1-3.56,3.43,11.17,11.17,0,0,1-5.32,1.23,10.23,10.23,0,0,1-7.36-2.69,9.41,9.41,0,0,1-2.81-7.12Zm3.84.39a7.35,7.35,0,0,0,1.71,5.08,6.49,6.49,0,0,0,9.24,0,8,8,0,0,0,1.71-5.45,7.25,7.25,0,0,0-1.76-5.06,6.4,6.4,0,0,0-9.17,0A7.85,7.85,0,0,0,128.51,132.86Zm24.86-9.72.13,2.39a8.69,8.69,0,0,1,6.68-2.74q7.06,0,7.13,6.8v12.57H163.5V129.57a4,4,0,0,0-1.12-3,4.87,4.87,0,0,0-3.36-1,6.26,6.26,0,0,0-3.26.84,6,6,0,0,0-2.18,2.22v13.55h-3.82v-19Zm24.87-4.61v4.61h4.16v2.51h-4.16v11.8a2.36,2.36,0,0,0,.56,1.72,2.57,2.57,0,0,0,1.89.56,10.85,10.85,0,0,0,1.82-.21v2.64a13.15,13.15,0,0,1-2.93.35,4.59,4.59,0,0,1-5.16-5.06v-11.8h-4.06v-2.51h4.06v-4.61Zm19.42,7.53a12.24,12.24,0,0,0-1.88-.13c-2.5,0-4.19.91-5.09,2.73v13.5h-3.81v-19h3.71l.06,2.2a6.21,6.21,0,0,1,5.32-2.55,4.59,4.59,0,0,1,1.69.24Zm2.1,6.41a9.92,9.92,0,0,1,1.28-5,8.9,8.9,0,0,1,3.59-3.45,11.12,11.12,0,0,1,5.26-1.21,10.17,10.17,0,0,1,7.36,2.69,9.41,9.41,0,0,1,2.82,7.15v.23a10,10,0,0,1-1.25,5,8.62,8.62,0,0,1-3.57,3.43,11.14,11.14,0,0,1-5.32,1.23,10.25,10.25,0,0,1-7.36-2.69,9.41,9.41,0,0,1-2.81-7.12Zm3.84.39a7.35,7.35,0,0,0,1.71,5.08,5.92,5.92,0,0,0,4.62,1.92,5.86,5.86,0,0,0,4.62-1.94,8,8,0,0,0,1.71-5.45,7.29,7.29,0,0,0-1.75-5.06,6.41,6.41,0,0,0-9.18,0A7.9,7.9,0,0,0,203.6,132.86Zm25.4,9.3h-3.81v-27H229Z"/><path class="cls-2" d="M641.91,34.48H631.19l-2.41,6.68H625.3l9.77-25.59h3l9.79,25.59h-3.47Zm-9.7-2.78h8.7l-4.36-12Zm34.64.16a11.3,11.3,0,0,1-2,7,6.41,6.41,0,0,1-5.38,2.64A6.62,6.62,0,0,1,653.9,39l-.16,2.2h-3v-27H654V24.23a6.61,6.61,0,0,1,5.44-2.44,6.43,6.43,0,0,1,5.43,2.62,11.61,11.61,0,0,1,2,7.17Zm-3.25-.37a8.84,8.84,0,0,0-1.28-5.13,4.25,4.25,0,0,0-3.69-1.81,4.77,4.77,0,0,0-4.63,3v8.22a4.92,4.92,0,0,0,4.66,3,4.22,4.22,0,0,0,3.64-1.81A9.32,9.32,0,0,0,663.6,31.49Zm6.51,0a11.22,11.22,0,0,1,1.09-5,8.22,8.22,0,0,1,3-3.45,8.39,8.39,0,0,1,4.49-1.21A8,8,0,0,1,685,24.48a10.3,10.3,0,0,1,2.41,7.15v.23a11.35,11.35,0,0,1-1.07,5,8.05,8.05,0,0,1-3,3.43,8.42,8.42,0,0,1-4.54,1.23,8,8,0,0,1-6.27-2.69,10.27,10.27,0,0,1-2.39-7.12Zm3.26.39a8.19,8.19,0,0,0,1.46,5.08,5,5,0,0,0,7.88,0,8.94,8.94,0,0,0,1.46-5.45,8,8,0,0,0-1.5-5.06,4.92,4.92,0,0,0-7.82,0A8.83,8.83,0,0,0,673.37,31.86Zm27.32-6.8a9.87,9.87,0,0,0-1.6-.13,4.28,4.28,0,0,0-4.34,2.73v13.5H691.5v-19h3.16l.05,2.2a5.07,5.07,0,0,1,4.54-2.55,3.4,3.4,0,0,1,1.44.24Zm8.3-7.53v4.61h3.55v2.51H709v11.8a2.71,2.71,0,0,0,.47,1.72,2,2,0,0,0,1.62.56,8,8,0,0,0,1.55-.21v2.64a9.65,9.65,0,0,1-2.5.35,4.06,4.06,0,0,1-3.29-1.32,5.69,5.69,0,0,1-1.1-3.74V24.65h-3.47V22.14h3.47V17.53Zm10.9,23.63h-3.26v-19h3.26Zm-3.52-24.07a1.94,1.94,0,0,1,.48-1.33,1.83,1.83,0,0,1,1.44-.55,1.86,1.86,0,0,1,1.44.55,1.9,1.9,0,0,1,.49,1.33,1.84,1.84,0,0,1-.49,1.32,1.89,1.89,0,0,1-1.44.53,1.86,1.86,0,0,1-1.44-.53A1.88,1.88,0,0,1,716.37,17.09Zm7.88,14.38a11.22,11.22,0,0,1,1.09-5,8.22,8.22,0,0,1,3-3.45,8.39,8.39,0,0,1,4.49-1.21,8,8,0,0,1,6.27,2.69,10.3,10.3,0,0,1,2.41,7.15v.23a11.35,11.35,0,0,1-1.07,5,8,8,0,0,1-3,3.43,8.42,8.42,0,0,1-4.54,1.23,8,8,0,0,1-6.27-2.69,10.27,10.27,0,0,1-2.39-7.12Zm3.27.39A8.19,8.19,0,0,0,729,36.94a5,5,0,0,0,7.88,0,8.94,8.94,0,0,0,1.46-5.45,8,8,0,0,0-1.5-5.06,4.92,4.92,0,0,0-7.82,0A8.83,8.83,0,0,0,727.52,31.86Zm21.19-9.72.11,2.39a6.92,6.92,0,0,1,5.7-2.74q6,0,6.08,6.8V41.16h-3.25V28.57a4.4,4.4,0,0,0-1-3,3.77,3.77,0,0,0-2.87-1,4.73,4.73,0,0,0-2.78.84,5.78,5.78,0,0,0-1.86,2.22V41.16h-3.25v-19Z"/><path class="cls-2" d="M27.67,330.8A7.84,7.84,0,0,1,24,333.6a14.76,14.76,0,0,1-5.42.91,10.57,10.57,0,0,1-5.55-1.46,10,10,0,0,1-3.77-4.18A14.62,14.62,0,0,1,8,322.59v-2.23q0-5.78,2.69-9a9.44,9.44,0,0,1,7.59-3.18,9.7,9.7,0,0,1,6.46,2.06,8.9,8.9,0,0,1,3,5.8H24.3Q23.36,311,18.25,311a6,6,0,0,0-5.15,2.39c-1.16,1.58-1.74,3.88-1.76,6.89v2.09a11,11,0,0,0,2,6.86,6.4,6.4,0,0,0,5.33,2.53,11.8,11.8,0,0,0,3.32-.42,5.12,5.12,0,0,0,2.36-1.43v-5.74H18.39v-2.74h9.28Zm8.67,3.36H33.09v-27h3.25Zm4.36-9.69a11.22,11.22,0,0,1,1.09-5,8.07,8.07,0,0,1,7.54-4.66,8,8,0,0,1,6.28,2.69,10.32,10.32,0,0,1,2.4,7.15v.23a11.21,11.21,0,0,1-1.07,5,8,8,0,0,1-3,3.43,8.36,8.36,0,0,1-4.53,1.23,8.05,8.05,0,0,1-6.28-2.69,10.34,10.34,0,0,1-2.39-7.12Zm3.27.39a8.19,8.19,0,0,0,1.46,5.08,5,5,0,0,0,7.87,0,8.89,8.89,0,0,0,1.46-5.45,8.09,8.09,0,0,0-1.49-5.06,4.7,4.7,0,0,0-3.94-2,4.65,4.65,0,0,0-3.88,1.92A8.76,8.76,0,0,0,44,324.86Zm34.22,0a11.3,11.3,0,0,1-2,7,6.41,6.41,0,0,1-5.38,2.64A6.62,6.62,0,0,1,65.24,332l-.16,2.2h-3v-27h3.25v10.07a6.61,6.61,0,0,1,5.44-2.44,6.43,6.43,0,0,1,5.43,2.62,11.61,11.61,0,0,1,2,7.17Zm-3.25-.37a8.84,8.84,0,0,0-1.28-5.13A4.25,4.25,0,0,0,70,317.55a4.77,4.77,0,0,0-4.63,3v8.22a4.9,4.9,0,0,0,4.66,3,4.22,4.22,0,0,0,3.64-1.81A9.32,9.32,0,0,0,74.94,324.49Zm19.11,9.67a6.84,6.84,0,0,1-.46-2,7.21,7.21,0,0,1-5.41,2.36,6.81,6.81,0,0,1-4.63-1.58,5.21,5.21,0,0,1-1.79-4A5.36,5.36,0,0,1,84,324.28a10.66,10.66,0,0,1,6.37-1.65h3.16v-1.5a3.62,3.62,0,0,0-1-2.7,4.08,4.08,0,0,0-3-1,4.68,4.68,0,0,0-2.91.88,2.56,2.56,0,0,0-1.18,2.12H82.15a4.46,4.46,0,0,1,1-2.74,7,7,0,0,1,2.74-2.11,9.38,9.38,0,0,1,3.82-.77,7.5,7.5,0,0,1,5.15,1.65A5.92,5.92,0,0,1,96.79,321v8.75a10.62,10.62,0,0,0,.67,4.17v.28Zm-5.4-2.48a5.67,5.67,0,0,0,2.9-.79,4.75,4.75,0,0,0,2-2.06v-3.9H91c-4,0-6,1.17-6,3.5a3,3,0,0,0,1,2.39A4,4,0,0,0,88.65,331.68Zm16.77,2.48h-3.25v-27h3.25Zm20.18-8.07.49,3.38.72-3.05,5.07-17.85h2.84l4.94,17.85.71,3.1.54-3.45,4-17.5h3.4l-6.21,25.59H139l-5.28-18.65-.4-1.95-.41,1.95-5.46,18.65h-3.08l-6.19-25.59h3.38Zm37.07,8.07a6.91,6.91,0,0,1-.45-2,7.25,7.25,0,0,1-5.42,2.36,6.8,6.8,0,0,1-4.62-1.58,5.18,5.18,0,0,1-1.79-4,5.36,5.36,0,0,1,2.25-4.61,10.65,10.65,0,0,1,6.36-1.65h3.16v-1.5a3.62,3.62,0,0,0-1-2.7,4.07,4.07,0,0,0-3-1,4.73,4.73,0,0,0-2.92.88,2.59,2.59,0,0,0-1.18,2.12h-3.27a4.47,4.47,0,0,1,1-2.74,6.91,6.91,0,0,1,2.74-2.11,9.36,9.36,0,0,1,3.81-.77,7.5,7.5,0,0,1,5.15,1.65,5.93,5.93,0,0,1,1.94,4.52v8.75a10.82,10.82,0,0,0,.66,4.17v.28Zm-5.39-2.48a5.7,5.7,0,0,0,2.9-.79,4.78,4.78,0,0,0,2-2.06v-3.9h-2.54q-6,0-6,3.5a3,3,0,0,0,1,2.39A3.94,3.94,0,0,0,157.28,331.68Zm22.43-13.62a10.06,10.06,0,0,0-1.6-.13,4.28,4.28,0,0,0-4.34,2.73v13.5h-3.26v-19h3.17l0,2.2a5.07,5.07,0,0,1,4.54-2.55,3.4,3.4,0,0,1,1.44.24Zm6.06-2.92.09,2.11a7,7,0,0,1,5.64-2.46q4,0,5.43,3.06a7.29,7.29,0,0,1,2.46-2.22,7.41,7.41,0,0,1,3.61-.84q6.25,0,6.36,6.63v12.74h-3.25V321.61a4.32,4.32,0,0,0-.93-3,4.09,4.09,0,0,0-3.13-1,4.29,4.29,0,0,0-3,1.09,4.37,4.37,0,0,0-1.39,2.9v12.62h-3.27V321.7q0-4.15-4.06-4.15a4.34,4.34,0,0,0-4.37,2.72v13.89H182.7v-19Zm32,19h-3.26v-19h3.26ZM214.3,310.1a2,2,0,0,1,.48-1.34,1.8,1.8,0,0,1,1.44-.55,1.83,1.83,0,0,1,1.44.55,1.91,1.91,0,0,1,.49,1.34,1.84,1.84,0,0,1-.49,1.31,1.89,1.89,0,0,1-1.44.53,1.74,1.74,0,0,1-1.92-1.84Zm11.81,5,.11,2.39a6.91,6.91,0,0,1,5.69-2.74q6,0,6.09,6.8v12.57h-3.26V321.57a4.31,4.31,0,0,0-1-3,3.74,3.74,0,0,0-2.86-1,4.71,4.71,0,0,0-2.78.84,5.69,5.69,0,0,0-1.86,2.22v13.55H223v-19Zm16,9.35a11.17,11.17,0,0,1,2.05-7.07,7.09,7.09,0,0,1,10.88-.17l.16-2.11h3V333.7a7.74,7.74,0,0,1-2.19,5.82,8.06,8.06,0,0,1-5.88,2.13,9.85,9.85,0,0,1-4-.88,7,7,0,0,1-3-2.41l1.69-1.95A6.37,6.37,0,0,0,249.9,339a5,5,0,0,0,3.69-1.33,5.1,5.1,0,0,0,1.33-3.77v-1.63a6.67,6.67,0,0,1-5.32,2.25,6.54,6.54,0,0,1-5.42-2.69A11.8,11.8,0,0,1,242.13,324.49Zm3.27.37a8.61,8.61,0,0,0,1.31,5.06,4.3,4.3,0,0,0,3.7,1.83,4.75,4.75,0,0,0,4.51-2.79v-8.69a4.82,4.82,0,0,0-4.48-2.72,4.32,4.32,0,0,0-3.71,1.84A9.31,9.31,0,0,0,245.4,324.86Z"/><path class="cls-2" d="M14.17,406.4H26.3v2.76H10.78V383.57h3.39Zm27.21,2.76a6.84,6.84,0,0,1-.46-2,7.21,7.21,0,0,1-5.41,2.36,6.76,6.76,0,0,1-4.62-1.58,5.19,5.19,0,0,1-1.8-4,5.36,5.36,0,0,1,2.25-4.61,10.7,10.7,0,0,1,6.37-1.65h3.16v-1.5a3.62,3.62,0,0,0-1-2.7,4.07,4.07,0,0,0-3-1,4.71,4.71,0,0,0-2.92.88,2.56,2.56,0,0,0-1.18,2.12H29.48a4.46,4.46,0,0,1,1-2.74,7,7,0,0,1,2.74-2.11,9.41,9.41,0,0,1,3.82-.77,7.5,7.5,0,0,1,5.15,1.65A5.89,5.89,0,0,1,44.12,396v8.75a10.8,10.8,0,0,0,.67,4.17v.28ZM36,406.68a5.67,5.67,0,0,0,2.9-.79,4.75,4.75,0,0,0,2-2.06v-3.9H38.32q-6,0-6,3.5a3,3,0,0,0,1,2.39A3.93,3.93,0,0,0,36,406.68Zm29.34-6.82a11.37,11.37,0,0,1-2,7,6.41,6.41,0,0,1-5.38,2.64A6.62,6.62,0,0,1,52.37,407l-.16,2.2h-3v-27h3.25v10.07a6.6,6.6,0,0,1,5.43-2.44,6.43,6.43,0,0,1,5.44,2.62,11.61,11.61,0,0,1,2,7.17Zm-3.25-.37a8.84,8.84,0,0,0-1.28-5.13,4.25,4.25,0,0,0-3.69-1.81,4.77,4.77,0,0,0-4.63,3v8.22a4.9,4.9,0,0,0,4.66,3,4.22,4.22,0,0,0,3.64-1.81A9.32,9.32,0,0,0,62.07,399.49Zm6.5,0a11.35,11.35,0,0,1,1.09-5A8.31,8.31,0,0,1,72.72,391a8.39,8.39,0,0,1,4.49-1.21,8,8,0,0,1,6.27,2.69,10.28,10.28,0,0,1,2.41,7.15v.23a11.35,11.35,0,0,1-1.07,5,8.05,8.05,0,0,1-3,3.43,8.42,8.42,0,0,1-4.54,1.23A8,8,0,0,1,71,406.82a10.3,10.3,0,0,1-2.4-7.12Zm3.27.39a8.19,8.19,0,0,0,1.46,5.08,5,5,0,0,0,7.88,0,9,9,0,0,0,1.46-5.45,8,8,0,0,0-1.5-5.06,4.92,4.92,0,0,0-7.82,0A8.83,8.83,0,0,0,71.84,399.86Zm27.32-6.8a10,10,0,0,0-1.6-.13,4.28,4.28,0,0,0-4.34,2.73v13.5H90v-19h3.16l.05,2.2a5.07,5.07,0,0,1,4.54-2.55,3.4,3.4,0,0,1,1.44.24Zm30.46-9.49V401a8.13,8.13,0,0,1-2.28,5.92,9.13,9.13,0,0,1-6.12,2.59l-.9,0a9.52,9.52,0,0,1-6.69-2.27A8.07,8.07,0,0,1,111.1,401V383.57h3.34V400.9a6.19,6.19,0,0,0,10.26,4.32,5.81,5.81,0,0,0,1.53-4.3V383.57Zm7.9,6.57.1,2.39a6.92,6.92,0,0,1,5.7-2.74q6,0,6.08,6.8v12.57h-3.25V396.57a4.4,4.4,0,0,0-1-3,3.77,3.77,0,0,0-2.87-1,4.73,4.73,0,0,0-2.78.84,5.78,5.78,0,0,0-1.86,2.22v13.55h-3.25v-19Zm20.32,19h-3.26v-19h3.26Zm-3.52-24.06a2,2,0,0,1,.47-1.34,2.17,2.17,0,0,1,2.89,0,1.91,1.91,0,0,1,.49,1.34,1.84,1.84,0,0,1-.49,1.31,2.23,2.23,0,0,1-2.89,0A1.91,1.91,0,0,1,154.32,385.1Zm7.88,14.37a11.22,11.22,0,0,1,1.09-5,8.22,8.22,0,0,1,3.05-3.45,8.39,8.39,0,0,1,4.49-1.21,8,8,0,0,1,6.27,2.69,10.28,10.28,0,0,1,2.41,7.15v.23a11.35,11.35,0,0,1-1.07,5,8.05,8.05,0,0,1-3,3.43,8.42,8.42,0,0,1-4.54,1.23,8,8,0,0,1-6.27-2.69,10.29,10.29,0,0,1-2.39-7.12Zm3.26.39a8.19,8.19,0,0,0,1.46,5.08,5,5,0,0,0,7.88,0,9,9,0,0,0,1.46-5.45,8,8,0,0,0-1.5-5.06,4.92,4.92,0,0,0-7.82,0A8.83,8.83,0,0,0,165.46,399.86Zm21.2-9.72.11,2.39a6.91,6.91,0,0,1,5.69-2.74q6,0,6.09,6.8v12.57h-3.26V396.57a4.35,4.35,0,0,0-.94-3,3.77,3.77,0,0,0-2.87-1,4.73,4.73,0,0,0-2.78.84,5.78,5.78,0,0,0-1.86,2.22v13.55h-3.25v-19Zm27.87,14a2.37,2.37,0,0,0-1-2,9.32,9.32,0,0,0-3.46-1.26,16.09,16.09,0,0,1-3.92-1.27,5.55,5.55,0,0,1-2.14-1.75,4.23,4.23,0,0,1-.69-2.43,5,5,0,0,1,2-4,7.79,7.79,0,0,1,5.06-1.61,7.93,7.93,0,0,1,5.24,1.67,5.27,5.27,0,0,1,2,4.27h-3.27a2.92,2.92,0,0,0-1.14-2.3,4.19,4.19,0,0,0-2.85-1,4.5,4.5,0,0,0-2.78.77,2.46,2.46,0,0,0-1,2,2,2,0,0,0,.93,1.77,11.41,11.41,0,0,0,3.36,1.14,18.16,18.16,0,0,1,4,1.3A5.79,5.79,0,0,1,217,401.3a4.44,4.44,0,0,1,.74,2.59,4.89,4.89,0,0,1-2,4.09,8.58,8.58,0,0,1-5.29,1.53,9.6,9.6,0,0,1-4-.81,6.71,6.71,0,0,1-2.76-2.25,5.55,5.55,0,0,1-1-3.15h3.25a3.43,3.43,0,0,0,1.3,2.61,5.18,5.18,0,0,0,3.24.95,5.26,5.26,0,0,0,3-.74A2.32,2.32,0,0,0,214.53,404.11Z"/><path class="cls-1" d="M18.32,182.75A15.91,15.91,0,0,1,12,179.69a5.91,5.91,0,0,1-2-4.5,6.16,6.16,0,0,1,2.41-5,9.63,9.63,0,0,1,6.29-2,10.44,10.44,0,0,1,4.7,1,7.67,7.67,0,0,1,3.2,2.82A7.15,7.15,0,0,1,27.76,176H24.37a4.64,4.64,0,0,0-1.48-3.64A6,6,0,0,0,18.72,171a6.15,6.15,0,0,0-3.9,1.11,3.63,3.63,0,0,0-1.39,3,3.31,3.31,0,0,0,1.32,2.65,13.23,13.23,0,0,0,4.52,2,20.5,20.5,0,0,1,5,2,7.3,7.3,0,0,1,2.67,2.51,6.34,6.34,0,0,1,.88,3.39,6,6,0,0,1-2.43,5,10.35,10.35,0,0,1-6.48,1.86,12.06,12.06,0,0,1-4.92-1,8.46,8.46,0,0,1-3.54-2.78,6.78,6.78,0,0,1-1.23-4h3.4a4.41,4.41,0,0,0,1.7,3.67,7.3,7.3,0,0,0,4.59,1.34A6.58,6.58,0,0,0,23,190.66a3.55,3.55,0,0,0,1.43-3,3.45,3.45,0,0,0-1.32-2.9A15.09,15.09,0,0,0,18.32,182.75Zm12.46,1.72a11.22,11.22,0,0,1,1.09-5,8.07,8.07,0,0,1,7.54-4.66,8,8,0,0,1,6.28,2.69,10.33,10.33,0,0,1,2.41,7.15v.23a11.22,11.22,0,0,1-1.08,5,7.93,7.93,0,0,1-3,3.43,8.36,8.36,0,0,1-4.53,1.23,8.05,8.05,0,0,1-6.28-2.69,10.34,10.34,0,0,1-2.39-7.12Zm3.27.39a8.19,8.19,0,0,0,1.46,5.08,4.72,4.72,0,0,0,3.94,1.92,4.67,4.67,0,0,0,3.93-1.94,8.89,8.89,0,0,0,1.46-5.45,8,8,0,0,0-1.49-5.06,4.92,4.92,0,0,0-7.82,0A8.76,8.76,0,0,0,34.05,184.86Zm25.75,7a4.69,4.69,0,0,0,3-1.06,3.72,3.72,0,0,0,1.45-2.64h3.07a6,6,0,0,1-1.12,3.12,7.37,7.37,0,0,1-2.78,2.35,8.46,8.46,0,0,1-9.84-1.7,10.39,10.39,0,0,1-2.29-7.11v-.54a11.45,11.45,0,0,1,1-4.94A7.8,7.8,0,0,1,55.27,176a8.42,8.42,0,0,1,4.52-1.19,7.6,7.6,0,0,1,5.3,1.91,6.83,6.83,0,0,1,2.27,5H64.29a4.51,4.51,0,0,0-1.41-3,4.31,4.31,0,0,0-3.09-1.19,4.56,4.56,0,0,0-3.85,1.79,8.34,8.34,0,0,0-1.36,5.15V185a8.15,8.15,0,0,0,1.36,5.06A4.58,4.58,0,0,0,59.8,191.86Zm14.75,2.3H71.3v-19h3.25ZM71,170.1a1.94,1.94,0,0,1,.47-1.34,2.16,2.16,0,0,1,2.88,0,1.91,1.91,0,0,1,.49,1.34,1.84,1.84,0,0,1-.49,1.31,2.22,2.22,0,0,1-2.88,0A1.87,1.87,0,0,1,71,170.1Zm20.47,24.06a6.91,6.91,0,0,1-.45-2,7.27,7.27,0,0,1-5.42,2.36A6.8,6.8,0,0,1,81,192.93a5.18,5.18,0,0,1-1.79-4,5.36,5.36,0,0,1,2.25-4.61,10.65,10.65,0,0,1,6.36-1.65H91v-1.5a3.62,3.62,0,0,0-1-2.7,4.07,4.07,0,0,0-3-1,4.73,4.73,0,0,0-2.92.88,2.59,2.59,0,0,0-1.18,2.12H79.61a4.47,4.47,0,0,1,1-2.74,7,7,0,0,1,2.74-2.11,9.36,9.36,0,0,1,3.81-.77,7.5,7.5,0,0,1,5.15,1.65A5.93,5.93,0,0,1,94.26,181v8.75a10.82,10.82,0,0,0,.66,4.17v.28Zm-5.39-2.48a5.7,5.7,0,0,0,2.9-.79,4.78,4.78,0,0,0,2-2.06v-3.9H88.46q-6,0-6,3.5a3,3,0,0,0,1,2.39A3.94,3.94,0,0,0,86.12,191.68Zm16.77,2.48H99.63v-27h3.26Zm22.2-11.41a15.91,15.91,0,0,1-6.33-3.06,5.91,5.91,0,0,1-2-4.5,6.16,6.16,0,0,1,2.41-5,9.63,9.63,0,0,1,6.29-2,10.47,10.47,0,0,1,4.7,1,7.64,7.64,0,0,1,3.19,2.82,7.07,7.07,0,0,1,1.15,3.92h-3.4a4.64,4.64,0,0,0-1.47-3.64,6,6,0,0,0-4.17-1.34,6.15,6.15,0,0,0-3.9,1.11,3.63,3.63,0,0,0-1.39,3,3.31,3.31,0,0,0,1.32,2.65,13.23,13.23,0,0,0,4.52,2,20.5,20.5,0,0,1,5,2,7.3,7.3,0,0,1,2.67,2.51,6.34,6.34,0,0,1,.88,3.39,6,6,0,0,1-2.43,5,10.37,10.37,0,0,1-6.48,1.86,12.06,12.06,0,0,1-4.92-1,8.4,8.4,0,0,1-3.54-2.78,6.78,6.78,0,0,1-1.23-4h3.39a4.42,4.42,0,0,0,1.71,3.67,7.3,7.3,0,0,0,4.59,1.34,6.6,6.6,0,0,0,4.09-1.09,3.55,3.55,0,0,0,1.43-3,3.45,3.45,0,0,0-1.32-2.9A15.09,15.09,0,0,0,125.09,182.75Zm21.21,11.76A8.32,8.32,0,0,1,140,192a9.45,9.45,0,0,1-2.42-6.8v-.6a11.39,11.39,0,0,1,1.07-5.05,8.48,8.48,0,0,1,3-3.48,7.64,7.64,0,0,1,4.22-1.26,7.14,7.14,0,0,1,5.77,2.44q2.06,2.45,2.05,7v1.35H140.84a6.78,6.78,0,0,0,1.63,4.55,5.21,5.21,0,0,0,4,1.73,5.66,5.66,0,0,0,2.92-.71,7.37,7.37,0,0,0,2.09-1.86l2,1.55A8,8,0,0,1,146.3,194.51Zm-.4-17a4.32,4.32,0,0,0-3.3,1.44,6.87,6.87,0,0,0-1.66,4h9.53v-.25a6.11,6.11,0,0,0-1.34-3.83A4.06,4.06,0,0,0,145.9,177.46Zm19.23,14.4a4.71,4.71,0,0,0,3-1.06,3.68,3.68,0,0,0,1.44-2.64h3.08a5.89,5.89,0,0,1-1.13,3.12,7.33,7.33,0,0,1-2.77,2.35,8.47,8.47,0,0,1-9.85-1.7,10.43,10.43,0,0,1-2.28-7.11v-.54a11.45,11.45,0,0,1,1-4.94A7.8,7.8,0,0,1,160.6,176a8.38,8.38,0,0,1,4.51-1.19,7.61,7.61,0,0,1,5.31,1.91,6.83,6.83,0,0,1,2.27,5h-3.08a4.45,4.45,0,0,0-1.4-3,4.35,4.35,0,0,0-3.1-1.19,4.59,4.59,0,0,0-3.85,1.79,8.41,8.41,0,0,0-1.35,5.15V185a8.22,8.22,0,0,0,1.35,5.06A4.6,4.6,0,0,0,165.13,191.86Zm23,.42a6.91,6.91,0,0,1-5.57,2.23,6,6,0,0,1-4.65-1.76,7.72,7.72,0,0,1-1.59-5.24V175.14h3.25v12.29q0,4.32,3.51,4.32,3.74,0,5-2.78V175.14h3.25v19h-3.09Zm17.31-14.22a8.86,8.86,0,0,0-1.6-.13,4.28,4.28,0,0,0-4.34,2.73v13.5h-3.25v-19h3.16l.06,2.2a5,5,0,0,1,4.53-2.55,3.4,3.4,0,0,1,1.44.24Zm6.54,16.1h-3.25v-19h3.25Zm-3.51-24.06a1.94,1.94,0,0,1,.47-1.34,2.16,2.16,0,0,1,2.88,0,1.92,1.92,0,0,1,.5,1.34,1.84,1.84,0,0,1-.5,1.31,2.22,2.22,0,0,1-2.88,0A1.87,1.87,0,0,1,208.43,170.1Zm13.14.43v4.61h3.55v2.51h-3.55v11.8a2.65,2.65,0,0,0,.48,1.72,2,2,0,0,0,1.62.56,7.84,7.84,0,0,0,1.54-.21v2.64a9.52,9.52,0,0,1-2.49.35,4,4,0,0,1-3.29-1.32,5.64,5.64,0,0,1-1.11-3.74v-11.8h-3.46v-2.51h3.46v-4.61Zm13.59,18.86,4.43-14.25h3.48l-7.64,22q-1.78,4.74-5.65,4.74l-.61-.05-1.22-.23v-2.64l.88.07a4.25,4.25,0,0,0,2.57-.67,4.76,4.76,0,0,0,1.53-2.44l.72-1.93-6.78-18.81h3.55Z"/><path class="cls-2" d="M649.32,396.75a15.91,15.91,0,0,1-6.33-3.06,5.91,5.91,0,0,1-2-4.5,6.16,6.16,0,0,1,2.41-5,9.63,9.63,0,0,1,6.29-2,10.47,10.47,0,0,1,4.7,1,7.67,7.67,0,0,1,3.2,2.82,7.15,7.15,0,0,1,1.14,3.92h-3.39a4.64,4.64,0,0,0-1.48-3.64,6,6,0,0,0-4.17-1.34,6.15,6.15,0,0,0-3.9,1.11,3.63,3.63,0,0,0-1.39,3,3.31,3.31,0,0,0,1.32,2.65,13,13,0,0,0,4.52,2,20.5,20.5,0,0,1,5,2,7.3,7.3,0,0,1,2.67,2.51,6.34,6.34,0,0,1,.88,3.39,6,6,0,0,1-2.43,5,10.35,10.35,0,0,1-6.48,1.86,12.06,12.06,0,0,1-4.92-1,8.46,8.46,0,0,1-3.54-2.78,6.78,6.78,0,0,1-1.23-4h3.4a4.45,4.45,0,0,0,1.7,3.68,7.36,7.36,0,0,0,4.59,1.33,6.6,6.6,0,0,0,4.09-1.09,3.55,3.55,0,0,0,1.43-3,3.45,3.45,0,0,0-1.32-2.9A15.09,15.09,0,0,0,649.32,396.75Zm17.73-12.22v4.61h3.56v2.51h-3.56v11.8a2.65,2.65,0,0,0,.48,1.72,2,2,0,0,0,1.62.56,7.84,7.84,0,0,0,1.54-.21v2.64a9.52,9.52,0,0,1-2.49.35,4,4,0,0,1-3.29-1.32,5.64,5.64,0,0,1-1.11-3.74v-11.8h-3.46v-2.51h3.46v-4.61Zm19.11,21.75a6.89,6.89,0,0,1-5.57,2.23,6,6,0,0,1-4.64-1.76,7.67,7.67,0,0,1-1.6-5.24V389.14h3.25v12.29q0,4.32,3.52,4.32,3.72,0,5-2.78V389.14h3.26v19h-3.1Zm7.33-7.79a11.06,11.06,0,0,1,2.08-7,7.05,7.05,0,0,1,10.72-.39v-9.91h3.25v27h-3l-.16-2a6.63,6.63,0,0,1-5.43,2.39,6.5,6.5,0,0,1-5.39-2.71,11.24,11.24,0,0,1-2.08-7.06Zm3.25.37a8.43,8.43,0,0,0,1.34,5.06,4.31,4.31,0,0,0,3.69,1.83,4.76,4.76,0,0,0,4.52-2.78v-8.73a4.77,4.77,0,0,0-4.48-2.69,4.33,4.33,0,0,0-3.73,1.84A9.31,9.31,0,0,0,696.74,398.86Zm25.76,9.65a8.33,8.33,0,0,1-6.3-2.53,9.49,9.49,0,0,1-2.42-6.8v-.6a11.39,11.39,0,0,1,1.07-5.05,8.56,8.56,0,0,1,3-3.48,7.64,7.64,0,0,1,4.22-1.26,7.13,7.13,0,0,1,5.77,2.44q2.05,2.44,2,7v1.35H717a6.83,6.83,0,0,0,1.63,4.55,5.21,5.21,0,0,0,4,1.73,5.66,5.66,0,0,0,2.92-.71,7.37,7.37,0,0,0,2.09-1.86l2,1.55A8,8,0,0,1,722.5,408.51Zm-.41-17.05a4.32,4.32,0,0,0-3.3,1.44,7,7,0,0,0-1.66,4h9.53v-.25a6.16,6.16,0,0,0-1.33-3.83A4.1,4.1,0,0,0,722.09,391.46Zm14.68-2.32.1,2.39a7,7,0,0,1,5.7-2.74q6,0,6.08,6.8v12.57H745.4V395.57a4.35,4.35,0,0,0-.95-3,3.75,3.75,0,0,0-2.86-1,4.71,4.71,0,0,0-2.78.84,5.61,5.61,0,0,0-1.86,2.22v13.55h-3.26v-19Zm21.2-4.61v4.61h3.55v2.51H758v11.8a2.71,2.71,0,0,0,.47,1.72,2,2,0,0,0,1.62.56,7.92,7.92,0,0,0,1.55-.21v2.64a9.65,9.65,0,0,1-2.5.35,4.06,4.06,0,0,1-3.29-1.32,5.69,5.69,0,0,1-1.1-3.74v-11.8h-3.47v-2.51h3.47v-4.61Zm16.8,23.63V382.57H782a11.66,11.66,0,0,1,5.9,1.47,10,10,0,0,1,4,4.2,13.56,13.56,0,0,1,1.42,6.26v1.64a13.71,13.71,0,0,1-1.4,6.34,9.85,9.85,0,0,1-4,4.19,12.35,12.35,0,0,1-6,1.49Zm3.38-22.82V405.4h3.55a7.69,7.69,0,0,0,6.06-2.43c1.46-1.61,2.18-3.92,2.18-6.9v-1.5a10.14,10.14,0,0,0-2.05-6.77,7.3,7.3,0,0,0-5.8-2.46Zm27.63,23.17a8.31,8.31,0,0,1-6.29-2.53,9.45,9.45,0,0,1-2.43-6.8v-.6a11.53,11.53,0,0,1,1.07-5.05,8.58,8.58,0,0,1,3-3.48,7.64,7.64,0,0,1,4.22-1.26,7.11,7.11,0,0,1,5.76,2.44q2.05,2.44,2.06,7v1.35H800.31a6.84,6.84,0,0,0,1.64,4.55,5.2,5.2,0,0,0,4,1.73,5.6,5.6,0,0,0,2.91-.71,7.41,7.41,0,0,0,2.1-1.86l2,1.55A8,8,0,0,1,805.78,408.51Zm-.4-17.05a4.33,4.33,0,0,0-3.31,1.44,6.93,6.93,0,0,0-1.65,4H810v-.25a6.17,6.17,0,0,0-1.34-3.83A4.08,4.08,0,0,0,805.38,391.46Zm27.7,7.4a11.37,11.37,0,0,1-2,7,6.41,6.41,0,0,1-5.38,2.64,6.64,6.64,0,0,1-5.58-2.55l-.15,2.2h-3v-27h3.25v10.07a6.58,6.58,0,0,1,5.43-2.44,6.4,6.4,0,0,1,5.43,2.62,11.55,11.55,0,0,1,2,7.17Zm-3.25-.37a8.76,8.76,0,0,0-1.29-5.13,4.23,4.23,0,0,0-3.69-1.81,4.77,4.77,0,0,0-4.62,3v8.22a4.9,4.9,0,0,0,4.66,3,4.22,4.22,0,0,0,3.64-1.81A9.4,9.4,0,0,0,829.83,398.49Zm11.78-14v4.61h3.55v2.51h-3.55v11.8a2.65,2.65,0,0,0,.47,1.72,2,2,0,0,0,1.62.56,7.84,7.84,0,0,0,1.54-.21v2.64a9.52,9.52,0,0,1-2.49.35,4,4,0,0,1-3.29-1.32,5.64,5.64,0,0,1-1.11-3.74v-11.8h-3.46v-2.51h3.46v-4.61ZM849,406.45a2,2,0,0,1,.49-1.4,2.3,2.3,0,0,1,3,0,2,2,0,0,1,.52,1.4,1.9,1.9,0,0,1-.52,1.36,2.4,2.4,0,0,1-3,0A2,2,0,0,1,849,406.45Z"/><path class="cls-2" d="M554,408.16a6.84,6.84,0,0,1-.46-2,7.21,7.21,0,0,1-5.41,2.36,6.76,6.76,0,0,1-4.62-1.58,5.19,5.19,0,0,1-1.8-4,5.36,5.36,0,0,1,2.25-4.61,10.68,10.68,0,0,1,6.37-1.65h3.16v-1.5a3.62,3.62,0,0,0-1-2.7,4.08,4.08,0,0,0-3-1,4.68,4.68,0,0,0-2.91.88,2.56,2.56,0,0,0-1.18,2.12h-3.27a4.46,4.46,0,0,1,1-2.74,7,7,0,0,1,2.74-2.11,9.41,9.41,0,0,1,3.82-.77,7.5,7.5,0,0,1,5.15,1.65,5.92,5.92,0,0,1,1.93,4.52v8.75a10.62,10.62,0,0,0,.67,4.17v.28Zm-5.4-2.48a5.67,5.67,0,0,0,2.9-.79,4.75,4.75,0,0,0,2-2.06v-3.9H551c-4,0-6,1.17-6,3.5a3,3,0,0,0,1,2.39A4,4,0,0,0,548.61,405.68Zm16.32-16.54.1,2.39a6.92,6.92,0,0,1,5.7-2.74q6,0,6.08,6.8v12.57h-3.25V395.57a4.4,4.4,0,0,0-.95-3,3.77,3.77,0,0,0-2.87-1,4.73,4.73,0,0,0-2.78.84,5.78,5.78,0,0,0-1.86,2.22v13.55h-3.25v-19Zm16,9.35a11.06,11.06,0,0,1,2.08-7,7.05,7.05,0,0,1,10.72-.39v-9.91H597v27h-3l-.16-2a6.63,6.63,0,0,1-5.43,2.39A6.5,6.5,0,0,1,583,405.8a11.24,11.24,0,0,1-2.08-7.06Zm3.25.37a8.43,8.43,0,0,0,1.34,5.06,4.31,4.31,0,0,0,3.69,1.83,4.76,4.76,0,0,0,4.52-2.78v-8.73a4.77,4.77,0,0,0-4.48-2.69,4.33,4.33,0,0,0-3.73,1.84A9.31,9.31,0,0,0,584.17,398.86Z"/><path class="cls-2" d="M790.46,93.34h-8.23v22.82h-3.35V93.34h-8.21V90.57h19.79Zm11.15,6.72a10.06,10.06,0,0,0-1.6-.13,4.3,4.3,0,0,0-4.35,2.73v13.5h-3.25v-19h3.17l0,2.2a5.07,5.07,0,0,1,4.53-2.55,3.42,3.42,0,0,1,1.45.24Zm14,16.1a6.84,6.84,0,0,1-.46-2,7.27,7.27,0,0,1-5.41,2.35,6.76,6.76,0,0,1-4.62-1.58,5.19,5.19,0,0,1-1.8-4,5.37,5.37,0,0,1,2.25-4.61,10.68,10.68,0,0,1,6.37-1.65h3.16v-1.5a3.6,3.6,0,0,0-1-2.7,4.07,4.07,0,0,0-3-1,4.69,4.69,0,0,0-2.92.88,2.56,2.56,0,0,0-1.18,2.12h-3.27a4.46,4.46,0,0,1,1-2.74,7,7,0,0,1,2.74-2.11,9.41,9.41,0,0,1,3.82-.77,7.5,7.5,0,0,1,5.15,1.65,5.89,5.89,0,0,1,1.93,4.52v8.75a10.8,10.8,0,0,0,.67,4.17v.28Zm-5.4-2.48a5.67,5.67,0,0,0,2.9-.79,4.75,4.75,0,0,0,2-2.06v-3.9h-2.55q-6,0-6,3.5a3,3,0,0,0,1,2.39A4,4,0,0,0,810.25,113.68Zm12.45-7.19a11.11,11.11,0,0,1,2.07-7,7.06,7.06,0,0,1,10.73-.39V89.16h3.25v27h-3l-.16-2a6.63,6.63,0,0,1-5.43,2.39,6.53,6.53,0,0,1-5.4-2.71,11.3,11.3,0,0,1-2.07-7.06Zm3.25.37a8.43,8.43,0,0,0,1.34,5.06,4.31,4.31,0,0,0,3.69,1.83A4.76,4.76,0,0,0,835.5,111v-8.73A4.78,4.78,0,0,0,831,99.55a4.33,4.33,0,0,0-3.72,1.84A9.31,9.31,0,0,0,826,106.86Zm25.75,9.65a8.31,8.31,0,0,1-6.29-2.53,9.45,9.45,0,0,1-2.43-6.8v-.6a11.39,11.39,0,0,1,1.08-5,8.48,8.48,0,0,1,3-3.48,7.64,7.64,0,0,1,4.22-1.26,7.11,7.11,0,0,1,5.76,2.44c1.38,1.63,2.06,4,2.06,7v1.35H846.24a6.78,6.78,0,0,0,1.63,4.55,5.21,5.21,0,0,0,4,1.73,5.66,5.66,0,0,0,2.92-.71,7.51,7.51,0,0,0,2.09-1.86l2,1.55A8,8,0,0,1,851.7,116.51Zm-.4-17.05A4.34,4.34,0,0,0,848,100.9a6.93,6.93,0,0,0-1.65,4h9.53v-.25a6.11,6.11,0,0,0-1.34-3.83A4.06,4.06,0,0,0,851.3,99.46Z"/><path class="cls-2" d="M819.79,16.57V34a8.13,8.13,0,0,1-2.28,5.92,9.13,9.13,0,0,1-6.12,2.59l-.89,0a9.59,9.59,0,0,1-6.7-2.27A8.07,8.07,0,0,1,801.27,34V16.57h3.34V33.9a5.87,5.87,0,0,0,1.53,4.32,7,7,0,0,0,8.73,0,5.82,5.82,0,0,0,1.53-4.31V16.57Zm5.33,25.59V16.57h8.37c2.78,0,4.86.57,6.26,1.72a6.22,6.22,0,0,1,2.11,5.1,5.25,5.25,0,0,1-1,3.18,6.65,6.65,0,0,1-2.78,2.12,5.92,5.92,0,0,1,3.27,2.22,6.26,6.26,0,0,1,1.21,3.87,6.84,6.84,0,0,1-2.23,5.41,9.24,9.24,0,0,1-6.31,2Zm3.38-12V39.4h5.57a5.41,5.41,0,0,0,3.71-1.21,4.33,4.33,0,0,0,1.37-3.38q0-4.62-5-4.62Zm0-2.71h5.09a5.32,5.32,0,0,0,3.54-1.11,3.68,3.68,0,0,0,1.33-3,3.62,3.62,0,0,0-1.23-3.06,6,6,0,0,0-3.74-1h-5Zm22.67,14.68H847.8V16.57h3.37Z"/><path class="cls-1" d="M10.78,93.16V67.57h7.59A12.79,12.79,0,0,1,24.59,69a10.24,10.24,0,0,1,4.15,4.2,13,13,0,0,1,1.5,6.26v1.64a13.05,13.05,0,0,1-1.48,6.34,9.94,9.94,0,0,1-4.19,4.18,13.37,13.37,0,0,1-6.34,1.5Zm3.55-22.82V90.4h3.73A8.31,8.31,0,0,0,24.44,88c1.53-1.61,2.29-3.92,2.29-6.9v-1.5a9.79,9.79,0,0,0-2.16-6.77,7.87,7.87,0,0,0-6.1-2.46ZM43.38,93.51A9,9,0,0,1,36.77,91a9.2,9.2,0,0,1-2.55-6.8v-.6a11,11,0,0,1,1.12-5,8.77,8.77,0,0,1,3.18-3.48A8.34,8.34,0,0,1,43,73.79,7.66,7.66,0,0,1,49,76.23q2.16,2.44,2.16,7v1.35H37.64a6.59,6.59,0,0,0,1.71,4.55,5.62,5.62,0,0,0,4.22,1.73,6.19,6.19,0,0,0,3.07-.71,7.79,7.79,0,0,0,2.2-1.86l2.09,1.55A8.54,8.54,0,0,1,43.38,93.51ZM43,76.46a4.68,4.68,0,0,0-3.48,1.44,6.79,6.79,0,0,0-1.73,4h10v-.25a5.91,5.91,0,0,0-1.4-3.83A4.4,4.4,0,0,0,43,76.46Zm24.55,16.7a6.63,6.63,0,0,1-.49-2,7.79,7.79,0,0,1-5.69,2.35,7.38,7.38,0,0,1-4.86-1.58,5.07,5.07,0,0,1-1.88-4A5.27,5.27,0,0,1,57,83.28a11.65,11.65,0,0,1,6.69-1.65H67v-1.5a3.52,3.52,0,0,0-1.07-2.7,4.43,4.43,0,0,0-3.16-1,5.13,5.13,0,0,0-3.07.88,2.54,2.54,0,0,0-1.24,2.12H55a4.3,4.3,0,0,1,1.06-2.74,7.25,7.25,0,0,1,2.88-2.11,10.31,10.31,0,0,1,4-.77,8.18,8.18,0,0,1,5.42,1.65,5.8,5.8,0,0,1,2,4.52v8.75a10.21,10.21,0,0,0,.7,4.17v.28Zm-5.68-2.48a6.22,6.22,0,0,0,3-.79A4.89,4.89,0,0,0,67,87.83v-3.9H64.29q-6.29,0-6.29,3.5a2.89,2.89,0,0,0,1.08,2.39A4.26,4.26,0,0,0,61.83,90.68ZM80.39,69.53v4.61h3.73v2.51H80.39v11.8a2.6,2.6,0,0,0,.5,1.72,2.16,2.16,0,0,0,1.7.56,8.79,8.79,0,0,0,1.63-.21v2.64a10.63,10.63,0,0,1-2.63.35,4.38,4.38,0,0,1-3.46-1.32A5.49,5.49,0,0,1,77,88.45V76.65H73.33V74.14H77V69.53Zm11.16,6.91a7.43,7.43,0,0,1,5.92-2.65q6.34,0,6.39,6.8V93.16h-3.42V80.57a4.22,4.22,0,0,0-1-3,4.09,4.09,0,0,0-3-1,5.13,5.13,0,0,0-2.92.84,5.77,5.77,0,0,0-2,2.22V93.16H88.13v-27h3.42Zm30.91,6.7v10h-3.55V67.57h9.93a10.26,10.26,0,0,1,6.91,2.14,7.11,7.11,0,0,1,2.51,5.68,7,7,0,0,1-2.46,5.75c-1.62,1.33-4,2-7,2Zm0-2.76h6.38a6.61,6.61,0,0,0,4.36-1.27,4.55,4.55,0,0,0,1.51-3.69,4.67,4.67,0,0,0-1.51-3.65A6.17,6.17,0,0,0,129,70.34h-6.58ZM150.3,93.51A9,9,0,0,1,143.68,91a9.2,9.2,0,0,1-2.55-6.8v-.6a10.88,10.88,0,0,1,1.13-5,8.68,8.68,0,0,1,3.17-3.48,8.34,8.34,0,0,1,4.44-1.26,7.66,7.66,0,0,1,6.06,2.44q2.17,2.44,2.17,7v1.35H144.55a6.6,6.6,0,0,0,1.72,4.55,5.6,5.6,0,0,0,4.21,1.73,6.19,6.19,0,0,0,3.07-.71,7.65,7.65,0,0,0,2.2-1.86l2.09,1.55A8.53,8.53,0,0,1,150.3,93.51Zm-.43-17.05a4.64,4.64,0,0,0-3.47,1.44,6.74,6.74,0,0,0-1.74,4h10v-.25a6,6,0,0,0-1.41-3.83A4.4,4.4,0,0,0,149.87,76.46Zm15.44-2.32.11,2.39a7.41,7.41,0,0,1,6-2.74q6.33,0,6.39,6.8V93.16h-3.42V80.57a4.18,4.18,0,0,0-1-3,4.07,4.07,0,0,0-3-1,5.13,5.13,0,0,0-2.92.84,5.77,5.77,0,0,0-2,2.22V93.16h-3.42v-19Zm30,19a6.63,6.63,0,0,1-.49-2,7.8,7.8,0,0,1-5.69,2.35,7.38,7.38,0,0,1-4.86-1.58,5.08,5.08,0,0,1-1.89-4,5.28,5.28,0,0,1,2.37-4.61,11.65,11.65,0,0,1,6.69-1.65h3.33v-1.5a3.52,3.52,0,0,0-1.07-2.7,4.43,4.43,0,0,0-3.16-1,5.13,5.13,0,0,0-3.07.88,2.54,2.54,0,0,0-1.24,2.12h-3.44a4.3,4.3,0,0,1,1.06-2.74,7.25,7.25,0,0,1,2.88-2.11,10.31,10.31,0,0,1,4-.77,8.18,8.18,0,0,1,5.42,1.65,5.8,5.8,0,0,1,2,4.52v8.75a10.21,10.21,0,0,0,.7,4.17v.28Zm-5.68-2.48a6.22,6.22,0,0,0,3.05-.79,4.89,4.89,0,0,0,2.09-2.06v-3.9h-2.68q-6.28,0-6.29,3.5a2.89,2.89,0,0,0,1.08,2.39A4.26,4.26,0,0,0,189.63,90.68Zm17.63,2.48h-3.42v-27h3.42Zm10.13-23.63v4.61h3.74v2.51h-3.74v11.8a2.6,2.6,0,0,0,.5,1.72,2.18,2.18,0,0,0,1.7.56,8.69,8.69,0,0,0,1.63-.21v2.64a10.56,10.56,0,0,1-2.62.35,4.38,4.38,0,0,1-3.46-1.32A5.44,5.44,0,0,1,214,88.45V76.65h-3.64V74.14H214V69.53ZM231.68,88.4l4.66-14.26H240l-8,22c-1.25,3.17-3.22,4.75-5.93,4.75l-.65,0-1.28-.23V97.92L225,98a3.9,3.9,0,0,0,4.3-3.11l.76-1.93L223,74.14h3.73Z"/><path class="cls-2" d="M683.46,322.19a15.91,15.91,0,0,1-1.26,6.57,9.5,9.5,0,0,1-3.59,4.27,9.91,9.91,0,0,1-14.41-4.23,15.23,15.23,0,0,1-1.32-6.38v-1.85a15.74,15.74,0,0,1,1.28-6.52,9.55,9.55,0,0,1,9-5.84,9.83,9.83,0,0,1,5.42,1.5,9.46,9.46,0,0,1,3.62,4.3,15.93,15.93,0,0,1,1.26,6.56Zm-3.35-1.65q0-4.56-1.83-7a6.49,6.49,0,0,0-10.16,0,11.16,11.16,0,0,0-1.88,6.75v1.88a11.57,11.57,0,0,0,1.84,6.94,6.53,6.53,0,0,0,10.18.14c1.2-1.59,1.81-3.87,1.85-6.84Zm24,4.32a11.42,11.42,0,0,1-2,7,6.37,6.37,0,0,1-5.38,2.65,7,7,0,0,1-5.45-2.2v9.16H688V315.14h3l.16,2.11a6.69,6.69,0,0,1,5.52-2.46,6.46,6.46,0,0,1,5.41,2.58,11.47,11.47,0,0,1,2,7.19Zm-3.25-.37a8.44,8.44,0,0,0-1.37-5.08,4.42,4.42,0,0,0-3.76-1.86,4.77,4.77,0,0,0-4.43,2.62v9.09a4.79,4.79,0,0,0,4.46,2.6,4.38,4.38,0,0,0,3.71-1.85A9.13,9.13,0,0,0,700.83,324.49Zm10.94,9.67h-3.26v-19h3.26Zm-3.52-24.06a2,2,0,0,1,.47-1.34,2.17,2.17,0,0,1,2.89,0,1.91,1.91,0,0,1,.49,1.34,1.84,1.84,0,0,1-.49,1.31,2.23,2.23,0,0,1-2.89,0A1.91,1.91,0,0,1,708.25,310.1Zm7.87,14.37a11.35,11.35,0,0,1,1.09-5,8.31,8.31,0,0,1,3.06-3.45,8.39,8.39,0,0,1,4.49-1.21,8,8,0,0,1,6.27,2.69,10.28,10.28,0,0,1,2.41,7.15v.23a11.35,11.35,0,0,1-1.07,5,8.05,8.05,0,0,1-3,3.43,8.42,8.42,0,0,1-4.54,1.23,8,8,0,0,1-6.27-2.69,10.3,10.3,0,0,1-2.4-7.12Zm3.27.39a8.19,8.19,0,0,0,1.46,5.08,5,5,0,0,0,7.88,0,9,9,0,0,0,1.46-5.45,8,8,0,0,0-1.5-5.06,4.92,4.92,0,0,0-7.82,0A8.83,8.83,0,0,0,719.39,324.86Zm17.34-.37a11.11,11.11,0,0,1,2.07-7,7.05,7.05,0,0,1,10.72-.39v-9.91h3.26v27h-3l-.16-2a6.63,6.63,0,0,1-5.43,2.39,6.51,6.51,0,0,1-5.4-2.71,11.3,11.3,0,0,1-2.07-7.06Zm3.25.37a8.43,8.43,0,0,0,1.33,5.06,4.33,4.33,0,0,0,3.7,1.83,4.74,4.74,0,0,0,4.51-2.78v-8.73a4.76,4.76,0,0,0-4.48-2.69,4.35,4.35,0,0,0-3.73,1.84A9.31,9.31,0,0,0,740,324.86ZM786.1,326a9.38,9.38,0,0,1-3,6.27,9.8,9.8,0,0,1-6.7,2.2,9,9,0,0,1-7.28-3.25,13.15,13.15,0,0,1-2.72-8.7V320.1a14.76,14.76,0,0,1,1.26-6.28,9.58,9.58,0,0,1,3.63-4.15,10,10,0,0,1,5.41-1.46,9.24,9.24,0,0,1,6.54,2.29,9.49,9.49,0,0,1,2.86,6.29h-3.39a7.26,7.26,0,0,0-1.92-4.43A5.74,5.74,0,0,0,776.7,311a6.07,6.07,0,0,0-5.08,2.39,11,11,0,0,0-1.83,6.8v2.48a11.28,11.28,0,0,0,1.74,6.63,5.62,5.62,0,0,0,4.87,2.46,6.46,6.46,0,0,0,4.31-1.27,7.1,7.1,0,0,0,2-4.44Zm13.31-8a10,10,0,0,0-1.6-.13,4.28,4.28,0,0,0-4.34,2.73v13.5h-3.25v-19h3.16l0,2.2a5.07,5.07,0,0,1,4.54-2.55,3.4,3.4,0,0,1,1.44.24Zm6.54,16.1H802.7v-19H806Zm-3.52-24.06a2,2,0,0,1,.48-1.34,2.16,2.16,0,0,1,2.88,0,1.91,1.91,0,0,1,.49,1.34,1.84,1.84,0,0,1-.49,1.31,1.92,1.92,0,0,1-3.36-1.31Zm19.81,19a2.36,2.36,0,0,0-1-2,9.32,9.32,0,0,0-3.46-1.26,16.09,16.09,0,0,1-3.92-1.27,5.67,5.67,0,0,1-2.15-1.75,4.3,4.3,0,0,1-.68-2.43,5,5,0,0,1,2-4,7.79,7.79,0,0,1,5.06-1.61,7.93,7.93,0,0,1,5.24,1.67,5.27,5.27,0,0,1,2,4.27h-3.27a2.92,2.92,0,0,0-1.14-2.3,4.19,4.19,0,0,0-2.85-1,4.5,4.5,0,0,0-2.78.77,2.46,2.46,0,0,0-1,2,2,2,0,0,0,.93,1.77,11.3,11.3,0,0,0,3.36,1.14,18.16,18.16,0,0,1,4,1.3,5.79,5.79,0,0,1,2.23,1.83,4.44,4.44,0,0,1,.74,2.59,4.89,4.89,0,0,1-2,4.09,8.6,8.6,0,0,1-5.29,1.53,9.57,9.57,0,0,1-4-.81,6.71,6.71,0,0,1-2.76-2.25,5.55,5.55,0,0,1-1-3.15h3.25a3.43,3.43,0,0,0,1.3,2.61,5.18,5.18,0,0,0,3.24.95,5.26,5.26,0,0,0,3-.74A2.32,2.32,0,0,0,822.24,329.11Zm11,5.05H830v-19h3.26Zm-3.52-24.06a2,2,0,0,1,.47-1.34,2.17,2.17,0,0,1,2.89,0,1.91,1.91,0,0,1,.49,1.34,1.84,1.84,0,0,1-.49,1.31,2.23,2.23,0,0,1-2.89,0A1.91,1.91,0,0,1,829.75,310.1Zm19.81,19a2.36,2.36,0,0,0-1-2,9.39,9.39,0,0,0-3.46-1.26,15.94,15.94,0,0,1-3.92-1.27,5.59,5.59,0,0,1-2.15-1.75,4.23,4.23,0,0,1-.68-2.43,5,5,0,0,1,2-4,7.83,7.83,0,0,1,5.07-1.61,8,8,0,0,1,5.24,1.67,5.3,5.3,0,0,1,2,4.27h-3.27a2.9,2.9,0,0,0-1.15-2.3,4.17,4.17,0,0,0-2.84-1,4.48,4.48,0,0,0-2.78.77,2.44,2.44,0,0,0-1,2,2,2,0,0,0,.93,1.77,11.3,11.3,0,0,0,3.36,1.14,18,18,0,0,1,4,1.3,5.71,5.71,0,0,1,2.23,1.83,4.37,4.37,0,0,1,.74,2.59,4.89,4.89,0,0,1-2,4.09,8.58,8.58,0,0,1-5.29,1.53,9.55,9.55,0,0,1-4-.81,6.71,6.71,0,0,1-2.76-2.25,5.48,5.48,0,0,1-1-3.15H841a3.43,3.43,0,0,0,1.3,2.61,5.17,5.17,0,0,0,3.23.95,5.3,5.3,0,0,0,3-.74A2.32,2.32,0,0,0,849.56,329.11Z"/></svg>