<svg id="Layer_1" data-name="Layer 1" xmlns="http://www.w3.org/2000/svg" xmlns:xlink="http://www.w3.org/1999/xlink" viewBox="0 0 534 215"><defs><style>.cls-1{fill:#fff;}.cls-1,.cls-2{fill-rule:evenodd;}.cls-2{fill:#fff8dc;}.cls-3{mask:url(#mask);}.cls-4{fill:#ebe4b9;}.cls-5{fill:#573a12;}</style><mask id="mask" x="7" y="11.04" width="514" height="197.99" maskUnits="userSpaceOnUse"><g id="path-1-inside-1"><path class="cls-1" d="M489.86,144.45C509.09,131.81,520,117.37,520,102c0-49.71-114.61-90-256-90S8,52.33,8,102s114.61,90,256,90c60.59,0,116.26-7.4,160.1-19.77a10.23,10.23,0,0,0,2.66,2.67l45.42,31.34a9.67,9.67,0,0,0,15.16-7.8Z"/></g></mask></defs><path class="cls-2" d="M489.86,144.45C509.09,131.81,520,117.37,520,102c0-49.71-114.61-90-256-90S8,52.33,8,102s114.61,90,256,90c60.59,0,116.26-7.4,160.1-19.77a10.23,10.23,0,0,0,2.66,2.67l45.42,31.34a9.67,9.67,0,0,0,15.16-7.8Z"/><g class="cls-3"><path class="cls-4" d="M489.86,144.45l-.55-.84-.43.28,0,.51ZM424.1,172.27l.83-.56-.41-.6-.69.2Zm2.66,2.67-.56.83Zm45.42,31.34.56-.82Zm15.16-7.8,1,.05ZM519,102c0,14.82-10.55,29-29.69,41.57l1.1,1.67C509.74,132.58,521,117.88,521,102ZM264,13c70.61,0,134.49,10.06,180.69,26.3,23.1,8.13,41.72,17.77,54.55,28.44S519,90,519,102h2c0-12.84-7.4-24.93-20.48-35.8s-31.94-20.62-55.17-28.78C398.89,21.12,334.77,11,264,11ZM9,102c0-12,6.92-23.59,19.76-34.26S60.21,47.47,83.31,39.34C129.51,23.1,193.39,13,264,13V11C193.23,11,129.11,21.12,82.65,37.46,59.42,45.62,40.56,55.37,27.48,66.24S7,89.2,7,102Zm255,89c-70.61,0-134.49-10.06-180.69-26.3C60.21,156.61,41.59,147,28.76,136.3S9,114.05,9,102H7c0,12.84,7.41,24.94,20.48,35.8s31.94,20.62,55.17,28.78C129.11,183,193.23,193,264,193Zm159.83-19.73C380.09,183.65,324.51,191,264,191v2c60.66,0,116.43-7.41,160.37-19.81Zm3.5,2.81a9.31,9.31,0,0,1-2.4-2.41l-1.66,1.13a11.49,11.49,0,0,0,2.93,2.93Zm45.41,31.34-45.41-31.34-1.13,1.65,45.41,31.33Zm13.6-7a8.67,8.67,0,0,1-13.6,7l-1.13,1.64a10.67,10.67,0,0,0,16.73-8.57Zm2.52-54-2.52,54,2,.09,2.52-54Z"/></g><path class="cls-5" d="M92.31,84.56l.5,3.38.72-3L98.59,67h2.85l4.94,17.85.7,3.1.54-3.45,4-17.5H115l-6.21,25.59h-3.07L100.43,74l-.4-2-.4,2L94.16,92.63H91.08L84.9,67h3.37Zm29.18-8.65a6.91,6.91,0,0,1,5.63-2.65q6,0,6.08,6.8V92.63H130V80a4.35,4.35,0,0,0-.95-3,3.77,3.77,0,0,0-2.87-1,4.68,4.68,0,0,0-2.77.84,5.71,5.71,0,0,0-1.87,2.22V92.63h-3.25v-27h3.25Zm22.8,12,4.43-14.26h3.48l-7.64,22q-1.78,4.75-5.65,4.75l-.61,0-1.22-.23V97.39l.88.07a4.27,4.27,0,0,0,2.57-.67,4.76,4.76,0,0,0,1.53-2.44l.72-1.93L136,73.61h3.56Zm19-4.91a11.11,11.11,0,0,1,2.07-7,7.06,7.06,0,0,1,10.73-.39V65.63h3.25v27h-3l-.16-2A6.63,6.63,0,0,1,170.73,93a6.53,6.53,0,0,1-5.4-2.71,11.3,11.3,0,0,1-2.07-7.06Zm3.25.37a8.43,8.43,0,0,0,1.34,5.06,4.31,4.31,0,0,0,3.69,1.83,4.76,4.76,0,0,0,4.52-2.78V78.71A4.78,4.78,0,0,0,171.57,76a4.33,4.33,0,0,0-3.72,1.84A9.31,9.31,0,0,0,166.51,83.33Zm17-.39a11.22,11.22,0,0,1,1.09-5,8.07,8.07,0,0,1,7.54-4.66A8,8,0,0,1,198.41,76a10.28,10.28,0,0,1,2.41,7.15v.23a11.21,11.21,0,0,1-1.07,5,8,8,0,0,1-3,3.43A8.39,8.39,0,0,1,192.17,93a8,8,0,0,1-6.27-2.69,10.34,10.34,0,0,1-2.39-7.12Zm3.27.39a8.13,8.13,0,0,0,1.46,5.08,5,5,0,0,0,7.87,0,8.94,8.94,0,0,0,1.46-5.45,8.09,8.09,0,0,0-1.49-5.06,4.93,4.93,0,0,0-7.83,0A8.83,8.83,0,0,0,186.78,83.33ZM208,73.61l.1,2.39a6.93,6.93,0,0,1,5.7-2.74q6,0,6.08,6.8V92.63h-3.25V80a4.35,4.35,0,0,0-1-3,3.77,3.77,0,0,0-2.87-1,4.68,4.68,0,0,0-2.77.84,5.71,5.71,0,0,0-1.87,2.22V92.63H204.9v-19Zm15.61.63L221.74,73a8.52,8.52,0,0,0,1.69-4.82V65.63h3.21v2.28a8.66,8.66,0,0,1-3,6.33ZM235,69v4.61h3.55v2.51H235v11.8a2.65,2.65,0,0,0,.47,1.72,2,2,0,0,0,1.62.56,8,8,0,0,0,1.55-.21v2.64a9.65,9.65,0,0,1-2.5.35,4.06,4.06,0,0,1-3.29-1.32,5.64,5.64,0,0,1-1.11-3.74V76.12h-3.46V73.61h3.46V69Zm22.51,18.87,4.43-14.26h3.48l-7.64,22q-1.78,4.75-5.64,4.75l-.62,0-1.21-.23V97.39l.88.07a4.24,4.24,0,0,0,2.56-.67,4.76,4.76,0,0,0,1.53-2.44l.72-1.93L249.2,73.61h3.55Zm9.69-4.93a11.22,11.22,0,0,1,1.09-5,8.07,8.07,0,0,1,7.54-4.66A8,8,0,0,1,282.09,76a10.32,10.32,0,0,1,2.4,7.15v.23a11.21,11.21,0,0,1-1.07,5,7.93,7.93,0,0,1-3,3.43A8.36,8.36,0,0,1,275.85,93a8.05,8.05,0,0,1-6.28-2.69,10.34,10.34,0,0,1-2.39-7.12Zm3.27.39a8.19,8.19,0,0,0,1.46,5.08,4.72,4.72,0,0,0,3.94,1.92,4.67,4.67,0,0,0,3.93-1.94,8.87,8.87,0,0,0,1.46-5.45,8.09,8.09,0,0,0-1.49-5.06,4.92,4.92,0,0,0-7.82,0A8.76,8.76,0,0,0,270.45,83.33Zm29.86,7.42A6.89,6.89,0,0,1,294.74,93a6,6,0,0,1-4.64-1.76A7.72,7.72,0,0,1,288.5,86V73.61h3.25V85.9c0,2.88,1.18,4.32,3.52,4.32s4.14-.93,5-2.78V73.61h3.25v19h-3.1Zm20.41-17.14V94.83q0,5.48-5,5.48a5.81,5.81,0,0,1-2-.32v-2.6a6,6,0,0,0,1.48.14,2.17,2.17,0,0,0,1.65-.59,2.84,2.84,0,0,0,.58-2V73.61Zm-3.58-5a2,2,0,0,1,.47-1.31,1.78,1.78,0,0,1,1.43-.57,1.86,1.86,0,0,1,1.44.55,2,2,0,0,1,.49,1.33A1.76,1.76,0,0,1,319,70.41a1.83,1.83,0,0,1-1.43-.53A1.92,1.92,0,0,1,317.14,68.56Zm8,14.38a11.22,11.22,0,0,1,1.09-5,8.07,8.07,0,0,1,7.54-4.66A8,8,0,0,1,340,76a10.28,10.28,0,0,1,2.41,7.15v.23a11.35,11.35,0,0,1-1.07,5,8,8,0,0,1-3,3.43A8.39,8.39,0,0,1,333.78,93a8,8,0,0,1-6.27-2.69,10.29,10.29,0,0,1-2.39-7.12Zm3.27.39a8.13,8.13,0,0,0,1.46,5.08,5,5,0,0,0,7.87,0,8.94,8.94,0,0,0,1.46-5.45,8.09,8.09,0,0,0-1.49-5.06,4.93,4.93,0,0,0-7.83,0A8.83,8.83,0,0,0,328.39,83.33ZM350,92.63h-3.25v-19H350Zm-3.51-24.07a2,2,0,0,1,.47-1.33,1.86,1.86,0,0,1,1.44-.55,1.83,1.83,0,0,1,1.44.55,1.91,1.91,0,0,1,.5,1.33,1.77,1.77,0,0,1-1.94,1.85,1.89,1.89,0,0,1-1.44-.53A1.92,1.92,0,0,1,346.53,68.56Zm11.81,5,.11,2.39a6.91,6.91,0,0,1,5.69-2.74q6,0,6.08,6.8V92.63H367V80a4.35,4.35,0,0,0-1-3,3.75,3.75,0,0,0-2.86-1,4.71,4.71,0,0,0-2.78.84,5.61,5.61,0,0,0-1.86,2.22V92.63h-3.26v-19Zm29.25,19h-3.25v-19h3.25Zm-3.52-24.07a1.94,1.94,0,0,1,.48-1.33,2.16,2.16,0,0,1,2.88,0,1.9,1.9,0,0,1,.49,1.33,1.84,1.84,0,0,1-.49,1.32,1.92,1.92,0,0,1-3.36-1.32Zm11.82,5L396,76a6.93,6.93,0,0,1,5.7-2.74q6,0,6.08,6.8V92.63h-3.25V80a4.35,4.35,0,0,0-.95-3,3.77,3.77,0,0,0-2.87-1,4.68,4.68,0,0,0-2.77.84,5.71,5.71,0,0,0-1.87,2.22V92.63h-3.25v-19Zm20.6,11.81a10.52,10.52,0,0,1,.47-3.3,8.44,8.44,0,0,1,1.8-2.69l2.3-2.38a5.33,5.33,0,0,0,1.48-3.58,4.08,4.08,0,0,0-1-2.88,3.61,3.61,0,0,0-2.81-1.06,4.26,4.26,0,0,0-2.89,1A3.22,3.22,0,0,0,414.78,73h-3.25a5.91,5.91,0,0,1,2-4.59,7.62,7.62,0,0,1,5.21-1.76,7.08,7.08,0,0,1,5.16,1.8,6.39,6.39,0,0,1,1.87,4.88,8.86,8.86,0,0,1-2.85,6.07L421,81.33a5.93,5.93,0,0,0-1.28,4.09ZM416.35,91a1.91,1.91,0,0,1,.47-1.31,2.17,2.17,0,0,1,2.89,0,2,2,0,0,1,0,2.63A1.92,1.92,0,0,1,416.35,91ZM90.41,134.63H87V109h3.37ZM100.5,111v4.61h3.56v2.51H100.5v11.8a2.65,2.65,0,0,0,.48,1.72,2,2,0,0,0,1.62.56,7.84,7.84,0,0,0,1.54-.21v2.64a9.52,9.52,0,0,1-2.49.35,4,4,0,0,1-3.29-1.32,5.64,5.64,0,0,1-1.11-3.74v-11.8H93.79v-2.51h3.46V111Zm7.6,5.24L106.25,115a8.52,8.52,0,0,0,1.69-4.82v-2.53h3.22v2.28a8.14,8.14,0,0,1-.88,3.52A8,8,0,0,1,108.1,116.24Zm16.08,13.34a2.38,2.38,0,0,0-1-2,9.39,9.39,0,0,0-3.46-1.26A16.09,16.09,0,0,1,115.8,125a5.67,5.67,0,0,1-2.15-1.75,4.3,4.3,0,0,1-.68-2.43,4.93,4.93,0,0,1,2-4,7.79,7.79,0,0,1,5.06-1.61,7.9,7.9,0,0,1,5.24,1.67,5.3,5.3,0,0,1,2,4.27H124a2.92,2.92,0,0,0-1.14-2.3,4.19,4.19,0,0,0-2.85-1,4.48,4.48,0,0,0-2.78.77,2.43,2.43,0,0,0-1,2,2,2,0,0,0,.93,1.78,11.3,11.3,0,0,0,3.36,1.14,17.87,17.87,0,0,1,3.95,1.3,5.75,5.75,0,0,1,2.24,1.83,4.42,4.42,0,0,1,.73,2.59,4.91,4.91,0,0,1-2,4.09,8.61,8.61,0,0,1-5.3,1.53,9.55,9.55,0,0,1-4-.81,6.71,6.71,0,0,1-2.76-2.25,5.55,5.55,0,0,1-1-3.14h3.25a3.41,3.41,0,0,0,1.3,2.6,5.17,5.17,0,0,0,3.23,1,5.3,5.3,0,0,0,3-.74A2.32,2.32,0,0,0,124.18,129.58Zm19.5-14,.1,2.39a6.92,6.92,0,0,1,5.7-2.74q6,0,6.08,6.8v12.57h-3.25V122a4.35,4.35,0,0,0-.95-3,3.77,3.77,0,0,0-2.87-1,4.68,4.68,0,0,0-2.77.84,5.71,5.71,0,0,0-1.87,2.22v13.55H140.6v-19Zm15.92,9.33a11.35,11.35,0,0,1,1.09-5,8.07,8.07,0,0,1,7.54-4.66,8,8,0,0,1,6.28,2.69,10.33,10.33,0,0,1,2.41,7.15v.23a11.22,11.22,0,0,1-1.08,5,7.93,7.93,0,0,1-3,3.43,8.36,8.36,0,0,1-4.53,1.23,8.05,8.05,0,0,1-6.28-2.69,10.34,10.34,0,0,1-2.39-7.12Zm3.27.39a8.19,8.19,0,0,0,1.46,5.08,5,5,0,0,0,7.88,0,8.94,8.94,0,0,0,1.45-5.45,8,8,0,0,0-1.49-5.06,4.92,4.92,0,0,0-7.82,0A8.76,8.76,0,0,0,162.87,125.33ZM185.41,111v4.61H189v2.51h-3.55v11.8a2.65,2.65,0,0,0,.47,1.72,2,2,0,0,0,1.62.56,8,8,0,0,0,1.55-.21v2.64a9.65,9.65,0,0,1-2.5.35,4.06,4.06,0,0,1-3.29-1.32,5.64,5.64,0,0,1-1.11-3.74v-11.8h-3.46v-2.51h3.46V111Zm20.7,0v4.61h3.55v2.51h-3.55v11.8a2.65,2.65,0,0,0,.48,1.72,2,2,0,0,0,1.62.56,7.84,7.84,0,0,0,1.54-.21v2.64a9.58,9.58,0,0,1-2.49.35,4,4,0,0,1-3.29-1.32,5.64,5.64,0,0,1-1.11-3.74v-11.8H199.4v-2.51h3.46V111Zm6.16,13.94a11.22,11.22,0,0,1,1.09-5,8.22,8.22,0,0,1,3-3.45,8.39,8.39,0,0,1,4.49-1.21,8,8,0,0,1,6.27,2.69,10.28,10.28,0,0,1,2.41,7.15v.23a11.35,11.35,0,0,1-1.07,5,8.05,8.05,0,0,1-3,3.43,8.42,8.42,0,0,1-4.54,1.23,8,8,0,0,1-6.27-2.69,10.29,10.29,0,0,1-2.39-7.12Zm3.27.39a8.19,8.19,0,0,0,1.45,5.08,5,5,0,0,0,7.88,0,8.94,8.94,0,0,0,1.46-5.45,8,8,0,0,0-1.5-5.06,4.92,4.92,0,0,0-7.82,0A8.83,8.83,0,0,0,215.54,125.33Zm17.26-.39a11.22,11.22,0,0,1,1.09-5,8.24,8.24,0,0,1,3.06-3.45,8.33,8.33,0,0,1,4.48-1.21A8,8,0,0,1,247.7,118a10.28,10.28,0,0,1,2.41,7.15v.23a11.35,11.35,0,0,1-1.07,5,8,8,0,0,1-3,3.43,8.39,8.39,0,0,1-4.54,1.23,8,8,0,0,1-6.27-2.69,10.29,10.29,0,0,1-2.39-7.12Zm3.27.39a8.13,8.13,0,0,0,1.46,5.08,5,5,0,0,0,7.87,0,8.94,8.94,0,0,0,1.46-5.45,8.09,8.09,0,0,0-1.49-5.06,4.93,4.93,0,0,0-7.83,0A8.83,8.83,0,0,0,236.07,125.33Zm30.58,9.3H263.4v-27h3.25Zm17,0a6.84,6.84,0,0,1-.46-2,7.23,7.23,0,0,1-5.42,2.36,6.8,6.8,0,0,1-4.62-1.58,5.21,5.21,0,0,1-1.79-4,5.36,5.36,0,0,1,2.25-4.61,10.65,10.65,0,0,1,6.36-1.65h3.17v-1.5a3.6,3.6,0,0,0-1-2.7,4.09,4.09,0,0,0-3-1,4.73,4.73,0,0,0-2.92.88,2.59,2.59,0,0,0-1.18,2.12h-3.26a4.46,4.46,0,0,1,1-2.74,7,7,0,0,1,2.74-2.11,9.36,9.36,0,0,1,3.81-.77,7.48,7.48,0,0,1,5.15,1.65,5.9,5.9,0,0,1,1.94,4.52v8.75a10.62,10.62,0,0,0,.67,4.17v.28Zm-5.4-2.48a5.67,5.67,0,0,0,2.9-.79,4.8,4.8,0,0,0,2-2.06v-3.9h-2.55q-6,0-6,3.5a3,3,0,0,0,1,2.39A3.94,3.94,0,0,0,278.22,132.15ZM295.87,111v4.61h3.55v2.51h-3.55v11.8a2.71,2.71,0,0,0,.47,1.72,2,2,0,0,0,1.62.56,8,8,0,0,0,1.55-.21v2.64a9.65,9.65,0,0,1-2.5.35,4.06,4.06,0,0,1-3.29-1.32,5.64,5.64,0,0,1-1.1-3.74v-11.8h-3.47v-2.51h3.47V111Zm15.26,24a8.33,8.33,0,0,1-6.3-2.53,9.49,9.49,0,0,1-2.42-6.8v-.6a11.39,11.39,0,0,1,1.07-5,8.56,8.56,0,0,1,3-3.48,7.64,7.64,0,0,1,4.22-1.26,7.13,7.13,0,0,1,5.77,2.44q2.06,2.44,2.05,7v1.35H305.66a6.83,6.83,0,0,0,1.63,4.55,5.21,5.21,0,0,0,4,1.73,5.66,5.66,0,0,0,2.92-.71,7.37,7.37,0,0,0,2.09-1.86l2,1.55A8,8,0,0,1,311.13,135Zm-.41-17a4.32,4.32,0,0,0-3.3,1.44,6.94,6.94,0,0,0-1.66,4h9.53v-.25A6.16,6.16,0,0,0,314,119.3,4.1,4.1,0,0,0,310.72,117.93ZM335.66,111v4.61h3.56v2.51h-3.56v11.8a2.65,2.65,0,0,0,.48,1.72,2,2,0,0,0,1.62.56,7.84,7.84,0,0,0,1.54-.21v2.64a9.52,9.52,0,0,1-2.49.35,4,4,0,0,1-3.29-1.32,5.64,5.64,0,0,1-1.11-3.74v-11.8H329v-2.51h3.46V111Zm6.16,13.94a11.22,11.22,0,0,1,1.09-5,8.17,8.17,0,0,1,3.06-3.45,8.33,8.33,0,0,1,4.48-1.21,8,8,0,0,1,6.27,2.69,10.28,10.28,0,0,1,2.41,7.15v.23a11.35,11.35,0,0,1-1.07,5,8,8,0,0,1-3,3.43,8.39,8.39,0,0,1-4.54,1.23,8,8,0,0,1-6.27-2.69,10.29,10.29,0,0,1-2.39-7.12Zm3.27.39a8.13,8.13,0,0,0,1.46,5.08,5,5,0,0,0,7.87,0,8.94,8.94,0,0,0,1.46-5.45,8,8,0,0,0-1.5-5.06,4.92,4.92,0,0,0-7.82,0A8.83,8.83,0,0,0,345.09,125.33Zm38.12,4.25a2.38,2.38,0,0,0-1-2,9.39,9.39,0,0,0-3.46-1.26,16.09,16.09,0,0,1-3.92-1.27,5.67,5.67,0,0,1-2.15-1.75,4.3,4.3,0,0,1-.68-2.43,4.93,4.93,0,0,1,2-4,7.79,7.79,0,0,1,5.06-1.61,7.88,7.88,0,0,1,5.24,1.67,5.27,5.27,0,0,1,2,4.27H383a2.92,2.92,0,0,0-1.14-2.3,4.19,4.19,0,0,0-2.85-1,4.5,4.5,0,0,0-2.78.77,2.43,2.43,0,0,0-1,2,2,2,0,0,0,.93,1.78,11.3,11.3,0,0,0,3.36,1.14,17.87,17.87,0,0,1,3.95,1.3,5.75,5.75,0,0,1,2.24,1.83,4.42,4.42,0,0,1,.74,2.59,4.89,4.89,0,0,1-2,4.09,8.61,8.61,0,0,1-5.3,1.53,9.55,9.55,0,0,1-4-.81,6.71,6.71,0,0,1-2.76-2.25,5.55,5.55,0,0,1-1-3.14h3.25a3.41,3.41,0,0,0,1.3,2.6,5.17,5.17,0,0,0,3.23,1,5.27,5.27,0,0,0,3-.74A2.32,2.32,0,0,0,383.21,129.58ZM395.11,111v4.61h3.55v2.51h-3.55v11.8a2.65,2.65,0,0,0,.48,1.72,2,2,0,0,0,1.62.56,7.84,7.84,0,0,0,1.54-.21v2.64a9.58,9.58,0,0,1-2.49.35,4,4,0,0,1-3.29-1.32,5.64,5.64,0,0,1-1.11-3.74v-11.8H388.4v-2.51h3.46V111Zm19.11,23.63a6.84,6.84,0,0,1-.46-2,7.21,7.21,0,0,1-5.41,2.36,6.76,6.76,0,0,1-4.62-1.58,5.19,5.19,0,0,1-1.8-4,5.36,5.36,0,0,1,2.25-4.61,10.7,10.7,0,0,1,6.37-1.65h3.16v-1.5a3.6,3.6,0,0,0-1-2.7,4.07,4.07,0,0,0-3-1,4.71,4.71,0,0,0-2.92.88,2.56,2.56,0,0,0-1.18,2.12h-3.27a4.46,4.46,0,0,1,1-2.74,7,7,0,0,1,2.74-2.11,9.41,9.41,0,0,1,3.82-.77,7.5,7.5,0,0,1,5.15,1.65,5.89,5.89,0,0,1,1.93,4.52v8.75a10.8,10.8,0,0,0,.67,4.17v.28Zm-5.4-2.48a5.67,5.67,0,0,0,2.9-.79,4.75,4.75,0,0,0,2-2.06v-3.9h-2.55q-6,0-6,3.5a3,3,0,0,0,1,2.39A3.91,3.91,0,0,0,408.82,132.15Zm22.43-13.62a9.87,9.87,0,0,0-1.6-.13,4.28,4.28,0,0,0-4.34,2.73v13.5h-3.25v-19h3.16l.06,2.2a5.06,5.06,0,0,1,4.53-2.55,3.34,3.34,0,0,1,1.44.24Zm8.3-7.53v4.61h3.55v2.51h-3.55v11.8a2.65,2.65,0,0,0,.48,1.72,2,2,0,0,0,1.61.56,7.92,7.92,0,0,0,1.55-.21v2.64a9.65,9.65,0,0,1-2.5.35,4,4,0,0,1-3.28-1.32,5.64,5.64,0,0,1-1.11-3.74v-11.8h-3.46v-2.51h3.46V111ZM447,132.92a2,2,0,0,1,.49-1.4,2.32,2.32,0,0,1,3,0,2,2,0,0,1,.53,1.4,1.9,1.9,0,0,1-.53,1.36,2,2,0,0,1-3.51-1.36Z"/></svg>