<svg id="Layer_1" data-name="Layer 1" xmlns="http://www.w3.org/2000/svg" viewBox="0 0 397.22 350.26"><defs><style>.cls-1{fill:#84b0a6;}.cls-1,.cls-4{stroke:#63857e;stroke-miterlimit:10;stroke-width:2px;}.cls-2,.cls-3,.cls-9{fill:#5d7e77;}.cls-2{opacity:0.2;}.cls-3{opacity:0.25;}.cls-4{fill:#85b0a6;}.cls-5,.cls-6{fill:#4b6963;}.cls-5,.cls-8,.cls-9{opacity:0.4;}.cls-6{opacity:0.3;}.cls-7{fill:#957032;}.cls-8{fill:#7d6448;}.cls-10{fill:#92b3a6;}</style></defs><path class="cls-1" d="M281.87,99.61c-2.68,4.38-.07,6.91-.87,20.87-.83,14.44-4.12,20.24-1.74,21.74,3.52,2.22,10.41-10.66,27.83-17.39,7.53-2.91,13.73-3.39,26.08-4.35,15.74-1.22,20.14.88,21.74,1.74,8.27,4.42,11.45,12.79,12.18,14.78,3.83,10.55.19,20.18-4.35,32.17a94.15,94.15,0,0,1-15.65,27A88.47,88.47,0,0,1,321.87,217c-6.08,3.26-14.06,7.54-25.22,8.7-11.52,1.18-16.15-2-20.87,1.73-5.74,4.58-7,15.82-2.61,22.61,7.39,11.36,28.57,7,33.05,6.09,11.5-2.36,18.94-7.71,28.69-14.78a144.46,144.46,0,0,0,30.44-30.44c6.54-8.74,13.36-17.86,18.26-31.3,3.63-10,15.2-41.69-1.74-66.09-9.17-13.21-22.62-18.39-27-20-9.23-3.42-19.49-2.86-40-1.74C287.26,93.3,283.49,97,281.87,99.61Z"/><path class="cls-2" d="M276.65,229.7c-4.87,4.76-4.94,14.66-.87,20.34,5.56,7.75,17.8,6.24,27.35,5.06,9-1.12,17.86-2.22,23.09-9.4,7.22-9.94,4-26.59-2.09-28.7-4-1.39-6,4.53-15.52,8.46C293.54,231.7,283.33,223.14,276.65,229.7Z"/><path class="cls-3" d="M281,100.48c-2.38,3.57-.54,5-1.74,21.74-.81,11.29-1.91,14.28,0,15.65,3,2.11,7.75-3.48,23.48-10.44,8.79-3.88,13.18-5.82,19.13-7,8.22-1.56,11.72-.44,13.91-3.48,2.87-4,1.44-12.12,0-16.5v0h0c-.28-2.17-.73-5.55-.87-6.08-1.33-5.08-26.08-1.74-26.08-1.74C292.26,94.89,283.92,96.09,281,100.48Z"/><path class="cls-4" d="M288,52.65c-1.46-2.82-5-9.12-35.66-17.39C235,30.6,222.19,27.13,200.13,24c-15.69-2.26-34.36-4.87-59.13-4.35a344,344,0,0,0-34.78,2.61c-1.3.15-2.42.28-3.62.45C88.49,24.61,71,27.55,61,30c-21.55,5.4-37.83,9.48-46.09,22.61-2.8,4.46-3.14,7.53-3.48,46.09-.17,19.91-.25,29.86-.2,41.43.11,21.1.58,40.66.81,50.15.28,11.4.34,8.78.39,14.77.37,45.86,0,73.49,0,73.49-.08,6.13-.18,11.95,2.52,18.82,5.42,13.77,17.63,20.34,30.24,26.89,3.63,1.88,17.9,9.08,41.17,13.44,10.54,2,21.59,2.51,43.68,3.58,19.38.95,29.07,1.42,40.32.9a264.74,264.74,0,0,0,42.85-5.38c12.35-2.61,20.55-5.62,37-11.65,8.76-3.21,15.74-6.11,21-13.44a34.69,34.69,0,0,0,5.88-14.34c4.34-23.72,2-55,1.49-64.07-.51-8.51.57-26.74,2.71-63.19.82-13.85,2-30.44,4.2-51.08h0c1.26-11.49,2.87-28.33,4.25-50.76C290.47,64.09,290.81,58.17,288,52.65Z"/><path class="cls-5" d="M70,36.13c19.48-3.56,29.21-5.34,41.88-6.09,14.92-.88,25.58-.13,41,.87,5.84.38,19.71,2,47.22,5.22,5.26.62,18.48,2.29,35.63,5.22,24.9,4.25,33.55,7,36.53,13.91,2.07,4.79.55,9.58,0,11.31-3.8,11.94-18.49,17-33,21.73a142,142,0,0,1-41.88,7,302.64,302.64,0,0,1-56.12,3.48c-26.08-.82-46-4.87-60.59-7.83-20.38-4.13-15.39-4.86-28.51-7-8.31-1.33-15-1.8-21.38-7-2.12-1.73-6.4-5.21-7.12-10.43-1.32-9.44,9.92-17.53,13.36-20C43.39,42,49.59,39.87,70,36.13Z"/><path class="cls-6" d="M43.75,83.08c4.38-.1,4.45-1.41,16.14-5.48a43,43,0,0,1,9-2c8.26-1,10.54.54,13-1.87,6.74-13.92,6.88-28.24,0-34.6-7.29-6.73-19.62-2.43-37.3,3.74-11.06,3.87-15.14,7.51-17.59,11.52-.82,1.33-4.51,7.37-2.74,14.48C27,79.39,39.31,83.19,43.75,83.08Z"/><path class="cls-7" d="M39.17,80.52c.22-4.68,26.55-7.27,32.11-7.82,9.08-.9,9.61-.18,26.76-.87,18.15-.74,18.54-1.54,31.21-1.74,11.24-.18,19.73.31,29.43.87,8.47.48,16,1.17,31.22,2.61,16.78,1.58,21.41,2.14,25,2.6,15.91,2.08,32.81,4.83,33,8.7.25,5-27.93,10.79-46.38,13-13.42,1.64-23.78,1.68-37.46,1.74-6.94,0-22.79-.05-43.7-1.74A369.13,369.13,0,0,1,74,91.83C59.92,89,39,84.76,39.17,80.52Z"/><path class="cls-8" d="M79.81,90.43c6.08-3.75,8.4-11.91,4.46-15.65-3.52-3.34-11-2.15-24.55,0-10.44,1.66-22,3.49-22.33,7-.42,4.33,17,8.26,19,8.69C65.38,92.42,73.64,94.24,79.81,90.43Z"/><path class="cls-9" d="M216.45,115.36c-5,7.78-5,22.65-5.06,24,0,.64,0,3.82-.23,8.19-.18,3.15-.38,3.87-.52,14-.31,23.33.42,44.46.75,68.24.74,54.42,1.11,81.63,0,85.69-1.06,3.85-3.57,12.22,0,15.87,3.37,3.45,13-.3,32-7.93,12.77-5.12,16.49-7.42,20.12-11.11a42.41,42.41,0,0,0,9.68-15.87c5.63-15.95,4.55-32.6,4.55-32.6-1.09-16.88-.82-40.08,1.42-73.73.22-11.26.86-29,3-50.78C286,100,291.59,78.7,284.86,75.58c-7-3.26-14.69,19.4-42.92,28.85C229.8,108.49,221.11,108,216.45,115.36Z"/><path class="cls-10" d="M199.5,101.91c-32.52,6.73-57.53,4.68-78.41,3A284.2,284.2,0,0,1,66.81,95c-23-6.53-30.89-11.92-33.6-13.85a78.38,78.38,0,0,1-7.86-6.45,70.58,70.58,0,0,0,11.34,5.44A267.39,267.39,0,0,0,91.1,92.6c50.38,4.65,75.74,7,83.83,6.72,7.14-.21,24.68-2.73,59.76-7.68q4.74-.66,8.95-1.29C232.08,95.16,218.73,97.93,199.5,101.91Z"/></svg>