<svg xmlns="http://www.w3.org/2000/svg" viewBox="0 0 889.06 1469.27"><defs><style>.cls-1,.cls-11{fill:#31221b;}.cls-2,.cls-3{fill:#c49a6c;}.cls-2{stroke:#8b5e3c;}.cls-10,.cls-2,.cls-5,.cls-7,.cls-9{stroke-miterlimit:10;}.cls-2,.cls-5,.cls-7{stroke-width:2px;}.cls-4{fill:#8b5e3c;}.cls-5{fill:#c2705b;}.cls-5,.cls-7{stroke:#945545;}.cls-6,.cls-9{fill:#231f20;}.cls-6{opacity:0.25;}.cls-7{fill:#945545;opacity:0.3;}.cls-8{fill:#56443b;}.cls-10,.cls-9{stroke:#231f20;}.cls-10{fill:none;stroke-width:3px;}.cls-11{opacity:0.2;}</style></defs><g id="Layer_3" data-name="Layer 3"><rect class="cls-1" x="274.26" y="354.1" width="370.76" height="148.61"/><path class="cls-2" d="M468.83,585.45h0c-49.72,0-90.39-32.72-90.39-103.78V412.84c0-71.07,40.67-129.21,90.39-129.21h0c49.71,0,90.39,58.14,90.39,129.21v68.83C559.22,552.73,518.54,585.45,468.83,585.45Z"/><path class="cls-3" d="M163.6,1066.21c12.24-6.69,24.48-6.38,37.33-6.1q.21-23.31,1.22-46.5c1.13-25.55,3-51.42,5.65-76.87l6.45-32.28a1,1,0,0,0,0-.17,610.91,610.91,0,0,0,4.06-70.23,610.91,610.91,0,0,0-4.06-70.23,2,2,0,0,0-1.32-1.67L109.8,728.07a1.65,1.65,0,0,0-.58-.1,1.89,1.89,0,0,0-1.15.4,2.07,2.07,0,0,0-.76,1.65l2,87.84-4,61-4,105.89a1.82,1.82,0,0,0,0,.33l6.09,48.61c11.58,9.4,24.87,17.32,37.45,24.54C150,1061.21,156.29,1069.21,163.6,1066.21Z"/><path class="cls-4" d="M101.25,984.94a1.09,1.09,0,0,1,0-.18l4.05-105.85,4-61.07-2-87.84a1.05,1.05,0,0,1,.38-.85.78.78,0,0,1,.49-.18.85.85,0,0,1,.23,0l103.16,34.1a1,1,0,0,1,.62.83,611.13,611.13,0,0,1,4.06,70.12,611.75,611.75,0,0,1-4.07,70.21l-6.46,32.37c-2.63,25.49-4.53,51.37-5.66,76.93q-1,23.17-1.22,46.51l2.09.05q.21-23.31,1.22-46.48c1.12-25.52,3-51.36,5.63-76.72l6.45-32.28c0-.09,0-.17,0-.25a612.82,612.82,0,0,0,4.06-70.34,612.82,612.82,0,0,0-4.06-70.34,3,3,0,0,0-2-2.5L109.1,727.12a3,3,0,0,0-2.73.48,3,3,0,0,0-1.15,2.44l2,87.76-4,61-4,105.88a2.64,2.64,0,0,0,0,.49l5.95,47.54c.77.64,1.55,1.27,2.34,1.9Z"/><path class="cls-3" d="M809.64,897.48l-4.22-60.92,2.11-87.85a2,2,0,0,0-.8-1.64,2,2,0,0,0-1.2-.4,2,2,0,0,0-.6.09L697,780.85a2,2,0,0,0-1.39,1.67,583.75,583.75,0,0,0,0,140.46,1.55,1.55,0,0,0,0,.21l8.32,36c2,24.21,3.47,48.8,4.32,73.08,1.43,40.49,1.22,81.43-.59,122.11,23.48,11.31,44.35,28.83,72,35.29,1.54,0,2.82,1.06,4.24,2.22l.23-3.3s16.92-87.89,16.93-87.93l12.69-96.91a2,2,0,0,0,0-.34Z"/><path class="cls-4" d="M810.64,897.41l-4.22-60.83,2.11-87.84a3,3,0,0,0-3.91-2.93L696.72,779.9a3,3,0,0,0-2.07,2.5,584.46,584.46,0,0,0,0,140.71,1.7,1.7,0,0,0,.06.31l8.3,35.94c2,24.17,3.46,48.71,4.31,73,1.42,40.31,1.22,81.08-.57,121.6l2,.94c1.83-40.85,2-82,.61-122.61-.85-24.3-2.31-48.9-4.33-73.13L696.65,923a.34.34,0,0,1,0-.1,581.77,581.77,0,0,1,0-140.22,1,1,0,0,1,.69-.83l107.9-34.1a1,1,0,0,1,.9.16,1,1,0,0,1,.4.82l-2.11,87.93,4.22,60.9,4.24,105.94a1,1,0,0,1,0,.17l-12.69,96.85c-.08.46-16.75,87.06-16.92,87.93l-.19,2.74c.61.47,1.22,1,1.89,1.52l.28-3.94c16.9-87.85,16.91-87.89,16.92-87.93l12.69-96.91a2.9,2.9,0,0,0,0-.51Z"/><path class="cls-5" d="M365.38,496.2c15.28,12.81,8.83,22.44,28.4,40.73,17.1,16,36,21.64,47.34,25.06,15.78,4.75,39.88,12,66.28,3.14,16-5.38,25.81-14.31,41-28.2,0,0,9.81-9,41-47a299.49,299.49,0,0,1,47.34,3.13c31.32,4.59,53.56,12.95,85.21,25.07,33.8,12.94,50.7,19.41,60,28.2a62.69,62.69,0,0,1,8.6,9.9c17.78,25.78,21.45,53.19,23,65.3,9.24,73.84,50.56,100.71,32.19,130.91-2.53,4.16-9.35,8.9-23,18.39-18.14,12.62-47.87,30.78-96.52,50.55C698,832.86,693,832.83,687.29,840.85a28.25,28.25,0,0,0-4.25,8.36c-4.72,15.71,1.1,63.71,1.1,63.71,3.41,26.45-2.7,22.65-.82,70.86.75,19.27,2.27,33.75,3.2,42.53,4.92,46.11,11.32,62.2,10.24,96.53-.37,11.63-1.53,23.41-1.53,23.41-2.6,23.84-7.6,37.29-11.09,86.25-2.17,30.39-.61,30.28-3.16,37.6-14.52,41.68-69.58,58.17-107.3,68.93-84.95,24.25-156.71,14.89-195.68,9.4-58.62-8.25-90.39-22.35-138.86-43.86-30.3-13.45-43.8-22.33-50.5-37.6-11-25.07,8.81-39,12.63-90.86,2.89-39.37-7.58-44-3.16-87.73,2.53-25,6.1-25,12.63-59.54,9.63-50.95,9.6-91.89,9.46-115.92-.37-64.93,2-75.75-6.31-87.73-5.48-7.93-9.61-9.9-50.49-34.47C103.3,754.6,97.47,750,94,740.59c-2-5.26-3-11.36,18.94-75.2,10.43-30.41,18.41-51.63,28.4-75.2,18.5-43.64,24.63-49.85,28.41-53.26,9-8.09,14.5-9.19,56.81-28.2,39.76-17.88,34.48-16.73,41-18.8C275.3,487.48,333.17,469.19,365.38,496.2Z"/><path class="cls-3" d="M707.73,1154.39q-.69,15.48-1.69,30.91l-14.5,56.07-27.33,42.8a1.73,1.73,0,0,0-.2.41l-12.7,35.89a2.11,2.11,0,0,0-.1.93,261.52,261.52,0,0,1-4.19,90.83,2,2,0,0,0,.54,1.86,2,2,0,0,0,1.41.58,1.74,1.74,0,0,0,.45-.06l.34-.08-16.55,8.94a2,2,0,0,0-.79.77c-.5.89-4.76,8.88-.77,17.54a20,20,0,0,0,12.57,10.51,2.24,2.24,0,0,0,.52.06,2,2,0,0,0,.68-.12l93.09-34.1a1.92,1.92,0,0,0,.76-.49l19-19.74a2,2,0,0,0,.48-.82l14.81-50.25a2.26,2.26,0,0,0,.08-.51l2.11-75.24,4.67-29,0-.18,3.52-50c-1.42-1.16-2.7-2.22-4.24-2.22C752.08,1183.22,731.21,1165.7,707.73,1154.39Zm-28.87,244.44-12.92,7a37.23,37.23,0,0,0,9-13.36l.06-.17,8.7-29.45Z"/><path class="cls-4" d="M779.48,1242l-4.68,29-2.12,75.37a1.17,1.17,0,0,1,0,.26l-14.81,50.25a1.14,1.14,0,0,1-.24.41l-19,19.74a1,1,0,0,1-.38.24l-93.09,34.1a1,1,0,0,1-.6,0,18.93,18.93,0,0,1-11.92-10c-3.79-8.21.25-15.79.73-16.62a1,1,0,0,1,.39-.39L657,1411.78l-7.78,1.86a1,1,0,0,1-.93-.27,1,1,0,0,1-.27-.92,262.67,262.67,0,0,0,4.22-91.18,1,1,0,0,1,0-.46l12.7-35.89a1,1,0,0,1,.1-.21l27.33-42.8.09-.13L707,1185.55l0-.19q1-15.21,1.67-30.5l-2-.94q-.71,15.64-1.7,31.22L690.61,1241l-27.25,42.66a3.54,3.54,0,0,0-.3.62l-12.69,35.89a3,3,0,0,0-.15,1.39A260.46,260.46,0,0,1,646,1412a3,3,0,0,0,.81,2.79l.12.1-14.24,7.69a2.93,2.93,0,0,0-1.18,1.16c-.53.93-5,9.33-.81,18.44A21,21,0,0,0,644,1453.25a2.84,2.84,0,0,0,.76.1,3.08,3.08,0,0,0,1-.18l93.09-34.1a3.1,3.1,0,0,0,1.13-.73l19-19.74a3,3,0,0,0,.71-1.24l14.82-50.25a3.26,3.26,0,0,0,.12-.76l2.11-75.18,4.66-28.9a1.24,1.24,0,0,0,0-.27l3.48-49.33c-.67-.52-1.28-1.05-1.89-1.52Z"/><path class="cls-4" d="M674.05,1392l0,.08a36.35,36.35,0,0,1-8.76,13l-5.58,5.24,20.1-10.85,4.92-36.5-2-.42Zm3.88,6.2-7.36,4a38.59,38.59,0,0,0,5.31-9.36l.09-.25,5-17Z"/><path class="cls-3" d="M282,1414c-.9-4.92-5.46-7.92-8-9.23l-15.8-8.93.34.08a1.81,1.81,0,0,0,.4,0,1.9,1.9,0,0,0,1.36-.59,2.09,2.09,0,0,0,.5-1.84,273,273,0,0,1-4-90.83,2.09,2.09,0,0,0-.1-.93l-12.13-35.89a2.17,2.17,0,0,0-.19-.41l-26.12-42.79L203.9,1160.8c-2.26-33.4-3.25-67.11-3-100.69-12.85-.28-25.09-.59-37.33,6.1-7.31,3-13.58-5-18.8-8-12.58-7.22-25.87-15.14-37.45-24.54l6,48.3s16.19,88,16.19,88c1.63,17.56,2.14,32.78,1.51,45.25l0,.4a79.09,79.09,0,0,0,1.71,22.59,76,76,0,0,0,4.88,14.51l2,75a2.26,2.26,0,0,0,.08.51l14.16,50.25a2,2,0,0,0,.46.82l18.2,19.74a1.85,1.85,0,0,0,.72.49l89,34.1a1.92,1.92,0,0,0,.66.12,1.75,1.75,0,0,0,.4,0C276.53,1430.68,283.29,1421.15,282,1414Zm-51.67-33.87-4.41-34.24,7.76,28.48a2.25,2.25,0,0,0,.08.24,36.85,36.85,0,0,0,7.68,11.79Z"/><path class="cls-4" d="M282,1413.84c-1-5.35-5.78-8.53-8.52-9.93l-13.63-7.69.17-.17a3,3,0,0,0,.75-2.72,272.13,272.13,0,0,1-4-90.51,3,3,0,0,0-.14-1.35l-12.13-35.89a3,3,0,0,0-.29-.6l-26-42.66-14.25-61.66c-2.26-33.35-3.24-67-3-100.53l-2.09-.05c-.28,33.61.71,67.35,3,100.78l14.33,62.05,0,.15,26.2,42.93a.68.68,0,0,1,.1.21l12.14,35.89a1.2,1.2,0,0,1,0,.5,273.89,273.89,0,0,0,4,91.15,1.09,1.09,0,0,1-.25,1,.76.76,0,0,1-.75.24l-7.17-1.66,21.91,12.37c2.44,1.25,6.66,4,7.49,8.52,1.22,6.69-5.26,15.65-17.86,18.46a.79.79,0,0,1-.43,0l-89-34.1a.74.74,0,0,1-.33-.22l-18.2-19.74a1.1,1.1,0,0,1-.24-.42l-14.16-50.25a2.36,2.36,0,0,1,0-.28l-2-75.14-.08-.18a74.83,74.83,0,0,1-4.83-14.33,78.37,78.37,0,0,1-1.68-22.32l0-.4c.63-12.52.12-27.79-1.53-45.47l-16.17-87.91-5.92-47.23c-.79-.63-1.57-1.26-2.34-1.9l6.18,49.37s0,.07,16.18,87.93c1.63,17.51,2.14,32.69,1.51,45.11l0,.4a80.41,80.41,0,0,0,1.73,22.85,76.74,76.74,0,0,0,4.87,14.52l2,74.76a3.09,3.09,0,0,0,.12.74l14.16,50.25a3,3,0,0,0,.68,1.22l18.2,19.74a3,3,0,0,0,1.12.76l89,34.1a2.91,2.91,0,0,0,1,.19,2.7,2.7,0,0,0,.63-.07C276.32,1431.52,283.36,1421.43,282,1413.84Z"/><path class="cls-4" d="M228.3,1380.75l17.8,10-4.95-5.07a35.85,35.85,0,0,1-7.47-11.46s0-.09-.05-.13l-7.75-28.48-2,.37,4.41,34.24Zm3.31-6.11c0,.11.07.23.12.34a38.17,38.17,0,0,0,4.3,7.8l-5.78-3.26-2.42-18.76Z"/><path class="cls-6" d="M416.38,472.66c-3.93,7.18,12.32,40,36.69,56.47,37,25,75.89,1,78.66-.77,22.85-14.65,34.14-38,46.17-63,16.36-33.9,28.6-77.35,22.58-82.61-3.27-2.86-10,7.25-42.1,43-34.39,38.32-41.2,42.93-46.33,45.91a91.22,91.22,0,0,1-55.17,11.9C431.87,480.59,419.37,467.19,416.38,472.66Z"/><path class="cls-7" d="M393.49,550.36c4.68-2.67,11,8.42,30.64,18.39,17.31,8.78,33.91,11.09,41.63,12.1,21.2,2.77,34.27-.52,35.24,3.06.86,3.16-8.37,9.1-16.85,12.26-5.26,2-16.25,5.27-53.62-3.06-24.25-5.41-28.65-8.13-32.18-12.26C389.4,570.35,388.36,553.3,393.49,550.36Z"/></g><g id="Layer_8" data-name="Layer 8"><path class="cls-2" d="M617.44,213.17c0,119.32-68.25,285-152.44,285s-152.44-165.63-152.44-285,68.25-160,152.44-160S617.44,93.84,617.44,213.17Z"/><path class="cls-1" d="M569.33,69.14c.63-1.71,1.8-5.15.28-7.9-1.08-2-5.15-2.32-17.26-9.12-14.17-8-13.44-7.28-35.43-15.1-33.55-11.93-52.75-15.1-78-13.84-12.94.64-40.58,2.35-68.15,19.91-10,6.38-16.9,13.45-30.64,27.58-25.93,26.65-41,42.14-50.56,67.41-8.06,21.3,0,21.66-9.2,52.09-6.07,20.14-12.22,36.42-16.85,50.56-8.07,24.66-13.16,40.2-13.79,61.28-.16,5.61.13,6.62,0,29.11-.09,16.48-.28,21.39,0,30.64.42,13.57,1.17,14,1.85,27.56,1.85,36.5-2.22,59.55-3.43,64.24-.16.63-1,3.86-1.81,8.35-.33,1.84-.64,3.93-.9,6.25-1,8.57-.06,12.41-3.45,25.89-5.7,22.65-11.09,23.14-15.34,43.9-3,14.63-.35,14.5-3,36.77-3.73,30.9-9.05,32.88-7.13,46.45,2.66,18.9,16.59,40.59,32.91,42.41,15.14,1.69,18-15,39.42-24.51,36.1-16,62.32,18.74,95.65,2.52,22.78-11.08,30.59-37.06,31.72-40.82a60.18,60.18,0,0,0,1.81-9c.69-6.12-10.32-24.82-13.52-38.46-3-12.68,2.83-12.34,2.29-42.59-.25-14.64-1.7-19.82-2.29-21.75-3.65-12.11-9.34-15.82-16.85-27.58-8-12.46-5.8-14.9-15.32-36.77-9.93-22.8-13.55-23.08-19.92-38.3-5.36-12.81-6-20.36-10.5-55.16-8.46-66-9.09-61.78-9.1-72,0-20.69,0-42.7,8.75-70,4-12.42,12.13-31,27.52-51.87,9.5-12.87,20.52-18.67,27-23.33,12-8.67,35.5-9.32,56.22-13.72,13.86-3,25.54-2.5,40.81,0,1.19.19,1.46.26,2.17.38,22.75,3.94,42.55-3.82,42.55-3.82C556.06,89.54,566.51,76.72,569.33,69.14Z"/><path class="cls-8" d="M298.19,189.78c2.91,1,9.42-11.32,24.13-30.88a385.72,385.72,0,0,1,34.23-39.8c14.71-14.81,23.52-23.68,38.91-32.25,10-5.55,23.73-13,43.58-15.1,6.53-.68,26.63-2.77,46.69,5.49,5.69,2.34,13.9,6.56,28.79,11.67,13.64,4.68,15.81,4.25,17.12,3.43,6.44-4,2.31-32.51-14-44.61-2.67-2-9.91-3.91-24.29-7.7-18-4.73-27.07-7.09-32.51-6.71-12.34.87-15.66,4.42-30,7.34-11.12,2.27-13.14,2-21.36,5.7C394.42,53.12,385.61,61,369.78,75.18c-13.44,12-21.54,21.71-32.68,35C308.8,144,303,159.57,300.53,167.82,298,176.28,295.39,188.84,298.19,189.78Z"/><ellipse class="cls-9" cx="394.11" cy="262.24" rx="11.64" ry="13.55"/><path class="cls-9" d="M396.17,249c17.41,0,32.45,7,39.61,17.13a24.34,24.34,0,0,0,1.18-2.67c-6.58-11.11-22.36-18.93-40.79-18.93-20.58,0-37.86,9.75-42.71,22.94.37.62.76,1.22,1.18,1.81C360.71,257.46,377,249,396.17,249Z"/><ellipse class="cls-9" cx="530.05" cy="259.12" rx="11.64" ry="13.55"/><path class="cls-9" d="M528.93,246.57c17.41,0,32.45,7,39.61,17.13a24.34,24.34,0,0,0,1.18-2.67c-6.58-11.11-22.36-18.94-40.79-18.94-20.58,0-37.86,9.76-42.71,23,.37.62.76,1.22,1.18,1.81C493.47,255,509.77,246.57,528.93,246.57Z"/><line class="cls-10" x1="348.98" y1="245.33" x2="356.27" y2="264.67"/><line class="cls-10" x1="354.08" y1="239.62" x2="361.38" y2="258.95"/><line class="cls-10" x1="573.69" y1="241.51" x2="566.39" y2="260.84"/><line class="cls-10" x1="568.69" y1="236.98" x2="561.39" y2="256.32"/><line class="cls-10" x1="360.73" y1="235.69" x2="367.11" y2="255.5"/><line class="cls-10" x1="367.48" y1="232.26" x2="372.33" y2="252.69"/><line class="cls-10" x1="562.57" y1="232.78" x2="556.19" y2="252.58"/><line class="cls-10" x1="555.82" y1="229.35" x2="550.98" y2="249.78"/><path class="cls-10" d="M461.17,297.42c-4.06,10.16-8.79,22.53-13.79,36.77-5.78,16.46-7.08,21.6-4.6,26,6.3,11.26,31.08,7.69,34.51,7.16"/><path class="cls-10" d="M433.87,425.7a196.4,196.4,0,0,0,65.33-1.29"/><path class="cls-10" d="M448.89,445.12A52.57,52.57,0,0,0,468,447.07a55,55,0,0,0,14.39-3.24"/><path class="cls-10" d="M465.71,411c-8.43-7.79-14.47-8.44-18.52-7.47-5.57,1.34-7.77,5.57-14.16,9.5-3.7,2.28-6.74,3.71-10.91,4.25a24.18,24.18,0,0,1-12.57-1.9"/><path class="cls-10" d="M463.89,411c8.43-7.79,14.48-8.44,18.52-7.47,5.58,1.34,7.77,5.57,14.16,9.5,3.71,2.28,6.74,3.71,10.92,4.25a24.16,24.16,0,0,0,12.56-1.9"/><path class="cls-1" d="M533.82,108.71c.78,14.57,8,17.51,28.47,52.35,14.33,24.43,21.56,37,24.51,53.63s-1.09,18.6.92,41.56c2.69,30.79,10.41,32.42,11.33,51.89,1.68,35.44-33.67,46.76-29,79.87,1.19,8.45,3.48,9.08,4.51,19.72.61,6.25,1.35,21.82-9.19,47.49-12.62,30.73-23.88,33.25-26.05,53.62-1.29,12.18,2.53,13.25,4.6,30.64,5.78,48.53-19.85,74.69-4.6,93.46,5.77,7.09,15.29,10.56,19.92,12.26,2.27.82,12.12,4.26,29.11,3.06a109.85,109.85,0,0,0,29.11-6.13C659.2,627.8,693,652.21,707.83,636c7.47-8.14-.64-14.76-3.06-65.88-2.14-45.09,3.15-61.6,6.64-70.32,5.48-13.68,8.6-13.21,12.75-26.7,1.9-6.21,9.08-29.55,2.06-56.18-3.88-14.71-10-22.61-13-44-.78-5.55-1.39-8.34-1.07-12.41.93-11.81,7.62-18.28,6.12-36.31-1.8-21.71-12.31-22.26-23.58-55.59-8.32-24.61-2.5-24.06-10.95-50.78-5.21-16.48-6.63-14.18-26.11-58.33-7.69-17.43-10.83-25.41-15.27-33.55,0,0-2.41-4.28-4.94-8.31-8.72-13.88-49.69-66-79.72-54.62C542.1,68.9,532.87,91,533.82,108.71Z"/><path class="cls-8" d="M696.46,327.15c1.28,3.72,3.82,11.65,6.22,27.45,3.65,24,.82,25.64,4.67,36.37,5.44,15.18,11.66,13.49,16.34,26.77,2.21,6.26,2.94,12.62-3.11,45.29-5,27-7.56,40.46-10.89,40.49-3.66,0-3.41-13.39-13.23-38.43-7-17.94-11.37-21.78-17.12-39.8a147.49,147.49,0,0,1-6.23-26.08c-2.5-18.5,1-24.14,4.67-61.08,2.4-24.26,2.15-34.59,5.45-35C688,302.55,695,322.92,696.46,327.15Z"/><path class="cls-1" d="M480.75,226.19c1.72,5,11.69,4.84,12.91,4.83,4-.05,4.79-1,13.69-3.31,1-.26,1.17-.29,14.67-3.21l13.14-2.84c11.74-2.27,17.63-3.6,25-2.74a68.7,68.7,0,0,1,15,3.5c5.69,2,10.24,3.62,14.62,7.55,7,6.23,8.38,13.7,9.63,13.24,1.1-.41.86-6.49-1.87-11.47-1.12-2-2.68-3.59-5.8-6.71a68,68,0,0,0-7.75-6.9,60.49,60.49,0,0,0-11.24-6.72,38.51,38.51,0,0,0-11-3.62c-6.39-.88-10.93-.1-15.89.53-2.48.31-9,.69-21.93,1.49-5.48.34-13.13.75-23.45,1.85-7.88.85-12.23,1.56-15.85,5.16C484.23,217.21,479.37,222.16,480.75,226.19Z"/><path class="cls-1" d="M439.82,227.7c-1.69,5-11.66,4.89-12.89,4.88-4,0-4.79-1-13.7-3.24-1-.26-1.17-.28-14.68-3.14l-13.16-2.78c-11.75-2.22-17.65-3.51-25-2.62a68.55,68.55,0,0,0-15,3.57c-5.68,2-10.22,3.67-14.59,7.62-6.93,6.27-8.31,13.74-9.57,13.28-1.1-.4-.89-6.48,1.82-11.47,1.11-2,2.66-3.61,5.76-6.74a69.17,69.17,0,0,1,7.73-6.94,59.84,59.84,0,0,1,11.21-6.77,38.27,38.27,0,0,1,11-3.67c6.39-.91,10.94-.15,15.9.45,2.47.3,9,.65,21.94,1.39,5.48.31,13.13.68,23.46,1.74,7.88.81,12.23,1.5,15.86,5.08C436.3,218.73,441.19,223.66,439.82,227.7Z"/><path class="cls-11" d="M533.18,101.31c-.27,3.48-21.08,1.83-53.63,7.66-32.29,5.78-51.13,9.59-70.47,23-14.95,10.36-14.52,16-44.43,39.84-21.15,16.82-23.82,15.93-24.51,15.32s-1.44-3.36,19.91-38.3c17.5-28.64,21.68-33.06,26.05-36.77,10.74-9.13,20.95-12.57,33.7-16.86,31.3-10.52,58.29-6.86,75.07-4.59C510.94,92.76,533.45,97.67,533.18,101.31Z"/><path class="cls-7" d="M222.63,715.67c2.5.48.61,14.29,0,41.37-.94,41.68,2.16,69.29-3.53,70.47-3.53.74-5.45-9.77-18.38-16.85-7.92-4.33-11.26-2.78-13.79-6.13-5-6.59,5.79-20.27,15.79-39.83C217.71,735.37,219.57,715.08,222.63,715.67Z"/><path class="cls-7" d="M657.27,715.67c3.6-.86,11.55,15.9,15.32,30.64,3,11.59,2.53,18.68,3.07,30.64a190.88,190.88,0,0,0,2.08,21.77c3.49,21.78,5.74,25,5.58,36.45s-3.16,10.53-6.13,27.58c-1.43,8.2-1.61,13.47-1.53,50.56.06,28,.16,27.28,0,29.11C673.44,966.73,664,993.64,658.81,993c-9.25-1.19-5.39-90.15-3.07-111.85.13-1.24,1.2-11,2.59-24.56,1.09-10.67,1.68-16.91,2-19.87C667.53,771.49,650.92,717.2,657.27,715.67Z"/></g></svg>