<svg id="Layer_1" data-name="Layer 1" xmlns="http://www.w3.org/2000/svg" viewBox="0 0 780 752"><defs><style>.cls-1,.cls-11{fill:#31221b;}.cls-2,.cls-3{fill:#c3996b;}.cls-2{stroke:#8a5d3b;}.cls-10,.cls-2,.cls-5,.cls-7,.cls-9{stroke-miterlimit:10;}.cls-12,.cls-2,.cls-5,.cls-7{stroke-width:2px;}.cls-4{fill:#8a5d3b;}.cls-5{fill:#c2705b;}.cls-5,.cls-7{stroke:#945545;}.cls-6,.cls-9{fill:#231f20;}.cls-6{opacity:0.25;}.cls-7{fill:#945545;opacity:0.3;}.cls-8{fill:#56443b;}.cls-10,.cls-9{stroke:#231f20;}.cls-10{fill:none;stroke-width:3px;}.cls-11{opacity:0.2;}.cls-12{fill:#aeaeae;stroke:#000;}.cls-13,.cls-14{fill:#fff;}.cls-13{fill-rule:evenodd;}</style></defs><rect class="cls-1" x="197.33" y="351.88" width="370.76" height="148.61"/><path class="cls-2" d="M391.9,583.22h0c-49.71,0-90.39-32.71-90.39-103.78V410.62c0-71.07,40.68-129.21,90.39-129.21h0c49.72,0,90.39,58.14,90.39,129.21v68.82C482.29,550.51,441.62,583.22,391.9,583.22Z"/><path class="cls-3" d="M86.67,1064c12.24-6.69,24.48-6.38,37.34-6.1q.19-23.31,1.21-46.5c1.13-25.55,3-51.42,5.65-76.87l6.45-32.28,0-.17a613.17,613.17,0,0,0,4.06-70.23,613.17,613.17,0,0,0-4.06-70.23,2,2,0,0,0-1.32-1.67L32.87,725.85a1.63,1.63,0,0,0-.57-.1,1.87,1.87,0,0,0-1.15.4,2,2,0,0,0-.77,1.65l2,87.84-4,61-4,105.88a1.9,1.9,0,0,0,0,.34l6.09,48.61c11.58,9.4,24.88,17.32,37.45,24.54C73.09,1059,79.36,1067,86.67,1064Z"/><path class="cls-4" d="M24.32,982.72a1.08,1.08,0,0,1,0-.18l4-105.85,4-61.07-2-87.84a1.06,1.06,0,0,1,.39-.85.74.74,0,0,1,.48-.18.67.67,0,0,1,.24,0l103.15,34.1a1,1,0,0,1,.62.83,611.13,611.13,0,0,1,4.06,70.12,611.75,611.75,0,0,1-4.07,70.21l-6.46,32.37c-2.63,25.49-4.53,51.37-5.65,76.93q-1,23.17-1.22,46.51l2.09.05q.19-23.31,1.21-46.48c1.13-25.52,3-51.36,5.64-76.72l6.44-32.28c0-.09,0-.17,0-.25a612.83,612.83,0,0,0,4.07-70.34,612.7,612.7,0,0,0-4.07-70.34,3,3,0,0,0-2-2.5L32.17,724.9a3,3,0,0,0-3.87,2.92l2,87.76-4.05,61-4,105.88a2.68,2.68,0,0,0,0,.49l5.95,47.53c.77.64,1.56,1.28,2.34,1.9Z"/><path class="cls-3" d="M732.71,895.26l-4.22-60.93,2.11-87.84a2,2,0,0,0-2-2,1.8,1.8,0,0,0-.6.1L620.1,778.63a2,2,0,0,0-1.38,1.67,582.39,582.39,0,0,0,0,140.46l0,.21,8.32,36c2,24.21,3.47,48.8,4.33,73.08,1.42,40.49,1.21,81.43-.6,122.11,23.49,11.31,44.36,28.83,72,35.29,1.54,0,2.82,1.06,4.24,2.22l.24-3.3s16.91-87.9,16.92-87.94l12.69-96.9a2,2,0,0,0,0-.34Z"/><path class="cls-4" d="M733.71,895.19l-4.22-60.83,2.11-87.84a3,3,0,0,0-1.2-2.47,3,3,0,0,0-2.7-.47l-107.9,34.1a3,3,0,0,0-2.08,2.5,584.46,584.46,0,0,0,0,140.71,2.65,2.65,0,0,0,.06.3l8.3,35.95c2,24.17,3.46,48.71,4.32,73,1.41,40.31,1.21,81.08-.58,121.6l2,.94c1.83-40.85,2.05-82,.61-122.61-.85-24.3-2.31-48.9-4.32-73.13l-8.34-36.16a.44.44,0,0,1,0-.1,581.77,581.77,0,0,1,0-140.22,1,1,0,0,1,.69-.83l107.9-34.1a1,1,0,0,1,.9.16,1,1,0,0,1,.4.82l-2.11,87.93,4.22,60.9L736,1001.24a1,1,0,0,1,0,.17l-12.69,96.85c-.08.46-16.75,87.06-16.92,87.93l-.19,2.74c.61.47,1.23,1,1.89,1.52l.28-3.94c16.91-87.85,16.91-87.89,16.92-87.94l12.69-96.9a3,3,0,0,0,0-.51Z"/><path class="cls-5" d="M288.45,494c15.29,12.81,8.83,22.44,28.41,40.73,17.09,16,35.94,21.64,47.34,25.06,15.77,4.75,39.87,12,66.27,3.14,16-5.38,25.81-14.31,41-28.2,0,0,9.81-9,41-47a299.42,299.42,0,0,1,47.34,3.13c31.33,4.59,53.57,13,85.21,25.07,33.8,12.94,50.7,19.41,60,28.2a62.25,62.25,0,0,1,8.6,9.9c17.79,25.78,21.45,53.19,23,65.29,9.24,73.85,50.57,100.72,32.19,130.92-2.53,4.16-9.35,8.9-23,18.39-18.14,12.62-47.87,30.78-96.52,50.55-28.22,11.48-33.18,11.45-38.93,19.47a28.2,28.2,0,0,0-4.24,8.36c-4.73,15.71,1.09,63.7,1.09,63.7,3.41,26.46-2.7,22.66-.82,70.87.75,19.27,2.27,33.75,3.21,42.53,4.91,46.11,11.32,62.2,10.23,96.53-.37,11.63-1.53,23.41-1.53,23.41-2.6,23.84-7.6,37.29-11.09,86.25-2.17,30.39-.61,30.28-3.16,37.6-14.51,41.68-69.58,58.17-107.3,68.93-84.95,24.25-156.71,14.89-195.67,9.4-58.62-8.25-90.39-22.35-138.87-43.86-30.29-13.45-43.8-22.33-50.49-37.6-11-25.07,8.81-39,12.62-90.86,2.89-39.37-7.58-44-3.16-87.73,2.53-25,6.1-25,12.63-59.54,9.63-50.95,9.6-91.89,9.47-115.93-.37-64.93,2-75.74-6.32-87.73-5.47-7.92-9.61-9.89-50.49-34.46C26.38,752.38,20.55,747.74,17,738.37c-2-5.26-3-11.36,18.93-75.2C46.4,632.76,54.39,611.54,64.38,588c18.5-43.64,24.62-49.85,28.4-53.26,9-8.09,14.51-9.19,56.81-28.2,39.76-17.88,34.48-16.73,41-18.8C198.38,485.26,256.24,467,288.45,494Z"/><path class="cls-6" d="M339.45,470.44c-3.93,7.18,12.32,40,36.7,56.46,37,25,75.89,1,78.66-.76,22.84-14.65,34.13-38,46.16-63,16.37-33.9,28.6-77.35,22.58-82.61-3.27-2.87-10,7.25-42.1,43-34.38,38.32-41.2,42.93-46.33,45.91A91.2,91.2,0,0,1,380,481.41C354.94,478.37,342.44,465,339.45,470.44Z"/><path class="cls-7" d="M316.56,548.14c4.68-2.67,11,8.42,30.65,18.39,17.3,8.78,33.91,11.09,41.63,12.1,21.19,2.77,34.27-.52,35.24,3.06.85,3.16-8.38,9.1-16.86,12.26-5.26,2-16.24,5.27-53.62-3.06-24.24-5.41-28.65-8.13-32.17-12.26C312.47,568.13,311.43,551.08,316.56,548.14Z"/><path class="cls-2" d="M540.51,211c0,119.32-68.25,285-152.44,285S235.63,330.27,235.63,211s68.25-160,152.44-160S540.51,91.62,540.51,211Z"/><path class="cls-1" d="M492.4,66.92c.63-1.71,1.81-5.15.29-7.9-1.09-2-5.16-2.32-17.27-9.12-14.17-8-13.44-7.28-35.42-15.1C406.44,22.87,387.25,19.7,362,21c-12.94.64-40.58,2.35-68.15,19.91-10,6.38-16.89,13.45-30.64,27.58-25.93,26.65-41,42.14-50.56,67.41-8.06,21.3,0,21.66-9.19,52.09-6.08,20.14-12.23,36.42-16.86,50.56-8.07,24.66-13.15,40.19-13.78,61.28-.17,5.61.13,6.62,0,29.11-.1,16.48-.29,21.38,0,30.64.41,13.57,1.16,14,1.85,27.56,1.85,36.5-2.23,59.55-3.44,64.24-.16.63-1,3.86-1.81,8.35-.32,1.84-.64,3.93-.9,6.25-1,8.56-.06,12.41-3.45,25.89-5.7,22.65-11.09,23.14-15.34,43.9-3,14.63-.34,14.5-3,36.77-3.74,30.9-9,32.88-7.14,46.45,2.66,18.9,16.59,40.59,32.91,42.41,15.14,1.69,18-15,39.42-24.51,36.11-16,62.32,18.74,95.65,2.52,22.78-11.08,30.59-37.07,31.72-40.82a60.93,60.93,0,0,0,1.82-9c.69-6.12-10.33-24.82-13.52-38.46-3-12.68,2.82-12.34,2.29-42.59-.26-14.64-1.71-19.82-2.29-21.76-3.66-12.1-9.34-15.81-16.86-27.57-8-12.46-5.8-14.9-15.32-36.77-9.92-22.81-13.54-23.08-19.92-38.3-5.36-12.81-6-20.36-10.5-55.16-8.46-66-9.09-61.78-9.09-72,0-20.68,0-42.69,8.74-70,4-12.43,12.13-31,27.53-51.87,9.49-12.87,20.51-18.67,26.95-23.33,12-8.67,35.5-9.32,56.22-13.72,13.86-3,25.55-2.5,40.81,0,1.19.19,1.46.26,2.17.38,22.76,3.94,42.55-3.82,42.55-3.82C479.14,87.32,489.58,74.5,492.4,66.92Z"/><path class="cls-8" d="M221.27,187.56c2.91,1,9.41-11.32,24.12-30.88a385.41,385.41,0,0,1,34.24-39.8c14.7-14.81,23.51-23.68,38.9-32.25,10-5.55,23.74-13,43.58-15.1,6.53-.68,26.63-2.77,46.69,5.49,5.69,2.34,13.9,6.56,28.79,11.66,13.64,4.69,15.81,4.25,17.12,3.44,6.45-4,2.31-32.51-14-44.61-2.67-2-9.91-3.92-24.28-7.7-18-4.74-27.07-7.09-32.52-6.71-12.34.87-15.66,4.42-30,7.34-11.12,2.27-13.14,2-21.37,5.7C317.49,50.9,308.69,58.78,292.86,73c-13.45,12-21.55,21.71-32.69,35-28.3,33.77-34.09,49.39-36.57,57.64C221.06,174.06,218.46,186.62,221.27,187.56Z"/><ellipse class="cls-9" cx="317.19" cy="260.02" rx="11.64" ry="13.55"/><path class="cls-9" d="M319.24,246.78c17.41,0,32.46,7,39.61,17.13a22.58,22.58,0,0,0,1.18-2.67c-6.58-11.11-22.36-18.93-40.79-18.93-20.57,0-37.85,9.75-42.7,22.94.36.62.75,1.22,1.17,1.81C283.78,255.24,300.08,246.78,319.24,246.78Z"/><ellipse class="cls-9" cx="453.12" cy="256.89" rx="11.64" ry="13.55"/><path class="cls-9" d="M452,244.35c17.41,0,32.46,7,39.61,17.13a22.58,22.58,0,0,0,1.18-2.67c-6.58-11.11-22.36-18.94-40.79-18.94-20.57,0-37.85,9.76-42.7,22.95.36.62.76,1.22,1.17,1.81C416.54,252.81,432.84,244.35,452,244.35Z"/><line class="cls-10" x1="272.05" y1="243.11" x2="279.35" y2="262.45"/><line class="cls-10" x1="277.16" y1="237.4" x2="284.46" y2="256.73"/><line class="cls-10" x1="496.76" y1="239.29" x2="489.46" y2="258.62"/><line class="cls-10" x1="491.76" y1="234.76" x2="484.46" y2="254.1"/><line class="cls-10" x1="283.8" y1="233.47" x2="290.18" y2="253.27"/><line class="cls-10" x1="290.55" y1="230.04" x2="295.4" y2="250.47"/><line class="cls-10" x1="485.65" y1="230.56" x2="479.27" y2="250.36"/><line class="cls-10" x1="478.9" y1="227.13" x2="474.05" y2="247.56"/><path class="cls-10" d="M384.24,295.2c-4.05,10.16-8.79,22.53-13.79,36.77-5.78,16.46-7.07,21.6-4.59,26,6.29,11.26,31.08,7.69,34.5,7.16"/><path class="cls-10" d="M356.94,423.48a196.37,196.37,0,0,0,65.33-1.29"/><path class="cls-10" d="M372,442.9a52.57,52.57,0,0,0,19.08,2,54.56,54.56,0,0,0,14.39-3.25"/><path class="cls-10" d="M388.79,408.77c-8.43-7.79-14.48-8.44-18.52-7.47-5.58,1.34-7.77,5.57-14.17,9.5-3.7,2.28-6.74,3.71-10.91,4.25a24.2,24.2,0,0,1-12.57-1.9"/><path class="cls-10" d="M387,408.77c8.43-7.79,14.48-8.44,18.52-7.47,5.58,1.34,7.77,5.57,14.17,9.5,3.7,2.28,6.74,3.71,10.91,4.25a24.2,24.2,0,0,0,12.57-1.9"/><path class="cls-1" d="M456.89,106.49c.79,14.57,8,17.5,28.47,52.35,14.34,24.43,21.56,37,24.51,53.62s-1.09,18.61.92,41.57c2.7,30.79,10.41,32.42,11.34,51.89,1.68,35.44-33.68,46.76-29,79.86,1.19,8.46,3.47,9.09,4.5,19.72.61,6.26,1.35,21.83-9.19,47.5-12.62,30.73-23.88,33.25-26,53.62-1.3,12.18,2.52,13.25,4.59,30.64,5.78,48.53-19.84,74.69-4.59,93.46,5.76,7.09,15.28,10.56,19.91,12.26,2.27.82,12.12,4.26,29.11,3.06a109.74,109.74,0,0,0,29.11-6.13C582.28,625.57,616,650,630.9,633.78c7.48-8.14-.64-14.76-3.06-65.88-2.14-45.09,3.15-61.6,6.64-70.32,5.48-13.68,8.6-13.21,12.75-26.7,1.91-6.21,9.08-29.55,2.06-56.18-3.88-14.71-10-22.61-13-44-.77-5.55-1.39-8.34-1.07-12.41.93-11.81,7.62-18.28,6.12-36.31-1.8-21.71-12.31-22.26-23.58-55.59-8.32-24.61-2.5-24.06-11-50.78-5.2-16.48-6.62-14.19-26.1-58.33-7.7-17.43-10.84-25.41-15.28-33.55,0,0-2.41-4.28-4.94-8.31-8.71-13.88-49.68-66-79.72-54.62C465.17,66.68,455.94,88.81,456.89,106.49Z"/><path class="cls-8" d="M619.53,324.93c1.29,3.72,3.82,11.65,6.23,27.45,3.65,24,.82,25.64,4.67,36.37,5.44,15.18,11.65,13.49,16.34,26.77,2.21,6.26,2.93,12.62-3.12,45.29-5,27-7.56,40.46-10.89,40.48-3.66,0-3.41-13.38-13.23-38.42-7-17.94-11.37-21.78-17.12-39.81A146.37,146.37,0,0,1,596.19,397c-2.51-18.5,1-24.14,4.67-61.08,2.4-24.26,2.14-34.59,5.44-35C611,300.33,618.07,320.7,619.53,324.93Z"/><path class="cls-1" d="M403.83,224c1.71,5,11.68,4.84,12.9,4.83,4-.06,4.79-1,13.69-3.31,1-.26,1.17-.29,14.67-3.21,13.17-2.85,13-2.82,13.14-2.84,11.75-2.27,17.64-3.6,25-2.74a69.18,69.18,0,0,1,15,3.49c5.69,2,10.24,3.63,14.63,7.56,7,6.23,8.37,13.7,9.62,13.24s.86-6.49-1.87-11.47c-1.12-2-2.68-3.59-5.79-6.71a69.07,69.07,0,0,0-7.76-6.9,60.16,60.16,0,0,0-11.24-6.72,38.43,38.43,0,0,0-11-3.62c-6.4-.88-10.94-.1-15.9.53-2.47.31-9,.69-21.93,1.49-5.48.33-13.12.75-23.45,1.85-7.88.85-12.23,1.56-15.84,5.15C407.3,215,402.44,219.94,403.83,224Z"/><path class="cls-1" d="M362.89,225.47c-1.69,5-11.66,4.9-12.88,4.89-4,0-4.8-1-13.71-3.24-1-.26-1.17-.29-14.68-3.14l-13.16-2.78c-11.75-2.22-17.65-3.51-25-2.62a68.68,68.68,0,0,0-15,3.57c-5.68,2-10.22,3.67-14.59,7.62-6.93,6.27-8.31,13.74-9.56,13.28s-.89-6.48,1.82-11.47c1.1-2,2.65-3.61,5.76-6.74a69,69,0,0,1,7.72-6.94,60.17,60.17,0,0,1,11.21-6.77,38.38,38.38,0,0,1,11-3.67c6.4-.91,10.94-.15,15.9.45,2.48.3,9,.65,21.94,1.39,5.48.31,13.13.68,23.46,1.74,7.88.81,12.24,1.49,15.87,5.08C359.37,216.51,364.26,221.44,362.89,225.47Z"/><path class="cls-11" d="M456.25,99.09c-.26,3.48-21.07,1.83-53.62,7.66-32.3,5.78-51.14,9.59-70.48,23-14.95,10.36-14.51,16-44.43,39.84-21.15,16.82-23.81,15.93-24.51,15.32s-1.43-3.36,19.92-38.3c17.49-28.64,21.67-33.06,26-36.77,10.74-9.13,20.95-12.57,33.71-16.86,31.29-10.52,58.28-6.86,75.07-4.59C434,90.54,456.52,95.45,456.25,99.09Z"/><path class="cls-7" d="M145.71,713.45c2.49.48.61,14.29,0,41.37-.94,41.68,2.15,69.29-3.54,70.47-3.53.74-5.45-9.78-18.38-16.85-7.92-4.33-11.26-2.79-13.79-6.13-5-6.59,5.79-20.27,15.79-39.83C140.78,733.15,142.64,712.86,145.71,713.45Z"/><path class="cls-7" d="M580.35,713.45c3.59-.86,11.54,15.9,15.32,30.64,3,11.59,2.52,18.67,3.06,30.64a188.25,188.25,0,0,0,2.09,21.77c3.48,21.78,5.73,25,5.57,36.45s-3.16,10.53-6.13,27.58c-1.42,8.2-1.61,13.46-1.53,50.56.06,28,.17,27.28,0,29.11-2.21,24.31-11.67,51.22-16.85,50.55-9.24-1.18-5.39-90.14-3.07-111.84.14-1.24,1.21-11,2.59-24.56,1.1-10.67,1.68-16.91,2-19.87C590.6,769.27,574,715,580.35,713.45Z"/><path class="cls-12" d="M63.43,470H717.57c8,0,14.43,6.78,14.43,15.15v400.7c0,8.37-6.46,15.15-14.43,15.15H63.43c-8,0-14.43-6.78-14.43-15.15V485.15C49,476.78,55.46,470,63.43,470Z"/><path class="cls-13" d="M402.5,660.25c12.85,0,23.27-7.44,23.27-16.62a12.31,12.31,0,0,0-.77-4.26,31.91,31.91,0,0,0-8-1c-12.85,0-23.27,7.44-23.27,16.62a12,12,0,0,0,.77,4.25A31.46,31.46,0,0,0,402.5,660.25Z"/><rect class="cls-14" x="390.5" y="643.41" width="4.81" height="8.42"/><ellipse class="cls-14" cx="396.11" cy="684.66" rx="36.07" ry="34.51"/></svg>