<svg id="Layer_1" data-name="Layer 1" xmlns="http://www.w3.org/2000/svg" xmlns:xlink="http://www.w3.org/1999/xlink" viewBox="0 0 600 436"><defs><style>.cls-1{fill:none;}.cls-2{opacity:0.5;}.cls-3{clip-path:url(#clip-path);}.cls-4{fill:#8c1a22;}.cls-5{fill:#fff8dc;}</style><clipPath id="clip-path"><rect class="cls-1" x="8.36" y="10.78" width="580.19" height="414.45" transform="matrix(1, -0.01, 0.01, 1, -1.74, 2.41)"/></clipPath></defs><g class="cls-2"><g class="cls-3"><path class="cls-4" d="M21.9,84.73C32.08,68,46.74,57.52,55.64,51.29c19.41-13.58,39.75-21.4,55.33-26,15.34-3,32-5.79,49.81-8a745,745,0,0,1,89.5-5.82,643.61,643.61,0,0,1,131.55,8.3C401.21,23,419,27,435.2,31.23c11.16,2.47,29.09,7.66,45.49,19.2,23.71,16.67,30.48,38,37.92,62.63a167.83,167.83,0,0,1,7.17,45.86c.53,32.48,1.05,66.89-3.66,107.19-3.27,27.91-3.86,45.26-5,80-.52,15.52-1,37.81,12.82,42.42,2.82.95,8.14,1.78,11.33-.09,3.72-2.17,2.6-6.79,2.12-17.87-.25-6-.19-10.78-.1-13.6q23.24-.61,46.45-1.23a131.23,131.23,0,0,1-3.19,26.39,140.82,140.82,0,0,1-4.4,15.35,37.53,37.53,0,0,1-12.35,16.25,56,56,0,0,1-19.19,9.51l-43.07-.5a55.89,55.89,0,0,1-17.07-9.23c-14.41-11.78-14.7-27.3-15.07-40.69-1.92-68.69-6.15-82.23-16.56-85.76-2.5-.85-6.76-1.59-13.59.11q1.11,67.17,2.22,134.35l-134.86,2.78-.83-103.74L136,322.79l.83,102.9L12.18,427.54c1-35.2.16-63.53-.65-81.63,0,0-6.74-151.22-.68-226.2A76.6,76.6,0,0,1,21.9,84.73Z"/><path class="cls-5" d="M446.14,106l2.25,11.08,13.83,1.44L449.78,124,452,135l-9.94-7.73-12.45,5.41,6.3-10.19L426,114.78l13.84,1.44Z"/></g></g></svg>