<svg id="Layer_1" data-name="Layer 1" xmlns="http://www.w3.org/2000/svg" xmlns:xlink="http://www.w3.org/1999/xlink" viewBox="0 0 557.45 220.41"><defs><style>.cls-1{fill:#fff;}.cls-1,.cls-2{fill-rule:evenodd;}.cls-2{fill:#fef7dd;}.cls-3{mask:url(#mask);}.cls-4{fill:#ebe4b9;}</style><mask id="mask" x="16.77" y="24.92" width="519" height="180.35" maskUnits="userSpaceOnUse"><g id="path-1-inside-1"><path class="cls-1" d="M504.34,146.68c19.42-11.53,30.43-24.7,30.43-38.68,0-45.33-115.73-82.08-258.5-82.08S17.77,62.67,17.77,108s115.74,82.08,258.5,82.08c61.32,0,117.65-6.78,162-18.1a9.56,9.56,0,0,0,3,2.89l44.63,27.82c6.62,4.13,15.59-.32,16-7.91Z"/></g></mask></defs><path class="cls-2" d="M504.34,146.68c19.42-11.53,30.43-24.7,30.43-38.68,0-45.33-115.73-82.08-258.5-82.08S17.77,62.67,17.77,108s115.74,82.08,258.5,82.08c61.32,0,117.65-6.78,162-18.1a9.56,9.56,0,0,0,3,2.89l44.63,27.82c6.62,4.13,15.59-.32,16-7.91Z"/><g class="cls-3"><path class="cls-4" d="M504.34,146.68l-.51-.86-.46.27,0,.53ZM438.24,172l.83-.55-.39-.6L438,171Zm3,2.89.52-.85h0Zm44.63,27.82-.53.85h0Zm16-7.91,1,.05ZM533.77,108c0,13.42-10.59,26.33-29.94,37.82l1,1.72c19.49-11.57,30.92-25,30.92-39.54ZM276.27,26.92c71.31,0,135.83,9.17,182.49,24,23.33,7.41,42.14,16.21,55.1,25.94S533.77,97.13,533.77,108h2c0-11.79-7.52-22.85-20.71-32.75S482.81,56.45,459.36,49c-46.9-14.89-111.63-24.08-183.09-24.08ZM18.77,108c0-10.87,6.94-21.41,19.92-31.15s31.76-18.53,55.1-25.94c46.66-14.82,111.17-24,182.48-24v-2c-71.45,0-136.19,9.19-183.09,24.08C69.74,56.45,50.69,65.33,37.49,75.25S16.77,96.21,16.77,108Zm257.5,81.08c-71.31,0-135.82-9.18-182.48-24-23.34-7.41-42.15-16.21-55.1-25.94S18.77,118.87,18.77,108h-2c0,11.79,7.53,22.85,20.72,32.75S69.74,159.55,93.18,167c46.9,14.89,111.64,24.08,183.09,24.08ZM438,171c-44.22,11.3-100.47,18.07-161.72,18.07v2c61.39,0,117.8-6.78,162.22-18.13Zm3.77,3a8.79,8.79,0,0,1-2.69-2.59l-1.67,1.1a10.65,10.65,0,0,0,3.31,3.19Zm44.64,27.82L441.76,174l-1.05,1.7,44.63,27.82Zm14.46-7.11c-.35,6.78-8.44,10.87-14.46,7.11l-1.06,1.7c7.22,4.5,17.08-.3,17.51-8.71Zm2.48-48.11-2.48,48.11,2,.1,2.49-48.1Z"/></g></svg>