<svg id="Layer_1" data-name="Layer 1" xmlns="http://www.w3.org/2000/svg" xmlns:xlink="http://www.w3.org/1999/xlink" viewBox="0 0 557.45 220.41"><defs><style>.cls-1{fill:#fff;}.cls-1,.cls-2{fill-rule:evenodd;}.cls-2{fill:#fef7dd;}.cls-3{mask:url(#mask);}.cls-4{fill:#ebe4b9;}.cls-5{fill:#573b16;}</style><mask id="mask" x="16.77" y="24.92" width="519" height="180.35" maskUnits="userSpaceOnUse"><g id="path-1-inside-1"><path class="cls-1" d="M504.34,146.68c19.42-11.53,30.43-24.7,30.43-38.68,0-45.33-115.73-82.08-258.5-82.08S17.77,62.67,17.77,108s115.74,82.08,258.5,82.08c61.32,0,117.65-6.78,162-18.1a9.56,9.56,0,0,0,3,2.89l44.63,27.82c6.62,4.13,15.59-.32,16-7.91Z"/></g></mask></defs><path class="cls-2" d="M504.34,146.68c19.42-11.53,30.43-24.7,30.43-38.68,0-45.33-115.73-82.08-258.5-82.08S17.77,62.67,17.77,108s115.74,82.08,258.5,82.08c61.32,0,117.65-6.78,162-18.1a9.56,9.56,0,0,0,3,2.89l44.63,27.82c6.62,4.13,15.59-.32,16-7.91Z"/><g class="cls-3"><path class="cls-4" d="M504.34,146.68l-.51-.86-.46.27,0,.53ZM438.24,172l.83-.55-.39-.6L438,171Zm3,2.89.52-.85h0Zm44.63,27.82-.53.85h0Zm16-7.91,1,.05ZM533.77,108c0,13.42-10.59,26.33-29.94,37.82l1,1.72c19.49-11.57,30.92-25,30.92-39.54ZM276.27,26.92c71.31,0,135.83,9.17,182.49,24,23.33,7.41,42.14,16.21,55.1,25.94S533.77,97.13,533.77,108h2c0-11.79-7.52-22.85-20.71-32.75S482.81,56.45,459.36,49c-46.9-14.89-111.63-24.08-183.09-24.08ZM18.77,108c0-10.87,6.94-21.41,19.92-31.15s31.76-18.53,55.1-25.94c46.66-14.82,111.17-24,182.48-24v-2c-71.45,0-136.19,9.19-183.09,24.08C69.74,56.45,50.69,65.33,37.49,75.25S16.77,96.21,16.77,108Zm257.5,81.08c-71.31,0-135.82-9.18-182.48-24-23.34-7.41-42.15-16.21-55.1-25.94S18.77,118.87,18.77,108h-2c0,11.79,7.53,22.85,20.72,32.75S69.74,159.55,93.18,167c46.9,14.89,111.64,24.08,183.09,24.08ZM438,171c-44.22,11.3-100.47,18.07-161.72,18.07v2c61.39,0,117.8-6.78,162.22-18.13Zm3.77,3a8.79,8.79,0,0,1-2.69-2.59l-1.67,1.1a10.65,10.65,0,0,0,3.31,3.19Zm44.64,27.82L441.76,174l-1.05,1.7,44.63,27.82Zm14.46-7.11c-.35,6.78-8.44,10.87-14.46,7.11l-1.06,1.7c7.22,4.5,17.08-.3,17.51-8.71Zm2.48-48.11-2.48,48.11,2,.1,2.49-48.1Z"/></g><path class="cls-5" d="M94.47,112.54a9.45,9.45,0,0,1-3,6.28,9.85,9.85,0,0,1-6.7,2.19,9,9,0,0,1-7.28-3.25,13.15,13.15,0,0,1-2.72-8.7V106.6A14.76,14.76,0,0,1,76,100.32a9.6,9.6,0,0,1,3.62-4.14,10,10,0,0,1,5.42-1.46A9.24,9.24,0,0,1,91.61,97a9.49,9.49,0,0,1,2.86,6.3H91.08a7.23,7.23,0,0,0-1.92-4.43,5.7,5.7,0,0,0-4.09-1.38A6,6,0,0,0,80,99.89q-1.83,2.39-1.83,6.8v2.48a11.27,11.27,0,0,0,1.74,6.62,5.62,5.62,0,0,0,4.87,2.46A6.54,6.54,0,0,0,89.08,117a7.15,7.15,0,0,0,2-4.45Zm15.86,8.12a6.75,6.75,0,0,1-.46-2,7.25,7.25,0,0,1-5.41,2.35,6.76,6.76,0,0,1-4.63-1.58,5.18,5.18,0,0,1-1.79-4,5.37,5.37,0,0,1,2.25-4.61,10.65,10.65,0,0,1,6.36-1.65h3.17v-1.49a3.63,3.63,0,0,0-1-2.71,4.08,4.08,0,0,0-3-1,4.68,4.68,0,0,0-2.91.88,2.58,2.58,0,0,0-1.18,2.13H98.43a4.48,4.48,0,0,1,1-2.75,7,7,0,0,1,2.74-2.11,9.38,9.38,0,0,1,3.82-.77,7.51,7.51,0,0,1,5.15,1.65,5.92,5.92,0,0,1,1.93,4.52v8.76a10.6,10.6,0,0,0,.67,4.16v.28Zm-5.4-2.48a5.67,5.67,0,0,0,2.9-.79,4.73,4.73,0,0,0,2-2v-3.91h-2.55c-4,0-6,1.17-6,3.5a3,3,0,0,0,1,2.39A3.9,3.9,0,0,0,104.93,118.18Zm16.31-16.54.11,2.39a6.94,6.94,0,0,1,5.69-2.74q6,0,6.09,6.8v12.57h-3.25V108.08a4.38,4.38,0,0,0-.95-3,3.74,3.74,0,0,0-2.87-1,4.73,4.73,0,0,0-2.78.84,5.93,5.93,0,0,0-1.86,2.22v13.55h-3.25v-19Zm29.85,19h-3.37V95.07h3.37Zm19-23.62v4.6h3.55v2.52h-3.55V116a2.63,2.63,0,0,0,.48,1.72,2,2,0,0,0,1.61.57,7.92,7.92,0,0,0,1.55-.21v2.63a9.24,9.24,0,0,1-2.5.35A4.06,4.06,0,0,1,168,119.7a5.67,5.67,0,0,1-1.11-3.75V104.16H163.4v-2.52h3.46V97Zm15.26,24a8.29,8.29,0,0,1-6.29-2.53,9.44,9.44,0,0,1-2.43-6.8v-.6a11.48,11.48,0,0,1,1.07-5,8.45,8.45,0,0,1,3-3.48,7.53,7.53,0,0,1,4.21-1.27,7.15,7.15,0,0,1,5.77,2.44c1.37,1.63,2.06,4,2.06,7v1.35H179.9a6.81,6.81,0,0,0,1.64,4.56,5.19,5.19,0,0,0,4,1.72,5.64,5.64,0,0,0,2.92-.7,7.13,7.13,0,0,0,2.09-1.87l2,1.55A8,8,0,0,1,185.37,121ZM185,104a4.32,4.32,0,0,0-3.3,1.44,6.93,6.93,0,0,0-1.65,4h9.52v-.24a6.14,6.14,0,0,0-1.33-3.84A4.1,4.1,0,0,0,185,104Zm15.14,16.7h-3.25v-27h3.25Zm8.75,0H205.6v-27h3.25Zm20.38-4.76,4.43-14.26h3.48l-7.65,22q-1.77,4.74-5.64,4.74l-.62-.05-1.21-.23v-2.63l.88.07a4.29,4.29,0,0,0,2.56-.67,4.72,4.72,0,0,0,1.53-2.44l.72-1.94-6.78-18.81h3.55Zm9.68-4.92a11.4,11.4,0,0,1,1.09-5,8.31,8.31,0,0,1,3.06-3.45,8.45,8.45,0,0,1,4.48-1.21,8,8,0,0,1,6.28,2.69,10.35,10.35,0,0,1,2.41,7.16v.22a11.26,11.26,0,0,1-1.08,5,8,8,0,0,1-3,3.42,8.36,8.36,0,0,1-4.53,1.23,8,8,0,0,1-6.28-2.69,10.31,10.31,0,0,1-2.39-7.11Zm3.27.38a8.17,8.17,0,0,0,1.46,5.08,5,5,0,0,0,7.88,0A9,9,0,0,0,253,111a8,8,0,0,0-1.49-5.07,4.92,4.92,0,0,0-7.82,0A8.78,8.78,0,0,0,242.18,111.36Zm29.87,7.42a6.92,6.92,0,0,1-5.58,2.23,6,6,0,0,1-4.64-1.75,7.79,7.79,0,0,1-1.6-5.24V101.64h3.26v12.29q0,4.32,3.51,4.32,3.74,0,5-2.77V101.64h3.25v19h-3.09Zm28.12-3.16a2.36,2.36,0,0,0-1-2,9.37,9.37,0,0,0-3.46-1.27,16.57,16.57,0,0,1-3.92-1.26,5.69,5.69,0,0,1-2.15-1.76,4.3,4.3,0,0,1-.68-2.43,4.93,4.93,0,0,1,2-4,7.74,7.74,0,0,1,5.06-1.62,8,8,0,0,1,5.24,1.67,5.31,5.31,0,0,1,2,4.27H300a2.92,2.92,0,0,0-1.14-2.3,4.24,4.24,0,0,0-2.85-1,4.42,4.42,0,0,0-2.78.78,2.42,2.42,0,0,0-1,2,2,2,0,0,0,.93,1.77,11.54,11.54,0,0,0,3.36,1.15,16.88,16.88,0,0,1,3.95,1.3,5.65,5.65,0,0,1,2.24,1.83,4.38,4.38,0,0,1,.73,2.58,4.88,4.88,0,0,1-2,4.09,8.56,8.56,0,0,1-5.29,1.53,9.71,9.71,0,0,1-4-.8,6.71,6.71,0,0,1-2.76-2.25,5.52,5.52,0,0,1-1-3.15h3.25a3.39,3.39,0,0,0,1.3,2.6,5.17,5.17,0,0,0,3.23,1,5.3,5.3,0,0,0,3-.74A2.3,2.3,0,0,0,300.17,115.62ZM306.8,111a11.26,11.26,0,0,1,1.09-5A8.31,8.31,0,0,1,311,102.5a8.42,8.42,0,0,1,4.48-1.21A8,8,0,0,1,321.7,104a10.31,10.31,0,0,1,2.41,7.16v.22a11.26,11.26,0,0,1-1.07,5,8,8,0,0,1-3,3.42,8.37,8.37,0,0,1-4.54,1.23,8,8,0,0,1-6.27-2.69,10.31,10.31,0,0,1-2.39-7.11Zm3.27.38a8.11,8.11,0,0,0,1.46,5.08,5,5,0,0,0,7.87,0,9,9,0,0,0,1.46-5.45,8.1,8.1,0,0,0-1.49-5.07,4.93,4.93,0,0,0-7.83,0A8.85,8.85,0,0,0,310.07,111.36Zm21.18-9.72.09,2.11a7,7,0,0,1,5.64-2.46q4,0,5.43,3.06a7.18,7.18,0,0,1,2.46-2.21,7.27,7.27,0,0,1,3.61-.85q6.25,0,6.36,6.63v12.74h-3.25V108.11a4.34,4.34,0,0,0-.93-3,4.1,4.1,0,0,0-3.13-1,4.29,4.29,0,0,0-3,1.09,4.35,4.35,0,0,0-1.39,2.9v12.62h-3.27V108.2q0-4.15-4.06-4.15a4.34,4.34,0,0,0-4.37,2.73v13.88h-3.26v-19ZM367.65,121a8.32,8.32,0,0,1-6.29-2.53,9.43,9.43,0,0,1-2.42-6.8v-.6a11.34,11.34,0,0,1,1.07-5,8.36,8.36,0,0,1,3-3.48,7.57,7.57,0,0,1,4.22-1.27,7.17,7.17,0,0,1,5.77,2.44c1.37,1.63,2.05,4,2.05,7v1.35H362.19a6.81,6.81,0,0,0,1.63,4.56,5.21,5.21,0,0,0,4,1.72,5.66,5.66,0,0,0,2.92-.7,7.39,7.39,0,0,0,2.09-1.87l2,1.55A8,8,0,0,1,367.65,121Zm-.4-17.05a4.32,4.32,0,0,0-3.3,1.44,6.87,6.87,0,0,0-1.66,4h9.53v-.24a6.14,6.14,0,0,0-1.34-3.84A4.06,4.06,0,0,0,367.25,104Zm16-6.92v4.6h3.55v2.52h-3.55V116a2.63,2.63,0,0,0,.48,1.72,2,2,0,0,0,1.62.57,7.84,7.84,0,0,0,1.54-.21v2.63a9.17,9.17,0,0,1-2.49.35,4.07,4.07,0,0,1-3.29-1.31A5.67,5.67,0,0,1,380,116V104.16h-3.46v-2.52H380V97ZM393.88,104a6.92,6.92,0,0,1,5.63-2.66q6,0,6.08,6.8v12.57h-3.25V108.08a4.38,4.38,0,0,0-.95-3,3.74,3.74,0,0,0-2.87-1,4.73,4.73,0,0,0-2.78.84,5.93,5.93,0,0,0-1.86,2.22v13.55h-3.25v-27h3.25ZM414,120.66h-3.25v-19H414ZM410.47,96.6a2,2,0,0,1,.48-1.34,2.19,2.19,0,0,1,2.88,0,1.93,1.93,0,0,1,.49,1.34,1.86,1.86,0,0,1-.49,1.32,1.92,1.92,0,0,1-3.36-1.32Zm11.82,5,.1,2.39a7,7,0,0,1,5.7-2.74q6,0,6.08,6.8v12.57h-3.25V108.08a4.34,4.34,0,0,0-.95-3,3.74,3.74,0,0,0-2.87-1,4.68,4.68,0,0,0-2.77.84,5.86,5.86,0,0,0-1.87,2.22v13.55h-3.25v-19Zm16,9.35a11.13,11.13,0,0,1,2.06-7.06,7.08,7.08,0,0,1,10.88-.18l.16-2.11h3v18.57a7.71,7.71,0,0,1-2.2,5.81,8,8,0,0,1-5.87,2.13,9.77,9.77,0,0,1-4-.88,6.88,6.88,0,0,1-3-2.41l1.68-2a6.36,6.36,0,0,0,5.12,2.59,5,5,0,0,0,3.69-1.34,5.08,5.08,0,0,0,1.34-3.76v-1.64a6.69,6.69,0,0,1-5.33,2.25,6.49,6.49,0,0,1-5.41-2.69A11.78,11.78,0,0,1,438.3,111Zm3.27.37a8.57,8.57,0,0,0,1.32,5.07,4.31,4.31,0,0,0,3.69,1.82,4.77,4.77,0,0,0,4.52-2.79v-8.68a4.82,4.82,0,0,0-4.49-2.73,4.31,4.31,0,0,0-3.7,1.85A9.28,9.28,0,0,0,441.57,111.36Zm21.53,2.1a10.51,10.51,0,0,1,.48-3.31,8.5,8.5,0,0,1,1.79-2.69l2.3-2.37a5.32,5.32,0,0,0,1.48-3.59,4,4,0,0,0-1-2.88,3.63,3.63,0,0,0-2.81-1.06,4.24,4.24,0,0,0-2.88,1,3.22,3.22,0,0,0-1.09,2.55h-3.25a5.89,5.89,0,0,1,2-4.59,7.59,7.59,0,0,1,5.2-1.75,7.08,7.08,0,0,1,5.17,1.79,6.43,6.43,0,0,1,1.86,4.89,8.84,8.84,0,0,1-2.85,6.06l-1.91,1.9a5.89,5.89,0,0,0-1.28,4.1ZM463,119a1.88,1.88,0,0,1,.48-1.32,2,2,0,0,1,2.88,2.64A1.92,1.92,0,0,1,463,119Z"/></svg>