<svg id="Layer_1" data-name="Layer 1" xmlns="http://www.w3.org/2000/svg" viewBox="0 0 406.78 332"><defs><style>.cls-1{fill:#8c1a22;stroke:#753c3d;stroke-width:2px;}</style></defs><path class="cls-1" d="M198.39,89.17c-7.08-18.87,22.2-46.64,38.26-58.26A110.46,110.46,0,0,1,295.78,10c12-.43,37.15.71,61.74,17.39C361.73,30.29,388.46,49,398.39,84c13.25,46.61-12.87,88.64-27,111.3-16.75,27-38,46-47.82,54.78-4.19,3.76-16.42,13.23-40.87,32.18-25.28,19.58-.62-.08-41.74,29.56-15.88,11.46-20.45,15-27,13.92-12.23-2.1-23-19.34-20.87-33.05,1.34-8.7,6.68-8.36,19.13-29.56,5.09-8.66,4.49-9.2,10.44-19.13,9.58-16,12.08-16.14,12.17-20.87s-2.33-8.56-23.48-29.57c-13.65-13.56-16.19-15.5-16.52-20-.43-6,3.54-10.48,20-27,22.09-22.11,25.61-24.31,25.22-28.7C238.94,104.51,205,106.84,198.39,89.17Z"/><path class="cls-1" d="M191.43,61.35c.75-23.52-51.82-55.07-100-47.83-28.87,4.34-48.2,21.42-54.78,27.83A102.64,102.64,0,0,0,8.83,89.17c-6.33,24.81-1.3,45,1.74,56.53,6.4,24.37,18,39.76,36.52,64.34a379.25,379.25,0,0,0,43.48,47.83c14.4,13.44,26.41,22.29,50.43,40,2.07,1.53,38.37,28.19,40.87,25.22,1.63-1.94-14.72-12.18-14.78-27.83,0-5.25,1.8-9.65,14.78-27,20.74-27.65,28.32-32.72,27-41.73-.55-3.64-5.59-9.09-15.66-20-9.06-9.83-13.59-14.74-19.13-19.14s-8.09-5.53-8.69-8.69c-.66-3.44,1.4-6.52,13-19.13,7.39-8,11.09-12,15.65-16.52,12-11.83,15-13.64,15.56-15.63a3.62,3.62,0,0,0,.1-.89c.37-11.53-37.94-14.25-41.74-28.7C164.66,85.34,190.92,77.74,191.43,61.35Z"/></svg>