<svg id="Layer_1" data-name="Layer 1" xmlns="http://www.w3.org/2000/svg" viewBox="0 0 722 669"><defs><style>.cls-1{opacity:0.4;}.cls-156,.cls-2{fill:#fff;}.cls-2{opacity:0.3;}.cls-10,.cls-100,.cls-101,.cls-102,.cls-103,.cls-104,.cls-105,.cls-106,.cls-107,.cls-108,.cls-109,.cls-11,.cls-110,.cls-111,.cls-112,.cls-113,.cls-114,.cls-115,.cls-116,.cls-117,.cls-118,.cls-119,.cls-12,.cls-120,.cls-121,.cls-122,.cls-123,.cls-124,.cls-125,.cls-126,.cls-127,.cls-128,.cls-129,.cls-13,.cls-130,.cls-131,.cls-132,.cls-133,.cls-134,.cls-135,.cls-136,.cls-137,.cls-138,.cls-139,.cls-14,.cls-140,.cls-141,.cls-142,.cls-143,.cls-144,.cls-145,.cls-146,.cls-147,.cls-148,.cls-149,.cls-15,.cls-150,.cls-151,.cls-152,.cls-153,.cls-154,.cls-155,.cls-156,.cls-16,.cls-17,.cls-18,.cls-19,.cls-2,.cls-20,.cls-21,.cls-22,.cls-23,.cls-24,.cls-25,.cls-26,.cls-27,.cls-28,.cls-29,.cls-30,.cls-31,.cls-32,.cls-33,.cls-34,.cls-35,.cls-36,.cls-37,.cls-38,.cls-39,.cls-4,.cls-40,.cls-41,.cls-42,.cls-43,.cls-44,.cls-45,.cls-46,.cls-47,.cls-48,.cls-49,.cls-5,.cls-50,.cls-51,.cls-52,.cls-53,.cls-54,.cls-55,.cls-56,.cls-57,.cls-58,.cls-59,.cls-6,.cls-60,.cls-61,.cls-62,.cls-63,.cls-64,.cls-65,.cls-66,.cls-67,.cls-68,.cls-69,.cls-7,.cls-70,.cls-71,.cls-72,.cls-73,.cls-74,.cls-75,.cls-76,.cls-77,.cls-78,.cls-79,.cls-8,.cls-80,.cls-81,.cls-82,.cls-83,.cls-84,.cls-85,.cls-86,.cls-87,.cls-88,.cls-89,.cls-9,.cls-90,.cls-91,.cls-92,.cls-93,.cls-94,.cls-95,.cls-96,.cls-97,.cls-98,.cls-99{isolation:isolate;}.cls-10,.cls-100,.cls-101,.cls-102,.cls-103,.cls-104,.cls-105,.cls-106,.cls-107,.cls-108,.cls-109,.cls-11,.cls-110,.cls-111,.cls-112,.cls-113,.cls-114,.cls-115,.cls-116,.cls-117,.cls-118,.cls-119,.cls-12,.cls-120,.cls-121,.cls-122,.cls-123,.cls-124,.cls-125,.cls-126,.cls-127,.cls-128,.cls-129,.cls-13,.cls-130,.cls-131,.cls-132,.cls-133,.cls-134,.cls-135,.cls-136,.cls-137,.cls-138,.cls-139,.cls-14,.cls-140,.cls-141,.cls-142,.cls-143,.cls-144,.cls-145,.cls-146,.cls-147,.cls-148,.cls-149,.cls-15,.cls-150,.cls-151,.cls-152,.cls-153,.cls-154,.cls-155,.cls-156,.cls-16,.cls-17,.cls-18,.cls-19,.cls-20,.cls-21,.cls-22,.cls-23,.cls-24,.cls-25,.cls-26,.cls-27,.cls-28,.cls-29,.cls-3,.cls-30,.cls-31,.cls-32,.cls-33,.cls-34,.cls-35,.cls-36,.cls-37,.cls-38,.cls-39,.cls-4,.cls-40,.cls-41,.cls-42,.cls-43,.cls-44,.cls-45,.cls-46,.cls-47,.cls-48,.cls-49,.cls-5,.cls-50,.cls-51,.cls-52,.cls-53,.cls-54,.cls-55,.cls-56,.cls-57,.cls-58,.cls-59,.cls-6,.cls-60,.cls-61,.cls-62,.cls-63,.cls-64,.cls-65,.cls-66,.cls-67,.cls-68,.cls-69,.cls-7,.cls-70,.cls-71,.cls-72,.cls-73,.cls-74,.cls-75,.cls-76,.cls-77,.cls-78,.cls-79,.cls-8,.cls-80,.cls-81,.cls-82,.cls-83,.cls-84,.cls-85,.cls-86,.cls-87,.cls-88,.cls-89,.cls-9,.cls-90,.cls-91,.cls-92,.cls-93,.cls-94,.cls-95,.cls-96,.cls-97,.cls-98,.cls-99{opacity:0.8;}.cls-4{fill:#808285;}.cls-5{fill:#818385;}.cls-6{fill:#828486;}.cls-7{fill:#828487;}.cls-8{fill:#838588;}.cls-9{fill:#848688;}.cls-10{fill:#858789;}.cls-11{fill:#85878a;}.cls-12{fill:#86888b;}.cls-13{fill:#87898b;}.cls-14{fill:#888a8c;}.cls-15{fill:#888a8d;}.cls-16{fill:#898b8e;}.cls-17{fill:#8a8c8e;}.cls-18{fill:#8b8d8f;}.cls-19{fill:#8b8d90;}.cls-20{fill:#8c8e91;}.cls-21{fill:#8d8f92;}.cls-22{fill:#8e9092;}.cls-23{fill:#8e9093;}.cls-24{fill:#8f9194;}.cls-25{fill:#909295;}.cls-26{fill:#919395;}.cls-27{fill:#919396;}.cls-28{fill:#929497;}.cls-29{fill:#939598;}.cls-30{fill:#949698;}.cls-31{fill:#949699;}.cls-32{fill:#95979a;}.cls-33{fill:#96989b;}.cls-34{fill:#97999b;}.cls-35{fill:#979a9c;}.cls-36{fill:#989a9d;}.cls-37{fill:#999b9e;}.cls-38{fill:#9a9c9e;}.cls-39{fill:#9b9d9f;}.cls-40{fill:#9b9da0;}.cls-41{fill:#9c9ea1;}.cls-42{fill:#9d9fa2;}.cls-43{fill:#9ea0a2;}.cls-44{fill:#9ea1a3;}.cls-45{fill:#9fa1a4;}.cls-46{fill:#a0a2a5;}.cls-47{fill:#a1a3a5;}.cls-48{fill:#a2a4a6;}.cls-49{fill:#a2a4a7;}.cls-50{fill:#a3a5a8;}.cls-51{fill:#a4a6a9;}.cls-52{fill:#a5a7a9;}.cls-53{fill:#a5a8aa;}.cls-54{fill:#a6a8ab;}.cls-55{fill:#a7a9ac;}.cls-56{fill:#a8aaad;}.cls-57{fill:#a9abad;}.cls-58{fill:#a9acae;}.cls-59{fill:#aaacaf;}.cls-60{fill:#abadb0;}.cls-61{fill:#acaeb0;}.cls-62{fill:#adafb1;}.cls-63{fill:#aeb0b2;}.cls-64{fill:#aeb0b3;}.cls-65{fill:#afb1b4;}.cls-66{fill:#b0b2b4;}.cls-67{fill:#b1b3b5;}.cls-68{fill:#b2b4b6;}.cls-69{fill:#b2b4b7;}.cls-70{fill:#b3b5b8;}.cls-71{fill:#b4b6b8;}.cls-72{fill:#b5b7b9;}.cls-73{fill:#b6b8ba;}.cls-74{fill:#b7b8bb;}.cls-75{fill:#b7b9bc;}.cls-76{fill:#b8babc;}.cls-77{fill:#b9bbbd;}.cls-78{fill:#babcbe;}.cls-79{fill:#bbbdbf;}.cls-80{fill:#bcbdc0;}.cls-81{fill:#bcbec0;}.cls-82{fill:#bdbfc1;}.cls-83{fill:#bec0c2;}.cls-84{fill:#bfc1c3;}.cls-85{fill:#c0c2c4;}.cls-86{fill:#c1c2c4;}.cls-87{fill:#c1c3c5;}.cls-88{fill:#c2c4c6;}.cls-89{fill:#c3c5c7;}.cls-90{fill:#c4c6c8;}.cls-91{fill:#c5c6c8;}.cls-92{fill:#c5c7c9;}.cls-93{fill:#c6c8ca;}.cls-94{fill:#c7c9cb;}.cls-95{fill:#c8cacc;}.cls-96{fill:#c9cbcc;}.cls-97{fill:#cacbcd;}.cls-98{fill:#cbccce;}.cls-99{fill:#cbcdcf;}.cls-100{fill:#ccced0;}.cls-101{fill:#cdcfd0;}.cls-102{fill:#cecfd1;}.cls-103{fill:#cfd0d2;}.cls-104{fill:#d0d1d3;}.cls-105{fill:#d0d2d3;}.cls-106{fill:#d1d3d4;}.cls-107{fill:#d2d3d5;}.cls-108{fill:#d3d4d6;}.cls-109{fill:#d4d5d7;}.cls-110{fill:#d4d6d7;}.cls-111{fill:#d5d7d8;}.cls-112{fill:#d6d7d9;}.cls-113{fill:#d7d8da;}.cls-114{fill:#d8d9db;}.cls-115{fill:#d9dadb;}.cls-116{fill:#d9dbdc;}.cls-117{fill:#dadcdd;}.cls-118{fill:#dbdcde;}.cls-119{fill:#dcddde;}.cls-120{fill:#dddedf;}.cls-121{fill:#dedfe0;}.cls-122{fill:#dee0e1;}.cls-123{fill:#dfe0e2;}.cls-124{fill:#e0e1e2;}.cls-125{fill:#e1e2e3;}.cls-126{fill:#e2e3e4;}.cls-127{fill:#e3e4e5;}.cls-128{fill:#e4e5e6;}.cls-129{fill:#e5e6e7;}.cls-130{fill:#e6e7e8;}.cls-131{fill:#e7e8e9;}.cls-132{fill:#e8e8e9;}.cls-133{fill:#e9e9ea;}.cls-134{fill:#e9eaeb;}.cls-135{fill:#eaebec;}.cls-136{fill:#ebecec;}.cls-137{fill:#eceded;}.cls-138{fill:#ededee;}.cls-139{fill:#eeeeef;}.cls-140{fill:#eeeff0;}.cls-141{fill:#eff0f0;}.cls-142{fill:#f0f1f1;}.cls-143{fill:#f1f1f2;}.cls-144{fill:#f2f2f3;}.cls-145{fill:#f3f3f3;}.cls-146{fill:#f3f4f4;}.cls-147{fill:#f4f5f5;}.cls-148{fill:#f5f6f6;}.cls-149{fill:#f6f6f7;}.cls-150{fill:#f7f7f8;}.cls-151{fill:#f8f8f9;}.cls-152{fill:#f9f9fa;}.cls-153{fill:#fafbfb;}.cls-154{fill:#fcfcfc;}.cls-155{fill:#fdfdfd;}</style></defs><g class="cls-1"><path class="cls-2" d="M163.58,561.28c39.52,0,71.56-32.4,71.56-72.37s-32-72.37-71.56-72.37S92,448.94,92,488.91,124.06,561.28,163.58,561.28Z"/><g class="cls-3"><path class="cls-4" d="M360.5,662C554.08,662,711,516.05,711,336S554.08,10,360.5,10,10,156,10,336,166.92,662,360.5,662Z"/><path class="cls-5" d="M360.83,660C553.7,660,710.05,514.51,710.05,335.1S553.7,10.26,360.83,10.26,11.62,155.7,11.62,335.1,168,660,360.83,660Z"/><path class="cls-6" d="M361.16,657.86c192.15,0,347.92-144.91,347.92-323.66S553.31,10.55,361.16,10.55,13.25,155.46,13.25,334.2,169,657.86,361.16,657.86Z"/><path class="cls-7" d="M361.5,655.83c191.43,0,346.62-144.38,346.62-322.49S552.93,10.84,361.5,10.84,14.88,155.23,14.88,333.34,170.06,655.83,361.5,655.83Z"/><path class="cls-8" d="M361.83,653.75c190.71,0,345.32-143.86,345.32-321.31S552.54,11.13,361.83,11.13,16.51,155,16.51,332.44,171.11,653.75,361.83,653.75Z"/><path class="cls-9" d="M362.16,651.69c190,0,344-143.33,344-320.15s-154-320.15-344-320.15-344,143.34-344,320.15S172.16,651.69,362.16,651.69Z"/><path class="cls-10" d="M362.49,649.67c189.28,0,342.73-142.82,342.73-319s-153.45-319-342.73-319S19.77,154.5,19.77,330.67,173.21,649.67,362.49,649.67Z"/><path class="cls-11" d="M362.82,647.58c188.57,0,341.43-142.28,341.43-317.8S551.39,12,362.82,12,21.4,154.26,21.4,329.78,174.26,647.58,362.82,647.58Z"/><path class="cls-12" d="M363.16,645.53c187.85,0,340.13-141.77,340.13-316.65S551,12.23,363.16,12.23,23,154,23,328.88,175.31,645.53,363.16,645.53Z"/><path class="cls-13" d="M363.49,643.5c187.15,0,338.86-141.25,338.86-315.49S550.64,12.52,363.49,12.52,24.63,153.77,24.63,328,176.34,643.5,363.49,643.5Z"/><path class="cls-14" d="M363.85,641.42c186.43,0,337.56-140.72,337.56-314.31S550.28,12.81,363.85,12.81,26.29,153.53,26.29,327.11,177.42,641.42,363.85,641.42Z"/><path class="cls-15" d="M364.18,639.36c185.72,0,336.27-140.2,336.27-313.15S549.9,13.07,364.18,13.07,27.92,153.27,27.92,326.21,178.47,639.36,364.18,639.36Z"/><path class="cls-16" d="M364.52,637.34c185,0,335-139.69,335-312s-150-312-335-312-335,139.68-335,312S179.52,637.34,364.52,637.34Z"/><path class="cls-17" d="M364.85,635.25c184.28,0,333.67-139.15,333.67-310.8S549.13,13.65,364.85,13.65,31.18,152.8,31.18,324.45,180.57,635.25,364.85,635.25Z"/><path class="cls-18" d="M365.18,633.2c183.56,0,332.37-138.64,332.37-309.65S548.74,13.91,365.18,13.91,32.81,152.54,32.81,323.55,181.62,633.2,365.18,633.2Z"/><path class="cls-19" d="M365.51,631.17c182.85,0,331.07-138.12,331.07-308.49S548.36,14.2,365.51,14.2,34.44,152.31,34.44,322.68,182.67,631.17,365.51,631.17Z"/><path class="cls-20" d="M365.84,629.09c182.13,0,329.78-137.59,329.78-307.3S548,14.49,365.84,14.49,36.07,152.07,36.07,321.79,183.72,629.09,365.84,629.09Z"/><path class="cls-21" d="M366.18,627C547.59,627,694.65,490,694.65,320.89S547.59,14.75,366.18,14.75,37.7,151.81,37.7,320.89,184.76,627,366.18,627Z"/><path class="cls-22" d="M366.51,625c180.69,0,327.17-136.54,327.17-305S547.2,15,366.51,15,39.33,151.55,39.33,320,185.81,625,366.51,625Z"/><path class="cls-23" d="M366.84,622.92c180,0,325.88-136,325.88-303.8S546.82,15.33,366.84,15.33,41,151.34,41,319.12,186.86,622.92,366.84,622.92Z"/><path class="cls-24" d="M367.17,620.86c179.26,0,324.58-135.49,324.58-302.63S546.43,15.59,367.17,15.59,42.59,151.08,42.59,318.23,187.91,620.86,367.17,620.86Z"/><path class="cls-25" d="M367.5,618.78c178.57,0,323.32-135,323.32-301.45S546.07,15.88,367.5,15.88,44.19,150.84,44.19,317.33,188.94,618.78,367.5,618.78Z"/><path class="cls-26" d="M367.87,616.75c177.84,0,322-134.44,322-300.29S545.71,16.17,367.87,16.17s-322,134.44-322,300.29S190,616.75,367.87,616.75Z"/><path class="cls-27" d="M368.2,614.7c177.13,0,320.71-133.93,320.71-299.14S545.33,16.43,368.2,16.43,47.49,150.35,47.49,315.56,191.07,614.7,368.2,614.7Z"/><path class="cls-28" d="M368.53,612.61C544.94,612.61,688,479.22,688,314.66S544.94,16.72,368.53,16.72,49.12,150.11,49.12,314.66,192.12,612.61,368.53,612.61Z"/><path class="cls-29" d="M368.86,610.59C544.55,610.59,687,477.71,687,313.8S544.55,17,368.86,17,50.75,149.88,50.75,313.8,193.17,610.59,368.86,610.59Z"/><path class="cls-30" d="M369.2,608.53c175,0,316.82-132.36,316.82-295.63S544.17,17.27,369.2,17.27,52.38,149.63,52.38,312.9,194.22,608.53,369.2,608.53Z"/><path class="cls-31" d="M369.53,606.45c174.25,0,315.52-131.83,315.52-294.45S543.78,17.56,369.53,17.56,54,149.38,54,312,195.27,606.45,369.53,606.45Z"/><path class="cls-32" d="M369.86,604.42c173.54,0,314.22-131.31,314.22-293.29S543.4,17.85,369.86,17.85,55.64,149.15,55.64,311.13,196.32,604.42,369.86,604.42Z"/><path class="cls-33" d="M370.19,602.36c172.83,0,312.93-130.79,312.93-292.13S543,18.11,370.19,18.11,57.27,148.9,57.27,310.23,197.37,602.36,370.19,602.36Z"/><path class="cls-34" d="M370.52,600.28c172.11,0,311.63-130.26,311.63-290.94S542.63,18.4,370.52,18.4,58.9,148.65,58.9,309.34,198.42,600.28,370.52,600.28Z"/><path class="cls-35" d="M370.86,598.22c171.39,0,310.32-129.74,310.32-289.78S542.25,18.66,370.86,18.66,60.53,148.4,60.53,308.44,199.47,598.22,370.86,598.22Z"/><path class="cls-36" d="M371.19,596.2c170.69,0,309.06-129.22,309.06-288.63S541.88,19,371.19,19,62.13,148.17,62.13,307.57,200.5,596.2,371.19,596.2Z"/><path class="cls-37" d="M371.52,594.11c170,0,307.76-128.69,307.76-287.44S541.49,19.23,371.52,19.23,63.76,147.93,63.76,306.67,201.55,594.11,371.52,594.11Z"/><path class="cls-38" d="M371.88,592.06c169.26,0,306.47-128.17,306.47-286.28S541.14,19.5,371.88,19.5,65.42,147.67,65.42,305.78,202.63,592.06,371.88,592.06Z"/><path class="cls-39" d="M372.21,590c168.54,0,305.17-127.65,305.17-285.12S540.75,19.78,372.21,19.78,67.05,147.44,67.05,304.91,203.68,590,372.21,590Z"/><path class="cls-40" d="M372.55,588C540.37,588,676.41,460.83,676.41,304S540.37,20.07,372.55,20.07,68.68,147.2,68.68,304,204.73,588,372.55,588Z"/><path class="cls-41" d="M372.88,585.89c167.1,0,302.57-126.6,302.57-282.78S540,20.34,372.88,20.34,70.31,146.94,70.31,303.11,205.78,585.89,372.88,585.89Z"/><path class="cls-42" d="M373.21,583.84c166.39,0,301.27-126.08,301.27-281.6S539.6,20.65,373.21,20.65,71.94,146.73,71.94,302.24,206.82,583.84,373.21,583.84Z"/><path class="cls-43" d="M373.54,581.78c165.67,0,300-125.55,300-280.43S539.21,20.91,373.54,20.91s-300,125.56-300,280.44S207.87,581.78,373.54,581.78Z"/><path class="cls-44" d="M373.88,579.73c165,0,298.67-125,298.67-279.28S538.83,21.17,373.88,21.17,75.2,146.21,75.2,300.45,208.92,579.73,373.88,579.73Z"/><path class="cls-45" d="M374.21,577.67c164.23,0,297.37-124.5,297.37-278.09S538.44,21.49,374.21,21.49,76.83,146,76.83,299.58,210,577.67,374.21,577.67Z"/><path class="cls-46" d="M374.54,575.61c163.52,0,296.08-124,296.08-276.93S538.06,21.75,374.54,21.75,78.46,145.74,78.46,298.68,211,575.61,374.54,575.61Z"/><path class="cls-47" d="M374.87,573.56c162.82,0,294.81-123.47,294.81-275.77S537.69,22,374.87,22,80.06,145.48,80.06,297.79,212.05,573.56,374.87,573.56Z"/><path class="cls-48" d="M375.2,571.47c162.1,0,293.51-122.93,293.51-274.58S537.3,22.3,375.2,22.3,81.69,145.24,81.69,296.89,213.1,571.47,375.2,571.47Z"/><path class="cls-49" d="M375.54,569.45C536.92,569.45,667.75,447,667.75,296S536.92,22.59,375.54,22.59,83.32,145,83.32,296,214.15,569.45,375.54,569.45Z"/><path class="cls-50" d="M375.87,567.39c160.67,0,290.91-121.9,290.91-272.27S536.54,22.85,375.87,22.85,85,144.75,85,295.12,215.2,567.39,375.87,567.39Z"/><path class="cls-51" d="M376.23,565.31c159.95,0,289.62-121.37,289.62-271.08S536.18,23.14,376.23,23.14,86.62,144.51,86.62,294.23,216.28,565.31,376.23,565.31Z"/><path class="cls-52" d="M376.56,563.28c159.24,0,288.32-120.85,288.32-269.92S535.8,23.43,376.56,23.43,88.25,144.28,88.25,293.36,217.33,563.28,376.56,563.28Z"/><path class="cls-53" d="M376.89,561.23c158.52,0,287-120.33,287-268.77s-128.5-268.77-287-268.77S89.88,144,89.88,292.46,218.38,561.23,376.89,561.23Z"/><path class="cls-54" d="M377.23,559.14C535,559.14,663,439.34,663,291.56S535,24,377.23,24,91.51,143.78,91.51,291.56,219.43,559.14,377.23,559.14Z"/><path class="cls-55" d="M377.56,557.12C534.64,557.12,662,437.83,662,290.69S534.64,24.27,377.56,24.27,93.14,143.55,93.14,290.69,220.48,557.12,377.56,557.12Z"/><path class="cls-56" d="M377.89,555.06C534.26,555.06,661,436.3,661,289.8S534.26,24.53,377.89,24.53,94.77,143.29,94.77,289.8,221.53,555.06,377.89,555.06Z"/><path class="cls-57" d="M378.22,553c155.65,0,281.83-118.24,281.83-264.08S533.87,24.82,378.22,24.82,96.4,143.05,96.4,288.9,222.58,553,378.22,553Z"/><path class="cls-58" d="M378.56,551C533.5,551,659.11,433.24,659.11,288S533.5,25.11,378.56,25.11,98,142.82,98,288,223.61,551,378.56,551Z"/><path class="cls-59" d="M378.89,548.87c154.23,0,279.26-117.19,279.26-261.74S533.12,25.4,378.89,25.4,99.63,142.58,99.63,287.13,224.66,548.87,378.89,548.87Z"/><path class="cls-60" d="M379.22,546.81c153.51,0,278-116.66,278-260.57S532.73,25.66,379.22,25.66s-278,116.66-278,260.58S225.71,546.81,379.22,546.81Z"/><path class="cls-61" d="M379.55,544.78c152.8,0,276.66-116.14,276.66-259.41S532.35,26,379.55,26,102.89,142.1,102.89,285.37,226.76,544.78,379.55,544.78Z"/><path class="cls-62" d="M379.88,542.7c152.08,0,275.37-115.61,275.37-258.23S532,26.24,379.88,26.24,104.52,141.85,104.52,284.47,227.8,542.7,379.88,542.7Z"/><path class="cls-63" d="M380.25,540.64c151.36,0,274.06-115.09,274.06-257.07S531.61,26.5,380.25,26.5,106.18,141.6,106.18,283.57,228.88,540.64,380.25,540.64Z"/><path class="cls-64" d="M380.58,538.59c150.64,0,272.77-114.58,272.77-255.92S531.22,26.76,380.58,26.76,107.81,141.34,107.81,282.67,229.93,538.59,380.58,538.59Z"/><path class="cls-65" d="M380.91,536.53c149.93,0,271.47-114,271.47-254.72S530.84,27.08,380.91,27.08,109.44,141.13,109.44,281.81,231,536.53,380.91,536.53Z"/><path class="cls-66" d="M381.24,534.48c149.21,0,270.17-113.53,270.17-253.57S530.45,27.34,381.24,27.34,111.07,140.87,111.07,280.91,232,534.48,381.24,534.48Z"/><path class="cls-67" d="M381.57,532.42c148.5,0,268.88-113,268.88-252.41S530.07,27.6,381.57,27.6,112.7,140.61,112.7,280,233.08,532.42,381.57,532.42Z"/><path class="cls-68" d="M381.91,530.37c147.77,0,267.57-112.48,267.57-251.23S529.68,27.92,381.91,27.92,114.33,140.4,114.33,279.14,234.13,530.37,381.91,530.37Z"/><path class="cls-69" d="M382.24,528.31c147.08,0,266.3-112,266.3-250.06S529.32,28.18,382.24,28.18s-266.31,112-266.31,250.07S235.16,528.31,382.24,528.31Z"/><path class="cls-70" d="M382.57,526.26c146.36,0,265-111.44,265-248.91S528.93,28.44,382.57,28.44s-265,111.44-265,248.91S236.21,526.26,382.57,526.26Z"/><path class="cls-71" d="M382.9,524.2c145.65,0,263.71-110.91,263.71-247.72S528.55,28.76,382.9,28.76,119.19,139.67,119.19,276.48,237.26,524.2,382.9,524.2Z"/><path class="cls-72" d="M383.24,522.15c144.92,0,262.41-110.39,262.41-246.57S528.16,29,383.24,29,120.82,139.41,120.82,275.58,238.31,522.15,383.24,522.15Z"/><path class="cls-73" d="M383.57,520.09c144.21,0,261.11-109.87,261.11-245.41S527.78,29.28,383.57,29.28,122.45,139.15,122.45,274.68,239.36,520.09,383.57,520.09Z"/><path class="cls-74" d="M383.9,518c143.49,0,259.81-109.34,259.81-244.21S527.39,29.6,383.9,29.6,124.09,138.94,124.09,273.82,240.41,518,383.9,518Z"/><path class="cls-75" d="M384.26,516C527,516,642.78,407.16,642.78,272.92S527,29.86,384.26,29.86,125.75,138.68,125.75,272.92,241.49,516,384.26,516Z"/><path class="cls-76" d="M384.59,513.89c142.06,0,257.22-108.29,257.22-241.87S526.65,30.15,384.59,30.15,127.38,138.44,127.38,272,242.54,513.89,384.59,513.89Z"/><path class="cls-77" d="M384.93,511.84c141.34,0,255.92-107.77,255.92-240.72S526.27,30.41,384.93,30.41,129,138.18,129,271.12,243.59,511.84,384.93,511.84Z"/><path class="cls-78" d="M385.26,509.81c140.62,0,254.62-107.25,254.62-239.55S525.88,30.7,385.26,30.7,130.64,138,130.64,270.26,244.63,509.81,385.26,509.81Z"/><path class="cls-79" d="M385.59,507.73c139.91,0,253.32-106.72,253.32-238.37S525.5,31,385.59,31,132.27,137.71,132.27,269.36,245.68,507.73,385.59,507.73Z"/><path class="cls-80" d="M385.92,505.67C525.13,505.67,638,399.47,638,268.46S525.13,31.25,385.92,31.25s-252,106.2-252,237.21S246.72,505.67,385.92,505.67Z"/><path class="cls-81" d="M386.25,503.65C524.74,503.65,637,398,637,267.59s-112.27-236-250.76-236S135.5,137.22,135.5,267.59,247.77,503.65,386.25,503.65Z"/><path class="cls-82" d="M386.59,501.56C524.36,501.56,636,396.41,636,266.7S524.36,31.83,386.59,31.83,137.13,137,137.13,266.7,248.81,501.56,386.59,501.56Z"/><path class="cls-83" d="M386.92,499.51c137.05,0,248.16-104.64,248.16-233.71S524,32.09,386.92,32.09,138.76,136.72,138.76,265.8,249.86,499.51,386.92,499.51Z"/><path class="cls-84" d="M387.25,497.48c136.34,0,246.86-104.12,246.86-232.55S523.59,32.38,387.25,32.38,140.39,136.5,140.39,264.93,250.91,497.48,387.25,497.48Z"/><path class="cls-85" d="M387.58,495.4C523.2,495.4,633.15,391.81,633.15,264S523.2,32.67,387.58,32.67,142,136.25,142,264,252,495.4,387.58,495.4Z"/><path class="cls-86" d="M387.92,493.34c134.9,0,244.26-103.07,244.26-230.21S522.82,32.93,387.92,32.93,143.65,136,143.65,263.13,253,493.34,387.92,493.34Z"/><path class="cls-87" d="M388.28,491.31c134.18,0,243-102.54,243-229s-108.78-229-243-229-243,102.55-243,229.05S254.09,491.31,388.28,491.31Z"/><path class="cls-88" d="M388.61,489.23c133.47,0,241.67-102,241.67-227.86S522.08,33.51,388.61,33.51s-241.67,102-241.67,227.86S255.14,489.23,388.61,489.23Z"/><path class="cls-89" d="M388.94,487.17c132.75,0,240.37-101.5,240.37-226.7S521.69,33.77,388.94,33.77s-240.37,101.5-240.37,226.7S256.19,487.17,388.94,487.17Z"/><path class="cls-90" d="M389.27,485.12c132,0,239.08-101,239.08-225.55S521.31,34,389.27,34,150.2,135,150.2,259.57,257.24,485.12,389.27,485.12Z"/><path class="cls-91" d="M389.61,483.06c131.33,0,237.8-100.45,237.8-224.35S520.94,34.35,389.61,34.35,151.8,134.79,151.8,258.71,258.27,483.06,389.61,483.06Z"/><path class="cls-92" d="M389.94,481c130.62,0,236.5-99.93,236.5-223.2S520.56,34.61,389.94,34.61s-236.51,99.93-236.51,223.2S259.32,481,389.94,481Z"/><path class="cls-93" d="M390.27,479c129.9,0,235.21-99.41,235.21-222s-105.31-222-235.21-222-235.21,99.41-235.21,222S260.37,479,390.27,479Z"/><path class="cls-94" d="M390.6,476.9C519.79,476.9,624.51,378,624.51,256S519.79,35.19,390.6,35.19,156.69,134.07,156.69,256,261.42,476.9,390.6,476.9Z"/><path class="cls-95" d="M390.93,474.84c128.47,0,232.61-98.36,232.61-219.7S519.4,35.45,390.93,35.45,158.32,133.81,158.32,255.14,262.47,474.84,390.93,474.84Z"/><path class="cls-96" d="M391.27,472.76c127.75,0,231.31-97.83,231.31-218.51S519,35.74,391.27,35.74,160,133.57,160,254.25,263.52,472.76,391.27,472.76Z"/><path class="cls-97" d="M391.6,470.73c127,0,230-97.31,230-217.35S518.63,36,391.6,36s-230,97.31-230,217.35S264.57,470.73,391.6,470.73Z"/><path class="cls-98" d="M391.93,468.68c126.32,0,228.72-96.8,228.72-216.2S518.25,36.29,391.93,36.29,163.22,133.08,163.22,252.48,265.62,468.68,391.93,468.68Z"/><path class="cls-99" d="M392.29,466.59c125.6,0,227.42-96.26,227.42-215s-101.82-215-227.42-215-227.41,96.26-227.41,215S266.69,466.59,392.29,466.59Z"/><path class="cls-100" d="M392.63,464.57c124.88,0,226.11-95.75,226.11-213.86S517.51,36.87,392.63,36.87,166.51,132.61,166.51,250.71,267.74,464.57,392.63,464.57Z"/><path class="cls-101" d="M393,462.51c124.16,0,224.82-95.23,224.82-212.69S517.12,37.13,393,37.13,168.14,132.35,168.14,249.82,268.79,462.51,393,462.51Z"/><path class="cls-102" d="M393.29,460.42c123.46,0,223.55-94.69,223.55-211.5S516.75,37.42,393.29,37.42s-223.55,94.69-223.55,211.5S269.83,460.42,393.29,460.42Z"/><path class="cls-103" d="M393.62,458.4c122.75,0,222.26-94.18,222.26-210.35S516.37,37.7,393.62,37.7,171.37,131.88,171.37,248.05,270.88,458.4,393.62,458.4Z"/><path class="cls-104" d="M394,456.34c122,0,221-93.65,221-209.19S516,38,394,38,173,131.62,173,247.15,271.92,456.34,394,456.34Z"/><path class="cls-105" d="M394.29,454.26c121.31,0,219.65-93.13,219.65-208s-98.34-208-219.65-208-219.66,93.13-219.66,208S273,454.26,394.29,454.26Z"/><path class="cls-106" d="M394.62,452.2C515.21,452.2,613,359.6,613,245.36S515.21,38.52,394.62,38.52s-218.36,92.6-218.36,206.84S274,452.2,394.62,452.2Z"/><path class="cls-107" d="M395,450.18C514.83,450.18,612,358.09,612,244.49S514.83,38.8,395,38.8,177.89,130.89,177.89,244.49,275.07,450.18,395,450.18Z"/><path class="cls-108" d="M395.28,448.09c119.16,0,215.76-91.55,215.76-204.5s-96.6-204.5-215.76-204.5-215.76,91.56-215.76,204.5S276.12,448.09,395.28,448.09Z"/><path class="cls-109" d="M395.61,446c118.45,0,214.47-91,214.47-203.34s-96-203.35-214.47-203.35-214.46,91-214.46,203.35S277.17,446,395.61,446Z"/><path class="cls-110" d="M396,444c117.72,0,213.16-90.52,213.16-202.18S513.67,39.64,396,39.64,182.78,130.17,182.78,241.83,278.22,444,396,444Z"/><path class="cls-111" d="M396.31,441.93c117,0,211.87-90,211.87-201s-94.86-201-211.87-201-211.87,90-211.87,201S279.3,441.93,396.31,441.93Z"/><path class="cls-112" d="M396.64,439.87c116.29,0,210.57-89.47,210.57-199.84S512.93,40.19,396.64,40.19,186.07,129.67,186.07,240,280.35,439.87,396.64,439.87Z"/><path class="cls-113" d="M397,437.82c115.6,0,209.3-88.94,209.3-198.66S512.57,40.51,397,40.51s-209.3,88.94-209.3,198.65S281.38,437.82,397,437.82Z"/><path class="cls-114" d="M397.31,435.76c114.87,0,208-88.42,208-197.49s-93.13-197.5-208-197.5-208,88.42-208,197.5S282.43,435.76,397.31,435.76Z"/><path class="cls-115" d="M397.64,433.7c114.16,0,206.7-87.9,206.7-196.33S511.8,41,397.64,41,190.93,128.94,190.93,237.37,283.48,433.7,397.64,433.7Z"/><path class="cls-116" d="M398,431.65c113.44,0,205.41-87.37,205.41-195.15S511.41,41.35,398,41.35,192.56,128.72,192.56,236.5,284.53,431.65,398,431.65Z"/><path class="cls-117" d="M398.3,429.59c112.73,0,204.11-86.85,204.11-194S511,41.61,398.3,41.61s-204.11,86.85-204.11,194S285.58,429.59,398.3,429.59Z"/><path class="cls-118" d="M398.63,427.54c112,0,202.81-86.34,202.81-192.83S510.64,41.87,398.63,41.87,195.82,128.21,195.82,234.71,286.63,427.54,398.63,427.54Z"/><path class="cls-119" d="M399,425.45c111.29,0,201.51-85.8,201.51-191.64S510.26,42.16,399,42.16,197.46,128,197.46,233.81,287.67,425.45,399,425.45Z"/><path class="cls-120" d="M399.3,423.43c110.57,0,200.21-85.29,200.21-190.49S509.87,42.45,399.3,42.45,199.09,127.74,199.09,232.94,288.72,423.43,399.3,423.43Z"/><path class="cls-121" d="M399.63,421.37c109.86,0,198.91-84.76,198.91-189.33s-89-189.33-198.91-189.33S200.72,127.48,200.72,232,289.77,421.37,399.63,421.37Z"/><path class="cls-122" d="M400,419.29c109.14,0,197.62-84.24,197.62-188.14S509.1,43,400,43,202.35,127.24,202.35,231.15,290.82,419.29,400,419.29Z"/><path class="cls-123" d="M400.32,417.26c108.43,0,196.32-83.71,196.32-187s-87.89-187-196.32-187S204,127,204,230.28,291.9,417.26,400.32,417.26Z"/><path class="cls-124" d="M400.66,415.21c107.72,0,195.05-83.2,195.05-185.83s-87.33-185.83-195-185.83-195,83.2-195,185.83S292.93,415.21,400.66,415.21Z"/><path class="cls-125" d="M401,413.12c107,0,193.75-82.67,193.75-184.64S508,43.84,401,43.84,207.24,126.51,207.24,228.48,294,413.12,401,413.12Z"/><path class="cls-126" d="M401.32,411.1c106.29,0,192.45-82.15,192.45-183.49S507.61,44.13,401.32,44.13,208.87,126.28,208.87,227.61,295,411.1,401.32,411.1Z"/><path class="cls-127" d="M401.65,409c105.57,0,191.16-81.63,191.16-182.32S507.22,44.39,401.65,44.39,210.5,126,210.5,226.72,296.08,409,401.65,409Z"/><path class="cls-127" d="M402,407c104.85,0,189.85-81.09,189.85-181.13S506.84,44.68,402,44.68s-189.86,81.1-189.86,181.14S297.13,407,402,407Z"/><path class="cls-128" d="M402.32,404.93c104.14,0,188.56-80.58,188.56-180S506.46,45,402.32,45,213.76,125.55,213.76,225,298.18,404.93,402.32,404.93Z"/><path class="cls-129" d="M402.65,402.84c103.42,0,187.26-80,187.26-178.79S506.07,45.26,402.65,45.26,215.39,125.31,215.39,224.05,299.23,402.84,402.65,402.84Z"/><path class="cls-130" d="M403,400.79c102.71,0,186-79.53,186-177.64S505.69,45.52,403,45.52,217,125.05,217,223.15,300.28,400.79,403,400.79Z"/><path class="cls-131" d="M403.31,398.73c102,0,184.67-79,184.67-176.47S505.3,45.78,403.31,45.78s-184.66,79-184.66,176.48S301.33,398.73,403.31,398.73Z"/><path class="cls-132" d="M403.65,396.68C504.92,396.68,587,318.2,587,221.39S504.92,46.1,403.65,46.1,220.28,124.58,220.28,221.39,302.38,396.68,403.65,396.68Z"/><path class="cls-133" d="M404,394.62c100.55,0,182.06-78,182.06-174.13S504.53,46.36,404,46.36s-182.07,78-182.07,174.13S303.43,394.62,404,394.62Z"/><path class="cls-134" d="M404.34,392.57c99.84,0,180.77-77.45,180.77-173s-80.93-173-180.77-173-180.77,77.44-180.77,173S304.51,392.57,404.34,392.57Z"/><path class="cls-135" d="M404.67,390.51c99.14,0,179.5-76.91,179.5-171.78S503.81,46.94,404.67,46.94s-179.5,76.91-179.5,171.79S305.54,390.51,404.67,390.51Z"/><path class="cls-136" d="M405,388.46c98.42,0,178.21-76.4,178.21-170.63S503.42,47.2,405,47.2,226.8,123.59,226.8,217.83,306.59,388.46,405,388.46Z"/><path class="cls-137" d="M405.34,386.4c97.7,0,176.9-75.87,176.9-169.47S503,47.46,405.34,47.46,228.43,123.33,228.43,216.93,307.64,386.4,405.34,386.4Z"/><path class="cls-138" d="M405.67,384.35c97,0,175.6-75.35,175.6-168.29S502.65,47.78,405.67,47.78,230.06,123.12,230.06,216.06,308.69,384.35,405.67,384.35Z"/><path class="cls-139" d="M406,382.29c96.27,0,174.31-74.83,174.31-167.13S502.27,48,406,48,231.69,122.86,231.69,215.16,309.73,382.29,406,382.29Z"/><path class="cls-140" d="M406.33,380.23c95.55,0,173-74.3,173-166s-77.46-166-173-166-173,74.31-173,166S310.78,380.23,406.33,380.23Z"/><path class="cls-141" d="M406.67,378.18c94.83,0,171.71-73.78,171.71-164.78S501.5,48.62,406.67,48.62,235,122.39,235,213.4,311.83,378.18,406.67,378.18Z"/><path class="cls-142" d="M407,376.12c94.11,0,170.41-73.25,170.41-163.62S501.11,48.88,407,48.88,236.59,122.14,236.59,212.5,312.88,376.12,407,376.12Z"/><path class="cls-143" d="M407.33,374.07c93.4,0,169.11-72.74,169.11-162.47S500.73,49.14,407.33,49.14,238.22,121.88,238.22,211.6,313.93,374.07,407.33,374.07Z"/><path class="cls-144" d="M407.66,372c92.68,0,167.82-72.2,167.82-161.27S500.34,49.46,407.66,49.46s-167.81,72.2-167.81,161.28S315,372,407.66,372Z"/><path class="cls-145" d="M408,370c92,0,166.52-71.69,166.52-160.12S500,49.72,408,49.72,241.48,121.41,241.48,209.84,316,370,408,370Z"/><path class="cls-146" d="M408.36,367.87c91.26,0,165.24-71.15,165.24-158.93S499.62,50,408.36,50,243.11,121.17,243.11,208.94,317.09,367.87,408.36,367.87Z"/><path class="cls-147" d="M408.69,365.82c90.55,0,164-70.64,164-157.78S499.24,50.27,408.69,50.27,244.74,120.91,244.74,208,318.14,365.82,408.69,365.82Z"/><path class="cls-148" d="M409,363.79c89.83,0,162.65-70.12,162.65-156.61S498.85,50.56,409,50.56,246.37,120.68,246.37,207.18,319.19,363.79,409,363.79Z"/><path class="cls-149" d="M409.35,361.71c89.12,0,161.36-69.59,161.36-155.43S498.47,50.85,409.35,50.85,248,120.44,248,206.28,320.24,361.71,409.35,361.71Z"/><path class="cls-150" d="M409.68,359.65c88.4,0,160.06-69.07,160.06-154.27S498.08,51.11,409.68,51.11s-160,69.07-160,154.27S321.29,359.65,409.68,359.65Z"/><path class="cls-151" d="M410,357.63c87.68,0,158.75-68.56,158.75-153.12S497.7,51.4,410,51.4,251.26,120,251.26,204.51,322.34,357.63,410,357.63Z"/><path class="cls-152" d="M410.35,355.54c87,0,157.46-68,157.46-151.93S497.31,51.69,410.35,51.69s-157.46,68-157.46,151.92S323.39,355.54,410.35,355.54Z"/><path class="cls-153" d="M410.68,353.48c86.25,0,156.16-67.5,156.16-150.76S496.93,52,410.68,52s-156.16,67.5-156.16,150.77S324.44,353.48,410.68,353.48Z"/><path class="cls-154" d="M411,351.46c85.53,0,154.87-67,154.87-149.61S496.54,52.24,411,52.24s-154.86,67-154.86,149.61S325.49,351.46,411,351.46Z"/><path class="cls-155" d="M411.35,349.38c84.81,0,153.56-66.46,153.56-148.43S496.16,52.53,411.35,52.53,257.78,119,257.78,201,326.53,349.38,411.35,349.38Z"/><path class="cls-156" d="M411.68,347.32c84.09,0,152.26-65.93,152.26-147.27S495.77,52.79,411.68,52.79,259.41,118.72,259.41,200.05,327.58,347.32,411.68,347.32Z"/></g></g></svg>