<svg id="Layer_1" data-name="Layer 1" xmlns="http://www.w3.org/2000/svg" xmlns:xlink="http://www.w3.org/1999/xlink" viewBox="0 0 465 461.29"><defs><style>.cls-1{fill:#fff;}.cls-1,.cls-12,.cls-26,.cls-3,.cls-6,.cls-9{fill-rule:evenodd;}.cls-2,.cls-26{fill:#c6a552;}.cls-2,.cls-30{stroke:#000;}.cls-3{fill:#84b0a6;}.cls-4{mask:url(#mask);}.cls-5{mask:url(#mask-2);}.cls-6{fill:#e1cead;}.cls-7{mask:url(#mask-3);}.cls-8{mask:url(#mask-4);}.cls-9{fill:#eecd5d;}.cls-10{mask:url(#mask-5);}.cls-11{mask:url(#mask-6);}.cls-12{fill:#89873a;}.cls-13{mask:url(#mask-7);}.cls-14{mask:url(#mask-8);}.cls-15{mask:url(#mask-9);}.cls-16{mask:url(#mask-10);}.cls-17{mask:url(#mask-11);}.cls-18{mask:url(#mask-12);}.cls-19{mask:url(#mask-13);}.cls-20{mask:url(#mask-14);}.cls-21{mask:url(#mask-15);}.cls-22{mask:url(#mask-16);}.cls-23{mask:url(#mask-17);}.cls-24{mask:url(#mask-18);}.cls-25{mask:url(#mask-19);}.cls-27{mask:url(#mask-20);}.cls-28{mask:url(#mask-21);}.cls-29{fill:#fef7dd;}.cls-30{fill:#677d75;stroke-width:2px;}</style><mask id="mask" x="185.47" y="-1.28" width="47.51" height="105.23" maskUnits="userSpaceOnUse"><g id="path-18-inside-1"><path class="cls-1" d="M232.54-.11V102.78L186.09,51.34Z"/></g></mask><mask id="mask-2" x="278.37" y="101.61" width="47.51" height="105.23" maskUnits="userSpaceOnUse"><g id="path-20-inside-2"><path class="cls-1" d="M325.45,102.78V205.67L279,154.23Z"/></g></mask><mask id="mask-3" x="92.57" y="101.61" width="47.51" height="105.23" maskUnits="userSpaceOnUse"><g id="path-22-inside-3"><path class="cls-1" d="M139.64,102.78V205.67L93.19,154.23Z"/></g></mask><mask id="mask-4" x="371.28" y="-1.28" width="47.51" height="105.23" maskUnits="userSpaceOnUse"><g id="path-24-inside-4"><path class="cls-1" d="M418.35-.11V102.78L371.9,51.34Z"/></g></mask><mask id="mask-5" x="185.47" y="101.61" width="47.51" height="105.23" maskUnits="userSpaceOnUse"><g id="path-26-inside-5"><path class="cls-1" d="M232.54,102.78V205.67l-46.45-51.44Z"/></g></mask><mask id="mask-6" x="-0.34" y="-1.28" width="47.51" height="105.23" maskUnits="userSpaceOnUse"><g id="path-28-inside-6"><path class="cls-1" d="M46.73-.11V102.78L.28,51.34Z"/></g></mask><mask id="mask-7" x="92.57" y="-1.28" width="47.51" height="105.23" maskUnits="userSpaceOnUse"><g id="path-30-inside-7"><path class="cls-1" d="M139.64-.11V102.78L93.19,51.34Z"/></g></mask><mask id="mask-8" x="278.37" y="-1.28" width="47.51" height="105.23" maskUnits="userSpaceOnUse"><g id="path-32-inside-8"><path class="cls-1" d="M325.45-.11V102.78L279,51.34Z"/></g></mask><mask id="mask-9" x="371.28" y="101.61" width="47.51" height="105.23" maskUnits="userSpaceOnUse"><g id="path-34-inside-9"><path class="cls-1" d="M418.35,102.78V205.67L371.9,154.23Z"/></g></mask><mask id="mask-10" x="-0.34" y="101.61" width="47.51" height="105.23" maskUnits="userSpaceOnUse"><g id="path-36-inside-10"><path class="cls-1" d="M46.73,102.78V205.67L.28,154.23Z"/></g></mask><mask id="mask-11" x="139.2" y="-1.28" width="47.51" height="105.23" maskUnits="userSpaceOnUse"><g id="path-38-inside-11"><path class="cls-1" d="M139.64,102.78V-.11l46.45,51.45Z"/></g></mask><mask id="mask-12" x="417.91" y="101.61" width="47.51" height="105.23" maskUnits="userSpaceOnUse"><g id="path-40-inside-12"><path class="cls-1" d="M418.35,205.67V102.78l46.45,51.45Z"/></g></mask><mask id="mask-13" x="232.1" y="-1.28" width="47.51" height="105.23" maskUnits="userSpaceOnUse"><g id="path-42-inside-13"><path class="cls-1" d="M232.54,102.78V-.11L279,51.34Z"/></g></mask><mask id="mask-14" x="417.91" y="-1.28" width="47.51" height="105.23" maskUnits="userSpaceOnUse"><g id="path-44-inside-14"><path class="cls-1" d="M418.35,102.78V-.11L464.8,51.34Z"/></g></mask><mask id="mask-15" x="325.01" y="101.61" width="47.51" height="105.23" maskUnits="userSpaceOnUse"><g id="path-46-inside-15"><path class="cls-1" d="M325.45,205.67V102.78l46.45,51.45Z"/></g></mask><mask id="mask-16" x="232.1" y="101.61" width="47.51" height="105.23" maskUnits="userSpaceOnUse"><g id="path-48-inside-16"><path class="cls-1" d="M232.54,205.67V102.78L279,154.23Z"/></g></mask><mask id="mask-17" x="139.2" y="101.61" width="47.51" height="105.23" maskUnits="userSpaceOnUse"><g id="path-50-inside-17"><path class="cls-1" d="M139.64,205.67V102.78l46.45,51.45Z"/></g></mask><mask id="mask-18" x="46.3" y="101.61" width="47.51" height="105.23" maskUnits="userSpaceOnUse"><g id="path-52-inside-18"><path class="cls-1" d="M46.73,205.67V102.78l46.46,51.45Z"/></g></mask><mask id="mask-19" x="325.01" y="-1.28" width="47.51" height="105.23" maskUnits="userSpaceOnUse"><g id="path-54-inside-19"><path class="cls-1" d="M325.45,102.78V-.11L371.9,51.34Z"/></g></mask><mask id="mask-20" x="-0.16" y="153.06" width="47.51" height="105.23" maskUnits="userSpaceOnUse"><g id="path-56-inside-20"><path class="cls-1" d="M.28,257.12V154.23l46.45,51.44Z"/></g></mask><mask id="mask-21" x="46.3" y="-1.28" width="47.51" height="105.23" maskUnits="userSpaceOnUse"><g id="path-58-inside-21"><path class="cls-1" d="M46.73,102.78V-.11L93.19,51.34Z"/></g></mask></defs><polygon class="cls-2" points="47.05 205.7 93.22 154.57 139.39 205.7 93.22 256.84 47.05 205.7"/><polygon class="cls-2" points="139.95 102.81 186.12 51.68 232.29 102.81 186.12 153.95 139.95 102.81"/><polygon class="cls-2" points="47.05 102.81 93.22 51.68 139.39 102.81 93.22 153.95 47.05 102.81"/><polygon class="cls-2" points="325.75 -0.08 371.93 -51.21 418.1 -0.08 371.93 51.06 325.75 -0.08"/><polygon class="cls-2" points="232.85 -0.08 279.02 -51.21 325.19 -0.08 279.02 51.06 232.85 -0.08"/><polygon class="cls-2" points="139.95 -0.08 186.12 -51.21 232.29 -0.08 186.12 51.06 139.95 -0.08"/><polygon class="cls-2" points="47.05 -0.08 93.22 -51.21 139.39 -0.08 93.22 51.06 47.05 -0.08"/><polygon class="cls-2" points="-45.86 -0.08 0.31 -51.21 46.48 -0.08 0.31 51.06 -45.86 -0.08"/><polygon class="cls-2" points="-45.86 102.81 0.31 51.68 46.48 102.81 0.31 153.95 -45.86 102.81"/><polygon class="cls-2" points="418.66 205.7 464.83 154.57 511 205.7 464.83 256.84 418.66 205.7"/><polygon class="cls-2" points="325.75 205.7 371.93 154.57 418.1 205.7 371.93 256.84 325.75 205.7"/><polygon class="cls-2" points="232.85 205.7 279.02 154.57 325.19 205.7 279.02 256.84 232.85 205.7"/><polygon class="cls-2" points="139.95 205.7 186.12 154.57 232.29 205.7 186.12 256.84 139.95 205.7"/><polygon class="cls-2" points="418.66 102.81 464.83 51.68 511 102.81 464.83 153.95 418.66 102.81"/><polygon class="cls-2" points="325.75 102.81 371.93 51.68 418.1 102.81 371.93 153.95 325.75 102.81"/><polygon class="cls-2" points="232.85 102.81 279.02 51.68 325.19 102.81 279.02 153.95 232.85 102.81"/><polygon class="cls-2" points="418.66 -0.08 464.83 -51.21 511 -0.08 464.83 51.06 418.66 -0.08"/><path class="cls-3" d="M232.54-.11V102.78L186.09,51.34Z"/><g class="cls-4"><path d="M232.54-.11H233V-1.28l-.75.83Zm0,102.89-.31.34.75.83v-1.17ZM186.09,51.34l-.31-.35-.31.35.31.34Zm46-51.45V102.78H233V-.11Zm.75,102.55L186.4,51l-.62.69,46.45,51.44ZM186.4,51.68,232.85.23l-.62-.68L185.78,51Z"/></g><path class="cls-3" d="M325.45,102.78V205.67L279,154.23Z"/><g class="cls-5"><path d="M325.45,102.78h.43v-1.17l-.74.83Zm0,102.89-.31.34.74.83v-1.17ZM279,154.23l-.31-.35-.31.35.31.34Zm46-51.45V205.67h.87V102.78Zm.74,102.55L279.3,153.88l-.62.69L325.14,206ZM279.3,154.57l46.45-51.45-.61-.68-46.46,51.44Z"/></g><path class="cls-6" d="M139.64,102.78V205.67L93.19,154.23Z"/><g class="cls-7"><path d="M139.64,102.78h.44v-1.17l-.75.83Zm0,102.89-.31.34.75.83v-1.17ZM93.19,154.23l-.31-.35-.31.35.31.34Zm46-51.45V205.67h.88V102.78ZM140,205.33,93.5,153.88l-.62.69L139.33,206ZM93.5,154.57,140,103.12l-.62-.68L92.88,153.88Z"/></g><path class="cls-6" d="M418.35-.11V102.78L371.9,51.34Z"/><g class="cls-8"><path d="M418.35-.11h.44V-1.28L418-.45Zm0,102.89-.31.34.75.83v-1.17ZM371.9,51.34l-.31-.35-.31.35.31.34Zm46-51.45V102.78h.88V-.11Zm.75,102.55L372.21,51l-.62.69L418,103.12ZM372.21,51.68,418.66.23,418-.45,371.59,51Z"/></g><path class="cls-9" d="M232.54,102.78V205.67l-46.45-51.44Z"/><g class="cls-10"><path d="M232.54,102.78H233v-1.17l-.75.83Zm0,102.89-.31.34.75.83v-1.17Zm-46.45-51.44-.31-.35-.31.35.31.34Zm46-51.45V205.67H233V102.78Zm.75,102.55L186.4,153.88l-.62.69L232.23,206ZM186.4,154.57l46.45-51.45-.62-.68-46.45,51.44Z"/></g><path class="cls-9" d="M46.73-.11V102.78L.28,51.34Z"/><g class="cls-11"><path d="M46.73-.11h.44V-1.28l-.75.83Zm0,102.89-.31.34.75.83v-1.17ZM.28,51.34,0,51l-.31.35.31.34ZM46.3-.11V102.78h.87V-.11ZM47,102.44.59,51,0,51.68l46.45,51.44ZM.59,51.68,47,.23l-.62-.68L0,51Z"/></g><path class="cls-12" d="M139.64-.11V102.78L93.19,51.34Z"/><g class="cls-13"><path d="M139.64-.11h.44V-1.28l-.75.83Zm0,102.89-.31.34.75.83v-1.17ZM93.19,51.34,92.88,51l-.31.35.31.34Zm46-51.45V102.78h.88V-.11ZM140,102.44,93.5,51l-.62.69,46.45,51.44ZM93.5,51.68,140,.23l-.62-.68L92.88,51Z"/></g><path class="cls-12" d="M325.45-.11V102.78L279,51.34Z"/><g class="cls-14"><path d="M325.45-.11h.43V-1.28l-.74.83Zm0,102.89-.31.34.74.83v-1.17ZM279,51.34l-.31-.35-.31.35.31.34ZM325-.11V102.78h.87V-.11Zm.74,102.55L279.3,51l-.62.69,46.46,51.44ZM279.3,51.68,325.75.23l-.61-.68L278.68,51Z"/></g><path class="cls-12" d="M418.35,102.78V205.67L371.9,154.23Z"/><g class="cls-15"><path d="M418.35,102.78h.44v-1.17l-.75.83Zm0,102.89L418,206l.75.83v-1.17ZM371.9,154.23l-.31-.35-.31.35.31.34Zm46-51.45V205.67h.88V102.78Zm.75,102.55-46.45-51.45-.62.69L418,206Zm-46.45-50.76,46.45-51.45-.62-.68-46.45,51.44Z"/></g><path class="cls-12" d="M46.73,102.78V205.67L.28,154.23Z"/><g class="cls-16"><path d="M46.73,102.78h.44v-1.17l-.75.83Zm0,102.89-.31.34.75.83v-1.17ZM.28,154.23,0,153.88l-.31.35.31.34Zm46-51.45V205.67h.87V102.78ZM47,205.33.59,153.88l-.62.69L46.42,206ZM.59,154.57,47,103.12l-.62-.68L0,153.88Z"/></g><path class="cls-9" d="M139.64,102.78V-.11l46.45,51.45Z"/><g class="cls-17"><path d="M139.64,102.78h-.44V104l.75-.83Zm0-102.89L140-.45l-.75-.83V-.11Zm46.45,51.45.31.34.31-.34L186.4,51Zm-46,51.44V-.11h-.88V102.78ZM139.33.23l46.45,51.45.62-.69L140-.45ZM185.78,51l-46.45,51.45.62.68L186.4,51.68Z"/></g><path class="cls-9" d="M418.35,205.67V102.78l46.45,51.45Z"/><g class="cls-18"><path d="M418.35,205.67h-.44v1.17l.75-.83Zm0-102.89.31-.34-.75-.83v1.17Zm46.45,51.45.31.34.31-.34-.31-.35Zm-46,51.44V102.78h-.88V205.67ZM418,103.12l46.45,51.45.62-.69-46.45-51.44Zm46.45,50.76L418,205.33l.62.68,46.45-51.44Z"/></g><path class="cls-9" d="M232.54,102.78V-.11L279,51.34Z"/><g class="cls-19"><path d="M232.54,102.78h-.44V104l.75-.83Zm0-102.89.31-.34-.75-.83V-.11ZM279,51.34l.31.34.31-.34L279.3,51Zm-46,51.44V-.11h-.88V102.78ZM232.23.23l46.45,51.45.62-.69L232.85-.45ZM278.68,51l-46.45,51.45.62.68L279.3,51.68Z"/></g><path class="cls-9" d="M418.35,102.78V-.11L464.8,51.34Z"/><g class="cls-20"><path d="M418.35,102.78h-.44V104l.75-.83Zm0-102.89.31-.34-.75-.83V-.11ZM464.8,51.34l.31.34.31-.34-.31-.35Zm-46,51.44V-.11h-.88V102.78ZM418,.23l46.45,51.45.62-.69L418.66-.45ZM464.49,51,418,102.44l.62.68,46.45-51.44Z"/></g><path class="cls-9" d="M325.45,205.67V102.78l46.45,51.45Z"/><g class="cls-21"><path d="M325.45,205.67H325v1.17l.74-.83Zm0-102.89.3-.34-.74-.83v1.17Zm46.45,51.45.31.34.31-.34-.31-.35Zm-46,51.44V102.78H325V205.67Zm-.74-102.55,46.45,51.45.62-.69-46.46-51.44Zm46.45,50.76-46.45,51.45.61.68,46.46-51.44Z"/></g><path class="cls-6" d="M232.54,205.67V102.78L279,154.23Z"/><g class="cls-22"><path d="M232.54,205.67h-.44v1.17l.75-.83Zm0-102.89.31-.34-.75-.83v1.17ZM279,154.23l.31.34.31-.34-.31-.35Zm-46,51.44V102.78h-.88V205.67Zm-.75-102.55,46.45,51.45.62-.69-46.45-51.44Zm46.45,50.76-46.45,51.45.62.68,46.45-51.44Z"/></g><path class="cls-3" d="M139.64,205.67V102.78l46.45,51.45Z"/><g class="cls-23"><path d="M139.64,205.67h-.44v1.17L140,206Zm0-102.89.31-.34-.75-.83v1.17Zm46.45,51.45.31.34.31-.34-.31-.35Zm-46,51.44V102.78h-.88V205.67Zm-.75-102.55,46.45,51.45.62-.69L140,102.44Zm46.45,50.76-46.45,51.45.62.68,46.45-51.44Z"/></g><path class="cls-3" d="M46.73,205.67V102.78l46.46,51.45Z"/><g class="cls-24"><path d="M46.73,205.67H46.3v1.17L47,206Zm0-102.89.31-.34-.74-.83v1.17Zm46.46,51.45.31.34.31-.34-.31-.35Zm-46,51.44V102.78H46.3V205.67Zm-.75-102.55,46.46,51.45.62-.69L47,102.44Zm46.46,50.76L46.42,205.33,47,206,93.5,154.57Z"/></g><path class="cls-3" d="M325.45,102.78V-.11L371.9,51.34Z"/><g class="cls-25"><path d="M325.45,102.78H325V104l.74-.83Zm0-102.89.3-.34L325-1.28V-.11ZM371.9,51.34l.31.34.31-.34-.31-.35Zm-46,51.44V-.11H325V102.78ZM325.14.23l46.45,51.45.62-.69L325.75-.45ZM371.59,51l-46.45,51.45.61.68,46.46-51.44Z"/></g><path class="cls-26" d="M.28,257.12V154.23l46.45,51.44Z"/><g class="cls-27"><path d="M.28,257.12H-.16v1.17l.75-.83Zm0-102.89.31-.35-.75-.82v1.17Zm46.45,51.44L47,206l.31-.34-.31-.34Zm-46,51.45V154.23H-.16V257.12ZM0,154.57,46.42,206l.62-.68L.59,153.88Zm46.45,50.76L0,256.77l.62.69L47,206Z"/></g><path class="cls-6" d="M46.73,102.78V-.11L93.19,51.34Z"/><g class="cls-28"><path d="M46.73,102.78H46.3V104l.74-.83Zm0-102.89L47-.45l-.74-.83V-.11ZM93.19,51.34l.31.34.31-.34L93.5,51Zm-46,51.44V-.11H46.3V102.78ZM46.42.23,92.88,51.68,93.5,51,47-.45ZM92.88,51,46.42,102.44l.62.68L93.5,51.68Z"/></g><path class="cls-6" d="M139.64,102.78V-.11l46.45,51.45Z"/><g class="cls-17"><path d="M139.64,102.78h-.44V104l.75-.83Zm0-102.89L140-.45l-.75-.83V-.11Zm46.45,51.45.31.34.31-.34L186.4,51Zm-46,51.44V-.11h-.88V102.78ZM139.33.23l46.45,51.45.62-.69L140-.45ZM185.78,51l-46.45,51.45.62.68L186.4,51.68Z"/></g><path class="cls-6" d="M418.35,205.67V102.78l46.45,51.45Z"/><g class="cls-18"><path d="M418.35,205.67h-.44v1.17l.75-.83Zm0-102.89.31-.34-.75-.83v1.17Zm46.45,51.45.31.34.31-.34-.31-.35Zm-46,51.44V102.78h-.88V205.67ZM418,103.12l46.45,51.45.62-.69-46.45-51.44Zm46.45,50.76L418,205.33l.62.68,46.45-51.44Z"/></g><path class="cls-9" d="M232.54,102.78V-.11L279,51.34Z"/><g class="cls-19"><path d="M232.54,102.78h-.44V104l.75-.83Zm0-102.89.31-.34-.75-.83V-.11ZM279,51.34l.31.34.31-.34L279.3,51Zm-46,51.44V-.11h-.88V102.78ZM232.23.23l46.45,51.45.62-.69L232.85-.45ZM278.68,51l-46.45,51.45.62.68L279.3,51.68Z"/></g><rect class="cls-29" x="-46" y="206.29" width="556" height="257"/><rect class="cls-30" x="-46" y="207.29" width="554.93" height="42.17"/></svg>