<svg id="Layer_1" data-name="Layer 1" xmlns="http://www.w3.org/2000/svg" xmlns:xlink="http://www.w3.org/1999/xlink" viewBox="0 0 1920 805"><defs><style>.cls-1,.cls-10,.cls-6{fill:none;}.cls-2{clip-path:url(#clip-path);}.cls-3{fill:#fff7dc;}.cls-3,.cls-4,.cls-5,.cls-6{stroke:#000;}.cls-10,.cls-13,.cls-3,.cls-4,.cls-5,.cls-6,.cls-9{stroke-miterlimit:10;}.cls-10,.cls-3,.cls-4,.cls-5,.cls-6,.cls-8,.cls-9{stroke-width:2px;}.cls-4{fill:#84afa5;}.cls-5,.cls-7{fill:#171812;}.cls-8{fill:#8b1a22;stroke:#753c3d;}.cls-9{fill:#b17669;}.cls-10,.cls-9{stroke:#672d1f;}.cls-11{clip-path:url(#clip-path-2);}.cls-12{fill:#eecd5d;}.cls-13{fill:#677361;stroke:#40473b;}</style><clipPath id="clip-path"><polygon class="cls-1" points="128 115.12 716.65 66 737 388.88 148.35 438 128 115.12"/></clipPath><clipPath id="clip-path-2"><rect class="cls-1" x="1172.3" y="11" width="425.39" height="334.35"/></clipPath></defs><g class="cls-2"><path class="cls-3" d="M151,114.79,167.59,378l545-42.71-2.73-81.51-55.62-23.06L597.72,155.1l-99.31,9.67-6.13-78.46Z"/><path class="cls-4" d="M599.53,164.64c-5.1,3.32.55,25.46,4.74,37,3.92,10.79,8.11,22.39,18.67,28.92s26,6.89,28.91.36c2.46-5.48-4.64-14.74-18.93-33.06C617,177.44,604.46,161.42,599.53,164.64Z"/><path class="cls-4" d="M530.59,178.7l4.84,57.78,63.47-5.29q-11.35-27.45-22.71-54.9Z"/><path class="cls-5" d="M301.07,423.66c22.82-1.9,40.19-21.34,38.8-43.41s-21-38.43-43.83-36.52-40.19,21.34-38.8,43.41S278.26,425.57,301.07,423.66Z"/><path class="cls-3" d="M298.82,402.38c11.41-1,20.09-10.67,19.4-21.71s-10.51-19.21-21.92-18.26-20.09,10.67-19.4,21.71S287.41,403.33,298.82,402.38Z"/><path class="cls-6" d="M499.05,164.71l13.68,186.92"/><path class="cls-6" d="M604,335.48c0-7,1.17-16.67,7-23.76,7.09-8.64,15.43-6.47,19.2-15,1.66-3.78.9-6.13-.4-23.15-.63-8.27-1-15-1.22-19.42"/><path class="cls-3" d="M198.48,370.24c.52,8.17-4.87,15.35-12,15.94l-26.91,2.24c-7.1.6-13.34-5.6-13.85-13.78s4.87-15.35,12-15.95l26.89-2.24C191.72,355.84,198,362.06,198.48,370.24Z"/><path class="cls-3" d="M732,331.52c.52,8.18-4.87,15.35-12,15.94l-26.89,2.24c-7.11.6-13.34-5.6-13.86-13.78s4.88-15.35,12-15.95l26.9-2.24C725.25,317.12,731.48,323.32,732,331.52Z"/><path class="cls-5" d="M658.46,393.16c22.82-1.91,40.19-21.34,38.79-43.42s-21-38.42-43.83-36.52-40.18,21.34-38.79,43.42S635.65,395.06,658.46,393.16Z"/><path class="cls-3" d="M657.2,373.17c11.41-.95,20.09-10.67,19.4-21.7s-10.51-19.22-21.92-18.26-20.09,10.67-19.39,21.7S645.79,374.13,657.2,373.17Z"/><path class="cls-7" d="M244.36,239.26q-.29,7.19-3.89,11.4a14.09,14.09,0,0,1-10,4.7A12.85,12.85,0,0,1,219,250.58q-4.51-5.36-5.12-14.92l-.27-4.32a29.42,29.42,0,0,1,1.24-11.17,16.63,16.63,0,0,1,5.06-7.74,14.05,14.05,0,0,1,8.09-3.25,12.78,12.78,0,0,1,10.23,3.18q4,3.66,5.06,10.68l-5.17.43q-1-5.31-3.41-7.53a8,8,0,0,0-6.4-1.89,9.1,9.1,0,0,0-7.48,4.84q-2.52,4.44-2,12.17l.28,4.35q.45,7.32,3.38,11.41a8.12,8.12,0,0,0,7.7,3.7,9.24,9.24,0,0,0,6.43-2.77c1.44-1.63,2.3-4.31,2.56-8.06Zm37.94,11.16-5.17.43-1.31-20.76-19.68,1.64,1.31,20.76-5.15.43L249.47,208l5.15-.43,1.22,19.31,19.67-1.64-1.21-19.31,5.17-.43Zm30.44-14.32-16.35,1.36-2.94,12-5.3.44,12.07-46.15,4.5-.38,17.77,43.67-5.29.44Zm-15.11-3.64,13.27-1.11-8-20.45Zm60.11,11.67-5.18.43-21.83-33,2.18,34.61-5.17.43-2.83-44.91,5.17-.43L352,234.41l-2.19-34.77,5.12-.43Zm37.58-9.06a12.73,12.73,0,0,1-5.24,5.37,20.21,20.21,0,0,1-8.15,2.29,14.37,14.37,0,0,1-8.64-1.86A16.22,16.22,0,0,1,367.1,234a28.42,28.42,0,0,1-2.76-10.84l-.25-3.92q-.64-10.14,3.11-16.07a14,14,0,0,1,11.23-6.55,13.36,13.36,0,0,1,10.07,2.79q3.94,3.27,5.19,9.8l-5.14.43q-2-8.79-9.79-8.15a9,9,0,0,0-7.59,4.85q-2.39,4.4-1.91,12.32l.23,3.67q.47,7.56,3.76,11.78a9.15,9.15,0,0,0,8.4,3.76,16,16,0,0,0,5-1.16,8,8,0,0,0,3.43-2.8l-.63-10.09-9,.76-.3-4.81,14.15-1.18Zm29.73-17.43-16.91,1.41,1,15.92,19.65-1.64.31,4.84-24.8,2.07-2.83-44.91L426,193.28l.3,4.88-19.38,1.61.91,14.44,16.92-1.41Z"/></g><path class="cls-8" d="M953.71,436c-8.07-22,25.32-54.33,43.63-67.86,30.39-22.45,61.2-24.08,67.44-24.31,13.62-.51,42.36.82,70.41,20.26,4.8,3.32,35.28,25.11,46.61,65.83,15.11,54.29-14.68,103.24-30.74,129.64-19.11,31.4-43.38,53.6-54.55,63.81-4.78,4.37-18.72,15.4-46.61,37.47-28.82,22.81-.7-.1-47.6,34.43-18.11,13.34-23.32,17.51-30.74,16.21-13.95-2.44-26.19-22.52-23.8-38.49,1.52-10.14,7.61-9.74,21.82-34.43,5.8-10.08,5.11-10.72,11.9-22.28,10.92-18.61,13.77-18.8,13.88-24.31s-2.66-10-26.78-34.44c-15.56-15.79-18.46-18.05-18.84-23.29-.5-7,4-12.21,22.81-31.4,25.19-25.74,29.21-28.3,28.76-33.42C1000,453.81,961.27,456.52,953.71,436Z"/><path class="cls-8" d="M945.78,403.54c.84-27.4-59.11-64.15-114-55.71-32.93,5.06-55,24.95-62.48,32.41A120.13,120.13,0,0,0,737.52,436c-7.22,28.89-1.48,52.37,2,65.83,7.3,28.38,20.53,46.31,41.65,75a440.37,440.37,0,0,0,49.59,55.7c16.43,15.65,30.12,26,57.52,46.59,2.36,1.78,43.76,32.84,46.61,29.37,1.85-2.26-16.8-14.18-16.86-32.41,0-6.12,2-11.24,16.86-31.4,23.65-32.2,32.3-38.11,30.74-48.61-.63-4.23-6.37-10.59-17.85-23.3-10.34-11.44-15.51-17.16-21.82-22.28s-9.22-6.45-9.92-10.12c-.75-4,1.6-7.6,14.88-22.29,8.43-9.33,12.65-14,17.85-19.24,13.65-13.77,17.12-15.88,17.74-18.2a3.92,3.92,0,0,0,.11-1c.43-13.43-43.26-16.59-47.6-33.43C915.23,431.48,945.18,422.63,945.78,403.54Z"/><path class="cls-9" d="M1547.89,583.62c-6.69-5.83-4.32-11-14.71-23.8-8.58-10.61-11.3-8.48-16.44-16.16-10.71-16-1-28.5-11.24-38.25-7.12-6.79-13.34-2.2-22.5-11.05-6.58-6.36-5.79-11.07-12.11-14.45-5.49-3-8.05-.44-19.9-.85-5.68-.2-19.24-.67-32-7.66-6-3.3-6.69-5.2-13-7.66-9.53-3.7-12.25-1-18.17-3.4-13.49-5.54-10.21-24.2-22.5-28.91-5.08-1.94-5.77,1.2-19,2.55-9.58,1-30.6,3.12-39.81-7.65-3.26-3.81-3.64-7.61-8.66-10.2-3.57-1.85-6-1.28-12.11-1.7-9.76-.68-16.81-1.16-20.76-5.1-4.47-4.45-1-9.35-3.47-21.26-2.86-13.88-8.73-12.91-9.52-22.11-1.27-15.06,14.43-18.35,16.44-39.1.84-8.63-1.51-11.79,1.73-17.86,4-7.52,10.62-8.19,13-16.15,1.62-5.45-.86-7.22.86-11.9,2.61-7.09,10.82-9.9,15.58-11.9,17.83-7.49,13.33-14.58,37.2-29.75,13.84-8.79,26.64-13.58,38.07-17.85a178.82,178.82,0,0,1,24.23-7.66c12.29-2.85,23.86-4,34.61-5.1,2.69-.27,6.31,1.13,9.53-.85,4.4-2.73,3.51-7.86,7.79-11.05,3-2.28,6.38-1.8,11.24-1.7,20.44.43,24-6.62,35.48-2.55,6.82,2.4,6.29,5.13,12.11,6,10,1.42,13.22-6.43,21.63-5.1,9.81,1.55,11.46,13.2,19.9,12.75,5.42-.29,6.69-5.2,13-5.1,4.65.07,5.2,2.78,11.24,5.1,9.87,3.78,14.65-1.06,23.37,2.55,5,2.07,4.71,4.21,10.38,8.51,12.49,9.46,19.73,3.43,32,11,11.55,7.16,7.82,14.14,20.76,21.26,8.7,4.78,12.53,2.81,18.18,8.51,6,6.07,4.8,11.47,11.24,15.3,5.51,3.26,7.93.23,13,3.4,6.83,4.29,3.88,10.8,11.24,17.85,5.66,5.41,9,3.12,13,8.51,3.49,4.74,3.92,10.66,4.32,16.15.53,7.22-.88,9,.87,12.75,2.24,4.84,6.14,5.38,9.52,8.51,6.34,5.86,3.24,13.83,3.47,36.55.21,22,3.25,26.94-1.74,33.16-5.58,7-12.82,5.1-15.57,11.9-2.93,7.26,4.39,11.74,2.6,22.1-1,5.75-3.6,6.38-9.52,16.15-7.13,11.78-5.77,14.85-11.25,24.66a76.47,76.47,0,0,1-19.9,23c-13.76,10.45-27.89,13-36.34,14.45a98.6,98.6,0,0,1-44.13-2.55c-24.63-7.3-38-22.24-40.67-19.56-2,2,6.62,9.47,14.7,28.06,5.18,11.91,2.94,11.83,11.25,35.71,3.5,10,4.47,11.7,3.46,14.45C1595.34,590.67,1562.5,596.37,1547.89,583.62Z"/><path class="cls-10" d="M1303.87,414.43c2.42.16,6,.43,10.38.85,13.4,1.3,14.13,2.17,20.77,2.55a90,90,0,0,0,26-2.55c5.68-1.4,9-2.16,13-4.25,1.75-.94,19.34-10,17.3-19.56-1.47-6.86-12.29-9.79-13.84-10.2"/><path class="cls-10" d="M1338.48,398.28c-8.57-6.56-11.22-12.72-12.11-17-1.94-9.35,3.83-13,2.6-27.21-.6-6.9-2.3-10.07,0-12.75,2.86-3.34,7.51-.79,15.57-3.4,7.85-2.55,7.12-6.16,13.85-8.51,11-3.85,18.17,4,23.36,0,5.74-4.44-1.76-15,4.33-22.11,5.65-6.6,14.48-.21,26-7.65,7.61-4.94,7-9.87,14.71-12.75,6.12-2.29,14.73-2.27,17.3,1.7,2.17,3.35-1.44,7.25-4.33,17.85-1.18,4.35-1.65,8.85-2.59,17.85-2.47,23.61-3.72,35.41.86,38.26,4.15,2.59,7.86-2.61,24.23-5.95,14-2.86,14,.38,24.23-2.55,14-4,16.82-11,28.56-11.05,6.39,0,6.5,2,13,2.55,17.83,1.5,38.85-12.2,38.07-23-.37-5.12-5.69-9.86-11.25-11-6.17-1.32-13,1.64-17.3,7.65"/><path class="cls-10" d="M1272.72,367.68c.56,9.44,3.49,13,6.06,14.45,3.88,2.25,7-.14,12.11,2.55,4.77,2.5,3.66,5.4,8.66,8.51,5.18,3.21,8.25,1.25,13,4.25a17.83,17.83,0,0,1,6.93,9.35"/><path class="cls-10" d="M1287.44,301.36a45.33,45.33,0,0,1,9.52-8.51c5.86-3.9,7.65-3.08,11.24-6,7.66-6.11,3.91-13.27,10.38-17.86s13.47.6,18.17-4.25c4-4.15-.13-9,3.47-14.45,4.37-6.7,12.61-2.71,26-9.36,10.39-5.18,9.39-9.59,19-12.74,2-.66,8-1,19.9-1.71,10.39-.6,14.84-.71,22.5-1.7,8.43-1.08,11.47-2,13-2.55,7.63-2.6,7.59-4.74,13-5.95,9.14-2.06,17.19,2.33,19,3.4,3.8,2.21,8.45,4.9,9.52,9.35,2,8.38-10.62,14.75-20.76,28.92-4.82,6.72-10.37,17-13,32.3"/><path class="cls-10" d="M1398.19,411c12.25,3.67,18.77,1.81,22.5-.85,6.69-4.78,5.61-13,13-16.15,4.54-1.94,6.09.7,14.71,0,1.81-.15,6.39-.65,19-6,17-7.13,14.56-8.68,19.9-9.36,13.1-1.64,19.76,8.69,29.42,4.26,3.38-1.55,4.51-3.7,8.66-4.26,5.17-.69,8.74,2,12.11,3.41,9.31,4,15.92-1.48,32.88-4.26,13.26-2.17,13.91.42,28.56-.85a131.06,131.06,0,0,0,38.07-9.35"/><path class="cls-10" d="M1562.6,210.39a76.41,76.41,0,0,0-22.5,5.1c-5.71,2.26-16.31,6.63-25.1,17-5,5.86-9.59,11.33-9.52,18.7.1,9.78,8.38,14.13,6.06,19.55-2.11,4.93-9.66,1.77-16.44,7.66-8.07,7-9.1,18.28-10.38,32.3-1.21,13.26,3.27,16.13,0,21.26-5.88,9.22-21.54,6.68-23.36,13.6-.87,3.28,1.87,6.84,4.32,9.36"/><path class="cls-10" d="M1512.41,341.32c-1.53-2.58-6.28-11.36-3.47-21.26,2.53-8.9,9.77-13.72,14.71-17,11.19-7.46,15.61-3.85,26-11.05a51.93,51.93,0,0,0,15.57-17.85c5.74-10.8,2.89-15.07,7.8-18.71s9-.36,29.42.85c12.77.76,14.14-.33,19,1.71,1.35.55,12.28,5.26,16.43,16.15,3.8,9.92-.93,17.46,3.47,20.4,3,2,6.09-1,12.11-.85,9.4.25,17.82,8,21.63,14.45,9.07,15.26-1,34.34,4.33,36.56,3.2,1.33,6.52-5.7,12.11-5.1,9.69,1,13.56,23.58,17.3,22.95,3.1-.52-.48-15.74,7.8-23.81,5.1-5,12.83-5.39,18.16-5.1"/><path class="cls-10" d="M1421.55,444.19a32.51,32.51,0,0,0,12.11,0c6-1.15,9.1-3.61,12.11-5.1,15.49-7.66,35.28,6.36,38.94.85,1.91-2.87-2.39-8.35-.86-9.36,1.28-.85,4.88,2.67,7.79,5.11,5.63,4.73,15.08,4.35,33.74,3.4,21.43-1.09,26.31-4,29.43-6.81,2.45-2.23,2.17-5.22,5.19-6.8,4.23-2.22,8.33.49,14.71,1.7,7.19,1.37,12.69,0,22.5-2.55,11.82-3,10.07-5.44,22.49-8.51,5.37-1.32,9.93-1.91,10.38-4.25.42-2.11-2.92-3.58-6.06-8.51a26,26,0,0,1-3.46-8.5"/><path class="cls-10" d="M1475.2,478.2a94.24,94.24,0,0,1,38.94-17c11.8-2.1,13.82,0,30.28-1.7,9.77-1,22.5-4.39,47.59-11.05,6.33-1.68,16.33-4.8,36.34-11,17.09-5.33,22.89-7.34,23.37-11,.82-6.51-15.34-13.44-19.91-15.3"/><path class="cls-10" d="M1527.12,464.6A107.5,107.5,0,0,0,1554,474.79c12.86,3,17.07,1.43,30.28,3.41,22.36,3.33,20.91,9.4,41.53,12.75,19.44,3.15,25.36-1.48,40.67,4.25a65.85,65.85,0,0,1,19.91,11.9"/><path class="cls-10" d="M1606.73,448.44a94.86,94.86,0,0,0,28.56,11.9c6.33,1.48,18,3.46,62.3-1.7,11-1.28,20-2.53,26-3.4"/><path class="cls-10" d="M1656.05,420.38c11,.81,22.57,1.4,34.6,1.7q18.49.46,35.48,0"/><path class="cls-10" d="M1567.79,319.21a22.84,22.84,0,0,1,6.93-13.6c5.17-4.75,11.15-5.45,15.57-5.95,3.23-.38,16-1.84,26.83,6.8,2.35,1.87,9.86,7.84,11.24,17.85,1.46,10.51-4.39,21.41-14.71,28.06"/><path class="cls-10" d="M1374.82,307.31l6.06-28.06"/><path class="cls-10" d="M1281.38,356.62c4.43,2.07,6.63,1.54,7.79.85,4.21-2.52.28-10.65,5.19-17.85a16.7,16.7,0,0,1,10.38-6.81c7.69-1.39,16.58,4,21.63,13.6"/><path class="cls-10" d="M1289.17,311.56c.61,2.3,2.46,7.89,6.92,9.36,6.93,2.28,15.14-7,16.44-8.5,4.2-4.77,3.81-7.4,9.52-13.6,2.57-2.79,4.23-4.59,6.93-6,6.77-3.42,14.27-1.13,17.31,0"/><path class="cls-10" d="M1342.81,265.65c11.51,9.62,15.69,10.53,17.31,9.36,2.55-1.87-2-8.51.86-15.3,1.1-2.56,3.59-5.94,17.31-11a161.73,161.73,0,0,1,34.61-8.51c10.93-1.47,14.44-1,23.36-3.4a97.75,97.75,0,0,0,16.44-5.95"/><path class="cls-10" d="M1395.59,256.29a35.27,35.27,0,0,1,12.11,6,36.24,36.24,0,0,1,13,20.4"/><path class="cls-10" d="M1439.72,428c3.34.15,16.79.33,28.56-9.36a40.64,40.64,0,0,0,13-19.55"/><path class="cls-10" d="M1663.84,334.51a39.44,39.44,0,0,1,0,32.31"/><path class="cls-10" d="M1702.77,387.23a28.79,28.79,0,0,0,32-5.1"/><path class="cls-10" d="M1631,261.4c.58-.23,6.33-2.57,7.79-8.51a12.67,12.67,0,0,0-6.06-13.6"/><path class="cls-10" d="M1605.86,218.89c-3.29,10.69-8.29,15-12.11,17-6.66,3.47-12.6,1.33-18.17,6-4.15,3.45-5.52,8.51-6.06,11.9"/><path class="cls-10" d="M1513.27,202.74a85.79,85.79,0,0,0-31.15,23.79"/><path class="cls-10" d="M1388.68,386.38c10.17,5.08,15.77,4.33,19,2.55,5.6-3.05,4-8.9,11.25-14.45,4-3.08,5.92-2.35,15.57-6.81a111.81,111.81,0,0,0,11.24-5.95"/><path class="cls-10" d="M1611.91,374.47c1.26.75,16,9.32,28.56,2.55a21.68,21.68,0,0,0,6.93-5.95"/><path class="cls-10" d="M1377.42,354.92l10.38,10.19,13,6.81"/><path class="cls-10" d="M1342.81,337.92a68.87,68.87,0,0,1,29.42,21.25"/><path class="cls-10" d="M1419.82,333.66c-.68,3-2.34,12.08,2.6,21.26a29.46,29.46,0,0,0,6.93,8.5"/><path class="cls-10" d="M1406,354.07l16.44,16.15"/><path class="cls-10" d="M1337.62,275a13.94,13.94,0,0,0-5.2,5.95,13.64,13.64,0,0,0-.86,8.51"/><path class="cls-10" d="M1665.57,253.75c.5,1.46,4.11,12.42-2.6,23a28,28,0,0,1-17.3,11.9"/><path class="cls-10" d="M1682.87,325.16a13.81,13.81,0,0,0,9.53,2.56c6.21-.91,11.52-7.13,12.11-15.3"/><path class="cls-10" d="M1720.08,388.08c2.59,3.4,5.19,6.81,7.79,10.2"/><path class="cls-10" d="M1720.08,318.36V332"/><path class="cls-10" d="M1715.75,294.55v13.6"/><path class="cls-10" d="M1530.57,277.55q1.31,9.78,2.6,19.56"/><path class="cls-10" d="M1509,269.9l13.84,8.51"/><path class="cls-10" d="M1437.13,235q1.72,8.09,3.46,16.15"/><path class="cls-10" d="M1418.09,245.25l-8.66,16.15"/><path class="cls-10" d="M1315.12,309.86c.58,3.12,1.15,6.24,1.73,9.36l9.52,4.25"/><path class="cls-10" d="M1331.56,358.32a13.76,13.76,0,0,1,8.66,4.25,13.33,13.33,0,0,1,3.46,9.36"/><path class="cls-10" d="M1374,410.19q-2.16,10.62-4.33,21.25"/><path class="cls-10" d="M1410.3,463.74c7.22-2.84,11.79-2.15,14.71-.84,4.58,2.05,6.14,6.12,9.52,6,3.06-.17,5.4-3.72,6.93-6.81"/><path class="cls-10" d="M1523.66,462c.78,6.59,3.19,10.46,5.19,12.75,3.23,3.71,6.07,4.1,14.71,10.2,4.38,3.09,4.57,3.64,7.79,6a78.07,78.07,0,0,0,19.9,10.19"/><path class="cls-10" d="M1592.88,235l20.76,3.4"/><path class="cls-10" d="M1483,248.65l-12.11,1.7"/><g class="cls-11"><path class="cls-12" d="M1327.76,136.11q-8.92,26.34-17.81,52.67l14.83,1.43L1302.25,260l10.68,1.43-23.14,81.14,4.15,2.84L1342,228.64l-12.46-2.84,26.71-64.06-13,1.43,11.28-25.63Z"/><path class="cls-12" d="M1399.27,87.72q-8.93,26.34-17.81,52.66l14.83,1.44-22.55,69.74,10.68,1.43-23.14,81.14,4.15,2.85,48.07-116.73L1401,177.4l26.71-64.06-13,1.44L1426,89.15C1417.07,88.66,1408.17,88.2,1399.27,87.72Z"/><path class="cls-13" d="M1252.23,116c.69-5.29,2.41-11.71,7.2-14.18,5.24-2.69,9.7,1.56,14.2-1.3,5.13-3.29,1.61-10.31,7.24-18.45,5-7.25,13.27-9.59,14.25-9.85,8.89-2.42,13.63,2,17-1.29s-.39-8,1.56-17.06c1.76-8.19,6.79-13.53,10.07-17,2.92-3.12,10-10.59,21.36-12.64a38.18,38.18,0,0,1,18.42,1.58c11.49,3.63,13.34,9.59,19.79,8.7,6.18-.86,5.83-6.56,14.27-11.28,7.48-4.18,18.2-5.54,27-1.21,7.59,3.77,11.44,10.72,12.66,12.92,4,7.17,1.87,9.77,5.56,14.27,5.18,6.34,10.84,3.07,18.36,8.7,9.94,7.45,8.81,19.75,14,20,4,.22,4.33-7,11.44-11.3,8.42-5,21.44-2.88,29.75,3.09,9.18,6.59,7.16,13.9,15.46,17.21,7.7,3.06,10.79-2.68,21.27.16,6.09,1.66,10.47,5.08,16.93,10.11,5.09,4,5.52,5.21,11.26,10.06,10.35,8.75,15.57,10.37,15.51,11.5C1596.43,124.85,1447.06,122.1,1252.23,116Z"/><path class="cls-13" d="M1173.34,152.09c.63-5.31,2.31-11.72,7.09-14.23,5.22-2.75,9.7,1.48,14.18-1.43,5.1-3.33,1.53-10.34,7.09-18.51,5-7.31,13.19-9.71,14.17-10,8.87-2.47,13.65,1.88,17-1.43s-.47-8,1.42-17.08c1.71-8.21,6.68-13.58,9.92-17.07,2.91-3.15,9.91-10.67,21.27-12.81A38.08,38.08,0,0,1,1283.94,61c11.53,3.53,13.44,9.48,19.84,8.55,6.17-.89,5.78-6.6,14.18-11.39,7.45-4.24,18.16-5.69,26.94-1.43,7.63,3.7,11.53,10.63,12.75,12.8,4,7.14,1.95,9.76,5.67,14.24,5.24,6.3,10.86,3,18.43,8.55,10,7.36,9,19.68,14.18,19.92,4,.18,4.28-7.08,11.35-11.39,8.39-5.11,21.42-3.07,29.77,2.84,9.22,6.52,7.27,13.85,15.6,17.08,7.72,3,10.78-2.77,21.27,0,6.11,1.6,10.52,5,17,10,5.13,3.92,5.58,5.15,11.35,10,10.42,8.68,15.64,10.24,15.61,11.39C1517.59,158.15,1368.2,156.61,1173.34,152.09Z"/></g></svg>