<svg id="Layer_1" data-name="Layer 1" xmlns="http://www.w3.org/2000/svg" xmlns:xlink="http://www.w3.org/1999/xlink" viewBox="0 0 731 1108"><defs><style>.cls-1{fill:#c4c4c4;}.cls-11,.cls-13,.cls-2,.cls-8{fill:none;}.cls-3{clip-path:url(#clip-path);}.cls-4,.cls-5{stroke:#000;stroke-miterlimit:10;}.cls-5{fill:#fff;}.cls-6{mask:url(#mask);}.cls-7{fill-rule:evenodd;}.cls-8,.cls-9{stroke:#333;}.cls-11,.cls-8,.cls-9{stroke-width:0.5px;}.cls-10{mask:url(#mask-2);}.cls-11,.cls-13{stroke:#dfdfdf;}.cls-12{fill:#dfdfdf;}.cls-13{stroke-width:2px;}.cls-14{fill-opacity:0;}.cls-15{fill:#5398b7;}.cls-16{fill:#909090;}</style><clipPath id="clip-path"><polygon class="cls-2" points="222.89 47.28 736.39 169.36 514.11 1118.57 0.61 996.5 222.89 47.28"/></clipPath><mask id="mask" x="577.69" y="194.39" width="61.46" height="65.41" maskUnits="userSpaceOnUse"><g id="mask0"><path class="cls-1" d="M602.35,236.38l-20.05-42,56.85,13.51Z"/></g></mask><mask id="mask-2" x="663.16" y="229.74" width="19.97" height="28.23" maskUnits="userSpaceOnUse"><g id="mask1"><ellipse cx="667.95" cy="240.29" rx="4.26" ry="4.82" transform="translate(279.68 834.56) rotate(-76.63)"/></g></mask></defs><g class="cls-3"><path class="cls-4" d="M437.26,1098.92,78.07,1013.53c-41.64-9.9-68.34-49.61-59.29-88.25L207.55,119.17c9-38.64,50.52-62.14,92.19-52.24l359.19,85.4c41.64,9.9,68.34,49.6,59.29,88.25l-188.77,806.1C520.41,1085.3,478.9,1108.82,437.26,1098.92Z"/><path class="cls-5" d="M421.45,1075.09l-317-75.37c-41.77-9.93-68.61-49.5-59.6-88L221.27,158.26c9-38.43,50.54-61.77,92.34-51.83l317,75.36c41.77,9.93,68.61,49.5,59.6,88L513.76,1023.25C504.79,1061.68,463.22,1085,421.45,1075.09Z"/><path class="cls-4" d="M597,172.93c-3,12.86-16.84,20.72-30.74,17.42L362.86,142c-13.87-3.3-22.79-16.54-19.77-29.43s16.84-20.72,30.74-17.42l203.4,48.36C591.13,146.8,600,160,597,172.93Z"/><g class="cls-6"><path class="cls-7" d="M597,259.1c13.43,3.19,26.84-4.81,29.94-17.87S621.7,215,608.28,211.8s-26.84,4.81-29.94,17.87S583.61,255.9,597,259.1Zm1.35-6a18.24,18.24,0,1,0-14-22.07A18.5,18.5,0,0,0,598.38,253.09Z"/><path class="cls-7" d="M598.91,251.22a16.21,16.21,0,1,0-12.47-19.62A16.44,16.44,0,0,0,598.91,251.22Zm1.34-6a10.13,10.13,0,1,0-7.79-12.27A10.27,10.27,0,0,0,600.25,245.21Z"/><ellipse cx="602.66" cy="235.45" rx="8.1" ry="8.33" transform="translate(234.2 767.31) rotate(-76.63)"/></g><rect x="541.89" y="216.93" width="4.02" height="6.97" transform="translate(203.67 698.59) rotate(-76.63)"/><rect class="cls-1" x="563.55" y="214.13" width="24.14" height="6.97" transform="translate(230.78 727.3) rotate(-76.63)"/><rect x="555.7" y="214.65" width="18.11" height="6.97" transform="translate(221.91 717.12) rotate(-76.63)"/><rect x="549.36" y="215.92" width="11.07" height="6.97" transform="translate(213.09 708.51) rotate(-76.63)"/><path class="cls-8" d="M639,222.1l26.8,6.37a5.25,5.25,0,0,1,3.79,6.38L667,245.9a5.25,5.25,0,0,1-6.26,4l-26.79-6.37a5.25,5.25,0,0,1-3.8-6.38l2.63-11A5.25,5.25,0,0,1,639,222.1Z"/><path class="cls-9" d="M640,223.8l17.42,4.14a5.25,5.25,0,0,1,3.79,6.38l-2,8.29a5.24,5.24,0,0,1-6.26,4l-17.41-4.14a5.24,5.24,0,0,1-3.8-6.37l2-8.29A5.25,5.25,0,0,1,640,223.8Z"/><g class="cls-10"><rect x="661.6" y="238.48" width="26.46" height="10.75" transform="translate(281.51 843.99) rotate(-76.63)"/></g></g><line class="cls-11" x1="175.51" y1="355.69" x2="643.11" y2="466.85"/><line class="cls-11" x1="164.17" y1="403.36" x2="631.78" y2="514.52"/><line class="cls-11" x1="152.02" y1="454.48" x2="619.62" y2="565.64"/><line class="cls-11" x1="139.54" y1="506.98" x2="607.14" y2="618.14"/><line class="cls-11" x1="127.06" y1="559.48" x2="594.66" y2="670.65"/><line class="cls-11" x1="114.58" y1="611.99" x2="582.18" y2="723.15"/><line class="cls-11" x1="100.78" y1="670.02" x2="568.38" y2="781.18"/><line class="cls-11" x1="86.66" y1="729.43" x2="554.26" y2="840.59"/><line class="cls-11" x1="71.55" y1="792.98" x2="539.15" y2="904.14"/><rect class="cls-12" x="409.87" y="93.93" width="35.5" height="480.63" transform="translate(3.54 672.96) rotate(-76.63)"/><path class="cls-12" d="M243.47,194.85l329.6,78.36a7,7,0,0,1,5,8.5l-8.21,34.54a7,7,0,0,1-8.34,5.32L232,243.21a7,7,0,0,1-5.05-8.5l8.21-34.54A7,7,0,0,1,243.47,194.85Z"/><ellipse class="cls-1" cx="546.88" cy="291.07" rx="13.49" ry="14.46" transform="translate(137.22 755.8) rotate(-76.63)"/><line class="cls-13" x1="540.83" y1="282.03" x2="551.95" y2="300.73"/><line class="cls-13" x1="537.98" y1="297.43" x2="555.67" y2="285.58"/><path d="M241.68,215.59a3.69,3.69,0,0,1,3.27-.73c2.1.5,2.86,2,2.3,4.41l-1.6,6.76-1.7-.41,1.61-6.76a2.44,2.44,0,0,0-.11-1.75,1.93,1.93,0,0,0-1.36-.88,2.44,2.44,0,0,0-1.56.1,3.31,3.31,0,0,0-1.25,1l-1.73,7.29-1.7-.41,3.45-14.5,1.7.4Zm11.82-1.11-.59,2.48,1.85.44-.32,1.35-1.85-.44-1.5,6.33a1.55,1.55,0,0,0,0,1,1.07,1.07,0,0,0,.77.5,4.24,4.24,0,0,0,.84.08l-.34,1.42a5,5,0,0,1-1.35-.12,2.15,2.15,0,0,1-1.54-1.12,3.19,3.19,0,0,1-.1-2.15l1.51-6.34-1.81-.43.32-1.35,1.81.43.59-2.47Zm6.14,1.46-.59,2.48,1.85.44-.32,1.35-1.85-.44-1.51,6.33a1.48,1.48,0,0,0,0,1,1,1,0,0,0,.77.5,4,4,0,0,0,.83.08l-.33,1.41a4.93,4.93,0,0,1-1.35-.11,2.13,2.13,0,0,1-1.54-1.12,3.13,3.13,0,0,1-.1-2.15l1.5-6.34-1.8-.43.32-1.35,1.8.43.59-2.47ZM270,226.54a6.46,6.46,0,0,1-1.93,3.51,3.37,3.37,0,0,1-3.14.76,3.64,3.64,0,0,1-2.56-1.85l-1.17,4.92-1.7-.4,3.37-14.15,1.54.37-.18,1.15a3.54,3.54,0,0,1,3.19-.64,3.42,3.42,0,0,1,2.49,2.06,6.47,6.47,0,0,1,.12,4.11Zm-1.65-.6a4.76,4.76,0,0,0-.07-2.9,2.34,2.34,0,0,0-1.72-1.47,2.57,2.57,0,0,0-2.64.86l-1.16,4.88a2.52,2.52,0,0,0,2,1.95,2.3,2.3,0,0,0,2.17-.53A5.16,5.16,0,0,0,268.37,225.94Zm9,4.77a1.32,1.32,0,0,0-.27-1.22,5,5,0,0,0-1.64-1.11,8.69,8.69,0,0,1-1.88-1.16,3,3,0,0,1-.89-1.21,2.41,2.41,0,0,1-.05-1.39,2.74,2.74,0,0,1,1.53-1.88,4,4,0,0,1,2.84-.24,4.11,4.11,0,0,1,2.52,1.54,3,3,0,0,1,.51,2.55l-1.7-.41a1.64,1.64,0,0,0-.31-1.38,2.17,2.17,0,0,0-1.36-.87,2.38,2.38,0,0,0-1.54.07,1.35,1.35,0,0,0-.78,1,1.07,1.07,0,0,0,.26,1.06,5.54,5.54,0,0,0,1.6,1,9.57,9.57,0,0,1,1.89,1.19,2.94,2.94,0,0,1,.93,1.26,2.46,2.46,0,0,1,.06,1.48,2.76,2.76,0,0,1-1.59,1.95,4.54,4.54,0,0,1-3,.17,5,5,0,0,1-2-.94,3.53,3.53,0,0,1-1.15-1.55,3,3,0,0,1-.11-1.81l1.69.4a1.9,1.9,0,0,0,.35,1.56,2.69,2.69,0,0,0,1.56.91,2.78,2.78,0,0,0,1.63,0A1.3,1.3,0,0,0,277.41,230.71Zm3.42,2.71a1.13,1.13,0,0,1,.43-.69,1.21,1.21,0,0,1,1.58.37,1.15,1.15,0,0,1,.09.82,1,1,0,0,1-.45.66,1,1,0,0,1-.85.11,1,1,0,0,1-.72-.48A1.07,1.07,0,0,1,280.83,233.42Zm2-8.34a1.13,1.13,0,0,1,.43-.69,1,1,0,0,1,.86-.12,1.06,1.06,0,0,1,.72.49,1.1,1.1,0,0,1,.09.82,1.08,1.08,0,0,1-.44.67,1.07,1.07,0,0,1-.86.1,1,1,0,0,1-.72-.48A1.11,1.11,0,0,1,282.82,225.08Zm2.44,11.61-1.45-.35,9.12-13.6,1.44.34Zm5.68,1.35-1.45-.35,9.11-13.6,1.45.34Zm14.52-6.94a5.28,5.28,0,0,0-.82-.26,2.3,2.3,0,0,0-2.61.93L300.31,239l-1.7-.4L301,228.4l1.65.39-.25,1.19a2.7,2.7,0,0,1,2.69-.81,1.74,1.74,0,0,1,.72.31Zm3.39,10.15a4.39,4.39,0,0,1-3-2.14,5.3,5.3,0,0,1-.4-4l.08-.33a6.44,6.44,0,0,1,1.2-2.57,4.71,4.71,0,0,1,2-1.5,4.07,4.07,0,0,1,2.36-.16,3.81,3.81,0,0,1,2.7,2,6,6,0,0,1,.17,4l-.17.72-6.71-1.59a3.79,3.79,0,0,0,.27,2.65,2.75,2.75,0,0,0,1.87,1.42,3,3,0,0,0,1.61,0,4,4,0,0,0,1.32-.74l.84,1.08A4.25,4.25,0,0,1,308.85,241.25Zm2-9.21a2.3,2.3,0,0,0-1.9.36,3.91,3.91,0,0,0-1.38,1.95l5,1.18,0-.13a3.46,3.46,0,0,0-.21-2.22A2.16,2.16,0,0,0,310.82,232Zm4.75,5.12a6.23,6.23,0,0,1,2-3.54,3.72,3.72,0,0,1,5.69,1.25l.35-1.11,1.55.37-2.37,10a4.3,4.3,0,0,1-1.89,2.85,4.26,4.26,0,0,1-3.33.42,5.23,5.23,0,0,1-2-1,3.77,3.77,0,0,1-1.26-1.67l1.13-.84a3.35,3.35,0,0,0,2.33,2,2.61,2.61,0,0,0,2.1-.26A2.85,2.85,0,0,0,321,243.8l.21-.88a3.54,3.54,0,0,1-3.06.55,3.46,3.46,0,0,1-2.48-2.12A6.66,6.66,0,0,1,315.57,237.16Zm1.65.6a4.9,4.9,0,0,0,0,2.89,2.26,2.26,0,0,0,1.69,1.43,2.52,2.52,0,0,0,2.71-.94l1.11-4.66a2.56,2.56,0,0,0-2-2,2.28,2.28,0,0,0-2.17.53A5.29,5.29,0,0,0,317.22,237.76Zm9.89,7.63-1.7-.4,2.43-10.22,1.7.4ZM328.35,232a1.09,1.09,0,0,1,.42-.66.94.94,0,0,1,.82-.12,1,1,0,0,1,.68.47,1.15,1.15,0,0,1,.09.78,1,1,0,0,1-.43.65,1,1,0,0,1-.82.1.94.94,0,0,1-.68-.46A1,1,0,0,1,328.35,232Zm7.89,12.67a1.32,1.32,0,0,0-.26-1.22,4.85,4.85,0,0,0-1.64-1.11,8.3,8.3,0,0,1-1.88-1.17,3,3,0,0,1-.9-1.21,2.38,2.38,0,0,1,0-1.38,2.74,2.74,0,0,1,1.53-1.88,4.06,4.06,0,0,1,2.84-.25,4.17,4.17,0,0,1,2.52,1.55,3,3,0,0,1,.51,2.54l-1.71-.4a1.6,1.6,0,0,0-.3-1.38,2.2,2.2,0,0,0-1.36-.87A2.31,2.31,0,0,0,334,238a1.35,1.35,0,0,0-.79,1,1.11,1.11,0,0,0,.26,1.07,6,6,0,0,0,1.61,1,9.13,9.13,0,0,1,1.89,1.19,3.12,3.12,0,0,1,.93,1.26A2.46,2.46,0,0,1,338,245a2.76,2.76,0,0,1-1.59,2,4.48,4.48,0,0,1-2.95.16,4.88,4.88,0,0,1-2-.93,3.61,3.61,0,0,1-1.16-1.55,3.21,3.21,0,0,1-.11-1.81l1.7.4a1.9,1.9,0,0,0,.34,1.56,2.75,2.75,0,0,0,1.57.91,2.78,2.78,0,0,0,1.63,0A1.27,1.27,0,0,0,336.24,244.7Zm8.58-8.51-.59,2.48,1.85.43-.32,1.35-1.85-.44-1.51,6.34a1.48,1.48,0,0,0,0,1,1,1,0,0,0,.77.5,4,4,0,0,0,.83.08l-.34,1.41a4.89,4.89,0,0,1-1.34-.12,2.16,2.16,0,0,1-1.55-1.11,3.2,3.2,0,0,1-.09-2.15l1.5-6.34-1.8-.43.32-1.35,1.8.43.59-2.47ZM349.7,251a4.36,4.36,0,0,1-2.95-2.14,5.3,5.3,0,0,1-.4-3.95l.08-.32a6.42,6.42,0,0,1,1.2-2.58,4.71,4.71,0,0,1,2-1.5,4,4,0,0,1,2.36-.15,3.77,3.77,0,0,1,2.7,2,6,6,0,0,1,.17,4l-.17.72L348,245.49a3.79,3.79,0,0,0,.27,2.65,2.75,2.75,0,0,0,1.86,1.42,3,3,0,0,0,1.62,0,4,4,0,0,0,1.32-.74l.84,1.08A4.25,4.25,0,0,1,349.7,251Zm2-9.21a2.3,2.3,0,0,0-1.91.37,3.93,3.93,0,0,0-1.37,1.94l5,1.19,0-.14a3.46,3.46,0,0,0-.21-2.22A2.16,2.16,0,0,0,351.67,241.75Zm10.76,2.9a4.64,4.64,0,0,0-.82-.27,2.3,2.3,0,0,0-2.61.93l-1.72,7.25-1.7-.4L358,241.94l1.65.39-.25,1.19a2.7,2.7,0,0,1,2.69-.81,1.88,1.88,0,0,1,.72.31Zm-1.37,7.84a1.18,1.18,0,0,1,.43-.69,1,1,0,0,1,.86-.12,1.06,1.06,0,0,1,.72.49,1.07,1.07,0,0,1,.09.83,1,1,0,0,1-.44.66,1,1,0,0,1-.86.1,1,1,0,0,1-.72-.48A1.11,1.11,0,0,1,361.06,252.49Zm11.54-5.43a5.65,5.65,0,0,0-.82-.26,2.3,2.3,0,0,0-2.61.93L367.44,255l-1.69-.4,2.43-10.22,1.65.39-.26,1.19a2.71,2.71,0,0,1,2.69-.81,1.74,1.74,0,0,1,.72.31Zm.11,3.67a6.4,6.4,0,0,1,1.21-2.56,4.48,4.48,0,0,1,2-1.47,4.28,4.28,0,0,1,2.49-.1,4.23,4.23,0,0,1,2.92,2.22,5.79,5.79,0,0,1,.34,4.14l0,.13a6.4,6.4,0,0,1-1.19,2.55,4.36,4.36,0,0,1-4.55,1.56A4.25,4.25,0,0,1,373,255a5.86,5.86,0,0,1-.34-4.12Zm1.66.62a4.57,4.57,0,0,0,.11,2.91,2.48,2.48,0,0,0,1.8,1.51,2.45,2.45,0,0,0,2.3-.55,5,5,0,0,0,1.46-2.74,4.63,4.63,0,0,0-.13-2.91,2.6,2.6,0,0,0-4.07-1A5,5,0,0,0,374.37,251.35Zm12.52,7a2.49,2.49,0,0,0,1.72-.19,2.11,2.11,0,0,0,1.09-1.24l1.6.38a3.33,3.33,0,0,1-1,1.53,4.26,4.26,0,0,1-3.77.94,4.16,4.16,0,0,1-2.89-2.15,5.83,5.83,0,0,1-.29-4.1l.07-.29a6.64,6.64,0,0,1,1.16-2.53,4.27,4.27,0,0,1,1.95-1.44,4.43,4.43,0,0,1,2.51-.09,4,4,0,0,1,2.52,1.69,3.81,3.81,0,0,1,.55,2.95l-1.6-.38a2.53,2.53,0,0,0-.35-1.8,2.25,2.25,0,0,0-1.46-1,2.41,2.41,0,0,0-2.23.48,4.76,4.76,0,0,0-1.37,2.6L385,254a4.63,4.63,0,0,0,.06,2.89A2.44,2.44,0,0,0,386.89,258.3Zm9.44-1.45-1.33.89-.86,3.59-1.69-.41,3.45-14.5,1.69.4-2.09,8.77,1.18-.9,3.89-2.63,2.06.49-4.87,3.35,2.89,7-2-.47ZM407.26,251l-.58,2.48,1.84.44-.32,1.35-1.85-.44-1.5,6.34a1.52,1.52,0,0,0,0,1,1.11,1.11,0,0,0,.77.51,4.38,4.38,0,0,0,.84.07l-.34,1.42a4.89,4.89,0,0,1-1.34-.12,2.13,2.13,0,0,1-1.55-1.12,3.23,3.23,0,0,1-.1-2.14l1.51-6.34-1.81-.43.33-1.35,1.8.43.59-2.48Zm4.65,5a3.69,3.69,0,0,1,3.27-.73c2.1.5,2.86,2,2.3,4.41l-1.6,6.75-1.7-.4,1.61-6.76a2.44,2.44,0,0,0-.11-1.75,2,2,0,0,0-1.36-.89,2.51,2.51,0,0,0-1.56.11,3.24,3.24,0,0,0-1.25,1L409.78,265l-1.7-.4,3.45-14.51,1.7.41Zm10.57,12.2a4.36,4.36,0,0,1-3-2.14,5.3,5.3,0,0,1-.4-3.95l.08-.32a6.42,6.42,0,0,1,1.2-2.58,4.65,4.65,0,0,1,2-1.5,4,4,0,0,1,2.36-.15,3.73,3.73,0,0,1,2.69,2,6,6,0,0,1,.18,4l-.17.72-6.72-1.59a3.91,3.91,0,0,0,.27,2.65,2.79,2.79,0,0,0,1.87,1.42,2.91,2.91,0,0,0,1.61,0,3.9,3.9,0,0,0,1.33-.74l.84,1.08A4.24,4.24,0,0,1,422.48,268.26Zm2-9.21a2.29,2.29,0,0,0-1.91.37,3.91,3.91,0,0,0-1.37,1.95l5,1.18,0-.14a3.47,3.47,0,0,0-.21-2.22A2.16,2.16,0,0,0,424.45,259.05Zm7.62,8.79,4.32-7.27,1.73.42-6,9.37-1.29-.31L429.68,259l1.73.41Zm5.89-1.59a6.44,6.44,0,0,1,1.21-2.57,4.51,4.51,0,0,1,2-1.47,4.38,4.38,0,0,1,2.49-.1,4.22,4.22,0,0,1,2.93,2.22,5.83,5.83,0,0,1,.34,4.15l0,.12a6.4,6.4,0,0,1-1.19,2.55,4.36,4.36,0,0,1-4.55,1.56,4.25,4.25,0,0,1-2.92-2.22,5.8,5.8,0,0,1-.34-4.12Zm1.65.61a4.56,4.56,0,0,0,.12,2.91,2.62,2.62,0,0,0,4.1,1,5.11,5.11,0,0,0,1.46-2.75,4.56,4.56,0,0,0-.14-2.91,2.45,2.45,0,0,0-1.8-1.53,2.49,2.49,0,0,0-2.27.54A5.1,5.1,0,0,0,439.61,266.86ZM453.19,262l-.59,2.48,1.85.44-.32,1.35-1.85-.44-1.51,6.34a1.45,1.45,0,0,0,0,1,1,1,0,0,0,.77.5,4,4,0,0,0,.83.08l-.34,1.42a4.89,4.89,0,0,1-1.34-.12,2.15,2.15,0,0,1-1.55-1.12,3.2,3.2,0,0,1-.09-2.15l1.5-6.34-1.8-.42.32-1.35,1.8.42.59-2.47Zm4.88,14.78a4.4,4.4,0,0,1-2.95-2.14,5.33,5.33,0,0,1-.4-4l.08-.32a6.55,6.55,0,0,1,1.2-2.58,4.55,4.55,0,0,1,2-1.49,3.91,3.91,0,0,1,2.36-.16,3.73,3.73,0,0,1,2.69,2,6,6,0,0,1,.18,4l-.17.73-6.71-1.6a3.79,3.79,0,0,0,.27,2.65,2.72,2.72,0,0,0,1.86,1.42,2.91,2.91,0,0,0,1.61,0,3.9,3.9,0,0,0,1.33-.74l.84,1.08A4.26,4.26,0,0,1,458.07,276.73Zm2-9.22a2.3,2.3,0,0,0-1.91.37,3.91,3.91,0,0,0-1.37,1.95l5,1.18,0-.13a3.49,3.49,0,0,0-.21-2.23A2.16,2.16,0,0,0,460,267.51Zm4.17,9.51a1.13,1.13,0,0,1,.43-.7,1.23,1.23,0,0,1,1.58.38,1.09,1.09,0,0,1,.09.82,1,1,0,0,1-.44.66,1,1,0,0,1-.86.1,1,1,0,0,1-.72-.48A1.09,1.09,0,0,1,464.21,277Zm9,1.79a2.49,2.49,0,0,0,1.72-.19,2.06,2.06,0,0,0,1.08-1.24l1.61.38a3.27,3.27,0,0,1-1,1.53,3.85,3.85,0,0,1-1.74.92,4.07,4.07,0,0,1-2,0,4.18,4.18,0,0,1-2.9-2.15,5.89,5.89,0,0,1-.28-4.1l.07-.29a6.49,6.49,0,0,1,1.16-2.53,4.27,4.27,0,0,1,1.95-1.44,4.43,4.43,0,0,1,2.51-.09,4,4,0,0,1,2.52,1.69,3.81,3.81,0,0,1,.55,2.95l-1.61-.38a2.48,2.48,0,0,0-.34-1.8,2.25,2.25,0,0,0-1.46-1,2.41,2.41,0,0,0-2.24.49,4.74,4.74,0,0,0-1.36,2.6l-.08.33a4.61,4.61,0,0,0,.06,2.88A2.42,2.42,0,0,0,473.17,278.81Zm6.34-2.69a6.27,6.27,0,0,1,1.21-2.56,4.55,4.55,0,0,1,2-1.48,4.38,4.38,0,0,1,2.49-.09,4.22,4.22,0,0,1,2.93,2.22,5.85,5.85,0,0,1,.34,4.14l0,.13a6.44,6.44,0,0,1-1.2,2.54,4.32,4.32,0,0,1-4.54,1.57,4.26,4.26,0,0,1-2.93-2.22,5.83,5.83,0,0,1-.33-4.13Zm1.65.62a4.6,4.6,0,0,0,.11,2.9,2.63,2.63,0,0,0,4.11,1,5.07,5.07,0,0,0,1.45-2.75,4.47,4.47,0,0,0-.13-2.9,2.52,2.52,0,0,0-1.8-1.54,2.49,2.49,0,0,0-2.27.55A5,5,0,0,0,481.16,276.74Zm12.28-2.6-.23,1.14a3.7,3.7,0,0,1,3.26-.62,2.91,2.91,0,0,1,2.44,2.31,4,4,0,0,1,1.56-.88,3.83,3.83,0,0,1,2,0c2.17.52,3,2,2.47,4.35l-1.63,6.85-1.69-.41,1.6-6.74a2.46,2.46,0,0,0-.1-1.75,2.14,2.14,0,0,0-1.5-.93,2.24,2.24,0,0,0-1.7.21,2.44,2.44,0,0,0-1.1,1.39l-1.61,6.78-1.7-.41,1.59-6.69A2,2,0,0,0,495.5,276a2.34,2.34,0,0,0-2.63.93l-1.77,7.46-1.69-.41,2.42-10.21Zm12.48,15-1.45-.35,9.12-13.61,1.44.35Z"/><path d="M236.12,225.76l275.74,65.55-.22.94L235.9,226.7Z"/><rect class="cls-14" x="345.66" y="-51.17" width="23.3" height="283.43" transform="translate(186.58 417.22) rotate(-76.63)"/><path d="M224,329.39a9,9,0,0,1-1.5,3.38,5.24,5.24,0,0,1-2.42,1.85,5.5,5.5,0,0,1-5.61-1.34,5.35,5.35,0,0,1-1.35-2.72,8.63,8.63,0,0,1,.12-3.59l.24-1a8.76,8.76,0,0,1,1.5-3.34,5.41,5.41,0,0,1,2.44-1.88,5.48,5.48,0,0,1,5.63,1.33,5.27,5.27,0,0,1,1.33,2.76,9,9,0,0,1-.18,3.68Zm-1.54-1.3a6.45,6.45,0,0,0-.06-4,3.43,3.43,0,0,0-5.3-1.26,6.39,6.39,0,0,0-1.84,3.4l-.24,1a6.55,6.55,0,0,0,.08,4,3.43,3.43,0,0,0,5.28,1.34,6.5,6.5,0,0,0,1.84-3.45Zm6.41-1.54-.25,1.3a3.68,3.68,0,0,1,3.32-.77q3.14.75,2.3,4.41l-1.6,6.75-1.7-.4,1.61-6.76a2.43,2.43,0,0,0-.11-1.75,2,2,0,0,0-1.36-.89,2.51,2.51,0,0,0-1.56.11,3.06,3.06,0,0,0-1.25,1l-1.73,7.28-1.7-.4,2.43-10.22ZM237,339.29l-1.69-.41,3.45-14.5,1.69.4Zm4.56,1.08-1.69-.4,2.43-10.22,1.69.4ZM242.79,327a1.09,1.09,0,0,1,.42-.66,1,1,0,0,1,.82-.12,1,1,0,0,1,.68.47,1,1,0,0,1,.09.78,1.07,1.07,0,0,1-.42.65,1.19,1.19,0,0,1-1.51-.36A1.08,1.08,0,0,1,242.79,327Zm5.51,4.17-.25,1.3a3.66,3.66,0,0,1,3.32-.77c2.1.5,2.86,2,2.3,4.41l-1.6,6.75-1.7-.4L252,335.7a2.44,2.44,0,0,0-.11-1.75,2,2,0,0,0-1.36-.88,2.51,2.51,0,0,0-1.56.11,3.12,3.12,0,0,0-1.25,1L246,341.42l-1.7-.4,2.43-10.22Zm10.39,13.47a4.42,4.42,0,0,1-3-2.15,5.34,5.34,0,0,1-.39-3.95l.08-.32a6.55,6.55,0,0,1,1.2-2.58,4.55,4.55,0,0,1,2-1.49A3.9,3.9,0,0,1,261,334a3.75,3.75,0,0,1,2.69,2,6,6,0,0,1,.18,4l-.17.73-6.72-1.6a3.9,3.9,0,0,0,.27,2.65,2.76,2.76,0,0,0,1.87,1.42,2.91,2.91,0,0,0,1.61,0,3.9,3.9,0,0,0,1.33-.74l.84,1.08A4.26,4.26,0,0,1,258.69,344.65Zm2-9.22a2.29,2.29,0,0,0-1.91.37,3.91,3.91,0,0,0-1.37,1.95l5,1.18,0-.14a3.41,3.41,0,0,0-.2-2.22A2.16,2.16,0,0,0,260.66,335.43Zm13.81,10.22L281,335.22l1.92.45-8.21,12.58-1.56-.37L271.47,333l1.91.46Zm7.06-1.27a6.44,6.44,0,0,1,1.21-2.57,4.53,4.53,0,0,1,2-1.47,4.46,4.46,0,0,1,2.49-.1,4.19,4.19,0,0,1,2.92,2.23,5.79,5.79,0,0,1,.34,4.14l0,.12a6.33,6.33,0,0,1-1.19,2.55,4.37,4.37,0,0,1-2,1.46,4.3,4.3,0,0,1-2.52.1,4.24,4.24,0,0,1-2.93-2.22,5.85,5.85,0,0,1-.34-4.12Zm1.66.61a4.57,4.57,0,0,0,.11,2.91,2.62,2.62,0,0,0,4.1,1,5,5,0,0,0,1.46-2.75,4.57,4.57,0,0,0-.13-2.91,2.49,2.49,0,0,0-1.8-1.53,2.45,2.45,0,0,0-2.27.55A4.91,4.91,0,0,0,283.19,345Zm13.57-4.91-.59,2.48L298,343l-.32,1.35-1.85-.44-1.51,6.34a1.51,1.51,0,0,0,0,1,1,1,0,0,0,.77.5,3.5,3.5,0,0,0,.83.08l-.33,1.42a4.92,4.92,0,0,1-1.35-.12,2.11,2.11,0,0,1-1.54-1.12,3.13,3.13,0,0,1-.1-2.15l1.5-6.33-1.8-.43.32-1.35,1.8.43.59-2.48Zm4.89,14.78a4.41,4.41,0,0,1-3-2.14,5.32,5.32,0,0,1-.39-4l.07-.32a6.55,6.55,0,0,1,1.2-2.58,4.68,4.68,0,0,1,2-1.49,4,4,0,0,1,2.37-.16,3.78,3.78,0,0,1,2.69,2,6,6,0,0,1,.17,4l-.17.73-6.71-1.6a3.79,3.79,0,0,0,.27,2.65,2.72,2.72,0,0,0,1.87,1.42,3,3,0,0,0,1.61,0,4,4,0,0,0,1.32-.75l.84,1.08A4.24,4.24,0,0,1,301.65,354.86Zm2-9.21a2.23,2.23,0,0,0-1.9.36,3.87,3.87,0,0,0-1.38,1.95l5,1.18,0-.13a3.5,3.5,0,0,0-.21-2.23A2.12,2.12,0,0,0,303.61,345.65Zm10.76,2.89a5.28,5.28,0,0,0-.82-.26,2.28,2.28,0,0,0-2.61.92l-1.72,7.26-1.7-.41L310,345.84l1.65.39-.25,1.18a2.68,2.68,0,0,1,2.69-.8,1.74,1.74,0,0,1,.72.31Zm10.64,5.8-3.13-.75-1.32,5.56-1.77-.42L322.06,345l4.41,1a5.19,5.19,0,0,1,3.21,1.88,4,4,0,0,1,.49,3.37,3.87,3.87,0,0,1-1.21,2.08,4.15,4.15,0,0,1-2.21,1l1.75,6.58,0,.11-1.88-.44Zm-2.78-2.23,2.7.64a3.07,3.07,0,0,0,2.25-.2,2.46,2.46,0,0,0,1.22-1.69,2.58,2.58,0,0,0-.27-2.13,3.16,3.16,0,0,0-2-1.2l-2.7-.64Zm11.93,10.48a4.44,4.44,0,0,1-3-2.14,5.37,5.37,0,0,1-.39-4l.08-.32a6.55,6.55,0,0,1,1.2-2.58,4.55,4.55,0,0,1,2-1.49,3.9,3.9,0,0,1,2.36-.16,3.76,3.76,0,0,1,2.69,2,5.92,5.92,0,0,1,.18,4l-.17.73-6.72-1.6a3.9,3.9,0,0,0,.27,2.65,2.76,2.76,0,0,0,1.87,1.42,3,3,0,0,0,1.61,0,4.1,4.1,0,0,0,1.33-.75l.84,1.08A4.26,4.26,0,0,1,334.16,362.59Zm2-9.21a2.25,2.25,0,0,0-1.91.36,3.91,3.91,0,0,0-1.37,1.95l5,1.18,0-.13a3.44,3.44,0,0,0-.2-2.23A2.12,2.12,0,0,0,336.13,353.38Zm4.74,5.11a6.3,6.3,0,0,1,2-3.54,3.72,3.72,0,0,1,5.69,1.26l.35-1.12,1.55.37-2.37,10a4.37,4.37,0,0,1-1.89,2.86,4.22,4.22,0,0,1-3.33.41,5.06,5.06,0,0,1-2-1,3.75,3.75,0,0,1-1.26-1.66l1.13-.84a3.38,3.38,0,0,0,2.34,2,2.62,2.62,0,0,0,2.09-.26,2.88,2.88,0,0,0,1.18-1.86l.21-.88a3.52,3.52,0,0,1-3.07.55,3.43,3.43,0,0,1-2.47-2.11A6.68,6.68,0,0,1,340.87,358.49Zm1.66.61a4.79,4.79,0,0,0,0,2.88,2.28,2.28,0,0,0,1.69,1.44,2.55,2.55,0,0,0,2.71-.94l1.11-4.67a2.58,2.58,0,0,0-2-2,2.29,2.29,0,0,0-2.17.54A5.25,5.25,0,0,0,342.53,359.1Zm9.88,7.63-1.69-.41,2.43-10.22,1.69.41Zm1.25-13.37a1.09,1.09,0,0,1,.41-.66,1.16,1.16,0,0,1,1.51.36,1.09,1.09,0,0,1,.08.78,1,1,0,0,1-.42.64,1,1,0,0,1-.82.11,1,1,0,0,1-.68-.46A1,1,0,0,1,353.66,353.36ZM361.55,366a1.35,1.35,0,0,0-.26-1.22,5,5,0,0,0-1.65-1.1,9.36,9.36,0,0,1-1.88-1.17,3.15,3.15,0,0,1-.89-1.21,2.41,2.41,0,0,1-.05-1.39,2.76,2.76,0,0,1,1.53-1.88,4,4,0,0,1,2.85-.24,4.16,4.16,0,0,1,2.51,1.54,3,3,0,0,1,.51,2.55l-1.7-.41a1.65,1.65,0,0,0-.3-1.37,2.25,2.25,0,0,0-1.36-.88,2.34,2.34,0,0,0-1.55.08,1.36,1.36,0,0,0-.78,1,1.11,1.11,0,0,0,.26,1.07,6.18,6.18,0,0,0,1.6,1,9,9,0,0,1,1.9,1.18,3.12,3.12,0,0,1,.93,1.26,2.54,2.54,0,0,1,0,1.48,2.69,2.69,0,0,1-1.58,1.95,4.51,4.51,0,0,1-3,.17,5,5,0,0,1-2-.94,3.61,3.61,0,0,1-1.15-1.55,3.12,3.12,0,0,1-.11-1.81l1.69.4a1.89,1.89,0,0,0,.35,1.56,2.7,2.7,0,0,0,1.56.91,2.81,2.81,0,0,0,1.64,0A1.3,1.3,0,0,0,361.55,366Zm8.57-8.51-.59,2.48,1.85.44-.32,1.35-1.85-.44-1.5,6.34a1.52,1.52,0,0,0,0,1,1.07,1.07,0,0,0,.77.5,3.6,3.6,0,0,0,.84.08l-.34,1.42a5,5,0,0,1-1.35-.12,2.13,2.13,0,0,1-1.54-1.12,3.19,3.19,0,0,1-.1-2.15l1.51-6.33-1.81-.43.33-1.35,1.8.43.59-2.48Zm7.67,6.1a4.64,4.64,0,0,0-.82-.27,2.3,2.3,0,0,0-2.61.93l-1.72,7.25-1.7-.4,2.43-10.22,1.65.39-.25,1.19a2.7,2.7,0,0,1,2.69-.81,1.76,1.76,0,0,1,.71.31ZM383.05,374a3.93,3.93,0,0,1,0-1.13,3.85,3.85,0,0,1-3.12.59,3.52,3.52,0,0,1-2.21-1.42,2.89,2.89,0,0,1-.42-2.4,3,3,0,0,1,1.76-2.19,5.54,5.54,0,0,1,3.53-.1l1.65.39.19-.8a2,2,0,0,0-.19-1.58,2.1,2.1,0,0,0-1.43-.92,2.45,2.45,0,0,0-1.64.11,1.46,1.46,0,0,0-.88,1l-1.7-.4a2.51,2.51,0,0,1,.87-1.35,3.72,3.72,0,0,1,1.7-.79,4.73,4.73,0,0,1,2.08.05,4,4,0,0,1,2.48,1.53,3.35,3.35,0,0,1,.43,2.67l-1.12,4.7a6,6,0,0,0-.19,2.32l0,.15Zm-2.49-2a3,3,0,0,0,1.61-.07,2.55,2.55,0,0,0,1.29-.86L384,369l-1.32-.32q-3.12-.74-3.56,1.14a1.62,1.62,0,0,0,.22,1.41A2.06,2.06,0,0,0,380.56,372Zm11.89-9.18-.59,2.48,1.85.44-.32,1.35-1.85-.44L390,373a1.53,1.53,0,0,0,0,1,1.07,1.07,0,0,0,.77.5,4.24,4.24,0,0,0,.84.08l-.34,1.42a5,5,0,0,1-1.35-.12,2.13,2.13,0,0,1-1.54-1.12,3.19,3.19,0,0,1-.1-2.15l1.51-6.33-1.81-.43.33-1.35,1.8.43.59-2.48Zm2.66,14.05-1.69-.41,2.43-10.21,1.69.4Zm1.24-13.37a1.15,1.15,0,0,1,.42-.66,1.16,1.16,0,0,1,1.51.36,1.17,1.17,0,0,1-.34,1.43,1.19,1.19,0,0,1-1.51-.36A1.11,1.11,0,0,1,396.35,363.51Zm2.27,8.7a6.4,6.4,0,0,1,1.21-2.56,4.58,4.58,0,0,1,2-1.48,4.37,4.37,0,0,1,2.49-.09,4.23,4.23,0,0,1,2.92,2.22,5.79,5.79,0,0,1,.34,4.14l0,.13a6.29,6.29,0,0,1-1.19,2.54,4.34,4.34,0,0,1-4.54,1.57,4.24,4.24,0,0,1-2.93-2.22,5.86,5.86,0,0,1-.34-4.12Zm1.66.62a4.57,4.57,0,0,0,.11,2.91,2.5,2.5,0,0,0,1.8,1.51,2.47,2.47,0,0,0,2.3-.55A5.08,5.08,0,0,0,406,374a4.61,4.61,0,0,0-.13-2.9,2.52,2.52,0,0,0-1.81-1.54,2.47,2.47,0,0,0-2.26.55A5,5,0,0,0,400.28,372.83Zm12.28-2.6-.25,1.3a3.66,3.66,0,0,1,3.32-.77q3.14.75,2.3,4.41l-1.61,6.75-1.69-.4,1.61-6.77a2.44,2.44,0,0,0-.11-1.75,2,2,0,0,0-1.37-.88,2.41,2.41,0,0,0-1.55.11,3.06,3.06,0,0,0-1.25,1l-1.73,7.28-1.7-.4L411,369.85Z"/><path class="cls-15" d="M606.7,307.25a5.3,5.3,0,0,1-2.37,3,5.17,5.17,0,0,1-3.77.35,4.79,4.79,0,0,1-3.37-2.65,7.35,7.35,0,0,1-.31-5l.31-1.33a8.48,8.48,0,0,1,1.46-3.21,5.26,5.26,0,0,1,2.42-1.78,5.2,5.2,0,0,1,3-.11,4.8,4.8,0,0,1,3.11,2,5.29,5.29,0,0,1,.69,3.74l-1.77-.42a4.07,4.07,0,0,0-.43-2.62,3,3,0,0,0-2-1.24,3.21,3.21,0,0,0-3,.65,6.26,6.26,0,0,0-1.82,3.43l-.32,1.33a6.46,6.46,0,0,0,.06,3.78,3,3,0,0,0,2.23,1.93,3.4,3.4,0,0,0,2.4-.15,3.92,3.92,0,0,0,1.61-2.14Zm7.23,6.33a3.9,3.9,0,0,1,0-1.14,3.81,3.81,0,0,1-3.12.6,3.51,3.51,0,0,1-2.2-1.43,2.87,2.87,0,0,1-.42-2.39A3,3,0,0,1,610,307a5.58,5.58,0,0,1,3.52-.09l1.65.39.19-.81a2,2,0,0,0-.18-1.58,2.18,2.18,0,0,0-1.44-.92,2.55,2.55,0,0,0-1.63.11,1.47,1.47,0,0,0-.89,1l-1.7-.4a2.51,2.51,0,0,1,.87-1.35,3.78,3.78,0,0,1,1.7-.8,4.94,4.94,0,0,1,2.09.06,3.92,3.92,0,0,1,2.47,1.53,3.28,3.28,0,0,1,.43,2.66l-1.12,4.71a6.11,6.11,0,0,0-.18,2.32l0,.15Zm-2.5-2a3,3,0,0,0,1.61-.07,2.6,2.6,0,0,0,1.3-.86l.5-2.1-1.33-.31c-2.08-.5-3.26-.11-3.56,1.14a1.66,1.66,0,0,0,.22,1.41A2.14,2.14,0,0,0,611.43,311.58ZM622,304.71l-.25,1.3a3.66,3.66,0,0,1,3.32-.77q3.14.75,2.3,4.41l-1.61,6.75-1.69-.4,1.61-6.77a2.44,2.44,0,0,0-.11-1.75,2,2,0,0,0-1.37-.88,2.41,2.41,0,0,0-1.55.11,3,3,0,0,0-1.25,1L619.7,315l-1.69-.4,2.43-10.22Zm10.59,12a2.38,2.38,0,0,0,1.72-.19,2.07,2.07,0,0,0,1.09-1.23l1.6.38a3.33,3.33,0,0,1-1,1.53,4,4,0,0,1-1.75.92A4.42,4.42,0,0,1,629.4,316a5.83,5.83,0,0,1-.29-4.1l.07-.3a6.66,6.66,0,0,1,1.16-2.52,4.27,4.27,0,0,1,1.95-1.44,4.43,4.43,0,0,1,2.51-.09,4,4,0,0,1,2.52,1.69,3.81,3.81,0,0,1,.55,2.95l-1.61-.38a2.48,2.48,0,0,0-.34-1.8,2.25,2.25,0,0,0-1.46-1,2.41,2.41,0,0,0-2.24.48,4.82,4.82,0,0,0-1.36,2.6l-.08.33a4.64,4.64,0,0,0,.06,2.89A2.41,2.41,0,0,0,632.63,316.71Zm9.62,3.8a4.38,4.38,0,0,1-3-2.14,5.27,5.27,0,0,1-.39-4l.07-.32a6.42,6.42,0,0,1,1.21-2.58,4.57,4.57,0,0,1,2-1.49,4,4,0,0,1,2.35-.16,3.78,3.78,0,0,1,2.7,2,6,6,0,0,1,.17,4l-.17.73-6.71-1.6a3.78,3.78,0,0,0,.27,2.65,2.72,2.72,0,0,0,1.87,1.42,2.92,2.92,0,0,0,1.61,0,3.88,3.88,0,0,0,1.32-.75l.84,1.08A4.24,4.24,0,0,1,642.25,320.51Zm2-9.21a2.26,2.26,0,0,0-1.9.36,3.87,3.87,0,0,0-1.38,1.95l5,1.18,0-.13a3.5,3.5,0,0,0-.21-2.23A2.14,2.14,0,0,0,644.21,311.3ZM650,322.14l-1.7-.4,3.45-14.51,1.69.41Z"/><path class="cls-16" d="M211.25,347.73a2.54,2.54,0,0,0-.53-.17,1.47,1.47,0,0,0-1.67.59l-1.11,4.67-1.09-.26,1.56-6.57,1.06.25-.16.76a1.75,1.75,0,0,1,1.73-.52,1.17,1.17,0,0,1,.46.2Zm2.18,6.52a2.81,2.81,0,0,1-1.9-1.37,3.47,3.47,0,0,1-.25-2.55l.05-.2a4,4,0,0,1,.77-1.66,2.93,2.93,0,0,1,1.3-1,2.55,2.55,0,0,1,1.52-.1,2.43,2.43,0,0,1,1.73,1.3,3.87,3.87,0,0,1,.11,2.58l-.11.47-4.32-1a2.47,2.47,0,0,0,.18,1.7,1.78,1.78,0,0,0,1.2.92,1.88,1.88,0,0,0,1,0,2.62,2.62,0,0,0,.86-.48l.54.69A2.75,2.75,0,0,1,213.43,354.25Zm1.27-5.92a1.46,1.46,0,0,0-1.23.23,2.49,2.49,0,0,0-.88,1.26l3.19.76,0-.09a2.28,2.28,0,0,0-.13-1.43A1.39,1.39,0,0,0,214.7,348.33Zm3.05,3.29a4,4,0,0,1,1.27-2.28,2.25,2.25,0,0,1,2-.47,2.21,2.21,0,0,1,1.61,1.28l.23-.72,1,.24-1.53,6.41a2.83,2.83,0,0,1-1.21,1.84,2.73,2.73,0,0,1-2.14.26,3.24,3.24,0,0,1-1.28-.62,2.49,2.49,0,0,1-.81-1.07l.73-.54a2.16,2.16,0,0,0,1.5,1.3,1.67,1.67,0,0,0,1.34-.17,1.8,1.8,0,0,0,.76-1.19l.13-.57a2.39,2.39,0,0,1-3.56-1A4.27,4.27,0,0,1,217.75,351.62Zm1.06.39a3,3,0,0,0,0,1.85,1.46,1.46,0,0,0,1.08.93,1.65,1.65,0,0,0,1.75-.61l.71-3a1.66,1.66,0,0,0-1.28-1.3,1.47,1.47,0,0,0-1.39.35A3.34,3.34,0,0,0,218.81,352Zm6.36,4.9-1.09-.26,1.56-6.57,1.09.26Zm.79-8.59a.77.77,0,0,1,.27-.42.63.63,0,0,1,.53-.08.61.61,0,0,1,.44.31.66.66,0,0,1,.05.5.62.62,0,0,1-.8.48.61.61,0,0,1-.43-.3A.68.68,0,0,1,226,348.32Zm5.08,8.15a.88.88,0,0,0-.17-.79,3.12,3.12,0,0,0-1.06-.71,5.21,5.21,0,0,1-1.2-.75,1.87,1.87,0,0,1-.58-.78,1.49,1.49,0,0,1,0-.89,1.8,1.8,0,0,1,1-1.21,2.58,2.58,0,0,1,1.83-.15,2.66,2.66,0,0,1,1.62,1,1.92,1.92,0,0,1,.33,1.64l-1.1-.26a1,1,0,0,0-.19-.89,1.43,1.43,0,0,0-.88-.56,1.49,1.49,0,0,0-1,0,.89.89,0,0,0-.5.62.71.71,0,0,0,.16.69,3.73,3.73,0,0,0,1,.66,5.77,5.77,0,0,1,1.21.77,1.86,1.86,0,0,1,.6.81,1.6,1.6,0,0,1,0,.95,1.77,1.77,0,0,1-1,1.25,2.94,2.94,0,0,1-1.9.11,3.21,3.21,0,0,1-1.29-.6,2.38,2.38,0,0,1-.74-1,2,2,0,0,1-.07-1.17l1.09.26a1.2,1.2,0,0,0,.22,1,1.72,1.72,0,0,0,1,.59,1.76,1.76,0,0,0,1.05,0A.84.84,0,0,0,231,356.47Zm5.51-5.47-.38,1.59,1.19.28-.21.87-1.18-.28-1,4.07a1,1,0,0,0,0,.63.68.68,0,0,0,.5.33,3.2,3.2,0,0,0,.54.05l-.22.91a3.48,3.48,0,0,1-.87-.08,1.41,1.41,0,0,1-1-.72,2,2,0,0,1-.06-1.38l1-4.07-1.16-.28.2-.87,1.16.28.38-1.59Zm3.14,9.49a2.83,2.83,0,0,1-1.9-1.37,3.47,3.47,0,0,1-.25-2.55l.05-.2a4.11,4.11,0,0,1,.77-1.66,3.09,3.09,0,0,1,1.3-1,2.55,2.55,0,0,1,1.52-.1,2.45,2.45,0,0,1,1.73,1.3,3.87,3.87,0,0,1,.11,2.58l-.11.47-4.32-1a2.51,2.51,0,0,0,.18,1.71,1.77,1.77,0,0,0,1.2.91,1.88,1.88,0,0,0,1,0,2.62,2.62,0,0,0,.86-.48l.54.7A2.72,2.72,0,0,1,239.69,360.49Zm1.27-5.92a1.5,1.5,0,0,0-1.23.24,2.47,2.47,0,0,0-.88,1.25l3.19.76,0-.09a2.28,2.28,0,0,0-.13-1.43A1.39,1.39,0,0,0,241,354.57Zm6.91,1.86a5.3,5.3,0,0,0-.52-.17,1.47,1.47,0,0,0-1.68.6l-1.11,4.66-1.09-.26,1.56-6.57,1.06.26-.16.76a1.73,1.73,0,0,1,1.73-.52,1.17,1.17,0,0,1,.46.2Zm-.88,5.05a.78.78,0,0,1,.28-.45.68.68,0,0,1,.55-.07.64.64,0,0,1,.46.31.74.74,0,0,1,.07.53.7.7,0,0,1-.29.43.68.68,0,0,1-.55.06A.65.65,0,0,1,247,362,.71.71,0,0,1,247,361.48Zm7.42-3.49a2.54,2.54,0,0,0-.53-.17,1.49,1.49,0,0,0-1.68.59l-1.1,4.67-1.09-.26,1.56-6.57,1.06.25-.16.76a1.74,1.74,0,0,1,1.72-.52,1.16,1.16,0,0,1,.47.2Zm.07,2.36a4.08,4.08,0,0,1,.78-1.65,2.94,2.94,0,0,1,1.31-.95,2.8,2.8,0,0,1,1.6-.06,2.69,2.69,0,0,1,1.88,1.43,3.75,3.75,0,0,1,.22,2.66l0,.08a4.15,4.15,0,0,1-.77,1.64,2.78,2.78,0,0,1-2.92,1,2.72,2.72,0,0,1-1.88-1.42,3.73,3.73,0,0,1-.22-2.65Zm1.07.39a2.92,2.92,0,0,0,.07,1.87,1.68,1.68,0,0,0,2.64.62,3.24,3.24,0,0,0,.93-1.76,2.92,2.92,0,0,0-.08-1.87,1.67,1.67,0,0,0-2.62-.64A3.24,3.24,0,0,0,255.55,360.74Zm8.05,4.47a1.6,1.6,0,0,0,1.1-.12,1.35,1.35,0,0,0,.7-.8l1,.24a2.15,2.15,0,0,1-.63,1,2.82,2.82,0,0,1-4.28-.78,3.72,3.72,0,0,1-.18-2.63l0-.19a4.15,4.15,0,0,1,.75-1.63,2.77,2.77,0,0,1,1.25-.93,2.82,2.82,0,0,1,1.61-.05,2.52,2.52,0,0,1,1.62,1.09,2.42,2.42,0,0,1,.35,1.89l-1-.24a1.6,1.6,0,0,0-.22-1.16,1.45,1.45,0,0,0-.94-.66,1.55,1.55,0,0,0-1.43.32,3,3,0,0,0-.88,1.67l0,.21a3,3,0,0,0,0,1.86A1.56,1.56,0,0,0,263.6,365.21Zm6.07-.93-.86.57-.55,2.31-1.09-.26,2.22-9.33,1.09.26-1.34,5.64.75-.58,2.5-1.69,1.32.31-3.13,2.16,1.86,4.48-1.28-.3Zm7-3.74-.37,1.59,1.19.28-.21.87-1.19-.28-1,4.07a1,1,0,0,0,0,.64.68.68,0,0,0,.49.32,2.47,2.47,0,0,0,.54.05L276,369a3,3,0,0,1-.86-.08,1.34,1.34,0,0,1-1-.71,2.07,2.07,0,0,1-.07-1.39l1-4.07-1.16-.27.21-.87,1.16.27.37-1.59Zm3,3.23a2.37,2.37,0,0,1,2.11-.47c1.34.32,1.83,1.27,1.47,2.84l-1,4.34-1.09-.26,1-4.35a1.63,1.63,0,0,0-.07-1.12,1.25,1.25,0,0,0-.88-.57,1.55,1.55,0,0,0-1,.07,2,2,0,0,0-.81.62l-1.11,4.68-1.09-.26,2.22-9.33,1.09.26Zm6.8,7.85a2.83,2.83,0,0,1-1.9-1.38,3.44,3.44,0,0,1-.26-2.54l.05-.21a4.33,4.33,0,0,1,.78-1.66,3,3,0,0,1,1.29-1,2.64,2.64,0,0,1,1.52-.1,2.41,2.41,0,0,1,1.73,1.3,3.81,3.81,0,0,1,.12,2.58l-.11.47-4.32-1a2.47,2.47,0,0,0,.17,1.7,1.77,1.77,0,0,0,1.2.91,1.92,1.92,0,0,0,1,0,2.46,2.46,0,0,0,.85-.47l.54.69A2.72,2.72,0,0,1,286.48,371.62Zm1.26-5.93a1.47,1.47,0,0,0-1.22.24,2.53,2.53,0,0,0-.89,1.25l3.2.76,0-.08a2.2,2.2,0,0,0-.14-1.43A1.38,1.38,0,0,0,287.74,365.69Zm4.9,5.65,2.78-4.67,1.11.27-3.85,6-.83-.19-.74-7.12,1.11.26Zm3.79-1a4.07,4.07,0,0,1,.78-1.65,2.86,2.86,0,0,1,1.3-.95,2.89,2.89,0,0,1,1.6-.06,2.73,2.73,0,0,1,1.89,1.43,3.71,3.71,0,0,1,.21,2.66v.08a4.22,4.22,0,0,1-.77,1.64,2.81,2.81,0,0,1-2.92,1,2.74,2.74,0,0,1-1.88-1.43,3.73,3.73,0,0,1-.22-2.65Zm1.06.39a3,3,0,0,0,.07,1.87,1.64,1.64,0,0,0,1.16,1,1.59,1.59,0,0,0,1.48-.36,3.25,3.25,0,0,0,.94-1.76,2.92,2.92,0,0,0-.09-1.87,1.65,1.65,0,0,0-2.61-.63A3.18,3.18,0,0,0,297.49,370.71Zm8.73-3.15-.38,1.59,1.19.28-.21.87-1.19-.28-1,4.07a1,1,0,0,0,0,.63.68.68,0,0,0,.5.33,3.06,3.06,0,0,0,.53.05l-.22.91a3,3,0,0,1-.86-.08,1.32,1.32,0,0,1-1-.72,2,2,0,0,1-.07-1.38l1-4.07-1.16-.28.21-.87,1.16.28.38-1.59Zm3.14,9.5a2.83,2.83,0,0,1-1.9-1.38,3.44,3.44,0,0,1-.26-2.54l.05-.21a4.33,4.33,0,0,1,.78-1.66,3.06,3.06,0,0,1,1.29-1,2.56,2.56,0,0,1,1.52-.1,2.41,2.41,0,0,1,1.73,1.3,3.81,3.81,0,0,1,.12,2.58l-.11.47-4.32-1a2.5,2.5,0,0,0,.17,1.71,1.77,1.77,0,0,0,1.21.91,1.89,1.89,0,0,0,1,0,2.63,2.63,0,0,0,.85-.47l.54.69A2.72,2.72,0,0,1,309.36,377.06Zm1.26-5.93a1.47,1.47,0,0,0-1.22.24,2.46,2.46,0,0,0-.88,1.25l3.19.76,0-.09a2.22,2.22,0,0,0-.14-1.43A1.37,1.37,0,0,0,310.62,371.13Zm2.68,6.11a.75.75,0,0,1,.28-.44.64.64,0,0,1,.55-.08.65.65,0,0,1,.46.32.71.71,0,0,1,.07.52.7.7,0,0,1-.29.43.79.79,0,0,1-1-.24A.73.73,0,0,1,313.3,377.24Zm5.76,1.15a1.57,1.57,0,0,0,1.11-.12,1.32,1.32,0,0,0,.7-.8l1,.25a2.07,2.07,0,0,1-.64,1,2.49,2.49,0,0,1-1.12.6,2.86,2.86,0,0,1-3.16-1.37,3.8,3.8,0,0,1-.18-2.64l.05-.19a4.17,4.17,0,0,1,.74-1.62,2.71,2.71,0,0,1,1.26-.93,2.82,2.82,0,0,1,1.61-.05,2.6,2.6,0,0,1,1.62,1.08,2.45,2.45,0,0,1,.35,1.9l-1-.25a1.62,1.62,0,0,0-.22-1.15,1.5,1.5,0,0,0-.94-.66,1.56,1.56,0,0,0-1.44.31,3.11,3.11,0,0,0-.88,1.67l-.05.22a3,3,0,0,0,0,1.85A1.56,1.56,0,0,0,319.06,378.39Zm4.08-1.72a4.07,4.07,0,0,1,.77-1.65,2.94,2.94,0,0,1,1.31-.95,2.89,2.89,0,0,1,1.6-.06,2.7,2.7,0,0,1,1.88,1.43,3.7,3.7,0,0,1,.22,2.66l0,.08a4.07,4.07,0,0,1-.76,1.64,2.83,2.83,0,0,1-1.31.94,2.77,2.77,0,0,1-1.62.06,2.72,2.72,0,0,1-1.88-1.42,3.74,3.74,0,0,1-.21-2.65Zm1.06.39a3,3,0,0,0,.07,1.87,1.62,1.62,0,0,0,1.16,1,1.59,1.59,0,0,0,1.48-.36,3.25,3.25,0,0,0,.94-1.76,2.92,2.92,0,0,0-.09-1.87,1.67,1.67,0,0,0-2.62-.64A3.24,3.24,0,0,0,324.2,377.06Zm7.89-1.67-.14.74a2.36,2.36,0,0,1,2.09-.4,1.86,1.86,0,0,1,1.57,1.48,2.51,2.51,0,0,1,1-.56,2.37,2.37,0,0,1,1.27,0c1.4.33,1.93,1.26,1.59,2.8l-1.05,4.4-1.09-.26,1-4.34a1.48,1.48,0,0,0-.06-1.12,1.39,1.39,0,0,0-1-.6,1.43,1.43,0,0,0-1.1.14,1.52,1.52,0,0,0-.7.89l-1,4.36-1.09-.26,1-4.31a1.27,1.27,0,0,0-1-1.76,1.51,1.51,0,0,0-1.69.6L330.59,382l-1.09-.25,1.56-6.57Z"/><path d="M234.1,284.16l-4.08-1-2.73,11.46-2.75-.65,2.73-11.46-4-1,.54-2.29,10.87,2.58Zm-.5,6.49a6.44,6.44,0,0,1,1.22-2.58,4.36,4.36,0,0,1,2.06-1.45,4.9,4.9,0,0,1,2.64-.06,4.55,4.55,0,0,1,3,2,5.28,5.28,0,0,1,.6,3.78l-.15.7a5.59,5.59,0,0,1-2.17,3.48,5,5,0,0,1-6.84-1.63,5.77,5.77,0,0,1-.36-4.16Zm2.6.83a4,4,0,0,0,0,2.35,1.93,1.93,0,0,0,3,.73,4.29,4.29,0,0,0,1.12-2.31,3.88,3.88,0,0,0,0-2.33,1.79,1.79,0,0,0-1.33-1.15,1.76,1.76,0,0,0-1.69.43A4.4,4.4,0,0,0,236.2,291.48Zm17.3,4.1a6.47,6.47,0,0,1-1.95,3.54,3.38,3.38,0,0,1-3.14.75,3.15,3.15,0,0,1-2.17-1.65L245.1,303l-2.65-.63,3.36-14.14,2.46.58-.15,1a3.14,3.14,0,0,1,2.79-.59,3.41,3.41,0,0,1,2.52,2.07,6.6,6.6,0,0,1,.1,4.1Zm-2.6-.83a4.34,4.34,0,0,0,0-2.32,1.63,1.63,0,0,0-1.24-1.11,1.78,1.78,0,0,0-1.95.58l-1,4.18a1.79,1.79,0,0,0,1.49,1.42C249.5,297.8,250.39,296.89,250.9,294.75Zm18.75,10-2.75-.65,1.41-5.9L263,296.9l-1.4,5.89-2.75-.65,3.27-13.75,2.75.65-1.33,5.57,5.36,1.28,1.32-5.58,2.75.66Zm5,1.19-2.66-.63,2.43-10.22,2.66.64Zm.25-13.53a1.38,1.38,0,0,1,.63-.91,1.54,1.54,0,0,1,1.19-.14,1.49,1.49,0,0,1,1,.65,1.38,1.38,0,0,1,.16,1.11,1.36,1.36,0,0,1-.65.92,1.71,1.71,0,0,1-2.15-.51A1.39,1.39,0,0,1,274.93,292.38Zm8.14,2.08-.6,2.51,1.69.4-.47,2L282,299l-1.21,5.1a1.27,1.27,0,0,0,0,.86,1,1,0,0,0,.74.44,4.32,4.32,0,0,0,.8.12l-.49,2.07a5.47,5.47,0,0,1-1.66-.14q-2.79-.66-2.15-3.57l1.31-5.51L277.9,298l.47-2,1.45.34.6-2.51Z"/><rect class="cls-14" x="213.59" y="53.18" width="23.3" height="11.93" transform="translate(115.6 264.6) rotate(-76.63)"/><path d="M278.35,145.94l1.64.39a3.61,3.61,0,0,0,2.62-.26,2.93,2.93,0,0,0,1.41-2c.49-2.07-.26-3.35-2.27-3.82a3.11,3.11,0,0,0-2.46.3,3,3,0,0,0-1.35,2l-2.18-.52a4.65,4.65,0,0,1,2.31-3.13,6.14,6.14,0,0,1,7.61,1.73,5,5,0,0,1,.51,4,4.12,4.12,0,0,1-1.27,2.06,4.45,4.45,0,0,1-2.35,1.14,4.36,4.36,0,0,1,1.82,2.05,4.48,4.48,0,0,1,.16,2.8,5.07,5.07,0,0,1-2.41,3.42,5.71,5.71,0,0,1-4.25.46,5.87,5.87,0,0,1-3.62-2.28,4.69,4.69,0,0,1-.66-3.92l2.19.52a3.06,3.06,0,0,0,.35,2.45,3.45,3.45,0,0,0,2.17,1.4,3.31,3.31,0,0,0,2.62-.28,3.41,3.41,0,0,0,1.41-2.24,3.1,3.1,0,0,0-.35-2.59,4.06,4.06,0,0,0-2.45-1.48l-1.64-.39Zm8.45,11.26a1.51,1.51,0,0,1,.56-.9,1.31,1.31,0,0,1,1.1-.14,1.26,1.26,0,0,1,.92.63,1.39,1.39,0,0,1,.13,1.05,1.46,1.46,0,0,1-2.61.37A1.39,1.39,0,0,1,286.8,157.2Zm2.56-10.72a1.51,1.51,0,0,1,.56-.9,1.31,1.31,0,0,1,1.1-.14,1.26,1.26,0,0,1,.92.63,1.39,1.39,0,0,1,.13,1.05,1.3,1.3,0,0,1-1.68,1,1.3,1.3,0,0,1-.92-.62A1.39,1.39,0,0,1,289.36,146.48Zm10,15-2.19-.52,3.56-15-4.78.62.48-2,6.82-.94.34.08Zm17-2.23,2.37.56-.43,1.83-2.38-.56-1,4.1-2.19-.52,1-4.1-7.81-1.86.32-1.32,10.59-10.43,2.32.55Zm-7.53-1.79,5.34,1.26,2.06-8.67-.38.43Z"/><path class="cls-4" d="M668.61,244.55a4.34,4.34,0,0,0,1.83-8.28Z"/></svg>