<svg xmlns="http://www.w3.org/2000/svg" xmlns:xlink="http://www.w3.org/1999/xlink" viewBox="0 0 4105.44 2707.64"><defs><style>.cls-1,.cls-12{fill:none;}.cls-13,.cls-2{fill:#31221b;}.cls-3{fill:#594a42;}.cls-4,.cls-5{fill:#c49a6c;}.cls-4{stroke:#8b5e3c;}.cls-11,.cls-12,.cls-4,.cls-7,.cls-9{stroke-miterlimit:10;}.cls-4,.cls-7,.cls-9{stroke-width:2px;}.cls-6{fill:#8b5e3c;}.cls-7{fill:#c2705b;}.cls-7,.cls-9{stroke:#945545;}.cls-11,.cls-8{fill:#231f20;}.cls-8{opacity:0.25;}.cls-9{fill:#945545;opacity:0.3;}.cls-10{fill:#56443b;}.cls-11,.cls-12{stroke:#231f20;}.cls-12{stroke-width:3px;}.cls-13{opacity:0.2;}.cls-14{opacity:0.6;}.cls-15{clip-path:url(#clip-path);}.cls-16{fill:#5499b8;}.cls-17{fill:#fff8dd;}.cls-18{clip-path:url(#clip-path-2);}.cls-19{fill:#8d1c22;}.cls-20{opacity:0.4;}.cls-169,.cls-21{fill:#fff;}.cls-21{opacity:0.3;}.cls-100,.cls-101,.cls-102,.cls-103,.cls-104,.cls-105,.cls-106,.cls-107,.cls-108,.cls-109,.cls-110,.cls-111,.cls-112,.cls-113,.cls-114,.cls-115,.cls-116,.cls-117,.cls-118,.cls-119,.cls-120,.cls-121,.cls-122,.cls-123,.cls-124,.cls-125,.cls-126,.cls-127,.cls-128,.cls-129,.cls-130,.cls-131,.cls-132,.cls-133,.cls-134,.cls-135,.cls-136,.cls-137,.cls-138,.cls-139,.cls-140,.cls-141,.cls-142,.cls-143,.cls-144,.cls-145,.cls-146,.cls-147,.cls-148,.cls-149,.cls-150,.cls-151,.cls-152,.cls-153,.cls-154,.cls-155,.cls-156,.cls-157,.cls-158,.cls-159,.cls-160,.cls-161,.cls-162,.cls-163,.cls-164,.cls-165,.cls-166,.cls-167,.cls-168,.cls-169,.cls-21,.cls-23,.cls-24,.cls-25,.cls-26,.cls-27,.cls-28,.cls-29,.cls-30,.cls-31,.cls-32,.cls-33,.cls-34,.cls-35,.cls-36,.cls-37,.cls-38,.cls-39,.cls-40,.cls-41,.cls-42,.cls-43,.cls-44,.cls-45,.cls-46,.cls-47,.cls-48,.cls-49,.cls-50,.cls-51,.cls-52,.cls-53,.cls-54,.cls-55,.cls-56,.cls-57,.cls-58,.cls-59,.cls-60,.cls-61,.cls-62,.cls-63,.cls-64,.cls-65,.cls-66,.cls-67,.cls-68,.cls-69,.cls-70,.cls-71,.cls-72,.cls-73,.cls-74,.cls-75,.cls-76,.cls-77,.cls-78,.cls-79,.cls-80,.cls-81,.cls-82,.cls-83,.cls-84,.cls-85,.cls-86,.cls-87,.cls-88,.cls-89,.cls-90,.cls-91,.cls-92,.cls-93,.cls-94,.cls-95,.cls-96,.cls-97,.cls-98,.cls-99{isolation:isolate;}.cls-100,.cls-101,.cls-102,.cls-103,.cls-104,.cls-105,.cls-106,.cls-107,.cls-108,.cls-109,.cls-110,.cls-111,.cls-112,.cls-113,.cls-114,.cls-115,.cls-116,.cls-117,.cls-118,.cls-119,.cls-120,.cls-121,.cls-122,.cls-123,.cls-124,.cls-125,.cls-126,.cls-127,.cls-128,.cls-129,.cls-130,.cls-131,.cls-132,.cls-133,.cls-134,.cls-135,.cls-136,.cls-137,.cls-138,.cls-139,.cls-140,.cls-141,.cls-142,.cls-143,.cls-144,.cls-145,.cls-146,.cls-147,.cls-148,.cls-149,.cls-150,.cls-151,.cls-152,.cls-153,.cls-154,.cls-155,.cls-156,.cls-157,.cls-158,.cls-159,.cls-160,.cls-161,.cls-162,.cls-163,.cls-164,.cls-165,.cls-166,.cls-167,.cls-168,.cls-169,.cls-22,.cls-23,.cls-24,.cls-25,.cls-26,.cls-27,.cls-28,.cls-29,.cls-30,.cls-31,.cls-32,.cls-33,.cls-34,.cls-35,.cls-36,.cls-37,.cls-38,.cls-39,.cls-40,.cls-41,.cls-42,.cls-43,.cls-44,.cls-45,.cls-46,.cls-47,.cls-48,.cls-49,.cls-50,.cls-51,.cls-52,.cls-53,.cls-54,.cls-55,.cls-56,.cls-57,.cls-58,.cls-59,.cls-60,.cls-61,.cls-62,.cls-63,.cls-64,.cls-65,.cls-66,.cls-67,.cls-68,.cls-69,.cls-70,.cls-71,.cls-72,.cls-73,.cls-74,.cls-75,.cls-76,.cls-77,.cls-78,.cls-79,.cls-80,.cls-81,.cls-82,.cls-83,.cls-84,.cls-85,.cls-86,.cls-87,.cls-88,.cls-89,.cls-90,.cls-91,.cls-92,.cls-93,.cls-94,.cls-95,.cls-96,.cls-97,.cls-98,.cls-99{opacity:0.8;}.cls-23{fill:#818285;}.cls-24{fill:#818485;}.cls-25{fill:#828486;}.cls-26{fill:#838587;}.cls-27{fill:#848588;}.cls-28{fill:#848688;}.cls-29{fill:#858789;}.cls-30{fill:#85878a;}.cls-31{fill:#86888b;}.cls-32{fill:#878a8c;}.cls-33{fill:#898a8c;}.cls-34{fill:#888a8d;}.cls-35{fill:#898b8e;}.cls-36{fill:#8a8c8e;}.cls-37{fill:#8c8e8f;}.cls-38{fill:#8b8e90;}.cls-39{fill:#8d8f92;}.cls-40{fill:#8d9092;}.cls-41{fill:#8e9092;}.cls-42{fill:#8e9193;}.cls-43{fill:#8f9194;}.cls-44{fill:#909295;}.cls-45{fill:#919495;}.cls-46{fill:#919496;}.cls-47{fill:#929497;}.cls-48{fill:#939598;}.cls-49{fill:#949698;}.cls-50{fill:#949699;}.cls-51{fill:#95979a;}.cls-52{fill:#96989b;}.cls-53{fill:#97999b;}.cls-54{fill:#979a9c;}.cls-55{fill:#989a9d;}.cls-56{fill:#999a9d;}.cls-57{fill:#999c9e;}.cls-58{fill:#9a9d9f;}.cls-59{fill:#9b9da0;}.cls-60{fill:#9c9ea1;}.cls-61{fill:#9d9fa2;}.cls-62{fill:#9da1a2;}.cls-63{fill:#9ea0a3;}.cls-64{fill:#9fa1a4;}.cls-65{fill:#a1a2a4;}.cls-66{fill:#a1a3a5;}.cls-67{fill:#a1a3a6;}.cls-68{fill:#a3a5a8;}.cls-69{fill:#a4a6a9;}.cls-70{fill:#a5a7a9;}.cls-71{fill:#a6a8aa;}.cls-72{fill:#a7a9ac;}.cls-73{fill:#a8aaad;}.cls-74{fill:#a9abae;}.cls-75{fill:#aaabad;}.cls-76{fill:#aaadaf;}.cls-77{fill:#abadaf;}.cls-78{fill:#acadb0;}.cls-79{fill:#adaeb0;}.cls-80{fill:#afb0b2;}.cls-81{fill:#afb1b3;}.cls-82{fill:#b0b1b4;}.cls-83{fill:#b1b3b5;}.cls-84{fill:#b2b4b5;}.cls-85{fill:#b3b5b6;}.cls-86{fill:#b3b4b7;}.cls-87{fill:#b3b5b8;}.cls-88{fill:#b4b6b8;}.cls-89{fill:#b6b8ba;}.cls-90{fill:#b7b9ba;}.cls-91{fill:#b8b9bb;}.cls-92{fill:#b8b9bc;}.cls-93{fill:#b9babc;}.cls-94{fill:#b9bbbd;}.cls-95{fill:#babcbe;}.cls-96{fill:#bbbdbf;}.cls-97{fill:#bdbec0;}.cls-98{fill:#bebfc1;}.cls-99{fill:#bfc0c2;}.cls-100{fill:#bfc1c3;}.cls-101{fill:#c0c2c4;}.cls-102{fill:#c2c3c4;}.cls-103{fill:#c2c4c5;}.cls-104{fill:#c3c5c7;}.cls-105{fill:#c5c6c8;}.cls-106{fill:#c6c6c8;}.cls-107{fill:#c6c7c9;}.cls-108{fill:#c6c8c9;}.cls-109{fill:#c7c9ca;}.cls-110{fill:#c8cacb;}.cls-111{fill:#c9cbcc;}.cls-112{fill:#cacbcc;}.cls-113{fill:#cbccce;}.cls-114{fill:#cbcdcf;}.cls-115{fill:#cccfd1;}.cls-116{fill:#ced0d1;}.cls-117{fill:#cfd0d1;}.cls-118{fill:#cfd0d3;}.cls-119{fill:#d1d2d3;}.cls-120{fill:#d0d2d3;}.cls-121{fill:#d2d3d4;}.cls-122{fill:#d3d3d5;}.cls-123{fill:#d4d4d6;}.cls-124{fill:#d4d5d7;}.cls-125{fill:#d5d7d7;}.cls-126{fill:#d6d8d8;}.cls-127{fill:#d6d7d9;}.cls-128{fill:#d7d8da;}.cls-129{fill:#d8d9da;}.cls-130{fill:#d9dadb;}.cls-131{fill:#d9dbdc;}.cls-132{fill:#dbdddd;}.cls-133{fill:#dbdcde;}.cls-134{fill:#dcddde;}.cls-135{fill:#dddedf;}.cls-136{fill:#dfe0e0;}.cls-137{fill:#dee0e1;}.cls-138{fill:#e0e1e2;}.cls-139{fill:#e1e2e2;}.cls-140{fill:#e2e3e4;}.cls-141{fill:#e3e4e5;}.cls-142{fill:#e5e5e6;}.cls-143{fill:#e5e6e7;}.cls-144{fill:#e6e7e7;}.cls-145{fill:#e8e8e8;}.cls-146{fill:#e9e8e9;}.cls-147{fill:#e9e9e9;}.cls-148{fill:#e9e9ea;}.cls-149{fill:#eaeaec;}.cls-150{fill:#ebeceb;}.cls-151{fill:#eceded;}.cls-152{fill:#eeeded;}.cls-153{fill:#efeeee;}.cls-154{fill:#efeff0;}.cls-155{fill:#f0f1f1;}.cls-156{fill:#f1f1f1;}.cls-157{fill:#f2f2f2;}.cls-158{fill:#f3f2f3;}.cls-159{fill:#f3f3f3;}.cls-160{fill:#f3f4f4;}.cls-161{fill:#f4f5f5;}.cls-162{fill:#f5f6f6;}.cls-163{fill:#f6f6f7;}.cls-164{fill:#f7f7f8;}.cls-165{fill:#f7f8f9;}.cls-166{fill:#f8fafb;}.cls-167{fill:#fafbfc;}.cls-168{fill:#fdfeff;}</style><clipPath id="clip-path"><polygon class="cls-1" points="2434.89 78.42 3870.44 -195.14 4150.86 1180.07 2715.32 1453.62 2434.89 78.42"/></clipPath><clipPath id="clip-path-2"><polygon class="cls-1" points="30.37 30.55 1475.54 18.84 1480.99 1336.59 35.82 1348.29 30.37 30.55"/></clipPath></defs><g id="Layer_8" data-name="Layer 8"><rect class="cls-2" x="1811.16" y="832.23" width="465.72" height="176.67"/><path class="cls-3" d="M1751.88,1606.13c-4.94,6.32-4.35,13.06-8.21,34-4.18,22.61-7.87,31.09-12.32,48.57-10.16,39.89-7.25,60-14.37,109.27-6.62,45.78-11.54,45.19-20.53,94.7-2.76,15.18-8.28,48.17-12.32,116.55-6.2,104.83-2.81,189-2.06,206.4.38,8.64,0-.71,14.25,161.25,4.82,54.93,6.78,77.85,8.34,96.14,8.29,97.6,7.64,93.91,10.26,123.84,12.1,138,17.85,178.32,45.17,201.54,14.05,11.94,31.27,13.63,65.7,17,51.76,5.07,119.45,11.7,149.87-31.57,11.38-16.18,7.82-25.49,10.27-145.69,1.54-75.81,3.38-92.76,4-119.19.4-17.22.1-26.42.1-36.22,0-36.14,3-40.41,5.8-92.27,2.5-46.47.67-53.86,5.25-80.27,1.74-10,3.19-16.69,5.38-31.43,3-19.92,1.45-38.17,4.1-55.85,3.28-21.78,13.14-44.34,18.48-43.7,3.31.39,4.29,9.63,6.16,26.71,7.18,65.71,12.07,111.16,12.32,131.12.57,45.89,1-15.66,6.16,157.83,3.83,128.35,8.37,113.53,4.1,165.12-7.22,87.38-27.37,108.66-7.07,135.1,27.26,35.49,91.23,33.12,133.16,31.56,14.37-.53,89.71-3.32,101.8-35.53,2-5.32-.85-4.82.95-22.89,2.06-20.71,7.59-37.69,17.53-98.52,4.7-28.74,10-73.39,20.53-162.69,14.26-120.63,12-115.65,18.48-155.41,8.69-53.24,13.42-66.28,16.42-106.84,3.07-41.4,1.58-74.4,0-109.27-2.23-49.64-5.47-59.82-8.21-116.56-.75-15.59-1-25.78-1.14-33.71-.18-13.15,3-18.12-.16-25.73-3.82-9.07-11.7-13.61-14.81-15.83-16.2-11.52-14.68-39.38-13.06-82.56,0,0,3.46-96.34-1.62-136-4.36-33.93-7.68-34.21-10.27-63.13-2.82-31.45-.75-46.37-10.26-55.85-7.06-7-15.51-6.12-37-4.86-19.83,1.17-39.81-.28-59.54,2.43-9.93,1.37-49.73,1.72-129.34,2.43-75.3.67-113,1-143.72,0-41.73-1.36-84.57,8.78-125.23-2.43C1791.09,1599.79,1763.83,1590.81,1751.88,1606.13Z"/><path class="cls-4" d="M2055.57,1107.25h0c-62.45,0-113.54-38.89-113.54-123.37V902.06c0-84.49,51.09-153.61,113.54-153.61h0c62.45,0,113.54,69.12,113.54,153.61v81.82C2169.11,1068.36,2118,1107.25,2055.57,1107.25Z"/><path class="cls-5" d="M1672.16,1678.8c15.38-8,30.75-7.59,46.9-7.26q.24-27.72,1.53-55.28c1.41-30.37,3.8-61.12,7.1-91.38l8.09-38.38a1.42,1.42,0,0,0,0-.2,685.94,685.94,0,0,0,0-167,2.4,2.4,0,0,0-1.66-2l-129.58-40.54a2.51,2.51,0,0,0-.72-.11,2.42,2.42,0,0,0-1.44.48,2.37,2.37,0,0,0-1,2l2.53,104.43-5.07,72.49-5.08,125.87a1.88,1.88,0,0,0,0,.41l7.64,57.78c14.55,11.17,31.25,20.59,47,29.18C1655.11,1672.85,1663,1682.36,1672.16,1678.8Z"/><path class="cls-6" d="M1593.85,1582.18a.74.74,0,0,1,0-.21l5.08-125.84,5.07-72.6-2.53-104.43a1.22,1.22,0,0,1,.48-1,1,1,0,0,1,.61-.21.93.93,0,0,1,.29,0l129.58,40.53a1.17,1.17,0,0,1,.78,1,684.71,684.71,0,0,1,0,166.83l-8.11,38.48c-3.3,30.3-5.69,61.07-7.1,91.45q-1.29,27.55-1.54,55.3l2.63,0q.24-27.69,1.53-55.25c1.41-30.34,3.8-61.06,7.07-91.21l8.1-38.37c0-.1,0-.2,0-.3a686.73,686.73,0,0,0,0-167.24,3.61,3.61,0,0,0-2.54-3l-129.57-40.53a3.91,3.91,0,0,0-3.43.57,3.54,3.54,0,0,0-1.44,2.9l2.54,104.33L1596.3,1456l-5.09,125.87a3.82,3.82,0,0,0,0,.59l7.48,56.5c1,.77,2,1.52,2.94,2.26Z"/><path class="cls-5" d="M2483.67,1478.2l-5.31-72.42,2.66-104.43a2.35,2.35,0,0,0-1-2,2.65,2.65,0,0,0-1.51-.48,2.79,2.79,0,0,0-.76.11l-135.54,40.54a2.4,2.4,0,0,0-1.73,2,655.35,655.35,0,0,0,0,167,1.87,1.87,0,0,0,0,.25l10.45,42.81c2.53,28.78,4.36,58,5.43,86.88,1.79,48.13,1.53,96.8-.75,145.16,29.51,13.45,55.72,34.28,90.5,42,1.93,0,3.54,1.26,5.33,2.64l.29-3.93L2473,1719.75l15.94-115.2a1.88,1.88,0,0,0,0-.41Z"/><path class="cls-6" d="M2484.92,1478.12l-5.3-72.31,2.65-104.43a3.51,3.51,0,0,0-1.5-2.94,4,4,0,0,0-3.4-.55l-135.53,40.54a3.62,3.62,0,0,0-2.61,3,657.62,657.62,0,0,0,0,167.27c0,.13,0,.25.07.37l10.43,42.73c2.52,28.73,4.35,57.91,5.42,86.73,1.78,47.93,1.53,96.4-.73,144.56l2.47,1.12c2.3-48.56,2.57-97.44.77-145.76-1.07-28.89-2.9-58.14-5.44-86.93l-10.48-43s0-.08,0-.11a655.59,655.59,0,0,1,0-166.7,1.21,1.21,0,0,1,.87-1l135.54-40.53a1.37,1.37,0,0,1,1.13.18,1.18,1.18,0,0,1,.5,1l-2.65,104.54,5.31,72.39,5.31,126a1.21,1.21,0,0,1,0,.19l-15.94,115.15c-.11.54-21,103.49-21.26,104.53l-.24,3.25c.77.56,1.54,1.19,2.38,1.81l.35-4.68c21.24-104.44,21.24-104.49,21.25-104.54l15.95-115.21a4,4,0,0,0,0-.6Z"/><path class="cls-7" d="M1925.62,1001.15c19.2,15.24,11.09,26.69,35.68,48.43,21.48,19,45.16,25.72,59.47,29.79,19.82,5.65,50.08,14.26,83.25,3.73,20.12-6.39,32.41-17,51.53-33.52,0,0,12.33-10.65,51.54-55.88a397.19,397.19,0,0,1,59.47,3.73c39.35,5.45,67.28,15.4,107,29.8,42.46,15.38,63.69,23.07,75.33,33.52a75.62,75.62,0,0,1,10.79,11.77c22.34,30.65,26.95,63.24,28.85,77.63,11.6,87.78,63.51,119.73,40.43,155.63-3.18,4.94-11.74,10.58-28.87,21.86-22.78,15-60.13,36.59-121.24,60.1-35.45,13.64-41.68,13.61-48.89,23.14a32.62,32.62,0,0,0-5.34,9.94c-5.94,18.68,1.37,75.73,1.37,75.73,4.29,31.45-3.38,26.94-1,84.25.94,22.91,2.84,40.12,4,50.56,6.18,54.82,14.22,73.94,12.86,114.76-.46,13.82-1.92,27.82-1.92,27.82-3.27,28.35-9.55,44.33-13.94,102.55-2.72,36.12-.76,36-4,44.69-18.24,49.55-87.41,69.15-134.79,82-106.7,28.82-196.84,17.69-245.79,11.17-73.63-9.8-113.54-26.57-174.43-52.14-38-16-55-26.54-63.43-44.7-13.8-29.8,11.07-46.34,15.86-108,3.63-46.8-9.52-52.26-4-104.3,3.18-29.71,7.66-29.73,15.86-70.77,12.1-60.57,12.07-109.24,11.89-137.82-.46-77.18,2.48-90-7.92-104.29-6.89-9.43-12.08-11.76-63.43-41-75.49-43-82.81-48.46-87.22-59.6-2.48-6.26-3.72-13.5,23.79-89.4,13.1-36.15,23.13-61.38,35.68-89.39,23.23-51.88,30.93-59.27,35.67-63.32,11.27-9.62,18.23-10.92,71.36-33.53,50-21.25,43.32-19.89,51.54-22.35C1812.48,990.79,1885.16,969,1925.62,1001.15Z"/><path class="cls-5" d="M2355.65,1778.87q-.86,18.41-2.12,36.74l-18.21,66.66L2301,1933.16a2.19,2.19,0,0,0-.25.48l-15.95,42.67a2.29,2.29,0,0,0-.12,1.1,294,294,0,0,1-5.28,108,2.29,2.29,0,0,0,.69,2.21,2.6,2.6,0,0,0,1.76.69,2.3,2.3,0,0,0,.58-.07l.42-.09-20.79,10.62a2.47,2.47,0,0,0-1,.92c-.62,1-6,10.55-1,20.84,4.51,9.26,13.94,12,15.79,12.5a2.74,2.74,0,0,0,.64.08,2.55,2.55,0,0,0,.86-.15l116.94-40.53a2.52,2.52,0,0,0,.94-.58l23.92-23.47a2.33,2.33,0,0,0,.6-1l18.61-59.74a2.43,2.43,0,0,0,.1-.6l2.65-89.45,5.87-34.44a1.46,1.46,0,0,0,0-.22l4.43-59.47c-1.79-1.38-3.4-2.64-5.33-2.64C2411.37,1813.14,2385.16,1792.31,2355.65,1778.87Zm-36.26,290.59-16.22,8.28a43.92,43.92,0,0,0,11.31-15.87c0-.07.05-.14.07-.2l10.93-35Z"/><path class="cls-6" d="M2445.78,1883l-5.87,34.44-2.67,89.6a1.06,1.06,0,0,1,0,.31l-18.6,59.73a1.23,1.23,0,0,1-.3.49L2394.37,2091a1.2,1.2,0,0,1-.47.29L2277,2131.83a1.37,1.37,0,0,1-.75,0c-1.75-.44-10.7-3.08-15-11.84-4.76-9.76.31-18.77.91-19.76a1.2,1.2,0,0,1,.49-.46l29.25-14.94-9.76,2.21a1.36,1.36,0,0,1-1.17-.32,1.12,1.12,0,0,1-.34-1.1,295.4,295.4,0,0,0,5.29-108.39,1.26,1.26,0,0,1,.06-.55l16-42.67a.7.7,0,0,1,.13-.24l34.33-50.89.11-.16,18.26-66.84,0-.22q1.24-18.09,2.1-36.26l-2.47-1.13q-.87,18.6-2.13,37.12l-18.14,66.37-34.22,50.72a4,4,0,0,0-.38.74l-15.94,42.66a3.45,3.45,0,0,0-.19,1.65,293.16,293.16,0,0,1-5.25,107.57,3.4,3.4,0,0,0,1,3.31l.14.13-17.88,9.13a3.7,3.7,0,0,0-1.49,1.39c-.66,1.1-6.28,11.09-1,21.92,4.75,9.74,14.67,12.66,16.62,13.15a3.89,3.89,0,0,0,1,.12,4,4,0,0,0,1.29-.22l116.94-40.54a3.79,3.79,0,0,0,1.42-.87l23.92-23.47a3.65,3.65,0,0,0,.9-1.46l18.6-59.74a3.53,3.53,0,0,0,.15-.91l2.65-89.37,5.86-34.36c0-.11,0-.22,0-.32l4.37-58.65c-.84-.61-1.61-1.24-2.38-1.8Z"/><path class="cls-6" d="M2313.35,2061.33l0,.1a43,43,0,0,1-11,15.45l-7,6.23,25.24-12.9,6.18-43.4-2.45-.49Zm4.88,7.37-9.24,4.72a45.89,45.89,0,0,0,6.66-11.13,2.49,2.49,0,0,0,.11-.29l6.3-20.17Z"/><path class="cls-5" d="M1820.88,2091.07c-1.13-5.85-6.86-9.41-10.09-11l-19.85-10.61.43.09a2.83,2.83,0,0,0,.5.05,2.42,2.42,0,0,0,1.71-.71,2.36,2.36,0,0,0,.63-2.19,307.72,307.72,0,0,1-5-108,2.25,2.25,0,0,0-.12-1.09L1773.81,1915a2.23,2.23,0,0,0-.24-.49l-32.82-50.87-18-73.58c-2.85-39.7-4.09-79.78-3.73-119.7-16.15-.33-31.52-.7-46.9,7.26-9.18,3.57-17.05-5.94-23.61-9.51-15.8-8.59-32.5-18-47-29.18l7.6,57.42,20.33,104.57c2,20.87,2.69,39,1.89,53.8l0,.47a89.52,89.52,0,0,0,2.14,26.85,87.17,87.17,0,0,0,6.14,17.25l2.53,89.1a2.11,2.11,0,0,0,.1.61l17.78,59.74a2.35,2.35,0,0,0,.58,1l22.86,23.47a2.33,2.33,0,0,0,.9.58l111.79,40.54a2.37,2.37,0,0,0,.83.14,2.12,2.12,0,0,0,.5,0C1814,2110.89,1822.51,2099.56,1820.88,2091.07ZM1756,2050.8l-5.53-40.7,9.74,33.86a2.31,2.31,0,0,0,.1.28,43.45,43.45,0,0,0,9.65,14Z"/><path class="cls-6" d="M1820.86,2090.87c-1.23-6.35-7.27-10.14-10.71-11.8l-17.13-9.15a2.09,2.09,0,0,0,.22-.2,3.45,3.45,0,0,0,.94-3.23,306.77,306.77,0,0,1-5-107.6,3.47,3.47,0,0,0-.17-1.6l-15.25-42.67a3.43,3.43,0,0,0-.35-.72l-32.71-50.71-17.9-73.3c-2.84-39.65-4.08-79.66-3.72-119.51l-2.63-.06c-.36,40,.89,80.07,3.73,119.81l18,73.76,0,.18,32.92,51a1.19,1.19,0,0,1,.13.25l15.24,42.67a1.2,1.2,0,0,1,.06.59,308.67,308.67,0,0,0,5.06,108.36,1.21,1.21,0,0,1-.32,1.15,1,1,0,0,1-.94.3l-9-2,27.52,14.7c3.07,1.49,8.38,4.78,9.41,10.14,1.53,7.95-6.6,18.61-22.43,21.94a.91.91,0,0,1-.54,0l-111.79-40.53a1.22,1.22,0,0,1-.41-.27l-22.86-23.46a1.1,1.1,0,0,1-.29-.5l-17.79-59.74a1.26,1.26,0,0,1-.05-.33l-2.53-89.33-.11-.21a86.31,86.31,0,0,1-6.06-17,88.46,88.46,0,0,1-2.11-26.53l0-.48c.8-14.88.16-33-1.91-54-.21-1-20.22-104-20.32-104.51l-7.43-56.16q-1.48-1.11-2.94-2.25l7.76,58.7s0,.08,20.33,104.53c2,20.81,2.68,38.85,1.89,53.63l0,.47a90.65,90.65,0,0,0,2.18,27.16,88.44,88.44,0,0,0,6.11,17.26l2.52,88.88a3.31,3.31,0,0,0,.15.88l17.78,59.73a3.56,3.56,0,0,0,.86,1.46l22.87,23.47a3.79,3.79,0,0,0,1.4.9l111.78,40.53a3.94,3.94,0,0,0,1.32.23,4.43,4.43,0,0,0,.8-.08C1813.75,2111.89,1822.6,2099.89,1820.86,2090.87Z"/><path class="cls-6" d="M1753.44,2051.53l22.35,11.94-6.21-6a42.53,42.53,0,0,1-9.39-13.64.88.88,0,0,1,0-.15l-9.75-33.86-2.57.45,5.54,40.7Zm4.16-7.26c0,.14.09.27.14.4a45.3,45.3,0,0,0,5.4,9.28l-7.25-3.87-3-22.31Z"/><path class="cls-8" d="M1989.68,973.17c-4.93,8.54,15.48,47.56,46.1,67.13,46.44,29.69,95.32,1.2,98.81-.91,28.69-17.42,42.87-45.22,58-74.84,20.56-40.31,35.93-92,28.37-98.22-4.11-3.4-12.58,8.63-52.89,51.15-43.19,45.57-51.75,51-58.19,54.58-32.68,17.92-63.74,14.79-69.3,14.15C2009.14,982.6,1993.44,966.67,1989.68,973.17Z"/><path class="cls-9" d="M1960.94,1065.55c5.87-3.18,13.82,10,38.49,21.85,21.73,10.44,42.59,13.19,52.29,14.39,26.62,3.3,43.05-.62,44.26,3.64,1.07,3.76-10.52,10.81-21.17,14.57-6.6,2.34-20.4,6.27-67.35-3.64-30.46-6.43-36-9.66-40.42-14.57C1955.79,1089.31,1954.49,1069,1960.94,1065.55Z"/><path class="cls-4" d="M2242.24,664.69c0,141.85-85.73,338.75-191.48,338.75s-191.49-196.9-191.49-338.75S1945,474.44,2050.76,474.44,2242.24,522.83,2242.24,664.69Z"/><path class="cls-2" d="M2181.81,493.46c.79-2,2.26-6.12.36-9.39-1.36-2.32-6.48-2.75-21.69-10.84-17.8-9.46-16.88-8.65-44.5-18-42.14-14.18-66.26-17.95-98-16.46-16.25.77-51,2.8-85.61,23.68-12.58,7.59-21.21,16-38.49,32.78-32.57,31.68-51.5,50.1-63.5,80.14-10.12,25.33,0,25.75-11.55,61.93-7.63,23.94-15.36,43.3-21.17,60.1-10.14,29.32-16.53,47.79-17.32,72.86-.21,6.66.16,7.86,0,34.6-.12,19.59-.36,25.42,0,36.43.52,16.12,1.46,16.65,2.32,32.76,2.33,43.39-2.79,70.8-4.31,76.37-.2.74-1.28,4.58-2.27,9.92-.41,2.2-.81,4.67-1.13,7.43-1.21,10.19-.08,14.76-4.34,30.78-7.15,26.93-13.93,27.52-19.27,52.19-3.77,17.39-.43,17.24-3.81,43.72-4.69,36.73-11.37,39.09-9,55.21,3.35,22.47,20.85,48.26,41.35,50.42,19,2,22.57-17.85,49.52-29.14,45.35-19,78.27,22.28,120.14,3,28.61-13.18,38.42-44.06,39.84-48.53a68.2,68.2,0,0,0,2.29-10.75c.86-7.27-13-29.5-17-45.71-3.73-15.07,3.55-14.68,2.88-50.64-.32-17.4-2.14-23.56-2.88-25.86-4.59-14.39-11.73-18.8-21.17-32.78-10-14.82-7.29-17.71-19.24-43.72-12.47-27.1-17-27.43-25-45.53-6.74-15.23-7.59-24.2-13.19-65.57-10.63-78.43-11.42-73.45-11.43-85.6,0-24.59,0-50.76,11-83.26,5-14.77,15.23-36.84,34.57-61.66,11.93-15.3,25.77-22.19,33.86-27.74,15-10.31,44.59-11.08,70.62-16.31,17.41-3.5,32.09-3,51.27,0,1.49.23,1.82.31,2.72.45,28.58,4.69,53.45-4.54,53.45-4.54C2165.15,517.72,2178.27,502.47,2181.81,493.46Z"/><path class="cls-10" d="M1841.23,636.88c3.66,1.17,11.82-13.45,30.3-36.71a467.17,467.17,0,0,1,43-47.31c18.47-17.6,29.53-28.15,48.87-38.35,12.5-6.59,29.81-15.49,54.74-17.94,8.2-.81,33.45-3.29,58.64,6.52,7.15,2.79,17.47,7.8,36.17,13.87,17.14,5.57,19.86,5,21.5,4.08,8.1-4.79,2.91-38.65-17.59-53-3.36-2.35-12.45-4.65-30.51-9.15-22.57-5.63-34-8.44-40.84-8-15.5,1-19.68,5.26-37.68,8.73-14,2.69-16.5,2.38-26.84,6.77-18.9,8-30,17.41-49.85,34.27-16.89,14.31-27.06,25.8-41.05,41.6-35.55,40.15-42.83,58.72-45.94,68.53C1841,620.83,1837.71,635.76,1841.23,636.88Z"/><ellipse class="cls-11" cx="1961.72" cy="723.03" rx="14.62" ry="16.1"/><path class="cls-11" d="M1964.3,707.28c21.87,0,40.76,8.31,49.75,20.37a26.72,26.72,0,0,0,1.48-3.17c-8.26-13.21-28.09-22.51-51.23-22.51-25.85,0-47.55,11.59-53.64,27.28.45.73.95,1.44,1.47,2.15C1919.75,717.34,1940.23,707.28,1964.3,707.28Z"/><ellipse class="cls-11" cx="2132.47" cy="719.31" rx="14.62" ry="16.1"/><path class="cls-11" d="M2131.06,704.39c21.87,0,40.77,8.31,49.76,20.37a28.4,28.4,0,0,0,1.48-3.17c-8.27-13.21-28.09-22.51-51.24-22.51-25.84,0-47.55,11.59-53.64,27.28.46.73.95,1.44,1.48,2.14C2086.52,714.45,2107,704.39,2131.06,704.39Z"/><line class="cls-12" x1="1905.02" y1="702.92" x2="1914.19" y2="725.91"/><line class="cls-12" x1="1911.44" y1="696.13" x2="1920.6" y2="719.12"/><line class="cls-12" x1="2187.29" y1="698.37" x2="2178.12" y2="721.37"/><line class="cls-12" x1="2181" y1="692.99" x2="2171.84" y2="715.98"/><line class="cls-12" x1="1919.78" y1="691.46" x2="1927.8" y2="715.01"/><line class="cls-12" x1="1928.26" y1="687.39" x2="1934.35" y2="711.67"/><line class="cls-12" x1="2173.33" y1="688" x2="2165.31" y2="711.55"/><line class="cls-12" x1="2164.85" y1="683.93" x2="2158.76" y2="708.21"/><path class="cls-12" d="M2046,764.84c-5.1,12.08-11,26.79-17.32,43.71-7.27,19.58-8.89,25.69-5.78,31,7.91,13.38,39,9.14,43.34,8.51"/><path class="cls-12" d="M2011.65,917.35a260.83,260.83,0,0,0,82.07-1.54"/><path class="cls-12" d="M2030.53,940.44a69.46,69.46,0,0,0,24,2.31,71.61,71.61,0,0,0,18.07-3.86"/><path class="cls-12" d="M2051.65,899.86c-10.58-9.26-18.18-10-23.26-8.88-7,1.59-9.76,6.62-17.79,11.3-4.65,2.7-8.47,4.4-13.71,5a31.8,31.8,0,0,1-15.78-2.25"/><path class="cls-12" d="M2049.37,899.86c10.59-9.26,18.18-10,23.26-8.88,7,1.59,9.76,6.62,17.79,11.3,4.65,2.7,8.47,4.4,13.71,5a31.78,31.78,0,0,0,15.78-2.25"/><path class="cls-2" d="M2137.2,540.51c1,17.31,10.07,20.81,35.76,62.23,18,29,27.09,44,30.79,63.75s-1.36,22.11,1.16,49.41c3.39,36.61,13.08,38.54,14.24,61.69,2.11,42.14-42.3,55.59-36.46,94.95,1.5,10.05,4.37,10.79,5.67,23.44.76,7.43,1.69,25.95-11.55,56.46-15.85,36.53-30,39.53-32.72,63.75-1.62,14.48,3.18,15.75,5.78,36.42,7.26,57.69-24.93,88.8-5.78,111.11,7.24,8.43,19.2,12.56,25,14.57,2.85,1,15.23,5.06,36.57,3.64a144.61,144.61,0,0,0,36.56-7.29c52.46-17,94.87,12,113.55-7.28,9.38-9.69-.81-17.56-3.85-78.32-2.69-53.6,4-73.24,8.34-83.6,6.88-16.26,10.8-15.7,16-31.75,2.4-7.38,11.41-35.12,2.59-66.78-4.87-17.49-12.6-26.88-16.34-52.32-1-6.6-1.75-9.92-1.34-14.75,1.16-14.05,9.57-21.73,7.69-43.17-2.26-25.81-15.47-26.46-29.62-66.08-10.46-29.26-3.15-28.6-13.76-60.37-6.54-19.59-8.32-16.87-32.79-69.35-9.66-20.72-13.61-30.2-19.19-39.88,0,0-3-5.09-6.2-9.88-10.95-16.5-62.41-78.43-100.14-64.93C2147.6,493.18,2136,519.48,2137.2,540.51Z"/><path class="cls-10" d="M2341.5,800.19c1.61,4.43,4.8,13.85,7.82,32.64,4.59,28.54,1,30.48,5.86,43.23,6.84,18,14.65,16,20.53,31.82,2.78,7.45,3.69,15-3.91,53.84-6.27,32.07-9.49,48.11-13.68,48.13-4.59,0-4.28-15.91-16.62-45.68-8.84-21.32-14.28-25.89-21.5-47.32a166.63,166.63,0,0,1-7.82-31c-3.15-22,1.27-28.69,5.86-72.6,3-28.85,2.69-41.12,6.84-41.61C2330.83,771,2339.66,795.16,2341.5,800.19Z"/><path class="cls-2" d="M2070.55,680.17c2.15,5.91,14.68,5.76,16.21,5.74,5.06-.07,6-1.2,17.19-3.93,1.29-.32,1.48-.35,18.43-3.82l16.51-3.38c14.75-2.7,22.15-4.27,31.43-3.25a90.2,90.2,0,0,1,18.86,4.15c7.15,2.4,12.86,4.31,18.37,9,8.74,7.41,10.52,16.28,12.1,15.74,1.38-.49,1.08-7.71-2.36-13.63-1.4-2.42-3.36-4.28-7.28-8a83.29,83.29,0,0,0-9.74-8.2,76.22,76.22,0,0,0-14.12-8,50.09,50.09,0,0,0-13.87-4.31c-8-1-13.73-.11-20,.63-3.1.37-11.25.82-27.54,1.77-6.88.4-16.49.89-29.46,2.21-9.89,1-15.36,1.84-19.9,6.12C2074.91,669.49,2068.81,675.38,2070.55,680.17Z"/><path class="cls-2" d="M2019.13,682c-2.13,5.92-14.65,5.82-16.19,5.81-5,0-6-1.17-17.21-3.85-1.29-.31-1.47-.35-18.44-3.74l-16.53-3.31c-14.76-2.63-22.17-4.17-31.45-3.11a91.06,91.06,0,0,0-18.84,4.24c-7.13,2.43-12.84,4.37-18.32,9.07-8.71,7.44-10.44,16.32-12,15.78-1.38-.47-1.12-7.7,2.29-13.64,1.39-2.42,3.34-4.29,7.24-8a84,84,0,0,1,9.7-8.24,76.49,76.49,0,0,1,14.08-8.06,50.14,50.14,0,0,1,13.85-4.36c8-1.08,13.73-.18,20,.53,3.1.36,11.26.78,27.55,1.65,6.88.37,16.49.82,29.47,2.08,9.9,1,15.37,1.77,19.93,6C2014.71,671.3,2020.85,677.16,2019.13,682Z"/><path class="cls-13" d="M2136.4,531.71c-.33,4.14-26.47,2.18-67.36,9.11-40.57,6.87-64.23,11.39-88.53,27.32-18.77,12.31-18.23,19.06-55.8,47.35-26.57,20-29.92,19-30.8,18.22-1-.88-1.8-4,25-45.54,22-34,27.23-39.3,32.72-43.71,13.49-10.85,26.31-14.93,42.34-20,39.3-12.52,73.21-8.17,94.3-5.47C2108.47,521.54,2136.74,527.39,2136.4,531.71Z"/><path class="cls-9" d="M1746.32,1262.07c3.13.57.76,17,0,49.17-1.18,49.55,2.7,82.38-4.44,83.79-4.44.87-6.85-11.63-23.09-20-10-5.15-14.14-3.31-17.32-7.28-6.27-7.83,7.27-24.1,19.83-47.36C1740.13,1285.48,1742.46,1261.37,1746.32,1262.07Z"/><path class="cls-9" d="M2292.28,1262.07c4.51-1,14.5,18.9,19.24,36.43,3.73,13.77,3.17,22.19,3.85,36.42a214.42,214.42,0,0,0,2.62,25.87c4.38,25.9,7.2,29.77,7,43.34s-4,12.51-7.7,32.79c-1.79,9.75-2,16-1.93,60.1.08,33.34.21,32.43,0,34.61-2.78,28.9-14.66,60.89-21.17,60.1-11.61-1.41-6.76-107.16-3.85-133,.17-1.47,1.51-13,3.26-29.19,1.37-12.69,2.11-20.11,2.52-23.63C2305.16,1328.42,2284.3,1263.88,2292.28,1262.07Z"/><g class="cls-14"><g class="cls-15"><path class="cls-16" d="M2759.89,22.42c10.12,6.51,40.26,27.76,55,68.3,15.28,42.28,3.87,78.37,0,89.19,6.43,7.68,17.28,18.4,33.7,24.63,19.94,7.61,31.58,2.29,57,7.2,4.75.91,13.75,2.95,49.24,19.62,26,12.25,41.57,19.57,67.37,34.43,67.09,38.66,73.92,53.71,120.19,78.58a434.34,434.34,0,0,0,91.19,36.21,787.65,787.65,0,0,0,144.2-11.82c50-8.87,77.06-18.9,167.73-40.07,39.2-9.15,71.14-15.93,91.21-20.05,47.93-22.81,88.72-23.83,108.87-23,47.74,2.15,82.34,19.68,114.74,36.12a397,397,0,0,1,79.43,53.12c11,10.89,30.58,33.53,38.24,67.37a130.22,130.22,0,0,1,2.93,36.55q-14.73,88.68-29.5,177.34c-1.78,6.84-5.51,24.92,2.93,45,12.62,30.09,42.27,40.43,47.07,42a142.35,142.35,0,0,0,35.29,42,148.29,148.29,0,0,0,38.23,22.35,107.61,107.61,0,0,1,0,50.63,109,109,0,0,1-14.73,33.82,204.69,204.69,0,0,0-14.51-25.81c-10.12-15.24-15.86-19.36-20.71-29.64-3.64-7.68-7.21-19.62-5.16-37.15l-75.13-61.66c-5.09.58-12.41,2.24-18.14,7.51-13.13,12.1-8.69,35-2.63,64.45a306,306,0,0,0,15.68,51.82,135.51,135.51,0,0,1,20.58,47.14c10.79,49-10.19,89.08-17.68,101.95l-5.92,140.68-67.71,81.85a258,258,0,0,1-61.72,8.17,254,254,0,0,1-64.8-7.66q-11.64-12.12-23.29-24.2,44-35.84,88.06-71.69a102.9,102.9,0,0,1-5.08-52.53,105.72,105.72,0,0,1,19.84-46c5.19-36,9.46-105.23-24.93-179.46a312.88,312.88,0,0,0-44-69.2c-8,.59-18.57,2.65-23.32,10-11.42,17.6,24,45.13,25.91,74.24,1.59,24.38-19.81,58.38-113.06,103.28q0,45,0,90a125.91,125.91,0,0,0-42.5,22.9,119.78,119.78,0,0,0-28.16,33.64q-17.7,31-35.35,62a229.58,229.58,0,0,1-76.5,8.94,227.14,227.14,0,0,1-67.65-14,121.29,121.29,0,0,1,8.08-27.87c16.53-38.75,48.06-55.5,80.39-82.1a383.77,383.77,0,0,0,67.41-72.14c-3.59-9.63-7.13-24.12-2.56-39.62,4.92-16.83,15.65-22.23,18.14-37.24,2.57-15.36-5.58-28.24-12.93-39.59-39.74-61.19-59.6-91.78-67.34-96.37-30.84-18.25-44.93,0-147.72,5.54-90,4.88-123.36-6.65-155.51,20.44-14.22,12-20.74,25.38-33.7,52.17A331,331,0,0,0,3115.73,969q14.71,37.93,29.4,75.84a101.64,101.64,0,0,0,19.36,30.63c18.53,20.13,40.62,28,51.21,31q-53,48-106,96.06c-6.28-17.62-27-24.74-41.2-17.62-13.14,6.59-19.24,24.76-10.36,39.68-135.06,13.67-167.31,3.24-171.06-9.23-2.27-7.58,6.19-15.16,25.91-39.75a781.24,781.24,0,0,0,52.56-73.76q2.92-29.52,5.89-59.09a221.22,221.22,0,0,0,16.75-48.32c6-27.21,4.9-47.37,2.62-84.25-2-32.77-3.76-60.78-12.93-96.58-4.32-17-7.45-24.39-25.88-71.77-42.52-109.23-43.48-114.75-54.36-133.57-12.15-21-32-50.69-64.31-82.57-21.06-17.31-37.17-19.32-47.09-18.58-20.43,1.52-31.23,15.73-64.8,39.9a496.36,496.36,0,0,1-47,29.95q-42.69,1.56-85.34,3.15c-10.32-2.22-48.77-11.58-59.45-39.76-4.62-12.14-2.27-24,2.61-47.11a317.42,317.42,0,0,1,18.65-59.29q13.23-18.33,26.5-36.69a132.05,132.05,0,0,1-1-85.11c11.66-35.34,35.18-56.21,45.18-64.18-6.77-6.85-16.38-17.05-27-30.05-24.57-30-36.84-45-41.43-64.25-7.21-30.27,4-55.51,14.45-79,10.18-22.86,17-24.92,19.26-25.19,13-1.48,34.25,18.69,41.45,39.47,3.8,11,2,17.44,7.74,29.7,6.38,13.68,16.52,22.63,23.82,27.93A36.73,36.73,0,0,0,2682.7,163a38.28,38.28,0,0,0,24.25-2.61,132.29,132.29,0,0,1,1.69-54.47,135.71,135.71,0,0,1,16-38.45Q2742.21,45,2759.89,22.42Z"/><path class="cls-17" d="M2635.49,304.17l19.56,26.73,30.37-9.63-18.29,26.15,19.56,26.73-30.86-10.58-18.29,26.15-.79-32.68-30.86-10.57,30.38-9.62Z"/></g></g><g class="cls-14"><g class="cls-18"><path class="cls-19" d="M67.73,258.33C93.21,205.1,129.78,171.94,152,152.2,200.44,109.13,251.17,84.36,290,70c38.22-9.56,79.66-18.27,124.12-25.33a1462.59,1462.59,0,0,1,223-18.05A1262.13,1262.13,0,0,1,964.71,53.69a1241.78,1241.78,0,0,1,132.86,36.77c27.79,7.89,72.42,24.51,113.19,61.28,58.94,53.15,75.66,121.12,94,199.34A669.6,669.6,0,0,1,1322.33,497c1.09,103.25,2.13,212.68-9.87,340.79-8.33,88.71-9.91,143.9-13.06,254.29-1.42,49.33-2.75,120.19,31.63,135,7,3,20.26,5.7,28.23-.23,9.26-6.89,6.51-21.59,5.4-56.81-.59-19.06-.39-34.28-.17-43.24q57.88-1.85,115.73-3.66a528.85,528.85,0,0,1-8.14,83.88c-3.13,17.46-6.93,33.77-11.07,48.77a122.29,122.29,0,0,1-30.86,51.62,129.88,129.88,0,0,1-47.87,30.14q-53.64-.95-107.27-1.85a133.06,133.06,0,0,1-42.48-29.41c-35.8-37.56-36.41-86.91-37.25-129.47-4.29-218.43-14.76-261.48-40.64-272.78-6.25-2.7-16.83-5.09-33.88.28q2.33,213.58,4.61,427.19l-335.92,8.13-1.37-329.86-437.73,6.19,1.35,327.18q-155.25,2.64-310.53,5.23c2.66-111.93.82-202-1.08-259.57,0,0-15.74-480.84-.13-719.23C41.24,350,44.45,307,67.73,258.33Z"/><path class="cls-17" d="M1124.31,328.31l5.53,35.25,34.45,4.63-31,17.16,5.53,35.25L1114.07,396l-31,17.15,15.76-32.39-24.71-24.65,34.45,4.64Z"/></g></g><g class="cls-20"><path class="cls-21" d="M1559.67,1682.62c98.95,0,179.17-80.14,179.17-179s-80.22-179-179.17-179-179.16,80.15-179.16,179S1460.72,1682.62,1559.67,1682.62Z"/><g class="cls-22"><path class="cls-23" d="M2052.72,1931.74c484.69,0,877.61-361,877.61-806.34s-392.92-806.35-877.61-806.35-877.61,361-877.61,806.35S1568,1931.74,2052.72,1931.74Z"/><path class="cls-24" d="M2053.55,1926.66c482.9,0,874.36-359.73,874.36-803.48S2536.45,319.7,2053.55,319.7s-874.36,359.73-874.36,803.48S1570.66,1926.66,2053.55,1926.66Z"/><path class="cls-25" d="M2054.38,1921.5c481.1,0,871.11-358.42,871.11-800.54s-390-800.55-871.11-800.55S1183.27,678.83,1183.27,1121,1573.28,1921.5,2054.38,1921.5Z"/><path class="cls-26" d="M2055.21,1916.49c479.31,0,867.87-357.14,867.87-797.68s-388.56-797.68-867.87-797.68-867.85,357.13-867.85,797.68S1575.91,1916.49,2055.21,1916.49Z"/><path class="cls-27" d="M2056.05,1911.33c477.51,0,864.6-355.82,864.6-794.74s-387.09-794.75-864.6-794.75-864.61,355.82-864.61,794.75S1578.54,1911.33,2056.05,1911.33Z"/><path class="cls-28" d="M2056.88,1906.25c475.71,0,861.36-354.54,861.36-791.88s-385.65-791.88-861.36-791.88S1195.52,677,1195.52,1114.37,1581.16,1906.25,2056.88,1906.25Z"/><path class="cls-29" d="M2057.71,1901.24c473.92,0,858.11-353.26,858.11-789s-384.19-789-858.11-789-858.11,353.26-858.11,789S1583.79,1901.24,2057.71,1901.24Z"/><path class="cls-30" d="M2058.54,1896.08c472.13,0,854.86-351.94,854.86-786.08s-382.73-786.08-854.86-786.08S1203.68,675.86,1203.68,1110,1586.42,1896.08,2058.54,1896.08Z"/><path class="cls-31" d="M2059.37,1891c470.33,0,851.61-350.66,851.61-783.22S2529.7,324.57,2059.37,324.57s-851.6,350.65-851.6,783.21S1589,1891,2059.37,1891Z"/><path class="cls-32" d="M2060.2,1886c468.58,0,848.44-349.38,848.44-780.36S2528.78,325.28,2060.2,325.28s-848.43,349.38-848.43,780.35S1591.63,1886,2060.2,1886Z"/><path class="cls-33" d="M2061.11,1880.83c466.78,0,845.18-348.06,845.18-777.42S2527.89,326,2061.11,326s-845.18,348.06-845.18,777.41S1594.33,1880.83,2061.11,1880.83Z"/><path class="cls-34" d="M2061.94,1875.75c465,0,841.93-346.78,841.93-774.56s-376.94-774.55-841.93-774.55S1220,673.42,1220,1101.19,1597,1875.75,2061.94,1875.75Z"/><path class="cls-35" d="M2062.78,1870.73c463.18,0,838.67-345.49,838.67-771.69S2526,327.36,2062.78,327.36,1224.1,672.85,1224.1,1099,1599.58,1870.73,2062.78,1870.73Z"/><path class="cls-36" d="M2063.61,1865.58c461.39,0,835.42-344.19,835.42-768.76s-374-768.75-835.42-768.75-835.43,344.18-835.43,768.75S1602.21,1865.58,2063.61,1865.58Z"/><path class="cls-37" d="M2064.44,1860.49c459.6,0,832.18-342.9,832.18-765.88S2524,328.72,2064.44,328.72s-832.18,342.9-832.18,765.89S1604.84,1860.49,2064.44,1860.49Z"/><path class="cls-38" d="M2065.27,1855.48c457.8,0,828.93-341.62,828.93-763s-371.13-763-828.93-763-828.93,341.62-828.93,763S1607.47,1855.48,2065.27,1855.48Z"/><path class="cls-39" d="M2066.1,1850.33c456,0,825.68-340.31,825.68-760.09S2522.11,330.15,2066.1,330.15s-825.68,340.3-825.68,760.09S1610.09,1850.33,2066.1,1850.33Z"/><path class="cls-40" d="M2066.93,1845.24c454.22,0,822.43-339,822.43-757.22s-368.21-757.23-822.43-757.23-822.42,339-822.42,757.23S1612.72,1845.24,2066.93,1845.24Z"/><path class="cls-41" d="M2067.77,1840.16c452.41,0,819.17-337.74,819.17-754.36s-366.76-754.36-819.17-754.36-819.18,337.74-819.18,754.36S1615.35,1840.16,2067.77,1840.16Z"/><path class="cls-42" d="M2068.6,1835.07c450.62,0,815.92-336.42,815.92-751.42s-365.3-751.42-815.92-751.42-815.93,336.42-815.93,751.42S1618,1835.07,2068.6,1835.07Z"/><path class="cls-43" d="M2069.43,1830c448.82,0,812.67-335.14,812.67-748.56s-363.85-748.56-812.67-748.56S1256.75,668,1256.75,1081.43,1620.6,1830,2069.43,1830Z"/><path class="cls-44" d="M2070.26,1824.83c447.07,0,809.5-333.82,809.5-745.62s-362.43-745.62-809.5-745.62-809.5,333.82-809.5,745.62S1623.18,1824.83,2070.26,1824.83Z"/><path class="cls-45" d="M2071.17,1819.82c445.27,0,806.24-332.54,806.24-742.76s-361-742.76-806.24-742.76-806.25,332.55-806.25,742.76S1625.89,1819.82,2071.17,1819.82Z"/><path class="cls-46" d="M2072,1814.74c443.48,0,803-331.27,803-739.9S2515.48,335,2072,335s-803,331.26-803,739.89S1628.52,1814.74,2072,1814.74Z"/><path class="cls-47" d="M2072.83,1809.58c441.69,0,799.74-329.95,799.74-737s-358.05-737-799.74-737-799.75,330-799.75,737S1631.14,1809.58,2072.83,1809.58Z"/><path class="cls-48" d="M2073.66,1804.57c439.89,0,796.5-328.67,796.5-734.1s-356.61-734.09-796.5-734.09S1277.17,665,1277.17,1070.47,1633.77,1804.57,2073.66,1804.57Z"/><path class="cls-49" d="M2074.49,1799.48c438.1,0,793.25-327.38,793.25-731.23S2512.59,337,2074.49,337s-793.24,327.39-793.24,731.23S1636.39,1799.48,2074.49,1799.48Z"/><path class="cls-50" d="M2075.32,1794.33c436.3,0,790-326.07,790-728.29s-353.7-728.3-790-728.3-790,326.07-790,728.3S1639,1794.33,2075.32,1794.33Z"/><path class="cls-51" d="M2076.16,1789.32c434.5,0,786.74-324.79,786.74-725.43s-352.24-725.43-786.74-725.43-786.75,324.78-786.75,725.43S1641.65,1789.32,2076.16,1789.32Z"/><path class="cls-52" d="M2077,1784.23c432.71,0,783.49-323.5,783.49-722.56S2509.7,339.1,2077,339.1s-783.5,323.51-783.5,722.57S1644.28,1784.23,2077,1784.23Z"/><path class="cls-53" d="M2077.82,1779.08c430.92,0,780.24-322.19,780.24-719.63s-349.32-719.63-780.24-719.63S1297.58,662,1297.58,1059.45,1646.9,1779.08,2077.82,1779.08Z"/><path class="cls-54" d="M2078.65,1774c429.12,0,777-320.9,777-716.76s-347.87-716.77-777-716.77-777,320.91-777,716.77S1649.53,1774,2078.65,1774Z"/><path class="cls-55" d="M2079.48,1769c427.37,0,773.82-319.62,773.82-713.9s-346.45-713.9-773.82-713.9-773.81,319.62-773.81,713.9S1652.12,1769,2079.48,1769Z"/><path class="cls-56" d="M2080.31,1763.82c425.58,0,770.57-318.31,770.57-711s-345-711-770.57-711-770.56,318.31-770.56,711S1654.74,1763.82,2080.31,1763.82Z"/><path class="cls-57" d="M2081.22,1758.74c423.78,0,767.32-317,767.32-708.1S2505,342.54,2081.22,342.54s-767.31,317-767.31,708.1S1657.44,1758.74,2081.22,1758.74Z"/><path class="cls-58" d="M2082.05,1753.73c422,0,764.07-315.75,764.07-705.24S2504,343.25,2082.05,343.25,1318,659,1318,1048.49,1660.07,1753.73,2082.05,1753.73Z"/><path class="cls-59" d="M2082.88,1748.57c420.19,0,760.82-314.43,760.82-702.3S2503.07,344,2082.88,344s-760.81,314.43-760.81,702.3S1662.7,1748.57,2082.88,1748.57Z"/><path class="cls-60" d="M2083.71,1743.49c418.4,0,757.57-313.15,757.57-699.44s-339.17-699.43-757.57-699.43-757.56,313.14-757.56,699.43S1665.33,1743.49,2083.71,1743.49Z"/><path class="cls-61" d="M2084.55,1738.4c416.59,0,754.31-311.83,754.31-696.5s-337.72-696.5-754.31-696.5-754.32,311.84-754.32,696.5S1668,1738.4,2084.55,1738.4Z"/><path class="cls-61" d="M2085.38,1733.32c414.8,0,751.06-310.55,751.06-693.63s-336.26-693.64-751.06-693.64-751.06,310.55-751.06,693.64S1670.58,1733.32,2085.38,1733.32Z"/><path class="cls-62" d="M2086.21,1728.24c413,0,747.81-309.27,747.81-690.78s-334.81-690.77-747.81-690.77S1338.4,656,1338.4,1037.46,1673.2,1728.24,2086.21,1728.24Z"/><path class="cls-63" d="M2087,1723.15c411.21,0,744.56-308,744.56-687.83S2498.25,347.48,2087,347.48s-744.56,307.95-744.56,687.84S1675.83,1723.15,2087,1723.15Z"/><path class="cls-64" d="M2087.87,1718.07c409.42,0,741.31-306.67,741.31-685s-331.89-685-741.31-685-741.31,306.68-741.31,685S1678.46,1718.07,2087.87,1718.07Z"/><path class="cls-65" d="M2088.7,1713c407.66,0,738.14-305.39,738.14-682.11S2496.36,348.77,2088.7,348.77s-738.13,305.39-738.13,682.11S1681,1713,2088.7,1713Z"/><path class="cls-66" d="M2089.54,1707.83c405.86,0,734.88-304.08,734.88-679.17s-329-679.18-734.88-679.18-734.89,304.08-734.89,679.18S1683.67,1707.83,2089.54,1707.83Z"/><path class="cls-67" d="M2090.37,1702.82c404.07,0,731.63-302.8,731.63-676.31S2494.44,350.2,2090.37,350.2,1358.73,653,1358.73,1026.51,1686.3,1702.82,2090.37,1702.82Z"/><path class="cls-68" d="M2091.2,1697.73c402.28,0,728.38-301.51,728.38-673.44s-326.1-673.45-728.38-673.45-728.38,301.52-728.38,673.45S1688.93,1697.73,2091.2,1697.73Z"/><path class="cls-69" d="M2092.11,1692.58c400.48,0,725.13-300.2,725.13-670.51s-324.65-670.51-725.13-670.51S1367,651.76,1367,1022.07,1691.63,1692.58,2092.11,1692.58Z"/><path class="cls-70" d="M2092.94,1687.57c398.68,0,721.88-298.92,721.88-667.65s-323.2-667.64-721.88-667.64-721.88,298.91-721.88,667.64S1694.25,1687.57,2092.94,1687.57Z"/><path class="cls-71" d="M2093.77,1682.48c396.89,0,718.63-297.63,718.63-664.78s-321.74-664.78-718.63-664.78-718.63,297.63-718.63,664.78S1696.88,1682.48,2093.77,1682.48Z"/><path class="cls-72" d="M2094.6,1677.33c395.09,0,715.38-296.32,715.38-661.85S2489.69,353.64,2094.6,353.64,1379.22,650,1379.22,1015.48,1699.51,1677.33,2094.6,1677.33Z"/><path class="cls-73" d="M2095.43,1672.31c393.3,0,712.13-295,712.13-659s-318.83-659-712.13-659-712.13,295-712.13,659S1702.14,1672.31,2095.43,1672.31Z"/><path class="cls-74" d="M2096.26,1667.23c391.51,0,708.88-293.75,708.88-656.12S2487.77,355,2096.26,355s-708.87,293.75-708.87,656.11S1704.76,1667.23,2096.26,1667.23Z"/><path class="cls-75" d="M2097.1,1662.07c389.7,0,705.62-292.43,705.62-653.18S2486.8,355.71,2097.1,355.71s-705.63,292.44-705.63,653.18S1707.39,1662.07,2097.1,1662.07Z"/><path class="cls-76" d="M2097.93,1657.06c388,0,702.45-291.15,702.45-650.31s-314.5-650.32-702.45-650.32-702.45,291.15-702.45,650.32S1710,1657.06,2097.93,1657.06Z"/><path class="cls-77" d="M2098.76,1651.91c386.16,0,699.2-289.85,699.2-647.38s-313-647.38-699.2-647.38-699.2,289.84-699.2,647.38S1712.6,1651.91,2098.76,1651.91Z"/><path class="cls-78" d="M2099.59,1646.82c384.36,0,695.95-288.56,695.95-644.51S2484,357.79,2099.59,357.79s-695.95,288.56-695.95,644.52S1715.23,1646.82,2099.59,1646.82Z"/><path class="cls-79" d="M2100.42,1641.81c382.57,0,692.7-287.28,692.7-641.65S2483,358.51,2100.42,358.51s-692.7,287.27-692.7,641.65S1717.85,1641.81,2100.42,1641.81Z"/><path class="cls-80" d="M2101.25,1636.66c380.78,0,689.45-286,689.45-638.72S2482,359.22,2101.25,359.22s-689.45,286-689.45,638.72S1720.48,1636.66,2101.25,1636.66Z"/><path class="cls-80" d="M2102.16,1631.57c379,0,686.2-284.68,686.2-635.85s-307.22-635.85-686.2-635.85S1416,644.55,1416,995.72,1723.18,1631.57,2102.16,1631.57Z"/><path class="cls-81" d="M2103,1626.49c377.19,0,683-283.4,683-633s-305.76-633-683-633S1420,643.91,1420,993.5,1725.81,1626.49,2103,1626.49Z"/><path class="cls-82" d="M2103.82,1621.4c375.39,0,679.7-282.08,679.7-630.05s-304.31-630-679.7-630-679.69,282.08-679.69,630.05S1728.44,1621.4,2103.82,1621.4Z"/><path class="cls-83" d="M2104.66,1616.32c373.59,0,676.44-280.8,676.44-627.19s-302.85-627.19-676.44-627.19-676.45,280.8-676.45,627.19S1731.06,1616.32,2104.66,1616.32Z"/><path class="cls-84" d="M2105.49,1611.24c371.79,0,673.19-279.52,673.19-624.33s-301.4-624.32-673.19-624.32-673.2,279.52-673.2,624.32S1733.69,1611.24,2105.49,1611.24Z"/><path class="cls-85" d="M2106.32,1606.15c370,0,669.94-278.2,669.94-621.39s-299.94-621.39-669.94-621.39-670,278.21-670,621.39S1736.32,1606.15,2106.32,1606.15Z"/><path class="cls-86" d="M2107.15,1601.07c368.25,0,666.77-276.93,666.77-618.53S2475.4,364,2107.15,364s-666.77,276.92-666.77,618.52S1738.9,1601.07,2107.15,1601.07Z"/><path class="cls-87" d="M2108,1596c366.45,0,663.52-275.64,663.52-615.66S2474.43,364.66,2108,364.66s-663.52,275.65-663.52,615.66S1741.53,1596,2108,1596Z"/><path class="cls-88" d="M2108.81,1590.9c364.66,0,660.27-274.33,660.27-612.72s-295.61-612.73-660.27-612.73-660.26,274.33-660.26,612.73S1744.16,1590.9,2108.81,1590.9Z"/><path class="cls-89" d="M2109.65,1585.82c362.86,0,657-273,657-609.86s-294.15-609.86-657-609.86-657,273-657,609.86S1746.78,1585.82,2109.65,1585.82Z"/><path class="cls-90" d="M2110.48,1580.73c361.06,0,653.76-271.76,653.76-607s-292.7-607-653.76-607-653.77,271.76-653.77,607S1749.41,1580.73,2110.48,1580.73Z"/><path class="cls-91" d="M2111.31,1575.65c359.27,0,650.51-270.45,650.51-604.06s-291.24-604.06-650.51-604.06S1460.79,638,1460.79,971.59,1752,1575.65,2111.31,1575.65Z"/><path class="cls-92" d="M2112.21,1570.56c357.48,0,647.27-269.16,647.27-601.19s-289.79-601.2-647.27-601.2S1465,637.34,1465,969.37,1754.74,1570.56,2112.21,1570.56Z"/><path class="cls-93" d="M2113.05,1565.41c355.68,0,644-267.85,644-598.26s-288.33-598.26-644-598.26-644,267.85-644,598.26S1757.37,1565.41,2113.05,1565.41Z"/><path class="cls-94" d="M2113.88,1560.32c353.88,0,640.76-266.56,640.76-595.39s-286.88-595.4-640.76-595.4-640.77,266.57-640.77,595.4S1760,1560.32,2113.88,1560.32Z"/><path class="cls-95" d="M2114.71,1555.31c352.09,0,637.52-265.28,637.52-592.53S2466.8,370.25,2114.71,370.25,1477.2,635.53,1477.2,962.78,1762.62,1555.31,2114.71,1555.31Z"/><path class="cls-96" d="M2115.54,1550.16c350.3,0,634.26-264,634.26-589.6S2465.84,371,2115.54,371s-634.26,264-634.26,589.6S1765.25,1550.16,2115.54,1550.16Z"/><path class="cls-97" d="M2116.37,1545.07c348.54,0,631.09-262.68,631.09-586.73s-282.55-586.73-631.09-586.73S1485.28,634.3,1485.28,958.34,1767.83,1545.07,2116.37,1545.07Z"/><path class="cls-97" d="M2117.2,1540.06c346.75,0,627.84-261.41,627.84-583.87S2464,372.33,2117.2,372.33s-627.83,261.4-627.83,583.86S1770.46,1540.06,2117.2,1540.06Z"/><path class="cls-98" d="M2118,1534.9c344.95,0,624.58-260.09,624.58-580.93S2463,373,2118,373,1493.45,633.13,1493.45,954,1773.09,1534.9,2118,1534.9Z"/><path class="cls-99" d="M2118.87,1529.82c343.15,0,621.33-258.81,621.33-578.07S2462,373.69,2118.87,373.69s-621.34,258.8-621.34,578.06S1775.71,1529.82,2118.87,1529.82Z"/><path class="cls-100" d="M2119.7,1524.81c341.36,0,618.09-257.53,618.09-575.2S2461.06,374.4,2119.7,374.4s-618.09,257.53-618.09,575.21S1778.34,1524.81,2119.7,1524.81Z"/><path class="cls-101" d="M2120.53,1519.65c339.56,0,614.84-256.21,614.84-572.26s-275.28-572.27-614.84-572.27S1505.7,631.33,1505.7,947.39,1781,1519.65,2120.53,1519.65Z"/><path class="cls-102" d="M2121.36,1514.57c337.77,0,611.59-254.93,611.59-569.4s-273.82-569.41-611.59-569.41-611.58,254.93-611.58,569.41S1783.59,1514.57,2121.36,1514.57Z"/><path class="cls-102" d="M2122.27,1509.56c336,0,608.33-253.65,608.33-566.54s-272.36-566.54-608.33-566.54S1513.94,630.13,1513.94,943,1786.3,1509.56,2122.27,1509.56Z"/><path class="cls-103" d="M2123.1,1504.4c334.18,0,605.08-252.33,605.08-563.6s-270.9-563.6-605.08-563.6S1518,629.53,1518,940.8,1788.92,1504.4,2123.1,1504.4Z"/><path class="cls-104" d="M2123.93,1499.32c332.39,0,601.84-251.06,601.84-560.74s-269.45-560.74-601.84-560.74S1522.1,628.89,1522.1,938.58,1791.55,1499.32,2123.93,1499.32Z"/><path class="cls-105" d="M2124.76,1494.23c330.59,0,598.59-249.77,598.59-557.87s-268-557.88-598.59-557.88-598.58,249.77-598.58,557.88S1794.18,1494.23,2124.76,1494.23Z"/><path class="cls-106" d="M2125.6,1489.15c328.83,0,595.4-248.45,595.4-554.94s-266.57-554.94-595.4-554.94-595.41,248.46-595.41,554.94S1796.76,1489.15,2125.6,1489.15Z"/><path class="cls-107" d="M2126.43,1484.07c327,0,592.15-247.18,592.15-552.08s-265.11-552.07-592.15-552.07S1534.27,627.09,1534.27,932,1799.39,1484.07,2126.43,1484.07Z"/><path class="cls-108" d="M2127.26,1479c325.24,0,588.9-245.89,588.9-549.21s-263.66-549.21-588.9-549.21-588.91,245.89-588.91,549.21S1802,1479,2127.26,1479Z"/><path class="cls-109" d="M2128.09,1473.9c323.45,0,585.65-244.58,585.65-546.28s-262.2-546.27-585.65-546.27-585.65,244.57-585.65,546.27S1804.64,1473.9,2128.09,1473.9Z"/><path class="cls-110" d="M2128.92,1468.81c321.66,0,582.41-243.29,582.41-543.41S2450.58,382,2128.92,382s-582.4,243.3-582.4,543.41S1807.27,1468.81,2128.92,1468.81Z"/><path class="cls-111" d="M2129.75,1463.66c319.86,0,579.16-242,579.16-540.48s-259.3-540.47-579.16-540.47-579.15,242-579.15,540.47S1809.9,1463.66,2129.75,1463.66Z"/><path class="cls-112" d="M2130.59,1458.65c318.06,0,575.9-240.7,575.9-537.62s-257.84-537.61-575.9-537.61S1554.68,624.12,1554.68,921,1812.52,1458.65,2130.59,1458.65Z"/><path class="cls-113" d="M2131.42,1453.56c316.26,0,572.65-239.41,572.65-534.74s-256.39-534.75-572.65-534.75-572.66,239.41-572.66,534.75S1815.15,1453.56,2131.42,1453.56Z"/><path class="cls-114" d="M2132.33,1448.41c314.46,0,569.39-238.1,569.39-531.82s-254.93-531.81-569.39-531.81-569.41,238.1-569.41,531.81S1817.85,1448.41,2132.33,1448.41Z"/><path class="cls-115" d="M2133.16,1443.39c312.67,0,566.15-236.81,566.15-528.94S2445.83,385.5,2133.16,385.5,1567,622.32,1567,914.45,1820.48,1443.39,2133.16,1443.39Z"/><path class="cls-116" d="M2134,1438.31c310.88,0,562.9-235.54,562.9-526.08s-252-526.08-562.9-526.08-562.9,235.53-562.9,526.08S1823.11,1438.31,2134,1438.31Z"/><path class="cls-117" d="M2134.82,1433.15c309.13,0,559.72-234.22,559.72-523.14S2444,386.86,2134.82,386.86,1575.09,621.08,1575.09,910,1825.69,1433.15,2134.82,1433.15Z"/><path class="cls-118" d="M2135.65,1428.14c307.33,0,556.47-232.94,556.47-520.28S2443,387.58,2135.65,387.58s-556.47,232.94-556.47,520.28S1828.32,1428.14,2135.65,1428.14Z"/><path class="cls-119" d="M2136.48,1423.06c305.54,0,553.23-231.66,553.23-517.42S2442,388.22,2136.48,388.22s-553.22,231.66-553.22,517.42S1831,1423.06,2136.48,1423.06Z"/><path class="cls-120" d="M2137.31,1417.9c303.75,0,550-230.34,550-514.48s-246.23-514.48-550-514.48-550,230.34-550,514.48S1833.57,1417.9,2137.31,1417.9Z"/><path class="cls-121" d="M2138.15,1412.82c301.94,0,546.72-229.06,546.72-511.62s-244.78-511.62-546.72-511.62S1591.42,618.64,1591.42,901.2,1836.2,1412.82,2138.15,1412.82Z"/><path class="cls-122" d="M2139,1407.81c300.15,0,543.47-227.78,543.47-508.76S2439.13,390.3,2139,390.3s-543.47,227.77-543.47,508.75S1838.83,1407.81,2139,1407.81Z"/><path class="cls-123" d="M2139.81,1402.65c298.35,0,540.22-226.46,540.22-505.82S2438.16,391,2139.81,391s-540.22,226.47-540.22,505.82S1841.45,1402.65,2139.81,1402.65Z"/><path class="cls-124" d="M2140.64,1397.57c296.56,0,537-225.18,537-503s-240.41-502.95-537-502.95-537,225.18-537,503S1844.08,1397.57,2140.64,1397.57Z"/><path class="cls-125" d="M2141.47,1392.55c294.77,0,533.72-223.89,533.72-500.09s-239-500.08-533.72-500.08-533.72,223.89-533.72,500.08S1846.71,1392.55,2141.47,1392.55Z"/><path class="cls-126" d="M2142.38,1387.4c293,0,530.47-222.59,530.47-497.16s-237.5-497.15-530.47-497.15-530.47,222.58-530.47,497.15S1849.41,1387.4,2142.38,1387.4Z"/><path class="cls-127" d="M2143.21,1382.31c291.17,0,527.22-221.3,527.22-494.29s-236-494.29-527.22-494.29S1616,615,1616,888,1852,1382.31,2143.21,1382.31Z"/><path class="cls-128" d="M2144,1377.23c289.42,0,524-220,524-491.35s-234.62-491.36-524-491.36-524,220-524,491.36S1854.62,1377.23,2144,1377.23Z"/><path class="cls-129" d="M2144.87,1372.15c287.63,0,520.79-218.71,520.79-488.49S2432.5,395.17,2144.87,395.17s-520.79,218.7-520.79,488.49S1857.25,1372.15,2144.87,1372.15Z"/><path class="cls-130" d="M2145.71,1367.06c285.82,0,517.54-217.42,517.54-485.62s-231.72-485.63-517.54-485.63-517.55,217.42-517.55,485.63S1859.88,1367.06,2145.71,1367.06Z"/><path class="cls-131" d="M2146.54,1362c284,0,514.29-216.11,514.29-482.69S2430.57,396.6,2146.54,396.6s-514.29,216.11-514.29,482.69S1862.5,1362,2146.54,1362Z"/><path class="cls-132" d="M2147.37,1356.9c282.24,0,511-214.83,511-479.83s-228.8-479.83-511-479.83-511,214.83-511,479.83S1865.13,1356.9,2147.37,1356.9Z"/><path class="cls-133" d="M2148.2,1351.81c280.44,0,507.79-213.54,507.79-477s-227.35-477-507.79-477-507.79,213.54-507.79,477S1867.76,1351.81,2148.2,1351.81Z"/><path class="cls-134" d="M2149,1346.66c278.65,0,504.54-212.23,504.54-474s-225.89-474-504.54-474-504.54,212.22-504.54,474S1870.38,1346.66,2149,1346.66Z"/><path class="cls-135" d="M2149.86,1341.64c276.86,0,501.29-210.94,501.29-471.16s-224.43-471.16-501.29-471.16-501.28,211-501.28,471.16S1873,1341.64,2149.86,1341.64Z"/><path class="cls-136" d="M2150.7,1336.56c275.05,0,498-209.67,498-468.3S2425.75,400,2150.7,400s-498,209.66-498,468.29S1875.64,1336.56,2150.7,1336.56Z"/><path class="cls-137" d="M2151.53,1331.4c273.26,0,494.78-208.35,494.78-465.36s-221.52-465.36-494.78-465.36S1656.74,609,1656.74,866,1878.26,1331.4,2151.53,1331.4Z"/><path class="cls-138" d="M2152.43,1326.39c271.47,0,491.54-207.07,491.54-462.49S2423.9,401.4,2152.43,401.4,1660.9,608.46,1660.9,863.9,1881,1326.39,2152.43,1326.39Z"/><path class="cls-138" d="M2153.26,1321.31c269.72,0,488.37-205.79,488.37-459.64S2423,402,2153.26,402,1664.9,607.83,1664.9,861.67,1883.55,1321.31,2153.26,1321.31Z"/><path class="cls-139" d="M2154.1,1316.15c267.91,0,485.1-204.47,485.1-456.69S2422,402.76,2154.1,402.76,1669,607.23,1669,859.46,1886.18,1316.15,2154.1,1316.15Z"/><path class="cls-140" d="M2154.93,1311.14c266.12,0,481.86-203.19,481.86-453.83s-215.74-453.84-481.86-453.84-481.86,203.19-481.86,453.84S1888.81,1311.14,2154.93,1311.14Z"/><path class="cls-141" d="M2155.76,1306.05c264.33,0,478.61-201.9,478.61-451s-214.28-451-478.61-451-478.61,201.9-478.61,451S1891.43,1306.05,2155.76,1306.05Z"/><path class="cls-141" d="M2156.59,1300.9c262.53,0,475.36-200.59,475.36-448s-212.83-448-475.36-448-475.36,200.59-475.36,448S1894.06,1300.9,2156.59,1300.9Z"/><path class="cls-142" d="M2157.42,1295.89c260.74,0,472.11-199.31,472.11-445.17s-211.37-445.17-472.11-445.17-472.1,199.31-472.1,445.17S1896.68,1295.89,2157.42,1295.89Z"/><path class="cls-143" d="M2158.25,1290.73c258.95,0,468.86-198,468.86-442.23S2417.2,406.27,2158.25,406.27s-468.85,198-468.85,442.23S1899.31,1290.73,2158.25,1290.73Z"/><path class="cls-144" d="M2159.09,1285.65c257.14,0,465.6-196.72,465.6-439.37s-208.46-439.37-465.6-439.37-465.61,196.71-465.61,439.37S1901.94,1285.65,2159.09,1285.65Z"/><path class="cls-145" d="M2159.92,1280.56c255.35,0,462.35-195.42,462.35-436.5s-207-436.5-462.35-436.5S1697.56,603,1697.56,844.06,1904.57,1280.56,2159.92,1280.56Z"/><path class="cls-146" d="M2160.75,1275.48c253.56,0,459.1-194.12,459.1-433.57s-205.54-433.57-459.1-433.57-459.1,194.12-459.1,433.57S1907.19,1275.48,2160.75,1275.48Z"/><path class="cls-147" d="M2161.58,1270.4c251.76,0,455.85-192.84,455.85-430.71S2413.34,409,2161.58,409s-455.85,192.83-455.85,430.7S1909.82,1270.4,2161.58,1270.4Z"/><path class="cls-148" d="M2162.49,1265.31c250,0,452.6-191.55,452.6-427.84s-202.64-427.84-452.6-427.84-452.6,191.55-452.6,427.84S1912.52,1265.31,2162.49,1265.31Z"/><path class="cls-149" d="M2163.32,1260.23c248.21,0,449.43-190.24,449.43-424.91s-201.22-424.9-449.43-424.9-449.43,190.24-449.43,424.9S1915.11,1260.23,2163.32,1260.23Z"/><path class="cls-150" d="M2164.15,1255.15c246.42,0,446.18-189,446.18-422.05s-199.76-422-446.18-422S1718,600,1718,833.1,1917.73,1255.15,2164.15,1255.15Z"/><path class="cls-151" d="M2165,1250.06c244.62,0,442.93-187.67,442.93-419.18S2409.6,411.71,2165,411.71s-442.92,187.67-442.92,419.17S1920.36,1250.06,2165,1250.06Z"/><path class="cls-152" d="M2165.81,1245c242.83,0,439.68-186.36,439.68-416.24S2408.64,412.5,2165.81,412.5s-439.67,186.35-439.67,416.24S1923,1245,2165.81,1245Z"/><path class="cls-153" d="M2166.65,1239.89c241,0,436.42-185.07,436.42-413.37s-195.39-413.38-436.42-413.38-436.43,185.07-436.43,413.38S1925.62,1239.89,2166.65,1239.89Z"/><path class="cls-154" d="M2167.48,1234.81c239.23,0,433.17-183.79,433.17-410.51s-193.94-410.52-433.17-410.52S1734.3,597.58,1734.3,824.3,1928.24,1234.81,2167.48,1234.81Z"/><path class="cls-155" d="M2168.31,1229.72c237.44,0,429.92-182.47,429.92-407.57s-192.48-407.58-429.92-407.58-429.92,182.48-429.92,407.58S1930.87,1229.72,2168.31,1229.72Z"/><path class="cls-156" d="M2169.14,1224.64c235.65,0,426.67-181.2,426.67-404.71s-191-404.71-426.67-404.71-426.67,181.19-426.67,404.71S1933.5,1224.64,2169.14,1224.64Z"/><path class="cls-157" d="M2170,1219.56c233.85,0,423.42-179.92,423.42-401.85S2403.82,415.86,2170,415.86s-423.42,179.91-423.42,401.85S1936.12,1219.56,2170,1219.56Z"/><path class="cls-158" d="M2170.8,1214.47c232.06,0,420.17-178.6,420.17-398.91S2402.86,416.65,2170.8,416.65s-420.17,178.6-420.17,398.91S1938.75,1214.47,2170.8,1214.47Z"/><path class="cls-159" d="M2171.63,1209.39c230.26,0,416.93-177.32,416.93-396.05s-186.67-396-416.93-396-416.91,177.32-416.91,396.05S1941.38,1209.39,2171.63,1209.39Z"/><path class="cls-160" d="M2172.54,1204.23c228.51,0,413.75-176,413.75-393.11S2401.05,418,2172.54,418,1758.8,594,1758.8,811.12,1944,1204.23,2172.54,1204.23Z"/><path class="cls-161" d="M2173.37,1199.15c226.71,0,410.5-174.72,410.5-390.25s-183.79-390.25-410.5-390.25S1762.88,593.37,1762.88,808.9,1946.67,1199.15,2173.37,1199.15Z"/><path class="cls-162" d="M2174.21,1194.14c224.91,0,407.24-173.44,407.24-387.39s-182.33-387.38-407.24-387.38S1767,592.81,1767,806.75,1949.29,1194.14,2174.21,1194.14Z"/><path class="cls-163" d="M2175,1189c223.12,0,404-172.12,404-384.45s-180.87-384.44-404-384.44-404,172.12-404,384.44S1951.92,1189,2175,1189Z"/><path class="cls-164" d="M2175.87,1183.9c221.32,0,400.74-170.84,400.74-381.59s-179.42-381.58-400.74-381.58-400.74,170.84-400.74,381.58S1954.54,1183.9,2175.87,1183.9Z"/><path class="cls-165" d="M2176.7,1178.88c219.53,0,397.49-169.55,397.49-378.71s-178-378.72-397.49-378.72S1779.21,591,1779.21,800.17,1957.17,1178.88,2176.7,1178.88Z"/><path class="cls-166" d="M2177.53,1173.73c217.73,0,394.24-168.24,394.24-375.78s-176.51-375.79-394.24-375.79S1783.29,590.41,1783.29,798,1959.8,1173.73,2177.53,1173.73Z"/><path class="cls-167" d="M2178.36,1168.64c215.94,0,391-167,391-372.91s-175-372.92-391-372.92-391,167-391,372.92S1962.43,1168.64,2178.36,1168.64Z"/><path class="cls-168" d="M2179.2,1163.63c214.14,0,387.74-165.68,387.74-370.05s-173.6-370.06-387.74-370.06S1791.46,589.2,1791.46,793.58,1965.05,1163.63,2179.2,1163.63Z"/><path class="cls-169" d="M2180,1158.48c212.35,0,384.48-164.37,384.48-367.12S2392.38,424.24,2180,424.24,1795.54,588.6,1795.54,791.36,1967.68,1158.48,2180,1158.48Z"/><path class="cls-169" d="M2180.86,1153.39c210.55,0,381.24-163.08,381.24-364.25s-170.69-364.26-381.24-364.26S1799.62,588,1799.62,789.14,1970.31,1153.39,2180.86,1153.39Z"/></g></g></g></svg>