<svg xmlns="http://www.w3.org/2000/svg" viewBox="0 0 889.06 2091.1"><defs><style>.cls-1,.cls-12{fill:#31221b;}.cls-2{fill:#594a42;}.cls-3,.cls-4{fill:#c49a6c;}.cls-3{stroke:#8b5e3c;}.cls-10,.cls-11,.cls-3,.cls-6,.cls-8{stroke-miterlimit:10;}.cls-3,.cls-6,.cls-8{stroke-width:2px;}.cls-5{fill:#8b5e3c;}.cls-6{fill:#c2705b;}.cls-6,.cls-8{stroke:#945545;}.cls-10,.cls-7{fill:#231f20;}.cls-7{opacity:0.25;}.cls-8{fill:#945545;opacity:0.3;}.cls-9{fill:#56443b;}.cls-10,.cls-11{stroke:#231f20;}.cls-11{fill:none;stroke-width:3px;}.cls-12{opacity:0.2;}</style></defs><g id="Layer_3" data-name="Layer 3"><rect class="cls-1" x="274.26" y="384.74" width="370.76" height="148.61"/><path class="cls-2" d="M227.06,1035.72c-3.93,5.32-3.46,11-6.54,28.59-3.32,19-6.26,26.15-9.8,40.86-8.09,33.56-5.77,50.43-11.44,91.91-5.27,38.51-9.19,38-16.35,79.66-2.19,12.77-6.59,40.52-9.81,98-4.93,88.19-2.23,159-1.63,173.62.3,7.26,0-.59,11.34,135.64,3.83,46.21,5.4,65.49,6.64,80.87,6.6,82.1,6.08,79,8.17,104.17,9.63,116.06,14.21,150,36,169.53,11.18,10,24.89,11.46,52.3,14.3,41.21,4.26,95.09,9.84,119.31-26.55,9.06-13.61,6.22-21.45,8.18-122.56,1.23-63.77,2.69-78,3.18-100.26.32-14.48.09-22.22.09-30.46,0-30.4,2.39-34,4.61-77.62,2-39.09.53-45.31,4.18-67.52,1.38-8.41,2.54-14,4.28-26.43,2.36-16.76,1.16-32.12,3.27-47,2.61-18.33,10.46-37.31,14.71-36.77,2.64.33,3.42,8.11,4.9,22.47,5.72,55.28,9.61,93.5,9.81,110.3.45,38.6.78-13.18,4.9,132.76,3.06,108,6.67,95.5,3.27,138.9-5.75,73.5-21.79,91.4-5.63,113.64,21.7,29.85,72.63,27.86,106,26.55,11.44-.45,71.41-2.8,81-29.9,1.58-4.46-.69-4,.75-19.24,1.64-17.43,6-31.71,14-82.88,3.73-24.18,7.93-61.73,16.34-136.85,11.35-101.47,9.55-97.28,14.71-130.73,6.91-44.78,10.69-55.75,13.08-89.87,2.43-34.82,1.25-62.58,0-91.91-1.79-41.76-4.36-50.33-6.54-98-.6-13.12-.83-21.69-.91-28.35-.15-11.07,2.42-15.25-.13-21.65-3-7.63-9.31-11.45-11.79-13.32-12.89-9.69-11.68-33.12-10.4-69.44,0,0,2.76-81-1.29-114.39-3.47-28.54-6.11-28.78-8.17-53.1-2.25-26.45-.6-39-8.17-47-5.62-5.92-12.35-5.15-29.42-4.09-15.79,1-31.7-.24-47.4,2-7.91,1.15-39.6,1.44-103,2-59.95.56-89.92.84-114.41,0-33.23-1.15-67.33,7.38-99.7-2C258.28,1030.39,236.58,1022.83,227.06,1035.72Z"/><path class="cls-3" d="M468.83,616.08h0c-49.72,0-90.39-32.72-90.39-103.78V443.47c0-71.06,40.67-129.21,90.39-129.21h0c49.71,0,90.39,58.15,90.39,129.21V512.3C559.22,583.36,518.54,616.08,468.83,616.08Z"/><path class="cls-4" d="M163.6,1096.85c12.24-6.7,24.48-6.39,37.33-6.11q.21-23.31,1.22-46.5c1.13-25.55,3-51.41,5.65-76.87l6.45-32.28a1,1,0,0,0,0-.17,610.91,610.91,0,0,0,4.06-70.23,610.91,610.91,0,0,0-4.06-70.23A2,2,0,0,0,213,792.8L109.8,758.7a1.9,1.9,0,0,0-.58-.09,1.83,1.83,0,0,0-1.15.4,2,2,0,0,0-.76,1.64l2,87.85-4,61-4,105.88a2,2,0,0,0,0,.34l6.09,48.6c11.58,9.4,24.87,17.32,37.45,24.55C150,1091.85,156.29,1099.85,163.6,1096.85Z"/><path class="cls-5" d="M101.25,1015.58a1.21,1.21,0,0,1,0-.19l4.05-105.85,4-61.07-2-87.84a1.05,1.05,0,0,1,.38-.85.77.77,0,0,1,.49-.17.85.85,0,0,1,.23,0l103.16,34.1a1,1,0,0,1,.62.83,611.4,611.4,0,0,1,4.06,70.12,611.62,611.62,0,0,1-4.07,70.21l-6.46,32.37c-2.63,25.49-4.53,51.37-5.66,76.93q-1,23.17-1.22,46.52l2.09,0q.21-23.29,1.22-46.48c1.12-25.52,3-51.36,5.63-76.72l6.45-32.28a2.17,2.17,0,0,0,0-.25,612.69,612.69,0,0,0,4.06-70.34,612.82,612.82,0,0,0-4.06-70.34,3,3,0,0,0-2-2.5L109.1,757.75a3,3,0,0,0-2.73.48,3,3,0,0,0-1.15,2.45l2,87.75-4,61-4,105.88a2.79,2.79,0,0,0,0,.5l5.95,47.53c.77.64,1.55,1.27,2.34,1.9Z"/><path class="cls-4" d="M809.64,928.11l-4.22-60.92,2.11-87.84a2,2,0,0,0-2.6-2L697,811.49a2,2,0,0,0-1.39,1.66,583.75,583.75,0,0,0,0,140.46,1.55,1.55,0,0,0,0,.21l8.32,36c2,24.21,3.47,48.79,4.32,73.07,1.43,40.49,1.22,81.43-.59,122.11,23.48,11.31,44.35,28.84,72,35.29,1.54,0,2.82,1.06,4.24,2.23l.23-3.31s16.92-87.89,16.93-87.93l12.69-96.91a1.93,1.93,0,0,0,0-.34Z"/><path class="cls-5" d="M810.64,928l-4.22-60.83,2.11-87.84a3,3,0,0,0-1.2-2.47,3,3,0,0,0-2.71-.46l-107.9,34.09a3,3,0,0,0-2.07,2.5,584.46,584.46,0,0,0,0,140.71,1.55,1.55,0,0,0,.06.31L703,990c2,24.17,3.46,48.72,4.31,73,1.42,40.31,1.22,81.08-.57,121.6l2,.94c1.83-40.84,2-82,.61-122.61-.85-24.3-2.31-48.9-4.33-73.13l-8.34-36.16a.34.34,0,0,1,0-.1,581.77,581.77,0,0,1,0-140.22,1,1,0,0,1,.69-.83l107.9-34.1a1,1,0,0,1,.9.16,1,1,0,0,1,.4.82l-2.11,87.94,4.22,60.89,4.24,105.94a.91.91,0,0,1,0,.17l-12.69,96.85c-.08.46-16.75,87.06-16.92,87.93l-.19,2.74c.61.47,1.22,1,1.89,1.52l.28-3.94c16.9-87.85,16.91-87.89,16.92-87.93l12.69-96.91a2.9,2.9,0,0,0,0-.51Z"/><path class="cls-6" d="M365.38,526.83c15.28,12.81,8.83,22.44,28.4,40.73,17.1,16,36,21.64,47.34,25.07,15.78,4.74,39.88,12,66.28,3.13,16-5.38,25.81-14.31,41-28.2,0,0,9.81-9,41-47a299.49,299.49,0,0,1,47.34,3.13c31.32,4.59,53.56,13,85.21,25.07,33.8,12.94,50.7,19.41,60,28.2a62.69,62.69,0,0,1,8.6,9.9c17.78,25.78,21.45,53.19,23,65.3,9.24,73.84,50.56,100.72,32.19,130.91-2.53,4.16-9.35,8.9-23,18.39-18.14,12.62-47.87,30.78-96.52,50.56C698,863.49,693,863.46,687.29,871.48a28.37,28.37,0,0,0-4.25,8.36c-4.72,15.72,1.1,63.71,1.1,63.71,3.41,26.45-2.7,22.66-.82,70.87.75,19.27,2.27,33.74,3.2,42.53,4.92,46.1,11.32,62.19,10.24,96.52-.37,11.63-1.53,23.41-1.53,23.41-2.6,23.84-7.6,37.29-11.09,86.26-2.17,30.38-.61,30.27-3.16,37.6-14.52,41.68-69.58,58.16-107.3,68.93-84.95,24.24-156.71,14.88-195.68,9.4-58.62-8.25-90.39-22.35-138.86-43.87-30.3-13.44-43.8-22.32-50.5-37.6-11-25.06,8.81-39,12.63-90.86,2.89-39.37-7.58-44-3.16-87.73,2.53-25,6.1-25,12.63-59.53,9.63-51,9.6-91.89,9.46-115.93-.37-64.93,2-75.74-6.31-87.73-5.48-7.93-9.61-9.89-50.49-34.47C103.3,785.23,97.47,780.59,94,771.22,92,766,91,759.86,112.9,696c10.43-30.41,18.41-51.63,28.4-75.2,18.5-43.63,24.63-49.85,28.41-53.26,9-8.09,14.5-9.18,56.81-28.2,39.76-17.87,34.48-16.73,41-18.8C275.3,518.11,333.17,499.82,365.38,526.83Z"/><path class="cls-4" d="M707.73,1181q-.69,15.49-1.69,30.91L691.54,1268l-27.33,42.81a1.5,1.5,0,0,0-.2.4l-12.7,35.9a2,2,0,0,0-.1.92,261.52,261.52,0,0,1-4.19,90.83,2,2,0,0,0,.54,1.86,2,2,0,0,0,1.41.58,2.3,2.3,0,0,0,.45,0l.34-.09-16.55,8.94a1.92,1.92,0,0,0-.79.78c-.5.88-4.76,8.87-.77,17.53a20,20,0,0,0,12.57,10.51,2.24,2.24,0,0,0,.52.06,2,2,0,0,0,.68-.12l93.09-34.09a2.16,2.16,0,0,0,.76-.49l19-19.75a2,2,0,0,0,.48-.82l14.81-50.25a2.09,2.09,0,0,0,.08-.51l2.11-75.24,4.67-29,0-.18,3.52-50c-1.42-1.17-2.7-2.23-4.24-2.23C752.08,1209.86,731.21,1192.33,707.73,1181Zm-28.87,244.44-12.92,7a37.15,37.15,0,0,0,9-13.36l.06-.17,8.7-29.45Z"/><path class="cls-5" d="M779.48,1268.58l-4.68,29-2.12,75.37a1.09,1.09,0,0,1,0,.26l-14.81,50.25a1.06,1.06,0,0,1-.24.41l-19,19.74a1.19,1.19,0,0,1-.38.25l-93.09,34.09a1,1,0,0,1-.6,0,18.93,18.93,0,0,1-11.92-10c-3.79-8.21.25-15.78.73-16.62a1,1,0,0,1,.39-.39L657,1438.41l-7.78,1.86a1,1,0,0,1-1.2-1.19,262.67,262.67,0,0,0,4.22-91.18,1,1,0,0,1,0-.46l12.7-35.89a1,1,0,0,1,.1-.21l27.33-42.8.09-.13L707,1212.18l0-.18q1-15.23,1.67-30.51l-2-.94q-.71,15.65-1.7,31.22l-14.44,55.83-27.25,42.67a3.45,3.45,0,0,0-.3.61l-12.69,35.89a3,3,0,0,0-.15,1.39,260.46,260.46,0,0,1-4.18,90.48,3,3,0,0,0,.81,2.79l.12.11-14.24,7.68a2.93,2.93,0,0,0-1.18,1.16c-.53.93-5,9.33-.81,18.45A21.06,21.06,0,0,0,644,1479.89a3.29,3.29,0,0,0,.76.09,3.08,3.08,0,0,0,1-.18l93.09-34.1A3.1,3.1,0,0,0,740,1445l19-19.74a3,3,0,0,0,.71-1.24l14.82-50.24a3.34,3.34,0,0,0,.12-.77l2.11-75.17,4.66-28.91a1.24,1.24,0,0,0,0-.27L785,1219.3c-.67-.52-1.28-1-1.89-1.52Z"/><path class="cls-5" d="M674.05,1418.62l0,.09a36.41,36.41,0,0,1-8.76,13l-5.58,5.25,20.1-10.85,4.92-36.51-2-.42Zm3.88,6.2-7.36,4a38.59,38.59,0,0,0,5.31-9.36l.09-.25,5-17Z"/><path class="cls-4" d="M282,1443.64c-.9-4.92-5.46-7.92-8-9.23l-15.8-8.92.34.07a1.83,1.83,0,0,0,.4,0,1.92,1.92,0,0,0,1.36-.6,2.08,2.08,0,0,0,.5-1.84,273,273,0,0,1-4-90.83,2.11,2.11,0,0,0-.1-.93l-12.13-35.89a2.17,2.17,0,0,0-.19-.41l-26.12-42.79-14.31-61.89c-2.26-33.39-3.25-67.11-3-100.69-12.85-.28-25.09-.59-37.33,6.11-7.31,3-13.58-5-18.8-8-12.58-7.23-25.87-15.15-37.45-24.55l6,48.31s16.19,88,16.19,88c1.63,17.55,2.14,32.77,1.51,45.25l0,.4a79,79,0,0,0,1.71,22.58,75.74,75.74,0,0,0,4.88,14.51l2,75a2.17,2.17,0,0,0,.08.51L153.91,1408a2,2,0,0,0,.46.82l18.2,19.74a1.85,1.85,0,0,0,.72.49l89,34.1a1.92,1.92,0,0,0,.66.12,1.75,1.75,0,0,0,.4,0C276.53,1460.31,283.29,1450.78,282,1443.64Zm-51.67-33.87-4.41-34.24,7.76,28.48a2.25,2.25,0,0,0,.08.24,36.85,36.85,0,0,0,7.68,11.79Z"/><path class="cls-5" d="M282,1443.47c-1-5.34-5.78-8.52-8.52-9.92l-13.63-7.7.17-.17a3,3,0,0,0,.75-2.71,272.19,272.19,0,0,1-4-90.52,2.91,2.91,0,0,0-.14-1.34l-12.13-35.9a3.32,3.32,0,0,0-.29-.6l-26-42.66-14.25-61.66c-2.26-33.35-3.24-67-3-100.53l-2.09,0c-.28,33.61.71,67.35,3,100.78l14.33,62,0,.15,26.2,42.93a.81.81,0,0,1,.1.21l12.14,35.89a1.2,1.2,0,0,1,0,.5,273.89,273.89,0,0,0,4,91.15,1.09,1.09,0,0,1-.25,1,.79.79,0,0,1-.75.25l-7.17-1.67,21.91,12.37c2.44,1.25,6.66,4,7.49,8.52,1.22,6.7-5.26,15.66-17.86,18.47a.71.71,0,0,1-.43,0l-89-34.09a.86.86,0,0,1-.33-.23l-18.2-19.74a1,1,0,0,1-.24-.42l-14.16-50.25a2.51,2.51,0,0,1,0-.27l-2-75.15-.08-.18a74.5,74.5,0,0,1-4.83-14.32,78.4,78.4,0,0,1-1.68-22.32l0-.41c.63-12.51.12-27.79-1.53-45.47l-16.17-87.9-5.92-47.24c-.79-.63-1.57-1.26-2.34-1.9l6.18,49.38s0,.06,16.18,87.93c1.63,17.5,2.14,32.68,1.51,45.11l0,.4a80.32,80.32,0,0,0,1.73,22.84,76.74,76.74,0,0,0,4.87,14.52l2,74.76a3.09,3.09,0,0,0,.12.74l14.16,50.25a3,3,0,0,0,.68,1.23l18.2,19.74a3,3,0,0,0,1.12.75l89,34.1a2.91,2.91,0,0,0,1,.19,2.7,2.7,0,0,0,.63-.07C276.32,1461.15,283.36,1451.06,282,1443.47Z"/><path class="cls-5" d="M228.3,1410.38l17.8,10-4.95-5.07a36,36,0,0,1-7.47-11.47s0-.09-.05-.13l-7.75-28.48-2,.37,4.41,34.24Zm3.31-6.11a3.4,3.4,0,0,0,.12.34,38.47,38.47,0,0,0,4.3,7.81l-5.78-3.26-2.42-18.77Z"/><path class="cls-7" d="M416.38,503.29c-3.93,7.18,12.32,40,36.69,56.47,37,25,75.89,1,78.66-.77,22.85-14.65,34.14-38,46.17-62.95,16.36-33.91,28.6-77.36,22.58-82.62-3.27-2.86-10,7.26-42.1,43-34.39,38.33-41.2,42.94-46.33,45.91a91.22,91.22,0,0,1-55.17,11.9C431.87,511.22,419.37,497.82,416.38,503.29Z"/><path class="cls-8" d="M393.49,581c4.68-2.67,11,8.42,30.64,18.39,17.31,8.78,33.91,11.09,41.63,12.1C487,614.26,500,611,501,614.55c.86,3.15-8.37,9.09-16.85,12.25-5.26,2-16.25,5.28-53.62-3.06-24.25-5.41-28.65-8.13-32.18-12.26C389.4,601,388.36,583.93,393.49,581Z"/></g><g id="Layer_8" data-name="Layer 8"><path class="cls-3" d="M617.44,243.8c0,119.33-68.25,285-152.44,285S312.56,363.13,312.56,243.8s68.25-160,152.44-160S617.44,124.47,617.44,243.8Z"/><path class="cls-1" d="M569.33,99.77c.63-1.71,1.8-5.15.28-7.9-1.08-2-5.15-2.32-17.26-9.12-14.17-8-13.44-7.28-35.43-15.09-33.55-11.94-52.75-15.11-78-13.85-12.94.64-40.58,2.35-68.15,19.92-10,6.38-16.9,13.44-30.64,27.57-25.93,26.65-41,42.14-50.56,67.41-8.06,21.31,0,21.66-9.2,52.09-6.07,20.14-12.22,36.43-16.85,50.56-8.07,24.66-13.16,40.2-13.79,61.29-.16,5.6.13,6.61,0,29.1-.09,16.48-.28,21.39,0,30.65.42,13.56,1.17,14,1.85,27.56,1.85,36.5-2.22,59.55-3.43,64.24-.16.62-1,3.85-1.81,8.34-.33,1.85-.64,3.93-.9,6.25-1,8.57-.06,12.41-3.45,25.89-5.7,22.65-11.09,23.15-15.34,43.9-3,14.63-.35,14.5-3,36.77-3.73,30.9-9.05,32.89-7.13,46.45,2.66,18.9,16.59,40.59,32.91,42.41,15.14,1.69,18-15,39.42-24.51,36.1-16,62.32,18.74,95.65,2.52,22.78-11.08,30.59-37.06,31.72-40.82a59.85,59.85,0,0,0,1.81-9c.69-6.12-10.32-24.82-13.52-38.46-3-12.67,2.83-12.34,2.29-42.59-.25-14.63-1.7-19.81-2.29-21.75-3.65-12.11-9.34-15.82-16.85-27.58-8-12.46-5.8-14.9-15.32-36.77-9.93-22.8-13.55-23.08-19.92-38.3-5.36-12.81-6-20.36-10.5-55.16-8.46-66-9.09-61.78-9.1-72,0-20.68,0-42.7,8.75-70,4-12.42,12.13-31,27.52-51.87,9.5-12.87,20.52-18.66,27-23.33,12-8.67,35.5-9.32,56.22-13.72,13.86-2.95,25.54-2.49,40.81,0,1.19.19,1.46.26,2.17.38,22.75,3.94,42.55-3.82,42.55-3.82C556.06,120.17,566.51,107.35,569.33,99.77Z"/><path class="cls-9" d="M298.19,220.41c2.91,1,9.42-11.31,24.13-30.88a386.86,386.86,0,0,1,34.23-39.8c14.71-14.8,23.52-23.68,38.91-32.25,10-5.55,23.73-13,43.58-15.1,6.53-.68,26.63-2.76,46.69,5.49,5.69,2.34,13.9,6.56,28.79,11.67,13.64,4.68,15.81,4.25,17.12,3.43,6.44-4,2.31-32.51-14-44.61-2.67-2-9.91-3.91-24.29-7.7-18-4.73-27.07-7.09-32.51-6.71-12.34.87-15.66,4.43-30,7.35-11.12,2.26-13.14,2-21.36,5.69-15.05,6.76-23.86,14.65-39.69,28.82-13.44,12-21.54,21.71-32.68,35-28.3,33.78-34.1,49.39-36.57,57.64C298,206.91,295.39,219.47,298.19,220.41Z"/><ellipse class="cls-10" cx="394.11" cy="292.87" rx="11.64" ry="13.55"/><path class="cls-10" d="M396.17,279.63c17.41,0,32.45,7,39.61,17.13A25.06,25.06,0,0,0,437,294.1c-6.58-11.11-22.36-18.94-40.79-18.94-20.58,0-37.86,9.76-42.71,22.95.37.61.76,1.21,1.18,1.8C360.71,288.1,377,279.63,396.17,279.63Z"/><ellipse class="cls-10" cx="530.05" cy="289.75" rx="11.64" ry="13.55"/><path class="cls-10" d="M528.93,277.2c17.41,0,32.45,7,39.61,17.13a25.06,25.06,0,0,0,1.18-2.66c-6.58-11.12-22.36-18.94-40.79-18.94-20.58,0-37.86,9.75-42.71,22.95.37.61.76,1.21,1.18,1.8C493.47,285.66,509.77,277.2,528.93,277.2Z"/><line class="cls-11" x1="348.98" y1="275.96" x2="356.27" y2="295.3"/><line class="cls-11" x1="354.08" y1="270.25" x2="361.38" y2="289.59"/><line class="cls-11" x1="573.69" y1="272.14" x2="566.39" y2="291.48"/><line class="cls-11" x1="568.69" y1="267.61" x2="561.39" y2="286.95"/><line class="cls-11" x1="360.73" y1="266.32" x2="367.11" y2="286.13"/><line class="cls-11" x1="367.48" y1="262.89" x2="372.33" y2="283.32"/><line class="cls-11" x1="562.57" y1="263.41" x2="556.19" y2="283.22"/><line class="cls-11" x1="555.82" y1="259.98" x2="550.98" y2="280.41"/><path class="cls-11" d="M461.17,328.05c-4.06,10.16-8.79,22.53-13.79,36.77-5.78,16.46-7.08,21.6-4.6,26,6.3,11.26,31.08,7.69,34.51,7.17"/><path class="cls-11" d="M433.87,456.34A196.72,196.72,0,0,0,499.2,455"/><path class="cls-11" d="M448.89,475.76A52.8,52.8,0,0,0,468,477.7a55,55,0,0,0,14.39-3.24"/><path class="cls-11" d="M465.71,441.62c-8.43-7.79-14.47-8.44-18.52-7.46-5.57,1.33-7.77,5.56-14.16,9.49-3.7,2.28-6.74,3.71-10.91,4.25a24.08,24.08,0,0,1-12.57-1.9"/><path class="cls-11" d="M463.89,441.62c8.43-7.79,14.48-8.44,18.52-7.46,5.58,1.33,7.77,5.56,14.16,9.49,3.71,2.28,6.74,3.71,10.92,4.25a24.06,24.06,0,0,0,12.56-1.9"/><path class="cls-1" d="M533.82,139.34c.78,14.57,8,17.51,28.47,52.35,14.33,24.43,21.56,37,24.51,53.63s-1.09,18.6.92,41.56c2.69,30.79,10.41,32.42,11.33,51.89,1.68,35.45-33.67,46.77-29,79.87,1.19,8.45,3.48,9.08,4.51,19.72.61,6.25,1.35,21.82-9.19,47.49-12.62,30.73-23.88,33.26-26.05,53.62-1.29,12.19,2.53,13.25,4.6,30.65,5.78,48.52-19.85,74.69-4.6,93.45,5.77,7.09,15.29,10.57,19.92,12.26,2.27.83,12.12,4.26,29.11,3.06a109.85,109.85,0,0,0,29.11-6.13c41.76-14.33,75.52,10.08,90.39-6.12,7.47-8.15-.64-14.77-3.06-65.88-2.14-45.09,3.15-61.61,6.64-70.33,5.48-13.68,8.6-13.21,12.75-26.7,1.9-6.21,9.08-29.55,2.06-56.18-3.88-14.71-10-22.61-13-44-.78-5.55-1.39-8.34-1.07-12.41.93-11.81,7.62-18.28,6.12-36.31-1.8-21.71-12.31-22.26-23.58-55.59-8.32-24.61-2.5-24.05-10.95-50.78-5.21-16.48-6.63-14.18-26.11-58.33-7.69-17.43-10.83-25.4-15.27-33.55,0,0-2.41-4.28-4.94-8.31-8.72-13.87-49.69-66-79.72-54.62C542.1,99.54,532.87,121.66,533.82,139.34Z"/><path class="cls-9" d="M696.46,357.79c1.28,3.71,3.82,11.64,6.22,27.45,3.65,24,.82,25.63,4.67,36.37,5.44,15.17,11.66,13.48,16.34,26.76,2.21,6.26,2.94,12.62-3.11,45.29-5,27-7.56,40.47-10.89,40.49-3.66,0-3.41-13.39-13.23-38.43-7-17.94-11.37-21.78-17.12-39.8a147.49,147.49,0,0,1-6.23-26.08c-2.5-18.5,1-24.14,4.67-61.07,2.4-24.27,2.15-34.59,5.45-35C688,333.19,695,353.55,696.46,357.79Z"/><path class="cls-1" d="M480.75,256.82c1.72,5,11.69,4.85,12.91,4.83,4,0,4.79-1,13.69-3.3,1-.27,1.17-.3,14.67-3.22l13.14-2.84c11.74-2.27,17.63-3.59,25-2.73a68.59,68.59,0,0,1,15,3.49c5.69,2,10.24,3.63,14.62,7.55,7,6.24,8.38,13.7,9.63,13.24,1.1-.41.86-6.49-1.87-11.47-1.12-2-2.68-3.59-5.8-6.71a68.94,68.94,0,0,0-7.75-6.9A61.11,61.11,0,0,0,572.79,242a38.83,38.83,0,0,0-11-3.62c-6.39-.88-10.93-.1-15.89.53-2.48.31-9,.69-21.93,1.49-5.48.34-13.13.75-23.45,1.86-7.88.84-12.23,1.55-15.85,5.15C484.23,247.84,479.37,252.79,480.75,256.82Z"/><path class="cls-1" d="M439.82,258.33c-1.69,5-11.66,4.9-12.89,4.89-4,0-4.79-1-13.7-3.24-1-.27-1.17-.29-14.68-3.15l-13.16-2.78c-11.75-2.21-17.65-3.51-25-2.61a68.43,68.43,0,0,0-15,3.56c-5.68,2-10.22,3.68-14.59,7.62-6.93,6.27-8.31,13.74-9.57,13.28-1.1-.4-.89-6.48,1.82-11.47,1.11-2,2.66-3.61,5.76-6.74a69.23,69.23,0,0,1,7.73-6.93A60.11,60.11,0,0,1,347.72,244a38.27,38.27,0,0,1,11-3.67c6.39-.91,10.94-.15,15.9.45,2.47.3,9,.65,21.94,1.39,5.48.31,13.13.68,23.46,1.74,7.88.81,12.23,1.5,15.86,5.08C436.3,249.36,441.19,254.29,439.82,258.33Z"/><path class="cls-12" d="M533.18,131.94c-.27,3.48-21.08,1.84-53.63,7.66-32.29,5.79-51.13,9.59-70.47,23-14.95,10.35-14.52,16-44.43,39.83-21.15,16.82-23.82,15.93-24.51,15.32s-1.44-3.36,19.91-38.3c17.5-28.64,21.68-33.06,26.05-36.77,10.74-9.13,20.95-12.56,33.7-16.85,31.3-10.53,58.29-6.87,75.07-4.6C510.94,123.39,533.45,128.31,533.18,131.94Z"/><path class="cls-8" d="M222.63,746.3c2.5.48.61,14.29,0,41.37-.94,41.68,2.16,69.29-3.53,70.47-3.53.74-5.45-9.77-18.38-16.85-7.92-4.33-11.26-2.78-13.79-6.13-5-6.58,5.79-20.27,15.79-39.83C217.71,766,219.57,745.71,222.63,746.3Z"/><path class="cls-8" d="M657.27,746.3c3.6-.86,11.55,15.9,15.32,30.64,3,11.59,2.53,18.68,3.07,30.65a190.67,190.67,0,0,0,2.08,21.76c3.49,21.79,5.74,25,5.58,36.45s-3.16,10.53-6.13,27.58c-1.43,8.2-1.61,13.47-1.53,50.56.06,28,.16,27.28,0,29.11-2.22,24.31-11.67,51.22-16.85,50.56-9.25-1.19-5.39-90.15-3.07-111.84.13-1.24,1.2-11,2.59-24.56,1.09-10.67,1.68-16.92,2-19.87C667.53,802.12,650.92,747.83,657.27,746.3Z"/></g></svg>