<svg id="Layer_1" data-name="Layer 1" xmlns="http://www.w3.org/2000/svg" xmlns:xlink="http://www.w3.org/1999/xlink" viewBox="0 0 530 628"><defs><style>.cls-1,.cls-12{fill:none;}.cls-2{clip-path:url(#clip-path);}.cls-13,.cls-3{fill:#31221b;}.cls-4,.cls-5{fill:#c49a6c;}.cls-4{stroke:#8b5e3c;}.cls-11,.cls-12,.cls-4,.cls-7,.cls-9{stroke-miterlimit:10;}.cls-4,.cls-7,.cls-9{stroke-width:2px;}.cls-6{fill:#8b5e3c;}.cls-7{fill:#c2705b;}.cls-7,.cls-9{stroke:#945545;}.cls-8{opacity:0.25;}.cls-13,.cls-8,.cls-9{isolation:isolate;}.cls-9{fill:#945545;opacity:0.3;}.cls-10{fill:#56443b;}.cls-11,.cls-12{stroke:#000;}.cls-12{stroke-width:3px;}.cls-13{opacity:0.2;}.cls-14{fill:#5398b7;}.cls-15{fill:#c4c4c4;}.cls-16{fill:#8c1a22;}</style><clipPath id="clip-path"><rect class="cls-1" x="3.18" y="11.6" width="523" height="902.43"/></clipPath></defs><g class="cls-2"><path class="cls-3" d="M385.76,220.54H133.49v93.75H385.76Z"/><path class="cls-4" d="M265.88,366.49c-33.83,0-61.51-20.64-61.51-65.47V257.59c0-44.83,27.68-81.51,61.51-81.51s61.5,36.68,61.5,81.51V301C327.38,345.85,299.71,366.49,265.88,366.49Z"/><path class="cls-5" d="M58.19,669.79c8.33-4.23,16.66-4,25.4-3.85q.14-14.72.83-29.34c.77-16.12,2.06-32.44,3.84-48.49l4.39-20.37a.43.43,0,0,0,0-.11,359,359,0,0,0,2.77-44.3A359.09,359.09,0,0,0,92.67,479a1.27,1.27,0,0,0-.9-1L21.59,456.45a1.75,1.75,0,0,0-.4-.05,1.3,1.3,0,0,0-.78.25,1.26,1.26,0,0,0-.52,1l1.38,55.42-2.75,38.47-2.76,66.81a1.48,1.48,0,0,0,0,.21l4.14,30.66c7.88,5.93,16.93,10.93,25.49,15.48C49,666.64,53.21,671.68,58.19,669.79Z"/><path class="cls-6" d="M15.76,618.52v-.11l2.75-66.78,2.75-38.53-1.38-55.42a.61.61,0,0,1,.26-.53.55.55,0,0,1,.33-.11l.15,0,70.19,21.52a.63.63,0,0,1,.42.52A358,358,0,0,1,94,523.34a357.55,357.55,0,0,1-2.77,44.29l-4.4,20.42C85,604.14,83.74,620.46,83,636.59q-.7,14.63-.83,29.35l1.42,0q.14-14.7.83-29.32c.76-16.1,2-32.41,3.83-48.41l4.39-20.36,0-.16a360.22,360.22,0,0,0,2.77-44.38A360.06,360.06,0,0,0,92.65,479a1.93,1.93,0,0,0-1.38-1.58L21.11,455.87a2.14,2.14,0,0,0-1.86.3,1.82,1.82,0,0,0-.78,1.54l1.37,55.36-2.75,38.49-2.75,66.8a1.56,1.56,0,0,0,0,.31l4,30,1.6,1.2Z"/><path class="cls-5" d="M497.77,563.34l-2.87-38.43,1.44-55.42a1.22,1.22,0,0,0-.55-1,1.44,1.44,0,0,0-.81-.25,1.4,1.4,0,0,0-.41.06l-73.42,21.51a1.28,1.28,0,0,0-.94,1.05,341.13,341.13,0,0,0,0,88.62l0,.13,5.66,22.72c1.37,15.27,2.36,30.78,3,46.1,1,25.54.83,51.37-.41,77,16,7.13,30.18,18.19,49,22.26a5,5,0,0,1,2.88,1.4l.16-2.08S492,691.56,492,691.53l8.64-61.14a1.47,1.47,0,0,0,0-.21Z"/><path class="cls-6" d="M498.45,563.3l-2.87-38.38L497,469.51a1.84,1.84,0,0,0-.82-1.56,2.17,2.17,0,0,0-1.84-.29l-73.42,21.51a2,2,0,0,0-1.42,1.58,342.2,342.2,0,0,0,0,88.76c0,.07,0,.13,0,.2l5.65,22.67c1.36,15.25,2.35,30.73,2.94,46,1,25.43.83,51.16-.4,76.72.45.19.89.39,1.33.6,1.25-25.78,1.4-51.71.42-77.36-.58-15.33-1.57-30.85-2.95-46.14l-5.67-22.81a.17.17,0,0,1,0-.07,339.9,339.9,0,0,1,0-88.46.63.63,0,0,1,.46-.52l73.42-21.51a.71.71,0,0,1,.62.1.63.63,0,0,1,.27.51L494.2,525l2.87,38.42L500,630.2v.11l-8.64,61.1L479.8,746.88l-.13,1.73,1.28,1,.19-2.48c11.51-55.42,11.52-55.44,11.52-55.48l8.63-61.14a1.67,1.67,0,0,0,0-.32Z"/><path class="cls-7" d="M195.49,310.18c10.39,8.09,6,14.17,19.32,25.7C226.44,346,239.27,349.53,247,351.7c10.74,3,27.13,7.56,45.1,2,10.9-3.39,17.56-9,27.92-17.79,0,0,6.68-5.65,27.92-29.65a219.23,219.23,0,0,1,32.21,2c21.32,2.9,36.45,8.17,58,15.82,23,8.16,34.5,12.24,40.8,17.79a40.65,40.65,0,0,1,5.85,6.25c12.1,16.26,14.59,33.55,15.62,41.19,6.29,46.59,34.4,63.54,21.9,82.6-1.72,2.62-6.36,5.61-15.63,11.59-12.34,8-32.57,19.42-65.68,31.9-19.2,7.24-22.57,7.22-26.49,12.28a17.6,17.6,0,0,0-2.89,5.28c-3.22,9.91.74,40.19.74,40.19,2.32,16.69-1.83,14.3-.55,44.71.51,12.16,1.54,21.29,2.17,26.83,3.35,29.09,7.71,39.24,7,60.9-.25,7.34-1,14.76-1,14.77-1.77,15-5.17,23.53-7.55,54.42-1.47,19.17-.4,19.1-2.15,23.72-9.88,26.3-47.34,36.69-73,43.49-57.79,15.3-106.63,9.38-133.14,5.93-39.88-5.21-61.5-14.1-94.48-27.68C89,811.7,79.79,806.09,75.23,796.46c-7.48-15.82,6-24.59,8.58-57.32,2-24.84-5.15-27.74-2.15-55.35C83.39,668,85.81,668,90.25,646.23c6.56-32.15,6.53-58,6.44-73.13-.25-41,1.34-47.79-4.29-55.35-3.73-5-6.54-6.24-34.36-21.75-40.89-22.78-44.85-25.71-47.24-31.62-1.34-3.32-2-7.17,12.88-47.45,7.1-19.18,12.53-32.57,19.33-47.44C55.6,342,59.76,338,62.33,335.89c6.11-5.1,9.88-5.79,38.66-17.79,27.06-11.27,23.46-10.55,27.92-11.86C134.2,304.68,173.57,293.14,195.49,310.18Z"/><path class="cls-8" d="M230.19,295.33c-2.68,4.53,8.38,25.24,25,35.63,25.16,15.76,51.64.64,53.53-.49,15.54-9.24,23.22-24,31.4-39.72,11.14-21.39,19.46-48.8,15.37-52.12-2.23-1.81-6.82,4.58-28.65,27.15-23.39,24.18-28,27.09-31.52,29a66.24,66.24,0,0,1-37.53,7.51C240.73,300.34,232.22,291.88,230.19,295.33Z"/><path class="cls-9" d="M214.61,344.35c3.19-1.68,7.49,5.31,20.85,11.6,11.77,5.54,23.07,7,28.33,7.63,14.42,1.76,23.32-.33,24,1.93.58,2-5.7,5.74-11.47,7.74-3.58,1.23-11.06,3.32-36.48-1.93-16.5-3.42-19.5-5.13-21.89-7.74C211.83,357,211.12,346.21,214.61,344.35Z"/><path class="cls-4" d="M367,131.63c0,75.28-46.44,179.77-103.73,179.77S159.55,206.9,159.55,131.63s46.44-101,103.72-101S367,56.34,367,131.63Z"/><path class="cls-3" d="M334.26,40.76c.44-1.08,1.23-3.25.2-5-.74-1.23-3.51-1.47-11.75-5.76-9.64-5-9.14-4.59-24.1-9.52C275.77,13,262.71,11,245.53,11.76c-8.8.41-27.61,1.49-46.37,12.57-6.82,4-11.49,8.49-20.85,17.4-17.64,16.81-27.9,26.59-34.4,42.53-5.49,13.44,0,13.66-6.25,32.86-4.13,12.71-8.32,23-11.47,31.9-5.49,15.56-9,25.36-9.38,38.66-.12,3.53.09,4.18,0,18.36-.06,10.4-.19,13.49,0,19.33.28,8.57.79,8.84,1.26,17.39,1.26,23-1.52,37.57-2.34,40.53-.11.39-.69,2.43-1.23,5.27-.22,1.16-.43,2.48-.61,3.94-.65,5.41,0,7.83-2.35,16.33-3.88,14.29-7.54,14.6-10.44,27.7-2,9.23-.23,9.15-2.06,23.2-2.54,19.49-6.16,20.74-4.86,29.3,1.82,11.92,11.3,25.61,22.4,26.76,10.3,1.06,12.22-9.48,26.82-15.47,24.56-10.08,42.4,11.83,65.08,1.59,15.5-7,20.81-23.38,21.58-25.75a36.59,36.59,0,0,0,1.24-5.7c.47-3.86-7-15.66-9.2-24.27-2-8,1.92-7.78,1.56-26.86-.18-9.23-1.17-12.5-1.56-13.73-2.49-7.63-6.36-10-11.47-17.4-5.41-7.86-3.94-9.4-10.42-23.19-6.75-14.39-9.22-14.56-13.56-24.17-3.64-8.08-4.11-12.84-7.14-34.79-5.76-41.62-6.19-39-6.19-45.43,0-13.05,0-26.93,6-44.19C182,108.6,187.52,96.88,198,83.72c6.45-8.12,14-11.78,18.33-14.72,8.15-5.47,24.16-5.88,38.26-8.66,9.43-1.85,17.38-1.57,27.77,0,.81.12,1,.17,1.48.24a64.13,64.13,0,0,0,29-2.41C325.24,53.63,332.34,45.54,334.26,40.76Z"/><path class="cls-10" d="M149.77,116.87c2,.62,6.41-7.14,16.42-19.48a247.56,247.56,0,0,1,23.3-25.11c10-9.35,16-14.94,26.47-20.35,6.77-3.49,16.15-8.22,29.65-9.52,4.45-.43,18.12-1.75,31.77,3.46,3.88,1.48,9.46,4.14,19.59,7.36,9.28,3,10.76,2.68,11.65,2.17,4.39-2.55,1.57-20.51-9.53-28.14-1.82-1.25-6.74-2.47-16.53-4.86-12.23-3-18.42-4.47-22.13-4.23C252,18.72,249.78,21,240,22.8c-7.57,1.43-8.94,1.26-14.54,3.59-10.24,4.26-16.23,9.24-27,18.18-9.15,7.6-14.66,13.7-22.24,22.08C157,88,153,97.81,151.36,103S147.86,116.28,149.77,116.87Z"/><path class="cls-11" d="M215,171.13c4.38,0,7.92-3.83,7.92-8.55S219.42,154,215,154s-7.92,3.83-7.92,8.55S210.67,171.13,215,171.13Z"/><path class="cls-11" d="M216.44,154.23c11.84,0,22.08,4.41,26.95,10.81a16.09,16.09,0,0,0,.8-1.68c-4.48-7-15.21-12-27.75-12-14,0-25.76,6.16-29.06,14.48.25.38.52.76.8,1.14C192.31,159.57,203.4,154.23,216.44,154.23Z"/><path class="cls-11" d="M307.53,169.16c4.38,0,7.92-3.82,7.92-8.55s-3.54-8.54-7.92-8.54-7.92,3.82-7.92,8.54S303.16,169.16,307.53,169.16Z"/><path class="cls-11" d="M306.77,152.7c11.85,0,22.09,4.41,27,10.8a16,16,0,0,0,.81-1.67c-4.48-7-15.22-12-27.76-12-14,0-25.75,6.15-29,14.48.24.38.51.76.8,1.14C282.64,158,293.73,152.7,306.77,152.7Z"/><path class="cls-12" d="M184.33,151.91l5,12.21"/><path class="cls-12" d="M187.8,148.31l5,12.2"/><path class="cls-12" d="M337.23,149.5l-5,12.21"/><path class="cls-12" d="M333.82,146.65l-5,12.2"/><path class="cls-12" d="M192.32,145.83l4.34,12.5"/><path class="cls-12" d="M196.91,143.67l3.3,12.89"/><path class="cls-12" d="M329.67,144l-4.35,12.49"/><path class="cls-12" d="M325.07,141.83l-3.3,12.89"/><path class="cls-12" d="M260.67,184.78c-2.77,6.41-6,14.22-9.39,23.19-3.93,10.39-4.82,13.64-3.13,16.44,4.28,7.1,21.15,4.85,23.48,4.52"/><path class="cls-12" d="M242.09,265.71a144.49,144.49,0,0,0,44.45-.82"/><path class="cls-12" d="M252.31,278a38.6,38.6,0,0,0,13,1.23,39.7,39.7,0,0,0,9.79-2.05"/><path class="cls-12" d="M263.75,256.43c-5.73-4.92-9.85-5.33-12.6-4.71-3.79.85-5.29,3.51-9.63,6a18.4,18.4,0,0,1-7.43,2.68,17.58,17.58,0,0,1-8.55-1.19"/><path class="cls-12" d="M262.52,256.43c5.73-4.92,9.85-5.33,12.6-4.71,3.79.85,5.28,3.51,9.63,6a18.4,18.4,0,0,0,7.43,2.68,17.58,17.58,0,0,0,8.55-1.19"/><path class="cls-3" d="M310.1,65.72c.54,9.2,5.45,11,19.37,33,9.76,15.41,14.68,23.33,16.68,33.83s-.74,11.73.62,26.22c1.83,19.42,7.09,20.45,7.71,32.73,1.15,22.36-22.91,29.5-19.74,50.39.81,5.33,2.36,5.72,3.06,12.44.42,3.94.92,13.77-6.25,30-8.59,19.38-16.25,21-17.72,33.82-.88,7.69,1.71,8.36,3.13,19.34,3.93,30.61-13.51,47.12-3.13,59,3.92,4.47,10.39,6.67,13.55,7.73,1.55.53,8.25,2.69,19.81,1.93A79.2,79.2,0,0,0,367,402.23c28.41-9,51.38,6.36,61.5-3.86,5.08-5.14-.43-9.32-2.08-41.56-1.46-28.45,2.14-38.87,4.52-44.37,3.73-8.63,5.85-8.34,8.67-16.85,1.3-3.92,6.18-18.64,1.4-35.44-2.64-9.28-6.82-14.27-8.85-27.77-.52-3.5-1-5.26-.73-7.83.64-7.45,5.19-11.53,4.17-22.9-1.23-13.69-8.38-14-16.05-35.07-5.66-15.52-1.7-15.18-7.45-32-3.54-10.4-4.51-9-17.76-36.8-5.24-11-7.37-16-10.4-21.17,0,0-1.64-2.7-3.36-5.24-5.94-8.76-33.81-41.62-54.25-34.46C315.73,40.61,309.45,54.57,310.1,65.72Z"/><path class="cls-10" d="M420.76,203.53c.88,2.35,2.6,7.35,4.24,17.32,2.49,15.15.56,16.18,3.18,23,3.7,9.57,7.93,8.51,11.12,16.88,1.5,3.95,2,8-2.12,28.57-3.39,17-5.14,25.53-7.41,25.55-2.49,0-2.32-8.45-9-24.25-4.79-11.32-7.74-13.73-11.65-25.11A87.94,87.94,0,0,1,404.88,249c-1.71-11.67.69-15.23,3.18-38.53,1.63-15.31,1.46-21.82,3.71-22.08C415,188,419.77,200.86,420.76,203.53Z"/><path class="cls-3" d="M274,139.84c1.17,3.14,7.95,3,8.79,3,2.73,0,3.26-.64,9.31-2.09.7-.17.8-.18,10-2C311,137,310.92,137,311,137c8-1.43,12-2.26,17-1.72a50.36,50.36,0,0,1,10.22,2.2c3.87,1.28,7,2.29,10,4.77,4.74,3.93,5.7,8.64,6.55,8.35s.59-4.09-1.27-7.23c-.76-1.28-1.82-2.27-3.94-4.24a45,45,0,0,0-5.28-4.35,42.6,42.6,0,0,0-7.64-4.24,27.05,27.05,0,0,0-7.52-2.28,39.52,39.52,0,0,0-10.82.33c-1.68.2-6.09.44-14.92.94-3.73.22-8.93.48-15.95,1.18-5.37.53-8.33,1-10.78,3.24C276.36,134.17,273.05,137.3,274,139.84Z"/><path class="cls-3" d="M246.14,140.79c-1.15,3.14-7.94,3.09-8.77,3.09-2.73,0-3.26-.62-9.32-2-.7-.16-.79-.18-10-2l-8.95-1.75c-8-1.4-12-2.22-17-1.65a50,50,0,0,0-10.21,2.25c-3.86,1.28-7,2.32-9.93,4.81-4.71,4-5.65,8.66-6.5,8.38s-.61-4.09,1.24-7.24c.75-1.28,1.81-2.27,3.92-4.25a46,46,0,0,1,5.25-4.38,41.53,41.53,0,0,1,7.63-4.27,27.56,27.56,0,0,1,7.49-2.31,39.67,39.67,0,0,1,10.82.28c1.68.19,6.1.41,14.93.88,3.73.19,8.94.43,16,1.1,5.36.51,8.32.94,10.79,3.21C243.74,135.13,247.07,138.24,246.14,140.79Z"/><path class="cls-13" d="M309.66,61.06c-.17,2.19-14.33,1.15-36.48,4.83-22,3.64-34.8,6-48,14.5-10.17,6.53-9.87,10.11-30.23,25.12-14.39,10.62-16.21,10.06-16.68,9.67s-1-2.12,13.56-24.16c11.9-18.07,14.75-20.86,17.72-23.2,7.31-5.76,14.26-7.93,22.94-10.63,21.29-6.64,39.65-4.34,51.08-2.9C294.54,55.66,309.85,58.76,309.66,61.06Z"/><path class="cls-9" d="M98.36,448.64c1.7.31.42,9,0,26.1-.64,26.3,1.47,43.72-2.4,44.47-2.4.46-3.71-6.17-12.51-10.63-5.39-2.74-7.66-1.76-9.38-3.87-3.4-4.16,3.94-12.79,10.74-25.13C95,461.07,96.27,448.27,98.36,448.64Z"/><path class="cls-9" d="M394.1,448.64c2.45-.54,7.86,10,10.43,19.33,2,7.32,1.71,11.78,2.08,19.33A111.51,111.51,0,0,0,408,501c2.37,13.75,3.9,15.8,3.8,23s-2.15,6.64-4.17,17.4c-1,5.18-1.1,8.5-1,31.9,0,17.69.11,17.21,0,18.37-1.51,15.33-7.94,32.31-11.47,31.89-6.29-.74-3.66-56.87-2.08-70.56.09-.78.82-6.91,1.76-15.49.74-6.73,1.15-10.67,1.37-12.54C401.08,483.86,389.78,449.61,394.1,448.64Z"/><rect class="cls-14" x="206.18" y="436.6" width="42.37" height="37.5"/><rect class="cls-15" x="256.61" y="436.6" width="64.56" height="7.99"/><rect class="cls-16" x="256.61" y="436.6" width="64.56" height="7.99"/><rect class="cls-15" x="256.61" y="466.11" width="64.56" height="7.99"/><rect class="cls-16" x="206.18" y="495.61" width="115" height="7.99"/><rect class="cls-16" x="256.61" y="466.11" width="64.56" height="7.99"/><rect class="cls-16" x="206.18" y="480.86" width="115" height="7.99"/><rect class="cls-16" x="256.61" y="451.35" width="64.56" height="7.99"/></g></svg>