<svg id="Layer_1" data-name="Layer 1" xmlns="http://www.w3.org/2000/svg" xmlns:xlink="http://www.w3.org/1999/xlink" viewBox="0 0 1920 1040"><defs><style>.cls-1{fill:#fff;}.cls-11,.cls-2,.cls-4,.cls-6,.cls-8{fill-rule:evenodd;}.cls-3{fill:#c5a552;}.cls-3,.cls-45{stroke:#000;}.cls-4{fill:#85b0a6;}.cls-5{mask:url(#mask);}.cls-6{fill:#e0cdad;}.cls-7{mask:url(#mask-2);}.cls-8{fill:#eecd5c;}.cls-9{mask:url(#mask-3);}.cls-10{mask:url(#mask-4);}.cls-11{fill:#89873b;}.cls-12{mask:url(#mask-5);}.cls-13{mask:url(#mask-6);}.cls-14{mask:url(#mask-7);}.cls-15{mask:url(#mask-8);}.cls-16{mask:url(#mask-9);}.cls-17{mask:url(#mask-10);}.cls-18{mask:url(#mask-12);}.cls-19{mask:url(#mask-13);}.cls-20{mask:url(#mask-14);}.cls-21{mask:url(#mask-15);}.cls-22{mask:url(#mask-16);}.cls-23{mask:url(#mask-17);}.cls-24{mask:url(#mask-18);}.cls-25{mask:url(#mask-19);}.cls-26{mask:url(#mask-20);}.cls-27{mask:url(#mask-21);}.cls-28{mask:url(#mask-22);}.cls-29{mask:url(#mask-23);}.cls-30{mask:url(#mask-25);}.cls-31{mask:url(#mask-26);}.cls-32{mask:url(#mask-27);}.cls-33{mask:url(#mask-28);}.cls-34{mask:url(#mask-29);}.cls-35{mask:url(#mask-30);}.cls-36{mask:url(#mask-31);}.cls-37{mask:url(#mask-32);}.cls-38{mask:url(#mask-33);}.cls-39{mask:url(#mask-34);}.cls-40{mask:url(#mask-35);}.cls-41{mask:url(#mask-36);}.cls-42{mask:url(#mask-38);}.cls-43{mask:url(#mask-39);}.cls-44{fill:#fff7dc;}.cls-45{fill:#677d75;stroke-width:2px;}</style><mask id="mask" x="531.62" y="-5.63" width="118.43" height="249.3" maskUnits="userSpaceOnUse"><g id="path-10-outside-1"><rect class="cls-1" x="531.62" y="-5.63" width="118.43" height="249.3"/><path class="cls-2" d="M649-2.2V240.24L533.8,119Z"/></g></mask><mask id="mask-2" x="301.28" y="236.81" width="118.43" height="249.3" maskUnits="userSpaceOnUse"><g id="path-12-outside-2"><rect class="cls-1" x="301.28" y="236.81" width="118.43" height="249.3"/><path class="cls-2" d="M418.62,240.24V482.68L303.45,361.46Z"/></g></mask><mask id="mask-3" x="531.62" y="236.81" width="118.43" height="249.3" maskUnits="userSpaceOnUse"><g id="path-14-outside-3"><rect class="cls-1" x="531.62" y="236.81" width="118.43" height="249.3"/><path class="cls-2" d="M649,240.24V482.68L533.8,361.46Z"/></g></mask><mask id="mask-4" x="70.94" y="-5.63" width="118.43" height="249.3" maskUnits="userSpaceOnUse"><g id="path-16-outside-4"><rect class="cls-1" x="70.94" y="-5.63" width="118.43" height="249.3"/><path class="cls-2" d="M188.28-2.2V240.24L73.11,119Z"/></g></mask><mask id="mask-5" x="301.28" y="-5.63" width="118.43" height="249.3" maskUnits="userSpaceOnUse"><g id="path-18-outside-5"><rect class="cls-1" x="301.28" y="-5.63" width="118.43" height="249.3"/><path class="cls-2" d="M418.62-2.2V240.24L303.45,119Z"/></g></mask><mask id="mask-6" x="70.94" y="236.81" width="118.43" height="249.3" maskUnits="userSpaceOnUse"><g id="path-20-outside-6"><rect class="cls-1" x="70.94" y="236.81" width="118.43" height="249.3"/><path class="cls-2" d="M188.28,240.24V482.68L73.11,361.46Z"/></g></mask><mask id="mask-7" x="417.54" y="-5.63" width="118.43" height="249.3" maskUnits="userSpaceOnUse"><g id="path-22-outside-7"><rect class="cls-1" x="417.54" y="-5.63" width="118.43" height="249.3"/><path class="cls-2" d="M418.62,240.24V-2.2L533.8,119Z"/></g></mask><mask id="mask-8" x="417.54" y="236.81" width="118.43" height="249.3" maskUnits="userSpaceOnUse"><g id="path-24-outside-8"><rect class="cls-1" x="417.54" y="236.81" width="118.43" height="249.3"/><path class="cls-2" d="M418.62,482.68V240.24L533.8,361.46Z"/></g></mask><mask id="mask-9" x="187.19" y="236.81" width="118.43" height="249.3" maskUnits="userSpaceOnUse"><g id="path-26-outside-9"><rect class="cls-1" x="187.19" y="236.81" width="118.43" height="249.3"/><path class="cls-2" d="M188.28,482.68V240.24L303.45,361.46Z"/></g></mask><mask id="mask-10" x="187.19" y="-5.63" width="118.43" height="249.3" maskUnits="userSpaceOnUse"><g id="path-28-outside-10"><rect class="cls-1" x="187.19" y="-5.63" width="118.43" height="249.3"/><path class="cls-2" d="M188.28,240.24V-2.2L303.45,119Z"/></g></mask><mask id="mask-12" x="-44.24" y="-5.63" width="118.43" height="249.3" maskUnits="userSpaceOnUse"><g id="path-32-outside-12"><rect class="cls-1" x="-44.24" y="-5.63" width="118.43" height="249.3"/><path class="cls-2" d="M-43.15,240.24V-2.2L72,119Z"/></g></mask><mask id="mask-13" x="-44.24" y="236.81" width="118.43" height="249.3" maskUnits="userSpaceOnUse"><g id="path-34-outside-13"><rect class="cls-1" x="-44.24" y="236.81" width="118.43" height="249.3"/><path class="cls-2" d="M-43.15,482.68V240.24L72,361.46Z"/></g></mask><mask id="mask-14" x="1224.36" y="-4.49" width="118.43" height="249.3" maskUnits="userSpaceOnUse"><g id="path-10-outside-1-2" data-name="path-10-outside-1"><rect class="cls-1" x="1224.36" y="-4.49" width="118.43" height="249.3"/><path class="cls-2" d="M1341.71-1.06V241.38L1226.54,120.16Z"/></g></mask><mask id="mask-15" x="994.02" y="237.95" width="118.43" height="249.3" maskUnits="userSpaceOnUse"><g id="path-12-outside-2-2" data-name="path-12-outside-2"><rect class="cls-1" x="994.02" y="237.95" width="118.43" height="249.3"/><path class="cls-2" d="M1111.37,241.38V483.82L996.19,362.6Z"/></g></mask><mask id="mask-16" x="1224.36" y="237.95" width="118.43" height="249.3" maskUnits="userSpaceOnUse"><g id="path-14-outside-3-2" data-name="path-14-outside-3"><rect class="cls-1" x="1224.36" y="237.95" width="118.43" height="249.3"/><path class="cls-2" d="M1341.71,241.38V483.82L1226.54,362.6Z"/></g></mask><mask id="mask-17" x="763.68" y="-4.49" width="118.43" height="249.3" maskUnits="userSpaceOnUse"><g id="path-16-outside-4-2" data-name="path-16-outside-4"><rect class="cls-1" x="763.68" y="-4.49" width="118.43" height="249.3"/><path class="cls-2" d="M881-1.06V241.38L765.85,120.16Z"/></g></mask><mask id="mask-18" x="994.02" y="-4.49" width="118.43" height="249.3" maskUnits="userSpaceOnUse"><g id="path-18-outside-5-2" data-name="path-18-outside-5"><rect class="cls-1" x="994.02" y="-4.49" width="118.43" height="249.3"/><path class="cls-2" d="M1111.37-1.06V241.38L996.19,120.16Z"/></g></mask><mask id="mask-19" x="763.68" y="237.95" width="118.43" height="249.3" maskUnits="userSpaceOnUse"><g id="path-20-outside-6-2" data-name="path-20-outside-6"><rect class="cls-1" x="763.68" y="237.95" width="118.43" height="249.3"/><path class="cls-2" d="M881,241.38V483.82L765.85,362.6Z"/></g></mask><mask id="mask-20" x="1110.28" y="-4.49" width="118.43" height="249.3" maskUnits="userSpaceOnUse"><g id="path-22-outside-7-2" data-name="path-22-outside-7"><rect class="cls-1" x="1110.28" y="-4.49" width="118.43" height="249.3"/><path class="cls-2" d="M1111.37,241.38V-1.06l115.17,121.22Z"/></g></mask><mask id="mask-21" x="1110.28" y="237.95" width="118.43" height="249.3" maskUnits="userSpaceOnUse"><g id="path-24-outside-8-2" data-name="path-24-outside-8"><rect class="cls-1" x="1110.28" y="237.95" width="118.43" height="249.3"/><path class="cls-2" d="M1111.37,483.82V241.38L1226.54,362.6Z"/></g></mask><mask id="mask-22" x="879.94" y="237.95" width="118.43" height="249.3" maskUnits="userSpaceOnUse"><g id="path-26-outside-9-2" data-name="path-26-outside-9"><rect class="cls-1" x="879.94" y="237.95" width="118.43" height="249.3"/><path class="cls-2" d="M881,483.82V241.38L996.19,362.6Z"/></g></mask><mask id="mask-23" x="879.94" y="-4.49" width="118.43" height="249.3" maskUnits="userSpaceOnUse"><g id="path-28-outside-10-2" data-name="path-28-outside-10"><rect class="cls-1" x="879.94" y="-4.49" width="118.43" height="249.3"/><path class="cls-2" d="M881,241.38V-1.06L996.19,120.16Z"/></g></mask><mask id="mask-25" x="648.51" y="-4.49" width="118.43" height="249.3" maskUnits="userSpaceOnUse"><g id="path-32-outside-12-2" data-name="path-32-outside-12"><rect class="cls-1" x="648.51" y="-4.49" width="118.43" height="249.3"/><path class="cls-2" d="M649.59,241.38V-1.06L764.76,120.16Z"/></g></mask><mask id="mask-26" x="648.51" y="237.95" width="118.43" height="249.3" maskUnits="userSpaceOnUse"><g id="path-34-outside-13-2" data-name="path-34-outside-13"><rect class="cls-1" x="648.51" y="237.95" width="118.43" height="249.3"/><path class="cls-2" d="M649.59,483.82V241.38L764.76,362.6Z"/></g></mask><mask id="mask-27" x="1917.57" y="-4.49" width="118.43" height="249.3" maskUnits="userSpaceOnUse"><g id="path-10-outside-1-3" data-name="path-10-outside-1"><rect class="cls-1" x="1917.57" y="-4.49" width="118.43" height="249.3"/><path class="cls-2" d="M2034.91-1.06V241.38L1919.74,120.16Z"/></g></mask><mask id="mask-28" x="1687.22" y="237.95" width="118.43" height="249.3" maskUnits="userSpaceOnUse"><g id="path-12-outside-2-3" data-name="path-12-outside-2"><rect class="cls-1" x="1687.22" y="237.95" width="118.43" height="249.3"/><path class="cls-2" d="M1804.57,241.38V483.82L1689.4,362.6Z"/></g></mask><mask id="mask-29" x="1917.57" y="237.95" width="118.43" height="249.3" maskUnits="userSpaceOnUse"><g id="path-14-outside-3-3" data-name="path-14-outside-3"><rect class="cls-1" x="1917.57" y="237.95" width="118.43" height="249.3"/><path class="cls-2" d="M2034.91,241.38V483.82L1919.74,362.6Z"/></g></mask><mask id="mask-30" x="1456.88" y="-4.49" width="118.43" height="249.3" maskUnits="userSpaceOnUse"><g id="path-16-outside-4-3" data-name="path-16-outside-4"><rect class="cls-1" x="1456.88" y="-4.49" width="118.43" height="249.3"/><path class="cls-2" d="M1574.23-1.06V241.38L1459.05,120.16Z"/></g></mask><mask id="mask-31" x="1687.22" y="-4.49" width="118.43" height="249.3" maskUnits="userSpaceOnUse"><g id="path-18-outside-5-3" data-name="path-18-outside-5"><rect class="cls-1" x="1687.22" y="-4.49" width="118.43" height="249.3"/><path class="cls-2" d="M1804.57-1.06V241.38L1689.4,120.16Z"/></g></mask><mask id="mask-32" x="1456.88" y="237.95" width="118.43" height="249.3" maskUnits="userSpaceOnUse"><g id="path-20-outside-6-3" data-name="path-20-outside-6"><rect class="cls-1" x="1456.88" y="237.95" width="118.43" height="249.3"/><path class="cls-2" d="M1574.23,241.38V483.82L1459.05,362.6Z"/></g></mask><mask id="mask-33" x="1803.48" y="-4.49" width="118.43" height="249.3" maskUnits="userSpaceOnUse"><g id="path-22-outside-7-3" data-name="path-22-outside-7"><rect class="cls-1" x="1803.48" y="-4.49" width="118.43" height="249.3"/><path class="cls-2" d="M1804.57,241.38V-1.06l115.17,121.22Z"/></g></mask><mask id="mask-34" x="1803.48" y="237.95" width="118.43" height="249.3" maskUnits="userSpaceOnUse"><g id="path-24-outside-8-3" data-name="path-24-outside-8"><rect class="cls-1" x="1803.48" y="237.95" width="118.43" height="249.3"/><path class="cls-2" d="M1804.57,483.82V241.38L1919.74,362.6Z"/></g></mask><mask id="mask-35" x="1573.14" y="237.95" width="118.43" height="249.3" maskUnits="userSpaceOnUse"><g id="path-26-outside-9-3" data-name="path-26-outside-9"><rect class="cls-1" x="1573.14" y="237.95" width="118.43" height="249.3"/><path class="cls-2" d="M1574.23,483.82V241.38L1689.4,362.6Z"/></g></mask><mask id="mask-36" x="1573.14" y="-4.49" width="118.43" height="249.3" maskUnits="userSpaceOnUse"><g id="path-28-outside-10-3" data-name="path-28-outside-10"><rect class="cls-1" x="1573.14" y="-4.49" width="118.43" height="249.3"/><path class="cls-2" d="M1574.23,241.38V-1.06L1689.4,120.16Z"/></g></mask><mask id="mask-38" x="1341.71" y="-4.49" width="118.43" height="249.3" maskUnits="userSpaceOnUse"><g id="path-32-outside-12-3" data-name="path-32-outside-12"><rect class="cls-1" x="1341.71" y="-4.49" width="118.43" height="249.3"/><path class="cls-2" d="M1342.8,241.38V-1.06L1458,120.16Z"/></g></mask><mask id="mask-39" x="1341.71" y="237.95" width="118.43" height="249.3" maskUnits="userSpaceOnUse"><g id="path-34-outside-13-3" data-name="path-34-outside-13"><rect class="cls-1" x="1341.71" y="237.95" width="118.43" height="249.3"/><path class="cls-2" d="M1342.8,483.82V241.38L1458,362.6Z"/></g></mask></defs><polygon class="cls-3" points="417.86 240.31 533.87 118.21 649.88 240.31 533.87 362.42 417.86 240.31"/><polygon class="cls-3" points="187.51 240.31 303.52 118.21 419.54 240.31 303.52 362.42 187.51 240.31"/><polygon class="cls-3" points="-42.83 240.31 73.18 118.21 189.19 240.31 73.18 362.42 -42.83 240.31"/><polygon class="cls-3" points="417.86 -2.13 533.87 -124.23 649.88 -2.13 533.87 119.98 417.86 -2.13"/><polygon class="cls-3" points="417.86 482.75 533.87 360.65 649.88 482.75 533.87 604.86 417.86 482.75"/><polygon class="cls-3" points="187.51 -2.13 303.52 -124.23 419.54 -2.13 303.52 119.98 187.51 -2.13"/><polygon class="cls-3" points="187.51 482.75 303.52 360.65 419.54 482.75 303.52 604.86 187.51 482.75"/><polygon class="cls-3" points="-42.83 -2.13 73.18 -124.23 189.19 -2.13 73.18 119.98 -42.83 -2.13"/><polygon class="cls-3" points="-43.92 482.75 72.09 360.65 188.11 482.75 72.09 604.86 -43.92 482.75"/><path class="cls-4" d="M649-2.2V240.24L533.8,119Z"/><g class="cls-5"><path d="M649-2.2h1.08V-5L648.2-3Zm0,242.44-.77.81,1.85,1.95v-2.76ZM533.8,119l-.77-.81-.77.81.77.81ZM647.88-2.2V240.24h2.17V-2.2Zm1.86,241.63L534.56,118.21,533,119.83,648.2,241.05ZM534.56,119.83,649.74-1.39,648.2-3,533,118.21Z"/></g><path class="cls-6" d="M418.62,240.24V482.68L303.45,361.46Z"/><g class="cls-7"><path d="M418.62,240.24h1.09v-2.76l-1.85,2Zm0,242.44-.76.81,1.85,1.95v-2.76ZM303.45,361.46l-.77-.81-.76.81.76.81ZM417.54,240.24V482.68h2.17V240.24Zm1.85,241.63L304.22,360.65l-1.54,1.62L417.86,483.49ZM304.22,362.27,419.39,241.05l-1.53-1.62L302.68,360.65Z"/></g><path class="cls-8" d="M649,240.24V482.68L533.8,361.46Z"/><g class="cls-9"><path d="M649,240.24h1.08v-2.76l-1.85,2Zm0,242.44-.77.81,1.85,1.95v-2.76ZM533.8,361.46l-.77-.81-.77.81.77.81ZM647.88,240.24V482.68h2.17V240.24Zm1.86,241.63L534.56,360.65,533,362.27,648.2,483.49ZM534.56,362.27,649.74,241.05l-1.54-1.62L533,360.65Z"/></g><path class="cls-8" d="M188.28-2.2V240.24L73.11,119Z"/><g class="cls-10"><path d="M188.28-2.2h1.09V-5l-1.86,2Zm0,242.44-.77.81,1.86,1.95v-2.76ZM73.11,119l-.77-.81-.77.81.77.81ZM187.19-2.2V240.24h2.18V-2.2Zm1.86,241.63L73.88,118.21l-1.54,1.62L187.51,241.05ZM73.88,119.83,189.05-1.39,187.51-3,72.34,118.21Z"/></g><path class="cls-11" d="M418.62-2.2V240.24L303.45,119Z"/><g class="cls-12"><path d="M418.62-2.2h1.09V-5l-1.85,2Zm0,242.44-.76.81,1.85,1.95v-2.76ZM303.45,119l-.77-.81-.76.81.76.81ZM417.54-2.2V240.24h2.17V-2.2Zm1.85,241.63L304.22,118.21l-1.54,1.62L417.86,241.05ZM304.22,119.83,419.39-1.39,417.86-3,302.68,118.21Z"/></g><path class="cls-11" d="M188.28,240.24V482.68L73.11,361.46Z"/><g class="cls-13"><path d="M188.28,240.24h1.09v-2.76l-1.86,2Zm0,242.44-.77.81,1.86,1.95v-2.76ZM73.11,361.46l-.77-.81-.77.81.77.81ZM187.19,240.24V482.68h2.18V240.24Zm1.86,241.63L73.88,360.65l-1.54,1.62L187.51,483.49ZM73.88,362.27,189.05,241.05l-1.54-1.62L72.34,360.65Z"/></g><path class="cls-8" d="M418.62,240.24V-2.2L533.8,119Z"/><g class="cls-14"><path d="M418.62,240.24h-1.08V243l1.85-1.95Zm0-242.44.77-.81L417.54-5V-2.2ZM533.8,119l.76.81.77-.81-.77-.81ZM419.71,240.24V-2.2h-2.17V240.24ZM417.86-1.39,533,119.83l1.53-1.62L419.39-3ZM533,118.21,417.86,239.43l1.53,1.62L534.56,119.83Z"/></g><path class="cls-4" d="M418.62,482.68V240.24L533.8,361.46Z"/><g class="cls-15"><path d="M418.62,482.68h-1.08v2.76l1.85-1.95Zm0-242.44.77-.81-1.85-2v2.76ZM533.8,361.46l.76.81.77-.81-.77-.81ZM419.71,482.68V240.24h-2.17V482.68Zm-1.85-241.63L533,362.27l1.53-1.62L419.39,239.43ZM533,360.65,417.86,481.87l1.53,1.62L534.56,362.27Z"/></g><path class="cls-4" d="M188.28,482.68V240.24L303.45,361.46Z"/><g class="cls-16"><path d="M188.28,482.68h-1.09v2.76l1.86-1.95Zm0-242.44.77-.81-1.86-2v2.76ZM303.45,361.46l.77.81.77-.81-.77-.81ZM189.37,482.68V240.24h-2.18V482.68Zm-1.86-241.63L302.68,362.27l1.54-1.62L189.05,239.43Zm115.17,119.6L187.51,481.87l1.54,1.62L304.22,362.27Z"/></g><path class="cls-6" d="M188.28,240.24V-2.2L303.45,119Z"/><g class="cls-17"><path d="M188.28,240.24h-1.09V243l1.86-1.95Zm0-242.44.77-.81L187.19-5V-2.2ZM303.45,119l.77.81L305,119l-.77-.81ZM189.37,240.24V-2.2h-2.18V240.24ZM187.51-1.39,302.68,119.83l1.54-1.62L189.05-3Zm115.17,119.6L187.51,239.43l1.54,1.62L304.22,119.83Z"/></g><path class="cls-6" d="M418.62,240.24V-2.2L533.8,119Z"/><g class="cls-14"><path d="M418.62,240.24h-1.08V243l1.85-1.95Zm0-242.44.77-.81L417.54-5V-2.2ZM533.8,119l.76.81.77-.81-.77-.81ZM419.71,240.24V-2.2h-2.17V240.24ZM417.86-1.39,533,119.83l1.53-1.62L419.39-3ZM533,118.21,417.86,239.43l1.53,1.62L534.56,119.83Z"/></g><path class="cls-11" d="M-43.15,240.24V-2.2L72,119Z"/><g class="cls-18"><path d="M-43.15,240.24h-1.09V243l1.86-1.95Zm0-242.44.77-.81L-44.24-5V-2.2ZM72,119l.77.81.77-.81-.77-.81ZM-42.06,240.24V-2.2h-2.18V240.24ZM-43.92-1.39,71.25,119.83l1.54-1.62L-42.38-3ZM71.25,118.21-43.92,239.43l1.54,1.62L72.79,119.83Z"/></g><path class="cls-6" d="M-43.15,482.68V240.24L72,361.46Z"/><g class="cls-19"><path d="M-43.15,482.68h-1.09v2.76l1.86-1.95Zm0-242.44.77-.81-1.86-2v2.76ZM72,361.46l.77.81.77-.81-.77-.81ZM-42.06,482.68V240.24h-2.18V482.68Zm-1.86-241.63L71.25,362.27l1.54-1.62L-42.38,239.43ZM71.25,360.65-43.92,481.87l1.54,1.62L72.79,362.27Z"/></g><polygon class="cls-3" points="1110.6 241.46 1226.61 119.35 1342.62 241.46 1226.61 363.56 1110.6 241.46"/><polygon class="cls-3" points="880.25 241.46 996.27 119.35 1112.28 241.46 996.27 363.56 880.25 241.46"/><polygon class="cls-3" points="649.91 241.46 765.92 119.35 881.93 241.46 765.92 363.56 649.91 241.46"/><polygon class="cls-3" points="1110.6 -0.98 1226.61 -123.09 1342.62 -0.98 1226.61 121.12 1110.6 -0.98"/><polygon class="cls-3" points="1110.6 483.9 1226.61 361.79 1342.62 483.9 1226.61 606 1110.6 483.9"/><polygon class="cls-3" points="880.25 -0.98 996.27 -123.09 1112.28 -0.98 996.27 121.12 880.25 -0.98"/><polygon class="cls-3" points="880.25 483.9 996.27 361.79 1112.28 483.9 996.27 606 880.25 483.9"/><polygon class="cls-3" points="649.91 -0.98 765.92 -123.09 881.93 -0.98 765.92 121.12 649.91 -0.98"/><polygon class="cls-3" points="648.82 483.9 764.84 361.79 880.85 483.9 764.84 606 648.82 483.9"/><path class="cls-4" d="M1341.71-1.06V241.38L1226.54,120.16Z"/><g class="cls-20"><path d="M1341.71-1.06h1.09V-3.82l-1.86,1.95Zm0,242.44-.77.81,1.86,1.95v-2.76ZM1226.54,120.16l-.77-.81-.77.81.77.81ZM1340.62-1.06V241.38h2.18V-1.06Zm1.86,241.63L1227.31,119.35l-1.54,1.62,115.17,121.22ZM1227.31,121,1342.48-.25l-1.54-1.62L1225.77,119.35Z"/></g><path class="cls-6" d="M1111.37,241.38V483.82L996.19,362.6Z"/><g class="cls-21"><path d="M1111.37,241.38h1.08v-2.76l-1.85,1.95Zm0,242.44-.77.81,1.85,1.95v-2.76ZM996.19,362.6l-.76-.81-.77.81.77.81Zm114.09-121.22V483.82h2.17V241.38ZM1112.13,483,997,361.79l-1.53,1.62L1110.6,484.63ZM997,363.41l115.17-121.22-1.53-1.62L995.43,361.79Z"/></g><path class="cls-8" d="M1341.71,241.38V483.82L1226.54,362.6Z"/><g class="cls-22"><path d="M1341.71,241.38h1.09v-2.76l-1.86,1.95Zm0,242.44-.77.81,1.86,1.95v-2.76ZM1226.54,362.6l-.77-.81-.77.81.77.81Zm114.08-121.22V483.82h2.18V241.38ZM1342.48,483,1227.31,361.79l-1.54,1.62,115.17,121.22Zm-115.17-119.6,115.17-121.22-1.54-1.62L1225.77,361.79Z"/></g><path class="cls-8" d="M881-1.06V241.38L765.85,120.16Z"/><g class="cls-23"><path d="M881-1.06h1.09V-3.82l-1.86,1.95Zm0,242.44-.77.81,1.86,1.95v-2.76ZM765.85,120.16l-.77-.81-.77.81.77.81ZM879.94-1.06V241.38h2.17V-1.06Zm1.85,241.63L766.62,119.35,765.08,121,880.25,242.19ZM766.62,121,881.79-.25l-1.54-1.62L765.08,119.35Z"/></g><path class="cls-11" d="M1111.37-1.06V241.38L996.19,120.16Z"/><g class="cls-24"><path d="M1111.37-1.06h1.08V-3.82l-1.85,1.95Zm0,242.44-.77.81,1.85,1.95v-2.76ZM996.19,120.16l-.76-.81-.77.81.77.81ZM1110.28-1.06V241.38h2.17V-1.06Zm1.85,241.63L997,119.35,995.43,121,1110.6,242.19ZM997,121,1112.13-.25l-1.53-1.62L995.43,119.35Z"/></g><path class="cls-11" d="M881,241.38V483.82L765.85,362.6Z"/><g class="cls-25"><path d="M881,241.38h1.09v-2.76l-1.86,1.95Zm0,242.44-.77.81,1.86,1.95v-2.76ZM765.85,362.6l-.77-.81-.77.81.77.81ZM879.94,241.38V483.82h2.17V241.38ZM881.79,483,766.62,361.79l-1.54,1.62L880.25,484.63ZM766.62,363.41,881.79,242.19l-1.54-1.62L765.08,361.79Z"/></g><path class="cls-8" d="M1111.37,241.38V-1.06l115.17,121.22Z"/><g class="cls-26"><path d="M1111.37,241.38h-1.09v2.76l1.85-1.95Zm0-242.44.76-.81-1.85-1.95v2.76Zm115.17,121.22.77.81.76-.81-.76-.81ZM1112.45,241.38V-1.06h-2.17V241.38ZM1110.6-.25,1225.77,121l1.54-1.62L1112.13-1.87Zm115.17,119.6L1110.6,240.57l1.53,1.62L1227.31,121Z"/></g><path class="cls-4" d="M1111.37,483.82V241.38L1226.54,362.6Z"/><g class="cls-27"><path d="M1111.37,483.82h-1.09v2.76l1.85-1.95Zm0-242.44.76-.81-1.85-1.95v2.76ZM1226.54,362.6l.77.81.76-.81-.76-.81ZM1112.45,483.82V241.38h-2.17V483.82Zm-1.85-241.63,115.17,121.22,1.54-1.62L1112.13,240.57Zm115.17,119.6L1110.6,483l1.53,1.62,115.18-121.22Z"/></g><path class="cls-4" d="M881,483.82V241.38L996.19,362.6Z"/><g class="cls-28"><path d="M881,483.82h-1.08v2.76l1.85-1.95Zm0-242.44.77-.81-1.85-1.95v2.76ZM996.19,362.6l.77.81.77-.81-.77-.81ZM882.11,483.82V241.38h-2.17V483.82Zm-1.86-241.63L995.43,363.41l1.53-1.62L881.79,240.57Zm115.18,119.6L880.25,483l1.54,1.62L997,363.41Z"/></g><path class="cls-6" d="M881,241.38V-1.06L996.19,120.16Z"/><g class="cls-29"><path d="M881,241.38h-1.08v2.76l1.85-1.95ZM881-1.06l.77-.81-1.85-1.95v2.76ZM996.19,120.16l.77.81.77-.81-.77-.81ZM882.11,241.38V-1.06h-2.17V241.38ZM880.25-.25,995.43,121l1.53-1.62L881.79-1.87Zm115.18,119.6L880.25,240.57l1.54,1.62L997,121Z"/></g><path class="cls-6" d="M1111.37,241.38V-1.06l115.17,121.22Z"/><g class="cls-26"><path d="M1111.37,241.38h-1.09v2.76l1.85-1.95Zm0-242.44.76-.81-1.85-1.95v2.76Zm115.17,121.22.77.81.76-.81-.76-.81ZM1112.45,241.38V-1.06h-2.17V241.38ZM1110.6-.25,1225.77,121l1.54-1.62L1112.13-1.87Zm115.17,119.6L1110.6,240.57l1.53,1.62L1227.31,121Z"/></g><path class="cls-11" d="M649.59,241.38V-1.06L764.76,120.16Z"/><g class="cls-30"><path d="M649.59,241.38h-1.08v2.76l1.85-1.95Zm0-242.44.77-.81-1.85-1.95v2.76ZM764.76,120.16l.77.81.77-.81-.77-.81ZM650.68,241.38V-1.06h-2.17V241.38ZM648.82-.25,764,121l1.53-1.62L650.36-1.87ZM764,119.35,648.82,240.57l1.54,1.62L765.53,121Z"/></g><path class="cls-6" d="M649.59,483.82V241.38L764.76,362.6Z"/><g class="cls-31"><path d="M649.59,483.82h-1.08v2.76l1.85-1.95Zm0-242.44.77-.81-1.85-1.95v2.76ZM764.76,362.6l.77.81.77-.81-.77-.81ZM650.68,483.82V241.38h-2.17V483.82Zm-1.86-241.63L764,363.41l1.53-1.62L650.36,240.57ZM764,361.79,648.82,483l1.54,1.62L765.53,363.41Z"/></g><polygon class="cls-3" points="1803.8 241.46 1919.81 119.35 2035.83 241.46 1919.81 363.56 1803.8 241.46"/><polygon class="cls-3" points="1573.46 241.46 1689.47 119.35 1805.48 241.46 1689.47 363.56 1573.46 241.46"/><polygon class="cls-3" points="1343.11 241.46 1459.13 119.35 1575.14 241.46 1459.13 363.56 1343.11 241.46"/><polygon class="cls-3" points="1803.8 -0.98 1919.81 -123.09 2035.83 -0.98 1919.81 121.12 1803.8 -0.98"/><polygon class="cls-3" points="1803.8 483.9 1919.81 361.79 2035.83 483.9 1919.81 606 1803.8 483.9"/><polygon class="cls-3" points="1573.46 -0.98 1689.47 -123.09 1805.48 -0.98 1689.47 121.12 1573.46 -0.98"/><polygon class="cls-3" points="1573.46 483.9 1689.47 361.79 1805.48 483.9 1689.47 606 1573.46 483.9"/><polygon class="cls-3" points="1343.11 -0.98 1459.13 -123.09 1575.14 -0.98 1459.13 121.12 1343.11 -0.98"/><polygon class="cls-3" points="1342.03 483.9 1458.04 361.79 1574.05 483.9 1458.04 606 1342.03 483.9"/><path class="cls-4" d="M2034.91-1.06V241.38L1919.74,120.16Z"/><g class="cls-32"><path d="M2034.91-1.06H2036V-3.82l-1.85,1.95Zm0,242.44-.76.81,1.85,1.95v-2.76ZM1919.74,120.16l-.77-.81-.76.81.76.81ZM2033.83-1.06V241.38H2036V-1.06Zm1.85,241.63L1920.51,119.35,1919,121l115.18,121.22ZM1920.51,121,2035.68-.25l-1.53-1.62L1919,119.35Z"/></g><path class="cls-6" d="M1804.57,241.38V483.82L1689.4,362.6Z"/><g class="cls-33"><path d="M1804.57,241.38h1.09v-2.76l-1.86,1.95Zm0,242.44-.77.81,1.86,1.95v-2.76ZM1689.4,362.6l-.77-.81-.77.81.77.81Zm114.08-121.22V483.82h2.18V241.38ZM1805.34,483,1690.17,361.79l-1.54,1.62L1803.8,484.63Zm-115.17-119.6,115.17-121.22-1.54-1.62L1688.63,361.79Z"/></g><path class="cls-8" d="M2034.91,241.38V483.82L1919.74,362.6Z"/><g class="cls-34"><path d="M2034.91,241.38H2036v-2.76l-1.85,1.95Zm0,242.44-.76.81,1.85,1.95v-2.76ZM1919.74,362.6l-.77-.81-.76.81.76.81Zm114.09-121.22V483.82H2036V241.38ZM2035.68,483,1920.51,361.79l-1.54,1.62,115.18,121.22Zm-115.17-119.6,115.17-121.22-1.53-1.62L1919,361.79Z"/></g><path class="cls-8" d="M1574.23-1.06V241.38L1459.05,120.16Z"/><g class="cls-35"><path d="M1574.23-1.06h1.08V-3.82l-1.85,1.95Zm0,242.44-.77.81,1.85,1.95v-2.76ZM1459.05,120.16l-.76-.81-.77.81.77.81ZM1573.14-1.06V241.38h2.17V-1.06ZM1575,240.57,1459.82,119.35l-1.53,1.62,115.17,121.22ZM1459.82,121,1575-.25l-1.53-1.62L1458.29,119.35Z"/></g><path class="cls-11" d="M1804.57-1.06V241.38L1689.4,120.16Z"/><g class="cls-36"><path d="M1804.57-1.06h1.09V-3.82l-1.86,1.95Zm0,242.44-.77.81,1.86,1.95v-2.76ZM1689.4,120.16l-.77-.81-.77.81.77.81ZM1803.48-1.06V241.38h2.18V-1.06Zm1.86,241.63L1690.17,119.35l-1.54,1.62L1803.8,242.19ZM1690.17,121,1805.34-.25l-1.54-1.62L1688.63,119.35Z"/></g><path class="cls-11" d="M1574.23,241.38V483.82L1459.05,362.6Z"/><g class="cls-37"><path d="M1574.23,241.38h1.08v-2.76l-1.85,1.95Zm0,242.44-.77.81,1.85,1.95v-2.76ZM1459.05,362.6l-.76-.81-.77.81.77.81Zm114.09-121.22V483.82h2.17V241.38ZM1575,483,1459.82,361.79l-1.53,1.62,115.17,121.22Zm-115.17-119.6L1575,242.19l-1.53-1.62L1458.29,361.79Z"/></g><path class="cls-8" d="M1804.57,241.38V-1.06l115.17,121.22Z"/><g class="cls-38"><path d="M1804.57,241.38h-1.09v2.76l1.86-1.95Zm0-242.44.77-.81-1.86-1.95v2.76Zm115.17,121.22.77.81.77-.81-.77-.81ZM1805.66,241.38V-1.06h-2.18V241.38ZM1803.8-.25,1919,121l1.54-1.62L1805.34-1.87ZM1919,119.35,1803.8,240.57l1.54,1.62L1920.51,121Z"/></g><path class="cls-4" d="M1804.57,483.82V241.38L1919.74,362.6Z"/><g class="cls-39"><path d="M1804.57,483.82h-1.09v2.76l1.86-1.95Zm0-242.44.77-.81-1.86-1.95v2.76ZM1919.74,362.6l.77.81.77-.81-.77-.81ZM1805.66,483.82V241.38h-2.18V483.82Zm-1.86-241.63L1919,363.41l1.54-1.62L1805.34,240.57ZM1919,361.79,1803.8,483l1.54,1.62,115.17-121.22Z"/></g><path class="cls-4" d="M1574.23,483.82V241.38L1689.4,362.6Z"/><g class="cls-40"><path d="M1574.23,483.82h-1.09v2.76l1.85-1.95Zm0-242.44.76-.81-1.85-1.95v2.76ZM1689.4,362.6l.77.81.76-.81-.76-.81ZM1575.31,483.82V241.38h-2.17V483.82Zm-1.85-241.63,115.17,121.22,1.54-1.62L1575,240.57Zm115.17,119.6L1573.46,483l1.53,1.62,115.18-121.22Z"/></g><path class="cls-6" d="M1574.23,241.38V-1.06L1689.4,120.16Z"/><g class="cls-41"><path d="M1574.23,241.38h-1.09v2.76l1.85-1.95Zm0-242.44.76-.81-1.85-1.95v2.76ZM1689.4,120.16l.77.81.76-.81-.76-.81ZM1575.31,241.38V-1.06h-2.17V241.38ZM1573.46-.25,1688.63,121l1.54-1.62L1575-1.87Zm115.17,119.6L1573.46,240.57l1.53,1.62L1690.17,121Z"/></g><path class="cls-6" d="M1804.57,241.38V-1.06l115.17,121.22Z"/><g class="cls-38"><path d="M1804.57,241.38h-1.09v2.76l1.86-1.95Zm0-242.44.77-.81-1.86-1.95v2.76Zm115.17,121.22.77.81.77-.81-.77-.81ZM1805.66,241.38V-1.06h-2.18V241.38ZM1803.8-.25,1919,121l1.54-1.62L1805.34-1.87ZM1919,119.35,1803.8,240.57l1.54,1.62L1920.51,121Z"/></g><path class="cls-11" d="M1342.8,241.38V-1.06L1458,120.16Z"/><g class="cls-42"><path d="M1342.8,241.38h-1.09v2.76l1.85-1.95Zm0-242.44.76-.81-1.85-1.95v2.76ZM1458,120.16l.77.81.76-.81-.76-.81ZM1343.88,241.38V-1.06h-2.17V241.38ZM1342-.25,1457.2,121l1.54-1.62L1343.56-1.87Zm115.17,119.6L1342,240.57l1.53,1.62L1458.74,121Z"/></g><path class="cls-6" d="M1342.8,483.82V241.38L1458,362.6Z"/><g class="cls-43"><path d="M1342.8,483.82h-1.09v2.76l1.85-1.95Zm0-242.44.76-.81-1.85-1.95v2.76ZM1458,362.6l.77.81.76-.81-.76-.81ZM1343.88,483.82V241.38h-2.17V483.82ZM1342,242.19,1457.2,363.41l1.54-1.62L1343.56,240.57Zm115.17,119.6L1342,483l1.53,1.62,115.18-121.22Z"/></g><rect class="cls-44" x="-12" y="500" width="1938" height="540"/><rect class="cls-45" x="-2" y="470" width="1941" height="45"/></svg>