<svg id="Layer_1" data-name="Layer 1" xmlns="http://www.w3.org/2000/svg" xmlns:xlink="http://www.w3.org/1999/xlink" viewBox="0 0 324.01 321.73"><defs><style>.cls-1,.cls-3{fill:none;}.cls-2{fill:#b17669;}.cls-2,.cls-3{stroke:#672d20;stroke-width:2px;}.cls-2,.cls-3,.cls-6{stroke-miterlimit:10;}.cls-4{clip-path:url(#clip-path);}.cls-5{fill:#eecd5d;}.cls-6{fill:#677262;stroke:#40483b;}</style><clipPath id="clip-path"><rect class="cls-1" x="4.81" y="4" width="229.8" height="179.91"/></clipPath></defs><path class="cls-2" d="M207.71,312.11c-3.61-3.14-2.33-5.89-7.94-12.81-4.64-5.7-6.11-4.56-8.88-8.69-5.79-8.61-.56-15.33-6.08-20.58-3.84-3.65-7.2-1.19-12.15-5.95-3.55-3.42-3.13-5.95-6.54-7.77-3-1.59-4.35-.24-10.75-.46-3.07-.11-10.4-.36-17.3-4.12-3.26-1.78-3.61-2.8-7-4.12-5.15-2-6.61-.52-9.81-1.83-7.29-3-5.52-13-12.16-15.56-2.74-1-3.12.65-10.28,1.38-5.17.52-16.53,1.67-21.5-4.12-1.77-2-2-4.1-4.68-5.49-1.93-1-3.24-.69-6.54-.92-5.28-.36-9.09-.62-11.22-2.74-2.41-2.4-.54-5-1.87-11.44-1.55-7.47-4.72-6.94-5.15-11.89-.68-8.11,7.8-9.88,8.88-21.05.46-4.64-.81-6.34.94-9.6,2.18-4,5.74-4.41,7-8.69.88-2.94-.46-3.89.47-6.41,1.41-3.81,5.84-5.33,8.41-6.4,9.63-4,7.2-7.85,20.1-16,7.48-4.73,14.39-7.31,20.57-9.61a97.47,97.47,0,0,1,13.09-4.11A143.21,143.21,0,0,1,146,110.37c1.45-.15,3.41.61,5.15-.46,2.37-1.47,1.89-4.23,4.21-5.94,1.65-1.23,3.44-1,6.07-.92,11,.23,12.94-3.56,19.16-1.37,3.69,1.29,3.4,2.76,6.55,3.2,5.41.77,7.14-3.46,11.68-2.74,5.3.83,6.19,7.1,10.75,6.86,2.93-.16,3.62-2.8,7-2.75,2.52,0,2.81,1.5,6.08,2.75,5.33,2,7.91-.57,12.62,1.37,2.71,1.11,2.55,2.27,5.61,4.58,6.75,5.09,10.66,1.84,17.29,5.94,6.24,3.85,4.22,7.61,11.22,11.44,4.7,2.57,6.77,1.51,9.81,4.58,3.26,3.26,2.6,6.17,6.08,8.23,3,1.76,4.28.12,7,1.83,3.69,2.31,2.09,5.81,6.07,9.61,3.06,2.91,4.87,1.67,7,4.57,1.89,2.55,2.12,5.74,2.34,8.69.28,3.89-.48,4.83.47,6.86,1.21,2.61,3.31,2.9,5.14,4.58,3.43,3.16,1.75,7.45,1.87,19.67.12,11.85,1.76,14.5-.93,17.84-3,3.75-6.93,2.75-8.42,6.4-1.58,3.91,2.38,6.32,1.41,11.9-.54,3.09-1.95,3.43-5.15,8.69-3.85,6.33-3.11,8-6.07,13.27A41.16,41.16,0,0,1,285.3,271.4c-7.44,5.62-15.07,7-19.63,7.78a53.5,53.5,0,0,1-23.84-1.38c-13.31-3.92-20.54-12-22-10.52-1.08,1.09,3.58,5.09,7.94,15.1,2.8,6.41,1.59,6.37,6.08,19.21,1.89,5.41,2.41,6.3,1.87,7.78C233.35,315.91,215.6,319,207.71,312.11Z"/><path class="cls-3" d="M75.89,221.07c1.31.09,3.25.24,5.61.46,7.23.7,7.63,1.17,11.22,1.38a49.42,49.42,0,0,0,14-1.38,27.57,27.57,0,0,0,7-2.29c1-.5,10.45-5.4,9.35-10.52-.79-3.69-6.64-5.27-7.48-5.49"/><path class="cls-3" d="M94.59,212.38c-4.63-3.53-6.06-6.84-6.54-9.14-1-5,2.07-7,1.4-14.65-.32-3.7-1.24-5.41,0-6.86,1.54-1.79,4.06-.42,8.41-1.83s3.85-3.31,7.48-4.57c6-2.08,9.82,2.16,12.62,0,3.1-2.39-.95-8.07,2.34-11.9,3-3.55,7.82-.11,14-4.12,4.11-2.65,3.77-5.31,7.94-6.86,3.31-1.23,8-1.22,9.35.92,1.17,1.8-.78,3.9-2.34,9.6a61.87,61.87,0,0,0-1.4,9.61c-1.34,12.7-2,19,.46,20.59,2.25,1.39,4.25-1.41,13.09-3.21,7.56-1.53,7.58.21,13.09-1.37,7.58-2.17,9.09-5.9,15.43-6,3.45,0,3.51,1.08,7,1.38,9.63.8,21-6.57,20.57-12.36-.2-2.75-3.08-5.3-6.08-5.94a9.37,9.37,0,0,0-9.34,4.12"/><path class="cls-3" d="M59.06,195.92c.3,5.08,1.89,7,3.28,7.77,2.09,1.21,3.77-.07,6.54,1.38,2.57,1.34,2,2.9,4.67,4.57s4.46.68,7,2.29a9.59,9.59,0,0,1,3.75,5"/><path class="cls-3" d="M67,160.23a24.43,24.43,0,0,1,5.15-4.57c3.16-2.1,4.13-1.66,6.07-3.21,4.13-3.29,2.11-7.14,5.61-9.6s7.27.32,9.81-2.29c2.19-2.24-.07-4.82,1.87-7.78,2.37-3.6,6.82-1.46,14-5,5.62-2.79,5.07-5.16,10.28-6.86,1.08-.36,4.32-.55,10.75-.92,5.62-.33,8-.38,12.16-.91a34.75,34.75,0,0,0,7-1.38c4.12-1.4,4.1-2.55,7-3.2A15,15,0,0,1,167,116.31c2.05,1.19,4.56,2.63,5.15,5,1.08,4.51-5.75,7.94-11.22,15.56a40.85,40.85,0,0,0-7,17.38"/><path class="cls-3" d="M126.84,219.24c6.62,2,10.14,1,12.16-.45,3.61-2.58,3-7,7-8.69,2.45-1,3.29.37,7.94,0,1-.08,3.45-.35,10.28-3.21,9.19-3.83,7.87-4.67,10.76-5,7.08-.89,10.67,4.67,15.89,2.29,1.82-.84,2.44-2,4.68-2.29,2.79-.38,4.72,1,6.54,1.83,5,2.17,8.6-.8,17.76-2.29,7.17-1.17,7.52.23,15.43-.46a70.76,70.76,0,0,0,20.57-5"/><path class="cls-3" d="M215.66,111.28A41.38,41.38,0,0,0,203.5,114,32.71,32.71,0,0,0,190,123.18c-2.69,3.16-5.19,6.1-5.15,10.06.06,5.26,4.53,7.61,3.28,10.53-1.14,2.65-5.22.95-8.88,4.11-4.36,3.77-4.92,9.84-5.61,17.39-.66,7.13,1.77,8.67,0,11.43-3.18,5-11.64,3.6-12.62,7.32-.47,1.77,1,3.68,2.33,5"/><path class="cls-3" d="M188.54,181.73c-.82-1.38-3.39-6.11-1.87-11.43,1.37-4.79,5.28-7.38,8-9.15,6-4,8.43-2.08,14-6a28.11,28.11,0,0,0,8.42-9.6c3.1-5.81,1.55-8.11,4.2-10.07s4.84-.19,15.9.46c6.9.41,7.64-.18,10.28.92.73.3,6.64,2.83,8.88,8.69,2.05,5.34-.5,9.39,1.87,11,1.64,1.08,3.29-.55,6.55-.46,5.08.13,9.62,4.32,11.68,7.77,4.9,8.22-.54,18.48,2.34,19.67,1.73.72,3.52-3.06,6.54-2.74,5.24.56,7.33,12.69,9.35,12.35,1.67-.28-.26-8.47,4.21-12.81,2.76-2.67,6.93-2.9,9.82-2.75"/><path class="cls-3" d="M139.46,237.09a17.71,17.71,0,0,0,6.55,0c3.22-.62,4.91-1.94,6.54-2.75,8.36-4.12,19,3.43,21,.46,1-1.55-1.29-4.49-.46-5s2.63,1.43,4.2,2.74c3.05,2.55,8.15,2.34,18.23,1.83,11.58-.58,14.22-2.14,15.9-3.66,1.33-1.2,1.18-2.81,2.8-3.66,2.29-1.19,4.5.26,7.95.92,3.89.73,6.86,0,12.15-1.38,6.39-1.63,5.45-2.92,12.16-4.57,2.9-.71,5.36-1,5.6-2.29s-1.58-1.93-3.27-4.58a14,14,0,0,1-1.87-4.58"/><path class="cls-3" d="M168.44,255.39a51,51,0,0,1,21-9.15c6.37-1.13,7.47,0,16.36-.92,5.28-.56,12.16-2.36,25.71-5.94,3.42-.91,8.82-2.59,19.63-5.95,9.23-2.86,12.36-3.94,12.62-5.94.45-3.51-8.28-7.23-10.75-8.24"/><path class="cls-3" d="M196.49,248.07a58.44,58.44,0,0,0,14.5,5.49c6.94,1.61,9.22.76,16.35,1.83,12.08,1.79,11.3,5.06,22.44,6.86,10.5,1.7,13.7-.8,22,2.28a35.85,35.85,0,0,1,10.75,6.41"/><path class="cls-3" d="M239.5,239.38a51.5,51.5,0,0,0,15.43,6.4c3.42.79,9.7,1.86,33.65-.92,5.95-.68,10.82-1.36,14-1.83"/><path class="cls-3" d="M266.14,224.28c6,.43,12.2.75,18.7.91q10,.26,19.16,0"/><path class="cls-3" d="M218.46,169.84a12.31,12.31,0,0,1,3.74-7.32c2.8-2.56,6-2.93,8.42-3.2,1.74-.2,8.62-1,14.49,3.66,1.27,1,5.33,4.22,6.07,9.6.79,5.66-2.37,11.52-7.94,15.1"/><path class="cls-3" d="M114.22,163.44l3.27-15.1"/><path class="cls-3" d="M63.74,190c2.4,1.11,3.58.83,4.21.45,2.27-1.35.15-5.72,2.8-9.6a9,9,0,0,1,5.61-3.66c4.16-.75,9,2.16,11.69,7.31"/><path class="cls-3" d="M68,165.72c.33,1.24,1.33,4.25,3.74,5,3.74,1.23,8.18-3.78,8.88-4.58,2.27-2.56,2.06-4,5.14-7.32a13.21,13.21,0,0,1,3.75-3.2c3.65-1.84,7.7-.61,9.34,0"/><path class="cls-3" d="M96.93,141c6.21,5.18,8.47,5.67,9.35,5,1.38-1-1.1-4.57.46-8.23.59-1.38,1.94-3.19,9.35-5.94a87.43,87.43,0,0,1,18.7-4.58c5.91-.8,7.8-.56,12.62-1.83a53.18,53.18,0,0,0,8.88-3.21"/><path class="cls-3" d="M125.44,136a19.16,19.16,0,0,1,6.54,3.21,19.39,19.39,0,0,1,7,11"/><path class="cls-3" d="M149.28,228.4a23.18,23.18,0,0,0,15.43-5,21.87,21.87,0,0,0,7-10.52"/><path class="cls-3" d="M270.35,178.07a21.13,21.13,0,0,1,0,17.38"/><path class="cls-3" d="M291.38,206.44a15.61,15.61,0,0,0,17.3-2.75"/><path class="cls-3" d="M252.58,138.73a7.12,7.12,0,0,0,4.21-4.58,6.8,6.8,0,0,0-3.27-7.31"/><path class="cls-3" d="M239,115.86c-1.78,5.75-4.48,8.08-6.54,9.15-3.6,1.86-6.81.71-9.82,3.2a10.23,10.23,0,0,0-3.27,6.4"/><path class="cls-3" d="M189,107.17a46.41,46.41,0,0,0-9.81,5.94,45.48,45.48,0,0,0-7,6.86"/><path class="cls-3" d="M121.7,206c5.5,2.74,8.52,2.33,10.29,1.37,3-1.64,2.15-4.78,6.07-7.77,2.18-1.66,3.2-1.26,8.41-3.66a60.46,60.46,0,0,0,6.08-3.21"/><path class="cls-3" d="M242.3,199.57c.68.41,8.66,5,15.43,1.38a11.93,11.93,0,0,0,3.74-3.21"/><path class="cls-3" d="M115.62,189.05l5.61,5.49,7,3.66"/><path class="cls-3" d="M96.93,179.9a37.5,37.5,0,0,1,7.94,4.12,37.09,37.09,0,0,1,7.95,7.32"/><path class="cls-3" d="M138.53,177.61a16.58,16.58,0,0,0,1.4,11.44,16,16,0,0,0,3.74,4.58"/><path class="cls-3" d="M131.05,188.59l8.88,8.69"/><path class="cls-3" d="M94.12,146.05a7.5,7.5,0,0,0-2.8,3.2,7.26,7.26,0,0,0-.47,4.58"/><path class="cls-3" d="M271.28,134.62a14.67,14.67,0,0,1-1.4,12.35,15.07,15.07,0,0,1-9.35,6.4"/><path class="cls-3" d="M280.63,173a7.45,7.45,0,0,0,5.15,1.38c3.36-.49,6.22-3.84,6.54-8.24"/><path class="cls-3" d="M300.73,206.9l4.21,5.48"/><path class="cls-3" d="M300.73,169.38v7.32"/><path class="cls-3" d="M298.39,156.57v7.32"/><path class="cls-3" d="M198.36,147.42c.47,3.51.93,7,1.4,10.52"/><path class="cls-3" d="M186.68,143.31l7.48,4.57"/><path class="cls-3" d="M147.88,124.55c.62,2.9,1.24,5.79,1.87,8.69"/><path class="cls-3" d="M137.59,130l-4.67,8.69"/><path class="cls-3" d="M82,164.81l.93,5,5.15,2.29"/><path class="cls-3" d="M90.85,190.88a7.42,7.42,0,0,1,4.67,2.29,7.14,7.14,0,0,1,1.87,5"/><path class="cls-3" d="M113.75,218.79l-2.34,11.44"/><path class="cls-3" d="M133.38,247.61c3.91-1.53,6.37-1.16,8-.46,2.48,1.11,3.32,3.3,5.14,3.21,1.66-.09,2.92-2,3.75-3.66"/><path class="cls-3" d="M194.62,246.7a12.28,12.28,0,0,0,2.81,6.86c1.74,2,3.28,2.2,7.94,5.48,2.37,1.67,2.47,2,4.21,3.21a42.34,42.34,0,0,0,10.75,5.48"/><path class="cls-3" d="M232,124.55l11.21,1.83"/><path class="cls-3" d="M172.65,131.87l-6.54.92"/><g class="cls-4"><path class="cls-5" d="M88.79,71.31,79.17,99.65l8,.77L75,138l5.77.77-12.5,43.66,2.24,1.53,26-62.81-6.73-1.53L104.19,85.1l-7,.77,6.09-13.79Z"/><path class="cls-5" d="M127.42,45.27,117.8,73.61l8,.77-12.18,37.54,5.77.77-12.5,43.66,2.24,1.53,26-62.82-6.73-1.53,14.43-34.47-7.05.77L141.85,46Z"/><path class="cls-6" d="M48,60.5c.37-2.85,1.3-6.3,3.89-7.63,2.83-1.45,5.24.84,7.67-.7,2.77-1.77.87-5.55,3.91-9.93a14.52,14.52,0,0,1,7.7-5.3c4.8-1.3,7.36,1.07,9.2-.69s-.21-4.32.84-9.18c1-4.41,3.67-7.28,5.44-9.15,1.58-1.68,5.39-5.7,11.54-6.8a20.62,20.62,0,0,1,9.95.85c6.21,1.95,7.21,5.16,10.69,4.68s3.15-3.53,7.71-6.07a16.23,16.23,0,0,1,14.56-.65,16.55,16.55,0,0,1,6.84,7c2.14,3.86,1,5.26,3,7.68,2.8,3.41,5.86,1.65,9.92,4.68,5.37,4,4.76,10.63,7.57,10.78,2.16.12,2.34-3.79,6.18-6.08,4.55-2.72,11.58-1.55,16.07,1.66,5,3.55,3.87,7.48,8.35,9.26,4.16,1.65,5.83-1.44,11.49.09,3.29.89,5.66,2.73,9.15,5.44,2.75,2.13,3,2.8,6.08,5.41,5.59,4.71,8.41,5.58,8.38,6.19C233.93,65.26,153.24,63.78,48,60.5Z"/><path class="cls-6" d="M5.37,79.91c.34-2.86,1.25-6.31,3.83-7.66,2.82-1.48,5.24.8,7.66-.77,2.76-1.79.83-5.56,3.83-10a14.44,14.44,0,0,1,7.66-5.36c4.79-1.33,7.37,1,9.19-.77s-.25-4.32.77-9.19c.92-4.42,3.61-7.31,5.36-9.19,1.57-1.69,5.35-5.74,11.49-6.89a20.65,20.65,0,0,1,10,.77c6.23,1.9,7.26,5.1,10.72,4.6S79,31.94,83.5,29.36c4-2.28,9.81-3.06,14.55-.77a16.42,16.42,0,0,1,6.89,6.89c2.17,3.84,1,5.25,3.06,7.66,2.83,3.39,5.87,1.6,10,4.6,5.4,4,4.84,10.59,7.66,10.72,2.16.1,2.31-3.81,6.13-6.13,4.53-2.75,11.57-1.65,16.08,1.53,5,3.51,3.93,7.45,8.43,9.19,4.17,1.62,5.82-1.49,11.49,0,3.3.86,5.68,2.68,9.19,5.36,2.77,2.11,3,2.77,6.13,5.36,5.63,4.67,8.45,5.51,8.43,6.13C191.34,83.17,110.64,82.34,5.37,79.91Z"/></g></svg>